M48
; DRILL file {KiCad 7.0.5} date Sun Dec 17 09:41:51 2023
; FORMAT={-:-/ absolute / metric / decimal}
; #@! TF.CreationDate,2023-12-17T09:41:51+13:00
; #@! TF.GenerationSoftware,Kicad,Pcbnew,7.0.5
; #@! TF.FileFunction,Plated,1,4,PTH
FMAT,2
METRIC
; #@! TA.AperFunction,Plated,PTH,ViaDrill
T1C0.400
; #@! TA.AperFunction,Plated,PTH,ComponentDrill
T2C0.700
; #@! TA.AperFunction,Plated,PTH,ComponentDrill
T3C0.750
; #@! TA.AperFunction,Plated,PTH,ComponentDrill
T4C0.800
; #@! TA.AperFunction,Plated,PTH,ComponentDrill
T5C0.900
; #@! TA.AperFunction,Plated,PTH,ComponentDrill
T6C1.000
; #@! TA.AperFunction,Plated,PTH,ComponentDrill
T7C1.300
; #@! TA.AperFunction,Plated,PTH,ComponentDrill
T8C2.210
%
G90
G05
T1
X133.667Y-97.337
X133.667Y-98.557
X133.718Y-99.822
X133.744Y-101.092
X133.769Y-107.447
X133.769Y-108.717
X133.794Y-102.367
X133.972Y-103.992
X139.433Y-110.723
X139.433Y-113.797
X139.433Y-116.337
X139.586Y-112.616
X140.322Y-98.557
X140.398Y-97.376
X141.338Y-109.987
X141.973Y-115.067
X143.675Y-107.802
X152.768Y-58.526
X154.182Y-61.117
X179.159Y-130.307
X181.699Y-129.672
X184.264Y-128.91
X186.804Y-128.021
X189.344Y-127.259
X191.884Y-126.497
T2
X119.85Y-131.831
X127.47Y-131.831
X141.44Y-102.062
X146.266Y-111.917
X146.266Y-114.457
X147.203Y-124.592
X147.203Y-132.212
X149.06Y-102.062
X150.353Y-124.592
X150.353Y-132.212
X153.503Y-124.592
X153.503Y-132.212
X153.886Y-111.917
X153.886Y-114.457
X156.653Y-124.592
X156.653Y-132.212
X159.803Y-124.592
X159.803Y-132.212
X161.049Y-98.76
X162.953Y-124.592
X162.953Y-132.212
X166.103Y-124.592
X166.103Y-132.212
X168.669Y-98.76
X169.253Y-124.592
X169.253Y-132.212
X171.285Y-97.795
X178.244Y-70.667
X178.244Y-78.287
X178.905Y-97.795
X180.784Y-70.642
X180.784Y-78.262
X185.763Y-70.638
X185.763Y-78.258
X188.303Y-70.638
X188.303Y-78.258
T3
X178.244Y-67.442
X179.514Y-67.442
X180.784Y-67.442
X185.712Y-67.492
X186.982Y-67.492
X188.252Y-67.492
T4
X142.202Y-98.252
X144.702Y-98.252
X174.079Y-124.515
X174.079Y-132.135
X176.619Y-124.515
X176.619Y-132.135
X179.159Y-124.515
X179.159Y-132.135
X181.699Y-124.515
X181.699Y-132.135
X184.239Y-124.515
X184.239Y-132.135
X186.779Y-124.515
X186.779Y-132.135
X189.319Y-124.515
X189.319Y-132.135
X191.859Y-124.515
X191.859Y-132.135
X194.399Y-124.515
X194.399Y-132.135
X196.939Y-124.515
X196.939Y-132.135
T5
X124.848Y-136.016
X127.388Y-136.016
X132.138Y-136.016
X134.678Y-136.016
X137.218Y-136.016
X139.758Y-136.016
X142.298Y-136.016
X144.838Y-136.016
X147.378Y-136.016
X149.918Y-136.016
X152.458Y-136.016
X154.998Y-136.016
X157.538Y-136.016
X160.078Y-136.016
X162.618Y-136.016
X165.158Y-136.016
X167.698Y-136.016
X170.238Y-136.016
T6
X105.17Y-69.744
X105.17Y-72.284
X105.17Y-74.824
X105.17Y-77.364
X118.053Y-68.712
X118.053Y-71.252
X120.593Y-68.712
X120.593Y-71.252
X123.133Y-68.712
X123.133Y-71.252
X125.673Y-68.712
X125.673Y-71.252
X128.213Y-68.712
X128.213Y-71.252
X130.753Y-68.712
X130.753Y-71.252
X133.293Y-68.712
X133.293Y-71.252
X135.833Y-68.712
X135.833Y-71.252
X138.373Y-68.712
X138.373Y-71.252
X140.913Y-68.712
X140.913Y-71.252
X143.453Y-68.712
X143.453Y-71.252
X145.993Y-68.712
X145.993Y-71.252
X148.533Y-68.712
X148.533Y-71.252
X151.073Y-68.712
X151.073Y-71.252
X153.613Y-68.712
X153.613Y-71.252
X156.153Y-68.712
X156.153Y-71.252
X158.693Y-68.712
X158.693Y-71.252
X161.233Y-68.712
X161.233Y-71.252
X163.773Y-63.632
X163.773Y-66.172
X163.773Y-68.712
X163.773Y-71.252
X166.313Y-63.632
X166.313Y-66.172
X166.313Y-68.712
X166.313Y-71.252
X176.802Y-137.268
X176.802Y-139.808
X179.342Y-137.268
X179.342Y-139.808
X181.882Y-137.268
X181.882Y-139.808
X184.422Y-137.268
X184.422Y-139.808
X186.962Y-137.268
X186.962Y-139.808
X189.502Y-137.268
X189.502Y-139.808
X195.899Y-74.241
X195.899Y-76.781
X195.899Y-79.321
X195.899Y-81.861
X195.899Y-84.401
X195.899Y-86.941
X195.899Y-89.481
X195.899Y-92.021
X195.899Y-94.561
X195.899Y-97.101
X195.899Y-99.641
X195.899Y-102.181
X195.899Y-104.721
X195.899Y-107.261
X195.899Y-109.801
X195.899Y-112.341
X198.439Y-74.241
X198.439Y-76.781
X198.439Y-79.321
X198.439Y-81.861
X198.439Y-84.401
X198.439Y-86.941
X198.439Y-89.481
X198.439Y-92.021
X198.439Y-94.561
X198.439Y-97.101
X198.439Y-99.641
X198.439Y-102.181
X198.439Y-104.721
X198.439Y-107.261
X198.439Y-109.801
X198.439Y-112.341
T8
X133.746Y-84.582
X133.746Y-123.322
T6
X178.509Y-61.47G85X178.509Y-59.97
G05
X186.009Y-61.47G85X186.009Y-59.97
G05
T7
X182.734Y-57.02G85X181.784Y-57.02
G05
T0
M30
