%TF.GenerationSoftware,KiCad,Pcbnew,7.0.5*%
%TF.CreationDate,2023-12-17T18:07:04+13:00*%
%TF.ProjectId,CompactFlash,436f6d70-6163-4744-966c-6173682e6b69,2*%
%TF.SameCoordinates,Original*%
%TF.FileFunction,Drillmap*%
%TF.FilePolarity,Positive*%
%FSLAX45Y45*%
G04 Gerber Fmt 4.5, Leading zero omitted, Abs format (unit mm)*
G04 Created by KiCad (PCBNEW 7.0.5) date 2023-12-17 18:07:04*
%MOMM*%
%LPD*%
G01*
G04 APERTURE LIST*
%ADD10C,0.100000*%
%ADD11C,0.200000*%
%ADD12C,0.040000*%
%ADD13C,0.070000*%
%ADD14C,0.075000*%
%ADD15C,0.080000*%
%ADD16C,0.090000*%
%ADD17C,0.130000*%
%ADD18C,0.221000*%
G04 APERTURE END LIST*
D10*
X15276825Y-4712155D02*
X15276825Y-4331155D01*
X19715228Y-14328298D02*
G75*
G03*
X20115228Y-13928298I-8J400008D01*
G01*
X15276825Y-4331155D02*
X19715228Y-4328298D01*
X10515228Y-4328298D02*
X14832325Y-4331155D01*
X20115228Y-13928298D02*
X20115228Y-4728298D01*
X10515228Y-4328298D02*
G75*
G03*
X10115228Y-4728298I-3J-399997D01*
G01*
X10115228Y-4728298D02*
X10115228Y-13928298D01*
X10515228Y-14328298D02*
X19715228Y-14328298D01*
X14832325Y-4712155D02*
X15276825Y-4712155D01*
X20115222Y-4728298D02*
G75*
G03*
X19715228Y-4328298I-400002J-2D01*
G01*
X10115222Y-13928298D02*
G75*
G03*
X10515228Y-14328298I399998J-2D01*
G01*
X14832325Y-4331155D02*
X14832325Y-4712155D01*
D11*
D12*
X13346745Y-9713735D02*
X13386745Y-9753735D01*
X13386745Y-9713735D02*
X13346745Y-9753735D01*
X13346745Y-9835655D02*
X13386745Y-9875655D01*
X13386745Y-9835655D02*
X13346745Y-9875655D01*
X13351825Y-9962155D02*
X13391825Y-10002155D01*
X13391825Y-9962155D02*
X13351825Y-10002155D01*
X13354365Y-10089155D02*
X13394365Y-10129155D01*
X13394365Y-10089155D02*
X13354365Y-10129155D01*
X13356905Y-10724655D02*
X13396905Y-10764655D01*
X13396905Y-10724655D02*
X13356905Y-10764655D01*
X13356905Y-10851655D02*
X13396905Y-10891655D01*
X13396905Y-10851655D02*
X13356905Y-10891655D01*
X13359445Y-10216655D02*
X13399445Y-10256655D01*
X13399445Y-10216655D02*
X13359445Y-10256655D01*
X13377225Y-10379215D02*
X13417225Y-10419215D01*
X13417225Y-10379215D02*
X13377225Y-10419215D01*
X13923325Y-11052315D02*
X13963325Y-11092315D01*
X13963325Y-11052315D02*
X13923325Y-11092315D01*
X13923325Y-11359655D02*
X13963325Y-11399655D01*
X13963325Y-11359655D02*
X13923325Y-11399655D01*
X13923325Y-11613655D02*
X13963325Y-11653655D01*
X13963325Y-11613655D02*
X13923325Y-11653655D01*
X13938565Y-11241605D02*
X13978565Y-11281605D01*
X13978565Y-11241605D02*
X13938565Y-11281605D01*
X14012225Y-9835655D02*
X14052225Y-9875655D01*
X14052225Y-9835655D02*
X14012225Y-9875655D01*
X14019845Y-9717605D02*
X14059845Y-9757605D01*
X14059845Y-9717605D02*
X14019845Y-9757605D01*
X14113825Y-10978655D02*
X14153825Y-11018655D01*
X14153825Y-10978655D02*
X14113825Y-11018655D01*
X14177325Y-11486655D02*
X14217325Y-11526655D01*
X14217325Y-11486655D02*
X14177325Y-11526655D01*
X14347505Y-10760215D02*
X14387505Y-10800215D01*
X14387505Y-10760215D02*
X14347505Y-10800215D01*
X15256825Y-5832615D02*
X15296825Y-5872615D01*
X15296825Y-5832615D02*
X15256825Y-5872615D01*
X15398235Y-6091695D02*
X15438235Y-6131695D01*
X15438235Y-6091695D02*
X15398235Y-6131695D01*
X17895885Y-13010655D02*
X17935885Y-13050655D01*
X17935885Y-13010655D02*
X17895885Y-13050655D01*
X18149885Y-12947155D02*
X18189885Y-12987155D01*
X18189885Y-12947155D02*
X18149885Y-12987155D01*
X18406425Y-12870955D02*
X18446425Y-12910955D01*
X18446425Y-12870955D02*
X18406425Y-12910955D01*
X18660425Y-12782055D02*
X18700425Y-12822055D01*
X18700425Y-12782055D02*
X18660425Y-12822055D01*
X18914425Y-12705855D02*
X18954425Y-12745855D01*
X18954425Y-12705855D02*
X18914425Y-12745855D01*
X19168425Y-12629655D02*
X19208425Y-12669655D01*
X19208425Y-12629655D02*
X19168425Y-12669655D01*
D13*
X12019985Y-13183055D02*
G75*
G03*
X12019985Y-13183055I-35000J0D01*
G01*
X12781985Y-13183055D02*
G75*
G03*
X12781985Y-13183055I-35000J0D01*
G01*
X14178985Y-10206175D02*
G75*
G03*
X14178985Y-10206175I-35000J0D01*
G01*
X14661585Y-11191695D02*
G75*
G03*
X14661585Y-11191695I-35000J0D01*
G01*
X14661585Y-11445695D02*
G75*
G03*
X14661585Y-11445695I-35000J0D01*
G01*
X14755285Y-12459155D02*
G75*
G03*
X14755285Y-12459155I-35000J0D01*
G01*
X14755285Y-13221155D02*
G75*
G03*
X14755285Y-13221155I-35000J0D01*
G01*
X14940985Y-10206175D02*
G75*
G03*
X14940985Y-10206175I-35000J0D01*
G01*
X15070285Y-12459155D02*
G75*
G03*
X15070285Y-12459155I-35000J0D01*
G01*
X15070285Y-13221155D02*
G75*
G03*
X15070285Y-13221155I-35000J0D01*
G01*
X15385285Y-12459155D02*
G75*
G03*
X15385285Y-12459155I-35000J0D01*
G01*
X15385285Y-13221155D02*
G75*
G03*
X15385285Y-13221155I-35000J0D01*
G01*
X15423585Y-11191695D02*
G75*
G03*
X15423585Y-11191695I-35000J0D01*
G01*
X15423585Y-11445695D02*
G75*
G03*
X15423585Y-11445695I-35000J0D01*
G01*
X15700285Y-12459155D02*
G75*
G03*
X15700285Y-12459155I-35000J0D01*
G01*
X15700285Y-13221155D02*
G75*
G03*
X15700285Y-13221155I-35000J0D01*
G01*
X16015285Y-12459155D02*
G75*
G03*
X16015285Y-12459155I-35000J0D01*
G01*
X16015285Y-13221155D02*
G75*
G03*
X16015285Y-13221155I-35000J0D01*
G01*
X16139865Y-9875975D02*
G75*
G03*
X16139865Y-9875975I-35000J0D01*
G01*
X16330285Y-12459155D02*
G75*
G03*
X16330285Y-12459155I-35000J0D01*
G01*
X16330285Y-13221155D02*
G75*
G03*
X16330285Y-13221155I-35000J0D01*
G01*
X16645285Y-12459155D02*
G75*
G03*
X16645285Y-12459155I-35000J0D01*
G01*
X16645285Y-13221155D02*
G75*
G03*
X16645285Y-13221155I-35000J0D01*
G01*
X16901865Y-9875975D02*
G75*
G03*
X16901865Y-9875975I-35000J0D01*
G01*
X16960285Y-12459155D02*
G75*
G03*
X16960285Y-12459155I-35000J0D01*
G01*
X16960285Y-13221155D02*
G75*
G03*
X16960285Y-13221155I-35000J0D01*
G01*
X17163485Y-9779455D02*
G75*
G03*
X17163485Y-9779455I-35000J0D01*
G01*
X17859445Y-7066735D02*
G75*
G03*
X17859445Y-7066735I-35000J0D01*
G01*
X17859445Y-7828735D02*
G75*
G03*
X17859445Y-7828735I-35000J0D01*
G01*
X17925485Y-9779455D02*
G75*
G03*
X17925485Y-9779455I-35000J0D01*
G01*
X18113445Y-7064195D02*
G75*
G03*
X18113445Y-7064195I-35000J0D01*
G01*
X18113445Y-7826195D02*
G75*
G03*
X18113445Y-7826195I-35000J0D01*
G01*
X18611285Y-7063755D02*
G75*
G03*
X18611285Y-7063755I-35000J0D01*
G01*
X18611285Y-7825755D02*
G75*
G03*
X18611285Y-7825755I-35000J0D01*
G01*
X18865285Y-7063755D02*
G75*
G03*
X18865285Y-7063755I-35000J0D01*
G01*
X18865285Y-7825755D02*
G75*
G03*
X18865285Y-7825755I-35000J0D01*
G01*
D14*
X17824445Y-6706655D02*
X17824445Y-6781655D01*
X17786945Y-6744155D02*
X17861945Y-6744155D01*
X17951445Y-6706655D02*
X17951445Y-6781655D01*
X17913945Y-6744155D02*
X17988945Y-6744155D01*
X18078445Y-6706655D02*
X18078445Y-6781655D01*
X18040945Y-6744155D02*
X18115945Y-6744155D01*
X18571205Y-6711735D02*
X18571205Y-6786735D01*
X18533705Y-6749235D02*
X18608705Y-6749235D01*
X18698205Y-6711735D02*
X18698205Y-6786735D01*
X18660705Y-6749235D02*
X18735705Y-6749235D01*
X18825205Y-6711735D02*
X18825205Y-6786735D01*
X18787705Y-6749235D02*
X18862705Y-6749235D01*
D15*
X14248469Y-9853459D02*
X14248469Y-9796890D01*
X14191900Y-9796890D01*
X14191900Y-9853459D01*
X14248469Y-9853459D01*
X14498469Y-9853459D02*
X14498469Y-9796890D01*
X14441900Y-9796890D01*
X14441900Y-9853459D01*
X14498469Y-9853459D01*
X17436170Y-12479819D02*
X17436170Y-12423250D01*
X17379601Y-12423250D01*
X17379601Y-12479819D01*
X17436170Y-12479819D01*
X17436170Y-13241819D02*
X17436170Y-13185250D01*
X17379601Y-13185250D01*
X17379601Y-13241819D01*
X17436170Y-13241819D01*
X17690170Y-12479819D02*
X17690170Y-12423250D01*
X17633601Y-12423250D01*
X17633601Y-12479819D01*
X17690170Y-12479819D01*
X17690170Y-13241819D02*
X17690170Y-13185250D01*
X17633601Y-13185250D01*
X17633601Y-13241819D01*
X17690170Y-13241819D01*
X17944170Y-12479819D02*
X17944170Y-12423250D01*
X17887601Y-12423250D01*
X17887601Y-12479819D01*
X17944170Y-12479819D01*
X17944170Y-13241819D02*
X17944170Y-13185250D01*
X17887601Y-13185250D01*
X17887601Y-13241819D01*
X17944170Y-13241819D01*
X18198170Y-12479819D02*
X18198170Y-12423250D01*
X18141601Y-12423250D01*
X18141601Y-12479819D01*
X18198170Y-12479819D01*
X18198170Y-13241819D02*
X18198170Y-13185250D01*
X18141601Y-13185250D01*
X18141601Y-13241819D01*
X18198170Y-13241819D01*
X18452170Y-12479819D02*
X18452170Y-12423250D01*
X18395601Y-12423250D01*
X18395601Y-12479819D01*
X18452170Y-12479819D01*
X18452170Y-13241819D02*
X18452170Y-13185250D01*
X18395601Y-13185250D01*
X18395601Y-13241819D01*
X18452170Y-13241819D01*
X18706170Y-12479819D02*
X18706170Y-12423250D01*
X18649601Y-12423250D01*
X18649601Y-12479819D01*
X18706170Y-12479819D01*
X18706170Y-13241819D02*
X18706170Y-13185250D01*
X18649601Y-13185250D01*
X18649601Y-13241819D01*
X18706170Y-13241819D01*
X18960170Y-12479819D02*
X18960170Y-12423250D01*
X18903601Y-12423250D01*
X18903601Y-12479819D01*
X18960170Y-12479819D01*
X18960170Y-13241819D02*
X18960170Y-13185250D01*
X18903601Y-13185250D01*
X18903601Y-13241819D01*
X18960170Y-13241819D01*
X19214170Y-12479819D02*
X19214170Y-12423250D01*
X19157601Y-12423250D01*
X19157601Y-12479819D01*
X19214170Y-12479819D01*
X19214170Y-13241819D02*
X19214170Y-13185250D01*
X19157601Y-13185250D01*
X19157601Y-13241819D01*
X19214170Y-13241819D01*
X19468170Y-12479819D02*
X19468170Y-12423250D01*
X19411601Y-12423250D01*
X19411601Y-12479819D01*
X19468170Y-12479819D01*
X19468170Y-13241819D02*
X19468170Y-13185250D01*
X19411601Y-13185250D01*
X19411601Y-13241819D01*
X19468170Y-13241819D01*
X19722170Y-12479819D02*
X19722170Y-12423250D01*
X19665601Y-12423250D01*
X19665601Y-12479819D01*
X19722170Y-12479819D01*
X19722170Y-13241819D02*
X19722170Y-13185250D01*
X19665601Y-13185250D01*
X19665601Y-13241819D01*
X19722170Y-13241819D01*
D16*
X12484825Y-13646595D02*
X12529825Y-13601595D01*
X12484825Y-13556595D01*
X12439825Y-13601595D01*
X12484825Y-13646595D01*
X12738825Y-13646595D02*
X12783825Y-13601595D01*
X12738825Y-13556595D01*
X12693825Y-13601595D01*
X12738825Y-13646595D01*
X13213805Y-13646595D02*
X13258805Y-13601595D01*
X13213805Y-13556595D01*
X13168805Y-13601595D01*
X13213805Y-13646595D01*
X13467805Y-13646595D02*
X13512805Y-13601595D01*
X13467805Y-13556595D01*
X13422805Y-13601595D01*
X13467805Y-13646595D01*
X13721805Y-13646595D02*
X13766805Y-13601595D01*
X13721805Y-13556595D01*
X13676805Y-13601595D01*
X13721805Y-13646595D01*
X13975805Y-13646595D02*
X14020805Y-13601595D01*
X13975805Y-13556595D01*
X13930805Y-13601595D01*
X13975805Y-13646595D01*
X14229805Y-13646595D02*
X14274805Y-13601595D01*
X14229805Y-13556595D01*
X14184805Y-13601595D01*
X14229805Y-13646595D01*
X14483805Y-13646595D02*
X14528805Y-13601595D01*
X14483805Y-13556595D01*
X14438805Y-13601595D01*
X14483805Y-13646595D01*
X14737805Y-13646595D02*
X14782805Y-13601595D01*
X14737805Y-13556595D01*
X14692805Y-13601595D01*
X14737805Y-13646595D01*
X14991805Y-13646595D02*
X15036805Y-13601595D01*
X14991805Y-13556595D01*
X14946805Y-13601595D01*
X14991805Y-13646595D01*
X15245805Y-13646595D02*
X15290805Y-13601595D01*
X15245805Y-13556595D01*
X15200805Y-13601595D01*
X15245805Y-13646595D01*
X15499805Y-13646595D02*
X15544805Y-13601595D01*
X15499805Y-13556595D01*
X15454805Y-13601595D01*
X15499805Y-13646595D01*
X15753805Y-13646595D02*
X15798805Y-13601595D01*
X15753805Y-13556595D01*
X15708805Y-13601595D01*
X15753805Y-13646595D01*
X16007805Y-13646595D02*
X16052805Y-13601595D01*
X16007805Y-13556595D01*
X15962805Y-13601595D01*
X16007805Y-13646595D01*
X16261805Y-13646595D02*
X16306805Y-13601595D01*
X16261805Y-13556595D01*
X16216805Y-13601595D01*
X16261805Y-13646595D01*
X16515805Y-13646595D02*
X16560805Y-13601595D01*
X16515805Y-13556595D01*
X16470805Y-13601595D01*
X16515805Y-13646595D01*
X16769805Y-13646595D02*
X16814805Y-13601595D01*
X16769805Y-13556595D01*
X16724805Y-13601595D01*
X16769805Y-13646595D01*
X17023805Y-13646595D02*
X17068805Y-13601595D01*
X17023805Y-13556595D01*
X16978805Y-13601595D01*
X17023805Y-13646595D01*
D10*
X10466988Y-6924418D02*
X10566988Y-7024418D01*
X10566988Y-6924418D02*
X10466988Y-7024418D01*
X10566988Y-6974418D02*
G75*
G03*
X10566988Y-6974418I-50000J0D01*
G01*
X10466988Y-7178418D02*
X10566988Y-7278418D01*
X10566988Y-7178418D02*
X10466988Y-7278418D01*
X10566988Y-7228418D02*
G75*
G03*
X10566988Y-7228418I-50000J0D01*
G01*
X10466988Y-7432418D02*
X10566988Y-7532418D01*
X10566988Y-7432418D02*
X10466988Y-7532418D01*
X10566988Y-7482418D02*
G75*
G03*
X10566988Y-7482418I-50000J0D01*
G01*
X10466988Y-7686418D02*
X10566988Y-7786418D01*
X10566988Y-7686418D02*
X10466988Y-7786418D01*
X10566988Y-7736418D02*
G75*
G03*
X10566988Y-7736418I-50000J0D01*
G01*
X11755325Y-6821155D02*
X11855325Y-6921155D01*
X11855325Y-6821155D02*
X11755325Y-6921155D01*
X11855325Y-6871155D02*
G75*
G03*
X11855325Y-6871155I-50000J0D01*
G01*
X11755325Y-7075155D02*
X11855325Y-7175155D01*
X11855325Y-7075155D02*
X11755325Y-7175155D01*
X11855325Y-7125155D02*
G75*
G03*
X11855325Y-7125155I-50000J0D01*
G01*
X12009325Y-6821155D02*
X12109325Y-6921155D01*
X12109325Y-6821155D02*
X12009325Y-6921155D01*
X12109325Y-6871155D02*
G75*
G03*
X12109325Y-6871155I-50000J0D01*
G01*
X12009325Y-7075155D02*
X12109325Y-7175155D01*
X12109325Y-7075155D02*
X12009325Y-7175155D01*
X12109325Y-7125155D02*
G75*
G03*
X12109325Y-7125155I-50000J0D01*
G01*
X12263325Y-6821155D02*
X12363325Y-6921155D01*
X12363325Y-6821155D02*
X12263325Y-6921155D01*
X12363325Y-6871155D02*
G75*
G03*
X12363325Y-6871155I-50000J0D01*
G01*
X12263325Y-7075155D02*
X12363325Y-7175155D01*
X12363325Y-7075155D02*
X12263325Y-7175155D01*
X12363325Y-7125155D02*
G75*
G03*
X12363325Y-7125155I-50000J0D01*
G01*
X12517325Y-6821155D02*
X12617325Y-6921155D01*
X12617325Y-6821155D02*
X12517325Y-6921155D01*
X12617325Y-6871155D02*
G75*
G03*
X12617325Y-6871155I-50000J0D01*
G01*
X12517325Y-7075155D02*
X12617325Y-7175155D01*
X12617325Y-7075155D02*
X12517325Y-7175155D01*
X12617325Y-7125155D02*
G75*
G03*
X12617325Y-7125155I-50000J0D01*
G01*
X12771325Y-6821155D02*
X12871325Y-6921155D01*
X12871325Y-6821155D02*
X12771325Y-6921155D01*
X12871325Y-6871155D02*
G75*
G03*
X12871325Y-6871155I-50000J0D01*
G01*
X12771325Y-7075155D02*
X12871325Y-7175155D01*
X12871325Y-7075155D02*
X12771325Y-7175155D01*
X12871325Y-7125155D02*
G75*
G03*
X12871325Y-7125155I-50000J0D01*
G01*
X13025325Y-6821155D02*
X13125325Y-6921155D01*
X13125325Y-6821155D02*
X13025325Y-6921155D01*
X13125325Y-6871155D02*
G75*
G03*
X13125325Y-6871155I-50000J0D01*
G01*
X13025325Y-7075155D02*
X13125325Y-7175155D01*
X13125325Y-7075155D02*
X13025325Y-7175155D01*
X13125325Y-7125155D02*
G75*
G03*
X13125325Y-7125155I-50000J0D01*
G01*
X13279325Y-6821155D02*
X13379325Y-6921155D01*
X13379325Y-6821155D02*
X13279325Y-6921155D01*
X13379325Y-6871155D02*
G75*
G03*
X13379325Y-6871155I-50000J0D01*
G01*
X13279325Y-7075155D02*
X13379325Y-7175155D01*
X13379325Y-7075155D02*
X13279325Y-7175155D01*
X13379325Y-7125155D02*
G75*
G03*
X13379325Y-7125155I-50000J0D01*
G01*
X13533325Y-6821155D02*
X13633325Y-6921155D01*
X13633325Y-6821155D02*
X13533325Y-6921155D01*
X13633325Y-6871155D02*
G75*
G03*
X13633325Y-6871155I-50000J0D01*
G01*
X13533325Y-7075155D02*
X13633325Y-7175155D01*
X13633325Y-7075155D02*
X13533325Y-7175155D01*
X13633325Y-7125155D02*
G75*
G03*
X13633325Y-7125155I-50000J0D01*
G01*
X13787325Y-6821155D02*
X13887325Y-6921155D01*
X13887325Y-6821155D02*
X13787325Y-6921155D01*
X13887325Y-6871155D02*
G75*
G03*
X13887325Y-6871155I-50000J0D01*
G01*
X13787325Y-7075155D02*
X13887325Y-7175155D01*
X13887325Y-7075155D02*
X13787325Y-7175155D01*
X13887325Y-7125155D02*
G75*
G03*
X13887325Y-7125155I-50000J0D01*
G01*
X14041325Y-6821155D02*
X14141325Y-6921155D01*
X14141325Y-6821155D02*
X14041325Y-6921155D01*
X14141325Y-6871155D02*
G75*
G03*
X14141325Y-6871155I-50000J0D01*
G01*
X14041325Y-7075155D02*
X14141325Y-7175155D01*
X14141325Y-7075155D02*
X14041325Y-7175155D01*
X14141325Y-7125155D02*
G75*
G03*
X14141325Y-7125155I-50000J0D01*
G01*
X14295325Y-6821155D02*
X14395325Y-6921155D01*
X14395325Y-6821155D02*
X14295325Y-6921155D01*
X14395325Y-6871155D02*
G75*
G03*
X14395325Y-6871155I-50000J0D01*
G01*
X14295325Y-7075155D02*
X14395325Y-7175155D01*
X14395325Y-7075155D02*
X14295325Y-7175155D01*
X14395325Y-7125155D02*
G75*
G03*
X14395325Y-7125155I-50000J0D01*
G01*
X14549325Y-6821155D02*
X14649325Y-6921155D01*
X14649325Y-6821155D02*
X14549325Y-6921155D01*
X14649325Y-6871155D02*
G75*
G03*
X14649325Y-6871155I-50000J0D01*
G01*
X14549325Y-7075155D02*
X14649325Y-7175155D01*
X14649325Y-7075155D02*
X14549325Y-7175155D01*
X14649325Y-7125155D02*
G75*
G03*
X14649325Y-7125155I-50000J0D01*
G01*
X14803325Y-6821155D02*
X14903325Y-6921155D01*
X14903325Y-6821155D02*
X14803325Y-6921155D01*
X14903325Y-6871155D02*
G75*
G03*
X14903325Y-6871155I-50000J0D01*
G01*
X14803325Y-7075155D02*
X14903325Y-7175155D01*
X14903325Y-7075155D02*
X14803325Y-7175155D01*
X14903325Y-7125155D02*
G75*
G03*
X14903325Y-7125155I-50000J0D01*
G01*
X15057325Y-6821155D02*
X15157325Y-6921155D01*
X15157325Y-6821155D02*
X15057325Y-6921155D01*
X15157325Y-6871155D02*
G75*
G03*
X15157325Y-6871155I-50000J0D01*
G01*
X15057325Y-7075155D02*
X15157325Y-7175155D01*
X15157325Y-7075155D02*
X15057325Y-7175155D01*
X15157325Y-7125155D02*
G75*
G03*
X15157325Y-7125155I-50000J0D01*
G01*
X15311325Y-6821155D02*
X15411325Y-6921155D01*
X15411325Y-6821155D02*
X15311325Y-6921155D01*
X15411325Y-6871155D02*
G75*
G03*
X15411325Y-6871155I-50000J0D01*
G01*
X15311325Y-7075155D02*
X15411325Y-7175155D01*
X15411325Y-7075155D02*
X15311325Y-7175155D01*
X15411325Y-7125155D02*
G75*
G03*
X15411325Y-7125155I-50000J0D01*
G01*
X15565325Y-6821155D02*
X15665325Y-6921155D01*
X15665325Y-6821155D02*
X15565325Y-6921155D01*
X15665325Y-6871155D02*
G75*
G03*
X15665325Y-6871155I-50000J0D01*
G01*
X15565325Y-7075155D02*
X15665325Y-7175155D01*
X15665325Y-7075155D02*
X15565325Y-7175155D01*
X15665325Y-7125155D02*
G75*
G03*
X15665325Y-7125155I-50000J0D01*
G01*
X15819325Y-6821155D02*
X15919325Y-6921155D01*
X15919325Y-6821155D02*
X15819325Y-6921155D01*
X15919325Y-6871155D02*
G75*
G03*
X15919325Y-6871155I-50000J0D01*
G01*
X15819325Y-7075155D02*
X15919325Y-7175155D01*
X15919325Y-7075155D02*
X15819325Y-7175155D01*
X15919325Y-7125155D02*
G75*
G03*
X15919325Y-7125155I-50000J0D01*
G01*
X16073325Y-6821155D02*
X16173325Y-6921155D01*
X16173325Y-6821155D02*
X16073325Y-6921155D01*
X16173325Y-6871155D02*
G75*
G03*
X16173325Y-6871155I-50000J0D01*
G01*
X16073325Y-7075155D02*
X16173325Y-7175155D01*
X16173325Y-7075155D02*
X16073325Y-7175155D01*
X16173325Y-7125155D02*
G75*
G03*
X16173325Y-7125155I-50000J0D01*
G01*
X16327325Y-6313155D02*
X16427325Y-6413155D01*
X16427325Y-6313155D02*
X16327325Y-6413155D01*
X16427325Y-6363155D02*
G75*
G03*
X16427325Y-6363155I-50000J0D01*
G01*
X16327325Y-6567155D02*
X16427325Y-6667155D01*
X16427325Y-6567155D02*
X16327325Y-6667155D01*
X16427325Y-6617155D02*
G75*
G03*
X16427325Y-6617155I-50000J0D01*
G01*
X16327325Y-6821155D02*
X16427325Y-6921155D01*
X16427325Y-6821155D02*
X16327325Y-6921155D01*
X16427325Y-6871155D02*
G75*
G03*
X16427325Y-6871155I-50000J0D01*
G01*
X16327325Y-7075155D02*
X16427325Y-7175155D01*
X16427325Y-7075155D02*
X16327325Y-7175155D01*
X16427325Y-7125155D02*
G75*
G03*
X16427325Y-7125155I-50000J0D01*
G01*
X16581325Y-6313155D02*
X16681325Y-6413155D01*
X16681325Y-6313155D02*
X16581325Y-6413155D01*
X16681325Y-6363155D02*
G75*
G03*
X16681325Y-6363155I-50000J0D01*
G01*
X16581325Y-6567155D02*
X16681325Y-6667155D01*
X16681325Y-6567155D02*
X16581325Y-6667155D01*
X16681325Y-6617155D02*
G75*
G03*
X16681325Y-6617155I-50000J0D01*
G01*
X16581325Y-6821155D02*
X16681325Y-6921155D01*
X16681325Y-6821155D02*
X16581325Y-6921155D01*
X16681325Y-6871155D02*
G75*
G03*
X16681325Y-6871155I-50000J0D01*
G01*
X16581325Y-7075155D02*
X16681325Y-7175155D01*
X16681325Y-7075155D02*
X16581325Y-7175155D01*
X16681325Y-7125155D02*
G75*
G03*
X16681325Y-7125155I-50000J0D01*
G01*
X17630228Y-13676798D02*
X17730228Y-13776798D01*
X17730228Y-13676798D02*
X17630228Y-13776798D01*
X17730228Y-13726798D02*
G75*
G03*
X17730228Y-13726798I-50000J0D01*
G01*
X17630228Y-13930798D02*
X17730228Y-14030798D01*
X17730228Y-13930798D02*
X17630228Y-14030798D01*
X17730228Y-13980798D02*
G75*
G03*
X17730228Y-13980798I-50000J0D01*
G01*
X17800888Y-6022018D02*
X17900888Y-6122018D01*
X17900888Y-6022018D02*
X17800888Y-6122018D01*
X17900888Y-6072018D02*
G75*
G03*
X17900888Y-6072018I-50000J0D01*
G01*
D11*
X17900888Y-6147018D02*
X17900888Y-5997018D01*
X17900888Y-5997018D02*
G75*
G03*
X17800888Y-5997018I-50000J0D01*
G01*
X17800888Y-5997018D02*
X17800888Y-6147018D01*
X17800888Y-6147018D02*
G75*
G03*
X17900888Y-6147018I50000J0D01*
G01*
D10*
X17884228Y-13676798D02*
X17984228Y-13776798D01*
X17984228Y-13676798D02*
X17884228Y-13776798D01*
X17984228Y-13726798D02*
G75*
G03*
X17984228Y-13726798I-50000J0D01*
G01*
X17884228Y-13930798D02*
X17984228Y-14030798D01*
X17984228Y-13930798D02*
X17884228Y-14030798D01*
X17984228Y-13980798D02*
G75*
G03*
X17984228Y-13980798I-50000J0D01*
G01*
X18138228Y-13676798D02*
X18238228Y-13776798D01*
X18238228Y-13676798D02*
X18138228Y-13776798D01*
X18238228Y-13726798D02*
G75*
G03*
X18238228Y-13726798I-50000J0D01*
G01*
X18138228Y-13930798D02*
X18238228Y-14030798D01*
X18238228Y-13930798D02*
X18138228Y-14030798D01*
X18238228Y-13980798D02*
G75*
G03*
X18238228Y-13980798I-50000J0D01*
G01*
X18392228Y-13676798D02*
X18492228Y-13776798D01*
X18492228Y-13676798D02*
X18392228Y-13776798D01*
X18492228Y-13726798D02*
G75*
G03*
X18492228Y-13726798I-50000J0D01*
G01*
X18392228Y-13930798D02*
X18492228Y-14030798D01*
X18492228Y-13930798D02*
X18392228Y-14030798D01*
X18492228Y-13980798D02*
G75*
G03*
X18492228Y-13980798I-50000J0D01*
G01*
X18550888Y-6022018D02*
X18650888Y-6122018D01*
X18650888Y-6022018D02*
X18550888Y-6122018D01*
X18650888Y-6072018D02*
G75*
G03*
X18650888Y-6072018I-50000J0D01*
G01*
D11*
X18650888Y-6147018D02*
X18650888Y-5997018D01*
X18650888Y-5997018D02*
G75*
G03*
X18550888Y-5997018I-50000J0D01*
G01*
X18550888Y-5997018D02*
X18550888Y-6147018D01*
X18550888Y-6147018D02*
G75*
G03*
X18650888Y-6147018I50000J0D01*
G01*
D10*
X18646228Y-13676798D02*
X18746228Y-13776798D01*
X18746228Y-13676798D02*
X18646228Y-13776798D01*
X18746228Y-13726798D02*
G75*
G03*
X18746228Y-13726798I-50000J0D01*
G01*
X18646228Y-13930798D02*
X18746228Y-14030798D01*
X18746228Y-13930798D02*
X18646228Y-14030798D01*
X18746228Y-13980798D02*
G75*
G03*
X18746228Y-13980798I-50000J0D01*
G01*
X18900228Y-13676798D02*
X19000228Y-13776798D01*
X19000228Y-13676798D02*
X18900228Y-13776798D01*
X19000228Y-13726798D02*
G75*
G03*
X19000228Y-13726798I-50000J0D01*
G01*
X18900228Y-13930798D02*
X19000228Y-14030798D01*
X19000228Y-13930798D02*
X18900228Y-14030798D01*
X19000228Y-13980798D02*
G75*
G03*
X19000228Y-13980798I-50000J0D01*
G01*
X19539868Y-7374138D02*
X19639868Y-7474138D01*
X19639868Y-7374138D02*
X19539868Y-7474138D01*
X19639868Y-7424138D02*
G75*
G03*
X19639868Y-7424138I-50000J0D01*
G01*
X19539868Y-7628138D02*
X19639868Y-7728138D01*
X19639868Y-7628138D02*
X19539868Y-7728138D01*
X19639868Y-7678138D02*
G75*
G03*
X19639868Y-7678138I-50000J0D01*
G01*
X19539868Y-7882138D02*
X19639868Y-7982138D01*
X19639868Y-7882138D02*
X19539868Y-7982138D01*
X19639868Y-7932138D02*
G75*
G03*
X19639868Y-7932138I-50000J0D01*
G01*
X19539868Y-8136138D02*
X19639868Y-8236138D01*
X19639868Y-8136138D02*
X19539868Y-8236138D01*
X19639868Y-8186138D02*
G75*
G03*
X19639868Y-8186138I-50000J0D01*
G01*
X19539868Y-8390138D02*
X19639868Y-8490138D01*
X19639868Y-8390138D02*
X19539868Y-8490138D01*
X19639868Y-8440138D02*
G75*
G03*
X19639868Y-8440138I-50000J0D01*
G01*
X19539868Y-8644138D02*
X19639868Y-8744138D01*
X19639868Y-8644138D02*
X19539868Y-8744138D01*
X19639868Y-8694138D02*
G75*
G03*
X19639868Y-8694138I-50000J0D01*
G01*
X19539868Y-8898138D02*
X19639868Y-8998138D01*
X19639868Y-8898138D02*
X19539868Y-8998138D01*
X19639868Y-8948138D02*
G75*
G03*
X19639868Y-8948138I-50000J0D01*
G01*
X19539868Y-9152138D02*
X19639868Y-9252138D01*
X19639868Y-9152138D02*
X19539868Y-9252138D01*
X19639868Y-9202138D02*
G75*
G03*
X19639868Y-9202138I-50000J0D01*
G01*
X19539868Y-9406138D02*
X19639868Y-9506138D01*
X19639868Y-9406138D02*
X19539868Y-9506138D01*
X19639868Y-9456138D02*
G75*
G03*
X19639868Y-9456138I-50000J0D01*
G01*
X19539868Y-9660138D02*
X19639868Y-9760138D01*
X19639868Y-9660138D02*
X19539868Y-9760138D01*
X19639868Y-9710138D02*
G75*
G03*
X19639868Y-9710138I-50000J0D01*
G01*
X19539868Y-9914138D02*
X19639868Y-10014138D01*
X19639868Y-9914138D02*
X19539868Y-10014138D01*
X19639868Y-9964138D02*
G75*
G03*
X19639868Y-9964138I-50000J0D01*
G01*
X19539868Y-10168138D02*
X19639868Y-10268138D01*
X19639868Y-10168138D02*
X19539868Y-10268138D01*
X19639868Y-10218138D02*
G75*
G03*
X19639868Y-10218138I-50000J0D01*
G01*
X19539868Y-10422138D02*
X19639868Y-10522138D01*
X19639868Y-10422138D02*
X19539868Y-10522138D01*
X19639868Y-10472138D02*
G75*
G03*
X19639868Y-10472138I-50000J0D01*
G01*
X19539868Y-10676138D02*
X19639868Y-10776138D01*
X19639868Y-10676138D02*
X19539868Y-10776138D01*
X19639868Y-10726138D02*
G75*
G03*
X19639868Y-10726138I-50000J0D01*
G01*
X19539868Y-10930138D02*
X19639868Y-11030138D01*
X19639868Y-10930138D02*
X19539868Y-11030138D01*
X19639868Y-10980138D02*
G75*
G03*
X19639868Y-10980138I-50000J0D01*
G01*
X19539868Y-11184138D02*
X19639868Y-11284138D01*
X19639868Y-11184138D02*
X19539868Y-11284138D01*
X19639868Y-11234138D02*
G75*
G03*
X19639868Y-11234138I-50000J0D01*
G01*
X19793868Y-7374138D02*
X19893868Y-7474138D01*
X19893868Y-7374138D02*
X19793868Y-7474138D01*
X19893868Y-7424138D02*
G75*
G03*
X19893868Y-7424138I-50000J0D01*
G01*
X19793868Y-7628138D02*
X19893868Y-7728138D01*
X19893868Y-7628138D02*
X19793868Y-7728138D01*
X19893868Y-7678138D02*
G75*
G03*
X19893868Y-7678138I-50000J0D01*
G01*
X19793868Y-7882138D02*
X19893868Y-7982138D01*
X19893868Y-7882138D02*
X19793868Y-7982138D01*
X19893868Y-7932138D02*
G75*
G03*
X19893868Y-7932138I-50000J0D01*
G01*
X19793868Y-8136138D02*
X19893868Y-8236138D01*
X19893868Y-8136138D02*
X19793868Y-8236138D01*
X19893868Y-8186138D02*
G75*
G03*
X19893868Y-8186138I-50000J0D01*
G01*
X19793868Y-8390138D02*
X19893868Y-8490138D01*
X19893868Y-8390138D02*
X19793868Y-8490138D01*
X19893868Y-8440138D02*
G75*
G03*
X19893868Y-8440138I-50000J0D01*
G01*
X19793868Y-8644138D02*
X19893868Y-8744138D01*
X19893868Y-8644138D02*
X19793868Y-8744138D01*
X19893868Y-8694138D02*
G75*
G03*
X19893868Y-8694138I-50000J0D01*
G01*
X19793868Y-8898138D02*
X19893868Y-8998138D01*
X19893868Y-8898138D02*
X19793868Y-8998138D01*
X19893868Y-8948138D02*
G75*
G03*
X19893868Y-8948138I-50000J0D01*
G01*
X19793868Y-9152138D02*
X19893868Y-9252138D01*
X19893868Y-9152138D02*
X19793868Y-9252138D01*
X19893868Y-9202138D02*
G75*
G03*
X19893868Y-9202138I-50000J0D01*
G01*
X19793868Y-9406138D02*
X19893868Y-9506138D01*
X19893868Y-9406138D02*
X19793868Y-9506138D01*
X19893868Y-9456138D02*
G75*
G03*
X19893868Y-9456138I-50000J0D01*
G01*
X19793868Y-9660138D02*
X19893868Y-9760138D01*
X19893868Y-9660138D02*
X19793868Y-9760138D01*
X19893868Y-9710138D02*
G75*
G03*
X19893868Y-9710138I-50000J0D01*
G01*
X19793868Y-9914138D02*
X19893868Y-10014138D01*
X19893868Y-9914138D02*
X19793868Y-10014138D01*
X19893868Y-9964138D02*
G75*
G03*
X19893868Y-9964138I-50000J0D01*
G01*
X19793868Y-10168138D02*
X19893868Y-10268138D01*
X19893868Y-10168138D02*
X19793868Y-10268138D01*
X19893868Y-10218138D02*
G75*
G03*
X19893868Y-10218138I-50000J0D01*
G01*
X19793868Y-10422138D02*
X19893868Y-10522138D01*
X19893868Y-10422138D02*
X19793868Y-10522138D01*
X19893868Y-10472138D02*
G75*
G03*
X19893868Y-10472138I-50000J0D01*
G01*
X19793868Y-10676138D02*
X19893868Y-10776138D01*
X19893868Y-10676138D02*
X19793868Y-10776138D01*
X19893868Y-10726138D02*
G75*
G03*
X19893868Y-10726138I-50000J0D01*
G01*
X19793868Y-10930138D02*
X19893868Y-11030138D01*
X19893868Y-10930138D02*
X19793868Y-11030138D01*
X19893868Y-10980138D02*
G75*
G03*
X19893868Y-10980138I-50000J0D01*
G01*
X19793868Y-11184138D02*
X19893868Y-11284138D01*
X19893868Y-11184138D02*
X19793868Y-11284138D01*
X19893868Y-11234138D02*
G75*
G03*
X19893868Y-11234138I-50000J0D01*
G01*
D17*
X18160888Y-5637018D02*
X18290888Y-5767018D01*
X18290888Y-5637018D02*
X18160888Y-5767018D01*
X18225888Y-5637018D02*
X18225888Y-5767018D01*
X18160888Y-5702018D02*
X18290888Y-5702018D01*
D11*
X18273388Y-5637018D02*
X18178388Y-5637018D01*
X18178388Y-5637018D02*
G75*
G03*
X18178388Y-5767018I0J-65000D01*
G01*
X18178388Y-5767018D02*
X18273388Y-5767018D01*
X18273388Y-5767018D02*
G75*
G03*
X18273388Y-5637018I0J65000D01*
G01*
D18*
X13264075Y-8347655D02*
X13485075Y-8568655D01*
X13485075Y-8347655D02*
X13264075Y-8568655D01*
X13452711Y-8536291D02*
X13452711Y-8380019D01*
X13296439Y-8380019D01*
X13296439Y-8536291D01*
X13452711Y-8536291D01*
X13264075Y-12221655D02*
X13485075Y-12442655D01*
X13485075Y-12221655D02*
X13264075Y-12442655D01*
X13452711Y-12410291D02*
X13452711Y-12254019D01*
X13296439Y-12254019D01*
X13296439Y-12410291D01*
X13452711Y-12410291D01*
D11*
X10370999Y-14644781D02*
X10370999Y-14444781D01*
X10370999Y-14444781D02*
X10418618Y-14444781D01*
X10418618Y-14444781D02*
X10447190Y-14454305D01*
X10447190Y-14454305D02*
X10466237Y-14473353D01*
X10466237Y-14473353D02*
X10475761Y-14492400D01*
X10475761Y-14492400D02*
X10485285Y-14530496D01*
X10485285Y-14530496D02*
X10485285Y-14559067D01*
X10485285Y-14559067D02*
X10475761Y-14597162D01*
X10475761Y-14597162D02*
X10466237Y-14616210D01*
X10466237Y-14616210D02*
X10447190Y-14635258D01*
X10447190Y-14635258D02*
X10418618Y-14644781D01*
X10418618Y-14644781D02*
X10370999Y-14644781D01*
X10570999Y-14644781D02*
X10570999Y-14511448D01*
X10570999Y-14549543D02*
X10580523Y-14530496D01*
X10580523Y-14530496D02*
X10590047Y-14520972D01*
X10590047Y-14520972D02*
X10609094Y-14511448D01*
X10609094Y-14511448D02*
X10628142Y-14511448D01*
X10694809Y-14644781D02*
X10694809Y-14511448D01*
X10694809Y-14444781D02*
X10685285Y-14454305D01*
X10685285Y-14454305D02*
X10694809Y-14463829D01*
X10694809Y-14463829D02*
X10704333Y-14454305D01*
X10704333Y-14454305D02*
X10694809Y-14444781D01*
X10694809Y-14444781D02*
X10694809Y-14463829D01*
X10818618Y-14644781D02*
X10799571Y-14635258D01*
X10799571Y-14635258D02*
X10790047Y-14616210D01*
X10790047Y-14616210D02*
X10790047Y-14444781D01*
X10923380Y-14644781D02*
X10904333Y-14635258D01*
X10904333Y-14635258D02*
X10894809Y-14616210D01*
X10894809Y-14616210D02*
X10894809Y-14444781D01*
X11151952Y-14644781D02*
X11151952Y-14444781D01*
X11151952Y-14444781D02*
X11218618Y-14587638D01*
X11218618Y-14587638D02*
X11285285Y-14444781D01*
X11285285Y-14444781D02*
X11285285Y-14644781D01*
X11466237Y-14644781D02*
X11466237Y-14540019D01*
X11466237Y-14540019D02*
X11456713Y-14520972D01*
X11456713Y-14520972D02*
X11437666Y-14511448D01*
X11437666Y-14511448D02*
X11399571Y-14511448D01*
X11399571Y-14511448D02*
X11380523Y-14520972D01*
X11466237Y-14635258D02*
X11447190Y-14644781D01*
X11447190Y-14644781D02*
X11399571Y-14644781D01*
X11399571Y-14644781D02*
X11380523Y-14635258D01*
X11380523Y-14635258D02*
X11370999Y-14616210D01*
X11370999Y-14616210D02*
X11370999Y-14597162D01*
X11370999Y-14597162D02*
X11380523Y-14578115D01*
X11380523Y-14578115D02*
X11399571Y-14568591D01*
X11399571Y-14568591D02*
X11447190Y-14568591D01*
X11447190Y-14568591D02*
X11466237Y-14559067D01*
X11561475Y-14511448D02*
X11561475Y-14711448D01*
X11561475Y-14520972D02*
X11580523Y-14511448D01*
X11580523Y-14511448D02*
X11618618Y-14511448D01*
X11618618Y-14511448D02*
X11637666Y-14520972D01*
X11637666Y-14520972D02*
X11647190Y-14530496D01*
X11647190Y-14530496D02*
X11656713Y-14549543D01*
X11656713Y-14549543D02*
X11656713Y-14606686D01*
X11656713Y-14606686D02*
X11647190Y-14625734D01*
X11647190Y-14625734D02*
X11637666Y-14635258D01*
X11637666Y-14635258D02*
X11618618Y-14644781D01*
X11618618Y-14644781D02*
X11580523Y-14644781D01*
X11580523Y-14644781D02*
X11561475Y-14635258D01*
X11742428Y-14625734D02*
X11751952Y-14635258D01*
X11751952Y-14635258D02*
X11742428Y-14644781D01*
X11742428Y-14644781D02*
X11732904Y-14635258D01*
X11732904Y-14635258D02*
X11742428Y-14625734D01*
X11742428Y-14625734D02*
X11742428Y-14644781D01*
X11742428Y-14520972D02*
X11751952Y-14530496D01*
X11751952Y-14530496D02*
X11742428Y-14540019D01*
X11742428Y-14540019D02*
X11732904Y-14530496D01*
X11732904Y-14530496D02*
X11742428Y-14520972D01*
X11742428Y-14520972D02*
X11742428Y-14540019D01*
D12*
X10070222Y-14953298D02*
X10110222Y-14993298D01*
X10110222Y-14953298D02*
X10070222Y-14993298D01*
D11*
X10409094Y-14864781D02*
X10428142Y-14864781D01*
X10428142Y-14864781D02*
X10447190Y-14874305D01*
X10447190Y-14874305D02*
X10456714Y-14883829D01*
X10456714Y-14883829D02*
X10466237Y-14902877D01*
X10466237Y-14902877D02*
X10475761Y-14940972D01*
X10475761Y-14940972D02*
X10475761Y-14988591D01*
X10475761Y-14988591D02*
X10466237Y-15026686D01*
X10466237Y-15026686D02*
X10456714Y-15045734D01*
X10456714Y-15045734D02*
X10447190Y-15055258D01*
X10447190Y-15055258D02*
X10428142Y-15064781D01*
X10428142Y-15064781D02*
X10409094Y-15064781D01*
X10409094Y-15064781D02*
X10390047Y-15055258D01*
X10390047Y-15055258D02*
X10380523Y-15045734D01*
X10380523Y-15045734D02*
X10370999Y-15026686D01*
X10370999Y-15026686D02*
X10361475Y-14988591D01*
X10361475Y-14988591D02*
X10361475Y-14940972D01*
X10361475Y-14940972D02*
X10370999Y-14902877D01*
X10370999Y-14902877D02*
X10380523Y-14883829D01*
X10380523Y-14883829D02*
X10390047Y-14874305D01*
X10390047Y-14874305D02*
X10409094Y-14864781D01*
X10561475Y-15045734D02*
X10570999Y-15055258D01*
X10570999Y-15055258D02*
X10561475Y-15064781D01*
X10561475Y-15064781D02*
X10551952Y-15055258D01*
X10551952Y-15055258D02*
X10561475Y-15045734D01*
X10561475Y-15045734D02*
X10561475Y-15064781D01*
X10742428Y-14931448D02*
X10742428Y-15064781D01*
X10694809Y-14855258D02*
X10647190Y-14998115D01*
X10647190Y-14998115D02*
X10770999Y-14998115D01*
X10885285Y-14864781D02*
X10904333Y-14864781D01*
X10904333Y-14864781D02*
X10923380Y-14874305D01*
X10923380Y-14874305D02*
X10932904Y-14883829D01*
X10932904Y-14883829D02*
X10942428Y-14902877D01*
X10942428Y-14902877D02*
X10951952Y-14940972D01*
X10951952Y-14940972D02*
X10951952Y-14988591D01*
X10951952Y-14988591D02*
X10942428Y-15026686D01*
X10942428Y-15026686D02*
X10932904Y-15045734D01*
X10932904Y-15045734D02*
X10923380Y-15055258D01*
X10923380Y-15055258D02*
X10904333Y-15064781D01*
X10904333Y-15064781D02*
X10885285Y-15064781D01*
X10885285Y-15064781D02*
X10866237Y-15055258D01*
X10866237Y-15055258D02*
X10856714Y-15045734D01*
X10856714Y-15045734D02*
X10847190Y-15026686D01*
X10847190Y-15026686D02*
X10837666Y-14988591D01*
X10837666Y-14988591D02*
X10837666Y-14940972D01*
X10837666Y-14940972D02*
X10847190Y-14902877D01*
X10847190Y-14902877D02*
X10856714Y-14883829D01*
X10856714Y-14883829D02*
X10866237Y-14874305D01*
X10866237Y-14874305D02*
X10885285Y-14864781D01*
X11075761Y-14864781D02*
X11094809Y-14864781D01*
X11094809Y-14864781D02*
X11113856Y-14874305D01*
X11113856Y-14874305D02*
X11123380Y-14883829D01*
X11123380Y-14883829D02*
X11132904Y-14902877D01*
X11132904Y-14902877D02*
X11142428Y-14940972D01*
X11142428Y-14940972D02*
X11142428Y-14988591D01*
X11142428Y-14988591D02*
X11132904Y-15026686D01*
X11132904Y-15026686D02*
X11123380Y-15045734D01*
X11123380Y-15045734D02*
X11113856Y-15055258D01*
X11113856Y-15055258D02*
X11094809Y-15064781D01*
X11094809Y-15064781D02*
X11075761Y-15064781D01*
X11075761Y-15064781D02*
X11056714Y-15055258D01*
X11056714Y-15055258D02*
X11047190Y-15045734D01*
X11047190Y-15045734D02*
X11037666Y-15026686D01*
X11037666Y-15026686D02*
X11028142Y-14988591D01*
X11028142Y-14988591D02*
X11028142Y-14940972D01*
X11028142Y-14940972D02*
X11037666Y-14902877D01*
X11037666Y-14902877D02*
X11047190Y-14883829D01*
X11047190Y-14883829D02*
X11056714Y-14874305D01*
X11056714Y-14874305D02*
X11075761Y-14864781D01*
X11228142Y-15064781D02*
X11228142Y-14931448D01*
X11228142Y-14950496D02*
X11237666Y-14940972D01*
X11237666Y-14940972D02*
X11256713Y-14931448D01*
X11256713Y-14931448D02*
X11285285Y-14931448D01*
X11285285Y-14931448D02*
X11304333Y-14940972D01*
X11304333Y-14940972D02*
X11313856Y-14960019D01*
X11313856Y-14960019D02*
X11313856Y-15064781D01*
X11313856Y-14960019D02*
X11323380Y-14940972D01*
X11323380Y-14940972D02*
X11342428Y-14931448D01*
X11342428Y-14931448D02*
X11370999Y-14931448D01*
X11370999Y-14931448D02*
X11390047Y-14940972D01*
X11390047Y-14940972D02*
X11399571Y-14960019D01*
X11399571Y-14960019D02*
X11399571Y-15064781D01*
X11494809Y-15064781D02*
X11494809Y-14931448D01*
X11494809Y-14950496D02*
X11504333Y-14940972D01*
X11504333Y-14940972D02*
X11523380Y-14931448D01*
X11523380Y-14931448D02*
X11551952Y-14931448D01*
X11551952Y-14931448D02*
X11570999Y-14940972D01*
X11570999Y-14940972D02*
X11580523Y-14960019D01*
X11580523Y-14960019D02*
X11580523Y-15064781D01*
X11580523Y-14960019D02*
X11590047Y-14940972D01*
X11590047Y-14940972D02*
X11609094Y-14931448D01*
X11609094Y-14931448D02*
X11637666Y-14931448D01*
X11637666Y-14931448D02*
X11656714Y-14940972D01*
X11656714Y-14940972D02*
X11666237Y-14960019D01*
X11666237Y-14960019D02*
X11666237Y-15064781D01*
X12056714Y-14855258D02*
X11885285Y-15112400D01*
X12313856Y-14864781D02*
X12332904Y-14864781D01*
X12332904Y-14864781D02*
X12351952Y-14874305D01*
X12351952Y-14874305D02*
X12361476Y-14883829D01*
X12361476Y-14883829D02*
X12370999Y-14902877D01*
X12370999Y-14902877D02*
X12380523Y-14940972D01*
X12380523Y-14940972D02*
X12380523Y-14988591D01*
X12380523Y-14988591D02*
X12370999Y-15026686D01*
X12370999Y-15026686D02*
X12361476Y-15045734D01*
X12361476Y-15045734D02*
X12351952Y-15055258D01*
X12351952Y-15055258D02*
X12332904Y-15064781D01*
X12332904Y-15064781D02*
X12313856Y-15064781D01*
X12313856Y-15064781D02*
X12294809Y-15055258D01*
X12294809Y-15055258D02*
X12285285Y-15045734D01*
X12285285Y-15045734D02*
X12275761Y-15026686D01*
X12275761Y-15026686D02*
X12266237Y-14988591D01*
X12266237Y-14988591D02*
X12266237Y-14940972D01*
X12266237Y-14940972D02*
X12275761Y-14902877D01*
X12275761Y-14902877D02*
X12285285Y-14883829D01*
X12285285Y-14883829D02*
X12294809Y-14874305D01*
X12294809Y-14874305D02*
X12313856Y-14864781D01*
X12466237Y-15045734D02*
X12475761Y-15055258D01*
X12475761Y-15055258D02*
X12466237Y-15064781D01*
X12466237Y-15064781D02*
X12456714Y-15055258D01*
X12456714Y-15055258D02*
X12466237Y-15045734D01*
X12466237Y-15045734D02*
X12466237Y-15064781D01*
X12599571Y-14864781D02*
X12618618Y-14864781D01*
X12618618Y-14864781D02*
X12637666Y-14874305D01*
X12637666Y-14874305D02*
X12647190Y-14883829D01*
X12647190Y-14883829D02*
X12656714Y-14902877D01*
X12656714Y-14902877D02*
X12666237Y-14940972D01*
X12666237Y-14940972D02*
X12666237Y-14988591D01*
X12666237Y-14988591D02*
X12656714Y-15026686D01*
X12656714Y-15026686D02*
X12647190Y-15045734D01*
X12647190Y-15045734D02*
X12637666Y-15055258D01*
X12637666Y-15055258D02*
X12618618Y-15064781D01*
X12618618Y-15064781D02*
X12599571Y-15064781D01*
X12599571Y-15064781D02*
X12580523Y-15055258D01*
X12580523Y-15055258D02*
X12570999Y-15045734D01*
X12570999Y-15045734D02*
X12561476Y-15026686D01*
X12561476Y-15026686D02*
X12551952Y-14988591D01*
X12551952Y-14988591D02*
X12551952Y-14940972D01*
X12551952Y-14940972D02*
X12561476Y-14902877D01*
X12561476Y-14902877D02*
X12570999Y-14883829D01*
X12570999Y-14883829D02*
X12580523Y-14874305D01*
X12580523Y-14874305D02*
X12599571Y-14864781D01*
X12856714Y-15064781D02*
X12742428Y-15064781D01*
X12799571Y-15064781D02*
X12799571Y-14864781D01*
X12799571Y-14864781D02*
X12780523Y-14893353D01*
X12780523Y-14893353D02*
X12761476Y-14912400D01*
X12761476Y-14912400D02*
X12742428Y-14921924D01*
X13037666Y-14864781D02*
X12942428Y-14864781D01*
X12942428Y-14864781D02*
X12932904Y-14960019D01*
X12932904Y-14960019D02*
X12942428Y-14950496D01*
X12942428Y-14950496D02*
X12961476Y-14940972D01*
X12961476Y-14940972D02*
X13009095Y-14940972D01*
X13009095Y-14940972D02*
X13028142Y-14950496D01*
X13028142Y-14950496D02*
X13037666Y-14960019D01*
X13037666Y-14960019D02*
X13047190Y-14979067D01*
X13047190Y-14979067D02*
X13047190Y-15026686D01*
X13047190Y-15026686D02*
X13037666Y-15045734D01*
X13037666Y-15045734D02*
X13028142Y-15055258D01*
X13028142Y-15055258D02*
X13009095Y-15064781D01*
X13009095Y-15064781D02*
X12961476Y-15064781D01*
X12961476Y-15064781D02*
X12942428Y-15055258D01*
X12942428Y-15055258D02*
X12932904Y-15045734D01*
X13113857Y-14864781D02*
X13247190Y-14864781D01*
X13247190Y-14864781D02*
X13161476Y-15064781D01*
X13313857Y-14864781D02*
X13313857Y-14902877D01*
X13390047Y-14864781D02*
X13390047Y-14902877D01*
X13685285Y-15140972D02*
X13675761Y-15131448D01*
X13675761Y-15131448D02*
X13656714Y-15102877D01*
X13656714Y-15102877D02*
X13647190Y-15083829D01*
X13647190Y-15083829D02*
X13637666Y-15055258D01*
X13637666Y-15055258D02*
X13628142Y-15007638D01*
X13628142Y-15007638D02*
X13628142Y-14969543D01*
X13628142Y-14969543D02*
X13637666Y-14921924D01*
X13637666Y-14921924D02*
X13647190Y-14893353D01*
X13647190Y-14893353D02*
X13656714Y-14874305D01*
X13656714Y-14874305D02*
X13675761Y-14845734D01*
X13675761Y-14845734D02*
X13685285Y-14836210D01*
X13751952Y-14883829D02*
X13761476Y-14874305D01*
X13761476Y-14874305D02*
X13780523Y-14864781D01*
X13780523Y-14864781D02*
X13828142Y-14864781D01*
X13828142Y-14864781D02*
X13847190Y-14874305D01*
X13847190Y-14874305D02*
X13856714Y-14883829D01*
X13856714Y-14883829D02*
X13866238Y-14902877D01*
X13866238Y-14902877D02*
X13866238Y-14921924D01*
X13866238Y-14921924D02*
X13856714Y-14950496D01*
X13856714Y-14950496D02*
X13742428Y-15064781D01*
X13742428Y-15064781D02*
X13866238Y-15064781D01*
X14047190Y-14864781D02*
X13951952Y-14864781D01*
X13951952Y-14864781D02*
X13942428Y-14960019D01*
X13942428Y-14960019D02*
X13951952Y-14950496D01*
X13951952Y-14950496D02*
X13970999Y-14940972D01*
X13970999Y-14940972D02*
X14018619Y-14940972D01*
X14018619Y-14940972D02*
X14037666Y-14950496D01*
X14037666Y-14950496D02*
X14047190Y-14960019D01*
X14047190Y-14960019D02*
X14056714Y-14979067D01*
X14056714Y-14979067D02*
X14056714Y-15026686D01*
X14056714Y-15026686D02*
X14047190Y-15045734D01*
X14047190Y-15045734D02*
X14037666Y-15055258D01*
X14037666Y-15055258D02*
X14018619Y-15064781D01*
X14018619Y-15064781D02*
X13970999Y-15064781D01*
X13970999Y-15064781D02*
X13951952Y-15055258D01*
X13951952Y-15055258D02*
X13942428Y-15045734D01*
X14294809Y-15064781D02*
X14294809Y-14864781D01*
X14380523Y-15064781D02*
X14380523Y-14960019D01*
X14380523Y-14960019D02*
X14371000Y-14940972D01*
X14371000Y-14940972D02*
X14351952Y-14931448D01*
X14351952Y-14931448D02*
X14323380Y-14931448D01*
X14323380Y-14931448D02*
X14304333Y-14940972D01*
X14304333Y-14940972D02*
X14294809Y-14950496D01*
X14504333Y-15064781D02*
X14485285Y-15055258D01*
X14485285Y-15055258D02*
X14475761Y-15045734D01*
X14475761Y-15045734D02*
X14466238Y-15026686D01*
X14466238Y-15026686D02*
X14466238Y-14969543D01*
X14466238Y-14969543D02*
X14475761Y-14950496D01*
X14475761Y-14950496D02*
X14485285Y-14940972D01*
X14485285Y-14940972D02*
X14504333Y-14931448D01*
X14504333Y-14931448D02*
X14532904Y-14931448D01*
X14532904Y-14931448D02*
X14551952Y-14940972D01*
X14551952Y-14940972D02*
X14561476Y-14950496D01*
X14561476Y-14950496D02*
X14571000Y-14969543D01*
X14571000Y-14969543D02*
X14571000Y-15026686D01*
X14571000Y-15026686D02*
X14561476Y-15045734D01*
X14561476Y-15045734D02*
X14551952Y-15055258D01*
X14551952Y-15055258D02*
X14532904Y-15064781D01*
X14532904Y-15064781D02*
X14504333Y-15064781D01*
X14685285Y-15064781D02*
X14666238Y-15055258D01*
X14666238Y-15055258D02*
X14656714Y-15036210D01*
X14656714Y-15036210D02*
X14656714Y-14864781D01*
X14837666Y-15055258D02*
X14818619Y-15064781D01*
X14818619Y-15064781D02*
X14780523Y-15064781D01*
X14780523Y-15064781D02*
X14761476Y-15055258D01*
X14761476Y-15055258D02*
X14751952Y-15036210D01*
X14751952Y-15036210D02*
X14751952Y-14960019D01*
X14751952Y-14960019D02*
X14761476Y-14940972D01*
X14761476Y-14940972D02*
X14780523Y-14931448D01*
X14780523Y-14931448D02*
X14818619Y-14931448D01*
X14818619Y-14931448D02*
X14837666Y-14940972D01*
X14837666Y-14940972D02*
X14847190Y-14960019D01*
X14847190Y-14960019D02*
X14847190Y-14979067D01*
X14847190Y-14979067D02*
X14751952Y-14998115D01*
X14923381Y-15055258D02*
X14942428Y-15064781D01*
X14942428Y-15064781D02*
X14980523Y-15064781D01*
X14980523Y-15064781D02*
X14999571Y-15055258D01*
X14999571Y-15055258D02*
X15009095Y-15036210D01*
X15009095Y-15036210D02*
X15009095Y-15026686D01*
X15009095Y-15026686D02*
X14999571Y-15007638D01*
X14999571Y-15007638D02*
X14980523Y-14998115D01*
X14980523Y-14998115D02*
X14951952Y-14998115D01*
X14951952Y-14998115D02*
X14932904Y-14988591D01*
X14932904Y-14988591D02*
X14923381Y-14969543D01*
X14923381Y-14969543D02*
X14923381Y-14960019D01*
X14923381Y-14960019D02*
X14932904Y-14940972D01*
X14932904Y-14940972D02*
X14951952Y-14931448D01*
X14951952Y-14931448D02*
X14980523Y-14931448D01*
X14980523Y-14931448D02*
X14999571Y-14940972D01*
X15075762Y-15140972D02*
X15085285Y-15131448D01*
X15085285Y-15131448D02*
X15104333Y-15102877D01*
X15104333Y-15102877D02*
X15113857Y-15083829D01*
X15113857Y-15083829D02*
X15123381Y-15055258D01*
X15123381Y-15055258D02*
X15132904Y-15007638D01*
X15132904Y-15007638D02*
X15132904Y-14969543D01*
X15132904Y-14969543D02*
X15123381Y-14921924D01*
X15123381Y-14921924D02*
X15113857Y-14893353D01*
X15113857Y-14893353D02*
X15104333Y-14874305D01*
X15104333Y-14874305D02*
X15085285Y-14845734D01*
X15085285Y-14845734D02*
X15075762Y-14836210D01*
D13*
X10110222Y-15237298D02*
G75*
G03*
X10110222Y-15237298I-35000J0D01*
G01*
D11*
X10409094Y-15128781D02*
X10428142Y-15128781D01*
X10428142Y-15128781D02*
X10447190Y-15138305D01*
X10447190Y-15138305D02*
X10456714Y-15147829D01*
X10456714Y-15147829D02*
X10466237Y-15166877D01*
X10466237Y-15166877D02*
X10475761Y-15204972D01*
X10475761Y-15204972D02*
X10475761Y-15252591D01*
X10475761Y-15252591D02*
X10466237Y-15290686D01*
X10466237Y-15290686D02*
X10456714Y-15309734D01*
X10456714Y-15309734D02*
X10447190Y-15319258D01*
X10447190Y-15319258D02*
X10428142Y-15328781D01*
X10428142Y-15328781D02*
X10409094Y-15328781D01*
X10409094Y-15328781D02*
X10390047Y-15319258D01*
X10390047Y-15319258D02*
X10380523Y-15309734D01*
X10380523Y-15309734D02*
X10370999Y-15290686D01*
X10370999Y-15290686D02*
X10361475Y-15252591D01*
X10361475Y-15252591D02*
X10361475Y-15204972D01*
X10361475Y-15204972D02*
X10370999Y-15166877D01*
X10370999Y-15166877D02*
X10380523Y-15147829D01*
X10380523Y-15147829D02*
X10390047Y-15138305D01*
X10390047Y-15138305D02*
X10409094Y-15128781D01*
X10561475Y-15309734D02*
X10570999Y-15319258D01*
X10570999Y-15319258D02*
X10561475Y-15328781D01*
X10561475Y-15328781D02*
X10551952Y-15319258D01*
X10551952Y-15319258D02*
X10561475Y-15309734D01*
X10561475Y-15309734D02*
X10561475Y-15328781D01*
X10637666Y-15128781D02*
X10770999Y-15128781D01*
X10770999Y-15128781D02*
X10685285Y-15328781D01*
X10885285Y-15128781D02*
X10904333Y-15128781D01*
X10904333Y-15128781D02*
X10923380Y-15138305D01*
X10923380Y-15138305D02*
X10932904Y-15147829D01*
X10932904Y-15147829D02*
X10942428Y-15166877D01*
X10942428Y-15166877D02*
X10951952Y-15204972D01*
X10951952Y-15204972D02*
X10951952Y-15252591D01*
X10951952Y-15252591D02*
X10942428Y-15290686D01*
X10942428Y-15290686D02*
X10932904Y-15309734D01*
X10932904Y-15309734D02*
X10923380Y-15319258D01*
X10923380Y-15319258D02*
X10904333Y-15328781D01*
X10904333Y-15328781D02*
X10885285Y-15328781D01*
X10885285Y-15328781D02*
X10866237Y-15319258D01*
X10866237Y-15319258D02*
X10856714Y-15309734D01*
X10856714Y-15309734D02*
X10847190Y-15290686D01*
X10847190Y-15290686D02*
X10837666Y-15252591D01*
X10837666Y-15252591D02*
X10837666Y-15204972D01*
X10837666Y-15204972D02*
X10847190Y-15166877D01*
X10847190Y-15166877D02*
X10856714Y-15147829D01*
X10856714Y-15147829D02*
X10866237Y-15138305D01*
X10866237Y-15138305D02*
X10885285Y-15128781D01*
X11075761Y-15128781D02*
X11094809Y-15128781D01*
X11094809Y-15128781D02*
X11113856Y-15138305D01*
X11113856Y-15138305D02*
X11123380Y-15147829D01*
X11123380Y-15147829D02*
X11132904Y-15166877D01*
X11132904Y-15166877D02*
X11142428Y-15204972D01*
X11142428Y-15204972D02*
X11142428Y-15252591D01*
X11142428Y-15252591D02*
X11132904Y-15290686D01*
X11132904Y-15290686D02*
X11123380Y-15309734D01*
X11123380Y-15309734D02*
X11113856Y-15319258D01*
X11113856Y-15319258D02*
X11094809Y-15328781D01*
X11094809Y-15328781D02*
X11075761Y-15328781D01*
X11075761Y-15328781D02*
X11056714Y-15319258D01*
X11056714Y-15319258D02*
X11047190Y-15309734D01*
X11047190Y-15309734D02*
X11037666Y-15290686D01*
X11037666Y-15290686D02*
X11028142Y-15252591D01*
X11028142Y-15252591D02*
X11028142Y-15204972D01*
X11028142Y-15204972D02*
X11037666Y-15166877D01*
X11037666Y-15166877D02*
X11047190Y-15147829D01*
X11047190Y-15147829D02*
X11056714Y-15138305D01*
X11056714Y-15138305D02*
X11075761Y-15128781D01*
X11228142Y-15328781D02*
X11228142Y-15195448D01*
X11228142Y-15214496D02*
X11237666Y-15204972D01*
X11237666Y-15204972D02*
X11256713Y-15195448D01*
X11256713Y-15195448D02*
X11285285Y-15195448D01*
X11285285Y-15195448D02*
X11304333Y-15204972D01*
X11304333Y-15204972D02*
X11313856Y-15224019D01*
X11313856Y-15224019D02*
X11313856Y-15328781D01*
X11313856Y-15224019D02*
X11323380Y-15204972D01*
X11323380Y-15204972D02*
X11342428Y-15195448D01*
X11342428Y-15195448D02*
X11370999Y-15195448D01*
X11370999Y-15195448D02*
X11390047Y-15204972D01*
X11390047Y-15204972D02*
X11399571Y-15224019D01*
X11399571Y-15224019D02*
X11399571Y-15328781D01*
X11494809Y-15328781D02*
X11494809Y-15195448D01*
X11494809Y-15214496D02*
X11504333Y-15204972D01*
X11504333Y-15204972D02*
X11523380Y-15195448D01*
X11523380Y-15195448D02*
X11551952Y-15195448D01*
X11551952Y-15195448D02*
X11570999Y-15204972D01*
X11570999Y-15204972D02*
X11580523Y-15224019D01*
X11580523Y-15224019D02*
X11580523Y-15328781D01*
X11580523Y-15224019D02*
X11590047Y-15204972D01*
X11590047Y-15204972D02*
X11609094Y-15195448D01*
X11609094Y-15195448D02*
X11637666Y-15195448D01*
X11637666Y-15195448D02*
X11656714Y-15204972D01*
X11656714Y-15204972D02*
X11666237Y-15224019D01*
X11666237Y-15224019D02*
X11666237Y-15328781D01*
X12056714Y-15119258D02*
X11885285Y-15376400D01*
X12313856Y-15128781D02*
X12332904Y-15128781D01*
X12332904Y-15128781D02*
X12351952Y-15138305D01*
X12351952Y-15138305D02*
X12361476Y-15147829D01*
X12361476Y-15147829D02*
X12370999Y-15166877D01*
X12370999Y-15166877D02*
X12380523Y-15204972D01*
X12380523Y-15204972D02*
X12380523Y-15252591D01*
X12380523Y-15252591D02*
X12370999Y-15290686D01*
X12370999Y-15290686D02*
X12361476Y-15309734D01*
X12361476Y-15309734D02*
X12351952Y-15319258D01*
X12351952Y-15319258D02*
X12332904Y-15328781D01*
X12332904Y-15328781D02*
X12313856Y-15328781D01*
X12313856Y-15328781D02*
X12294809Y-15319258D01*
X12294809Y-15319258D02*
X12285285Y-15309734D01*
X12285285Y-15309734D02*
X12275761Y-15290686D01*
X12275761Y-15290686D02*
X12266237Y-15252591D01*
X12266237Y-15252591D02*
X12266237Y-15204972D01*
X12266237Y-15204972D02*
X12275761Y-15166877D01*
X12275761Y-15166877D02*
X12285285Y-15147829D01*
X12285285Y-15147829D02*
X12294809Y-15138305D01*
X12294809Y-15138305D02*
X12313856Y-15128781D01*
X12466237Y-15309734D02*
X12475761Y-15319258D01*
X12475761Y-15319258D02*
X12466237Y-15328781D01*
X12466237Y-15328781D02*
X12456714Y-15319258D01*
X12456714Y-15319258D02*
X12466237Y-15309734D01*
X12466237Y-15309734D02*
X12466237Y-15328781D01*
X12599571Y-15128781D02*
X12618618Y-15128781D01*
X12618618Y-15128781D02*
X12637666Y-15138305D01*
X12637666Y-15138305D02*
X12647190Y-15147829D01*
X12647190Y-15147829D02*
X12656714Y-15166877D01*
X12656714Y-15166877D02*
X12666237Y-15204972D01*
X12666237Y-15204972D02*
X12666237Y-15252591D01*
X12666237Y-15252591D02*
X12656714Y-15290686D01*
X12656714Y-15290686D02*
X12647190Y-15309734D01*
X12647190Y-15309734D02*
X12637666Y-15319258D01*
X12637666Y-15319258D02*
X12618618Y-15328781D01*
X12618618Y-15328781D02*
X12599571Y-15328781D01*
X12599571Y-15328781D02*
X12580523Y-15319258D01*
X12580523Y-15319258D02*
X12570999Y-15309734D01*
X12570999Y-15309734D02*
X12561476Y-15290686D01*
X12561476Y-15290686D02*
X12551952Y-15252591D01*
X12551952Y-15252591D02*
X12551952Y-15204972D01*
X12551952Y-15204972D02*
X12561476Y-15166877D01*
X12561476Y-15166877D02*
X12570999Y-15147829D01*
X12570999Y-15147829D02*
X12580523Y-15138305D01*
X12580523Y-15138305D02*
X12599571Y-15128781D01*
X12742428Y-15147829D02*
X12751952Y-15138305D01*
X12751952Y-15138305D02*
X12770999Y-15128781D01*
X12770999Y-15128781D02*
X12818618Y-15128781D01*
X12818618Y-15128781D02*
X12837666Y-15138305D01*
X12837666Y-15138305D02*
X12847190Y-15147829D01*
X12847190Y-15147829D02*
X12856714Y-15166877D01*
X12856714Y-15166877D02*
X12856714Y-15185924D01*
X12856714Y-15185924D02*
X12847190Y-15214496D01*
X12847190Y-15214496D02*
X12732904Y-15328781D01*
X12732904Y-15328781D02*
X12856714Y-15328781D01*
X12923380Y-15128781D02*
X13056714Y-15128781D01*
X13056714Y-15128781D02*
X12970999Y-15328781D01*
X13218618Y-15128781D02*
X13180523Y-15128781D01*
X13180523Y-15128781D02*
X13161476Y-15138305D01*
X13161476Y-15138305D02*
X13151952Y-15147829D01*
X13151952Y-15147829D02*
X13132904Y-15176400D01*
X13132904Y-15176400D02*
X13123380Y-15214496D01*
X13123380Y-15214496D02*
X13123380Y-15290686D01*
X13123380Y-15290686D02*
X13132904Y-15309734D01*
X13132904Y-15309734D02*
X13142428Y-15319258D01*
X13142428Y-15319258D02*
X13161476Y-15328781D01*
X13161476Y-15328781D02*
X13199571Y-15328781D01*
X13199571Y-15328781D02*
X13218618Y-15319258D01*
X13218618Y-15319258D02*
X13228142Y-15309734D01*
X13228142Y-15309734D02*
X13237666Y-15290686D01*
X13237666Y-15290686D02*
X13237666Y-15243067D01*
X13237666Y-15243067D02*
X13228142Y-15224019D01*
X13228142Y-15224019D02*
X13218618Y-15214496D01*
X13218618Y-15214496D02*
X13199571Y-15204972D01*
X13199571Y-15204972D02*
X13161476Y-15204972D01*
X13161476Y-15204972D02*
X13142428Y-15214496D01*
X13142428Y-15214496D02*
X13132904Y-15224019D01*
X13132904Y-15224019D02*
X13123380Y-15243067D01*
X13313857Y-15128781D02*
X13313857Y-15166877D01*
X13390047Y-15128781D02*
X13390047Y-15166877D01*
X13685285Y-15404972D02*
X13675761Y-15395448D01*
X13675761Y-15395448D02*
X13656714Y-15366877D01*
X13656714Y-15366877D02*
X13647190Y-15347829D01*
X13647190Y-15347829D02*
X13637666Y-15319258D01*
X13637666Y-15319258D02*
X13628142Y-15271638D01*
X13628142Y-15271638D02*
X13628142Y-15233543D01*
X13628142Y-15233543D02*
X13637666Y-15185924D01*
X13637666Y-15185924D02*
X13647190Y-15157353D01*
X13647190Y-15157353D02*
X13656714Y-15138305D01*
X13656714Y-15138305D02*
X13675761Y-15109734D01*
X13675761Y-15109734D02*
X13685285Y-15100210D01*
X13742428Y-15128781D02*
X13866238Y-15128781D01*
X13866238Y-15128781D02*
X13799571Y-15204972D01*
X13799571Y-15204972D02*
X13828142Y-15204972D01*
X13828142Y-15204972D02*
X13847190Y-15214496D01*
X13847190Y-15214496D02*
X13856714Y-15224019D01*
X13856714Y-15224019D02*
X13866238Y-15243067D01*
X13866238Y-15243067D02*
X13866238Y-15290686D01*
X13866238Y-15290686D02*
X13856714Y-15309734D01*
X13856714Y-15309734D02*
X13847190Y-15319258D01*
X13847190Y-15319258D02*
X13828142Y-15328781D01*
X13828142Y-15328781D02*
X13770999Y-15328781D01*
X13770999Y-15328781D02*
X13751952Y-15319258D01*
X13751952Y-15319258D02*
X13742428Y-15309734D01*
X14037666Y-15128781D02*
X13999571Y-15128781D01*
X13999571Y-15128781D02*
X13980523Y-15138305D01*
X13980523Y-15138305D02*
X13970999Y-15147829D01*
X13970999Y-15147829D02*
X13951952Y-15176400D01*
X13951952Y-15176400D02*
X13942428Y-15214496D01*
X13942428Y-15214496D02*
X13942428Y-15290686D01*
X13942428Y-15290686D02*
X13951952Y-15309734D01*
X13951952Y-15309734D02*
X13961476Y-15319258D01*
X13961476Y-15319258D02*
X13980523Y-15328781D01*
X13980523Y-15328781D02*
X14018619Y-15328781D01*
X14018619Y-15328781D02*
X14037666Y-15319258D01*
X14037666Y-15319258D02*
X14047190Y-15309734D01*
X14047190Y-15309734D02*
X14056714Y-15290686D01*
X14056714Y-15290686D02*
X14056714Y-15243067D01*
X14056714Y-15243067D02*
X14047190Y-15224019D01*
X14047190Y-15224019D02*
X14037666Y-15214496D01*
X14037666Y-15214496D02*
X14018619Y-15204972D01*
X14018619Y-15204972D02*
X13980523Y-15204972D01*
X13980523Y-15204972D02*
X13961476Y-15214496D01*
X13961476Y-15214496D02*
X13951952Y-15224019D01*
X13951952Y-15224019D02*
X13942428Y-15243067D01*
X14294809Y-15328781D02*
X14294809Y-15128781D01*
X14380523Y-15328781D02*
X14380523Y-15224019D01*
X14380523Y-15224019D02*
X14371000Y-15204972D01*
X14371000Y-15204972D02*
X14351952Y-15195448D01*
X14351952Y-15195448D02*
X14323380Y-15195448D01*
X14323380Y-15195448D02*
X14304333Y-15204972D01*
X14304333Y-15204972D02*
X14294809Y-15214496D01*
X14504333Y-15328781D02*
X14485285Y-15319258D01*
X14485285Y-15319258D02*
X14475761Y-15309734D01*
X14475761Y-15309734D02*
X14466238Y-15290686D01*
X14466238Y-15290686D02*
X14466238Y-15233543D01*
X14466238Y-15233543D02*
X14475761Y-15214496D01*
X14475761Y-15214496D02*
X14485285Y-15204972D01*
X14485285Y-15204972D02*
X14504333Y-15195448D01*
X14504333Y-15195448D02*
X14532904Y-15195448D01*
X14532904Y-15195448D02*
X14551952Y-15204972D01*
X14551952Y-15204972D02*
X14561476Y-15214496D01*
X14561476Y-15214496D02*
X14571000Y-15233543D01*
X14571000Y-15233543D02*
X14571000Y-15290686D01*
X14571000Y-15290686D02*
X14561476Y-15309734D01*
X14561476Y-15309734D02*
X14551952Y-15319258D01*
X14551952Y-15319258D02*
X14532904Y-15328781D01*
X14532904Y-15328781D02*
X14504333Y-15328781D01*
X14685285Y-15328781D02*
X14666238Y-15319258D01*
X14666238Y-15319258D02*
X14656714Y-15300210D01*
X14656714Y-15300210D02*
X14656714Y-15128781D01*
X14837666Y-15319258D02*
X14818619Y-15328781D01*
X14818619Y-15328781D02*
X14780523Y-15328781D01*
X14780523Y-15328781D02*
X14761476Y-15319258D01*
X14761476Y-15319258D02*
X14751952Y-15300210D01*
X14751952Y-15300210D02*
X14751952Y-15224019D01*
X14751952Y-15224019D02*
X14761476Y-15204972D01*
X14761476Y-15204972D02*
X14780523Y-15195448D01*
X14780523Y-15195448D02*
X14818619Y-15195448D01*
X14818619Y-15195448D02*
X14837666Y-15204972D01*
X14837666Y-15204972D02*
X14847190Y-15224019D01*
X14847190Y-15224019D02*
X14847190Y-15243067D01*
X14847190Y-15243067D02*
X14751952Y-15262115D01*
X14923381Y-15319258D02*
X14942428Y-15328781D01*
X14942428Y-15328781D02*
X14980523Y-15328781D01*
X14980523Y-15328781D02*
X14999571Y-15319258D01*
X14999571Y-15319258D02*
X15009095Y-15300210D01*
X15009095Y-15300210D02*
X15009095Y-15290686D01*
X15009095Y-15290686D02*
X14999571Y-15271638D01*
X14999571Y-15271638D02*
X14980523Y-15262115D01*
X14980523Y-15262115D02*
X14951952Y-15262115D01*
X14951952Y-15262115D02*
X14932904Y-15252591D01*
X14932904Y-15252591D02*
X14923381Y-15233543D01*
X14923381Y-15233543D02*
X14923381Y-15224019D01*
X14923381Y-15224019D02*
X14932904Y-15204972D01*
X14932904Y-15204972D02*
X14951952Y-15195448D01*
X14951952Y-15195448D02*
X14980523Y-15195448D01*
X14980523Y-15195448D02*
X14999571Y-15204972D01*
X15075762Y-15404972D02*
X15085285Y-15395448D01*
X15085285Y-15395448D02*
X15104333Y-15366877D01*
X15104333Y-15366877D02*
X15113857Y-15347829D01*
X15113857Y-15347829D02*
X15123381Y-15319258D01*
X15123381Y-15319258D02*
X15132904Y-15271638D01*
X15132904Y-15271638D02*
X15132904Y-15233543D01*
X15132904Y-15233543D02*
X15123381Y-15185924D01*
X15123381Y-15185924D02*
X15113857Y-15157353D01*
X15113857Y-15157353D02*
X15104333Y-15138305D01*
X15104333Y-15138305D02*
X15085285Y-15109734D01*
X15085285Y-15109734D02*
X15075762Y-15100210D01*
D14*
X10072722Y-15463798D02*
X10072722Y-15538798D01*
X10035222Y-15501298D02*
X10110222Y-15501298D01*
D11*
X10409094Y-15392781D02*
X10428142Y-15392781D01*
X10428142Y-15392781D02*
X10447190Y-15402305D01*
X10447190Y-15402305D02*
X10456714Y-15411829D01*
X10456714Y-15411829D02*
X10466237Y-15430877D01*
X10466237Y-15430877D02*
X10475761Y-15468972D01*
X10475761Y-15468972D02*
X10475761Y-15516591D01*
X10475761Y-15516591D02*
X10466237Y-15554686D01*
X10466237Y-15554686D02*
X10456714Y-15573734D01*
X10456714Y-15573734D02*
X10447190Y-15583258D01*
X10447190Y-15583258D02*
X10428142Y-15592781D01*
X10428142Y-15592781D02*
X10409094Y-15592781D01*
X10409094Y-15592781D02*
X10390047Y-15583258D01*
X10390047Y-15583258D02*
X10380523Y-15573734D01*
X10380523Y-15573734D02*
X10370999Y-15554686D01*
X10370999Y-15554686D02*
X10361475Y-15516591D01*
X10361475Y-15516591D02*
X10361475Y-15468972D01*
X10361475Y-15468972D02*
X10370999Y-15430877D01*
X10370999Y-15430877D02*
X10380523Y-15411829D01*
X10380523Y-15411829D02*
X10390047Y-15402305D01*
X10390047Y-15402305D02*
X10409094Y-15392781D01*
X10561475Y-15573734D02*
X10570999Y-15583258D01*
X10570999Y-15583258D02*
X10561475Y-15592781D01*
X10561475Y-15592781D02*
X10551952Y-15583258D01*
X10551952Y-15583258D02*
X10561475Y-15573734D01*
X10561475Y-15573734D02*
X10561475Y-15592781D01*
X10637666Y-15392781D02*
X10770999Y-15392781D01*
X10770999Y-15392781D02*
X10685285Y-15592781D01*
X10942428Y-15392781D02*
X10847190Y-15392781D01*
X10847190Y-15392781D02*
X10837666Y-15488019D01*
X10837666Y-15488019D02*
X10847190Y-15478496D01*
X10847190Y-15478496D02*
X10866237Y-15468972D01*
X10866237Y-15468972D02*
X10913856Y-15468972D01*
X10913856Y-15468972D02*
X10932904Y-15478496D01*
X10932904Y-15478496D02*
X10942428Y-15488019D01*
X10942428Y-15488019D02*
X10951952Y-15507067D01*
X10951952Y-15507067D02*
X10951952Y-15554686D01*
X10951952Y-15554686D02*
X10942428Y-15573734D01*
X10942428Y-15573734D02*
X10932904Y-15583258D01*
X10932904Y-15583258D02*
X10913856Y-15592781D01*
X10913856Y-15592781D02*
X10866237Y-15592781D01*
X10866237Y-15592781D02*
X10847190Y-15583258D01*
X10847190Y-15583258D02*
X10837666Y-15573734D01*
X11075761Y-15392781D02*
X11094809Y-15392781D01*
X11094809Y-15392781D02*
X11113856Y-15402305D01*
X11113856Y-15402305D02*
X11123380Y-15411829D01*
X11123380Y-15411829D02*
X11132904Y-15430877D01*
X11132904Y-15430877D02*
X11142428Y-15468972D01*
X11142428Y-15468972D02*
X11142428Y-15516591D01*
X11142428Y-15516591D02*
X11132904Y-15554686D01*
X11132904Y-15554686D02*
X11123380Y-15573734D01*
X11123380Y-15573734D02*
X11113856Y-15583258D01*
X11113856Y-15583258D02*
X11094809Y-15592781D01*
X11094809Y-15592781D02*
X11075761Y-15592781D01*
X11075761Y-15592781D02*
X11056714Y-15583258D01*
X11056714Y-15583258D02*
X11047190Y-15573734D01*
X11047190Y-15573734D02*
X11037666Y-15554686D01*
X11037666Y-15554686D02*
X11028142Y-15516591D01*
X11028142Y-15516591D02*
X11028142Y-15468972D01*
X11028142Y-15468972D02*
X11037666Y-15430877D01*
X11037666Y-15430877D02*
X11047190Y-15411829D01*
X11047190Y-15411829D02*
X11056714Y-15402305D01*
X11056714Y-15402305D02*
X11075761Y-15392781D01*
X11228142Y-15592781D02*
X11228142Y-15459448D01*
X11228142Y-15478496D02*
X11237666Y-15468972D01*
X11237666Y-15468972D02*
X11256713Y-15459448D01*
X11256713Y-15459448D02*
X11285285Y-15459448D01*
X11285285Y-15459448D02*
X11304333Y-15468972D01*
X11304333Y-15468972D02*
X11313856Y-15488019D01*
X11313856Y-15488019D02*
X11313856Y-15592781D01*
X11313856Y-15488019D02*
X11323380Y-15468972D01*
X11323380Y-15468972D02*
X11342428Y-15459448D01*
X11342428Y-15459448D02*
X11370999Y-15459448D01*
X11370999Y-15459448D02*
X11390047Y-15468972D01*
X11390047Y-15468972D02*
X11399571Y-15488019D01*
X11399571Y-15488019D02*
X11399571Y-15592781D01*
X11494809Y-15592781D02*
X11494809Y-15459448D01*
X11494809Y-15478496D02*
X11504333Y-15468972D01*
X11504333Y-15468972D02*
X11523380Y-15459448D01*
X11523380Y-15459448D02*
X11551952Y-15459448D01*
X11551952Y-15459448D02*
X11570999Y-15468972D01*
X11570999Y-15468972D02*
X11580523Y-15488019D01*
X11580523Y-15488019D02*
X11580523Y-15592781D01*
X11580523Y-15488019D02*
X11590047Y-15468972D01*
X11590047Y-15468972D02*
X11609094Y-15459448D01*
X11609094Y-15459448D02*
X11637666Y-15459448D01*
X11637666Y-15459448D02*
X11656714Y-15468972D01*
X11656714Y-15468972D02*
X11666237Y-15488019D01*
X11666237Y-15488019D02*
X11666237Y-15592781D01*
X12056714Y-15383258D02*
X11885285Y-15640400D01*
X12313856Y-15392781D02*
X12332904Y-15392781D01*
X12332904Y-15392781D02*
X12351952Y-15402305D01*
X12351952Y-15402305D02*
X12361476Y-15411829D01*
X12361476Y-15411829D02*
X12370999Y-15430877D01*
X12370999Y-15430877D02*
X12380523Y-15468972D01*
X12380523Y-15468972D02*
X12380523Y-15516591D01*
X12380523Y-15516591D02*
X12370999Y-15554686D01*
X12370999Y-15554686D02*
X12361476Y-15573734D01*
X12361476Y-15573734D02*
X12351952Y-15583258D01*
X12351952Y-15583258D02*
X12332904Y-15592781D01*
X12332904Y-15592781D02*
X12313856Y-15592781D01*
X12313856Y-15592781D02*
X12294809Y-15583258D01*
X12294809Y-15583258D02*
X12285285Y-15573734D01*
X12285285Y-15573734D02*
X12275761Y-15554686D01*
X12275761Y-15554686D02*
X12266237Y-15516591D01*
X12266237Y-15516591D02*
X12266237Y-15468972D01*
X12266237Y-15468972D02*
X12275761Y-15430877D01*
X12275761Y-15430877D02*
X12285285Y-15411829D01*
X12285285Y-15411829D02*
X12294809Y-15402305D01*
X12294809Y-15402305D02*
X12313856Y-15392781D01*
X12466237Y-15573734D02*
X12475761Y-15583258D01*
X12475761Y-15583258D02*
X12466237Y-15592781D01*
X12466237Y-15592781D02*
X12456714Y-15583258D01*
X12456714Y-15583258D02*
X12466237Y-15573734D01*
X12466237Y-15573734D02*
X12466237Y-15592781D01*
X12599571Y-15392781D02*
X12618618Y-15392781D01*
X12618618Y-15392781D02*
X12637666Y-15402305D01*
X12637666Y-15402305D02*
X12647190Y-15411829D01*
X12647190Y-15411829D02*
X12656714Y-15430877D01*
X12656714Y-15430877D02*
X12666237Y-15468972D01*
X12666237Y-15468972D02*
X12666237Y-15516591D01*
X12666237Y-15516591D02*
X12656714Y-15554686D01*
X12656714Y-15554686D02*
X12647190Y-15573734D01*
X12647190Y-15573734D02*
X12637666Y-15583258D01*
X12637666Y-15583258D02*
X12618618Y-15592781D01*
X12618618Y-15592781D02*
X12599571Y-15592781D01*
X12599571Y-15592781D02*
X12580523Y-15583258D01*
X12580523Y-15583258D02*
X12570999Y-15573734D01*
X12570999Y-15573734D02*
X12561476Y-15554686D01*
X12561476Y-15554686D02*
X12551952Y-15516591D01*
X12551952Y-15516591D02*
X12551952Y-15468972D01*
X12551952Y-15468972D02*
X12561476Y-15430877D01*
X12561476Y-15430877D02*
X12570999Y-15411829D01*
X12570999Y-15411829D02*
X12580523Y-15402305D01*
X12580523Y-15402305D02*
X12599571Y-15392781D01*
X12742428Y-15411829D02*
X12751952Y-15402305D01*
X12751952Y-15402305D02*
X12770999Y-15392781D01*
X12770999Y-15392781D02*
X12818618Y-15392781D01*
X12818618Y-15392781D02*
X12837666Y-15402305D01*
X12837666Y-15402305D02*
X12847190Y-15411829D01*
X12847190Y-15411829D02*
X12856714Y-15430877D01*
X12856714Y-15430877D02*
X12856714Y-15449924D01*
X12856714Y-15449924D02*
X12847190Y-15478496D01*
X12847190Y-15478496D02*
X12732904Y-15592781D01*
X12732904Y-15592781D02*
X12856714Y-15592781D01*
X12951952Y-15592781D02*
X12990047Y-15592781D01*
X12990047Y-15592781D02*
X13009095Y-15583258D01*
X13009095Y-15583258D02*
X13018618Y-15573734D01*
X13018618Y-15573734D02*
X13037666Y-15545162D01*
X13037666Y-15545162D02*
X13047190Y-15507067D01*
X13047190Y-15507067D02*
X13047190Y-15430877D01*
X13047190Y-15430877D02*
X13037666Y-15411829D01*
X13037666Y-15411829D02*
X13028142Y-15402305D01*
X13028142Y-15402305D02*
X13009095Y-15392781D01*
X13009095Y-15392781D02*
X12970999Y-15392781D01*
X12970999Y-15392781D02*
X12951952Y-15402305D01*
X12951952Y-15402305D02*
X12942428Y-15411829D01*
X12942428Y-15411829D02*
X12932904Y-15430877D01*
X12932904Y-15430877D02*
X12932904Y-15478496D01*
X12932904Y-15478496D02*
X12942428Y-15497543D01*
X12942428Y-15497543D02*
X12951952Y-15507067D01*
X12951952Y-15507067D02*
X12970999Y-15516591D01*
X12970999Y-15516591D02*
X13009095Y-15516591D01*
X13009095Y-15516591D02*
X13028142Y-15507067D01*
X13028142Y-15507067D02*
X13037666Y-15497543D01*
X13037666Y-15497543D02*
X13047190Y-15478496D01*
X13228142Y-15392781D02*
X13132904Y-15392781D01*
X13132904Y-15392781D02*
X13123380Y-15488019D01*
X13123380Y-15488019D02*
X13132904Y-15478496D01*
X13132904Y-15478496D02*
X13151952Y-15468972D01*
X13151952Y-15468972D02*
X13199571Y-15468972D01*
X13199571Y-15468972D02*
X13218618Y-15478496D01*
X13218618Y-15478496D02*
X13228142Y-15488019D01*
X13228142Y-15488019D02*
X13237666Y-15507067D01*
X13237666Y-15507067D02*
X13237666Y-15554686D01*
X13237666Y-15554686D02*
X13228142Y-15573734D01*
X13228142Y-15573734D02*
X13218618Y-15583258D01*
X13218618Y-15583258D02*
X13199571Y-15592781D01*
X13199571Y-15592781D02*
X13151952Y-15592781D01*
X13151952Y-15592781D02*
X13132904Y-15583258D01*
X13132904Y-15583258D02*
X13123380Y-15573734D01*
X13313857Y-15392781D02*
X13313857Y-15430877D01*
X13390047Y-15392781D02*
X13390047Y-15430877D01*
X13685285Y-15668972D02*
X13675761Y-15659448D01*
X13675761Y-15659448D02*
X13656714Y-15630877D01*
X13656714Y-15630877D02*
X13647190Y-15611829D01*
X13647190Y-15611829D02*
X13637666Y-15583258D01*
X13637666Y-15583258D02*
X13628142Y-15535638D01*
X13628142Y-15535638D02*
X13628142Y-15497543D01*
X13628142Y-15497543D02*
X13637666Y-15449924D01*
X13637666Y-15449924D02*
X13647190Y-15421353D01*
X13647190Y-15421353D02*
X13656714Y-15402305D01*
X13656714Y-15402305D02*
X13675761Y-15373734D01*
X13675761Y-15373734D02*
X13685285Y-15364210D01*
X13847190Y-15392781D02*
X13809095Y-15392781D01*
X13809095Y-15392781D02*
X13790047Y-15402305D01*
X13790047Y-15402305D02*
X13780523Y-15411829D01*
X13780523Y-15411829D02*
X13761476Y-15440400D01*
X13761476Y-15440400D02*
X13751952Y-15478496D01*
X13751952Y-15478496D02*
X13751952Y-15554686D01*
X13751952Y-15554686D02*
X13761476Y-15573734D01*
X13761476Y-15573734D02*
X13770999Y-15583258D01*
X13770999Y-15583258D02*
X13790047Y-15592781D01*
X13790047Y-15592781D02*
X13828142Y-15592781D01*
X13828142Y-15592781D02*
X13847190Y-15583258D01*
X13847190Y-15583258D02*
X13856714Y-15573734D01*
X13856714Y-15573734D02*
X13866238Y-15554686D01*
X13866238Y-15554686D02*
X13866238Y-15507067D01*
X13866238Y-15507067D02*
X13856714Y-15488019D01*
X13856714Y-15488019D02*
X13847190Y-15478496D01*
X13847190Y-15478496D02*
X13828142Y-15468972D01*
X13828142Y-15468972D02*
X13790047Y-15468972D01*
X13790047Y-15468972D02*
X13770999Y-15478496D01*
X13770999Y-15478496D02*
X13761476Y-15488019D01*
X13761476Y-15488019D02*
X13751952Y-15507067D01*
X14104333Y-15592781D02*
X14104333Y-15392781D01*
X14190047Y-15592781D02*
X14190047Y-15488019D01*
X14190047Y-15488019D02*
X14180523Y-15468972D01*
X14180523Y-15468972D02*
X14161476Y-15459448D01*
X14161476Y-15459448D02*
X14132904Y-15459448D01*
X14132904Y-15459448D02*
X14113857Y-15468972D01*
X14113857Y-15468972D02*
X14104333Y-15478496D01*
X14313857Y-15592781D02*
X14294809Y-15583258D01*
X14294809Y-15583258D02*
X14285285Y-15573734D01*
X14285285Y-15573734D02*
X14275761Y-15554686D01*
X14275761Y-15554686D02*
X14275761Y-15497543D01*
X14275761Y-15497543D02*
X14285285Y-15478496D01*
X14285285Y-15478496D02*
X14294809Y-15468972D01*
X14294809Y-15468972D02*
X14313857Y-15459448D01*
X14313857Y-15459448D02*
X14342428Y-15459448D01*
X14342428Y-15459448D02*
X14361476Y-15468972D01*
X14361476Y-15468972D02*
X14371000Y-15478496D01*
X14371000Y-15478496D02*
X14380523Y-15497543D01*
X14380523Y-15497543D02*
X14380523Y-15554686D01*
X14380523Y-15554686D02*
X14371000Y-15573734D01*
X14371000Y-15573734D02*
X14361476Y-15583258D01*
X14361476Y-15583258D02*
X14342428Y-15592781D01*
X14342428Y-15592781D02*
X14313857Y-15592781D01*
X14494809Y-15592781D02*
X14475761Y-15583258D01*
X14475761Y-15583258D02*
X14466238Y-15564210D01*
X14466238Y-15564210D02*
X14466238Y-15392781D01*
X14647190Y-15583258D02*
X14628142Y-15592781D01*
X14628142Y-15592781D02*
X14590047Y-15592781D01*
X14590047Y-15592781D02*
X14571000Y-15583258D01*
X14571000Y-15583258D02*
X14561476Y-15564210D01*
X14561476Y-15564210D02*
X14561476Y-15488019D01*
X14561476Y-15488019D02*
X14571000Y-15468972D01*
X14571000Y-15468972D02*
X14590047Y-15459448D01*
X14590047Y-15459448D02*
X14628142Y-15459448D01*
X14628142Y-15459448D02*
X14647190Y-15468972D01*
X14647190Y-15468972D02*
X14656714Y-15488019D01*
X14656714Y-15488019D02*
X14656714Y-15507067D01*
X14656714Y-15507067D02*
X14561476Y-15526115D01*
X14732904Y-15583258D02*
X14751952Y-15592781D01*
X14751952Y-15592781D02*
X14790047Y-15592781D01*
X14790047Y-15592781D02*
X14809095Y-15583258D01*
X14809095Y-15583258D02*
X14818619Y-15564210D01*
X14818619Y-15564210D02*
X14818619Y-15554686D01*
X14818619Y-15554686D02*
X14809095Y-15535638D01*
X14809095Y-15535638D02*
X14790047Y-15526115D01*
X14790047Y-15526115D02*
X14761476Y-15526115D01*
X14761476Y-15526115D02*
X14742428Y-15516591D01*
X14742428Y-15516591D02*
X14732904Y-15497543D01*
X14732904Y-15497543D02*
X14732904Y-15488019D01*
X14732904Y-15488019D02*
X14742428Y-15468972D01*
X14742428Y-15468972D02*
X14761476Y-15459448D01*
X14761476Y-15459448D02*
X14790047Y-15459448D01*
X14790047Y-15459448D02*
X14809095Y-15468972D01*
X14885285Y-15668972D02*
X14894809Y-15659448D01*
X14894809Y-15659448D02*
X14913857Y-15630877D01*
X14913857Y-15630877D02*
X14923381Y-15611829D01*
X14923381Y-15611829D02*
X14932904Y-15583258D01*
X14932904Y-15583258D02*
X14942428Y-15535638D01*
X14942428Y-15535638D02*
X14942428Y-15497543D01*
X14942428Y-15497543D02*
X14932904Y-15449924D01*
X14932904Y-15449924D02*
X14923381Y-15421353D01*
X14923381Y-15421353D02*
X14913857Y-15402305D01*
X14913857Y-15402305D02*
X14894809Y-15373734D01*
X14894809Y-15373734D02*
X14885285Y-15364210D01*
D15*
X10098507Y-15793582D02*
X10098507Y-15737013D01*
X10041938Y-15737013D01*
X10041938Y-15793582D01*
X10098507Y-15793582D01*
D11*
X10409094Y-15656781D02*
X10428142Y-15656781D01*
X10428142Y-15656781D02*
X10447190Y-15666305D01*
X10447190Y-15666305D02*
X10456714Y-15675829D01*
X10456714Y-15675829D02*
X10466237Y-15694877D01*
X10466237Y-15694877D02*
X10475761Y-15732972D01*
X10475761Y-15732972D02*
X10475761Y-15780591D01*
X10475761Y-15780591D02*
X10466237Y-15818686D01*
X10466237Y-15818686D02*
X10456714Y-15837734D01*
X10456714Y-15837734D02*
X10447190Y-15847258D01*
X10447190Y-15847258D02*
X10428142Y-15856781D01*
X10428142Y-15856781D02*
X10409094Y-15856781D01*
X10409094Y-15856781D02*
X10390047Y-15847258D01*
X10390047Y-15847258D02*
X10380523Y-15837734D01*
X10380523Y-15837734D02*
X10370999Y-15818686D01*
X10370999Y-15818686D02*
X10361475Y-15780591D01*
X10361475Y-15780591D02*
X10361475Y-15732972D01*
X10361475Y-15732972D02*
X10370999Y-15694877D01*
X10370999Y-15694877D02*
X10380523Y-15675829D01*
X10380523Y-15675829D02*
X10390047Y-15666305D01*
X10390047Y-15666305D02*
X10409094Y-15656781D01*
X10561475Y-15837734D02*
X10570999Y-15847258D01*
X10570999Y-15847258D02*
X10561475Y-15856781D01*
X10561475Y-15856781D02*
X10551952Y-15847258D01*
X10551952Y-15847258D02*
X10561475Y-15837734D01*
X10561475Y-15837734D02*
X10561475Y-15856781D01*
X10685285Y-15742496D02*
X10666237Y-15732972D01*
X10666237Y-15732972D02*
X10656714Y-15723448D01*
X10656714Y-15723448D02*
X10647190Y-15704400D01*
X10647190Y-15704400D02*
X10647190Y-15694877D01*
X10647190Y-15694877D02*
X10656714Y-15675829D01*
X10656714Y-15675829D02*
X10666237Y-15666305D01*
X10666237Y-15666305D02*
X10685285Y-15656781D01*
X10685285Y-15656781D02*
X10723380Y-15656781D01*
X10723380Y-15656781D02*
X10742428Y-15666305D01*
X10742428Y-15666305D02*
X10751952Y-15675829D01*
X10751952Y-15675829D02*
X10761475Y-15694877D01*
X10761475Y-15694877D02*
X10761475Y-15704400D01*
X10761475Y-15704400D02*
X10751952Y-15723448D01*
X10751952Y-15723448D02*
X10742428Y-15732972D01*
X10742428Y-15732972D02*
X10723380Y-15742496D01*
X10723380Y-15742496D02*
X10685285Y-15742496D01*
X10685285Y-15742496D02*
X10666237Y-15752019D01*
X10666237Y-15752019D02*
X10656714Y-15761543D01*
X10656714Y-15761543D02*
X10647190Y-15780591D01*
X10647190Y-15780591D02*
X10647190Y-15818686D01*
X10647190Y-15818686D02*
X10656714Y-15837734D01*
X10656714Y-15837734D02*
X10666237Y-15847258D01*
X10666237Y-15847258D02*
X10685285Y-15856781D01*
X10685285Y-15856781D02*
X10723380Y-15856781D01*
X10723380Y-15856781D02*
X10742428Y-15847258D01*
X10742428Y-15847258D02*
X10751952Y-15837734D01*
X10751952Y-15837734D02*
X10761475Y-15818686D01*
X10761475Y-15818686D02*
X10761475Y-15780591D01*
X10761475Y-15780591D02*
X10751952Y-15761543D01*
X10751952Y-15761543D02*
X10742428Y-15752019D01*
X10742428Y-15752019D02*
X10723380Y-15742496D01*
X10885285Y-15656781D02*
X10904333Y-15656781D01*
X10904333Y-15656781D02*
X10923380Y-15666305D01*
X10923380Y-15666305D02*
X10932904Y-15675829D01*
X10932904Y-15675829D02*
X10942428Y-15694877D01*
X10942428Y-15694877D02*
X10951952Y-15732972D01*
X10951952Y-15732972D02*
X10951952Y-15780591D01*
X10951952Y-15780591D02*
X10942428Y-15818686D01*
X10942428Y-15818686D02*
X10932904Y-15837734D01*
X10932904Y-15837734D02*
X10923380Y-15847258D01*
X10923380Y-15847258D02*
X10904333Y-15856781D01*
X10904333Y-15856781D02*
X10885285Y-15856781D01*
X10885285Y-15856781D02*
X10866237Y-15847258D01*
X10866237Y-15847258D02*
X10856714Y-15837734D01*
X10856714Y-15837734D02*
X10847190Y-15818686D01*
X10847190Y-15818686D02*
X10837666Y-15780591D01*
X10837666Y-15780591D02*
X10837666Y-15732972D01*
X10837666Y-15732972D02*
X10847190Y-15694877D01*
X10847190Y-15694877D02*
X10856714Y-15675829D01*
X10856714Y-15675829D02*
X10866237Y-15666305D01*
X10866237Y-15666305D02*
X10885285Y-15656781D01*
X11075761Y-15656781D02*
X11094809Y-15656781D01*
X11094809Y-15656781D02*
X11113856Y-15666305D01*
X11113856Y-15666305D02*
X11123380Y-15675829D01*
X11123380Y-15675829D02*
X11132904Y-15694877D01*
X11132904Y-15694877D02*
X11142428Y-15732972D01*
X11142428Y-15732972D02*
X11142428Y-15780591D01*
X11142428Y-15780591D02*
X11132904Y-15818686D01*
X11132904Y-15818686D02*
X11123380Y-15837734D01*
X11123380Y-15837734D02*
X11113856Y-15847258D01*
X11113856Y-15847258D02*
X11094809Y-15856781D01*
X11094809Y-15856781D02*
X11075761Y-15856781D01*
X11075761Y-15856781D02*
X11056714Y-15847258D01*
X11056714Y-15847258D02*
X11047190Y-15837734D01*
X11047190Y-15837734D02*
X11037666Y-15818686D01*
X11037666Y-15818686D02*
X11028142Y-15780591D01*
X11028142Y-15780591D02*
X11028142Y-15732972D01*
X11028142Y-15732972D02*
X11037666Y-15694877D01*
X11037666Y-15694877D02*
X11047190Y-15675829D01*
X11047190Y-15675829D02*
X11056714Y-15666305D01*
X11056714Y-15666305D02*
X11075761Y-15656781D01*
X11228142Y-15856781D02*
X11228142Y-15723448D01*
X11228142Y-15742496D02*
X11237666Y-15732972D01*
X11237666Y-15732972D02*
X11256713Y-15723448D01*
X11256713Y-15723448D02*
X11285285Y-15723448D01*
X11285285Y-15723448D02*
X11304333Y-15732972D01*
X11304333Y-15732972D02*
X11313856Y-15752019D01*
X11313856Y-15752019D02*
X11313856Y-15856781D01*
X11313856Y-15752019D02*
X11323380Y-15732972D01*
X11323380Y-15732972D02*
X11342428Y-15723448D01*
X11342428Y-15723448D02*
X11370999Y-15723448D01*
X11370999Y-15723448D02*
X11390047Y-15732972D01*
X11390047Y-15732972D02*
X11399571Y-15752019D01*
X11399571Y-15752019D02*
X11399571Y-15856781D01*
X11494809Y-15856781D02*
X11494809Y-15723448D01*
X11494809Y-15742496D02*
X11504333Y-15732972D01*
X11504333Y-15732972D02*
X11523380Y-15723448D01*
X11523380Y-15723448D02*
X11551952Y-15723448D01*
X11551952Y-15723448D02*
X11570999Y-15732972D01*
X11570999Y-15732972D02*
X11580523Y-15752019D01*
X11580523Y-15752019D02*
X11580523Y-15856781D01*
X11580523Y-15752019D02*
X11590047Y-15732972D01*
X11590047Y-15732972D02*
X11609094Y-15723448D01*
X11609094Y-15723448D02*
X11637666Y-15723448D01*
X11637666Y-15723448D02*
X11656714Y-15732972D01*
X11656714Y-15732972D02*
X11666237Y-15752019D01*
X11666237Y-15752019D02*
X11666237Y-15856781D01*
X12056714Y-15647258D02*
X11885285Y-15904400D01*
X12313856Y-15656781D02*
X12332904Y-15656781D01*
X12332904Y-15656781D02*
X12351952Y-15666305D01*
X12351952Y-15666305D02*
X12361476Y-15675829D01*
X12361476Y-15675829D02*
X12370999Y-15694877D01*
X12370999Y-15694877D02*
X12380523Y-15732972D01*
X12380523Y-15732972D02*
X12380523Y-15780591D01*
X12380523Y-15780591D02*
X12370999Y-15818686D01*
X12370999Y-15818686D02*
X12361476Y-15837734D01*
X12361476Y-15837734D02*
X12351952Y-15847258D01*
X12351952Y-15847258D02*
X12332904Y-15856781D01*
X12332904Y-15856781D02*
X12313856Y-15856781D01*
X12313856Y-15856781D02*
X12294809Y-15847258D01*
X12294809Y-15847258D02*
X12285285Y-15837734D01*
X12285285Y-15837734D02*
X12275761Y-15818686D01*
X12275761Y-15818686D02*
X12266237Y-15780591D01*
X12266237Y-15780591D02*
X12266237Y-15732972D01*
X12266237Y-15732972D02*
X12275761Y-15694877D01*
X12275761Y-15694877D02*
X12285285Y-15675829D01*
X12285285Y-15675829D02*
X12294809Y-15666305D01*
X12294809Y-15666305D02*
X12313856Y-15656781D01*
X12466237Y-15837734D02*
X12475761Y-15847258D01*
X12475761Y-15847258D02*
X12466237Y-15856781D01*
X12466237Y-15856781D02*
X12456714Y-15847258D01*
X12456714Y-15847258D02*
X12466237Y-15837734D01*
X12466237Y-15837734D02*
X12466237Y-15856781D01*
X12599571Y-15656781D02*
X12618618Y-15656781D01*
X12618618Y-15656781D02*
X12637666Y-15666305D01*
X12637666Y-15666305D02*
X12647190Y-15675829D01*
X12647190Y-15675829D02*
X12656714Y-15694877D01*
X12656714Y-15694877D02*
X12666237Y-15732972D01*
X12666237Y-15732972D02*
X12666237Y-15780591D01*
X12666237Y-15780591D02*
X12656714Y-15818686D01*
X12656714Y-15818686D02*
X12647190Y-15837734D01*
X12647190Y-15837734D02*
X12637666Y-15847258D01*
X12637666Y-15847258D02*
X12618618Y-15856781D01*
X12618618Y-15856781D02*
X12599571Y-15856781D01*
X12599571Y-15856781D02*
X12580523Y-15847258D01*
X12580523Y-15847258D02*
X12570999Y-15837734D01*
X12570999Y-15837734D02*
X12561476Y-15818686D01*
X12561476Y-15818686D02*
X12551952Y-15780591D01*
X12551952Y-15780591D02*
X12551952Y-15732972D01*
X12551952Y-15732972D02*
X12561476Y-15694877D01*
X12561476Y-15694877D02*
X12570999Y-15675829D01*
X12570999Y-15675829D02*
X12580523Y-15666305D01*
X12580523Y-15666305D02*
X12599571Y-15656781D01*
X12732904Y-15656781D02*
X12856714Y-15656781D01*
X12856714Y-15656781D02*
X12790047Y-15732972D01*
X12790047Y-15732972D02*
X12818618Y-15732972D01*
X12818618Y-15732972D02*
X12837666Y-15742496D01*
X12837666Y-15742496D02*
X12847190Y-15752019D01*
X12847190Y-15752019D02*
X12856714Y-15771067D01*
X12856714Y-15771067D02*
X12856714Y-15818686D01*
X12856714Y-15818686D02*
X12847190Y-15837734D01*
X12847190Y-15837734D02*
X12837666Y-15847258D01*
X12837666Y-15847258D02*
X12818618Y-15856781D01*
X12818618Y-15856781D02*
X12761476Y-15856781D01*
X12761476Y-15856781D02*
X12742428Y-15847258D01*
X12742428Y-15847258D02*
X12732904Y-15837734D01*
X13047190Y-15856781D02*
X12932904Y-15856781D01*
X12990047Y-15856781D02*
X12990047Y-15656781D01*
X12990047Y-15656781D02*
X12970999Y-15685353D01*
X12970999Y-15685353D02*
X12951952Y-15704400D01*
X12951952Y-15704400D02*
X12932904Y-15713924D01*
X13228142Y-15656781D02*
X13132904Y-15656781D01*
X13132904Y-15656781D02*
X13123380Y-15752019D01*
X13123380Y-15752019D02*
X13132904Y-15742496D01*
X13132904Y-15742496D02*
X13151952Y-15732972D01*
X13151952Y-15732972D02*
X13199571Y-15732972D01*
X13199571Y-15732972D02*
X13218618Y-15742496D01*
X13218618Y-15742496D02*
X13228142Y-15752019D01*
X13228142Y-15752019D02*
X13237666Y-15771067D01*
X13237666Y-15771067D02*
X13237666Y-15818686D01*
X13237666Y-15818686D02*
X13228142Y-15837734D01*
X13228142Y-15837734D02*
X13218618Y-15847258D01*
X13218618Y-15847258D02*
X13199571Y-15856781D01*
X13199571Y-15856781D02*
X13151952Y-15856781D01*
X13151952Y-15856781D02*
X13132904Y-15847258D01*
X13132904Y-15847258D02*
X13123380Y-15837734D01*
X13313857Y-15656781D02*
X13313857Y-15694877D01*
X13390047Y-15656781D02*
X13390047Y-15694877D01*
X13685285Y-15932972D02*
X13675761Y-15923448D01*
X13675761Y-15923448D02*
X13656714Y-15894877D01*
X13656714Y-15894877D02*
X13647190Y-15875829D01*
X13647190Y-15875829D02*
X13637666Y-15847258D01*
X13637666Y-15847258D02*
X13628142Y-15799638D01*
X13628142Y-15799638D02*
X13628142Y-15761543D01*
X13628142Y-15761543D02*
X13637666Y-15713924D01*
X13637666Y-15713924D02*
X13647190Y-15685353D01*
X13647190Y-15685353D02*
X13656714Y-15666305D01*
X13656714Y-15666305D02*
X13675761Y-15637734D01*
X13675761Y-15637734D02*
X13685285Y-15628210D01*
X13751952Y-15675829D02*
X13761476Y-15666305D01*
X13761476Y-15666305D02*
X13780523Y-15656781D01*
X13780523Y-15656781D02*
X13828142Y-15656781D01*
X13828142Y-15656781D02*
X13847190Y-15666305D01*
X13847190Y-15666305D02*
X13856714Y-15675829D01*
X13856714Y-15675829D02*
X13866238Y-15694877D01*
X13866238Y-15694877D02*
X13866238Y-15713924D01*
X13866238Y-15713924D02*
X13856714Y-15742496D01*
X13856714Y-15742496D02*
X13742428Y-15856781D01*
X13742428Y-15856781D02*
X13866238Y-15856781D01*
X13942428Y-15675829D02*
X13951952Y-15666305D01*
X13951952Y-15666305D02*
X13970999Y-15656781D01*
X13970999Y-15656781D02*
X14018619Y-15656781D01*
X14018619Y-15656781D02*
X14037666Y-15666305D01*
X14037666Y-15666305D02*
X14047190Y-15675829D01*
X14047190Y-15675829D02*
X14056714Y-15694877D01*
X14056714Y-15694877D02*
X14056714Y-15713924D01*
X14056714Y-15713924D02*
X14047190Y-15742496D01*
X14047190Y-15742496D02*
X13932904Y-15856781D01*
X13932904Y-15856781D02*
X14056714Y-15856781D01*
X14294809Y-15856781D02*
X14294809Y-15656781D01*
X14380523Y-15856781D02*
X14380523Y-15752019D01*
X14380523Y-15752019D02*
X14371000Y-15732972D01*
X14371000Y-15732972D02*
X14351952Y-15723448D01*
X14351952Y-15723448D02*
X14323380Y-15723448D01*
X14323380Y-15723448D02*
X14304333Y-15732972D01*
X14304333Y-15732972D02*
X14294809Y-15742496D01*
X14504333Y-15856781D02*
X14485285Y-15847258D01*
X14485285Y-15847258D02*
X14475761Y-15837734D01*
X14475761Y-15837734D02*
X14466238Y-15818686D01*
X14466238Y-15818686D02*
X14466238Y-15761543D01*
X14466238Y-15761543D02*
X14475761Y-15742496D01*
X14475761Y-15742496D02*
X14485285Y-15732972D01*
X14485285Y-15732972D02*
X14504333Y-15723448D01*
X14504333Y-15723448D02*
X14532904Y-15723448D01*
X14532904Y-15723448D02*
X14551952Y-15732972D01*
X14551952Y-15732972D02*
X14561476Y-15742496D01*
X14561476Y-15742496D02*
X14571000Y-15761543D01*
X14571000Y-15761543D02*
X14571000Y-15818686D01*
X14571000Y-15818686D02*
X14561476Y-15837734D01*
X14561476Y-15837734D02*
X14551952Y-15847258D01*
X14551952Y-15847258D02*
X14532904Y-15856781D01*
X14532904Y-15856781D02*
X14504333Y-15856781D01*
X14685285Y-15856781D02*
X14666238Y-15847258D01*
X14666238Y-15847258D02*
X14656714Y-15828210D01*
X14656714Y-15828210D02*
X14656714Y-15656781D01*
X14837666Y-15847258D02*
X14818619Y-15856781D01*
X14818619Y-15856781D02*
X14780523Y-15856781D01*
X14780523Y-15856781D02*
X14761476Y-15847258D01*
X14761476Y-15847258D02*
X14751952Y-15828210D01*
X14751952Y-15828210D02*
X14751952Y-15752019D01*
X14751952Y-15752019D02*
X14761476Y-15732972D01*
X14761476Y-15732972D02*
X14780523Y-15723448D01*
X14780523Y-15723448D02*
X14818619Y-15723448D01*
X14818619Y-15723448D02*
X14837666Y-15732972D01*
X14837666Y-15732972D02*
X14847190Y-15752019D01*
X14847190Y-15752019D02*
X14847190Y-15771067D01*
X14847190Y-15771067D02*
X14751952Y-15790115D01*
X14923381Y-15847258D02*
X14942428Y-15856781D01*
X14942428Y-15856781D02*
X14980523Y-15856781D01*
X14980523Y-15856781D02*
X14999571Y-15847258D01*
X14999571Y-15847258D02*
X15009095Y-15828210D01*
X15009095Y-15828210D02*
X15009095Y-15818686D01*
X15009095Y-15818686D02*
X14999571Y-15799638D01*
X14999571Y-15799638D02*
X14980523Y-15790115D01*
X14980523Y-15790115D02*
X14951952Y-15790115D01*
X14951952Y-15790115D02*
X14932904Y-15780591D01*
X14932904Y-15780591D02*
X14923381Y-15761543D01*
X14923381Y-15761543D02*
X14923381Y-15752019D01*
X14923381Y-15752019D02*
X14932904Y-15732972D01*
X14932904Y-15732972D02*
X14951952Y-15723448D01*
X14951952Y-15723448D02*
X14980523Y-15723448D01*
X14980523Y-15723448D02*
X14999571Y-15732972D01*
X15075762Y-15932972D02*
X15085285Y-15923448D01*
X15085285Y-15923448D02*
X15104333Y-15894877D01*
X15104333Y-15894877D02*
X15113857Y-15875829D01*
X15113857Y-15875829D02*
X15123381Y-15847258D01*
X15123381Y-15847258D02*
X15132904Y-15799638D01*
X15132904Y-15799638D02*
X15132904Y-15761543D01*
X15132904Y-15761543D02*
X15123381Y-15713924D01*
X15123381Y-15713924D02*
X15113857Y-15685353D01*
X15113857Y-15685353D02*
X15104333Y-15666305D01*
X15104333Y-15666305D02*
X15085285Y-15637734D01*
X15085285Y-15637734D02*
X15075762Y-15628210D01*
D16*
X10065222Y-16074298D02*
X10110222Y-16029298D01*
X10065222Y-15984298D01*
X10020222Y-16029298D01*
X10065222Y-16074298D01*
D11*
X10409094Y-15920781D02*
X10428142Y-15920781D01*
X10428142Y-15920781D02*
X10447190Y-15930305D01*
X10447190Y-15930305D02*
X10456714Y-15939829D01*
X10456714Y-15939829D02*
X10466237Y-15958877D01*
X10466237Y-15958877D02*
X10475761Y-15996972D01*
X10475761Y-15996972D02*
X10475761Y-16044591D01*
X10475761Y-16044591D02*
X10466237Y-16082686D01*
X10466237Y-16082686D02*
X10456714Y-16101734D01*
X10456714Y-16101734D02*
X10447190Y-16111258D01*
X10447190Y-16111258D02*
X10428142Y-16120781D01*
X10428142Y-16120781D02*
X10409094Y-16120781D01*
X10409094Y-16120781D02*
X10390047Y-16111258D01*
X10390047Y-16111258D02*
X10380523Y-16101734D01*
X10380523Y-16101734D02*
X10370999Y-16082686D01*
X10370999Y-16082686D02*
X10361475Y-16044591D01*
X10361475Y-16044591D02*
X10361475Y-15996972D01*
X10361475Y-15996972D02*
X10370999Y-15958877D01*
X10370999Y-15958877D02*
X10380523Y-15939829D01*
X10380523Y-15939829D02*
X10390047Y-15930305D01*
X10390047Y-15930305D02*
X10409094Y-15920781D01*
X10561475Y-16101734D02*
X10570999Y-16111258D01*
X10570999Y-16111258D02*
X10561475Y-16120781D01*
X10561475Y-16120781D02*
X10551952Y-16111258D01*
X10551952Y-16111258D02*
X10561475Y-16101734D01*
X10561475Y-16101734D02*
X10561475Y-16120781D01*
X10666237Y-16120781D02*
X10704333Y-16120781D01*
X10704333Y-16120781D02*
X10723380Y-16111258D01*
X10723380Y-16111258D02*
X10732904Y-16101734D01*
X10732904Y-16101734D02*
X10751952Y-16073162D01*
X10751952Y-16073162D02*
X10761475Y-16035067D01*
X10761475Y-16035067D02*
X10761475Y-15958877D01*
X10761475Y-15958877D02*
X10751952Y-15939829D01*
X10751952Y-15939829D02*
X10742428Y-15930305D01*
X10742428Y-15930305D02*
X10723380Y-15920781D01*
X10723380Y-15920781D02*
X10685285Y-15920781D01*
X10685285Y-15920781D02*
X10666237Y-15930305D01*
X10666237Y-15930305D02*
X10656714Y-15939829D01*
X10656714Y-15939829D02*
X10647190Y-15958877D01*
X10647190Y-15958877D02*
X10647190Y-16006496D01*
X10647190Y-16006496D02*
X10656714Y-16025543D01*
X10656714Y-16025543D02*
X10666237Y-16035067D01*
X10666237Y-16035067D02*
X10685285Y-16044591D01*
X10685285Y-16044591D02*
X10723380Y-16044591D01*
X10723380Y-16044591D02*
X10742428Y-16035067D01*
X10742428Y-16035067D02*
X10751952Y-16025543D01*
X10751952Y-16025543D02*
X10761475Y-16006496D01*
X10885285Y-15920781D02*
X10904333Y-15920781D01*
X10904333Y-15920781D02*
X10923380Y-15930305D01*
X10923380Y-15930305D02*
X10932904Y-15939829D01*
X10932904Y-15939829D02*
X10942428Y-15958877D01*
X10942428Y-15958877D02*
X10951952Y-15996972D01*
X10951952Y-15996972D02*
X10951952Y-16044591D01*
X10951952Y-16044591D02*
X10942428Y-16082686D01*
X10942428Y-16082686D02*
X10932904Y-16101734D01*
X10932904Y-16101734D02*
X10923380Y-16111258D01*
X10923380Y-16111258D02*
X10904333Y-16120781D01*
X10904333Y-16120781D02*
X10885285Y-16120781D01*
X10885285Y-16120781D02*
X10866237Y-16111258D01*
X10866237Y-16111258D02*
X10856714Y-16101734D01*
X10856714Y-16101734D02*
X10847190Y-16082686D01*
X10847190Y-16082686D02*
X10837666Y-16044591D01*
X10837666Y-16044591D02*
X10837666Y-15996972D01*
X10837666Y-15996972D02*
X10847190Y-15958877D01*
X10847190Y-15958877D02*
X10856714Y-15939829D01*
X10856714Y-15939829D02*
X10866237Y-15930305D01*
X10866237Y-15930305D02*
X10885285Y-15920781D01*
X11075761Y-15920781D02*
X11094809Y-15920781D01*
X11094809Y-15920781D02*
X11113856Y-15930305D01*
X11113856Y-15930305D02*
X11123380Y-15939829D01*
X11123380Y-15939829D02*
X11132904Y-15958877D01*
X11132904Y-15958877D02*
X11142428Y-15996972D01*
X11142428Y-15996972D02*
X11142428Y-16044591D01*
X11142428Y-16044591D02*
X11132904Y-16082686D01*
X11132904Y-16082686D02*
X11123380Y-16101734D01*
X11123380Y-16101734D02*
X11113856Y-16111258D01*
X11113856Y-16111258D02*
X11094809Y-16120781D01*
X11094809Y-16120781D02*
X11075761Y-16120781D01*
X11075761Y-16120781D02*
X11056714Y-16111258D01*
X11056714Y-16111258D02*
X11047190Y-16101734D01*
X11047190Y-16101734D02*
X11037666Y-16082686D01*
X11037666Y-16082686D02*
X11028142Y-16044591D01*
X11028142Y-16044591D02*
X11028142Y-15996972D01*
X11028142Y-15996972D02*
X11037666Y-15958877D01*
X11037666Y-15958877D02*
X11047190Y-15939829D01*
X11047190Y-15939829D02*
X11056714Y-15930305D01*
X11056714Y-15930305D02*
X11075761Y-15920781D01*
X11228142Y-16120781D02*
X11228142Y-15987448D01*
X11228142Y-16006496D02*
X11237666Y-15996972D01*
X11237666Y-15996972D02*
X11256713Y-15987448D01*
X11256713Y-15987448D02*
X11285285Y-15987448D01*
X11285285Y-15987448D02*
X11304333Y-15996972D01*
X11304333Y-15996972D02*
X11313856Y-16016019D01*
X11313856Y-16016019D02*
X11313856Y-16120781D01*
X11313856Y-16016019D02*
X11323380Y-15996972D01*
X11323380Y-15996972D02*
X11342428Y-15987448D01*
X11342428Y-15987448D02*
X11370999Y-15987448D01*
X11370999Y-15987448D02*
X11390047Y-15996972D01*
X11390047Y-15996972D02*
X11399571Y-16016019D01*
X11399571Y-16016019D02*
X11399571Y-16120781D01*
X11494809Y-16120781D02*
X11494809Y-15987448D01*
X11494809Y-16006496D02*
X11504333Y-15996972D01*
X11504333Y-15996972D02*
X11523380Y-15987448D01*
X11523380Y-15987448D02*
X11551952Y-15987448D01*
X11551952Y-15987448D02*
X11570999Y-15996972D01*
X11570999Y-15996972D02*
X11580523Y-16016019D01*
X11580523Y-16016019D02*
X11580523Y-16120781D01*
X11580523Y-16016019D02*
X11590047Y-15996972D01*
X11590047Y-15996972D02*
X11609094Y-15987448D01*
X11609094Y-15987448D02*
X11637666Y-15987448D01*
X11637666Y-15987448D02*
X11656714Y-15996972D01*
X11656714Y-15996972D02*
X11666237Y-16016019D01*
X11666237Y-16016019D02*
X11666237Y-16120781D01*
X12056714Y-15911258D02*
X11885285Y-16168400D01*
X12313856Y-15920781D02*
X12332904Y-15920781D01*
X12332904Y-15920781D02*
X12351952Y-15930305D01*
X12351952Y-15930305D02*
X12361476Y-15939829D01*
X12361476Y-15939829D02*
X12370999Y-15958877D01*
X12370999Y-15958877D02*
X12380523Y-15996972D01*
X12380523Y-15996972D02*
X12380523Y-16044591D01*
X12380523Y-16044591D02*
X12370999Y-16082686D01*
X12370999Y-16082686D02*
X12361476Y-16101734D01*
X12361476Y-16101734D02*
X12351952Y-16111258D01*
X12351952Y-16111258D02*
X12332904Y-16120781D01*
X12332904Y-16120781D02*
X12313856Y-16120781D01*
X12313856Y-16120781D02*
X12294809Y-16111258D01*
X12294809Y-16111258D02*
X12285285Y-16101734D01*
X12285285Y-16101734D02*
X12275761Y-16082686D01*
X12275761Y-16082686D02*
X12266237Y-16044591D01*
X12266237Y-16044591D02*
X12266237Y-15996972D01*
X12266237Y-15996972D02*
X12275761Y-15958877D01*
X12275761Y-15958877D02*
X12285285Y-15939829D01*
X12285285Y-15939829D02*
X12294809Y-15930305D01*
X12294809Y-15930305D02*
X12313856Y-15920781D01*
X12466237Y-16101734D02*
X12475761Y-16111258D01*
X12475761Y-16111258D02*
X12466237Y-16120781D01*
X12466237Y-16120781D02*
X12456714Y-16111258D01*
X12456714Y-16111258D02*
X12466237Y-16101734D01*
X12466237Y-16101734D02*
X12466237Y-16120781D01*
X12599571Y-15920781D02*
X12618618Y-15920781D01*
X12618618Y-15920781D02*
X12637666Y-15930305D01*
X12637666Y-15930305D02*
X12647190Y-15939829D01*
X12647190Y-15939829D02*
X12656714Y-15958877D01*
X12656714Y-15958877D02*
X12666237Y-15996972D01*
X12666237Y-15996972D02*
X12666237Y-16044591D01*
X12666237Y-16044591D02*
X12656714Y-16082686D01*
X12656714Y-16082686D02*
X12647190Y-16101734D01*
X12647190Y-16101734D02*
X12637666Y-16111258D01*
X12637666Y-16111258D02*
X12618618Y-16120781D01*
X12618618Y-16120781D02*
X12599571Y-16120781D01*
X12599571Y-16120781D02*
X12580523Y-16111258D01*
X12580523Y-16111258D02*
X12570999Y-16101734D01*
X12570999Y-16101734D02*
X12561476Y-16082686D01*
X12561476Y-16082686D02*
X12551952Y-16044591D01*
X12551952Y-16044591D02*
X12551952Y-15996972D01*
X12551952Y-15996972D02*
X12561476Y-15958877D01*
X12561476Y-15958877D02*
X12570999Y-15939829D01*
X12570999Y-15939829D02*
X12580523Y-15930305D01*
X12580523Y-15930305D02*
X12599571Y-15920781D01*
X12732904Y-15920781D02*
X12856714Y-15920781D01*
X12856714Y-15920781D02*
X12790047Y-15996972D01*
X12790047Y-15996972D02*
X12818618Y-15996972D01*
X12818618Y-15996972D02*
X12837666Y-16006496D01*
X12837666Y-16006496D02*
X12847190Y-16016019D01*
X12847190Y-16016019D02*
X12856714Y-16035067D01*
X12856714Y-16035067D02*
X12856714Y-16082686D01*
X12856714Y-16082686D02*
X12847190Y-16101734D01*
X12847190Y-16101734D02*
X12837666Y-16111258D01*
X12837666Y-16111258D02*
X12818618Y-16120781D01*
X12818618Y-16120781D02*
X12761476Y-16120781D01*
X12761476Y-16120781D02*
X12742428Y-16111258D01*
X12742428Y-16111258D02*
X12732904Y-16101734D01*
X13037666Y-15920781D02*
X12942428Y-15920781D01*
X12942428Y-15920781D02*
X12932904Y-16016019D01*
X12932904Y-16016019D02*
X12942428Y-16006496D01*
X12942428Y-16006496D02*
X12961476Y-15996972D01*
X12961476Y-15996972D02*
X13009095Y-15996972D01*
X13009095Y-15996972D02*
X13028142Y-16006496D01*
X13028142Y-16006496D02*
X13037666Y-16016019D01*
X13037666Y-16016019D02*
X13047190Y-16035067D01*
X13047190Y-16035067D02*
X13047190Y-16082686D01*
X13047190Y-16082686D02*
X13037666Y-16101734D01*
X13037666Y-16101734D02*
X13028142Y-16111258D01*
X13028142Y-16111258D02*
X13009095Y-16120781D01*
X13009095Y-16120781D02*
X12961476Y-16120781D01*
X12961476Y-16120781D02*
X12942428Y-16111258D01*
X12942428Y-16111258D02*
X12932904Y-16101734D01*
X13218618Y-15987448D02*
X13218618Y-16120781D01*
X13170999Y-15911258D02*
X13123380Y-16054115D01*
X13123380Y-16054115D02*
X13247190Y-16054115D01*
X13313857Y-15920781D02*
X13313857Y-15958877D01*
X13390047Y-15920781D02*
X13390047Y-15958877D01*
X13685285Y-16196972D02*
X13675761Y-16187448D01*
X13675761Y-16187448D02*
X13656714Y-16158877D01*
X13656714Y-16158877D02*
X13647190Y-16139829D01*
X13647190Y-16139829D02*
X13637666Y-16111258D01*
X13637666Y-16111258D02*
X13628142Y-16063638D01*
X13628142Y-16063638D02*
X13628142Y-16025543D01*
X13628142Y-16025543D02*
X13637666Y-15977924D01*
X13637666Y-15977924D02*
X13647190Y-15949353D01*
X13647190Y-15949353D02*
X13656714Y-15930305D01*
X13656714Y-15930305D02*
X13675761Y-15901734D01*
X13675761Y-15901734D02*
X13685285Y-15892210D01*
X13866238Y-16120781D02*
X13751952Y-16120781D01*
X13809095Y-16120781D02*
X13809095Y-15920781D01*
X13809095Y-15920781D02*
X13790047Y-15949353D01*
X13790047Y-15949353D02*
X13770999Y-15968400D01*
X13770999Y-15968400D02*
X13751952Y-15977924D01*
X13980523Y-16006496D02*
X13961476Y-15996972D01*
X13961476Y-15996972D02*
X13951952Y-15987448D01*
X13951952Y-15987448D02*
X13942428Y-15968400D01*
X13942428Y-15968400D02*
X13942428Y-15958877D01*
X13942428Y-15958877D02*
X13951952Y-15939829D01*
X13951952Y-15939829D02*
X13961476Y-15930305D01*
X13961476Y-15930305D02*
X13980523Y-15920781D01*
X13980523Y-15920781D02*
X14018619Y-15920781D01*
X14018619Y-15920781D02*
X14037666Y-15930305D01*
X14037666Y-15930305D02*
X14047190Y-15939829D01*
X14047190Y-15939829D02*
X14056714Y-15958877D01*
X14056714Y-15958877D02*
X14056714Y-15968400D01*
X14056714Y-15968400D02*
X14047190Y-15987448D01*
X14047190Y-15987448D02*
X14037666Y-15996972D01*
X14037666Y-15996972D02*
X14018619Y-16006496D01*
X14018619Y-16006496D02*
X13980523Y-16006496D01*
X13980523Y-16006496D02*
X13961476Y-16016019D01*
X13961476Y-16016019D02*
X13951952Y-16025543D01*
X13951952Y-16025543D02*
X13942428Y-16044591D01*
X13942428Y-16044591D02*
X13942428Y-16082686D01*
X13942428Y-16082686D02*
X13951952Y-16101734D01*
X13951952Y-16101734D02*
X13961476Y-16111258D01*
X13961476Y-16111258D02*
X13980523Y-16120781D01*
X13980523Y-16120781D02*
X14018619Y-16120781D01*
X14018619Y-16120781D02*
X14037666Y-16111258D01*
X14037666Y-16111258D02*
X14047190Y-16101734D01*
X14047190Y-16101734D02*
X14056714Y-16082686D01*
X14056714Y-16082686D02*
X14056714Y-16044591D01*
X14056714Y-16044591D02*
X14047190Y-16025543D01*
X14047190Y-16025543D02*
X14037666Y-16016019D01*
X14037666Y-16016019D02*
X14018619Y-16006496D01*
X14294809Y-16120781D02*
X14294809Y-15920781D01*
X14380523Y-16120781D02*
X14380523Y-16016019D01*
X14380523Y-16016019D02*
X14371000Y-15996972D01*
X14371000Y-15996972D02*
X14351952Y-15987448D01*
X14351952Y-15987448D02*
X14323380Y-15987448D01*
X14323380Y-15987448D02*
X14304333Y-15996972D01*
X14304333Y-15996972D02*
X14294809Y-16006496D01*
X14504333Y-16120781D02*
X14485285Y-16111258D01*
X14485285Y-16111258D02*
X14475761Y-16101734D01*
X14475761Y-16101734D02*
X14466238Y-16082686D01*
X14466238Y-16082686D02*
X14466238Y-16025543D01*
X14466238Y-16025543D02*
X14475761Y-16006496D01*
X14475761Y-16006496D02*
X14485285Y-15996972D01*
X14485285Y-15996972D02*
X14504333Y-15987448D01*
X14504333Y-15987448D02*
X14532904Y-15987448D01*
X14532904Y-15987448D02*
X14551952Y-15996972D01*
X14551952Y-15996972D02*
X14561476Y-16006496D01*
X14561476Y-16006496D02*
X14571000Y-16025543D01*
X14571000Y-16025543D02*
X14571000Y-16082686D01*
X14571000Y-16082686D02*
X14561476Y-16101734D01*
X14561476Y-16101734D02*
X14551952Y-16111258D01*
X14551952Y-16111258D02*
X14532904Y-16120781D01*
X14532904Y-16120781D02*
X14504333Y-16120781D01*
X14685285Y-16120781D02*
X14666238Y-16111258D01*
X14666238Y-16111258D02*
X14656714Y-16092210D01*
X14656714Y-16092210D02*
X14656714Y-15920781D01*
X14837666Y-16111258D02*
X14818619Y-16120781D01*
X14818619Y-16120781D02*
X14780523Y-16120781D01*
X14780523Y-16120781D02*
X14761476Y-16111258D01*
X14761476Y-16111258D02*
X14751952Y-16092210D01*
X14751952Y-16092210D02*
X14751952Y-16016019D01*
X14751952Y-16016019D02*
X14761476Y-15996972D01*
X14761476Y-15996972D02*
X14780523Y-15987448D01*
X14780523Y-15987448D02*
X14818619Y-15987448D01*
X14818619Y-15987448D02*
X14837666Y-15996972D01*
X14837666Y-15996972D02*
X14847190Y-16016019D01*
X14847190Y-16016019D02*
X14847190Y-16035067D01*
X14847190Y-16035067D02*
X14751952Y-16054115D01*
X14923381Y-16111258D02*
X14942428Y-16120781D01*
X14942428Y-16120781D02*
X14980523Y-16120781D01*
X14980523Y-16120781D02*
X14999571Y-16111258D01*
X14999571Y-16111258D02*
X15009095Y-16092210D01*
X15009095Y-16092210D02*
X15009095Y-16082686D01*
X15009095Y-16082686D02*
X14999571Y-16063638D01*
X14999571Y-16063638D02*
X14980523Y-16054115D01*
X14980523Y-16054115D02*
X14951952Y-16054115D01*
X14951952Y-16054115D02*
X14932904Y-16044591D01*
X14932904Y-16044591D02*
X14923381Y-16025543D01*
X14923381Y-16025543D02*
X14923381Y-16016019D01*
X14923381Y-16016019D02*
X14932904Y-15996972D01*
X14932904Y-15996972D02*
X14951952Y-15987448D01*
X14951952Y-15987448D02*
X14980523Y-15987448D01*
X14980523Y-15987448D02*
X14999571Y-15996972D01*
X15075762Y-16196972D02*
X15085285Y-16187448D01*
X15085285Y-16187448D02*
X15104333Y-16158877D01*
X15104333Y-16158877D02*
X15113857Y-16139829D01*
X15113857Y-16139829D02*
X15123381Y-16111258D01*
X15123381Y-16111258D02*
X15132904Y-16063638D01*
X15132904Y-16063638D02*
X15132904Y-16025543D01*
X15132904Y-16025543D02*
X15123381Y-15977924D01*
X15123381Y-15977924D02*
X15113857Y-15949353D01*
X15113857Y-15949353D02*
X15104333Y-15930305D01*
X15104333Y-15930305D02*
X15085285Y-15901734D01*
X15085285Y-15901734D02*
X15075762Y-15892210D01*
D10*
X10010222Y-16243298D02*
X10110222Y-16343298D01*
X10110222Y-16243298D02*
X10010222Y-16343298D01*
X10110222Y-16293298D02*
G75*
G03*
X10110222Y-16293298I-50000J0D01*
G01*
D11*
X10475761Y-16384781D02*
X10361475Y-16384781D01*
X10418618Y-16384781D02*
X10418618Y-16184781D01*
X10418618Y-16184781D02*
X10399571Y-16213353D01*
X10399571Y-16213353D02*
X10380523Y-16232400D01*
X10380523Y-16232400D02*
X10361475Y-16241924D01*
X10561475Y-16365734D02*
X10570999Y-16375258D01*
X10570999Y-16375258D02*
X10561475Y-16384781D01*
X10561475Y-16384781D02*
X10551952Y-16375258D01*
X10551952Y-16375258D02*
X10561475Y-16365734D01*
X10561475Y-16365734D02*
X10561475Y-16384781D01*
X10694809Y-16184781D02*
X10713856Y-16184781D01*
X10713856Y-16184781D02*
X10732904Y-16194305D01*
X10732904Y-16194305D02*
X10742428Y-16203829D01*
X10742428Y-16203829D02*
X10751952Y-16222877D01*
X10751952Y-16222877D02*
X10761475Y-16260972D01*
X10761475Y-16260972D02*
X10761475Y-16308591D01*
X10761475Y-16308591D02*
X10751952Y-16346686D01*
X10751952Y-16346686D02*
X10742428Y-16365734D01*
X10742428Y-16365734D02*
X10732904Y-16375258D01*
X10732904Y-16375258D02*
X10713856Y-16384781D01*
X10713856Y-16384781D02*
X10694809Y-16384781D01*
X10694809Y-16384781D02*
X10675761Y-16375258D01*
X10675761Y-16375258D02*
X10666237Y-16365734D01*
X10666237Y-16365734D02*
X10656714Y-16346686D01*
X10656714Y-16346686D02*
X10647190Y-16308591D01*
X10647190Y-16308591D02*
X10647190Y-16260972D01*
X10647190Y-16260972D02*
X10656714Y-16222877D01*
X10656714Y-16222877D02*
X10666237Y-16203829D01*
X10666237Y-16203829D02*
X10675761Y-16194305D01*
X10675761Y-16194305D02*
X10694809Y-16184781D01*
X10885285Y-16184781D02*
X10904333Y-16184781D01*
X10904333Y-16184781D02*
X10923380Y-16194305D01*
X10923380Y-16194305D02*
X10932904Y-16203829D01*
X10932904Y-16203829D02*
X10942428Y-16222877D01*
X10942428Y-16222877D02*
X10951952Y-16260972D01*
X10951952Y-16260972D02*
X10951952Y-16308591D01*
X10951952Y-16308591D02*
X10942428Y-16346686D01*
X10942428Y-16346686D02*
X10932904Y-16365734D01*
X10932904Y-16365734D02*
X10923380Y-16375258D01*
X10923380Y-16375258D02*
X10904333Y-16384781D01*
X10904333Y-16384781D02*
X10885285Y-16384781D01*
X10885285Y-16384781D02*
X10866237Y-16375258D01*
X10866237Y-16375258D02*
X10856714Y-16365734D01*
X10856714Y-16365734D02*
X10847190Y-16346686D01*
X10847190Y-16346686D02*
X10837666Y-16308591D01*
X10837666Y-16308591D02*
X10837666Y-16260972D01*
X10837666Y-16260972D02*
X10847190Y-16222877D01*
X10847190Y-16222877D02*
X10856714Y-16203829D01*
X10856714Y-16203829D02*
X10866237Y-16194305D01*
X10866237Y-16194305D02*
X10885285Y-16184781D01*
X11075761Y-16184781D02*
X11094809Y-16184781D01*
X11094809Y-16184781D02*
X11113856Y-16194305D01*
X11113856Y-16194305D02*
X11123380Y-16203829D01*
X11123380Y-16203829D02*
X11132904Y-16222877D01*
X11132904Y-16222877D02*
X11142428Y-16260972D01*
X11142428Y-16260972D02*
X11142428Y-16308591D01*
X11142428Y-16308591D02*
X11132904Y-16346686D01*
X11132904Y-16346686D02*
X11123380Y-16365734D01*
X11123380Y-16365734D02*
X11113856Y-16375258D01*
X11113856Y-16375258D02*
X11094809Y-16384781D01*
X11094809Y-16384781D02*
X11075761Y-16384781D01*
X11075761Y-16384781D02*
X11056714Y-16375258D01*
X11056714Y-16375258D02*
X11047190Y-16365734D01*
X11047190Y-16365734D02*
X11037666Y-16346686D01*
X11037666Y-16346686D02*
X11028142Y-16308591D01*
X11028142Y-16308591D02*
X11028142Y-16260972D01*
X11028142Y-16260972D02*
X11037666Y-16222877D01*
X11037666Y-16222877D02*
X11047190Y-16203829D01*
X11047190Y-16203829D02*
X11056714Y-16194305D01*
X11056714Y-16194305D02*
X11075761Y-16184781D01*
X11228142Y-16384781D02*
X11228142Y-16251448D01*
X11228142Y-16270496D02*
X11237666Y-16260972D01*
X11237666Y-16260972D02*
X11256713Y-16251448D01*
X11256713Y-16251448D02*
X11285285Y-16251448D01*
X11285285Y-16251448D02*
X11304333Y-16260972D01*
X11304333Y-16260972D02*
X11313856Y-16280019D01*
X11313856Y-16280019D02*
X11313856Y-16384781D01*
X11313856Y-16280019D02*
X11323380Y-16260972D01*
X11323380Y-16260972D02*
X11342428Y-16251448D01*
X11342428Y-16251448D02*
X11370999Y-16251448D01*
X11370999Y-16251448D02*
X11390047Y-16260972D01*
X11390047Y-16260972D02*
X11399571Y-16280019D01*
X11399571Y-16280019D02*
X11399571Y-16384781D01*
X11494809Y-16384781D02*
X11494809Y-16251448D01*
X11494809Y-16270496D02*
X11504333Y-16260972D01*
X11504333Y-16260972D02*
X11523380Y-16251448D01*
X11523380Y-16251448D02*
X11551952Y-16251448D01*
X11551952Y-16251448D02*
X11570999Y-16260972D01*
X11570999Y-16260972D02*
X11580523Y-16280019D01*
X11580523Y-16280019D02*
X11580523Y-16384781D01*
X11580523Y-16280019D02*
X11590047Y-16260972D01*
X11590047Y-16260972D02*
X11609094Y-16251448D01*
X11609094Y-16251448D02*
X11637666Y-16251448D01*
X11637666Y-16251448D02*
X11656714Y-16260972D01*
X11656714Y-16260972D02*
X11666237Y-16280019D01*
X11666237Y-16280019D02*
X11666237Y-16384781D01*
X12056714Y-16175258D02*
X11885285Y-16432400D01*
X12313856Y-16184781D02*
X12332904Y-16184781D01*
X12332904Y-16184781D02*
X12351952Y-16194305D01*
X12351952Y-16194305D02*
X12361476Y-16203829D01*
X12361476Y-16203829D02*
X12370999Y-16222877D01*
X12370999Y-16222877D02*
X12380523Y-16260972D01*
X12380523Y-16260972D02*
X12380523Y-16308591D01*
X12380523Y-16308591D02*
X12370999Y-16346686D01*
X12370999Y-16346686D02*
X12361476Y-16365734D01*
X12361476Y-16365734D02*
X12351952Y-16375258D01*
X12351952Y-16375258D02*
X12332904Y-16384781D01*
X12332904Y-16384781D02*
X12313856Y-16384781D01*
X12313856Y-16384781D02*
X12294809Y-16375258D01*
X12294809Y-16375258D02*
X12285285Y-16365734D01*
X12285285Y-16365734D02*
X12275761Y-16346686D01*
X12275761Y-16346686D02*
X12266237Y-16308591D01*
X12266237Y-16308591D02*
X12266237Y-16260972D01*
X12266237Y-16260972D02*
X12275761Y-16222877D01*
X12275761Y-16222877D02*
X12285285Y-16203829D01*
X12285285Y-16203829D02*
X12294809Y-16194305D01*
X12294809Y-16194305D02*
X12313856Y-16184781D01*
X12466237Y-16365734D02*
X12475761Y-16375258D01*
X12475761Y-16375258D02*
X12466237Y-16384781D01*
X12466237Y-16384781D02*
X12456714Y-16375258D01*
X12456714Y-16375258D02*
X12466237Y-16365734D01*
X12466237Y-16365734D02*
X12466237Y-16384781D01*
X12599571Y-16184781D02*
X12618618Y-16184781D01*
X12618618Y-16184781D02*
X12637666Y-16194305D01*
X12637666Y-16194305D02*
X12647190Y-16203829D01*
X12647190Y-16203829D02*
X12656714Y-16222877D01*
X12656714Y-16222877D02*
X12666237Y-16260972D01*
X12666237Y-16260972D02*
X12666237Y-16308591D01*
X12666237Y-16308591D02*
X12656714Y-16346686D01*
X12656714Y-16346686D02*
X12647190Y-16365734D01*
X12647190Y-16365734D02*
X12637666Y-16375258D01*
X12637666Y-16375258D02*
X12618618Y-16384781D01*
X12618618Y-16384781D02*
X12599571Y-16384781D01*
X12599571Y-16384781D02*
X12580523Y-16375258D01*
X12580523Y-16375258D02*
X12570999Y-16365734D01*
X12570999Y-16365734D02*
X12561476Y-16346686D01*
X12561476Y-16346686D02*
X12551952Y-16308591D01*
X12551952Y-16308591D02*
X12551952Y-16260972D01*
X12551952Y-16260972D02*
X12561476Y-16222877D01*
X12561476Y-16222877D02*
X12570999Y-16203829D01*
X12570999Y-16203829D02*
X12580523Y-16194305D01*
X12580523Y-16194305D02*
X12599571Y-16184781D01*
X12732904Y-16184781D02*
X12856714Y-16184781D01*
X12856714Y-16184781D02*
X12790047Y-16260972D01*
X12790047Y-16260972D02*
X12818618Y-16260972D01*
X12818618Y-16260972D02*
X12837666Y-16270496D01*
X12837666Y-16270496D02*
X12847190Y-16280019D01*
X12847190Y-16280019D02*
X12856714Y-16299067D01*
X12856714Y-16299067D02*
X12856714Y-16346686D01*
X12856714Y-16346686D02*
X12847190Y-16365734D01*
X12847190Y-16365734D02*
X12837666Y-16375258D01*
X12837666Y-16375258D02*
X12818618Y-16384781D01*
X12818618Y-16384781D02*
X12761476Y-16384781D01*
X12761476Y-16384781D02*
X12742428Y-16375258D01*
X12742428Y-16375258D02*
X12732904Y-16365734D01*
X12951952Y-16384781D02*
X12990047Y-16384781D01*
X12990047Y-16384781D02*
X13009095Y-16375258D01*
X13009095Y-16375258D02*
X13018618Y-16365734D01*
X13018618Y-16365734D02*
X13037666Y-16337162D01*
X13037666Y-16337162D02*
X13047190Y-16299067D01*
X13047190Y-16299067D02*
X13047190Y-16222877D01*
X13047190Y-16222877D02*
X13037666Y-16203829D01*
X13037666Y-16203829D02*
X13028142Y-16194305D01*
X13028142Y-16194305D02*
X13009095Y-16184781D01*
X13009095Y-16184781D02*
X12970999Y-16184781D01*
X12970999Y-16184781D02*
X12951952Y-16194305D01*
X12951952Y-16194305D02*
X12942428Y-16203829D01*
X12942428Y-16203829D02*
X12932904Y-16222877D01*
X12932904Y-16222877D02*
X12932904Y-16270496D01*
X12932904Y-16270496D02*
X12942428Y-16289543D01*
X12942428Y-16289543D02*
X12951952Y-16299067D01*
X12951952Y-16299067D02*
X12970999Y-16308591D01*
X12970999Y-16308591D02*
X13009095Y-16308591D01*
X13009095Y-16308591D02*
X13028142Y-16299067D01*
X13028142Y-16299067D02*
X13037666Y-16289543D01*
X13037666Y-16289543D02*
X13047190Y-16270496D01*
X13218618Y-16251448D02*
X13218618Y-16384781D01*
X13170999Y-16175258D02*
X13123380Y-16318115D01*
X13123380Y-16318115D02*
X13247190Y-16318115D01*
X13313857Y-16184781D02*
X13313857Y-16222877D01*
X13390047Y-16184781D02*
X13390047Y-16222877D01*
X13685285Y-16460972D02*
X13675761Y-16451448D01*
X13675761Y-16451448D02*
X13656714Y-16422877D01*
X13656714Y-16422877D02*
X13647190Y-16403829D01*
X13647190Y-16403829D02*
X13637666Y-16375258D01*
X13637666Y-16375258D02*
X13628142Y-16327638D01*
X13628142Y-16327638D02*
X13628142Y-16289543D01*
X13628142Y-16289543D02*
X13637666Y-16241924D01*
X13637666Y-16241924D02*
X13647190Y-16213353D01*
X13647190Y-16213353D02*
X13656714Y-16194305D01*
X13656714Y-16194305D02*
X13675761Y-16165734D01*
X13675761Y-16165734D02*
X13685285Y-16156210D01*
X13770999Y-16384781D02*
X13809095Y-16384781D01*
X13809095Y-16384781D02*
X13828142Y-16375258D01*
X13828142Y-16375258D02*
X13837666Y-16365734D01*
X13837666Y-16365734D02*
X13856714Y-16337162D01*
X13856714Y-16337162D02*
X13866238Y-16299067D01*
X13866238Y-16299067D02*
X13866238Y-16222877D01*
X13866238Y-16222877D02*
X13856714Y-16203829D01*
X13856714Y-16203829D02*
X13847190Y-16194305D01*
X13847190Y-16194305D02*
X13828142Y-16184781D01*
X13828142Y-16184781D02*
X13790047Y-16184781D01*
X13790047Y-16184781D02*
X13770999Y-16194305D01*
X13770999Y-16194305D02*
X13761476Y-16203829D01*
X13761476Y-16203829D02*
X13751952Y-16222877D01*
X13751952Y-16222877D02*
X13751952Y-16270496D01*
X13751952Y-16270496D02*
X13761476Y-16289543D01*
X13761476Y-16289543D02*
X13770999Y-16299067D01*
X13770999Y-16299067D02*
X13790047Y-16308591D01*
X13790047Y-16308591D02*
X13828142Y-16308591D01*
X13828142Y-16308591D02*
X13847190Y-16299067D01*
X13847190Y-16299067D02*
X13856714Y-16289543D01*
X13856714Y-16289543D02*
X13866238Y-16270496D01*
X13942428Y-16203829D02*
X13951952Y-16194305D01*
X13951952Y-16194305D02*
X13970999Y-16184781D01*
X13970999Y-16184781D02*
X14018619Y-16184781D01*
X14018619Y-16184781D02*
X14037666Y-16194305D01*
X14037666Y-16194305D02*
X14047190Y-16203829D01*
X14047190Y-16203829D02*
X14056714Y-16222877D01*
X14056714Y-16222877D02*
X14056714Y-16241924D01*
X14056714Y-16241924D02*
X14047190Y-16270496D01*
X14047190Y-16270496D02*
X13932904Y-16384781D01*
X13932904Y-16384781D02*
X14056714Y-16384781D01*
X14294809Y-16384781D02*
X14294809Y-16184781D01*
X14380523Y-16384781D02*
X14380523Y-16280019D01*
X14380523Y-16280019D02*
X14371000Y-16260972D01*
X14371000Y-16260972D02*
X14351952Y-16251448D01*
X14351952Y-16251448D02*
X14323380Y-16251448D01*
X14323380Y-16251448D02*
X14304333Y-16260972D01*
X14304333Y-16260972D02*
X14294809Y-16270496D01*
X14504333Y-16384781D02*
X14485285Y-16375258D01*
X14485285Y-16375258D02*
X14475761Y-16365734D01*
X14475761Y-16365734D02*
X14466238Y-16346686D01*
X14466238Y-16346686D02*
X14466238Y-16289543D01*
X14466238Y-16289543D02*
X14475761Y-16270496D01*
X14475761Y-16270496D02*
X14485285Y-16260972D01*
X14485285Y-16260972D02*
X14504333Y-16251448D01*
X14504333Y-16251448D02*
X14532904Y-16251448D01*
X14532904Y-16251448D02*
X14551952Y-16260972D01*
X14551952Y-16260972D02*
X14561476Y-16270496D01*
X14561476Y-16270496D02*
X14571000Y-16289543D01*
X14571000Y-16289543D02*
X14571000Y-16346686D01*
X14571000Y-16346686D02*
X14561476Y-16365734D01*
X14561476Y-16365734D02*
X14551952Y-16375258D01*
X14551952Y-16375258D02*
X14532904Y-16384781D01*
X14532904Y-16384781D02*
X14504333Y-16384781D01*
X14685285Y-16384781D02*
X14666238Y-16375258D01*
X14666238Y-16375258D02*
X14656714Y-16356210D01*
X14656714Y-16356210D02*
X14656714Y-16184781D01*
X14837666Y-16375258D02*
X14818619Y-16384781D01*
X14818619Y-16384781D02*
X14780523Y-16384781D01*
X14780523Y-16384781D02*
X14761476Y-16375258D01*
X14761476Y-16375258D02*
X14751952Y-16356210D01*
X14751952Y-16356210D02*
X14751952Y-16280019D01*
X14751952Y-16280019D02*
X14761476Y-16260972D01*
X14761476Y-16260972D02*
X14780523Y-16251448D01*
X14780523Y-16251448D02*
X14818619Y-16251448D01*
X14818619Y-16251448D02*
X14837666Y-16260972D01*
X14837666Y-16260972D02*
X14847190Y-16280019D01*
X14847190Y-16280019D02*
X14847190Y-16299067D01*
X14847190Y-16299067D02*
X14751952Y-16318115D01*
X14923381Y-16375258D02*
X14942428Y-16384781D01*
X14942428Y-16384781D02*
X14980523Y-16384781D01*
X14980523Y-16384781D02*
X14999571Y-16375258D01*
X14999571Y-16375258D02*
X15009095Y-16356210D01*
X15009095Y-16356210D02*
X15009095Y-16346686D01*
X15009095Y-16346686D02*
X14999571Y-16327638D01*
X14999571Y-16327638D02*
X14980523Y-16318115D01*
X14980523Y-16318115D02*
X14951952Y-16318115D01*
X14951952Y-16318115D02*
X14932904Y-16308591D01*
X14932904Y-16308591D02*
X14923381Y-16289543D01*
X14923381Y-16289543D02*
X14923381Y-16280019D01*
X14923381Y-16280019D02*
X14932904Y-16260972D01*
X14932904Y-16260972D02*
X14951952Y-16251448D01*
X14951952Y-16251448D02*
X14980523Y-16251448D01*
X14980523Y-16251448D02*
X14999571Y-16260972D01*
X15247190Y-16308591D02*
X15399571Y-16308591D01*
X15323381Y-16384781D02*
X15323381Y-16232400D01*
X15637666Y-16203829D02*
X15647190Y-16194305D01*
X15647190Y-16194305D02*
X15666238Y-16184781D01*
X15666238Y-16184781D02*
X15713857Y-16184781D01*
X15713857Y-16184781D02*
X15732904Y-16194305D01*
X15732904Y-16194305D02*
X15742428Y-16203829D01*
X15742428Y-16203829D02*
X15751952Y-16222877D01*
X15751952Y-16222877D02*
X15751952Y-16241924D01*
X15751952Y-16241924D02*
X15742428Y-16270496D01*
X15742428Y-16270496D02*
X15628143Y-16384781D01*
X15628143Y-16384781D02*
X15751952Y-16384781D01*
X15980524Y-16375258D02*
X15999571Y-16384781D01*
X15999571Y-16384781D02*
X16037666Y-16384781D01*
X16037666Y-16384781D02*
X16056714Y-16375258D01*
X16056714Y-16375258D02*
X16066238Y-16356210D01*
X16066238Y-16356210D02*
X16066238Y-16346686D01*
X16066238Y-16346686D02*
X16056714Y-16327638D01*
X16056714Y-16327638D02*
X16037666Y-16318115D01*
X16037666Y-16318115D02*
X16009095Y-16318115D01*
X16009095Y-16318115D02*
X15990047Y-16308591D01*
X15990047Y-16308591D02*
X15980524Y-16289543D01*
X15980524Y-16289543D02*
X15980524Y-16280019D01*
X15980524Y-16280019D02*
X15990047Y-16260972D01*
X15990047Y-16260972D02*
X16009095Y-16251448D01*
X16009095Y-16251448D02*
X16037666Y-16251448D01*
X16037666Y-16251448D02*
X16056714Y-16260972D01*
X16180524Y-16384781D02*
X16161476Y-16375258D01*
X16161476Y-16375258D02*
X16151952Y-16356210D01*
X16151952Y-16356210D02*
X16151952Y-16184781D01*
X16285285Y-16384781D02*
X16266238Y-16375258D01*
X16266238Y-16375258D02*
X16256714Y-16365734D01*
X16256714Y-16365734D02*
X16247190Y-16346686D01*
X16247190Y-16346686D02*
X16247190Y-16289543D01*
X16247190Y-16289543D02*
X16256714Y-16270496D01*
X16256714Y-16270496D02*
X16266238Y-16260972D01*
X16266238Y-16260972D02*
X16285285Y-16251448D01*
X16285285Y-16251448D02*
X16313857Y-16251448D01*
X16313857Y-16251448D02*
X16332905Y-16260972D01*
X16332905Y-16260972D02*
X16342428Y-16270496D01*
X16342428Y-16270496D02*
X16351952Y-16289543D01*
X16351952Y-16289543D02*
X16351952Y-16346686D01*
X16351952Y-16346686D02*
X16342428Y-16365734D01*
X16342428Y-16365734D02*
X16332905Y-16375258D01*
X16332905Y-16375258D02*
X16313857Y-16384781D01*
X16313857Y-16384781D02*
X16285285Y-16384781D01*
X16409095Y-16251448D02*
X16485285Y-16251448D01*
X16437666Y-16184781D02*
X16437666Y-16356210D01*
X16437666Y-16356210D02*
X16447190Y-16375258D01*
X16447190Y-16375258D02*
X16466238Y-16384781D01*
X16466238Y-16384781D02*
X16485285Y-16384781D01*
X16542428Y-16375258D02*
X16561476Y-16384781D01*
X16561476Y-16384781D02*
X16599571Y-16384781D01*
X16599571Y-16384781D02*
X16618619Y-16375258D01*
X16618619Y-16375258D02*
X16628143Y-16356210D01*
X16628143Y-16356210D02*
X16628143Y-16346686D01*
X16628143Y-16346686D02*
X16618619Y-16327638D01*
X16618619Y-16327638D02*
X16599571Y-16318115D01*
X16599571Y-16318115D02*
X16571000Y-16318115D01*
X16571000Y-16318115D02*
X16551952Y-16308591D01*
X16551952Y-16308591D02*
X16542428Y-16289543D01*
X16542428Y-16289543D02*
X16542428Y-16280019D01*
X16542428Y-16280019D02*
X16551952Y-16260972D01*
X16551952Y-16260972D02*
X16571000Y-16251448D01*
X16571000Y-16251448D02*
X16599571Y-16251448D01*
X16599571Y-16251448D02*
X16618619Y-16260972D01*
X16694809Y-16460972D02*
X16704333Y-16451448D01*
X16704333Y-16451448D02*
X16723381Y-16422877D01*
X16723381Y-16422877D02*
X16732905Y-16403829D01*
X16732905Y-16403829D02*
X16742428Y-16375258D01*
X16742428Y-16375258D02*
X16751952Y-16327638D01*
X16751952Y-16327638D02*
X16751952Y-16289543D01*
X16751952Y-16289543D02*
X16742428Y-16241924D01*
X16742428Y-16241924D02*
X16732905Y-16213353D01*
X16732905Y-16213353D02*
X16723381Y-16194305D01*
X16723381Y-16194305D02*
X16704333Y-16165734D01*
X16704333Y-16165734D02*
X16694809Y-16156210D01*
D17*
X9980222Y-16492298D02*
X10110222Y-16622298D01*
X10110222Y-16492298D02*
X9980222Y-16622298D01*
X10045222Y-16492298D02*
X10045222Y-16622298D01*
X9980222Y-16557298D02*
X10110222Y-16557298D01*
D11*
X10475761Y-16648781D02*
X10361475Y-16648781D01*
X10418618Y-16648781D02*
X10418618Y-16448781D01*
X10418618Y-16448781D02*
X10399571Y-16477353D01*
X10399571Y-16477353D02*
X10380523Y-16496400D01*
X10380523Y-16496400D02*
X10361475Y-16505924D01*
X10561475Y-16629734D02*
X10570999Y-16639258D01*
X10570999Y-16639258D02*
X10561475Y-16648781D01*
X10561475Y-16648781D02*
X10551952Y-16639258D01*
X10551952Y-16639258D02*
X10561475Y-16629734D01*
X10561475Y-16629734D02*
X10561475Y-16648781D01*
X10637666Y-16448781D02*
X10761475Y-16448781D01*
X10761475Y-16448781D02*
X10694809Y-16524972D01*
X10694809Y-16524972D02*
X10723380Y-16524972D01*
X10723380Y-16524972D02*
X10742428Y-16534496D01*
X10742428Y-16534496D02*
X10751952Y-16544019D01*
X10751952Y-16544019D02*
X10761475Y-16563067D01*
X10761475Y-16563067D02*
X10761475Y-16610686D01*
X10761475Y-16610686D02*
X10751952Y-16629734D01*
X10751952Y-16629734D02*
X10742428Y-16639258D01*
X10742428Y-16639258D02*
X10723380Y-16648781D01*
X10723380Y-16648781D02*
X10666237Y-16648781D01*
X10666237Y-16648781D02*
X10647190Y-16639258D01*
X10647190Y-16639258D02*
X10637666Y-16629734D01*
X10885285Y-16448781D02*
X10904333Y-16448781D01*
X10904333Y-16448781D02*
X10923380Y-16458305D01*
X10923380Y-16458305D02*
X10932904Y-16467829D01*
X10932904Y-16467829D02*
X10942428Y-16486877D01*
X10942428Y-16486877D02*
X10951952Y-16524972D01*
X10951952Y-16524972D02*
X10951952Y-16572591D01*
X10951952Y-16572591D02*
X10942428Y-16610686D01*
X10942428Y-16610686D02*
X10932904Y-16629734D01*
X10932904Y-16629734D02*
X10923380Y-16639258D01*
X10923380Y-16639258D02*
X10904333Y-16648781D01*
X10904333Y-16648781D02*
X10885285Y-16648781D01*
X10885285Y-16648781D02*
X10866237Y-16639258D01*
X10866237Y-16639258D02*
X10856714Y-16629734D01*
X10856714Y-16629734D02*
X10847190Y-16610686D01*
X10847190Y-16610686D02*
X10837666Y-16572591D01*
X10837666Y-16572591D02*
X10837666Y-16524972D01*
X10837666Y-16524972D02*
X10847190Y-16486877D01*
X10847190Y-16486877D02*
X10856714Y-16467829D01*
X10856714Y-16467829D02*
X10866237Y-16458305D01*
X10866237Y-16458305D02*
X10885285Y-16448781D01*
X11075761Y-16448781D02*
X11094809Y-16448781D01*
X11094809Y-16448781D02*
X11113856Y-16458305D01*
X11113856Y-16458305D02*
X11123380Y-16467829D01*
X11123380Y-16467829D02*
X11132904Y-16486877D01*
X11132904Y-16486877D02*
X11142428Y-16524972D01*
X11142428Y-16524972D02*
X11142428Y-16572591D01*
X11142428Y-16572591D02*
X11132904Y-16610686D01*
X11132904Y-16610686D02*
X11123380Y-16629734D01*
X11123380Y-16629734D02*
X11113856Y-16639258D01*
X11113856Y-16639258D02*
X11094809Y-16648781D01*
X11094809Y-16648781D02*
X11075761Y-16648781D01*
X11075761Y-16648781D02*
X11056714Y-16639258D01*
X11056714Y-16639258D02*
X11047190Y-16629734D01*
X11047190Y-16629734D02*
X11037666Y-16610686D01*
X11037666Y-16610686D02*
X11028142Y-16572591D01*
X11028142Y-16572591D02*
X11028142Y-16524972D01*
X11028142Y-16524972D02*
X11037666Y-16486877D01*
X11037666Y-16486877D02*
X11047190Y-16467829D01*
X11047190Y-16467829D02*
X11056714Y-16458305D01*
X11056714Y-16458305D02*
X11075761Y-16448781D01*
X11228142Y-16648781D02*
X11228142Y-16515448D01*
X11228142Y-16534496D02*
X11237666Y-16524972D01*
X11237666Y-16524972D02*
X11256713Y-16515448D01*
X11256713Y-16515448D02*
X11285285Y-16515448D01*
X11285285Y-16515448D02*
X11304333Y-16524972D01*
X11304333Y-16524972D02*
X11313856Y-16544019D01*
X11313856Y-16544019D02*
X11313856Y-16648781D01*
X11313856Y-16544019D02*
X11323380Y-16524972D01*
X11323380Y-16524972D02*
X11342428Y-16515448D01*
X11342428Y-16515448D02*
X11370999Y-16515448D01*
X11370999Y-16515448D02*
X11390047Y-16524972D01*
X11390047Y-16524972D02*
X11399571Y-16544019D01*
X11399571Y-16544019D02*
X11399571Y-16648781D01*
X11494809Y-16648781D02*
X11494809Y-16515448D01*
X11494809Y-16534496D02*
X11504333Y-16524972D01*
X11504333Y-16524972D02*
X11523380Y-16515448D01*
X11523380Y-16515448D02*
X11551952Y-16515448D01*
X11551952Y-16515448D02*
X11570999Y-16524972D01*
X11570999Y-16524972D02*
X11580523Y-16544019D01*
X11580523Y-16544019D02*
X11580523Y-16648781D01*
X11580523Y-16544019D02*
X11590047Y-16524972D01*
X11590047Y-16524972D02*
X11609094Y-16515448D01*
X11609094Y-16515448D02*
X11637666Y-16515448D01*
X11637666Y-16515448D02*
X11656714Y-16524972D01*
X11656714Y-16524972D02*
X11666237Y-16544019D01*
X11666237Y-16544019D02*
X11666237Y-16648781D01*
X12056714Y-16439258D02*
X11885285Y-16696400D01*
X12313856Y-16448781D02*
X12332904Y-16448781D01*
X12332904Y-16448781D02*
X12351952Y-16458305D01*
X12351952Y-16458305D02*
X12361476Y-16467829D01*
X12361476Y-16467829D02*
X12370999Y-16486877D01*
X12370999Y-16486877D02*
X12380523Y-16524972D01*
X12380523Y-16524972D02*
X12380523Y-16572591D01*
X12380523Y-16572591D02*
X12370999Y-16610686D01*
X12370999Y-16610686D02*
X12361476Y-16629734D01*
X12361476Y-16629734D02*
X12351952Y-16639258D01*
X12351952Y-16639258D02*
X12332904Y-16648781D01*
X12332904Y-16648781D02*
X12313856Y-16648781D01*
X12313856Y-16648781D02*
X12294809Y-16639258D01*
X12294809Y-16639258D02*
X12285285Y-16629734D01*
X12285285Y-16629734D02*
X12275761Y-16610686D01*
X12275761Y-16610686D02*
X12266237Y-16572591D01*
X12266237Y-16572591D02*
X12266237Y-16524972D01*
X12266237Y-16524972D02*
X12275761Y-16486877D01*
X12275761Y-16486877D02*
X12285285Y-16467829D01*
X12285285Y-16467829D02*
X12294809Y-16458305D01*
X12294809Y-16458305D02*
X12313856Y-16448781D01*
X12466237Y-16629734D02*
X12475761Y-16639258D01*
X12475761Y-16639258D02*
X12466237Y-16648781D01*
X12466237Y-16648781D02*
X12456714Y-16639258D01*
X12456714Y-16639258D02*
X12466237Y-16629734D01*
X12466237Y-16629734D02*
X12466237Y-16648781D01*
X12599571Y-16448781D02*
X12618618Y-16448781D01*
X12618618Y-16448781D02*
X12637666Y-16458305D01*
X12637666Y-16458305D02*
X12647190Y-16467829D01*
X12647190Y-16467829D02*
X12656714Y-16486877D01*
X12656714Y-16486877D02*
X12666237Y-16524972D01*
X12666237Y-16524972D02*
X12666237Y-16572591D01*
X12666237Y-16572591D02*
X12656714Y-16610686D01*
X12656714Y-16610686D02*
X12647190Y-16629734D01*
X12647190Y-16629734D02*
X12637666Y-16639258D01*
X12637666Y-16639258D02*
X12618618Y-16648781D01*
X12618618Y-16648781D02*
X12599571Y-16648781D01*
X12599571Y-16648781D02*
X12580523Y-16639258D01*
X12580523Y-16639258D02*
X12570999Y-16629734D01*
X12570999Y-16629734D02*
X12561476Y-16610686D01*
X12561476Y-16610686D02*
X12551952Y-16572591D01*
X12551952Y-16572591D02*
X12551952Y-16524972D01*
X12551952Y-16524972D02*
X12561476Y-16486877D01*
X12561476Y-16486877D02*
X12570999Y-16467829D01*
X12570999Y-16467829D02*
X12580523Y-16458305D01*
X12580523Y-16458305D02*
X12599571Y-16448781D01*
X12847190Y-16448781D02*
X12751952Y-16448781D01*
X12751952Y-16448781D02*
X12742428Y-16544019D01*
X12742428Y-16544019D02*
X12751952Y-16534496D01*
X12751952Y-16534496D02*
X12770999Y-16524972D01*
X12770999Y-16524972D02*
X12818618Y-16524972D01*
X12818618Y-16524972D02*
X12837666Y-16534496D01*
X12837666Y-16534496D02*
X12847190Y-16544019D01*
X12847190Y-16544019D02*
X12856714Y-16563067D01*
X12856714Y-16563067D02*
X12856714Y-16610686D01*
X12856714Y-16610686D02*
X12847190Y-16629734D01*
X12847190Y-16629734D02*
X12837666Y-16639258D01*
X12837666Y-16639258D02*
X12818618Y-16648781D01*
X12818618Y-16648781D02*
X12770999Y-16648781D01*
X12770999Y-16648781D02*
X12751952Y-16639258D01*
X12751952Y-16639258D02*
X12742428Y-16629734D01*
X13047190Y-16648781D02*
X12932904Y-16648781D01*
X12990047Y-16648781D02*
X12990047Y-16448781D01*
X12990047Y-16448781D02*
X12970999Y-16477353D01*
X12970999Y-16477353D02*
X12951952Y-16496400D01*
X12951952Y-16496400D02*
X12932904Y-16505924D01*
X13123380Y-16467829D02*
X13132904Y-16458305D01*
X13132904Y-16458305D02*
X13151952Y-16448781D01*
X13151952Y-16448781D02*
X13199571Y-16448781D01*
X13199571Y-16448781D02*
X13218618Y-16458305D01*
X13218618Y-16458305D02*
X13228142Y-16467829D01*
X13228142Y-16467829D02*
X13237666Y-16486877D01*
X13237666Y-16486877D02*
X13237666Y-16505924D01*
X13237666Y-16505924D02*
X13228142Y-16534496D01*
X13228142Y-16534496D02*
X13113857Y-16648781D01*
X13113857Y-16648781D02*
X13237666Y-16648781D01*
X13313857Y-16448781D02*
X13313857Y-16486877D01*
X13390047Y-16448781D02*
X13390047Y-16486877D01*
X13685285Y-16724972D02*
X13675761Y-16715448D01*
X13675761Y-16715448D02*
X13656714Y-16686877D01*
X13656714Y-16686877D02*
X13647190Y-16667829D01*
X13647190Y-16667829D02*
X13637666Y-16639258D01*
X13637666Y-16639258D02*
X13628142Y-16591638D01*
X13628142Y-16591638D02*
X13628142Y-16553543D01*
X13628142Y-16553543D02*
X13637666Y-16505924D01*
X13637666Y-16505924D02*
X13647190Y-16477353D01*
X13647190Y-16477353D02*
X13656714Y-16458305D01*
X13656714Y-16458305D02*
X13675761Y-16429734D01*
X13675761Y-16429734D02*
X13685285Y-16420210D01*
X13866238Y-16648781D02*
X13751952Y-16648781D01*
X13809095Y-16648781D02*
X13809095Y-16448781D01*
X13809095Y-16448781D02*
X13790047Y-16477353D01*
X13790047Y-16477353D02*
X13770999Y-16496400D01*
X13770999Y-16496400D02*
X13751952Y-16505924D01*
X14094809Y-16639258D02*
X14113857Y-16648781D01*
X14113857Y-16648781D02*
X14151952Y-16648781D01*
X14151952Y-16648781D02*
X14171000Y-16639258D01*
X14171000Y-16639258D02*
X14180523Y-16620210D01*
X14180523Y-16620210D02*
X14180523Y-16610686D01*
X14180523Y-16610686D02*
X14171000Y-16591638D01*
X14171000Y-16591638D02*
X14151952Y-16582115D01*
X14151952Y-16582115D02*
X14123380Y-16582115D01*
X14123380Y-16582115D02*
X14104333Y-16572591D01*
X14104333Y-16572591D02*
X14094809Y-16553543D01*
X14094809Y-16553543D02*
X14094809Y-16544019D01*
X14094809Y-16544019D02*
X14104333Y-16524972D01*
X14104333Y-16524972D02*
X14123380Y-16515448D01*
X14123380Y-16515448D02*
X14151952Y-16515448D01*
X14151952Y-16515448D02*
X14171000Y-16524972D01*
X14294809Y-16648781D02*
X14275761Y-16639258D01*
X14275761Y-16639258D02*
X14266238Y-16620210D01*
X14266238Y-16620210D02*
X14266238Y-16448781D01*
X14399571Y-16648781D02*
X14380523Y-16639258D01*
X14380523Y-16639258D02*
X14371000Y-16629734D01*
X14371000Y-16629734D02*
X14361476Y-16610686D01*
X14361476Y-16610686D02*
X14361476Y-16553543D01*
X14361476Y-16553543D02*
X14371000Y-16534496D01*
X14371000Y-16534496D02*
X14380523Y-16524972D01*
X14380523Y-16524972D02*
X14399571Y-16515448D01*
X14399571Y-16515448D02*
X14428142Y-16515448D01*
X14428142Y-16515448D02*
X14447190Y-16524972D01*
X14447190Y-16524972D02*
X14456714Y-16534496D01*
X14456714Y-16534496D02*
X14466238Y-16553543D01*
X14466238Y-16553543D02*
X14466238Y-16610686D01*
X14466238Y-16610686D02*
X14456714Y-16629734D01*
X14456714Y-16629734D02*
X14447190Y-16639258D01*
X14447190Y-16639258D02*
X14428142Y-16648781D01*
X14428142Y-16648781D02*
X14399571Y-16648781D01*
X14523381Y-16515448D02*
X14599571Y-16515448D01*
X14551952Y-16448781D02*
X14551952Y-16620210D01*
X14551952Y-16620210D02*
X14561476Y-16639258D01*
X14561476Y-16639258D02*
X14580523Y-16648781D01*
X14580523Y-16648781D02*
X14599571Y-16648781D01*
X14647190Y-16724972D02*
X14656714Y-16715448D01*
X14656714Y-16715448D02*
X14675761Y-16686877D01*
X14675761Y-16686877D02*
X14685285Y-16667829D01*
X14685285Y-16667829D02*
X14694809Y-16639258D01*
X14694809Y-16639258D02*
X14704333Y-16591638D01*
X14704333Y-16591638D02*
X14704333Y-16553543D01*
X14704333Y-16553543D02*
X14694809Y-16505924D01*
X14694809Y-16505924D02*
X14685285Y-16477353D01*
X14685285Y-16477353D02*
X14675761Y-16458305D01*
X14675761Y-16458305D02*
X14656714Y-16429734D01*
X14656714Y-16429734D02*
X14647190Y-16420210D01*
X9910222Y-16721298D02*
X10110222Y-16921298D01*
X10110222Y-16721298D02*
X9910222Y-16921298D01*
X10080934Y-16892009D02*
X10080934Y-16750586D01*
X9939511Y-16750586D01*
X9939511Y-16892009D01*
X10080934Y-16892009D01*
X10361475Y-16731829D02*
X10370999Y-16722305D01*
X10370999Y-16722305D02*
X10390047Y-16712781D01*
X10390047Y-16712781D02*
X10437666Y-16712781D01*
X10437666Y-16712781D02*
X10456714Y-16722305D01*
X10456714Y-16722305D02*
X10466237Y-16731829D01*
X10466237Y-16731829D02*
X10475761Y-16750877D01*
X10475761Y-16750877D02*
X10475761Y-16769924D01*
X10475761Y-16769924D02*
X10466237Y-16798496D01*
X10466237Y-16798496D02*
X10351952Y-16912781D01*
X10351952Y-16912781D02*
X10475761Y-16912781D01*
X10561475Y-16893734D02*
X10570999Y-16903258D01*
X10570999Y-16903258D02*
X10561475Y-16912781D01*
X10561475Y-16912781D02*
X10551952Y-16903258D01*
X10551952Y-16903258D02*
X10561475Y-16893734D01*
X10561475Y-16893734D02*
X10561475Y-16912781D01*
X10647190Y-16731829D02*
X10656714Y-16722305D01*
X10656714Y-16722305D02*
X10675761Y-16712781D01*
X10675761Y-16712781D02*
X10723380Y-16712781D01*
X10723380Y-16712781D02*
X10742428Y-16722305D01*
X10742428Y-16722305D02*
X10751952Y-16731829D01*
X10751952Y-16731829D02*
X10761475Y-16750877D01*
X10761475Y-16750877D02*
X10761475Y-16769924D01*
X10761475Y-16769924D02*
X10751952Y-16798496D01*
X10751952Y-16798496D02*
X10637666Y-16912781D01*
X10637666Y-16912781D02*
X10761475Y-16912781D01*
X10951952Y-16912781D02*
X10837666Y-16912781D01*
X10894809Y-16912781D02*
X10894809Y-16712781D01*
X10894809Y-16712781D02*
X10875761Y-16741353D01*
X10875761Y-16741353D02*
X10856714Y-16760400D01*
X10856714Y-16760400D02*
X10837666Y-16769924D01*
X11075761Y-16712781D02*
X11094809Y-16712781D01*
X11094809Y-16712781D02*
X11113856Y-16722305D01*
X11113856Y-16722305D02*
X11123380Y-16731829D01*
X11123380Y-16731829D02*
X11132904Y-16750877D01*
X11132904Y-16750877D02*
X11142428Y-16788972D01*
X11142428Y-16788972D02*
X11142428Y-16836591D01*
X11142428Y-16836591D02*
X11132904Y-16874686D01*
X11132904Y-16874686D02*
X11123380Y-16893734D01*
X11123380Y-16893734D02*
X11113856Y-16903258D01*
X11113856Y-16903258D02*
X11094809Y-16912781D01*
X11094809Y-16912781D02*
X11075761Y-16912781D01*
X11075761Y-16912781D02*
X11056714Y-16903258D01*
X11056714Y-16903258D02*
X11047190Y-16893734D01*
X11047190Y-16893734D02*
X11037666Y-16874686D01*
X11037666Y-16874686D02*
X11028142Y-16836591D01*
X11028142Y-16836591D02*
X11028142Y-16788972D01*
X11028142Y-16788972D02*
X11037666Y-16750877D01*
X11037666Y-16750877D02*
X11047190Y-16731829D01*
X11047190Y-16731829D02*
X11056714Y-16722305D01*
X11056714Y-16722305D02*
X11075761Y-16712781D01*
X11228142Y-16912781D02*
X11228142Y-16779448D01*
X11228142Y-16798496D02*
X11237666Y-16788972D01*
X11237666Y-16788972D02*
X11256713Y-16779448D01*
X11256713Y-16779448D02*
X11285285Y-16779448D01*
X11285285Y-16779448D02*
X11304333Y-16788972D01*
X11304333Y-16788972D02*
X11313856Y-16808020D01*
X11313856Y-16808020D02*
X11313856Y-16912781D01*
X11313856Y-16808020D02*
X11323380Y-16788972D01*
X11323380Y-16788972D02*
X11342428Y-16779448D01*
X11342428Y-16779448D02*
X11370999Y-16779448D01*
X11370999Y-16779448D02*
X11390047Y-16788972D01*
X11390047Y-16788972D02*
X11399571Y-16808020D01*
X11399571Y-16808020D02*
X11399571Y-16912781D01*
X11494809Y-16912781D02*
X11494809Y-16779448D01*
X11494809Y-16798496D02*
X11504333Y-16788972D01*
X11504333Y-16788972D02*
X11523380Y-16779448D01*
X11523380Y-16779448D02*
X11551952Y-16779448D01*
X11551952Y-16779448D02*
X11570999Y-16788972D01*
X11570999Y-16788972D02*
X11580523Y-16808020D01*
X11580523Y-16808020D02*
X11580523Y-16912781D01*
X11580523Y-16808020D02*
X11590047Y-16788972D01*
X11590047Y-16788972D02*
X11609094Y-16779448D01*
X11609094Y-16779448D02*
X11637666Y-16779448D01*
X11637666Y-16779448D02*
X11656714Y-16788972D01*
X11656714Y-16788972D02*
X11666237Y-16808020D01*
X11666237Y-16808020D02*
X11666237Y-16912781D01*
X12056714Y-16703258D02*
X11885285Y-16960400D01*
X12313856Y-16712781D02*
X12332904Y-16712781D01*
X12332904Y-16712781D02*
X12351952Y-16722305D01*
X12351952Y-16722305D02*
X12361476Y-16731829D01*
X12361476Y-16731829D02*
X12370999Y-16750877D01*
X12370999Y-16750877D02*
X12380523Y-16788972D01*
X12380523Y-16788972D02*
X12380523Y-16836591D01*
X12380523Y-16836591D02*
X12370999Y-16874686D01*
X12370999Y-16874686D02*
X12361476Y-16893734D01*
X12361476Y-16893734D02*
X12351952Y-16903258D01*
X12351952Y-16903258D02*
X12332904Y-16912781D01*
X12332904Y-16912781D02*
X12313856Y-16912781D01*
X12313856Y-16912781D02*
X12294809Y-16903258D01*
X12294809Y-16903258D02*
X12285285Y-16893734D01*
X12285285Y-16893734D02*
X12275761Y-16874686D01*
X12275761Y-16874686D02*
X12266237Y-16836591D01*
X12266237Y-16836591D02*
X12266237Y-16788972D01*
X12266237Y-16788972D02*
X12275761Y-16750877D01*
X12275761Y-16750877D02*
X12285285Y-16731829D01*
X12285285Y-16731829D02*
X12294809Y-16722305D01*
X12294809Y-16722305D02*
X12313856Y-16712781D01*
X12466237Y-16893734D02*
X12475761Y-16903258D01*
X12475761Y-16903258D02*
X12466237Y-16912781D01*
X12466237Y-16912781D02*
X12456714Y-16903258D01*
X12456714Y-16903258D02*
X12466237Y-16893734D01*
X12466237Y-16893734D02*
X12466237Y-16912781D01*
X12599571Y-16712781D02*
X12618618Y-16712781D01*
X12618618Y-16712781D02*
X12637666Y-16722305D01*
X12637666Y-16722305D02*
X12647190Y-16731829D01*
X12647190Y-16731829D02*
X12656714Y-16750877D01*
X12656714Y-16750877D02*
X12666237Y-16788972D01*
X12666237Y-16788972D02*
X12666237Y-16836591D01*
X12666237Y-16836591D02*
X12656714Y-16874686D01*
X12656714Y-16874686D02*
X12647190Y-16893734D01*
X12647190Y-16893734D02*
X12637666Y-16903258D01*
X12637666Y-16903258D02*
X12618618Y-16912781D01*
X12618618Y-16912781D02*
X12599571Y-16912781D01*
X12599571Y-16912781D02*
X12580523Y-16903258D01*
X12580523Y-16903258D02*
X12570999Y-16893734D01*
X12570999Y-16893734D02*
X12561476Y-16874686D01*
X12561476Y-16874686D02*
X12551952Y-16836591D01*
X12551952Y-16836591D02*
X12551952Y-16788972D01*
X12551952Y-16788972D02*
X12561476Y-16750877D01*
X12561476Y-16750877D02*
X12570999Y-16731829D01*
X12570999Y-16731829D02*
X12580523Y-16722305D01*
X12580523Y-16722305D02*
X12599571Y-16712781D01*
X12780523Y-16798496D02*
X12761476Y-16788972D01*
X12761476Y-16788972D02*
X12751952Y-16779448D01*
X12751952Y-16779448D02*
X12742428Y-16760400D01*
X12742428Y-16760400D02*
X12742428Y-16750877D01*
X12742428Y-16750877D02*
X12751952Y-16731829D01*
X12751952Y-16731829D02*
X12761476Y-16722305D01*
X12761476Y-16722305D02*
X12780523Y-16712781D01*
X12780523Y-16712781D02*
X12818618Y-16712781D01*
X12818618Y-16712781D02*
X12837666Y-16722305D01*
X12837666Y-16722305D02*
X12847190Y-16731829D01*
X12847190Y-16731829D02*
X12856714Y-16750877D01*
X12856714Y-16750877D02*
X12856714Y-16760400D01*
X12856714Y-16760400D02*
X12847190Y-16779448D01*
X12847190Y-16779448D02*
X12837666Y-16788972D01*
X12837666Y-16788972D02*
X12818618Y-16798496D01*
X12818618Y-16798496D02*
X12780523Y-16798496D01*
X12780523Y-16798496D02*
X12761476Y-16808020D01*
X12761476Y-16808020D02*
X12751952Y-16817543D01*
X12751952Y-16817543D02*
X12742428Y-16836591D01*
X12742428Y-16836591D02*
X12742428Y-16874686D01*
X12742428Y-16874686D02*
X12751952Y-16893734D01*
X12751952Y-16893734D02*
X12761476Y-16903258D01*
X12761476Y-16903258D02*
X12780523Y-16912781D01*
X12780523Y-16912781D02*
X12818618Y-16912781D01*
X12818618Y-16912781D02*
X12837666Y-16903258D01*
X12837666Y-16903258D02*
X12847190Y-16893734D01*
X12847190Y-16893734D02*
X12856714Y-16874686D01*
X12856714Y-16874686D02*
X12856714Y-16836591D01*
X12856714Y-16836591D02*
X12847190Y-16817543D01*
X12847190Y-16817543D02*
X12837666Y-16808020D01*
X12837666Y-16808020D02*
X12818618Y-16798496D01*
X12923380Y-16712781D02*
X13056714Y-16712781D01*
X13056714Y-16712781D02*
X12970999Y-16912781D01*
X13170999Y-16712781D02*
X13190047Y-16712781D01*
X13190047Y-16712781D02*
X13209095Y-16722305D01*
X13209095Y-16722305D02*
X13218618Y-16731829D01*
X13218618Y-16731829D02*
X13228142Y-16750877D01*
X13228142Y-16750877D02*
X13237666Y-16788972D01*
X13237666Y-16788972D02*
X13237666Y-16836591D01*
X13237666Y-16836591D02*
X13228142Y-16874686D01*
X13228142Y-16874686D02*
X13218618Y-16893734D01*
X13218618Y-16893734D02*
X13209095Y-16903258D01*
X13209095Y-16903258D02*
X13190047Y-16912781D01*
X13190047Y-16912781D02*
X13170999Y-16912781D01*
X13170999Y-16912781D02*
X13151952Y-16903258D01*
X13151952Y-16903258D02*
X13142428Y-16893734D01*
X13142428Y-16893734D02*
X13132904Y-16874686D01*
X13132904Y-16874686D02*
X13123380Y-16836591D01*
X13123380Y-16836591D02*
X13123380Y-16788972D01*
X13123380Y-16788972D02*
X13132904Y-16750877D01*
X13132904Y-16750877D02*
X13142428Y-16731829D01*
X13142428Y-16731829D02*
X13151952Y-16722305D01*
X13151952Y-16722305D02*
X13170999Y-16712781D01*
X13313857Y-16712781D02*
X13313857Y-16750877D01*
X13390047Y-16712781D02*
X13390047Y-16750877D01*
X13685285Y-16988972D02*
X13675761Y-16979448D01*
X13675761Y-16979448D02*
X13656714Y-16950877D01*
X13656714Y-16950877D02*
X13647190Y-16931829D01*
X13647190Y-16931829D02*
X13637666Y-16903258D01*
X13637666Y-16903258D02*
X13628142Y-16855639D01*
X13628142Y-16855639D02*
X13628142Y-16817543D01*
X13628142Y-16817543D02*
X13637666Y-16769924D01*
X13637666Y-16769924D02*
X13647190Y-16741353D01*
X13647190Y-16741353D02*
X13656714Y-16722305D01*
X13656714Y-16722305D02*
X13675761Y-16693734D01*
X13675761Y-16693734D02*
X13685285Y-16684210D01*
X13751952Y-16731829D02*
X13761476Y-16722305D01*
X13761476Y-16722305D02*
X13780523Y-16712781D01*
X13780523Y-16712781D02*
X13828142Y-16712781D01*
X13828142Y-16712781D02*
X13847190Y-16722305D01*
X13847190Y-16722305D02*
X13856714Y-16731829D01*
X13856714Y-16731829D02*
X13866238Y-16750877D01*
X13866238Y-16750877D02*
X13866238Y-16769924D01*
X13866238Y-16769924D02*
X13856714Y-16798496D01*
X13856714Y-16798496D02*
X13742428Y-16912781D01*
X13742428Y-16912781D02*
X13866238Y-16912781D01*
X14104333Y-16912781D02*
X14104333Y-16712781D01*
X14190047Y-16912781D02*
X14190047Y-16808020D01*
X14190047Y-16808020D02*
X14180523Y-16788972D01*
X14180523Y-16788972D02*
X14161476Y-16779448D01*
X14161476Y-16779448D02*
X14132904Y-16779448D01*
X14132904Y-16779448D02*
X14113857Y-16788972D01*
X14113857Y-16788972D02*
X14104333Y-16798496D01*
X14313857Y-16912781D02*
X14294809Y-16903258D01*
X14294809Y-16903258D02*
X14285285Y-16893734D01*
X14285285Y-16893734D02*
X14275761Y-16874686D01*
X14275761Y-16874686D02*
X14275761Y-16817543D01*
X14275761Y-16817543D02*
X14285285Y-16798496D01*
X14285285Y-16798496D02*
X14294809Y-16788972D01*
X14294809Y-16788972D02*
X14313857Y-16779448D01*
X14313857Y-16779448D02*
X14342428Y-16779448D01*
X14342428Y-16779448D02*
X14361476Y-16788972D01*
X14361476Y-16788972D02*
X14371000Y-16798496D01*
X14371000Y-16798496D02*
X14380523Y-16817543D01*
X14380523Y-16817543D02*
X14380523Y-16874686D01*
X14380523Y-16874686D02*
X14371000Y-16893734D01*
X14371000Y-16893734D02*
X14361476Y-16903258D01*
X14361476Y-16903258D02*
X14342428Y-16912781D01*
X14342428Y-16912781D02*
X14313857Y-16912781D01*
X14494809Y-16912781D02*
X14475761Y-16903258D01*
X14475761Y-16903258D02*
X14466238Y-16884210D01*
X14466238Y-16884210D02*
X14466238Y-16712781D01*
X14647190Y-16903258D02*
X14628142Y-16912781D01*
X14628142Y-16912781D02*
X14590047Y-16912781D01*
X14590047Y-16912781D02*
X14571000Y-16903258D01*
X14571000Y-16903258D02*
X14561476Y-16884210D01*
X14561476Y-16884210D02*
X14561476Y-16808020D01*
X14561476Y-16808020D02*
X14571000Y-16788972D01*
X14571000Y-16788972D02*
X14590047Y-16779448D01*
X14590047Y-16779448D02*
X14628142Y-16779448D01*
X14628142Y-16779448D02*
X14647190Y-16788972D01*
X14647190Y-16788972D02*
X14656714Y-16808020D01*
X14656714Y-16808020D02*
X14656714Y-16827067D01*
X14656714Y-16827067D02*
X14561476Y-16846115D01*
X14732904Y-16903258D02*
X14751952Y-16912781D01*
X14751952Y-16912781D02*
X14790047Y-16912781D01*
X14790047Y-16912781D02*
X14809095Y-16903258D01*
X14809095Y-16903258D02*
X14818619Y-16884210D01*
X14818619Y-16884210D02*
X14818619Y-16874686D01*
X14818619Y-16874686D02*
X14809095Y-16855639D01*
X14809095Y-16855639D02*
X14790047Y-16846115D01*
X14790047Y-16846115D02*
X14761476Y-16846115D01*
X14761476Y-16846115D02*
X14742428Y-16836591D01*
X14742428Y-16836591D02*
X14732904Y-16817543D01*
X14732904Y-16817543D02*
X14732904Y-16808020D01*
X14732904Y-16808020D02*
X14742428Y-16788972D01*
X14742428Y-16788972D02*
X14761476Y-16779448D01*
X14761476Y-16779448D02*
X14790047Y-16779448D01*
X14790047Y-16779448D02*
X14809095Y-16788972D01*
X14885285Y-16988972D02*
X14894809Y-16979448D01*
X14894809Y-16979448D02*
X14913857Y-16950877D01*
X14913857Y-16950877D02*
X14923381Y-16931829D01*
X14923381Y-16931829D02*
X14932904Y-16903258D01*
X14932904Y-16903258D02*
X14942428Y-16855639D01*
X14942428Y-16855639D02*
X14942428Y-16817543D01*
X14942428Y-16817543D02*
X14932904Y-16769924D01*
X14932904Y-16769924D02*
X14923381Y-16741353D01*
X14923381Y-16741353D02*
X14913857Y-16722305D01*
X14913857Y-16722305D02*
X14894809Y-16693734D01*
X14894809Y-16693734D02*
X14885285Y-16684210D01*
M02*
