G04 #@! TF.GenerationSoftware,KiCad,Pcbnew,7.0.5*
G04 #@! TF.CreationDate,2023-12-17T18:07:01+13:00*
G04 #@! TF.ProjectId,CompactFlash,436f6d70-6163-4744-966c-6173682e6b69,2*
G04 #@! TF.SameCoordinates,Original*
G04 #@! TF.FileFunction,Legend,Top*
G04 #@! TF.FilePolarity,Positive*
%FSLAX46Y46*%
G04 Gerber Fmt 4.6, Leading zero omitted, Abs format (unit mm)*
G04 Created by KiCad (PCBNEW 7.0.5) date 2023-12-17 18:07:01*
%MOMM*%
%LPD*%
G01*
G04 APERTURE LIST*
G04 Aperture macros list*
%AMRoundRect*
0 Rectangle with rounded corners*
0 $1 Rounding radius*
0 $2 $3 $4 $5 $6 $7 $8 $9 X,Y pos of 4 corners*
0 Add a 4 corners polygon primitive as box body*
4,1,4,$2,$3,$4,$5,$6,$7,$8,$9,$2,$3,0*
0 Add four circle primitives for the rounded corners*
1,1,$1+$1,$2,$3*
1,1,$1+$1,$4,$5*
1,1,$1+$1,$6,$7*
1,1,$1+$1,$8,$9*
0 Add four rect primitives between the rounded corners*
20,1,$1+$1,$2,$3,$4,$5,0*
20,1,$1+$1,$4,$5,$6,$7,0*
20,1,$1+$1,$6,$7,$8,$9,0*
20,1,$1+$1,$8,$9,$2,$3,0*%
G04 Aperture macros list end*
%ADD10C,0.150000*%
%ADD11C,0.120000*%
%ADD12C,0.127000*%
%ADD13C,0.200000*%
%ADD14C,1.400000*%
%ADD15O,1.400000X1.400000*%
%ADD16R,1.700000X1.700000*%
%ADD17O,1.700000X1.700000*%
%ADD18RoundRect,0.250000X-0.250000X-0.750000X0.250000X-0.750000X0.250000X0.750000X-0.250000X0.750000X0*%
%ADD19O,1.800000X3.600000*%
%ADD20O,4.200000X2.100000*%
%ADD21C,3.990000*%
%ADD22C,1.700000*%
%ADD23R,4.000000X3.000000*%
%ADD24C,0.800000*%
%ADD25R,3.510000X0.410000*%
%ADD26R,1.600000X1.600000*%
%ADD27O,1.600000X1.600000*%
%ADD28R,1.050000X1.500000*%
%ADD29O,1.050000X1.500000*%
%ADD30R,1.800000X1.800000*%
%ADD31C,1.800000*%
%ADD32RoundRect,0.150000X0.675000X0.150000X-0.675000X0.150000X-0.675000X-0.150000X0.675000X-0.150000X0*%
%ADD33RoundRect,0.250000X0.262500X0.450000X-0.262500X0.450000X-0.262500X-0.450000X0.262500X-0.450000X0*%
%ADD34C,6.000000*%
%ADD35C,0.900000*%
%ADD36R,0.500000X2.500000*%
%ADD37R,2.000000X2.500000*%
%ADD38C,1.500000*%
%ADD39R,1.250000X3.500000*%
%ADD40R,3.500000X2.000000*%
%ADD41C,3.200000*%
%ADD42C,1.600000*%
%ADD43RoundRect,0.250000X-0.250000X-0.475000X0.250000X-0.475000X0.250000X0.475000X-0.250000X0.475000X0*%
G04 APERTURE END LIST*
D10*
X126799244Y-71251549D02*
G75*
G03*
X126799244Y-71251549I-1132794J0D01*
G01*
X165140149Y-63631549D02*
G75*
G03*
X165140149Y-63631549I-1383905J0D01*
G01*
X139514438Y-68711549D02*
G75*
G03*
X139514438Y-68711549I-1132794J0D01*
G01*
X167454438Y-68736949D02*
G75*
G03*
X167454438Y-68736949I-1132794J0D01*
G01*
X119179244Y-71261755D02*
G75*
G03*
X119179244Y-71261755I-1132794J0D01*
G01*
X129339244Y-71251549D02*
G75*
G03*
X129339244Y-71251549I-1132794J0D01*
G01*
X102368457Y-72823168D02*
X102035124Y-72346977D01*
X101797029Y-72823168D02*
X101797029Y-71823168D01*
X101797029Y-71823168D02*
X102177981Y-71823168D01*
X102177981Y-71823168D02*
X102273219Y-71870787D01*
X102273219Y-71870787D02*
X102320838Y-71918406D01*
X102320838Y-71918406D02*
X102368457Y-72013644D01*
X102368457Y-72013644D02*
X102368457Y-72156501D01*
X102368457Y-72156501D02*
X102320838Y-72251739D01*
X102320838Y-72251739D02*
X102273219Y-72299358D01*
X102273219Y-72299358D02*
X102177981Y-72346977D01*
X102177981Y-72346977D02*
X101797029Y-72346977D01*
X102701791Y-71823168D02*
X103368457Y-72823168D01*
X103368457Y-71823168D02*
X102701791Y-72823168D01*
X102000229Y-69546615D02*
X102762134Y-69546615D01*
X102381181Y-69927568D02*
X102381181Y-69165663D01*
X191211391Y-127957168D02*
X191878057Y-127957168D01*
X191878057Y-127957168D02*
X191449486Y-128957168D01*
X192687581Y-128290501D02*
X192687581Y-128957168D01*
X192449486Y-127909549D02*
X192211391Y-128623834D01*
X192211391Y-128623834D02*
X192830438Y-128623834D01*
X193687581Y-128957168D02*
X193211391Y-128957168D01*
X193211391Y-128957168D02*
X193211391Y-127957168D01*
X193973296Y-128909549D02*
X194116153Y-128957168D01*
X194116153Y-128957168D02*
X194354248Y-128957168D01*
X194354248Y-128957168D02*
X194449486Y-128909549D01*
X194449486Y-128909549D02*
X194497105Y-128861929D01*
X194497105Y-128861929D02*
X194544724Y-128766691D01*
X194544724Y-128766691D02*
X194544724Y-128671453D01*
X194544724Y-128671453D02*
X194497105Y-128576215D01*
X194497105Y-128576215D02*
X194449486Y-128528596D01*
X194449486Y-128528596D02*
X194354248Y-128480977D01*
X194354248Y-128480977D02*
X194163772Y-128433358D01*
X194163772Y-128433358D02*
X194068534Y-128385739D01*
X194068534Y-128385739D02*
X194020915Y-128338120D01*
X194020915Y-128338120D02*
X193973296Y-128242882D01*
X193973296Y-128242882D02*
X193973296Y-128147644D01*
X193973296Y-128147644D02*
X194020915Y-128052406D01*
X194020915Y-128052406D02*
X194068534Y-128004787D01*
X194068534Y-128004787D02*
X194163772Y-127957168D01*
X194163772Y-127957168D02*
X194401867Y-127957168D01*
X194401867Y-127957168D02*
X194544724Y-128004787D01*
X195449486Y-127957168D02*
X194973296Y-127957168D01*
X194973296Y-127957168D02*
X194925677Y-128433358D01*
X194925677Y-128433358D02*
X194973296Y-128385739D01*
X194973296Y-128385739D02*
X195068534Y-128338120D01*
X195068534Y-128338120D02*
X195306629Y-128338120D01*
X195306629Y-128338120D02*
X195401867Y-128385739D01*
X195401867Y-128385739D02*
X195449486Y-128433358D01*
X195449486Y-128433358D02*
X195497105Y-128528596D01*
X195497105Y-128528596D02*
X195497105Y-128766691D01*
X195497105Y-128766691D02*
X195449486Y-128861929D01*
X195449486Y-128861929D02*
X195401867Y-128909549D01*
X195401867Y-128909549D02*
X195306629Y-128957168D01*
X195306629Y-128957168D02*
X195068534Y-128957168D01*
X195068534Y-128957168D02*
X194973296Y-128909549D01*
X194973296Y-128909549D02*
X194925677Y-128861929D01*
X196354248Y-128290501D02*
X196354248Y-128957168D01*
X196116153Y-127909549D02*
X195878058Y-128623834D01*
X195878058Y-128623834D02*
X196497105Y-128623834D01*
X197401867Y-128957168D02*
X196830439Y-128957168D01*
X197116153Y-128957168D02*
X197116153Y-127957168D01*
X197116153Y-127957168D02*
X197020915Y-128100025D01*
X197020915Y-128100025D02*
X196925677Y-128195263D01*
X196925677Y-128195263D02*
X196830439Y-128242882D01*
X101755772Y-74312368D02*
X102327200Y-74312368D01*
X102041486Y-75312368D02*
X102041486Y-74312368D01*
X102565296Y-74312368D02*
X103231962Y-75312368D01*
X103231962Y-74312368D02*
X102565296Y-75312368D01*
X102152629Y-77395215D02*
X102914534Y-77395215D01*
X164691983Y-99212968D02*
X164358650Y-98736777D01*
X164120555Y-99212968D02*
X164120555Y-98212968D01*
X164120555Y-98212968D02*
X164501507Y-98212968D01*
X164501507Y-98212968D02*
X164596745Y-98260587D01*
X164596745Y-98260587D02*
X164644364Y-98308206D01*
X164644364Y-98308206D02*
X164691983Y-98403444D01*
X164691983Y-98403444D02*
X164691983Y-98546301D01*
X164691983Y-98546301D02*
X164644364Y-98641539D01*
X164644364Y-98641539D02*
X164596745Y-98689158D01*
X164596745Y-98689158D02*
X164501507Y-98736777D01*
X164501507Y-98736777D02*
X164120555Y-98736777D01*
X165072936Y-98308206D02*
X165120555Y-98260587D01*
X165120555Y-98260587D02*
X165215793Y-98212968D01*
X165215793Y-98212968D02*
X165453888Y-98212968D01*
X165453888Y-98212968D02*
X165549126Y-98260587D01*
X165549126Y-98260587D02*
X165596745Y-98308206D01*
X165596745Y-98308206D02*
X165644364Y-98403444D01*
X165644364Y-98403444D02*
X165644364Y-98498682D01*
X165644364Y-98498682D02*
X165596745Y-98641539D01*
X165596745Y-98641539D02*
X165025317Y-99212968D01*
X165025317Y-99212968D02*
X165644364Y-99212968D01*
X173927096Y-138871309D02*
X174641381Y-138871309D01*
X174641381Y-138871309D02*
X174784238Y-138918928D01*
X174784238Y-138918928D02*
X174879477Y-139014166D01*
X174879477Y-139014166D02*
X174927096Y-139157023D01*
X174927096Y-139157023D02*
X174927096Y-139252261D01*
X174022334Y-138442737D02*
X173974715Y-138395118D01*
X173974715Y-138395118D02*
X173927096Y-138299880D01*
X173927096Y-138299880D02*
X173927096Y-138061785D01*
X173927096Y-138061785D02*
X173974715Y-137966547D01*
X173974715Y-137966547D02*
X174022334Y-137918928D01*
X174022334Y-137918928D02*
X174117572Y-137871309D01*
X174117572Y-137871309D02*
X174212810Y-137871309D01*
X174212810Y-137871309D02*
X174355667Y-137918928D01*
X174355667Y-137918928D02*
X174927096Y-138490356D01*
X174927096Y-138490356D02*
X174927096Y-137871309D01*
X181290869Y-74644015D02*
X180814678Y-74977348D01*
X181290869Y-75215443D02*
X180290869Y-75215443D01*
X180290869Y-75215443D02*
X180290869Y-74834491D01*
X180290869Y-74834491D02*
X180338488Y-74739253D01*
X180338488Y-74739253D02*
X180386107Y-74691634D01*
X180386107Y-74691634D02*
X180481345Y-74644015D01*
X180481345Y-74644015D02*
X180624202Y-74644015D01*
X180624202Y-74644015D02*
X180719440Y-74691634D01*
X180719440Y-74691634D02*
X180767059Y-74739253D01*
X180767059Y-74739253D02*
X180814678Y-74834491D01*
X180814678Y-74834491D02*
X180814678Y-75215443D01*
X180719440Y-74072586D02*
X180671821Y-74167824D01*
X180671821Y-74167824D02*
X180624202Y-74215443D01*
X180624202Y-74215443D02*
X180528964Y-74263062D01*
X180528964Y-74263062D02*
X180481345Y-74263062D01*
X180481345Y-74263062D02*
X180386107Y-74215443D01*
X180386107Y-74215443D02*
X180338488Y-74167824D01*
X180338488Y-74167824D02*
X180290869Y-74072586D01*
X180290869Y-74072586D02*
X180290869Y-73882110D01*
X180290869Y-73882110D02*
X180338488Y-73786872D01*
X180338488Y-73786872D02*
X180386107Y-73739253D01*
X180386107Y-73739253D02*
X180481345Y-73691634D01*
X180481345Y-73691634D02*
X180528964Y-73691634D01*
X180528964Y-73691634D02*
X180624202Y-73739253D01*
X180624202Y-73739253D02*
X180671821Y-73786872D01*
X180671821Y-73786872D02*
X180719440Y-73882110D01*
X180719440Y-73882110D02*
X180719440Y-74072586D01*
X180719440Y-74072586D02*
X180767059Y-74167824D01*
X180767059Y-74167824D02*
X180814678Y-74215443D01*
X180814678Y-74215443D02*
X180909916Y-74263062D01*
X180909916Y-74263062D02*
X181100392Y-74263062D01*
X181100392Y-74263062D02*
X181195630Y-74215443D01*
X181195630Y-74215443D02*
X181243250Y-74167824D01*
X181243250Y-74167824D02*
X181290869Y-74072586D01*
X181290869Y-74072586D02*
X181290869Y-73882110D01*
X181290869Y-73882110D02*
X181243250Y-73786872D01*
X181243250Y-73786872D02*
X181195630Y-73739253D01*
X181195630Y-73739253D02*
X181100392Y-73691634D01*
X181100392Y-73691634D02*
X180909916Y-73691634D01*
X180909916Y-73691634D02*
X180814678Y-73739253D01*
X180814678Y-73739253D02*
X180767059Y-73786872D01*
X180767059Y-73786872D02*
X180719440Y-73882110D01*
X188096516Y-57879368D02*
X188096516Y-58593653D01*
X188096516Y-58593653D02*
X188048897Y-58736510D01*
X188048897Y-58736510D02*
X187953659Y-58831749D01*
X187953659Y-58831749D02*
X187810802Y-58879368D01*
X187810802Y-58879368D02*
X187715564Y-58879368D01*
X189048897Y-57879368D02*
X188572707Y-57879368D01*
X188572707Y-57879368D02*
X188525088Y-58355558D01*
X188525088Y-58355558D02*
X188572707Y-58307939D01*
X188572707Y-58307939D02*
X188667945Y-58260320D01*
X188667945Y-58260320D02*
X188906040Y-58260320D01*
X188906040Y-58260320D02*
X189001278Y-58307939D01*
X189001278Y-58307939D02*
X189048897Y-58355558D01*
X189048897Y-58355558D02*
X189096516Y-58450796D01*
X189096516Y-58450796D02*
X189096516Y-58688891D01*
X189096516Y-58688891D02*
X189048897Y-58784129D01*
X189048897Y-58784129D02*
X189001278Y-58831749D01*
X189001278Y-58831749D02*
X188906040Y-58879368D01*
X188906040Y-58879368D02*
X188667945Y-58879368D01*
X188667945Y-58879368D02*
X188572707Y-58831749D01*
X188572707Y-58831749D02*
X188525088Y-58784129D01*
X125880569Y-104713453D02*
X126690092Y-104713453D01*
X126690092Y-104713453D02*
X126785330Y-104665834D01*
X126785330Y-104665834D02*
X126832950Y-104618215D01*
X126832950Y-104618215D02*
X126880569Y-104522977D01*
X126880569Y-104522977D02*
X126880569Y-104332501D01*
X126880569Y-104332501D02*
X126832950Y-104237263D01*
X126832950Y-104237263D02*
X126785330Y-104189644D01*
X126785330Y-104189644D02*
X126690092Y-104142025D01*
X126690092Y-104142025D02*
X125880569Y-104142025D01*
X126880569Y-103142025D02*
X126880569Y-103713453D01*
X126880569Y-103427739D02*
X125880569Y-103427739D01*
X125880569Y-103427739D02*
X126023426Y-103522977D01*
X126023426Y-103522977D02*
X126118664Y-103618215D01*
X126118664Y-103618215D02*
X126166283Y-103713453D01*
X171203669Y-129087253D02*
X172013192Y-129087253D01*
X172013192Y-129087253D02*
X172108430Y-129039634D01*
X172108430Y-129039634D02*
X172156050Y-128992015D01*
X172156050Y-128992015D02*
X172203669Y-128896777D01*
X172203669Y-128896777D02*
X172203669Y-128706301D01*
X172203669Y-128706301D02*
X172156050Y-128611063D01*
X172156050Y-128611063D02*
X172108430Y-128563444D01*
X172108430Y-128563444D02*
X172013192Y-128515825D01*
X172013192Y-128515825D02*
X171203669Y-128515825D01*
X171298907Y-128087253D02*
X171251288Y-128039634D01*
X171251288Y-128039634D02*
X171203669Y-127944396D01*
X171203669Y-127944396D02*
X171203669Y-127706301D01*
X171203669Y-127706301D02*
X171251288Y-127611063D01*
X171251288Y-127611063D02*
X171298907Y-127563444D01*
X171298907Y-127563444D02*
X171394145Y-127515825D01*
X171394145Y-127515825D02*
X171489383Y-127515825D01*
X171489383Y-127515825D02*
X171632240Y-127563444D01*
X171632240Y-127563444D02*
X172203669Y-128134872D01*
X172203669Y-128134872D02*
X172203669Y-127515825D01*
X186886811Y-64482406D02*
X186791573Y-64434787D01*
X186791573Y-64434787D02*
X186696335Y-64339549D01*
X186696335Y-64339549D02*
X186553478Y-64196691D01*
X186553478Y-64196691D02*
X186458240Y-64149072D01*
X186458240Y-64149072D02*
X186363002Y-64149072D01*
X186410621Y-64387168D02*
X186315383Y-64339549D01*
X186315383Y-64339549D02*
X186220145Y-64244310D01*
X186220145Y-64244310D02*
X186172526Y-64053834D01*
X186172526Y-64053834D02*
X186172526Y-63720501D01*
X186172526Y-63720501D02*
X186220145Y-63530025D01*
X186220145Y-63530025D02*
X186315383Y-63434787D01*
X186315383Y-63434787D02*
X186410621Y-63387168D01*
X186410621Y-63387168D02*
X186601097Y-63387168D01*
X186601097Y-63387168D02*
X186696335Y-63434787D01*
X186696335Y-63434787D02*
X186791573Y-63530025D01*
X186791573Y-63530025D02*
X186839192Y-63720501D01*
X186839192Y-63720501D02*
X186839192Y-64053834D01*
X186839192Y-64053834D02*
X186791573Y-64244310D01*
X186791573Y-64244310D02*
X186696335Y-64339549D01*
X186696335Y-64339549D02*
X186601097Y-64387168D01*
X186601097Y-64387168D02*
X186410621Y-64387168D01*
X187220145Y-63482406D02*
X187267764Y-63434787D01*
X187267764Y-63434787D02*
X187363002Y-63387168D01*
X187363002Y-63387168D02*
X187601097Y-63387168D01*
X187601097Y-63387168D02*
X187696335Y-63434787D01*
X187696335Y-63434787D02*
X187743954Y-63482406D01*
X187743954Y-63482406D02*
X187791573Y-63577644D01*
X187791573Y-63577644D02*
X187791573Y-63672882D01*
X187791573Y-63672882D02*
X187743954Y-63815739D01*
X187743954Y-63815739D02*
X187172526Y-64387168D01*
X187172526Y-64387168D02*
X187791573Y-64387168D01*
X132669955Y-134510768D02*
X132669955Y-133510768D01*
X132669955Y-133510768D02*
X132908050Y-133510768D01*
X132908050Y-133510768D02*
X133050907Y-133558387D01*
X133050907Y-133558387D02*
X133146145Y-133653625D01*
X133146145Y-133653625D02*
X133193764Y-133748863D01*
X133193764Y-133748863D02*
X133241383Y-133939339D01*
X133241383Y-133939339D02*
X133241383Y-134082196D01*
X133241383Y-134082196D02*
X133193764Y-134272672D01*
X133193764Y-134272672D02*
X133146145Y-134367910D01*
X133146145Y-134367910D02*
X133050907Y-134463149D01*
X133050907Y-134463149D02*
X132908050Y-134510768D01*
X132908050Y-134510768D02*
X132669955Y-134510768D01*
X133622336Y-133606006D02*
X133669955Y-133558387D01*
X133669955Y-133558387D02*
X133765193Y-133510768D01*
X133765193Y-133510768D02*
X134003288Y-133510768D01*
X134003288Y-133510768D02*
X134098526Y-133558387D01*
X134098526Y-133558387D02*
X134146145Y-133606006D01*
X134146145Y-133606006D02*
X134193764Y-133701244D01*
X134193764Y-133701244D02*
X134193764Y-133796482D01*
X134193764Y-133796482D02*
X134146145Y-133939339D01*
X134146145Y-133939339D02*
X133574717Y-134510768D01*
X133574717Y-134510768D02*
X134193764Y-134510768D01*
X123391583Y-132334168D02*
X123058250Y-131857977D01*
X122820155Y-132334168D02*
X122820155Y-131334168D01*
X122820155Y-131334168D02*
X123201107Y-131334168D01*
X123201107Y-131334168D02*
X123296345Y-131381787D01*
X123296345Y-131381787D02*
X123343964Y-131429406D01*
X123343964Y-131429406D02*
X123391583Y-131524644D01*
X123391583Y-131524644D02*
X123391583Y-131667501D01*
X123391583Y-131667501D02*
X123343964Y-131762739D01*
X123343964Y-131762739D02*
X123296345Y-131810358D01*
X123296345Y-131810358D02*
X123201107Y-131857977D01*
X123201107Y-131857977D02*
X122820155Y-131857977D01*
X124343964Y-132334168D02*
X123772536Y-132334168D01*
X124058250Y-132334168D02*
X124058250Y-131334168D01*
X124058250Y-131334168D02*
X123963012Y-131477025D01*
X123963012Y-131477025D02*
X123867774Y-131572263D01*
X123867774Y-131572263D02*
X123772536Y-131619882D01*
X161675445Y-59882368D02*
X161675445Y-60691891D01*
X161675445Y-60691891D02*
X161723064Y-60787129D01*
X161723064Y-60787129D02*
X161770683Y-60834749D01*
X161770683Y-60834749D02*
X161865921Y-60882368D01*
X161865921Y-60882368D02*
X162056397Y-60882368D01*
X162056397Y-60882368D02*
X162151635Y-60834749D01*
X162151635Y-60834749D02*
X162199254Y-60787129D01*
X162199254Y-60787129D02*
X162246873Y-60691891D01*
X162246873Y-60691891D02*
X162246873Y-59882368D01*
X162627826Y-59882368D02*
X163246873Y-59882368D01*
X163246873Y-59882368D02*
X162913540Y-60263320D01*
X162913540Y-60263320D02*
X163056397Y-60263320D01*
X163056397Y-60263320D02*
X163151635Y-60310939D01*
X163151635Y-60310939D02*
X163199254Y-60358558D01*
X163199254Y-60358558D02*
X163246873Y-60453796D01*
X163246873Y-60453796D02*
X163246873Y-60691891D01*
X163246873Y-60691891D02*
X163199254Y-60787129D01*
X163199254Y-60787129D02*
X163151635Y-60834749D01*
X163151635Y-60834749D02*
X163056397Y-60882368D01*
X163056397Y-60882368D02*
X162770683Y-60882368D01*
X162770683Y-60882368D02*
X162675445Y-60834749D01*
X162675445Y-60834749D02*
X162627826Y-60787129D01*
X163149955Y-134510768D02*
X163149955Y-133510768D01*
X163149955Y-133510768D02*
X163388050Y-133510768D01*
X163388050Y-133510768D02*
X163530907Y-133558387D01*
X163530907Y-133558387D02*
X163626145Y-133653625D01*
X163626145Y-133653625D02*
X163673764Y-133748863D01*
X163673764Y-133748863D02*
X163721383Y-133939339D01*
X163721383Y-133939339D02*
X163721383Y-134082196D01*
X163721383Y-134082196D02*
X163673764Y-134272672D01*
X163673764Y-134272672D02*
X163626145Y-134367910D01*
X163626145Y-134367910D02*
X163530907Y-134463149D01*
X163530907Y-134463149D02*
X163388050Y-134510768D01*
X163388050Y-134510768D02*
X163149955Y-134510768D01*
X164292812Y-133939339D02*
X164197574Y-133891720D01*
X164197574Y-133891720D02*
X164149955Y-133844101D01*
X164149955Y-133844101D02*
X164102336Y-133748863D01*
X164102336Y-133748863D02*
X164102336Y-133701244D01*
X164102336Y-133701244D02*
X164149955Y-133606006D01*
X164149955Y-133606006D02*
X164197574Y-133558387D01*
X164197574Y-133558387D02*
X164292812Y-133510768D01*
X164292812Y-133510768D02*
X164483288Y-133510768D01*
X164483288Y-133510768D02*
X164578526Y-133558387D01*
X164578526Y-133558387D02*
X164626145Y-133606006D01*
X164626145Y-133606006D02*
X164673764Y-133701244D01*
X164673764Y-133701244D02*
X164673764Y-133748863D01*
X164673764Y-133748863D02*
X164626145Y-133844101D01*
X164626145Y-133844101D02*
X164578526Y-133891720D01*
X164578526Y-133891720D02*
X164483288Y-133939339D01*
X164483288Y-133939339D02*
X164292812Y-133939339D01*
X164292812Y-133939339D02*
X164197574Y-133986958D01*
X164197574Y-133986958D02*
X164149955Y-134034577D01*
X164149955Y-134034577D02*
X164102336Y-134129815D01*
X164102336Y-134129815D02*
X164102336Y-134320291D01*
X164102336Y-134320291D02*
X164149955Y-134415529D01*
X164149955Y-134415529D02*
X164197574Y-134463149D01*
X164197574Y-134463149D02*
X164292812Y-134510768D01*
X164292812Y-134510768D02*
X164483288Y-134510768D01*
X164483288Y-134510768D02*
X164578526Y-134463149D01*
X164578526Y-134463149D02*
X164626145Y-134415529D01*
X164626145Y-134415529D02*
X164673764Y-134320291D01*
X164673764Y-134320291D02*
X164673764Y-134129815D01*
X164673764Y-134129815D02*
X164626145Y-134034577D01*
X164626145Y-134034577D02*
X164578526Y-133986958D01*
X164578526Y-133986958D02*
X164483288Y-133939339D01*
X152904492Y-56720368D02*
X152571159Y-56244177D01*
X152333064Y-56720368D02*
X152333064Y-55720368D01*
X152333064Y-55720368D02*
X152714016Y-55720368D01*
X152714016Y-55720368D02*
X152809254Y-55767987D01*
X152809254Y-55767987D02*
X152856873Y-55815606D01*
X152856873Y-55815606D02*
X152904492Y-55910844D01*
X152904492Y-55910844D02*
X152904492Y-56053701D01*
X152904492Y-56053701D02*
X152856873Y-56148939D01*
X152856873Y-56148939D02*
X152809254Y-56196558D01*
X152809254Y-56196558D02*
X152714016Y-56244177D01*
X152714016Y-56244177D02*
X152333064Y-56244177D01*
X153856873Y-56720368D02*
X153285445Y-56720368D01*
X153571159Y-56720368D02*
X153571159Y-55720368D01*
X153571159Y-55720368D02*
X153475921Y-55863225D01*
X153475921Y-55863225D02*
X153380683Y-55958463D01*
X153380683Y-55958463D02*
X153285445Y-56006082D01*
X154333064Y-56720368D02*
X154523540Y-56720368D01*
X154523540Y-56720368D02*
X154618778Y-56672749D01*
X154618778Y-56672749D02*
X154666397Y-56625129D01*
X154666397Y-56625129D02*
X154761635Y-56482272D01*
X154761635Y-56482272D02*
X154809254Y-56291796D01*
X154809254Y-56291796D02*
X154809254Y-55910844D01*
X154809254Y-55910844D02*
X154761635Y-55815606D01*
X154761635Y-55815606D02*
X154714016Y-55767987D01*
X154714016Y-55767987D02*
X154618778Y-55720368D01*
X154618778Y-55720368D02*
X154428302Y-55720368D01*
X154428302Y-55720368D02*
X154333064Y-55767987D01*
X154333064Y-55767987D02*
X154285445Y-55815606D01*
X154285445Y-55815606D02*
X154237826Y-55910844D01*
X154237826Y-55910844D02*
X154237826Y-56148939D01*
X154237826Y-56148939D02*
X154285445Y-56244177D01*
X154285445Y-56244177D02*
X154333064Y-56291796D01*
X154333064Y-56291796D02*
X154428302Y-56339415D01*
X154428302Y-56339415D02*
X154618778Y-56339415D01*
X154618778Y-56339415D02*
X154714016Y-56291796D01*
X154714016Y-56291796D02*
X154761635Y-56244177D01*
X154761635Y-56244177D02*
X154809254Y-56148939D01*
X157160069Y-129044406D02*
X156683878Y-129377739D01*
X157160069Y-129615834D02*
X156160069Y-129615834D01*
X156160069Y-129615834D02*
X156160069Y-129234882D01*
X156160069Y-129234882D02*
X156207688Y-129139644D01*
X156207688Y-129139644D02*
X156255307Y-129092025D01*
X156255307Y-129092025D02*
X156350545Y-129044406D01*
X156350545Y-129044406D02*
X156493402Y-129044406D01*
X156493402Y-129044406D02*
X156588640Y-129092025D01*
X156588640Y-129092025D02*
X156636259Y-129139644D01*
X156636259Y-129139644D02*
X156683878Y-129234882D01*
X156683878Y-129234882D02*
X156683878Y-129615834D01*
X157160069Y-128092025D02*
X157160069Y-128663453D01*
X157160069Y-128377739D02*
X156160069Y-128377739D01*
X156160069Y-128377739D02*
X156302926Y-128472977D01*
X156302926Y-128472977D02*
X156398164Y-128568215D01*
X156398164Y-128568215D02*
X156445783Y-128663453D01*
X156493402Y-127234882D02*
X157160069Y-127234882D01*
X156112450Y-127472977D02*
X156826735Y-127711072D01*
X156826735Y-127711072D02*
X156826735Y-127092025D01*
X160208069Y-129044406D02*
X159731878Y-129377739D01*
X160208069Y-129615834D02*
X159208069Y-129615834D01*
X159208069Y-129615834D02*
X159208069Y-129234882D01*
X159208069Y-129234882D02*
X159255688Y-129139644D01*
X159255688Y-129139644D02*
X159303307Y-129092025D01*
X159303307Y-129092025D02*
X159398545Y-129044406D01*
X159398545Y-129044406D02*
X159541402Y-129044406D01*
X159541402Y-129044406D02*
X159636640Y-129092025D01*
X159636640Y-129092025D02*
X159684259Y-129139644D01*
X159684259Y-129139644D02*
X159731878Y-129234882D01*
X159731878Y-129234882D02*
X159731878Y-129615834D01*
X160208069Y-128092025D02*
X160208069Y-128663453D01*
X160208069Y-128377739D02*
X159208069Y-128377739D01*
X159208069Y-128377739D02*
X159350926Y-128472977D01*
X159350926Y-128472977D02*
X159446164Y-128568215D01*
X159446164Y-128568215D02*
X159493783Y-128663453D01*
X159208069Y-127187263D02*
X159208069Y-127663453D01*
X159208069Y-127663453D02*
X159684259Y-127711072D01*
X159684259Y-127711072D02*
X159636640Y-127663453D01*
X159636640Y-127663453D02*
X159589021Y-127568215D01*
X159589021Y-127568215D02*
X159589021Y-127330120D01*
X159589021Y-127330120D02*
X159636640Y-127234882D01*
X159636640Y-127234882D02*
X159684259Y-127187263D01*
X159684259Y-127187263D02*
X159779497Y-127139644D01*
X159779497Y-127139644D02*
X160017592Y-127139644D01*
X160017592Y-127139644D02*
X160112830Y-127187263D01*
X160112830Y-127187263D02*
X160160450Y-127234882D01*
X160160450Y-127234882D02*
X160208069Y-127330120D01*
X160208069Y-127330120D02*
X160208069Y-127568215D01*
X160208069Y-127568215D02*
X160160450Y-127663453D01*
X160160450Y-127663453D02*
X160112830Y-127711072D01*
X169733069Y-128790406D02*
X169256878Y-129123739D01*
X169733069Y-129361834D02*
X168733069Y-129361834D01*
X168733069Y-129361834D02*
X168733069Y-128980882D01*
X168733069Y-128980882D02*
X168780688Y-128885644D01*
X168780688Y-128885644D02*
X168828307Y-128838025D01*
X168828307Y-128838025D02*
X168923545Y-128790406D01*
X168923545Y-128790406D02*
X169066402Y-128790406D01*
X169066402Y-128790406D02*
X169161640Y-128838025D01*
X169161640Y-128838025D02*
X169209259Y-128885644D01*
X169209259Y-128885644D02*
X169256878Y-128980882D01*
X169256878Y-128980882D02*
X169256878Y-129361834D01*
X169733069Y-127838025D02*
X169733069Y-128409453D01*
X169733069Y-128123739D02*
X168733069Y-128123739D01*
X168733069Y-128123739D02*
X168875926Y-128218977D01*
X168875926Y-128218977D02*
X168971164Y-128314215D01*
X168971164Y-128314215D02*
X169018783Y-128409453D01*
X169161640Y-127266596D02*
X169114021Y-127361834D01*
X169114021Y-127361834D02*
X169066402Y-127409453D01*
X169066402Y-127409453D02*
X168971164Y-127457072D01*
X168971164Y-127457072D02*
X168923545Y-127457072D01*
X168923545Y-127457072D02*
X168828307Y-127409453D01*
X168828307Y-127409453D02*
X168780688Y-127361834D01*
X168780688Y-127361834D02*
X168733069Y-127266596D01*
X168733069Y-127266596D02*
X168733069Y-127076120D01*
X168733069Y-127076120D02*
X168780688Y-126980882D01*
X168780688Y-126980882D02*
X168828307Y-126933263D01*
X168828307Y-126933263D02*
X168923545Y-126885644D01*
X168923545Y-126885644D02*
X168971164Y-126885644D01*
X168971164Y-126885644D02*
X169066402Y-126933263D01*
X169066402Y-126933263D02*
X169114021Y-126980882D01*
X169114021Y-126980882D02*
X169161640Y-127076120D01*
X169161640Y-127076120D02*
X169161640Y-127266596D01*
X169161640Y-127266596D02*
X169209259Y-127361834D01*
X169209259Y-127361834D02*
X169256878Y-127409453D01*
X169256878Y-127409453D02*
X169352116Y-127457072D01*
X169352116Y-127457072D02*
X169542592Y-127457072D01*
X169542592Y-127457072D02*
X169637830Y-127409453D01*
X169637830Y-127409453D02*
X169685450Y-127361834D01*
X169685450Y-127361834D02*
X169733069Y-127266596D01*
X169733069Y-127266596D02*
X169733069Y-127076120D01*
X169733069Y-127076120D02*
X169685450Y-126980882D01*
X169685450Y-126980882D02*
X169637830Y-126933263D01*
X169637830Y-126933263D02*
X169542592Y-126885644D01*
X169542592Y-126885644D02*
X169352116Y-126885644D01*
X169352116Y-126885644D02*
X169256878Y-126933263D01*
X169256878Y-126933263D02*
X169209259Y-126980882D01*
X169209259Y-126980882D02*
X169161640Y-127076120D01*
X141849916Y-74436368D02*
X141849916Y-75150653D01*
X141849916Y-75150653D02*
X141802297Y-75293510D01*
X141802297Y-75293510D02*
X141707059Y-75388749D01*
X141707059Y-75388749D02*
X141564202Y-75436368D01*
X141564202Y-75436368D02*
X141468964Y-75436368D01*
X142849916Y-75436368D02*
X142278488Y-75436368D01*
X142564202Y-75436368D02*
X142564202Y-74436368D01*
X142564202Y-74436368D02*
X142468964Y-74579225D01*
X142468964Y-74579225D02*
X142373726Y-74674463D01*
X142373726Y-74674463D02*
X142278488Y-74722082D01*
X147635069Y-129044406D02*
X147158878Y-129377739D01*
X147635069Y-129615834D02*
X146635069Y-129615834D01*
X146635069Y-129615834D02*
X146635069Y-129234882D01*
X146635069Y-129234882D02*
X146682688Y-129139644D01*
X146682688Y-129139644D02*
X146730307Y-129092025D01*
X146730307Y-129092025D02*
X146825545Y-129044406D01*
X146825545Y-129044406D02*
X146968402Y-129044406D01*
X146968402Y-129044406D02*
X147063640Y-129092025D01*
X147063640Y-129092025D02*
X147111259Y-129139644D01*
X147111259Y-129139644D02*
X147158878Y-129234882D01*
X147158878Y-129234882D02*
X147158878Y-129615834D01*
X147635069Y-128092025D02*
X147635069Y-128663453D01*
X147635069Y-128377739D02*
X146635069Y-128377739D01*
X146635069Y-128377739D02*
X146777926Y-128472977D01*
X146777926Y-128472977D02*
X146873164Y-128568215D01*
X146873164Y-128568215D02*
X146920783Y-128663453D01*
X147635069Y-127139644D02*
X147635069Y-127711072D01*
X147635069Y-127425358D02*
X146635069Y-127425358D01*
X146635069Y-127425358D02*
X146777926Y-127520596D01*
X146777926Y-127520596D02*
X146873164Y-127615834D01*
X146873164Y-127615834D02*
X146920783Y-127711072D01*
X152989955Y-134510768D02*
X152989955Y-133510768D01*
X152989955Y-133510768D02*
X153228050Y-133510768D01*
X153228050Y-133510768D02*
X153370907Y-133558387D01*
X153370907Y-133558387D02*
X153466145Y-133653625D01*
X153466145Y-133653625D02*
X153513764Y-133748863D01*
X153513764Y-133748863D02*
X153561383Y-133939339D01*
X153561383Y-133939339D02*
X153561383Y-134082196D01*
X153561383Y-134082196D02*
X153513764Y-134272672D01*
X153513764Y-134272672D02*
X153466145Y-134367910D01*
X153466145Y-134367910D02*
X153370907Y-134463149D01*
X153370907Y-134463149D02*
X153228050Y-134510768D01*
X153228050Y-134510768D02*
X152989955Y-134510768D01*
X154418526Y-133510768D02*
X154228050Y-133510768D01*
X154228050Y-133510768D02*
X154132812Y-133558387D01*
X154132812Y-133558387D02*
X154085193Y-133606006D01*
X154085193Y-133606006D02*
X153989955Y-133748863D01*
X153989955Y-133748863D02*
X153942336Y-133939339D01*
X153942336Y-133939339D02*
X153942336Y-134320291D01*
X153942336Y-134320291D02*
X153989955Y-134415529D01*
X153989955Y-134415529D02*
X154037574Y-134463149D01*
X154037574Y-134463149D02*
X154132812Y-134510768D01*
X154132812Y-134510768D02*
X154323288Y-134510768D01*
X154323288Y-134510768D02*
X154418526Y-134463149D01*
X154418526Y-134463149D02*
X154466145Y-134415529D01*
X154466145Y-134415529D02*
X154513764Y-134320291D01*
X154513764Y-134320291D02*
X154513764Y-134082196D01*
X154513764Y-134082196D02*
X154466145Y-133986958D01*
X154466145Y-133986958D02*
X154418526Y-133939339D01*
X154418526Y-133939339D02*
X154323288Y-133891720D01*
X154323288Y-133891720D02*
X154132812Y-133891720D01*
X154132812Y-133891720D02*
X154037574Y-133939339D01*
X154037574Y-133939339D02*
X153989955Y-133986958D01*
X153989955Y-133986958D02*
X153942336Y-134082196D01*
X125380155Y-134510768D02*
X125380155Y-133510768D01*
X125380155Y-133510768D02*
X125618250Y-133510768D01*
X125618250Y-133510768D02*
X125761107Y-133558387D01*
X125761107Y-133558387D02*
X125856345Y-133653625D01*
X125856345Y-133653625D02*
X125903964Y-133748863D01*
X125903964Y-133748863D02*
X125951583Y-133939339D01*
X125951583Y-133939339D02*
X125951583Y-134082196D01*
X125951583Y-134082196D02*
X125903964Y-134272672D01*
X125903964Y-134272672D02*
X125856345Y-134367910D01*
X125856345Y-134367910D02*
X125761107Y-134463149D01*
X125761107Y-134463149D02*
X125618250Y-134510768D01*
X125618250Y-134510768D02*
X125380155Y-134510768D01*
X126903964Y-134510768D02*
X126332536Y-134510768D01*
X126618250Y-134510768D02*
X126618250Y-133510768D01*
X126618250Y-133510768D02*
X126523012Y-133653625D01*
X126523012Y-133653625D02*
X126427774Y-133748863D01*
X126427774Y-133748863D02*
X126332536Y-133796482D01*
X145083183Y-102516168D02*
X144749850Y-102039977D01*
X144511755Y-102516168D02*
X144511755Y-101516168D01*
X144511755Y-101516168D02*
X144892707Y-101516168D01*
X144892707Y-101516168D02*
X144987945Y-101563787D01*
X144987945Y-101563787D02*
X145035564Y-101611406D01*
X145035564Y-101611406D02*
X145083183Y-101706644D01*
X145083183Y-101706644D02*
X145083183Y-101849501D01*
X145083183Y-101849501D02*
X145035564Y-101944739D01*
X145035564Y-101944739D02*
X144987945Y-101992358D01*
X144987945Y-101992358D02*
X144892707Y-102039977D01*
X144892707Y-102039977D02*
X144511755Y-102039977D01*
X145987945Y-101516168D02*
X145511755Y-101516168D01*
X145511755Y-101516168D02*
X145464136Y-101992358D01*
X145464136Y-101992358D02*
X145511755Y-101944739D01*
X145511755Y-101944739D02*
X145606993Y-101897120D01*
X145606993Y-101897120D02*
X145845088Y-101897120D01*
X145845088Y-101897120D02*
X145940326Y-101944739D01*
X145940326Y-101944739D02*
X145987945Y-101992358D01*
X145987945Y-101992358D02*
X146035564Y-102087596D01*
X146035564Y-102087596D02*
X146035564Y-102325691D01*
X146035564Y-102325691D02*
X145987945Y-102420929D01*
X145987945Y-102420929D02*
X145940326Y-102468549D01*
X145940326Y-102468549D02*
X145845088Y-102516168D01*
X145845088Y-102516168D02*
X145606993Y-102516168D01*
X145606993Y-102516168D02*
X145511755Y-102468549D01*
X145511755Y-102468549D02*
X145464136Y-102420929D01*
X142829955Y-134510768D02*
X142829955Y-133510768D01*
X142829955Y-133510768D02*
X143068050Y-133510768D01*
X143068050Y-133510768D02*
X143210907Y-133558387D01*
X143210907Y-133558387D02*
X143306145Y-133653625D01*
X143306145Y-133653625D02*
X143353764Y-133748863D01*
X143353764Y-133748863D02*
X143401383Y-133939339D01*
X143401383Y-133939339D02*
X143401383Y-134082196D01*
X143401383Y-134082196D02*
X143353764Y-134272672D01*
X143353764Y-134272672D02*
X143306145Y-134367910D01*
X143306145Y-134367910D02*
X143210907Y-134463149D01*
X143210907Y-134463149D02*
X143068050Y-134510768D01*
X143068050Y-134510768D02*
X142829955Y-134510768D01*
X144258526Y-133844101D02*
X144258526Y-134510768D01*
X144020431Y-133463149D02*
X143782336Y-134177434D01*
X143782336Y-134177434D02*
X144401383Y-134177434D01*
X196835343Y-114566195D02*
X196835343Y-115280480D01*
X196835343Y-115280480D02*
X196787724Y-115423337D01*
X196787724Y-115423337D02*
X196692486Y-115518576D01*
X196692486Y-115518576D02*
X196549629Y-115566195D01*
X196549629Y-115566195D02*
X196454391Y-115566195D01*
X197740105Y-114899528D02*
X197740105Y-115566195D01*
X197502010Y-114518576D02*
X197263915Y-115232861D01*
X197263915Y-115232861D02*
X197882962Y-115232861D01*
X186268869Y-74614215D02*
X185792678Y-74947548D01*
X186268869Y-75185643D02*
X185268869Y-75185643D01*
X185268869Y-75185643D02*
X185268869Y-74804691D01*
X185268869Y-74804691D02*
X185316488Y-74709453D01*
X185316488Y-74709453D02*
X185364107Y-74661834D01*
X185364107Y-74661834D02*
X185459345Y-74614215D01*
X185459345Y-74614215D02*
X185602202Y-74614215D01*
X185602202Y-74614215D02*
X185697440Y-74661834D01*
X185697440Y-74661834D02*
X185745059Y-74709453D01*
X185745059Y-74709453D02*
X185792678Y-74804691D01*
X185792678Y-74804691D02*
X185792678Y-75185643D01*
X186268869Y-74138024D02*
X186268869Y-73947548D01*
X186268869Y-73947548D02*
X186221250Y-73852310D01*
X186221250Y-73852310D02*
X186173630Y-73804691D01*
X186173630Y-73804691D02*
X186030773Y-73709453D01*
X186030773Y-73709453D02*
X185840297Y-73661834D01*
X185840297Y-73661834D02*
X185459345Y-73661834D01*
X185459345Y-73661834D02*
X185364107Y-73709453D01*
X185364107Y-73709453D02*
X185316488Y-73757072D01*
X185316488Y-73757072D02*
X185268869Y-73852310D01*
X185268869Y-73852310D02*
X185268869Y-74042786D01*
X185268869Y-74042786D02*
X185316488Y-74138024D01*
X185316488Y-74138024D02*
X185364107Y-74185643D01*
X185364107Y-74185643D02*
X185459345Y-74233262D01*
X185459345Y-74233262D02*
X185697440Y-74233262D01*
X185697440Y-74233262D02*
X185792678Y-74185643D01*
X185792678Y-74185643D02*
X185840297Y-74138024D01*
X185840297Y-74138024D02*
X185887916Y-74042786D01*
X185887916Y-74042786D02*
X185887916Y-73852310D01*
X185887916Y-73852310D02*
X185840297Y-73757072D01*
X185840297Y-73757072D02*
X185792678Y-73709453D01*
X185792678Y-73709453D02*
X185697440Y-73661834D01*
X162231016Y-45941368D02*
X162231016Y-46655653D01*
X162231016Y-46655653D02*
X162183397Y-46798510D01*
X162183397Y-46798510D02*
X162088159Y-46893749D01*
X162088159Y-46893749D02*
X161945302Y-46941368D01*
X161945302Y-46941368D02*
X161850064Y-46941368D01*
X163135778Y-45941368D02*
X162945302Y-45941368D01*
X162945302Y-45941368D02*
X162850064Y-45988987D01*
X162850064Y-45988987D02*
X162802445Y-46036606D01*
X162802445Y-46036606D02*
X162707207Y-46179463D01*
X162707207Y-46179463D02*
X162659588Y-46369939D01*
X162659588Y-46369939D02*
X162659588Y-46750891D01*
X162659588Y-46750891D02*
X162707207Y-46846129D01*
X162707207Y-46846129D02*
X162754826Y-46893749D01*
X162754826Y-46893749D02*
X162850064Y-46941368D01*
X162850064Y-46941368D02*
X163040540Y-46941368D01*
X163040540Y-46941368D02*
X163135778Y-46893749D01*
X163135778Y-46893749D02*
X163183397Y-46846129D01*
X163183397Y-46846129D02*
X163231016Y-46750891D01*
X163231016Y-46750891D02*
X163231016Y-46512796D01*
X163231016Y-46512796D02*
X163183397Y-46417558D01*
X163183397Y-46417558D02*
X163135778Y-46369939D01*
X163135778Y-46369939D02*
X163040540Y-46322320D01*
X163040540Y-46322320D02*
X162850064Y-46322320D01*
X162850064Y-46322320D02*
X162754826Y-46369939D01*
X162754826Y-46369939D02*
X162707207Y-46417558D01*
X162707207Y-46417558D02*
X162659588Y-46512796D01*
X174928183Y-98249368D02*
X174594850Y-97773177D01*
X174356755Y-98249368D02*
X174356755Y-97249368D01*
X174356755Y-97249368D02*
X174737707Y-97249368D01*
X174737707Y-97249368D02*
X174832945Y-97296987D01*
X174832945Y-97296987D02*
X174880564Y-97344606D01*
X174880564Y-97344606D02*
X174928183Y-97439844D01*
X174928183Y-97439844D02*
X174928183Y-97582701D01*
X174928183Y-97582701D02*
X174880564Y-97677939D01*
X174880564Y-97677939D02*
X174832945Y-97725558D01*
X174832945Y-97725558D02*
X174737707Y-97773177D01*
X174737707Y-97773177D02*
X174356755Y-97773177D01*
X175785326Y-97249368D02*
X175594850Y-97249368D01*
X175594850Y-97249368D02*
X175499612Y-97296987D01*
X175499612Y-97296987D02*
X175451993Y-97344606D01*
X175451993Y-97344606D02*
X175356755Y-97487463D01*
X175356755Y-97487463D02*
X175309136Y-97677939D01*
X175309136Y-97677939D02*
X175309136Y-98058891D01*
X175309136Y-98058891D02*
X175356755Y-98154129D01*
X175356755Y-98154129D02*
X175404374Y-98201749D01*
X175404374Y-98201749D02*
X175499612Y-98249368D01*
X175499612Y-98249368D02*
X175690088Y-98249368D01*
X175690088Y-98249368D02*
X175785326Y-98201749D01*
X175785326Y-98201749D02*
X175832945Y-98154129D01*
X175832945Y-98154129D02*
X175880564Y-98058891D01*
X175880564Y-98058891D02*
X175880564Y-97820796D01*
X175880564Y-97820796D02*
X175832945Y-97725558D01*
X175832945Y-97725558D02*
X175785326Y-97677939D01*
X175785326Y-97677939D02*
X175690088Y-97630320D01*
X175690088Y-97630320D02*
X175499612Y-97630320D01*
X175499612Y-97630320D02*
X175404374Y-97677939D01*
X175404374Y-97677939D02*
X175356755Y-97725558D01*
X175356755Y-97725558D02*
X175309136Y-97820796D01*
X158069955Y-134510768D02*
X158069955Y-133510768D01*
X158069955Y-133510768D02*
X158308050Y-133510768D01*
X158308050Y-133510768D02*
X158450907Y-133558387D01*
X158450907Y-133558387D02*
X158546145Y-133653625D01*
X158546145Y-133653625D02*
X158593764Y-133748863D01*
X158593764Y-133748863D02*
X158641383Y-133939339D01*
X158641383Y-133939339D02*
X158641383Y-134082196D01*
X158641383Y-134082196D02*
X158593764Y-134272672D01*
X158593764Y-134272672D02*
X158546145Y-134367910D01*
X158546145Y-134367910D02*
X158450907Y-134463149D01*
X158450907Y-134463149D02*
X158308050Y-134510768D01*
X158308050Y-134510768D02*
X158069955Y-134510768D01*
X158974717Y-133510768D02*
X159641383Y-133510768D01*
X159641383Y-133510768D02*
X159212812Y-134510768D01*
X178776669Y-74567815D02*
X178300478Y-74901148D01*
X178776669Y-75139243D02*
X177776669Y-75139243D01*
X177776669Y-75139243D02*
X177776669Y-74758291D01*
X177776669Y-74758291D02*
X177824288Y-74663053D01*
X177824288Y-74663053D02*
X177871907Y-74615434D01*
X177871907Y-74615434D02*
X177967145Y-74567815D01*
X177967145Y-74567815D02*
X178110002Y-74567815D01*
X178110002Y-74567815D02*
X178205240Y-74615434D01*
X178205240Y-74615434D02*
X178252859Y-74663053D01*
X178252859Y-74663053D02*
X178300478Y-74758291D01*
X178300478Y-74758291D02*
X178300478Y-75139243D01*
X177776669Y-74234481D02*
X177776669Y-73567815D01*
X177776669Y-73567815D02*
X178776669Y-73996386D01*
X153985069Y-129171406D02*
X153508878Y-129504739D01*
X153985069Y-129742834D02*
X152985069Y-129742834D01*
X152985069Y-129742834D02*
X152985069Y-129361882D01*
X152985069Y-129361882D02*
X153032688Y-129266644D01*
X153032688Y-129266644D02*
X153080307Y-129219025D01*
X153080307Y-129219025D02*
X153175545Y-129171406D01*
X153175545Y-129171406D02*
X153318402Y-129171406D01*
X153318402Y-129171406D02*
X153413640Y-129219025D01*
X153413640Y-129219025D02*
X153461259Y-129266644D01*
X153461259Y-129266644D02*
X153508878Y-129361882D01*
X153508878Y-129361882D02*
X153508878Y-129742834D01*
X153985069Y-128219025D02*
X153985069Y-128790453D01*
X153985069Y-128504739D02*
X152985069Y-128504739D01*
X152985069Y-128504739D02*
X153127926Y-128599977D01*
X153127926Y-128599977D02*
X153223164Y-128695215D01*
X153223164Y-128695215D02*
X153270783Y-128790453D01*
X152985069Y-127885691D02*
X152985069Y-127266644D01*
X152985069Y-127266644D02*
X153366021Y-127599977D01*
X153366021Y-127599977D02*
X153366021Y-127457120D01*
X153366021Y-127457120D02*
X153413640Y-127361882D01*
X153413640Y-127361882D02*
X153461259Y-127314263D01*
X153461259Y-127314263D02*
X153556497Y-127266644D01*
X153556497Y-127266644D02*
X153794592Y-127266644D01*
X153794592Y-127266644D02*
X153889830Y-127314263D01*
X153889830Y-127314263D02*
X153937450Y-127361882D01*
X153937450Y-127361882D02*
X153985069Y-127457120D01*
X153985069Y-127457120D02*
X153985069Y-127742834D01*
X153985069Y-127742834D02*
X153937450Y-127838072D01*
X153937450Y-127838072D02*
X153889830Y-127885691D01*
X149858383Y-114961368D02*
X149525050Y-114485177D01*
X149286955Y-114961368D02*
X149286955Y-113961368D01*
X149286955Y-113961368D02*
X149667907Y-113961368D01*
X149667907Y-113961368D02*
X149763145Y-114008987D01*
X149763145Y-114008987D02*
X149810764Y-114056606D01*
X149810764Y-114056606D02*
X149858383Y-114151844D01*
X149858383Y-114151844D02*
X149858383Y-114294701D01*
X149858383Y-114294701D02*
X149810764Y-114389939D01*
X149810764Y-114389939D02*
X149763145Y-114437558D01*
X149763145Y-114437558D02*
X149667907Y-114485177D01*
X149667907Y-114485177D02*
X149286955Y-114485177D01*
X150191717Y-113961368D02*
X150810764Y-113961368D01*
X150810764Y-113961368D02*
X150477431Y-114342320D01*
X150477431Y-114342320D02*
X150620288Y-114342320D01*
X150620288Y-114342320D02*
X150715526Y-114389939D01*
X150715526Y-114389939D02*
X150763145Y-114437558D01*
X150763145Y-114437558D02*
X150810764Y-114532796D01*
X150810764Y-114532796D02*
X150810764Y-114770891D01*
X150810764Y-114770891D02*
X150763145Y-114866129D01*
X150763145Y-114866129D02*
X150715526Y-114913749D01*
X150715526Y-114913749D02*
X150620288Y-114961368D01*
X150620288Y-114961368D02*
X150334574Y-114961368D01*
X150334574Y-114961368D02*
X150239336Y-114913749D01*
X150239336Y-114913749D02*
X150191717Y-114866129D01*
X147909955Y-134510768D02*
X147909955Y-133510768D01*
X147909955Y-133510768D02*
X148148050Y-133510768D01*
X148148050Y-133510768D02*
X148290907Y-133558387D01*
X148290907Y-133558387D02*
X148386145Y-133653625D01*
X148386145Y-133653625D02*
X148433764Y-133748863D01*
X148433764Y-133748863D02*
X148481383Y-133939339D01*
X148481383Y-133939339D02*
X148481383Y-134082196D01*
X148481383Y-134082196D02*
X148433764Y-134272672D01*
X148433764Y-134272672D02*
X148386145Y-134367910D01*
X148386145Y-134367910D02*
X148290907Y-134463149D01*
X148290907Y-134463149D02*
X148148050Y-134510768D01*
X148148050Y-134510768D02*
X147909955Y-134510768D01*
X149386145Y-133510768D02*
X148909955Y-133510768D01*
X148909955Y-133510768D02*
X148862336Y-133986958D01*
X148862336Y-133986958D02*
X148909955Y-133939339D01*
X148909955Y-133939339D02*
X149005193Y-133891720D01*
X149005193Y-133891720D02*
X149243288Y-133891720D01*
X149243288Y-133891720D02*
X149338526Y-133939339D01*
X149338526Y-133939339D02*
X149386145Y-133986958D01*
X149386145Y-133986958D02*
X149433764Y-134082196D01*
X149433764Y-134082196D02*
X149433764Y-134320291D01*
X149433764Y-134320291D02*
X149386145Y-134415529D01*
X149386145Y-134415529D02*
X149338526Y-134463149D01*
X149338526Y-134463149D02*
X149243288Y-134510768D01*
X149243288Y-134510768D02*
X149005193Y-134510768D01*
X149005193Y-134510768D02*
X148909955Y-134463149D01*
X148909955Y-134463149D02*
X148862336Y-134415529D01*
X137820383Y-57148644D02*
X137820383Y-57720072D01*
X137820383Y-57720072D02*
X137782288Y-57834358D01*
X137782288Y-57834358D02*
X137706097Y-57910549D01*
X137706097Y-57910549D02*
X137591812Y-57948644D01*
X137591812Y-57948644D02*
X137515621Y-57948644D01*
X138125145Y-57148644D02*
X138620383Y-57148644D01*
X138620383Y-57148644D02*
X138353717Y-57453406D01*
X138353717Y-57453406D02*
X138468002Y-57453406D01*
X138468002Y-57453406D02*
X138544193Y-57491501D01*
X138544193Y-57491501D02*
X138582288Y-57529596D01*
X138582288Y-57529596D02*
X138620383Y-57605787D01*
X138620383Y-57605787D02*
X138620383Y-57796263D01*
X138620383Y-57796263D02*
X138582288Y-57872453D01*
X138582288Y-57872453D02*
X138544193Y-57910549D01*
X138544193Y-57910549D02*
X138468002Y-57948644D01*
X138468002Y-57948644D02*
X138239431Y-57948644D01*
X138239431Y-57948644D02*
X138163240Y-57910549D01*
X138163240Y-57910549D02*
X138125145Y-57872453D01*
X104360353Y-66428995D02*
X104360353Y-67143280D01*
X104360353Y-67143280D02*
X104312734Y-67286137D01*
X104312734Y-67286137D02*
X104217496Y-67381376D01*
X104217496Y-67381376D02*
X104074639Y-67428995D01*
X104074639Y-67428995D02*
X103979401Y-67428995D01*
X105360353Y-67428995D02*
X104788925Y-67428995D01*
X105074639Y-67428995D02*
X105074639Y-66428995D01*
X105074639Y-66428995D02*
X104979401Y-66571852D01*
X104979401Y-66571852D02*
X104884163Y-66667090D01*
X104884163Y-66667090D02*
X104788925Y-66714709D01*
X105979401Y-66428995D02*
X106074639Y-66428995D01*
X106074639Y-66428995D02*
X106169877Y-66476614D01*
X106169877Y-66476614D02*
X106217496Y-66524233D01*
X106217496Y-66524233D02*
X106265115Y-66619471D01*
X106265115Y-66619471D02*
X106312734Y-66809947D01*
X106312734Y-66809947D02*
X106312734Y-67048042D01*
X106312734Y-67048042D02*
X106265115Y-67238518D01*
X106265115Y-67238518D02*
X106217496Y-67333756D01*
X106217496Y-67333756D02*
X106169877Y-67381376D01*
X106169877Y-67381376D02*
X106074639Y-67428995D01*
X106074639Y-67428995D02*
X105979401Y-67428995D01*
X105979401Y-67428995D02*
X105884163Y-67381376D01*
X105884163Y-67381376D02*
X105836544Y-67333756D01*
X105836544Y-67333756D02*
X105788925Y-67238518D01*
X105788925Y-67238518D02*
X105741306Y-67048042D01*
X105741306Y-67048042D02*
X105741306Y-66809947D01*
X105741306Y-66809947D02*
X105788925Y-66619471D01*
X105788925Y-66619471D02*
X105836544Y-66524233D01*
X105836544Y-66524233D02*
X105884163Y-66476614D01*
X105884163Y-66476614D02*
X105979401Y-66428995D01*
X143285183Y-96561329D02*
X143237564Y-96608949D01*
X143237564Y-96608949D02*
X143094707Y-96656568D01*
X143094707Y-96656568D02*
X142999469Y-96656568D01*
X142999469Y-96656568D02*
X142856612Y-96608949D01*
X142856612Y-96608949D02*
X142761374Y-96513710D01*
X142761374Y-96513710D02*
X142713755Y-96418472D01*
X142713755Y-96418472D02*
X142666136Y-96227996D01*
X142666136Y-96227996D02*
X142666136Y-96085139D01*
X142666136Y-96085139D02*
X142713755Y-95894663D01*
X142713755Y-95894663D02*
X142761374Y-95799425D01*
X142761374Y-95799425D02*
X142856612Y-95704187D01*
X142856612Y-95704187D02*
X142999469Y-95656568D01*
X142999469Y-95656568D02*
X143094707Y-95656568D01*
X143094707Y-95656568D02*
X143237564Y-95704187D01*
X143237564Y-95704187D02*
X143285183Y-95751806D01*
X144237564Y-96656568D02*
X143666136Y-96656568D01*
X143951850Y-96656568D02*
X143951850Y-95656568D01*
X143951850Y-95656568D02*
X143856612Y-95799425D01*
X143856612Y-95799425D02*
X143761374Y-95894663D01*
X143761374Y-95894663D02*
X143666136Y-95942282D01*
X153761683Y-58784129D02*
X153714064Y-58831749D01*
X153714064Y-58831749D02*
X153571207Y-58879368D01*
X153571207Y-58879368D02*
X153475969Y-58879368D01*
X153475969Y-58879368D02*
X153333112Y-58831749D01*
X153333112Y-58831749D02*
X153237874Y-58736510D01*
X153237874Y-58736510D02*
X153190255Y-58641272D01*
X153190255Y-58641272D02*
X153142636Y-58450796D01*
X153142636Y-58450796D02*
X153142636Y-58307939D01*
X153142636Y-58307939D02*
X153190255Y-58117463D01*
X153190255Y-58117463D02*
X153237874Y-58022225D01*
X153237874Y-58022225D02*
X153333112Y-57926987D01*
X153333112Y-57926987D02*
X153475969Y-57879368D01*
X153475969Y-57879368D02*
X153571207Y-57879368D01*
X153571207Y-57879368D02*
X153714064Y-57926987D01*
X153714064Y-57926987D02*
X153761683Y-57974606D01*
X154142636Y-57974606D02*
X154190255Y-57926987D01*
X154190255Y-57926987D02*
X154285493Y-57879368D01*
X154285493Y-57879368D02*
X154523588Y-57879368D01*
X154523588Y-57879368D02*
X154618826Y-57926987D01*
X154618826Y-57926987D02*
X154666445Y-57974606D01*
X154666445Y-57974606D02*
X154714064Y-58069844D01*
X154714064Y-58069844D02*
X154714064Y-58165082D01*
X154714064Y-58165082D02*
X154666445Y-58307939D01*
X154666445Y-58307939D02*
X154095017Y-58879368D01*
X154095017Y-58879368D02*
X154714064Y-58879368D01*
X168229955Y-134510768D02*
X168229955Y-133510768D01*
X168229955Y-133510768D02*
X168468050Y-133510768D01*
X168468050Y-133510768D02*
X168610907Y-133558387D01*
X168610907Y-133558387D02*
X168706145Y-133653625D01*
X168706145Y-133653625D02*
X168753764Y-133748863D01*
X168753764Y-133748863D02*
X168801383Y-133939339D01*
X168801383Y-133939339D02*
X168801383Y-134082196D01*
X168801383Y-134082196D02*
X168753764Y-134272672D01*
X168753764Y-134272672D02*
X168706145Y-134367910D01*
X168706145Y-134367910D02*
X168610907Y-134463149D01*
X168610907Y-134463149D02*
X168468050Y-134510768D01*
X168468050Y-134510768D02*
X168229955Y-134510768D01*
X169277574Y-134510768D02*
X169468050Y-134510768D01*
X169468050Y-134510768D02*
X169563288Y-134463149D01*
X169563288Y-134463149D02*
X169610907Y-134415529D01*
X169610907Y-134415529D02*
X169706145Y-134272672D01*
X169706145Y-134272672D02*
X169753764Y-134082196D01*
X169753764Y-134082196D02*
X169753764Y-133701244D01*
X169753764Y-133701244D02*
X169706145Y-133606006D01*
X169706145Y-133606006D02*
X169658526Y-133558387D01*
X169658526Y-133558387D02*
X169563288Y-133510768D01*
X169563288Y-133510768D02*
X169372812Y-133510768D01*
X169372812Y-133510768D02*
X169277574Y-133558387D01*
X169277574Y-133558387D02*
X169229955Y-133606006D01*
X169229955Y-133606006D02*
X169182336Y-133701244D01*
X169182336Y-133701244D02*
X169182336Y-133939339D01*
X169182336Y-133939339D02*
X169229955Y-134034577D01*
X169229955Y-134034577D02*
X169277574Y-134082196D01*
X169277574Y-134082196D02*
X169372812Y-134129815D01*
X169372812Y-134129815D02*
X169563288Y-134129815D01*
X169563288Y-134129815D02*
X169658526Y-134082196D01*
X169658526Y-134082196D02*
X169706145Y-134034577D01*
X169706145Y-134034577D02*
X169753764Y-133939339D01*
X163383069Y-129044406D02*
X162906878Y-129377739D01*
X163383069Y-129615834D02*
X162383069Y-129615834D01*
X162383069Y-129615834D02*
X162383069Y-129234882D01*
X162383069Y-129234882D02*
X162430688Y-129139644D01*
X162430688Y-129139644D02*
X162478307Y-129092025D01*
X162478307Y-129092025D02*
X162573545Y-129044406D01*
X162573545Y-129044406D02*
X162716402Y-129044406D01*
X162716402Y-129044406D02*
X162811640Y-129092025D01*
X162811640Y-129092025D02*
X162859259Y-129139644D01*
X162859259Y-129139644D02*
X162906878Y-129234882D01*
X162906878Y-129234882D02*
X162906878Y-129615834D01*
X163383069Y-128092025D02*
X163383069Y-128663453D01*
X163383069Y-128377739D02*
X162383069Y-128377739D01*
X162383069Y-128377739D02*
X162525926Y-128472977D01*
X162525926Y-128472977D02*
X162621164Y-128568215D01*
X162621164Y-128568215D02*
X162668783Y-128663453D01*
X162383069Y-127234882D02*
X162383069Y-127425358D01*
X162383069Y-127425358D02*
X162430688Y-127520596D01*
X162430688Y-127520596D02*
X162478307Y-127568215D01*
X162478307Y-127568215D02*
X162621164Y-127663453D01*
X162621164Y-127663453D02*
X162811640Y-127711072D01*
X162811640Y-127711072D02*
X163192592Y-127711072D01*
X163192592Y-127711072D02*
X163287830Y-127663453D01*
X163287830Y-127663453D02*
X163335450Y-127615834D01*
X163335450Y-127615834D02*
X163383069Y-127520596D01*
X163383069Y-127520596D02*
X163383069Y-127330120D01*
X163383069Y-127330120D02*
X163335450Y-127234882D01*
X163335450Y-127234882D02*
X163287830Y-127187263D01*
X163287830Y-127187263D02*
X163192592Y-127139644D01*
X163192592Y-127139644D02*
X162954497Y-127139644D01*
X162954497Y-127139644D02*
X162859259Y-127187263D01*
X162859259Y-127187263D02*
X162811640Y-127234882D01*
X162811640Y-127234882D02*
X162764021Y-127330120D01*
X162764021Y-127330120D02*
X162764021Y-127520596D01*
X162764021Y-127520596D02*
X162811640Y-127615834D01*
X162811640Y-127615834D02*
X162859259Y-127663453D01*
X162859259Y-127663453D02*
X162954497Y-127711072D01*
X188783069Y-75115806D02*
X188306878Y-75449139D01*
X188783069Y-75687234D02*
X187783069Y-75687234D01*
X187783069Y-75687234D02*
X187783069Y-75306282D01*
X187783069Y-75306282D02*
X187830688Y-75211044D01*
X187830688Y-75211044D02*
X187878307Y-75163425D01*
X187878307Y-75163425D02*
X187973545Y-75115806D01*
X187973545Y-75115806D02*
X188116402Y-75115806D01*
X188116402Y-75115806D02*
X188211640Y-75163425D01*
X188211640Y-75163425D02*
X188259259Y-75211044D01*
X188259259Y-75211044D02*
X188306878Y-75306282D01*
X188306878Y-75306282D02*
X188306878Y-75687234D01*
X188783069Y-74163425D02*
X188783069Y-74734853D01*
X188783069Y-74449139D02*
X187783069Y-74449139D01*
X187783069Y-74449139D02*
X187925926Y-74544377D01*
X187925926Y-74544377D02*
X188021164Y-74639615D01*
X188021164Y-74639615D02*
X188068783Y-74734853D01*
X187783069Y-73544377D02*
X187783069Y-73449139D01*
X187783069Y-73449139D02*
X187830688Y-73353901D01*
X187830688Y-73353901D02*
X187878307Y-73306282D01*
X187878307Y-73306282D02*
X187973545Y-73258663D01*
X187973545Y-73258663D02*
X188164021Y-73211044D01*
X188164021Y-73211044D02*
X188402116Y-73211044D01*
X188402116Y-73211044D02*
X188592592Y-73258663D01*
X188592592Y-73258663D02*
X188687830Y-73306282D01*
X188687830Y-73306282D02*
X188735450Y-73353901D01*
X188735450Y-73353901D02*
X188783069Y-73449139D01*
X188783069Y-73449139D02*
X188783069Y-73544377D01*
X188783069Y-73544377D02*
X188735450Y-73639615D01*
X188735450Y-73639615D02*
X188687830Y-73687234D01*
X188687830Y-73687234D02*
X188592592Y-73734853D01*
X188592592Y-73734853D02*
X188402116Y-73782472D01*
X188402116Y-73782472D02*
X188164021Y-73782472D01*
X188164021Y-73782472D02*
X187973545Y-73734853D01*
X187973545Y-73734853D02*
X187878307Y-73687234D01*
X187878307Y-73687234D02*
X187830688Y-73639615D01*
X187830688Y-73639615D02*
X187783069Y-73544377D01*
X166558069Y-128790406D02*
X166081878Y-129123739D01*
X166558069Y-129361834D02*
X165558069Y-129361834D01*
X165558069Y-129361834D02*
X165558069Y-128980882D01*
X165558069Y-128980882D02*
X165605688Y-128885644D01*
X165605688Y-128885644D02*
X165653307Y-128838025D01*
X165653307Y-128838025D02*
X165748545Y-128790406D01*
X165748545Y-128790406D02*
X165891402Y-128790406D01*
X165891402Y-128790406D02*
X165986640Y-128838025D01*
X165986640Y-128838025D02*
X166034259Y-128885644D01*
X166034259Y-128885644D02*
X166081878Y-128980882D01*
X166081878Y-128980882D02*
X166081878Y-129361834D01*
X166558069Y-127838025D02*
X166558069Y-128409453D01*
X166558069Y-128123739D02*
X165558069Y-128123739D01*
X165558069Y-128123739D02*
X165700926Y-128218977D01*
X165700926Y-128218977D02*
X165796164Y-128314215D01*
X165796164Y-128314215D02*
X165843783Y-128409453D01*
X165558069Y-127504691D02*
X165558069Y-126838025D01*
X165558069Y-126838025D02*
X166558069Y-127266596D01*
X179419211Y-64431606D02*
X179323973Y-64383987D01*
X179323973Y-64383987D02*
X179228735Y-64288749D01*
X179228735Y-64288749D02*
X179085878Y-64145891D01*
X179085878Y-64145891D02*
X178990640Y-64098272D01*
X178990640Y-64098272D02*
X178895402Y-64098272D01*
X178943021Y-64336368D02*
X178847783Y-64288749D01*
X178847783Y-64288749D02*
X178752545Y-64193510D01*
X178752545Y-64193510D02*
X178704926Y-64003034D01*
X178704926Y-64003034D02*
X178704926Y-63669701D01*
X178704926Y-63669701D02*
X178752545Y-63479225D01*
X178752545Y-63479225D02*
X178847783Y-63383987D01*
X178847783Y-63383987D02*
X178943021Y-63336368D01*
X178943021Y-63336368D02*
X179133497Y-63336368D01*
X179133497Y-63336368D02*
X179228735Y-63383987D01*
X179228735Y-63383987D02*
X179323973Y-63479225D01*
X179323973Y-63479225D02*
X179371592Y-63669701D01*
X179371592Y-63669701D02*
X179371592Y-64003034D01*
X179371592Y-64003034D02*
X179323973Y-64193510D01*
X179323973Y-64193510D02*
X179228735Y-64288749D01*
X179228735Y-64288749D02*
X179133497Y-64336368D01*
X179133497Y-64336368D02*
X178943021Y-64336368D01*
X180323973Y-64336368D02*
X179752545Y-64336368D01*
X180038259Y-64336368D02*
X180038259Y-63336368D01*
X180038259Y-63336368D02*
X179943021Y-63479225D01*
X179943021Y-63479225D02*
X179847783Y-63574463D01*
X179847783Y-63574463D02*
X179752545Y-63622082D01*
X149909183Y-112370968D02*
X149575850Y-111894777D01*
X149337755Y-112370968D02*
X149337755Y-111370968D01*
X149337755Y-111370968D02*
X149718707Y-111370968D01*
X149718707Y-111370968D02*
X149813945Y-111418587D01*
X149813945Y-111418587D02*
X149861564Y-111466206D01*
X149861564Y-111466206D02*
X149909183Y-111561444D01*
X149909183Y-111561444D02*
X149909183Y-111704301D01*
X149909183Y-111704301D02*
X149861564Y-111799539D01*
X149861564Y-111799539D02*
X149813945Y-111847158D01*
X149813945Y-111847158D02*
X149718707Y-111894777D01*
X149718707Y-111894777D02*
X149337755Y-111894777D01*
X150766326Y-111704301D02*
X150766326Y-112370968D01*
X150528231Y-111323349D02*
X150290136Y-112037634D01*
X150290136Y-112037634D02*
X150909183Y-112037634D01*
X150810069Y-129044406D02*
X150333878Y-129377739D01*
X150810069Y-129615834D02*
X149810069Y-129615834D01*
X149810069Y-129615834D02*
X149810069Y-129234882D01*
X149810069Y-129234882D02*
X149857688Y-129139644D01*
X149857688Y-129139644D02*
X149905307Y-129092025D01*
X149905307Y-129092025D02*
X150000545Y-129044406D01*
X150000545Y-129044406D02*
X150143402Y-129044406D01*
X150143402Y-129044406D02*
X150238640Y-129092025D01*
X150238640Y-129092025D02*
X150286259Y-129139644D01*
X150286259Y-129139644D02*
X150333878Y-129234882D01*
X150333878Y-129234882D02*
X150333878Y-129615834D01*
X150810069Y-128092025D02*
X150810069Y-128663453D01*
X150810069Y-128377739D02*
X149810069Y-128377739D01*
X149810069Y-128377739D02*
X149952926Y-128472977D01*
X149952926Y-128472977D02*
X150048164Y-128568215D01*
X150048164Y-128568215D02*
X150095783Y-128663453D01*
X149905307Y-127711072D02*
X149857688Y-127663453D01*
X149857688Y-127663453D02*
X149810069Y-127568215D01*
X149810069Y-127568215D02*
X149810069Y-127330120D01*
X149810069Y-127330120D02*
X149857688Y-127234882D01*
X149857688Y-127234882D02*
X149905307Y-127187263D01*
X149905307Y-127187263D02*
X150000545Y-127139644D01*
X150000545Y-127139644D02*
X150095783Y-127139644D01*
X150095783Y-127139644D02*
X150238640Y-127187263D01*
X150238640Y-127187263D02*
X150810069Y-127758691D01*
X150810069Y-127758691D02*
X150810069Y-127139644D01*
X152904492Y-54815368D02*
X152571159Y-54339177D01*
X152333064Y-54815368D02*
X152333064Y-53815368D01*
X152333064Y-53815368D02*
X152714016Y-53815368D01*
X152714016Y-53815368D02*
X152809254Y-53862987D01*
X152809254Y-53862987D02*
X152856873Y-53910606D01*
X152856873Y-53910606D02*
X152904492Y-54005844D01*
X152904492Y-54005844D02*
X152904492Y-54148701D01*
X152904492Y-54148701D02*
X152856873Y-54243939D01*
X152856873Y-54243939D02*
X152809254Y-54291558D01*
X152809254Y-54291558D02*
X152714016Y-54339177D01*
X152714016Y-54339177D02*
X152333064Y-54339177D01*
X153285445Y-53910606D02*
X153333064Y-53862987D01*
X153333064Y-53862987D02*
X153428302Y-53815368D01*
X153428302Y-53815368D02*
X153666397Y-53815368D01*
X153666397Y-53815368D02*
X153761635Y-53862987D01*
X153761635Y-53862987D02*
X153809254Y-53910606D01*
X153809254Y-53910606D02*
X153856873Y-54005844D01*
X153856873Y-54005844D02*
X153856873Y-54101082D01*
X153856873Y-54101082D02*
X153809254Y-54243939D01*
X153809254Y-54243939D02*
X153237826Y-54815368D01*
X153237826Y-54815368D02*
X153856873Y-54815368D01*
X154475921Y-53815368D02*
X154571159Y-53815368D01*
X154571159Y-53815368D02*
X154666397Y-53862987D01*
X154666397Y-53862987D02*
X154714016Y-53910606D01*
X154714016Y-53910606D02*
X154761635Y-54005844D01*
X154761635Y-54005844D02*
X154809254Y-54196320D01*
X154809254Y-54196320D02*
X154809254Y-54434415D01*
X154809254Y-54434415D02*
X154761635Y-54624891D01*
X154761635Y-54624891D02*
X154714016Y-54720129D01*
X154714016Y-54720129D02*
X154666397Y-54767749D01*
X154666397Y-54767749D02*
X154571159Y-54815368D01*
X154571159Y-54815368D02*
X154475921Y-54815368D01*
X154475921Y-54815368D02*
X154380683Y-54767749D01*
X154380683Y-54767749D02*
X154333064Y-54720129D01*
X154333064Y-54720129D02*
X154285445Y-54624891D01*
X154285445Y-54624891D02*
X154237826Y-54434415D01*
X154237826Y-54434415D02*
X154237826Y-54196320D01*
X154237826Y-54196320D02*
X154285445Y-54005844D01*
X154285445Y-54005844D02*
X154333064Y-53910606D01*
X154333064Y-53910606D02*
X154380683Y-53862987D01*
X154380683Y-53862987D02*
X154475921Y-53815368D01*
X137749955Y-134510768D02*
X137749955Y-133510768D01*
X137749955Y-133510768D02*
X137988050Y-133510768D01*
X137988050Y-133510768D02*
X138130907Y-133558387D01*
X138130907Y-133558387D02*
X138226145Y-133653625D01*
X138226145Y-133653625D02*
X138273764Y-133748863D01*
X138273764Y-133748863D02*
X138321383Y-133939339D01*
X138321383Y-133939339D02*
X138321383Y-134082196D01*
X138321383Y-134082196D02*
X138273764Y-134272672D01*
X138273764Y-134272672D02*
X138226145Y-134367910D01*
X138226145Y-134367910D02*
X138130907Y-134463149D01*
X138130907Y-134463149D02*
X137988050Y-134510768D01*
X137988050Y-134510768D02*
X137749955Y-134510768D01*
X138654717Y-133510768D02*
X139273764Y-133510768D01*
X139273764Y-133510768D02*
X138940431Y-133891720D01*
X138940431Y-133891720D02*
X139083288Y-133891720D01*
X139083288Y-133891720D02*
X139178526Y-133939339D01*
X139178526Y-133939339D02*
X139226145Y-133986958D01*
X139226145Y-133986958D02*
X139273764Y-134082196D01*
X139273764Y-134082196D02*
X139273764Y-134320291D01*
X139273764Y-134320291D02*
X139226145Y-134415529D01*
X139226145Y-134415529D02*
X139178526Y-134463149D01*
X139178526Y-134463149D02*
X139083288Y-134510768D01*
X139083288Y-134510768D02*
X138797574Y-134510768D01*
X138797574Y-134510768D02*
X138702336Y-134463149D01*
X138702336Y-134463149D02*
X138654717Y-134415529D01*
D11*
X167728650Y-98759749D02*
X166778650Y-98759749D01*
X166778650Y-99679749D02*
X166778650Y-97839749D01*
X166778650Y-97839749D02*
X162938650Y-97839749D01*
X162938650Y-99679749D02*
X166778650Y-99679749D01*
X162938650Y-97839749D02*
X162938650Y-99679749D01*
X161988650Y-98759749D02*
X162938650Y-98759749D01*
X175472277Y-141137976D02*
X175472277Y-139807976D01*
X176802277Y-141137976D02*
X175472277Y-141137976D01*
X178072277Y-141137976D02*
X190832277Y-141137976D01*
X178072277Y-141137976D02*
X178072277Y-138537976D01*
X190832277Y-141137976D02*
X190832277Y-135937976D01*
X175472277Y-138537976D02*
X175472277Y-135937976D01*
X178072277Y-138537976D02*
X175472277Y-138537976D01*
X175472277Y-135937976D02*
X190832277Y-135937976D01*
X180784450Y-77321949D02*
X180784450Y-76371949D01*
X179864450Y-76371949D02*
X181704450Y-76371949D01*
X181704450Y-76371949D02*
X181704450Y-72531949D01*
X179864450Y-72531949D02*
X179864450Y-76371949D01*
X181704450Y-72531949D02*
X179864450Y-72531949D01*
X180784450Y-71581949D02*
X180784450Y-72531949D01*
D12*
X187258877Y-63020176D02*
X187258877Y-53020176D01*
X187258877Y-53020176D02*
X177258877Y-53020176D01*
X177258877Y-63020176D02*
X187258877Y-63020176D01*
X177258877Y-53020176D02*
X177258877Y-63020176D01*
D13*
X188108877Y-57020176D02*
G75*
G03*
X188108877Y-57020176I-100000J0D01*
G01*
D11*
X139495750Y-88641549D02*
X138995750Y-88391549D01*
X139495750Y-88141549D02*
X139495750Y-88641549D01*
X138995750Y-88391549D02*
X139495750Y-88141549D01*
X138165750Y-121371549D02*
X136285750Y-121371549D01*
X138165750Y-120361549D02*
X138165750Y-121371549D01*
X138165750Y-87541549D02*
X132555750Y-87541549D01*
X138165750Y-86531549D02*
X138165750Y-87541549D01*
X136285750Y-126431549D02*
X133925750Y-126431549D01*
X136285750Y-121371549D02*
X136285750Y-126431549D01*
X136285750Y-86531549D02*
X138165750Y-86531549D01*
X136285750Y-81471549D02*
X136285750Y-86531549D01*
X133925750Y-81471549D02*
X136285750Y-81471549D01*
X132555750Y-120361549D02*
X138165750Y-120361549D01*
X132555750Y-87541549D02*
X132555750Y-120361549D01*
X129327750Y-124525549D02*
X110023750Y-124525549D01*
X129327750Y-83401549D02*
X129327750Y-124525549D01*
X128235750Y-81471549D02*
X118151750Y-81471549D01*
X121345750Y-125541549D02*
X114995750Y-125541549D01*
X121345750Y-82361549D02*
X114995750Y-82361549D01*
X118024750Y-126431549D02*
X128235750Y-126431549D01*
X113725750Y-125541549D02*
X111825750Y-125541549D01*
X113725750Y-82361549D02*
X111825750Y-82361549D01*
X113071750Y-126430549D02*
X110023750Y-126430549D01*
X110555750Y-125541549D02*
X104205750Y-125541549D01*
X110555750Y-82361549D02*
X104205750Y-82361549D01*
X110023750Y-124525549D02*
X110023750Y-126430549D01*
X110023750Y-83401549D02*
X129245750Y-83401549D01*
X110023750Y-81471549D02*
X113198750Y-81472549D01*
X110023750Y-81471549D02*
X110023750Y-83401549D01*
X102935750Y-125541549D02*
X101025750Y-125541549D01*
X102935750Y-82361549D02*
X101025750Y-82361549D01*
X99755750Y-125541549D02*
X92775750Y-125541549D01*
X99755750Y-82361549D02*
X92775750Y-82361549D01*
X92775750Y-122361549D02*
X92775750Y-124271549D01*
X92775750Y-114741549D02*
X92775750Y-121091549D01*
X92775750Y-111571549D02*
X92775750Y-113481549D01*
X92775750Y-103951549D02*
X92775750Y-110301549D01*
X92775750Y-100781549D02*
X92775750Y-102681549D01*
X92775750Y-93161549D02*
X92775750Y-99501549D01*
X92775750Y-89981549D02*
X92775750Y-91891549D01*
X92775750Y-82361549D02*
X92775750Y-88711549D01*
X172748850Y-130975349D02*
X198268850Y-130975349D01*
X198268850Y-130975349D02*
X198268850Y-125675349D01*
X172748850Y-129325349D02*
X172748850Y-130975349D01*
X172748850Y-125675349D02*
X172748850Y-127325349D01*
X198268850Y-125675349D02*
X172748850Y-125675349D01*
X172748850Y-129325349D02*
G75*
G03*
X172748850Y-127325349I0J1000000D01*
G01*
X185182050Y-69342349D02*
X188782050Y-69342349D01*
X186982050Y-64892349D02*
G75*
G03*
X185143572Y-69330827I0J-2600000D01*
G01*
X188820528Y-69330827D02*
G75*
G03*
X186982050Y-64892349I-1838478J1838478D01*
G01*
X131848050Y-137225949D02*
X131848050Y-141085949D01*
X131848050Y-137225949D02*
X134968050Y-137225949D01*
X132138050Y-137095949D02*
X132138050Y-137095949D01*
X132138050Y-137095949D02*
X132138050Y-137225949D01*
X132138050Y-137225949D02*
X132138050Y-137095949D01*
X132138050Y-137225949D02*
X132138050Y-137225949D01*
X134678050Y-137095949D02*
X134678050Y-137095949D01*
X134678050Y-137095949D02*
X134678050Y-137225949D01*
X134678050Y-137225949D02*
X134678050Y-137095949D01*
X134678050Y-137225949D02*
X134678050Y-137225949D01*
X134968050Y-137225949D02*
X134968050Y-141085949D01*
X134968050Y-137225949D02*
X135368050Y-137225949D01*
X134968050Y-138345949D02*
X134968050Y-137225949D01*
X135368050Y-137225949D02*
X135368050Y-138345949D01*
X135368050Y-138345949D02*
X134968050Y-138345949D01*
X131848050Y-141085949D02*
G75*
G03*
X134968050Y-141085949I1560000J0D01*
G01*
X126529850Y-131830549D02*
X125579850Y-131830549D01*
X125579850Y-132750549D02*
X125579850Y-130910549D01*
X125579850Y-130910549D02*
X121739850Y-130910549D01*
X121739850Y-132750549D02*
X125579850Y-132750549D01*
X121739850Y-130910549D02*
X121739850Y-132750549D01*
X120789850Y-131830549D02*
X121739850Y-131830549D01*
X162437350Y-59587549D02*
X165887350Y-59587549D01*
X162437350Y-59587549D02*
X160487350Y-59587549D01*
X162437350Y-54467549D02*
X164387350Y-54467549D01*
X162437350Y-54467549D02*
X160487350Y-54467549D01*
X162328050Y-137225949D02*
X162328050Y-141085949D01*
X162328050Y-137225949D02*
X165448050Y-137225949D01*
X162618050Y-137095949D02*
X162618050Y-137095949D01*
X162618050Y-137095949D02*
X162618050Y-137225949D01*
X162618050Y-137225949D02*
X162618050Y-137095949D01*
X162618050Y-137225949D02*
X162618050Y-137225949D01*
X165158050Y-137095949D02*
X165158050Y-137095949D01*
X165158050Y-137095949D02*
X165158050Y-137225949D01*
X165158050Y-137225949D02*
X165158050Y-137095949D01*
X165158050Y-137225949D02*
X165158050Y-137225949D01*
X165448050Y-137225949D02*
X165448050Y-141085949D01*
X165448050Y-137225949D02*
X165848050Y-137225949D01*
X165448050Y-138345949D02*
X165448050Y-137225949D01*
X165848050Y-137225949D02*
X165848050Y-138345949D01*
X165848050Y-138345949D02*
X165448050Y-138345949D01*
X162328050Y-141085949D02*
G75*
G03*
X165448050Y-141085949I1560000J0D01*
G01*
X157052914Y-57000549D02*
X156598786Y-57000549D01*
X157052914Y-55530549D02*
X156598786Y-55530549D01*
X156652850Y-131271549D02*
X156652850Y-130321549D01*
X155732850Y-130321549D02*
X157572850Y-130321549D01*
X157572850Y-130321549D02*
X157572850Y-126481549D01*
X155732850Y-126481549D02*
X155732850Y-130321549D01*
X157572850Y-126481549D02*
X155732850Y-126481549D01*
X156652850Y-125531549D02*
X156652850Y-126481549D01*
X159802850Y-131271549D02*
X159802850Y-130321549D01*
X158882850Y-130321549D02*
X160722850Y-130321549D01*
X160722850Y-130321549D02*
X160722850Y-126481549D01*
X158882850Y-126481549D02*
X158882850Y-130321549D01*
X160722850Y-126481549D02*
X158882850Y-126481549D01*
X159802850Y-125531549D02*
X159802850Y-126481549D01*
X169252850Y-131271549D02*
X169252850Y-130321549D01*
X168332850Y-130321549D02*
X170172850Y-130321549D01*
X170172850Y-130321549D02*
X170172850Y-126481549D01*
X168332850Y-126481549D02*
X168332850Y-130321549D01*
X170172850Y-126481549D02*
X168332850Y-126481549D01*
X169252850Y-125531549D02*
X169252850Y-126481549D01*
X171683250Y-73541549D02*
X112683250Y-73541549D01*
X116723250Y-72581549D02*
X167643250Y-72581549D01*
X116723250Y-72581549D02*
X116723250Y-69981549D01*
X167643250Y-72581549D02*
X167643250Y-67381549D01*
X109623250Y-70481549D02*
X109623250Y-46481549D01*
X116723250Y-69981549D02*
X119323250Y-69981549D01*
X119323250Y-69981549D02*
X119323250Y-67381549D01*
X116723250Y-68711549D02*
X116723250Y-67381549D01*
X116723250Y-67381549D02*
X118053250Y-67381549D01*
X119323250Y-67381549D02*
X167643250Y-67381549D01*
X174743250Y-67041549D02*
X174743250Y-70481549D01*
X174743250Y-67041549D02*
X175943250Y-67041549D01*
X175943250Y-67041549D02*
X175943250Y-49921549D01*
X174743250Y-49921549D02*
X174743250Y-46481549D01*
X175943250Y-49921549D02*
X174743250Y-49921549D01*
X116373250Y-43421549D02*
X112683250Y-43421549D01*
X127793250Y-43421549D02*
X127793250Y-42721549D01*
X147023250Y-43421549D02*
X127793250Y-43421549D01*
X155143250Y-43421549D02*
X155143250Y-41621549D01*
X159623250Y-43421549D02*
X155143250Y-43421549D01*
X167743250Y-43421549D02*
X167743250Y-41621549D01*
X171683250Y-43421549D02*
X167743250Y-43421549D01*
X116373250Y-42721549D02*
X116373250Y-43421549D01*
X127793250Y-42721549D02*
X116373250Y-42721549D01*
X147023250Y-41621549D02*
X147023250Y-43421549D01*
X155143250Y-41621549D02*
X147023250Y-41621549D01*
X159623250Y-41621549D02*
X159623250Y-43421549D01*
X167743250Y-41621549D02*
X159623250Y-41621549D01*
X109623250Y-70481549D02*
G75*
G03*
X112683250Y-73541549I3059999J-1D01*
G01*
X171683250Y-73541549D02*
G75*
G03*
X174743250Y-70481549I1J3059999D01*
G01*
X112683250Y-43421549D02*
G75*
G03*
X109623250Y-46481549I0J-3060000D01*
G01*
X174743250Y-46481549D02*
G75*
G03*
X171683250Y-43421549I-3060000J0D01*
G01*
X147202850Y-131271549D02*
X147202850Y-130321549D01*
X146282850Y-130321549D02*
X148122850Y-130321549D01*
X148122850Y-130321549D02*
X148122850Y-126481549D01*
X146282850Y-126481549D02*
X146282850Y-130321549D01*
X148122850Y-126481549D02*
X146282850Y-126481549D01*
X147202850Y-125531549D02*
X147202850Y-126481549D01*
X152168050Y-137225949D02*
X152168050Y-141085949D01*
X152168050Y-137225949D02*
X155288050Y-137225949D01*
X152458050Y-137095949D02*
X152458050Y-137095949D01*
X152458050Y-137095949D02*
X152458050Y-137225949D01*
X152458050Y-137225949D02*
X152458050Y-137095949D01*
X152458050Y-137225949D02*
X152458050Y-137225949D01*
X154998050Y-137095949D02*
X154998050Y-137095949D01*
X154998050Y-137095949D02*
X154998050Y-137225949D01*
X154998050Y-137225949D02*
X154998050Y-137095949D01*
X154998050Y-137225949D02*
X154998050Y-137225949D01*
X155288050Y-137225949D02*
X155288050Y-141085949D01*
X155288050Y-137225949D02*
X155688050Y-137225949D01*
X155288050Y-138345949D02*
X155288050Y-137225949D01*
X155688050Y-137225949D02*
X155688050Y-138345949D01*
X155688050Y-138345949D02*
X155288050Y-138345949D01*
X152168050Y-141085949D02*
G75*
G03*
X155288050Y-141085949I1560000J0D01*
G01*
X124558250Y-137225949D02*
X124558250Y-141085949D01*
X124558250Y-137225949D02*
X127678250Y-137225949D01*
X124848250Y-137095949D02*
X124848250Y-137095949D01*
X124848250Y-137095949D02*
X124848250Y-137225949D01*
X124848250Y-137225949D02*
X124848250Y-137095949D01*
X124848250Y-137225949D02*
X124848250Y-137225949D01*
X127388250Y-137095949D02*
X127388250Y-137095949D01*
X127388250Y-137095949D02*
X127388250Y-137225949D01*
X127388250Y-137225949D02*
X127388250Y-137095949D01*
X127388250Y-137225949D02*
X127388250Y-137225949D01*
X127678250Y-137225949D02*
X127678250Y-141085949D01*
X127678250Y-137225949D02*
X128078250Y-137225949D01*
X127678250Y-138345949D02*
X127678250Y-137225949D01*
X128078250Y-137225949D02*
X128078250Y-138345949D01*
X128078250Y-138345949D02*
X127678250Y-138345949D01*
X124558250Y-141085949D02*
G75*
G03*
X127678250Y-141085949I1560000J0D01*
G01*
X148119850Y-102061749D02*
X147169850Y-102061749D01*
X147169850Y-102981749D02*
X147169850Y-101141749D01*
X147169850Y-101141749D02*
X143329850Y-101141749D01*
X143329850Y-102981749D02*
X147169850Y-102981749D01*
X143329850Y-101141749D02*
X143329850Y-102981749D01*
X142379850Y-102061749D02*
X143329850Y-102061749D01*
X142008050Y-137225949D02*
X142008050Y-141085949D01*
X142008050Y-137225949D02*
X145128050Y-137225949D01*
X142298050Y-137095949D02*
X142298050Y-137095949D01*
X142298050Y-137095949D02*
X142298050Y-137225949D01*
X142298050Y-137225949D02*
X142298050Y-137095949D01*
X142298050Y-137225949D02*
X142298050Y-137225949D01*
X144838050Y-137095949D02*
X144838050Y-137095949D01*
X144838050Y-137095949D02*
X144838050Y-137225949D01*
X144838050Y-137225949D02*
X144838050Y-137095949D01*
X144838050Y-137225949D02*
X144838050Y-137225949D01*
X145128050Y-137225949D02*
X145128050Y-141085949D01*
X145128050Y-137225949D02*
X145528050Y-137225949D01*
X145128050Y-138345949D02*
X145128050Y-137225949D01*
X145528050Y-137225949D02*
X145528050Y-138345949D01*
X145528050Y-138345949D02*
X145128050Y-138345949D01*
X142008050Y-141085949D02*
G75*
G03*
X145128050Y-141085949I1560000J0D01*
G01*
X199768677Y-113671376D02*
X199768677Y-72911376D01*
X199768677Y-113671376D02*
X197168677Y-113671376D01*
X199768677Y-72911376D02*
X194568677Y-72911376D01*
X197168677Y-113671376D02*
X197168677Y-111071376D01*
X197168677Y-111071376D02*
X194568677Y-111071376D01*
X195898677Y-113671376D02*
X194568677Y-113671376D01*
X194568677Y-113671376D02*
X194568677Y-112341376D01*
X194568677Y-111071376D02*
X194568677Y-72911376D01*
X185762850Y-77317549D02*
X185762850Y-76367549D01*
X184842850Y-76367549D02*
X186682850Y-76367549D01*
X186682850Y-76367549D02*
X186682850Y-72527549D01*
X184842850Y-72527549D02*
X184842850Y-76367549D01*
X186682850Y-72527549D02*
X184842850Y-72527549D01*
X185762850Y-71577549D02*
X185762850Y-72527549D01*
X166524350Y-46687549D02*
X166524350Y-49287549D01*
X166524350Y-43787549D02*
X166524350Y-42127549D01*
X166524350Y-42127549D02*
X158604350Y-42127549D01*
X165764350Y-51597549D02*
X164614350Y-51597549D01*
X164614350Y-52187549D02*
X163914350Y-52187549D01*
X164614350Y-51597549D02*
X164614350Y-52187549D01*
X160514350Y-51597549D02*
X159364350Y-51597549D01*
X158604350Y-49287549D02*
X158604350Y-46687549D01*
X158604350Y-42127549D02*
X158604350Y-43787549D01*
X177964850Y-97794549D02*
X177014850Y-97794549D01*
X177014850Y-98714549D02*
X177014850Y-96874549D01*
X177014850Y-96874549D02*
X173174850Y-96874549D01*
X173174850Y-98714549D02*
X177014850Y-98714549D01*
X173174850Y-96874549D02*
X173174850Y-98714549D01*
X172224850Y-97794549D02*
X173174850Y-97794549D01*
X157248050Y-137225949D02*
X157248050Y-141085949D01*
X157248050Y-137225949D02*
X160368050Y-137225949D01*
X157538050Y-137095949D02*
X157538050Y-137095949D01*
X157538050Y-137095949D02*
X157538050Y-137225949D01*
X157538050Y-137225949D02*
X157538050Y-137095949D01*
X157538050Y-137225949D02*
X157538050Y-137225949D01*
X160078050Y-137095949D02*
X160078050Y-137095949D01*
X160078050Y-137095949D02*
X160078050Y-137225949D01*
X160078050Y-137225949D02*
X160078050Y-137095949D01*
X160078050Y-137225949D02*
X160078050Y-137225949D01*
X160368050Y-137225949D02*
X160368050Y-141085949D01*
X160368050Y-137225949D02*
X160768050Y-137225949D01*
X160368050Y-138345949D02*
X160368050Y-137225949D01*
X160768050Y-137225949D02*
X160768050Y-138345949D01*
X160768050Y-138345949D02*
X160368050Y-138345949D01*
X157248050Y-141085949D02*
G75*
G03*
X160368050Y-141085949I1560000J0D01*
G01*
X178244450Y-77347349D02*
X178244450Y-76397349D01*
X177324450Y-76397349D02*
X179164450Y-76397349D01*
X179164450Y-76397349D02*
X179164450Y-72557349D01*
X177324450Y-72557349D02*
X177324450Y-76397349D01*
X179164450Y-72557349D02*
X177324450Y-72557349D01*
X178244450Y-71607349D02*
X178244450Y-72557349D01*
X153502850Y-131271549D02*
X153502850Y-130321549D01*
X152582850Y-130321549D02*
X154422850Y-130321549D01*
X154422850Y-130321549D02*
X154422850Y-126481549D01*
X152582850Y-126481549D02*
X152582850Y-130321549D01*
X154422850Y-126481549D02*
X152582850Y-126481549D01*
X153502850Y-125531549D02*
X153502850Y-126481549D01*
X152945850Y-114456949D02*
X151995850Y-114456949D01*
X151995850Y-115376949D02*
X151995850Y-113536949D01*
X151995850Y-113536949D02*
X148155850Y-113536949D01*
X148155850Y-115376949D02*
X151995850Y-115376949D01*
X148155850Y-113536949D02*
X148155850Y-115376949D01*
X147205850Y-114456949D02*
X148155850Y-114456949D01*
X147088050Y-137225949D02*
X147088050Y-141085949D01*
X147088050Y-137225949D02*
X150208050Y-137225949D01*
X147378050Y-137095949D02*
X147378050Y-137095949D01*
X147378050Y-137095949D02*
X147378050Y-137225949D01*
X147378050Y-137225949D02*
X147378050Y-137095949D01*
X147378050Y-137225949D02*
X147378050Y-137225949D01*
X149918050Y-137095949D02*
X149918050Y-137095949D01*
X149918050Y-137095949D02*
X149918050Y-137225949D01*
X149918050Y-137225949D02*
X149918050Y-137095949D01*
X149918050Y-137225949D02*
X149918050Y-137225949D01*
X150208050Y-137225949D02*
X150208050Y-141085949D01*
X150208050Y-137225949D02*
X150608050Y-137225949D01*
X150208050Y-138345949D02*
X150208050Y-137225949D01*
X150608050Y-137225949D02*
X150608050Y-138345949D01*
X150608050Y-138345949D02*
X150208050Y-138345949D01*
X147088050Y-141085949D02*
G75*
G03*
X150208050Y-141085949I1560000J0D01*
G01*
D13*
X144813250Y-53491549D02*
X144813250Y-53291549D01*
X144813250Y-50691549D02*
X144813250Y-47191549D01*
X144813250Y-44591549D02*
X144813250Y-43291549D01*
X144813250Y-43291549D02*
X131513250Y-43291549D01*
X142663250Y-53491549D02*
X144813250Y-53491549D01*
X133663250Y-53491549D02*
X131513250Y-53491549D01*
X131513250Y-53491549D02*
X131513250Y-53291549D01*
X131513250Y-47191549D02*
X131513250Y-50691549D01*
X131513250Y-43291549D02*
X131513250Y-44591549D01*
D11*
X103839877Y-71014176D02*
X103839877Y-78694176D01*
X103839877Y-71014176D02*
X106499877Y-71014176D01*
X103839877Y-78694176D02*
X106499877Y-78694176D01*
X105169877Y-68414176D02*
X106499877Y-68414176D01*
X106499877Y-68414176D02*
X106499877Y-69744176D01*
X106499877Y-71014176D02*
X106499877Y-78694176D01*
X142822850Y-97331749D02*
X144080850Y-97331749D01*
X142822850Y-99171749D02*
X144080850Y-99171749D01*
X156527098Y-57689549D02*
X157049602Y-57689549D01*
X156527098Y-59159549D02*
X157049602Y-59159549D01*
X167408050Y-137225949D02*
X167408050Y-141085949D01*
X167408050Y-137225949D02*
X170528050Y-137225949D01*
X167698050Y-137095949D02*
X167698050Y-137095949D01*
X167698050Y-137095949D02*
X167698050Y-137225949D01*
X167698050Y-137225949D02*
X167698050Y-137095949D01*
X167698050Y-137225949D02*
X167698050Y-137225949D01*
X170238050Y-137095949D02*
X170238050Y-137095949D01*
X170238050Y-137095949D02*
X170238050Y-137225949D01*
X170238050Y-137225949D02*
X170238050Y-137095949D01*
X170238050Y-137225949D02*
X170238050Y-137225949D01*
X170528050Y-137225949D02*
X170528050Y-141085949D01*
X170528050Y-137225949D02*
X170928050Y-137225949D01*
X170528050Y-138345949D02*
X170528050Y-137225949D01*
X170928050Y-137225949D02*
X170928050Y-138345949D01*
X170928050Y-138345949D02*
X170528050Y-138345949D01*
X167408050Y-141085949D02*
G75*
G03*
X170528050Y-141085949I1560000J0D01*
G01*
X162952850Y-131271549D02*
X162952850Y-130321549D01*
X162032850Y-130321549D02*
X163872850Y-130321549D01*
X163872850Y-130321549D02*
X163872850Y-126481549D01*
X162032850Y-126481549D02*
X162032850Y-130321549D01*
X163872850Y-126481549D02*
X162032850Y-126481549D01*
X162952850Y-125531549D02*
X162952850Y-126481549D01*
X188302850Y-77317549D02*
X188302850Y-76367549D01*
X187382850Y-76367549D02*
X189222850Y-76367549D01*
X189222850Y-76367549D02*
X189222850Y-72527549D01*
X187382850Y-72527549D02*
X187382850Y-76367549D01*
X189222850Y-72527549D02*
X187382850Y-72527549D01*
X188302850Y-71577549D02*
X188302850Y-72527549D01*
X166102850Y-131271549D02*
X166102850Y-130321549D01*
X165182850Y-130321549D02*
X167022850Y-130321549D01*
X167022850Y-130321549D02*
X167022850Y-126481549D01*
X165182850Y-126481549D02*
X165182850Y-130321549D01*
X167022850Y-126481549D02*
X165182850Y-126481549D01*
X166102850Y-125531549D02*
X166102850Y-126481549D01*
X177714450Y-69291549D02*
X181314450Y-69291549D01*
X179514450Y-64841549D02*
G75*
G03*
X177675972Y-69280027I0J-2600000D01*
G01*
X181352928Y-69280027D02*
G75*
G03*
X179514450Y-64841549I-1838478J1838478D01*
G01*
X152945850Y-111916949D02*
X151995850Y-111916949D01*
X151995850Y-112836949D02*
X151995850Y-110996949D01*
X151995850Y-110996949D02*
X148155850Y-110996949D01*
X148155850Y-112836949D02*
X151995850Y-112836949D01*
X148155850Y-110996949D02*
X148155850Y-112836949D01*
X147205850Y-111916949D02*
X148155850Y-111916949D01*
X150352850Y-131271549D02*
X150352850Y-130321549D01*
X149432850Y-130321549D02*
X151272850Y-130321549D01*
X151272850Y-130321549D02*
X151272850Y-126481549D01*
X149432850Y-126481549D02*
X149432850Y-130321549D01*
X151272850Y-126481549D02*
X149432850Y-126481549D01*
X150352850Y-125531549D02*
X150352850Y-126481549D01*
X157076414Y-54968549D02*
X156622286Y-54968549D01*
X157076414Y-53498549D02*
X156622286Y-53498549D01*
X136928050Y-137225949D02*
X136928050Y-141085949D01*
X136928050Y-137225949D02*
X140048050Y-137225949D01*
X137218050Y-137095949D02*
X137218050Y-137095949D01*
X137218050Y-137095949D02*
X137218050Y-137225949D01*
X137218050Y-137225949D02*
X137218050Y-137095949D01*
X137218050Y-137225949D02*
X137218050Y-137225949D01*
X139758050Y-137095949D02*
X139758050Y-137095949D01*
X139758050Y-137095949D02*
X139758050Y-137225949D01*
X139758050Y-137225949D02*
X139758050Y-137095949D01*
X139758050Y-137225949D02*
X139758050Y-137225949D01*
X140048050Y-137225949D02*
X140048050Y-141085949D01*
X140048050Y-137225949D02*
X140448050Y-137225949D01*
X140048050Y-138345949D02*
X140048050Y-137225949D01*
X140448050Y-137225949D02*
X140448050Y-138345949D01*
X140448050Y-138345949D02*
X140048050Y-138345949D01*
X136928050Y-141085949D02*
G75*
G03*
X140048050Y-141085949I1560000J0D01*
G01*
%LPC*%
D14*
X168668650Y-98759749D03*
D15*
X161048650Y-98759749D03*
D16*
X176802277Y-139807976D03*
D17*
X176802277Y-137267976D03*
X179342277Y-139807976D03*
X179342277Y-137267976D03*
X181882277Y-139807976D03*
X181882277Y-137267976D03*
X184422277Y-139807976D03*
X184422277Y-137267976D03*
X186962277Y-139807976D03*
X186962277Y-137267976D03*
X189502277Y-139807976D03*
X189502277Y-137267976D03*
D18*
X151549050Y-48874149D03*
D14*
X180784450Y-78261949D03*
D15*
X180784450Y-70641949D03*
D19*
X186008877Y-60720176D03*
X178508877Y-60720176D03*
D20*
X182258877Y-57020176D03*
D21*
X133745750Y-123321549D03*
X133745750Y-84581549D03*
D22*
X130745750Y-123321549D03*
X130745750Y-84581549D03*
D23*
X115745750Y-127751549D03*
X115745750Y-80151549D03*
D24*
X112245750Y-126951549D03*
X112245750Y-80951549D03*
D25*
X136745750Y-88391549D03*
X136745750Y-89661549D03*
X136745750Y-90931549D03*
X136745750Y-92201549D03*
X136745750Y-93471549D03*
X136745750Y-94741549D03*
X136745750Y-96011549D03*
X136745750Y-97281549D03*
X136745750Y-98551549D03*
X136745750Y-99821549D03*
X136745750Y-101091549D03*
X136745750Y-102361549D03*
X136745750Y-103631549D03*
X136745750Y-104901549D03*
X136745750Y-106171549D03*
X136745750Y-107441549D03*
X136745750Y-108711549D03*
X136745750Y-109981549D03*
X136745750Y-111251549D03*
X136745750Y-112521549D03*
X136745750Y-113791549D03*
X136745750Y-115061549D03*
X136745750Y-116331549D03*
X136745750Y-117601549D03*
X136745750Y-118871549D03*
X136745750Y-89031549D03*
X136745750Y-90301549D03*
X136745750Y-91571549D03*
X136745750Y-92841549D03*
X136745750Y-94111549D03*
X136745750Y-95381549D03*
X136745750Y-96651549D03*
X136745750Y-97921549D03*
X136745750Y-99191549D03*
X136745750Y-100461549D03*
X136745750Y-101731549D03*
X136745750Y-103001549D03*
X136745750Y-104271549D03*
X136745750Y-105541549D03*
X136745750Y-106811549D03*
X136745750Y-108081549D03*
X136745750Y-109351549D03*
X136745750Y-110621549D03*
X136745750Y-111891549D03*
X136745750Y-113161549D03*
X136745750Y-114431549D03*
X136745750Y-115701549D03*
X136745750Y-116971549D03*
X136745750Y-118241549D03*
X136745750Y-119511549D03*
D26*
X174078850Y-132135349D03*
D27*
X176618850Y-132135349D03*
X179158850Y-132135349D03*
X181698850Y-132135349D03*
X184238850Y-132135349D03*
X186778850Y-132135349D03*
X189318850Y-132135349D03*
X191858850Y-132135349D03*
X194398850Y-132135349D03*
X196938850Y-132135349D03*
X196938850Y-124515349D03*
X194398850Y-124515349D03*
X191858850Y-124515349D03*
X189318850Y-124515349D03*
X186778850Y-124515349D03*
X184238850Y-124515349D03*
X181698850Y-124515349D03*
X179158850Y-124515349D03*
X176618850Y-124515349D03*
X174078850Y-124515349D03*
D28*
X185712050Y-67492349D03*
D29*
X186982050Y-67492349D03*
X188252050Y-67492349D03*
D30*
X132138050Y-136015949D03*
D31*
X134678050Y-136015949D03*
D14*
X127469850Y-131830549D03*
D15*
X119849850Y-131830549D03*
D32*
X165062350Y-58932549D03*
X165062350Y-57662549D03*
X165062350Y-56392549D03*
X165062350Y-55122549D03*
X159812350Y-55122549D03*
X159812350Y-56392549D03*
X159812350Y-57662549D03*
X159812350Y-58932549D03*
D30*
X162618050Y-136015949D03*
D31*
X165158050Y-136015949D03*
D33*
X157738350Y-56265549D03*
X155913350Y-56265549D03*
D14*
X156652850Y-132211549D03*
D15*
X156652850Y-124591549D03*
D14*
X159802850Y-132211549D03*
D15*
X159802850Y-124591549D03*
D14*
X169252850Y-132211549D03*
D15*
X169252850Y-124591549D03*
D34*
X113183250Y-69981549D03*
X171183250Y-69981549D03*
X113183250Y-46981549D03*
X171183250Y-46981549D03*
D16*
X118053250Y-68711549D03*
D17*
X118053250Y-71251549D03*
X120593250Y-68711549D03*
X120593250Y-71251549D03*
X123133250Y-68711549D03*
X123133250Y-71251549D03*
X125673250Y-68711549D03*
X125673250Y-71251549D03*
X128213250Y-68711549D03*
X128213250Y-71251549D03*
X130753250Y-68711549D03*
X130753250Y-71251549D03*
X133293250Y-68711549D03*
X133293250Y-71251549D03*
X135833250Y-68711549D03*
X135833250Y-71251549D03*
X138373250Y-68711549D03*
X138373250Y-71251549D03*
X140913250Y-68711549D03*
X140913250Y-71251549D03*
X143453250Y-68711549D03*
X143453250Y-71251549D03*
X145993250Y-68711549D03*
X145993250Y-71251549D03*
X148533250Y-68711549D03*
X148533250Y-71251549D03*
X151073250Y-68711549D03*
X151073250Y-71251549D03*
X153613250Y-68711549D03*
X153613250Y-71251549D03*
X156153250Y-68711549D03*
X156153250Y-71251549D03*
X158693250Y-68711549D03*
X158693250Y-71251549D03*
X161233250Y-68711549D03*
X161233250Y-71251549D03*
X163773250Y-68711549D03*
X163773250Y-71251549D03*
X166313250Y-68711549D03*
X166313250Y-71251549D03*
D16*
X166313250Y-66171549D03*
D22*
X163773250Y-66171549D03*
D16*
X163773250Y-63631549D03*
D17*
X166313250Y-63631549D03*
D22*
X151583250Y-45481549D03*
X149583250Y-45481549D03*
D14*
X147202850Y-132211549D03*
D15*
X147202850Y-124591549D03*
D30*
X152458050Y-136015949D03*
D31*
X154998050Y-136015949D03*
D30*
X124848250Y-136015949D03*
D31*
X127388250Y-136015949D03*
D14*
X149059850Y-102061749D03*
D15*
X141439850Y-102061749D03*
D30*
X142298050Y-136015949D03*
D31*
X144838050Y-136015949D03*
D16*
X195898677Y-112341376D03*
D17*
X198438677Y-112341376D03*
X195898677Y-109801376D03*
X198438677Y-109801376D03*
X195898677Y-107261376D03*
X198438677Y-107261376D03*
X195898677Y-104721376D03*
X198438677Y-104721376D03*
X195898677Y-102181376D03*
X198438677Y-102181376D03*
X195898677Y-99641376D03*
X198438677Y-99641376D03*
X195898677Y-97101376D03*
X198438677Y-97101376D03*
X195898677Y-94561376D03*
X198438677Y-94561376D03*
X195898677Y-92021376D03*
X198438677Y-92021376D03*
X195898677Y-89481376D03*
X198438677Y-89481376D03*
X195898677Y-86941376D03*
X198438677Y-86941376D03*
X195898677Y-84401376D03*
X198438677Y-84401376D03*
X195898677Y-81861376D03*
X198438677Y-81861376D03*
X195898677Y-79321376D03*
X198438677Y-79321376D03*
X195898677Y-76781376D03*
X198438677Y-76781376D03*
X195898677Y-74241376D03*
X198438677Y-74241376D03*
D14*
X185762850Y-78257549D03*
D15*
X185762850Y-70637549D03*
D35*
X164764350Y-48137549D03*
X160364350Y-48137549D03*
D36*
X164164350Y-50737549D03*
X163364350Y-50737549D03*
X162564350Y-50737549D03*
X161764350Y-50737549D03*
X160964350Y-50737549D03*
D37*
X166964350Y-50737549D03*
X166964350Y-45237549D03*
X158164350Y-50737549D03*
X158164350Y-45237549D03*
D14*
X178904850Y-97794549D03*
D15*
X171284850Y-97794549D03*
D30*
X157538050Y-136015949D03*
D31*
X160078050Y-136015949D03*
D14*
X178244450Y-78287349D03*
D15*
X178244450Y-70667349D03*
D14*
X153502850Y-132211549D03*
D15*
X153502850Y-124591549D03*
D14*
X153885850Y-114456949D03*
D15*
X146265850Y-114456949D03*
D30*
X147378050Y-136015949D03*
D31*
X149918050Y-136015949D03*
D38*
X140613250Y-51291549D03*
X135713250Y-51291549D03*
D39*
X141663250Y-54671549D03*
X139163250Y-54671549D03*
X137163250Y-54671549D03*
X134663250Y-54671549D03*
D40*
X145788250Y-51991549D03*
X145788250Y-45891549D03*
X130538250Y-51991549D03*
X130538250Y-45891549D03*
D16*
X105169877Y-69744176D03*
D17*
X105169877Y-72284176D03*
X105169877Y-74824176D03*
X105169877Y-77364176D03*
D41*
X197152277Y-47282976D03*
X105152277Y-139282976D03*
D42*
X142201850Y-98251749D03*
X144701850Y-98251749D03*
D41*
X197152277Y-139282976D03*
D43*
X155838350Y-58424549D03*
X157738350Y-58424549D03*
D41*
X105152277Y-47282976D03*
D30*
X167698050Y-136015949D03*
D31*
X170238050Y-136015949D03*
D14*
X162952850Y-132211549D03*
D15*
X162952850Y-124591549D03*
D14*
X188302850Y-78257549D03*
D15*
X188302850Y-70637549D03*
D14*
X166102850Y-132211549D03*
D15*
X166102850Y-124591549D03*
D18*
X149593250Y-48874149D03*
D28*
X178244450Y-67441549D03*
D29*
X179514450Y-67441549D03*
X180784450Y-67441549D03*
D14*
X153885850Y-111916949D03*
D15*
X146265850Y-111916949D03*
D14*
X150352850Y-132211549D03*
D15*
X150352850Y-124591549D03*
D33*
X157761850Y-54233549D03*
X155936850Y-54233549D03*
D30*
X137218050Y-136015949D03*
D31*
X139758050Y-136015949D03*
%LPD*%
M02*
