G04 #@! TF.GenerationSoftware,KiCad,Pcbnew,7.0.5*
G04 #@! TF.CreationDate,2023-12-17T09:41:48+13:00*
G04 #@! TF.ProjectId,CompactFlash,436f6d70-6163-4744-966c-6173682e6b69,2*
G04 #@! TF.SameCoordinates,Original*
G04 #@! TF.FileFunction,Legend,Bot*
G04 #@! TF.FilePolarity,Positive*
%FSLAX46Y46*%
G04 Gerber Fmt 4.6, Leading zero omitted, Abs format (unit mm)*
G04 Created by KiCad (PCBNEW 7.0.5) date 2023-12-17 09:41:48*
%MOMM*%
%LPD*%
G01*
G04 APERTURE LIST*
%ADD10C,0.642961*%
%ADD11C,1.400000*%
%ADD12O,1.400000X1.400000*%
%ADD13R,1.700000X1.700000*%
%ADD14O,1.700000X1.700000*%
%ADD15O,1.800000X3.600000*%
%ADD16O,4.200000X2.100000*%
%ADD17C,3.990000*%
%ADD18C,1.700000*%
%ADD19C,0.800000*%
%ADD20R,1.600000X1.600000*%
%ADD21O,1.600000X1.600000*%
%ADD22R,1.050000X1.500000*%
%ADD23O,1.050000X1.500000*%
%ADD24R,1.800000X1.800000*%
%ADD25C,1.800000*%
%ADD26C,6.000000*%
%ADD27C,0.900000*%
%ADD28C,1.500000*%
%ADD29C,3.200000*%
%ADD30C,1.600000*%
G04 APERTURE END LIST*
D10*
X153089730Y-58576949D02*
G75*
G03*
X153089730Y-58576949I-321480J0D01*
G01*
X154512130Y-61116949D02*
G75*
G03*
X154512130Y-61116949I-321480J0D01*
G01*
%LPC*%
D11*
X168668650Y-98759749D03*
D12*
X161048650Y-98759749D03*
D13*
X176802277Y-139807976D03*
D14*
X176802277Y-137267976D03*
X179342277Y-139807976D03*
X179342277Y-137267976D03*
X181882277Y-139807976D03*
X181882277Y-137267976D03*
X184422277Y-139807976D03*
X184422277Y-137267976D03*
X186962277Y-139807976D03*
X186962277Y-137267976D03*
X189502277Y-139807976D03*
X189502277Y-137267976D03*
D11*
X180784450Y-78261949D03*
D12*
X180784450Y-70641949D03*
D15*
X186008877Y-60720176D03*
X178508877Y-60720176D03*
D16*
X182258877Y-57020176D03*
D17*
X133745750Y-123321549D03*
X133745750Y-84581549D03*
D18*
X130745750Y-123321549D03*
X130745750Y-84581549D03*
D19*
X112245750Y-126951549D03*
X112245750Y-80951549D03*
D20*
X174078850Y-132135349D03*
D21*
X176618850Y-132135349D03*
X179158850Y-132135349D03*
X181698850Y-132135349D03*
X184238850Y-132135349D03*
X186778850Y-132135349D03*
X189318850Y-132135349D03*
X191858850Y-132135349D03*
X194398850Y-132135349D03*
X196938850Y-132135349D03*
X196938850Y-124515349D03*
X194398850Y-124515349D03*
X191858850Y-124515349D03*
X189318850Y-124515349D03*
X186778850Y-124515349D03*
X184238850Y-124515349D03*
X181698850Y-124515349D03*
X179158850Y-124515349D03*
X176618850Y-124515349D03*
X174078850Y-124515349D03*
D22*
X185712050Y-67492349D03*
D23*
X186982050Y-67492349D03*
X188252050Y-67492349D03*
D24*
X132138050Y-136015949D03*
D25*
X134678050Y-136015949D03*
D11*
X127469850Y-131830549D03*
D12*
X119849850Y-131830549D03*
D24*
X162618050Y-136015949D03*
D25*
X165158050Y-136015949D03*
D11*
X156652850Y-132211549D03*
D12*
X156652850Y-124591549D03*
D11*
X159802850Y-132211549D03*
D12*
X159802850Y-124591549D03*
D11*
X169252850Y-132211549D03*
D12*
X169252850Y-124591549D03*
D26*
X113183250Y-69981549D03*
X171183250Y-69981549D03*
X113183250Y-46981549D03*
X171183250Y-46981549D03*
D13*
X118053250Y-68711549D03*
D14*
X118053250Y-71251549D03*
X120593250Y-68711549D03*
X120593250Y-71251549D03*
X123133250Y-68711549D03*
X123133250Y-71251549D03*
X125673250Y-68711549D03*
X125673250Y-71251549D03*
X128213250Y-68711549D03*
X128213250Y-71251549D03*
X130753250Y-68711549D03*
X130753250Y-71251549D03*
X133293250Y-68711549D03*
X133293250Y-71251549D03*
X135833250Y-68711549D03*
X135833250Y-71251549D03*
X138373250Y-68711549D03*
X138373250Y-71251549D03*
X140913250Y-68711549D03*
X140913250Y-71251549D03*
X143453250Y-68711549D03*
X143453250Y-71251549D03*
X145993250Y-68711549D03*
X145993250Y-71251549D03*
X148533250Y-68711549D03*
X148533250Y-71251549D03*
X151073250Y-68711549D03*
X151073250Y-71251549D03*
X153613250Y-68711549D03*
X153613250Y-71251549D03*
X156153250Y-68711549D03*
X156153250Y-71251549D03*
X158693250Y-68711549D03*
X158693250Y-71251549D03*
X161233250Y-68711549D03*
X161233250Y-71251549D03*
X163773250Y-68711549D03*
X163773250Y-71251549D03*
X166313250Y-68711549D03*
X166313250Y-71251549D03*
D13*
X166313250Y-66171549D03*
D18*
X163773250Y-66171549D03*
D13*
X163773250Y-63631549D03*
D14*
X166313250Y-63631549D03*
D11*
X147202850Y-132211549D03*
D12*
X147202850Y-124591549D03*
D24*
X152458050Y-136015949D03*
D25*
X154998050Y-136015949D03*
D24*
X124848250Y-136015949D03*
D25*
X127388250Y-136015949D03*
D11*
X149059850Y-102061749D03*
D12*
X141439850Y-102061749D03*
D24*
X142298050Y-136015949D03*
D25*
X144838050Y-136015949D03*
D13*
X195898677Y-112341376D03*
D14*
X198438677Y-112341376D03*
X195898677Y-109801376D03*
X198438677Y-109801376D03*
X195898677Y-107261376D03*
X198438677Y-107261376D03*
X195898677Y-104721376D03*
X198438677Y-104721376D03*
X195898677Y-102181376D03*
X198438677Y-102181376D03*
X195898677Y-99641376D03*
X198438677Y-99641376D03*
X195898677Y-97101376D03*
X198438677Y-97101376D03*
X195898677Y-94561376D03*
X198438677Y-94561376D03*
X195898677Y-92021376D03*
X198438677Y-92021376D03*
X195898677Y-89481376D03*
X198438677Y-89481376D03*
X195898677Y-86941376D03*
X198438677Y-86941376D03*
X195898677Y-84401376D03*
X198438677Y-84401376D03*
X195898677Y-81861376D03*
X198438677Y-81861376D03*
X195898677Y-79321376D03*
X198438677Y-79321376D03*
X195898677Y-76781376D03*
X198438677Y-76781376D03*
X195898677Y-74241376D03*
X198438677Y-74241376D03*
D11*
X185762850Y-78257549D03*
D12*
X185762850Y-70637549D03*
D27*
X164764350Y-48137549D03*
X160364350Y-48137549D03*
D11*
X178904850Y-97794549D03*
D12*
X171284850Y-97794549D03*
D24*
X157538050Y-136015949D03*
D25*
X160078050Y-136015949D03*
D11*
X178244450Y-78287349D03*
D12*
X178244450Y-70667349D03*
D11*
X153502850Y-132211549D03*
D12*
X153502850Y-124591549D03*
D11*
X153885850Y-114456949D03*
D12*
X146265850Y-114456949D03*
D24*
X147378050Y-136015949D03*
D25*
X149918050Y-136015949D03*
D28*
X140613250Y-51291549D03*
X135713250Y-51291549D03*
D13*
X105169877Y-69744176D03*
D14*
X105169877Y-72284176D03*
X105169877Y-74824176D03*
X105169877Y-77364176D03*
D29*
X197152277Y-47282976D03*
X105152277Y-139282976D03*
D30*
X142201850Y-98251749D03*
X144701850Y-98251749D03*
D29*
X197152277Y-139282976D03*
X105152277Y-47282976D03*
D24*
X167698050Y-136015949D03*
D25*
X170238050Y-136015949D03*
D11*
X162952850Y-132211549D03*
D12*
X162952850Y-124591549D03*
D11*
X188302850Y-78257549D03*
D12*
X188302850Y-70637549D03*
D11*
X166102850Y-132211549D03*
D12*
X166102850Y-124591549D03*
D22*
X178244450Y-67441549D03*
D23*
X179514450Y-67441549D03*
X180784450Y-67441549D03*
D11*
X153885850Y-111916949D03*
D12*
X146265850Y-111916949D03*
D11*
X150352850Y-132211549D03*
D12*
X150352850Y-124591549D03*
D24*
X137218050Y-136015949D03*
D25*
X139758050Y-136015949D03*
%LPD*%
M02*
