G04 #@! TF.GenerationSoftware,KiCad,Pcbnew,7.0.5*
G04 #@! TF.CreationDate,2023-12-17T18:07:01+13:00*
G04 #@! TF.ProjectId,CompactFlash,436f6d70-6163-4744-966c-6173682e6b69,2*
G04 #@! TF.SameCoordinates,Original*
G04 #@! TF.FileFunction,Copper,L4,Bot*
G04 #@! TF.FilePolarity,Positive*
%FSLAX46Y46*%
G04 Gerber Fmt 4.6, Leading zero omitted, Abs format (unit mm)*
G04 Created by KiCad (PCBNEW 7.0.5) date 2023-12-17 18:07:01*
%MOMM*%
%LPD*%
G01*
G04 APERTURE LIST*
G04 #@! TA.AperFunction,ComponentPad*
%ADD10C,1.400000*%
G04 #@! TD*
G04 #@! TA.AperFunction,ComponentPad*
%ADD11O,1.400000X1.400000*%
G04 #@! TD*
G04 #@! TA.AperFunction,ComponentPad*
%ADD12R,1.700000X1.700000*%
G04 #@! TD*
G04 #@! TA.AperFunction,ComponentPad*
%ADD13O,1.700000X1.700000*%
G04 #@! TD*
G04 #@! TA.AperFunction,ComponentPad*
%ADD14O,1.800000X3.600000*%
G04 #@! TD*
G04 #@! TA.AperFunction,ComponentPad*
%ADD15O,4.200000X2.100000*%
G04 #@! TD*
G04 #@! TA.AperFunction,ComponentPad*
%ADD16C,3.990000*%
G04 #@! TD*
G04 #@! TA.AperFunction,ComponentPad*
%ADD17R,1.600000X1.600000*%
G04 #@! TD*
G04 #@! TA.AperFunction,ComponentPad*
%ADD18O,1.600000X1.600000*%
G04 #@! TD*
G04 #@! TA.AperFunction,ComponentPad*
%ADD19R,1.050000X1.500000*%
G04 #@! TD*
G04 #@! TA.AperFunction,ComponentPad*
%ADD20O,1.050000X1.500000*%
G04 #@! TD*
G04 #@! TA.AperFunction,ComponentPad*
%ADD21R,1.800000X1.800000*%
G04 #@! TD*
G04 #@! TA.AperFunction,ComponentPad*
%ADD22C,1.800000*%
G04 #@! TD*
G04 #@! TA.AperFunction,ComponentPad*
%ADD23C,1.700000*%
G04 #@! TD*
G04 #@! TA.AperFunction,ComponentPad*
%ADD24C,1.600000*%
G04 #@! TD*
G04 #@! TA.AperFunction,ViaPad*
%ADD25C,0.800000*%
G04 #@! TD*
G04 #@! TA.AperFunction,Conductor*
%ADD26C,0.250000*%
G04 #@! TD*
G04 APERTURE END LIST*
D10*
X168668650Y-98759749D03*
D11*
X161048650Y-98759749D03*
D12*
X176802277Y-139807976D03*
D13*
X176802277Y-137267976D03*
X179342277Y-139807976D03*
X179342277Y-137267976D03*
X181882277Y-139807976D03*
X181882277Y-137267976D03*
X184422277Y-139807976D03*
X184422277Y-137267976D03*
X186962277Y-139807976D03*
X186962277Y-137267976D03*
X189502277Y-139807976D03*
X189502277Y-137267976D03*
D10*
X180784450Y-78261949D03*
D11*
X180784450Y-70641949D03*
D14*
X186008877Y-60720176D03*
X178508877Y-60720176D03*
D15*
X182258877Y-57020176D03*
D16*
X133745750Y-123321549D03*
X133745750Y-84581549D03*
D17*
X174078850Y-132135349D03*
D18*
X176618850Y-132135349D03*
X179158850Y-132135349D03*
X181698850Y-132135349D03*
X184238850Y-132135349D03*
X186778850Y-132135349D03*
X189318850Y-132135349D03*
X191858850Y-132135349D03*
X194398850Y-132135349D03*
X196938850Y-132135349D03*
X196938850Y-124515349D03*
X194398850Y-124515349D03*
X191858850Y-124515349D03*
X189318850Y-124515349D03*
X186778850Y-124515349D03*
X184238850Y-124515349D03*
X181698850Y-124515349D03*
X179158850Y-124515349D03*
X176618850Y-124515349D03*
X174078850Y-124515349D03*
D19*
X185712050Y-67492349D03*
D20*
X186982050Y-67492349D03*
X188252050Y-67492349D03*
D21*
X132138050Y-136015949D03*
D22*
X134678050Y-136015949D03*
D10*
X127469850Y-131830549D03*
D11*
X119849850Y-131830549D03*
D21*
X162618050Y-136015949D03*
D22*
X165158050Y-136015949D03*
D10*
X156652850Y-132211549D03*
D11*
X156652850Y-124591549D03*
D10*
X159802850Y-132211549D03*
D11*
X159802850Y-124591549D03*
D10*
X169252850Y-132211549D03*
D11*
X169252850Y-124591549D03*
D12*
X118053250Y-68711549D03*
D13*
X118053250Y-71251549D03*
X120593250Y-68711549D03*
X120593250Y-71251549D03*
X123133250Y-68711549D03*
X123133250Y-71251549D03*
X125673250Y-68711549D03*
X125673250Y-71251549D03*
X128213250Y-68711549D03*
X128213250Y-71251549D03*
X130753250Y-68711549D03*
X130753250Y-71251549D03*
X133293250Y-68711549D03*
X133293250Y-71251549D03*
X135833250Y-68711549D03*
X135833250Y-71251549D03*
X138373250Y-68711549D03*
X138373250Y-71251549D03*
X140913250Y-68711549D03*
X140913250Y-71251549D03*
X143453250Y-68711549D03*
X143453250Y-71251549D03*
X145993250Y-68711549D03*
X145993250Y-71251549D03*
X148533250Y-68711549D03*
X148533250Y-71251549D03*
X151073250Y-68711549D03*
X151073250Y-71251549D03*
X153613250Y-68711549D03*
X153613250Y-71251549D03*
X156153250Y-68711549D03*
X156153250Y-71251549D03*
X158693250Y-68711549D03*
X158693250Y-71251549D03*
X161233250Y-68711549D03*
X161233250Y-71251549D03*
X163773250Y-68711549D03*
X163773250Y-71251549D03*
X166313250Y-68711549D03*
X166313250Y-71251549D03*
D12*
X166313250Y-66171549D03*
D23*
X163773250Y-66171549D03*
D12*
X163773250Y-63631549D03*
D13*
X166313250Y-63631549D03*
D10*
X147202850Y-132211549D03*
D11*
X147202850Y-124591549D03*
D21*
X152458050Y-136015949D03*
D22*
X154998050Y-136015949D03*
D21*
X124848250Y-136015949D03*
D22*
X127388250Y-136015949D03*
D10*
X149059850Y-102061749D03*
D11*
X141439850Y-102061749D03*
D21*
X142298050Y-136015949D03*
D22*
X144838050Y-136015949D03*
D12*
X195898677Y-112341376D03*
D13*
X198438677Y-112341376D03*
X195898677Y-109801376D03*
X198438677Y-109801376D03*
X195898677Y-107261376D03*
X198438677Y-107261376D03*
X195898677Y-104721376D03*
X198438677Y-104721376D03*
X195898677Y-102181376D03*
X198438677Y-102181376D03*
X195898677Y-99641376D03*
X198438677Y-99641376D03*
X195898677Y-97101376D03*
X198438677Y-97101376D03*
X195898677Y-94561376D03*
X198438677Y-94561376D03*
X195898677Y-92021376D03*
X198438677Y-92021376D03*
X195898677Y-89481376D03*
X198438677Y-89481376D03*
X195898677Y-86941376D03*
X198438677Y-86941376D03*
X195898677Y-84401376D03*
X198438677Y-84401376D03*
X195898677Y-81861376D03*
X198438677Y-81861376D03*
X195898677Y-79321376D03*
X198438677Y-79321376D03*
X195898677Y-76781376D03*
X198438677Y-76781376D03*
X195898677Y-74241376D03*
X198438677Y-74241376D03*
D10*
X185762850Y-78257549D03*
D11*
X185762850Y-70637549D03*
D10*
X178904850Y-97794549D03*
D11*
X171284850Y-97794549D03*
D21*
X157538050Y-136015949D03*
D22*
X160078050Y-136015949D03*
D10*
X178244450Y-78287349D03*
D11*
X178244450Y-70667349D03*
D10*
X153502850Y-132211549D03*
D11*
X153502850Y-124591549D03*
D10*
X153885850Y-114456949D03*
D11*
X146265850Y-114456949D03*
D21*
X147378050Y-136015949D03*
D22*
X149918050Y-136015949D03*
D12*
X105169877Y-69744176D03*
D13*
X105169877Y-72284176D03*
X105169877Y-74824176D03*
X105169877Y-77364176D03*
D24*
X142201850Y-98251749D03*
X144701850Y-98251749D03*
D21*
X167698050Y-136015949D03*
D22*
X170238050Y-136015949D03*
D10*
X162952850Y-132211549D03*
D11*
X162952850Y-124591549D03*
D10*
X188302850Y-78257549D03*
D11*
X188302850Y-70637549D03*
D10*
X166102850Y-132211549D03*
D11*
X166102850Y-124591549D03*
D19*
X178244450Y-67441549D03*
D20*
X179514450Y-67441549D03*
X180784450Y-67441549D03*
D10*
X153885850Y-111916949D03*
D11*
X146265850Y-111916949D03*
D10*
X150352850Y-132211549D03*
D11*
X150352850Y-124591549D03*
D21*
X137218050Y-136015949D03*
D22*
X139758050Y-136015949D03*
D25*
X133972250Y-103992149D03*
X133667450Y-98556549D03*
X140398450Y-97376049D03*
X133794450Y-102366549D03*
X133743650Y-101091549D03*
X143675050Y-107802149D03*
X140322250Y-98556549D03*
X133667450Y-97337349D03*
X133718250Y-99821549D03*
X133769050Y-108716549D03*
X133769050Y-107446549D03*
X139585650Y-112616049D03*
X139433250Y-110723149D03*
X141338250Y-109986549D03*
X139433250Y-113796549D03*
X141973250Y-115066549D03*
X139433250Y-116336549D03*
X179158850Y-130306549D03*
X181698850Y-129671549D03*
X184264250Y-128909549D03*
X186804250Y-128020549D03*
X189344250Y-127258549D03*
X191884250Y-126496549D03*
X154182350Y-61116949D03*
X152768250Y-58526149D03*
D26*
X197186704Y-83113349D02*
X198438677Y-81861376D01*
X164274450Y-83113349D02*
X197186704Y-83113349D01*
X140322250Y-107065549D02*
X164274450Y-83113349D01*
X140322250Y-111879449D02*
X140322250Y-107065549D01*
X139585650Y-112616049D02*
X140322250Y-111879449D01*
X163748423Y-81861376D02*
X195898677Y-81861376D01*
X139433250Y-110723149D02*
X139433250Y-106176549D01*
X139433250Y-106176549D02*
X163748423Y-81861376D01*
X197186704Y-85653349D02*
X198438677Y-84401376D01*
X141338250Y-108081549D02*
X163766450Y-85653349D01*
X163766450Y-85653349D02*
X197186704Y-85653349D01*
X141338250Y-109986549D02*
X141338250Y-108081549D01*
X194748304Y-88091749D02*
X195898677Y-86941376D01*
X139433250Y-113796549D02*
X139458650Y-113796549D01*
X139458650Y-113796549D02*
X165163450Y-88091749D01*
X165163450Y-88091749D02*
X194748304Y-88091749D01*
X141973250Y-114177549D02*
X165417450Y-90733349D01*
X165417450Y-90733349D02*
X197186704Y-90733349D01*
X141973250Y-115066549D02*
X141973250Y-114177549D01*
X197186704Y-90733349D02*
X198438677Y-89481376D01*
X139509450Y-116336549D02*
X140525450Y-115320549D01*
X139433250Y-116336549D02*
X139509450Y-116336549D01*
X140525450Y-115320549D02*
X140525450Y-114050549D01*
X165094623Y-89481376D02*
X195898677Y-89481376D01*
X140525450Y-114050549D02*
X165094623Y-89481376D01*
X188429850Y-99445549D02*
X169354450Y-99445549D01*
X195898677Y-107261376D02*
X195898677Y-106914376D01*
X169354450Y-99445549D02*
X168668650Y-98759749D01*
X195898677Y-106914376D02*
X188429850Y-99445549D01*
X177977277Y-138442976D02*
X179342277Y-139807976D01*
X176618850Y-132135349D02*
X177977277Y-133493776D01*
X177977277Y-133493776D02*
X177977277Y-138442976D01*
X179158850Y-137084549D02*
X179342277Y-137267976D01*
X179158850Y-132135349D02*
X179158850Y-137084549D01*
X181698850Y-132135349D02*
X180606650Y-133227549D01*
X180606650Y-133227549D02*
X180606650Y-138532349D01*
X180606650Y-138532349D02*
X181882277Y-139807976D01*
X181851250Y-134522949D02*
X181851250Y-137236949D01*
X184238850Y-132135349D02*
X181851250Y-134522949D01*
X181851250Y-137236949D02*
X181882277Y-137267976D01*
X186372450Y-132135349D02*
X183197450Y-135310349D01*
X186778850Y-132135349D02*
X186372450Y-132135349D01*
X183197450Y-135310349D02*
X183197450Y-138583149D01*
X183197450Y-138583149D02*
X184422277Y-139807976D01*
X188404450Y-132135349D02*
X184422277Y-136117522D01*
X189318850Y-132135349D02*
X188404450Y-132135349D01*
X184422277Y-136117522D02*
X184422277Y-137267976D01*
X185686650Y-136631149D02*
X185686650Y-138532349D01*
X188836250Y-133481549D02*
X185686650Y-136631149D01*
X185686650Y-138532349D02*
X186962277Y-139807976D01*
X190512650Y-133481549D02*
X188836250Y-133481549D01*
X191858850Y-132135349D02*
X190512650Y-133481549D01*
X190197149Y-134033104D02*
X186962277Y-137267976D01*
X192501095Y-134033104D02*
X190197149Y-134033104D01*
X194398850Y-132135349D02*
X192501095Y-134033104D01*
X147202850Y-132211549D02*
X147053250Y-132211549D01*
X147053250Y-132211549D02*
X145413250Y-133851549D01*
X145413250Y-133851549D02*
X136842450Y-133851549D01*
X136842450Y-133851549D02*
X134678050Y-136015949D01*
X150352850Y-132211549D02*
X148262850Y-134301549D01*
X148262850Y-134301549D02*
X141472450Y-134301549D01*
X141472450Y-134301549D02*
X139758050Y-136015949D01*
X152512901Y-132211549D02*
X149972901Y-134751549D01*
X146102450Y-134751549D02*
X144838050Y-136015949D01*
X149972901Y-134751549D02*
X146102450Y-134751549D01*
X153502850Y-132211549D02*
X152512901Y-132211549D01*
X154073450Y-134790949D02*
X151143050Y-134790949D01*
X156652850Y-132211549D02*
X154073450Y-134790949D01*
X151143050Y-134790949D02*
X149918050Y-136015949D01*
X159802850Y-132211549D02*
X158802450Y-132211549D01*
X158802450Y-132211549D02*
X154998050Y-136015949D01*
X160078050Y-135086349D02*
X160078050Y-136015949D01*
X162952850Y-132211549D02*
X160078050Y-135086349D01*
X166102850Y-135071149D02*
X165158050Y-136015949D01*
X166102850Y-132211549D02*
X166102850Y-135071149D01*
X169252850Y-135030749D02*
X170238050Y-136015949D01*
X169252850Y-132211549D02*
X169252850Y-135030749D01*
X179158850Y-130306549D02*
X148958250Y-130306549D01*
X147202850Y-128551149D02*
X147202850Y-124591549D01*
X148958250Y-130306549D02*
X147202850Y-128551149D01*
X151408250Y-129581549D02*
X150352850Y-128526149D01*
X150352850Y-128526149D02*
X150352850Y-124591549D01*
X181608850Y-129581549D02*
X151408250Y-129581549D01*
X181698850Y-129671549D02*
X181608850Y-129581549D01*
X154128250Y-128946549D02*
X154038250Y-129036549D01*
X184227250Y-128946549D02*
X154128250Y-128946549D01*
X184264250Y-128909549D02*
X184227250Y-128946549D01*
X154038250Y-129036549D02*
X153502850Y-128501149D01*
X153502850Y-128501149D02*
X153502850Y-124591549D01*
X186640250Y-128184549D02*
X186804250Y-128020549D01*
X156652850Y-127968149D02*
X156869250Y-128184549D01*
X156652850Y-124591549D02*
X156652850Y-127968149D01*
X156869250Y-128184549D02*
X186640250Y-128184549D01*
X159802850Y-127181149D02*
X159880250Y-127258549D01*
X159880250Y-127258549D02*
X189344250Y-127258549D01*
X159802850Y-124591549D02*
X159802850Y-127181149D01*
X164857850Y-126496549D02*
X191884250Y-126496549D01*
X162952850Y-124591549D02*
X164857850Y-126496549D01*
X193273850Y-125640349D02*
X194398850Y-124515349D01*
X166102850Y-124591549D02*
X167151650Y-125640349D01*
X167151650Y-125640349D02*
X193273850Y-125640349D01*
X169252850Y-124591549D02*
X170454050Y-123390349D01*
X195813850Y-123390349D02*
X196938850Y-124515349D01*
X170454050Y-123390349D02*
X195813850Y-123390349D01*
G04 #@! TA.AperFunction,Conductor*
G36*
X189752277Y-139372474D02*
G01*
X189644592Y-139323296D01*
X189538040Y-139307976D01*
X189466514Y-139307976D01*
X189359962Y-139323296D01*
X189252277Y-139372474D01*
X189252277Y-137703477D01*
X189359962Y-137752656D01*
X189466514Y-137767976D01*
X189538040Y-137767976D01*
X189644592Y-137752656D01*
X189752277Y-137703477D01*
X189752277Y-139372474D01*
G37*
G04 #@! TD.AperFunction*
G04 #@! TA.AperFunction,Conductor*
G36*
X139205402Y-134504734D02*
G01*
X139251157Y-134557538D01*
X139261101Y-134626696D01*
X139232076Y-134690252D01*
X139194242Y-134718129D01*
X139194833Y-134719221D01*
X138985038Y-134832755D01*
X138985035Y-134832757D01*
X138800831Y-134976130D01*
X138800826Y-134976134D01*
X138794396Y-134983119D01*
X138734507Y-135019106D01*
X138664669Y-135017001D01*
X138624634Y-134989534D01*
X138602772Y-134984778D01*
X137662499Y-135925051D01*
X137661723Y-135914684D01*
X137612163Y-135788408D01*
X137527585Y-135682350D01*
X137415503Y-135605933D01*
X137307749Y-135572695D01*
X138250522Y-134629923D01*
X138255113Y-134565718D01*
X138296984Y-134509783D01*
X138362447Y-134485365D01*
X138371296Y-134485049D01*
X139138363Y-134485049D01*
X139205402Y-134504734D01*
G37*
G04 #@! TD.AperFunction*
G04 #@! TA.AperFunction,Conductor*
G36*
X162335548Y-130959734D02*
G01*
X162381303Y-131012538D01*
X162391247Y-131081696D01*
X162362222Y-131145252D01*
X162339635Y-131165621D01*
X162278455Y-131208459D01*
X162173071Y-131282249D01*
X162023550Y-131431770D01*
X161902261Y-131604990D01*
X161902260Y-131604992D01*
X161812895Y-131796637D01*
X161812891Y-131796646D01*
X161758165Y-132000888D01*
X161758163Y-132000899D01*
X161739734Y-132211547D01*
X161739734Y-132211550D01*
X161758163Y-132422198D01*
X161758165Y-132422208D01*
X161758259Y-132422558D01*
X161758255Y-132422718D01*
X161759105Y-132427538D01*
X161758136Y-132427708D01*
X161756594Y-132492407D01*
X161726164Y-132542329D01*
X159689229Y-134579263D01*
X159676870Y-134589167D01*
X159677043Y-134589376D01*
X159671031Y-134594349D01*
X159623723Y-134644726D01*
X159622370Y-134646122D01*
X159601923Y-134666570D01*
X159601907Y-134666588D01*
X159599599Y-134669563D01*
X159542946Y-134710456D01*
X159541905Y-134710818D01*
X159510330Y-134721658D01*
X159510321Y-134721662D01*
X159305038Y-134832755D01*
X159305035Y-134832757D01*
X159120831Y-134976130D01*
X159120826Y-134976134D01*
X159114396Y-134983119D01*
X159054507Y-135019106D01*
X158984669Y-135017001D01*
X158944634Y-134989534D01*
X158922772Y-134984778D01*
X157982499Y-135925051D01*
X157981723Y-135914684D01*
X157932163Y-135788408D01*
X157847585Y-135682350D01*
X157735503Y-135605933D01*
X157627749Y-135572695D01*
X158569220Y-134631225D01*
X158545423Y-134622350D01*
X158485894Y-134615949D01*
X157593315Y-134615949D01*
X157526276Y-134596264D01*
X157480521Y-134543460D01*
X157470577Y-134474302D01*
X157499602Y-134410746D01*
X157505634Y-134404268D01*
X158153722Y-133756180D01*
X158808383Y-133101518D01*
X158869704Y-133068035D01*
X158939396Y-133073019D01*
X158983743Y-133101520D01*
X159023071Y-133140848D01*
X159023074Y-133140850D01*
X159196292Y-133262138D01*
X159387940Y-133351505D01*
X159387946Y-133351506D01*
X159387947Y-133351507D01*
X159404704Y-133355997D01*
X159592195Y-133406235D01*
X159742662Y-133419399D01*
X159802848Y-133424665D01*
X159802850Y-133424665D01*
X159802852Y-133424665D01*
X159858777Y-133419772D01*
X160013505Y-133406235D01*
X160217760Y-133351505D01*
X160409408Y-133262138D01*
X160582626Y-133140850D01*
X160732151Y-132991325D01*
X160853439Y-132818107D01*
X160942806Y-132626459D01*
X160997536Y-132422204D01*
X161015966Y-132211549D01*
X160997536Y-132000894D01*
X160942806Y-131796639D01*
X160853439Y-131604991D01*
X160762626Y-131475296D01*
X160732149Y-131431770D01*
X160582628Y-131282249D01*
X160499426Y-131223991D01*
X160416066Y-131165622D01*
X160372443Y-131111048D01*
X160365249Y-131041549D01*
X160396771Y-130979194D01*
X160457001Y-130943780D01*
X160487191Y-130940049D01*
X162268509Y-130940049D01*
X162335548Y-130959734D01*
G37*
G04 #@! TD.AperFunction*
G04 #@! TA.AperFunction,Conductor*
G36*
X165485548Y-130959734D02*
G01*
X165531303Y-131012538D01*
X165541247Y-131081696D01*
X165512222Y-131145252D01*
X165489635Y-131165621D01*
X165428455Y-131208459D01*
X165323071Y-131282249D01*
X165173550Y-131431770D01*
X165052261Y-131604990D01*
X165052260Y-131604992D01*
X164962895Y-131796637D01*
X164962891Y-131796646D01*
X164908165Y-132000888D01*
X164908163Y-132000899D01*
X164889734Y-132211547D01*
X164889734Y-132211550D01*
X164908163Y-132422198D01*
X164908165Y-132422209D01*
X164962891Y-132626451D01*
X164962893Y-132626455D01*
X164962894Y-132626459D01*
X164991391Y-132687571D01*
X165052260Y-132818105D01*
X165052261Y-132818107D01*
X165173550Y-132991327D01*
X165323071Y-133140848D01*
X165416473Y-133206248D01*
X165460098Y-133260824D01*
X165469350Y-133307823D01*
X165469350Y-134493513D01*
X165449665Y-134560552D01*
X165396861Y-134606307D01*
X165327703Y-134616251D01*
X165324941Y-134615822D01*
X165274762Y-134607449D01*
X165041338Y-134607449D01*
X165008696Y-134612896D01*
X164811095Y-134645869D01*
X164590330Y-134721659D01*
X164590316Y-134721665D01*
X164385038Y-134832755D01*
X164385035Y-134832757D01*
X164200831Y-134976130D01*
X164200826Y-134976134D01*
X164194396Y-134983119D01*
X164134507Y-135019106D01*
X164064669Y-135017001D01*
X164024634Y-134989534D01*
X164002772Y-134984778D01*
X163062499Y-135925051D01*
X163061723Y-135914684D01*
X163012163Y-135788408D01*
X162927585Y-135682350D01*
X162815503Y-135605933D01*
X162707749Y-135572695D01*
X163649220Y-134631225D01*
X163625423Y-134622350D01*
X163565894Y-134615949D01*
X161743715Y-134615949D01*
X161676676Y-134596264D01*
X161630921Y-134543460D01*
X161620977Y-134474302D01*
X161650002Y-134410746D01*
X161656034Y-134404268D01*
X162124035Y-133936267D01*
X162622069Y-133438232D01*
X162683390Y-133404749D01*
X162736730Y-133406020D01*
X162736858Y-133405294D01*
X162741640Y-133406137D01*
X162741847Y-133406141D01*
X162742195Y-133406235D01*
X162908376Y-133420774D01*
X162952848Y-133424665D01*
X162952850Y-133424665D01*
X162952852Y-133424665D01*
X163008777Y-133419772D01*
X163163505Y-133406235D01*
X163367760Y-133351505D01*
X163559408Y-133262138D01*
X163732626Y-133140850D01*
X163882151Y-132991325D01*
X164003439Y-132818107D01*
X164092806Y-132626459D01*
X164147536Y-132422204D01*
X164165966Y-132211549D01*
X164147536Y-132000894D01*
X164092806Y-131796639D01*
X164003439Y-131604991D01*
X163912626Y-131475296D01*
X163882149Y-131431770D01*
X163732628Y-131282249D01*
X163649426Y-131223991D01*
X163566066Y-131165622D01*
X163522443Y-131111048D01*
X163515249Y-131041549D01*
X163546771Y-130979194D01*
X163607001Y-130943780D01*
X163637191Y-130940049D01*
X165418509Y-130940049D01*
X165485548Y-130959734D01*
G37*
G04 #@! TD.AperFunction*
G04 #@! TA.AperFunction,Conductor*
G36*
X147899975Y-102518240D02*
G01*
X147955908Y-102560112D01*
X147969023Y-102582017D01*
X148009260Y-102668305D01*
X148009261Y-102668307D01*
X148130550Y-102841527D01*
X148280071Y-102991048D01*
X148280074Y-102991050D01*
X148453292Y-103112338D01*
X148644940Y-103201705D01*
X148841797Y-103254452D01*
X148901457Y-103290817D01*
X148931986Y-103353664D01*
X148923691Y-103423039D01*
X148897384Y-103461908D01*
X142447088Y-109912204D01*
X142385765Y-109945689D01*
X142316073Y-109940705D01*
X142260140Y-109898833D01*
X142236087Y-109837486D01*
X142231792Y-109796621D01*
X142172777Y-109614993D01*
X142077290Y-109449605D01*
X142077286Y-109449599D01*
X142003600Y-109367762D01*
X141973370Y-109304770D01*
X141971750Y-109284790D01*
X141971750Y-108395314D01*
X141991435Y-108328275D01*
X142008064Y-108307638D01*
X147768962Y-102546739D01*
X147830283Y-102513256D01*
X147899975Y-102518240D01*
G37*
G04 #@! TD.AperFunction*
G04 #@! TA.AperFunction,Conductor*
G36*
X197119577Y-83766534D02*
G01*
X197165332Y-83819338D01*
X197175276Y-83888496D01*
X197166094Y-83920655D01*
X197152735Y-83951112D01*
X197149380Y-83958762D01*
X197094113Y-84177004D01*
X197094111Y-84177016D01*
X197075521Y-84401370D01*
X197075521Y-84401381D01*
X197094112Y-84625740D01*
X197122138Y-84736413D01*
X197119513Y-84806233D01*
X197089615Y-84854531D01*
X196960616Y-84983531D01*
X196899296Y-85017015D01*
X196872937Y-85019849D01*
X163850082Y-85019849D01*
X163834330Y-85018109D01*
X163834305Y-85018381D01*
X163826543Y-85017646D01*
X163757447Y-85019818D01*
X163755499Y-85019849D01*
X163726594Y-85019849D01*
X163726591Y-85019849D01*
X163726579Y-85019850D01*
X163719587Y-85020733D01*
X163713770Y-85021190D01*
X163666561Y-85022674D01*
X163666559Y-85022675D01*
X163646946Y-85028372D01*
X163627909Y-85032314D01*
X163607658Y-85034873D01*
X163607653Y-85034875D01*
X163570365Y-85049637D01*
X163500787Y-85056011D01*
X163438808Y-85023756D01*
X163404106Y-84963114D01*
X163407699Y-84893336D01*
X163437039Y-84846664D01*
X164500535Y-83783168D01*
X164561859Y-83749683D01*
X164588217Y-83746849D01*
X197052538Y-83746849D01*
X197119577Y-83766534D01*
G37*
G04 #@! TD.AperFunction*
G04 #@! TA.AperFunction,Conductor*
G36*
X195805365Y-43304026D02*
G01*
X195851154Y-43356801D01*
X195861142Y-43425953D01*
X195832158Y-43489527D01*
X195780804Y-43524907D01*
X195596401Y-43592025D01*
X195236635Y-43765280D01*
X194895914Y-43973490D01*
X194895903Y-43973498D01*
X194577614Y-44214593D01*
X194577603Y-44214602D01*
X194284881Y-44486208D01*
X194020663Y-44785605D01*
X193787576Y-45109811D01*
X193787563Y-45109831D01*
X193587915Y-45455631D01*
X193423681Y-45819610D01*
X193296506Y-46198127D01*
X193296505Y-46198131D01*
X193207650Y-46587428D01*
X193157997Y-46983652D01*
X193148042Y-47382819D01*
X193148042Y-47382830D01*
X193177883Y-47781025D01*
X193177885Y-47781039D01*
X193247224Y-48174281D01*
X193355371Y-48558660D01*
X193355375Y-48558673D01*
X193501253Y-48930365D01*
X193501258Y-48930377D01*
X193501259Y-48930378D01*
X193683430Y-49285715D01*
X193900076Y-49621149D01*
X194149044Y-49933345D01*
X194427859Y-50219200D01*
X194733751Y-50475874D01*
X195063679Y-50700815D01*
X195414365Y-50891788D01*
X195782322Y-51046895D01*
X195782332Y-51046898D01*
X195782337Y-51046900D01*
X196163890Y-51164594D01*
X196163903Y-51164597D01*
X196555276Y-51243714D01*
X196555291Y-51243717D01*
X196952620Y-51283476D01*
X197252024Y-51283476D01*
X197252041Y-51283476D01*
X197551094Y-51268551D01*
X197945947Y-51209036D01*
X198332913Y-51110503D01*
X198708144Y-50973930D01*
X199067913Y-50800674D01*
X199408644Y-50592458D01*
X199726949Y-50351351D01*
X200019667Y-50079749D01*
X200283887Y-49780351D01*
X200516983Y-49456134D01*
X200716640Y-49110318D01*
X200880872Y-48746342D01*
X200910234Y-48658949D01*
X200950244Y-48601671D01*
X201014871Y-48575115D01*
X201083595Y-48587716D01*
X201134597Y-48635471D01*
X201151777Y-48698442D01*
X201151776Y-137868136D01*
X201132091Y-137935175D01*
X201079287Y-137980930D01*
X201010129Y-137990874D01*
X200946573Y-137961849D01*
X200912349Y-137913442D01*
X200803295Y-137635574D01*
X200621124Y-137280237D01*
X200404478Y-136944803D01*
X200155510Y-136632607D01*
X199876695Y-136346752D01*
X199570803Y-136090078D01*
X199412195Y-135981941D01*
X199240874Y-135865136D01*
X199107456Y-135792481D01*
X198890189Y-135674164D01*
X198890181Y-135674160D01*
X198890178Y-135674159D01*
X198649614Y-135572753D01*
X198522232Y-135519057D01*
X198522227Y-135519055D01*
X198522216Y-135519051D01*
X198140663Y-135401357D01*
X198140650Y-135401354D01*
X197749277Y-135322237D01*
X197749257Y-135322234D01*
X197351934Y-135282476D01*
X197052513Y-135282476D01*
X197052498Y-135282476D01*
X196753465Y-135297400D01*
X196753452Y-135297401D01*
X196358607Y-135356916D01*
X195971639Y-135455449D01*
X195596401Y-135592025D01*
X195236635Y-135765280D01*
X194895914Y-135973490D01*
X194895903Y-135973498D01*
X194577614Y-136214593D01*
X194577603Y-136214602D01*
X194284881Y-136486208D01*
X194020663Y-136785605D01*
X193787576Y-137109811D01*
X193787563Y-137109831D01*
X193587915Y-137455631D01*
X193423681Y-137819610D01*
X193296506Y-138198127D01*
X193296505Y-138198131D01*
X193207650Y-138587428D01*
X193157997Y-138983652D01*
X193148042Y-139382819D01*
X193148042Y-139382830D01*
X193177883Y-139781025D01*
X193177885Y-139781039D01*
X193247224Y-140174281D01*
X193355371Y-140558660D01*
X193355375Y-140558673D01*
X193501253Y-140930365D01*
X193501258Y-140930377D01*
X193683425Y-141285706D01*
X193683430Y-141285715D01*
X193900076Y-141621149D01*
X194149044Y-141933345D01*
X194427859Y-142219200D01*
X194733751Y-142475874D01*
X195063679Y-142700815D01*
X195414365Y-142891788D01*
X195738748Y-143028527D01*
X195775960Y-143044213D01*
X195830089Y-143088392D01*
X195851740Y-143154823D01*
X195834039Y-143222413D01*
X195782606Y-143269704D01*
X195727794Y-143282476D01*
X106563660Y-143282476D01*
X106496621Y-143262791D01*
X106450866Y-143209987D01*
X106440922Y-143140829D01*
X106469947Y-143077273D01*
X106521248Y-143041954D01*
X106708144Y-142973930D01*
X107067913Y-142800674D01*
X107408644Y-142592458D01*
X107726949Y-142351351D01*
X108019667Y-142079749D01*
X108283887Y-141780351D01*
X108516983Y-141456134D01*
X108716640Y-141110318D01*
X108880872Y-140746342D01*
X109008048Y-140367822D01*
X109096904Y-139978520D01*
X109146556Y-139582306D01*
X109151526Y-139383024D01*
X109156511Y-139183132D01*
X109156511Y-139183117D01*
X109141563Y-138983652D01*
X109126670Y-138784920D01*
X109057330Y-138391673D01*
X108949180Y-138007284D01*
X108920879Y-137935175D01*
X108803300Y-137635586D01*
X108803295Y-137635574D01*
X108729865Y-137492344D01*
X108621124Y-137280237D01*
X108417266Y-136964603D01*
X123439750Y-136964603D01*
X123446261Y-137025151D01*
X123446261Y-137025153D01*
X123497361Y-137162153D01*
X123584989Y-137279210D01*
X123702046Y-137366838D01*
X123753499Y-137386029D01*
X123833713Y-137415948D01*
X123839049Y-137417938D01*
X123866300Y-137420867D01*
X123899595Y-137424448D01*
X123899612Y-137424449D01*
X125796888Y-137424449D01*
X125796904Y-137424448D01*
X125823942Y-137421540D01*
X125857451Y-137417938D01*
X125862787Y-137415948D01*
X125879948Y-137409547D01*
X125994454Y-137366838D01*
X126111511Y-137279210D01*
X126199139Y-137162153D01*
X126223647Y-137096444D01*
X126265518Y-137040512D01*
X126330983Y-137016096D01*
X126399255Y-137030948D01*
X126426974Y-137052605D01*
X126427260Y-137052296D01*
X126431024Y-137055760D01*
X126431030Y-137055767D01*
X126615233Y-137199139D01*
X126615235Y-137199140D01*
X126615238Y-137199142D01*
X126734581Y-137263726D01*
X126820523Y-137310236D01*
X126906829Y-137339865D01*
X127041295Y-137386028D01*
X127041297Y-137386028D01*
X127041299Y-137386029D01*
X127271538Y-137424449D01*
X127271539Y-137424449D01*
X127504961Y-137424449D01*
X127504962Y-137424449D01*
X127735201Y-137386029D01*
X127955977Y-137310236D01*
X128161267Y-137199139D01*
X128345470Y-137055767D01*
X128430138Y-136963793D01*
X130738050Y-136963793D01*
X130744451Y-137023322D01*
X130753326Y-137047119D01*
X131693600Y-136106845D01*
X131694377Y-136117214D01*
X131743937Y-136243490D01*
X131828515Y-136349548D01*
X131940597Y-136425965D01*
X132048349Y-136459202D01*
X131106879Y-137400671D01*
X131130673Y-137409546D01*
X131130677Y-137409547D01*
X131190205Y-137415948D01*
X131190222Y-137415949D01*
X133085878Y-137415949D01*
X133085894Y-137415948D01*
X133145425Y-137409547D01*
X133169220Y-137400672D01*
X133169220Y-137400671D01*
X132226281Y-136457733D01*
X132272188Y-136450814D01*
X132394407Y-136391956D01*
X132493848Y-136299689D01*
X132561675Y-136182209D01*
X132579549Y-136103895D01*
X133522772Y-137047119D01*
X133541754Y-137042990D01*
X133548857Y-137033502D01*
X133614320Y-137009082D01*
X133682594Y-137023931D01*
X133714398Y-137048780D01*
X133720830Y-137055767D01*
X133905033Y-137199139D01*
X133905035Y-137199140D01*
X133905038Y-137199142D01*
X134024381Y-137263726D01*
X134110323Y-137310236D01*
X134196629Y-137339865D01*
X134331095Y-137386028D01*
X134331097Y-137386028D01*
X134331099Y-137386029D01*
X134561338Y-137424449D01*
X134561339Y-137424449D01*
X134794761Y-137424449D01*
X134794762Y-137424449D01*
X135025001Y-137386029D01*
X135245777Y-137310236D01*
X135451067Y-137199139D01*
X135635270Y-137055767D01*
X135641696Y-137048785D01*
X135701579Y-137012796D01*
X135771417Y-137014893D01*
X135811462Y-137042362D01*
X135833326Y-137047119D01*
X136773599Y-136106845D01*
X136774377Y-136117214D01*
X136823937Y-136243490D01*
X136908515Y-136349548D01*
X137020597Y-136425965D01*
X137128349Y-136459202D01*
X136186879Y-137400671D01*
X136210673Y-137409546D01*
X136210677Y-137409547D01*
X136270205Y-137415948D01*
X136270222Y-137415949D01*
X138165878Y-137415949D01*
X138165894Y-137415948D01*
X138225425Y-137409547D01*
X138249220Y-137400672D01*
X138249220Y-137400671D01*
X137306281Y-136457733D01*
X137352188Y-136450814D01*
X137474407Y-136391956D01*
X137573848Y-136299689D01*
X137641675Y-136182209D01*
X137659549Y-136103895D01*
X138602772Y-137047119D01*
X138621754Y-137042990D01*
X138628857Y-137033502D01*
X138694320Y-137009082D01*
X138762594Y-137023931D01*
X138794398Y-137048780D01*
X138800830Y-137055767D01*
X138985033Y-137199139D01*
X138985035Y-137199140D01*
X138985038Y-137199142D01*
X139104381Y-137263726D01*
X139190323Y-137310236D01*
X139276629Y-137339865D01*
X139411095Y-137386028D01*
X139411097Y-137386028D01*
X139411099Y-137386029D01*
X139641338Y-137424449D01*
X139641339Y-137424449D01*
X139874761Y-137424449D01*
X139874762Y-137424449D01*
X140105001Y-137386029D01*
X140325777Y-137310236D01*
X140531067Y-137199139D01*
X140715270Y-137055767D01*
X140721696Y-137048785D01*
X140781579Y-137012796D01*
X140851417Y-137014893D01*
X140891462Y-137042362D01*
X140913326Y-137047119D01*
X141853599Y-136106845D01*
X141854377Y-136117214D01*
X141903937Y-136243490D01*
X141988515Y-136349548D01*
X142100597Y-136425965D01*
X142208349Y-136459202D01*
X141266879Y-137400671D01*
X141290673Y-137409546D01*
X141290677Y-137409547D01*
X141350205Y-137415948D01*
X141350222Y-137415949D01*
X143245878Y-137415949D01*
X143245894Y-137415948D01*
X143305425Y-137409547D01*
X143329220Y-137400672D01*
X143329220Y-137400671D01*
X142386281Y-136457733D01*
X142432188Y-136450814D01*
X142554407Y-136391956D01*
X142653848Y-136299689D01*
X142721675Y-136182209D01*
X142739549Y-136103896D01*
X143682772Y-137047119D01*
X143701754Y-137042990D01*
X143708857Y-137033502D01*
X143774320Y-137009082D01*
X143842594Y-137023931D01*
X143874398Y-137048780D01*
X143880830Y-137055767D01*
X144065033Y-137199139D01*
X144065035Y-137199140D01*
X144065038Y-137199142D01*
X144184381Y-137263726D01*
X144270323Y-137310236D01*
X144356629Y-137339865D01*
X144491095Y-137386028D01*
X144491097Y-137386028D01*
X144491099Y-137386029D01*
X144721338Y-137424449D01*
X144721339Y-137424449D01*
X144954761Y-137424449D01*
X144954762Y-137424449D01*
X145185001Y-137386029D01*
X145405777Y-137310236D01*
X145611067Y-137199139D01*
X145795270Y-137055767D01*
X145801696Y-137048785D01*
X145861579Y-137012796D01*
X145931417Y-137014893D01*
X145971462Y-137042362D01*
X145993326Y-137047119D01*
X146933599Y-136106845D01*
X146934377Y-136117214D01*
X146983937Y-136243490D01*
X147068515Y-136349548D01*
X147180597Y-136425965D01*
X147288349Y-136459202D01*
X146346878Y-137400671D01*
X146370673Y-137409546D01*
X146370677Y-137409547D01*
X146430205Y-137415948D01*
X146430222Y-137415949D01*
X148325878Y-137415949D01*
X148325894Y-137415948D01*
X148385425Y-137409547D01*
X148409220Y-137400672D01*
X148409220Y-137400671D01*
X147466281Y-136457733D01*
X147512188Y-136450814D01*
X147634407Y-136391956D01*
X147733848Y-136299689D01*
X147801675Y-136182209D01*
X147819549Y-136103896D01*
X148762772Y-137047119D01*
X148781754Y-137042990D01*
X148788857Y-137033502D01*
X148854320Y-137009082D01*
X148922594Y-137023931D01*
X148954398Y-137048780D01*
X148960830Y-137055767D01*
X149145033Y-137199139D01*
X149145035Y-137199140D01*
X149145038Y-137199142D01*
X149264381Y-137263726D01*
X149350323Y-137310236D01*
X149436629Y-137339865D01*
X149571095Y-137386028D01*
X149571097Y-137386028D01*
X149571099Y-137386029D01*
X149801338Y-137424449D01*
X149801339Y-137424449D01*
X150034761Y-137424449D01*
X150034762Y-137424449D01*
X150265001Y-137386029D01*
X150485777Y-137310236D01*
X150691067Y-137199139D01*
X150875270Y-137055767D01*
X150881696Y-137048785D01*
X150941579Y-137012796D01*
X151011417Y-137014893D01*
X151051462Y-137042362D01*
X151073326Y-137047119D01*
X152013599Y-136106845D01*
X152014377Y-136117214D01*
X152063937Y-136243490D01*
X152148515Y-136349548D01*
X152260597Y-136425965D01*
X152368349Y-136459202D01*
X151426879Y-137400671D01*
X151450673Y-137409546D01*
X151450677Y-137409547D01*
X151510205Y-137415948D01*
X151510222Y-137415949D01*
X153405878Y-137415949D01*
X153405894Y-137415948D01*
X153465425Y-137409547D01*
X153489220Y-137400672D01*
X153489220Y-137400671D01*
X152546281Y-136457733D01*
X152592188Y-136450814D01*
X152714407Y-136391956D01*
X152813848Y-136299689D01*
X152881675Y-136182209D01*
X152899549Y-136103896D01*
X153842772Y-137047119D01*
X153861754Y-137042990D01*
X153868857Y-137033502D01*
X153934320Y-137009082D01*
X154002594Y-137023931D01*
X154034398Y-137048780D01*
X154040830Y-137055767D01*
X154225033Y-137199139D01*
X154225035Y-137199140D01*
X154225038Y-137199142D01*
X154344381Y-137263726D01*
X154430323Y-137310236D01*
X154516629Y-137339865D01*
X154651095Y-137386028D01*
X154651097Y-137386028D01*
X154651099Y-137386029D01*
X154881338Y-137424449D01*
X154881339Y-137424449D01*
X155114761Y-137424449D01*
X155114762Y-137424449D01*
X155345001Y-137386029D01*
X155565777Y-137310236D01*
X155771067Y-137199139D01*
X155955270Y-137055767D01*
X155961696Y-137048785D01*
X156021579Y-137012796D01*
X156091417Y-137014893D01*
X156131462Y-137042362D01*
X156153326Y-137047119D01*
X157093599Y-136106845D01*
X157094377Y-136117214D01*
X157143937Y-136243490D01*
X157228515Y-136349548D01*
X157340597Y-136425965D01*
X157448349Y-136459202D01*
X156506879Y-137400671D01*
X156530673Y-137409546D01*
X156530677Y-137409547D01*
X156590205Y-137415948D01*
X156590222Y-137415949D01*
X158485878Y-137415949D01*
X158485894Y-137415948D01*
X158545425Y-137409547D01*
X158569220Y-137400672D01*
X158569220Y-137400671D01*
X157626281Y-136457733D01*
X157672188Y-136450814D01*
X157794407Y-136391956D01*
X157893848Y-136299689D01*
X157961675Y-136182209D01*
X157979549Y-136103896D01*
X158922772Y-137047119D01*
X158941754Y-137042990D01*
X158948857Y-137033502D01*
X159014320Y-137009082D01*
X159082594Y-137023931D01*
X159114398Y-137048780D01*
X159120830Y-137055767D01*
X159305033Y-137199139D01*
X159305035Y-137199140D01*
X159305038Y-137199142D01*
X159424381Y-137263726D01*
X159510323Y-137310236D01*
X159596629Y-137339865D01*
X159731095Y-137386028D01*
X159731097Y-137386028D01*
X159731099Y-137386029D01*
X159961338Y-137424449D01*
X159961339Y-137424449D01*
X160194761Y-137424449D01*
X160194762Y-137424449D01*
X160425001Y-137386029D01*
X160645777Y-137310236D01*
X160851067Y-137199139D01*
X161035270Y-137055767D01*
X161041696Y-137048785D01*
X161101579Y-137012796D01*
X161171417Y-137014893D01*
X161211462Y-137042362D01*
X161233326Y-137047119D01*
X162173599Y-136106845D01*
X162174377Y-136117214D01*
X162223937Y-136243490D01*
X162308515Y-136349548D01*
X162420597Y-136425965D01*
X162528349Y-136459202D01*
X161586878Y-137400671D01*
X161610673Y-137409546D01*
X161610677Y-137409547D01*
X161670205Y-137415948D01*
X161670222Y-137415949D01*
X163565878Y-137415949D01*
X163565894Y-137415948D01*
X163625425Y-137409547D01*
X163649220Y-137400672D01*
X163649220Y-137400671D01*
X162706281Y-136457733D01*
X162752188Y-136450814D01*
X162874407Y-136391956D01*
X162973848Y-136299689D01*
X163041675Y-136182209D01*
X163059549Y-136103896D01*
X164002772Y-137047119D01*
X164021754Y-137042990D01*
X164028857Y-137033502D01*
X164094320Y-137009082D01*
X164162594Y-137023931D01*
X164194398Y-137048780D01*
X164200830Y-137055767D01*
X164385033Y-137199139D01*
X164385035Y-137199140D01*
X164385038Y-137199142D01*
X164504381Y-137263726D01*
X164590323Y-137310236D01*
X164676629Y-137339865D01*
X164811095Y-137386028D01*
X164811097Y-137386028D01*
X164811099Y-137386029D01*
X165041338Y-137424449D01*
X165041339Y-137424449D01*
X165274761Y-137424449D01*
X165274762Y-137424449D01*
X165505001Y-137386029D01*
X165725777Y-137310236D01*
X165931067Y-137199139D01*
X166115270Y-137055767D01*
X166121696Y-137048785D01*
X166181579Y-137012796D01*
X166251417Y-137014893D01*
X166291462Y-137042362D01*
X166313326Y-137047119D01*
X167253599Y-136106845D01*
X167254377Y-136117214D01*
X167303937Y-136243490D01*
X167388515Y-136349548D01*
X167500597Y-136425965D01*
X167608349Y-136459202D01*
X166666879Y-137400671D01*
X166690673Y-137409546D01*
X166690677Y-137409547D01*
X166750205Y-137415948D01*
X166750222Y-137415949D01*
X168645878Y-137415949D01*
X168645894Y-137415948D01*
X168705425Y-137409547D01*
X168729220Y-137400672D01*
X168729220Y-137400671D01*
X167786281Y-136457733D01*
X167832188Y-136450814D01*
X167954407Y-136391956D01*
X168053848Y-136299689D01*
X168121675Y-136182209D01*
X168139549Y-136103896D01*
X169082772Y-137047119D01*
X169101754Y-137042990D01*
X169108857Y-137033502D01*
X169174320Y-137009082D01*
X169242594Y-137023931D01*
X169274398Y-137048780D01*
X169280830Y-137055767D01*
X169465033Y-137199139D01*
X169465035Y-137199140D01*
X169465038Y-137199142D01*
X169584381Y-137263726D01*
X169670323Y-137310236D01*
X169756629Y-137339865D01*
X169891095Y-137386028D01*
X169891097Y-137386028D01*
X169891099Y-137386029D01*
X170121338Y-137424449D01*
X170121339Y-137424449D01*
X170354761Y-137424449D01*
X170354762Y-137424449D01*
X170585001Y-137386029D01*
X170805777Y-137310236D01*
X171011067Y-137199139D01*
X171195270Y-137055767D01*
X171353364Y-136884032D01*
X171481034Y-136688618D01*
X171574799Y-136474856D01*
X171632101Y-136248575D01*
X171642986Y-136117214D01*
X171651377Y-136015954D01*
X171651377Y-136015943D01*
X171632101Y-135783326D01*
X171632101Y-135783323D01*
X171574799Y-135557042D01*
X171481034Y-135343280D01*
X171437720Y-135276983D01*
X171353363Y-135147864D01*
X171195273Y-134976134D01*
X171195272Y-134976133D01*
X171195270Y-134976131D01*
X171011067Y-134832759D01*
X171011065Y-134832758D01*
X171011064Y-134832757D01*
X171011061Y-134832755D01*
X170805783Y-134721665D01*
X170805780Y-134721664D01*
X170805777Y-134721662D01*
X170805771Y-134721660D01*
X170805769Y-134721659D01*
X170585004Y-134645869D01*
X170404939Y-134615822D01*
X170354762Y-134607449D01*
X170121338Y-134607449D01*
X170121337Y-134607449D01*
X170030758Y-134622563D01*
X169961393Y-134614181D01*
X169907572Y-134569627D01*
X169886381Y-134503048D01*
X169886350Y-134500254D01*
X169886350Y-133307823D01*
X169906035Y-133240784D01*
X169939227Y-133206248D01*
X170032626Y-133140850D01*
X170182151Y-132991325D01*
X170303439Y-132818107D01*
X170392806Y-132626459D01*
X170447536Y-132422204D01*
X170465966Y-132211549D01*
X170447536Y-132000894D01*
X170392806Y-131796639D01*
X170303439Y-131604991D01*
X170212626Y-131475296D01*
X170182149Y-131431770D01*
X170032628Y-131282249D01*
X169949426Y-131223991D01*
X169866066Y-131165622D01*
X169822443Y-131111048D01*
X169815249Y-131041549D01*
X169846771Y-130979194D01*
X169907001Y-130943780D01*
X169937191Y-130940049D01*
X172714047Y-130940049D01*
X172781086Y-130959734D01*
X172826841Y-131012538D01*
X172836785Y-131081696D01*
X172830229Y-131107382D01*
X172785253Y-131227968D01*
X172785251Y-131227976D01*
X172778850Y-131287504D01*
X172778850Y-131885349D01*
X173763164Y-131885349D01*
X173751209Y-131897304D01*
X173693685Y-132010201D01*
X173673864Y-132135349D01*
X173693685Y-132260497D01*
X173751209Y-132373394D01*
X173763164Y-132385349D01*
X172778850Y-132385349D01*
X172778850Y-132983193D01*
X172785251Y-133042721D01*
X172785253Y-133042728D01*
X172835495Y-133177435D01*
X172835499Y-133177442D01*
X172921659Y-133292536D01*
X172921662Y-133292539D01*
X173036756Y-133378699D01*
X173036763Y-133378703D01*
X173171470Y-133428945D01*
X173171477Y-133428947D01*
X173231005Y-133435348D01*
X173231022Y-133435349D01*
X173828850Y-133435349D01*
X173828850Y-132451035D01*
X173840805Y-132462990D01*
X173953702Y-132520514D01*
X174047369Y-132535349D01*
X174110331Y-132535349D01*
X174203998Y-132520514D01*
X174316895Y-132462990D01*
X174328850Y-132451034D01*
X174328850Y-133435349D01*
X174926678Y-133435349D01*
X174926694Y-133435348D01*
X174986222Y-133428947D01*
X174986229Y-133428945D01*
X175120936Y-133378703D01*
X175120943Y-133378699D01*
X175236037Y-133292539D01*
X175236040Y-133292536D01*
X175322200Y-133177442D01*
X175322204Y-133177435D01*
X175372446Y-133042728D01*
X175374974Y-133019220D01*
X175401711Y-132954668D01*
X175459103Y-132914819D01*
X175528929Y-132912324D01*
X175589018Y-132947976D01*
X175599834Y-132961343D01*
X175612652Y-132979649D01*
X175774550Y-133141547D01*
X175962101Y-133272872D01*
X176037054Y-133307823D01*
X176169600Y-133369630D01*
X176169602Y-133369630D01*
X176169607Y-133369633D01*
X176390763Y-133428892D01*
X176549138Y-133442748D01*
X176618848Y-133448847D01*
X176618850Y-133448847D01*
X176618852Y-133448847D01*
X176650464Y-133446081D01*
X176846937Y-133428892D01*
X176901689Y-133414221D01*
X176911504Y-133411591D01*
X176981354Y-133413252D01*
X177031280Y-133443684D01*
X177307458Y-133719861D01*
X177340943Y-133781184D01*
X177343777Y-133807542D01*
X177343777Y-135843875D01*
X177324092Y-135910914D01*
X177271288Y-135956669D01*
X177202130Y-135966613D01*
X177179516Y-135961157D01*
X177136913Y-135946532D01*
X176914846Y-135909476D01*
X176689708Y-135909476D01*
X176467639Y-135946532D01*
X176254707Y-136019632D01*
X176254696Y-136019637D01*
X176056704Y-136126784D01*
X176056699Y-136126788D01*
X175879038Y-136265068D01*
X175879033Y-136265073D01*
X175726561Y-136430699D01*
X175726553Y-136430710D01*
X175603417Y-136619183D01*
X175512980Y-136825361D01*
X175457713Y-137043604D01*
X175457711Y-137043616D01*
X175439121Y-137267970D01*
X175439121Y-137267981D01*
X175457711Y-137492335D01*
X175457713Y-137492347D01*
X175512980Y-137710590D01*
X175603417Y-137916768D01*
X175726553Y-138105241D01*
X175726561Y-138105252D01*
X175871766Y-138262984D01*
X175902689Y-138325638D01*
X175894829Y-138395064D01*
X175850682Y-138449220D01*
X175823873Y-138463148D01*
X175706071Y-138507087D01*
X175589016Y-138594715D01*
X175501388Y-138711771D01*
X175450288Y-138848771D01*
X175450288Y-138848773D01*
X175443777Y-138909321D01*
X175443777Y-140706630D01*
X175450288Y-140767178D01*
X175450288Y-140767180D01*
X175500044Y-140900576D01*
X175501388Y-140904180D01*
X175589016Y-141021237D01*
X175706073Y-141108865D01*
X175843076Y-141159965D01*
X175870327Y-141162894D01*
X175903622Y-141166475D01*
X175903639Y-141166476D01*
X177700915Y-141166476D01*
X177700931Y-141166475D01*
X177727969Y-141163567D01*
X177761478Y-141159965D01*
X177898481Y-141108865D01*
X178015538Y-141021237D01*
X178103166Y-140904180D01*
X178148415Y-140782863D01*
X178190286Y-140726932D01*
X178255751Y-140702515D01*
X178324023Y-140717367D01*
X178355822Y-140742212D01*
X178419037Y-140810882D01*
X178596701Y-140949165D01*
X178596702Y-140949165D01*
X178596704Y-140949167D01*
X178723412Y-141017737D01*
X178794703Y-141056318D01*
X179007642Y-141129420D01*
X179229708Y-141166476D01*
X179454846Y-141166476D01*
X179676912Y-141129420D01*
X179889851Y-141056318D01*
X180087853Y-140949165D01*
X180265517Y-140810882D01*
X180386871Y-140679058D01*
X180417992Y-140645252D01*
X180417992Y-140645251D01*
X180417999Y-140645244D01*
X180508470Y-140506766D01*
X180561615Y-140461413D01*
X180630846Y-140451989D01*
X180694182Y-140481491D01*
X180716081Y-140506763D01*
X180806555Y-140645244D01*
X180806560Y-140645249D01*
X180806561Y-140645252D01*
X180933245Y-140782865D01*
X180959037Y-140810882D01*
X181136701Y-140949165D01*
X181136702Y-140949165D01*
X181136704Y-140949167D01*
X181263412Y-141017737D01*
X181334703Y-141056318D01*
X181547642Y-141129420D01*
X181769708Y-141166476D01*
X181994846Y-141166476D01*
X182216912Y-141129420D01*
X182429851Y-141056318D01*
X182627853Y-140949165D01*
X182805517Y-140810882D01*
X182926871Y-140679058D01*
X182957992Y-140645252D01*
X182957992Y-140645251D01*
X182957999Y-140645244D01*
X183048470Y-140506766D01*
X183101615Y-140461413D01*
X183170846Y-140451989D01*
X183234182Y-140481491D01*
X183256081Y-140506763D01*
X183346555Y-140645244D01*
X183346560Y-140645249D01*
X183346561Y-140645252D01*
X183473245Y-140782865D01*
X183499037Y-140810882D01*
X183676701Y-140949165D01*
X183676702Y-140949165D01*
X183676704Y-140949167D01*
X183803412Y-141017737D01*
X183874703Y-141056318D01*
X184087642Y-141129420D01*
X184309708Y-141166476D01*
X184534846Y-141166476D01*
X184756912Y-141129420D01*
X184969851Y-141056318D01*
X185167853Y-140949165D01*
X185345517Y-140810882D01*
X185466871Y-140679058D01*
X185497992Y-140645252D01*
X185497992Y-140645251D01*
X185497999Y-140645244D01*
X185588470Y-140506766D01*
X185641615Y-140461413D01*
X185710846Y-140451989D01*
X185774182Y-140481491D01*
X185796081Y-140506763D01*
X185886555Y-140645244D01*
X185886560Y-140645249D01*
X185886561Y-140645252D01*
X186013245Y-140782865D01*
X186039037Y-140810882D01*
X186216701Y-140949165D01*
X186216702Y-140949165D01*
X186216704Y-140949167D01*
X186343412Y-141017737D01*
X186414703Y-141056318D01*
X186627642Y-141129420D01*
X186849708Y-141166476D01*
X187074846Y-141166476D01*
X187296912Y-141129420D01*
X187509851Y-141056318D01*
X187707853Y-140949165D01*
X187885517Y-140810882D01*
X188006871Y-140679058D01*
X188037992Y-140645252D01*
X188037992Y-140645251D01*
X188037999Y-140645244D01*
X188132026Y-140501323D01*
X188185171Y-140455970D01*
X188254402Y-140446546D01*
X188317738Y-140476048D01*
X188337407Y-140498024D01*
X188464167Y-140679054D01*
X188631194Y-140846081D01*
X188824698Y-140981576D01*
X189038784Y-141081405D01*
X189038793Y-141081409D01*
X189252277Y-141138610D01*
X189252277Y-140243477D01*
X189359962Y-140292656D01*
X189466514Y-140307976D01*
X189538040Y-140307976D01*
X189644592Y-140292656D01*
X189752277Y-140243477D01*
X189752277Y-141138609D01*
X189965760Y-141081409D01*
X189965769Y-141081405D01*
X190179855Y-140981576D01*
X190373359Y-140846081D01*
X190540382Y-140679058D01*
X190675877Y-140485554D01*
X190775706Y-140271468D01*
X190775709Y-140271462D01*
X190832913Y-140057976D01*
X189935963Y-140057976D01*
X189961770Y-140017820D01*
X190002277Y-139879865D01*
X190002277Y-139736087D01*
X189961770Y-139598132D01*
X189935963Y-139557976D01*
X190832913Y-139557976D01*
X190832912Y-139557975D01*
X190775709Y-139344489D01*
X190775706Y-139344483D01*
X190675877Y-139130398D01*
X190675876Y-139130396D01*
X190540390Y-138936902D01*
X190540385Y-138936896D01*
X190373359Y-138769870D01*
X190187245Y-138639551D01*
X190143621Y-138584974D01*
X190136428Y-138515475D01*
X190167950Y-138453121D01*
X190187245Y-138436401D01*
X190373359Y-138306081D01*
X190540382Y-138139058D01*
X190675877Y-137945554D01*
X190775706Y-137731468D01*
X190775709Y-137731462D01*
X190832913Y-137517976D01*
X189935963Y-137517976D01*
X189961770Y-137477820D01*
X190002277Y-137339865D01*
X190002277Y-137196087D01*
X189961770Y-137058132D01*
X189935963Y-137017976D01*
X190832913Y-137017976D01*
X190832912Y-137017975D01*
X190775709Y-136804489D01*
X190775706Y-136804483D01*
X190675877Y-136590398D01*
X190675876Y-136590396D01*
X190540390Y-136396902D01*
X190540385Y-136396896D01*
X190373359Y-136229870D01*
X190179855Y-136094375D01*
X189965769Y-135994546D01*
X189965763Y-135994543D01*
X189752277Y-135937340D01*
X189752277Y-136832474D01*
X189644592Y-136783296D01*
X189538040Y-136767976D01*
X189466514Y-136767976D01*
X189359962Y-136783296D01*
X189252277Y-136832474D01*
X189252277Y-135925241D01*
X189271962Y-135858202D01*
X189288592Y-135837564D01*
X190423234Y-134702923D01*
X190484558Y-134669438D01*
X190510916Y-134666604D01*
X192417461Y-134666604D01*
X192433208Y-134668342D01*
X192433234Y-134668072D01*
X192441001Y-134668806D01*
X192441003Y-134668805D01*
X192441004Y-134668806D01*
X192450354Y-134668512D01*
X192510086Y-134666635D01*
X192512034Y-134666604D01*
X192540952Y-134666604D01*
X192542317Y-134666431D01*
X192547957Y-134665718D01*
X192553780Y-134665260D01*
X192579803Y-134664442D01*
X192600985Y-134663777D01*
X192610776Y-134660931D01*
X192620576Y-134658084D01*
X192639633Y-134654136D01*
X192659892Y-134651578D01*
X192703816Y-134634186D01*
X192709316Y-134632303D01*
X192754688Y-134619122D01*
X192772260Y-134608729D01*
X192789727Y-134600172D01*
X192808712Y-134592656D01*
X192846921Y-134564894D01*
X192851799Y-134561689D01*
X192892457Y-134537646D01*
X192906897Y-134523204D01*
X192921687Y-134510574D01*
X192938202Y-134498576D01*
X192968317Y-134462171D01*
X192972221Y-134457880D01*
X193986420Y-133443682D01*
X194047741Y-133410199D01*
X194106191Y-133411589D01*
X194170763Y-133428892D01*
X194329138Y-133442748D01*
X194398848Y-133448847D01*
X194398850Y-133448847D01*
X194398852Y-133448847D01*
X194468562Y-133442748D01*
X194626937Y-133428892D01*
X194848093Y-133369633D01*
X195055599Y-133272872D01*
X195243150Y-133141547D01*
X195405048Y-132979649D01*
X195536373Y-132792098D01*
X195561157Y-132738947D01*
X195607329Y-132686508D01*
X195674522Y-132667356D01*
X195741403Y-132687571D01*
X195785921Y-132738948D01*
X195808714Y-132787828D01*
X195808715Y-132787830D01*
X195939192Y-132974169D01*
X196100029Y-133135006D01*
X196286367Y-133265483D01*
X196492523Y-133361614D01*
X196492532Y-133361618D01*
X196688849Y-133414221D01*
X196688850Y-133414220D01*
X196688850Y-132451034D01*
X196700805Y-132462990D01*
X196813702Y-132520514D01*
X196907369Y-132535349D01*
X196970331Y-132535349D01*
X197063998Y-132520514D01*
X197176895Y-132462990D01*
X197188850Y-132451035D01*
X197188850Y-133414221D01*
X197385167Y-133361618D01*
X197385176Y-133361614D01*
X197591332Y-133265483D01*
X197777670Y-133135006D01*
X197938507Y-132974169D01*
X198068984Y-132787831D01*
X198165115Y-132581675D01*
X198165119Y-132581666D01*
X198217722Y-132385349D01*
X197254536Y-132385349D01*
X197266491Y-132373394D01*
X197324015Y-132260497D01*
X197343836Y-132135349D01*
X197324015Y-132010201D01*
X197266491Y-131897304D01*
X197254536Y-131885349D01*
X198217722Y-131885349D01*
X198217722Y-131885348D01*
X198165119Y-131689031D01*
X198165115Y-131689022D01*
X198068984Y-131482866D01*
X197938507Y-131296528D01*
X197777670Y-131135691D01*
X197591332Y-131005214D01*
X197385178Y-130909083D01*
X197188850Y-130856476D01*
X197188850Y-131819663D01*
X197176895Y-131807708D01*
X197063998Y-131750184D01*
X196970331Y-131735349D01*
X196907369Y-131735349D01*
X196813702Y-131750184D01*
X196700805Y-131807708D01*
X196688850Y-131819663D01*
X196688850Y-130856476D01*
X196492521Y-130909083D01*
X196286367Y-131005214D01*
X196100029Y-131135691D01*
X195939192Y-131296528D01*
X195808715Y-131482866D01*
X195785921Y-131531750D01*
X195739748Y-131584189D01*
X195672555Y-131603341D01*
X195605674Y-131583125D01*
X195561157Y-131531750D01*
X195536373Y-131478600D01*
X195405048Y-131291049D01*
X195243150Y-131129151D01*
X195055599Y-130997826D01*
X195055595Y-130997824D01*
X194848099Y-130901067D01*
X194848088Y-130901063D01*
X194626939Y-130841806D01*
X194626931Y-130841805D01*
X194398852Y-130821851D01*
X194398848Y-130821851D01*
X194170768Y-130841805D01*
X194170760Y-130841806D01*
X193949611Y-130901063D01*
X193949600Y-130901067D01*
X193742104Y-130997824D01*
X193742102Y-130997825D01*
X193742099Y-130997826D01*
X193742101Y-130997826D01*
X193554550Y-131129151D01*
X193554548Y-131129152D01*
X193554545Y-131129155D01*
X193392656Y-131291044D01*
X193392653Y-131291047D01*
X193392652Y-131291049D01*
X193349292Y-131352974D01*
X193261326Y-131478600D01*
X193241232Y-131521694D01*
X193195059Y-131574133D01*
X193127866Y-131593285D01*
X193060985Y-131573069D01*
X193016468Y-131521694D01*
X192996373Y-131478600D01*
X192996372Y-131478600D01*
X192865048Y-131291049D01*
X192703150Y-131129151D01*
X192515599Y-130997826D01*
X192515595Y-130997824D01*
X192308099Y-130901067D01*
X192308088Y-130901063D01*
X192086939Y-130841806D01*
X192086931Y-130841805D01*
X191858852Y-130821851D01*
X191858848Y-130821851D01*
X191630768Y-130841805D01*
X191630760Y-130841806D01*
X191409611Y-130901063D01*
X191409600Y-130901067D01*
X191202104Y-130997824D01*
X191202102Y-130997825D01*
X191202099Y-130997826D01*
X191202101Y-130997826D01*
X191014550Y-131129151D01*
X191014548Y-131129152D01*
X191014545Y-131129155D01*
X190852656Y-131291044D01*
X190852653Y-131291047D01*
X190852652Y-131291049D01*
X190809292Y-131352974D01*
X190721326Y-131478600D01*
X190701232Y-131521694D01*
X190655059Y-131574133D01*
X190587866Y-131593285D01*
X190520985Y-131573069D01*
X190476468Y-131521694D01*
X190456373Y-131478600D01*
X190456372Y-131478599D01*
X190325048Y-131291049D01*
X190163150Y-131129151D01*
X189975599Y-130997826D01*
X189975595Y-130997824D01*
X189768099Y-130901067D01*
X189768088Y-130901063D01*
X189546939Y-130841806D01*
X189546931Y-130841805D01*
X189318852Y-130821851D01*
X189318848Y-130821851D01*
X189090768Y-130841805D01*
X189090760Y-130841806D01*
X188869611Y-130901063D01*
X188869600Y-130901067D01*
X188662104Y-130997824D01*
X188662102Y-130997825D01*
X188662099Y-130997826D01*
X188662101Y-130997826D01*
X188474550Y-131129151D01*
X188474548Y-131129152D01*
X188474545Y-131129155D01*
X188312656Y-131291044D01*
X188312653Y-131291047D01*
X188312652Y-131291049D01*
X188269292Y-131352974D01*
X188181326Y-131478600D01*
X188165726Y-131512056D01*
X188119553Y-131564495D01*
X188098987Y-131574944D01*
X188091399Y-131577948D01*
X188021821Y-131584322D01*
X187959842Y-131552068D01*
X187933374Y-131515059D01*
X187916373Y-131478600D01*
X187785048Y-131291049D01*
X187623150Y-131129151D01*
X187435599Y-130997826D01*
X187435595Y-130997824D01*
X187228099Y-130901067D01*
X187228088Y-130901063D01*
X187006939Y-130841806D01*
X187006931Y-130841805D01*
X186778852Y-130821851D01*
X186778848Y-130821851D01*
X186550768Y-130841805D01*
X186550760Y-130841806D01*
X186329611Y-130901063D01*
X186329600Y-130901067D01*
X186122104Y-130997824D01*
X186122102Y-130997825D01*
X186122099Y-130997826D01*
X186122101Y-130997826D01*
X185934550Y-131129151D01*
X185934548Y-131129152D01*
X185934545Y-131129155D01*
X185772656Y-131291044D01*
X185772653Y-131291047D01*
X185772652Y-131291049D01*
X185729292Y-131352974D01*
X185641326Y-131478600D01*
X185621232Y-131521694D01*
X185575059Y-131574133D01*
X185507866Y-131593285D01*
X185440985Y-131573069D01*
X185396468Y-131521694D01*
X185376373Y-131478600D01*
X185376372Y-131478600D01*
X185245048Y-131291049D01*
X185083150Y-131129151D01*
X184895599Y-130997826D01*
X184895595Y-130997824D01*
X184688099Y-130901067D01*
X184688088Y-130901063D01*
X184466939Y-130841806D01*
X184466931Y-130841805D01*
X184238852Y-130821851D01*
X184238848Y-130821851D01*
X184010768Y-130841805D01*
X184010760Y-130841806D01*
X183789611Y-130901063D01*
X183789600Y-130901067D01*
X183582104Y-130997824D01*
X183582102Y-130997825D01*
X183582099Y-130997826D01*
X183582101Y-130997826D01*
X183394550Y-131129151D01*
X183394548Y-131129152D01*
X183394545Y-131129155D01*
X183232656Y-131291044D01*
X183232653Y-131291047D01*
X183232652Y-131291049D01*
X183189292Y-131352974D01*
X183101326Y-131478600D01*
X183081232Y-131521694D01*
X183035059Y-131574133D01*
X182967866Y-131593285D01*
X182900985Y-131573069D01*
X182856468Y-131521694D01*
X182836373Y-131478600D01*
X182705048Y-131291049D01*
X182543150Y-131129151D01*
X182355599Y-130997826D01*
X182355595Y-130997824D01*
X182148099Y-130901067D01*
X182148088Y-130901063D01*
X181926939Y-130841806D01*
X181926931Y-130841805D01*
X181764300Y-130827577D01*
X181699231Y-130802125D01*
X181696315Y-130798098D01*
X181657528Y-130823026D01*
X181633400Y-130827577D01*
X181470768Y-130841805D01*
X181470760Y-130841806D01*
X181249611Y-130901063D01*
X181249600Y-130901067D01*
X181042104Y-130997824D01*
X181042102Y-130997825D01*
X181042099Y-130997826D01*
X181042101Y-130997826D01*
X180854550Y-131129151D01*
X180854548Y-131129152D01*
X180854545Y-131129155D01*
X180692656Y-131291044D01*
X180692653Y-131291047D01*
X180692652Y-131291049D01*
X180649292Y-131352974D01*
X180561326Y-131478600D01*
X180541232Y-131521694D01*
X180495059Y-131574133D01*
X180427866Y-131593285D01*
X180360985Y-131573069D01*
X180316468Y-131521694D01*
X180296373Y-131478600D01*
X180296373Y-131478599D01*
X180165048Y-131291049D01*
X180003150Y-131129151D01*
X179947818Y-131090407D01*
X179895650Y-131053878D01*
X179852025Y-130999301D01*
X179844833Y-130929803D01*
X179874625Y-130869331D01*
X179897890Y-130843493D01*
X179993377Y-130678105D01*
X180052392Y-130496477D01*
X180070300Y-130326085D01*
X180096885Y-130261473D01*
X180154182Y-130221488D01*
X180193621Y-130215049D01*
X180910504Y-130215049D01*
X180977543Y-130234734D01*
X181002654Y-130256077D01*
X181087591Y-130350410D01*
X181087594Y-130350412D01*
X181087597Y-130350415D01*
X181242098Y-130462667D01*
X181416562Y-130540343D01*
X181603363Y-130580049D01*
X181622593Y-130580049D01*
X181689632Y-130599734D01*
X181698461Y-130609924D01*
X181750675Y-130582480D01*
X181775107Y-130580049D01*
X181794337Y-130580049D01*
X181981138Y-130540343D01*
X182155602Y-130462667D01*
X182310103Y-130350415D01*
X182437890Y-130208493D01*
X182533377Y-130043105D01*
X182592392Y-129861477D01*
X182610300Y-129691085D01*
X182636885Y-129626473D01*
X182694182Y-129586488D01*
X182733621Y-129580049D01*
X183601192Y-129580049D01*
X183668231Y-129599734D01*
X183674070Y-129603726D01*
X183807498Y-129700667D01*
X183981962Y-129778343D01*
X184168763Y-129818049D01*
X184359737Y-129818049D01*
X184546538Y-129778343D01*
X184721002Y-129700667D01*
X184875503Y-129588415D01*
X185003290Y-129446493D01*
X185098777Y-129281105D01*
X185157792Y-129099477D01*
X185175700Y-128929085D01*
X185202285Y-128864473D01*
X185259582Y-128824488D01*
X185299021Y-128818049D01*
X186335475Y-128818049D01*
X186385909Y-128828768D01*
X186521962Y-128889343D01*
X186708763Y-128929049D01*
X186899737Y-128929049D01*
X187086538Y-128889343D01*
X187261002Y-128811667D01*
X187415503Y-128699415D01*
X187543290Y-128557493D01*
X187638777Y-128392105D01*
X187697792Y-128210477D01*
X187717754Y-128020549D01*
X187717754Y-128020545D01*
X187717754Y-128016049D01*
X187737439Y-127949010D01*
X187790243Y-127903255D01*
X187841754Y-127892049D01*
X188636941Y-127892049D01*
X188703980Y-127911734D01*
X188729090Y-127933076D01*
X188732997Y-127937415D01*
X188887498Y-128049667D01*
X189061962Y-128127343D01*
X189248763Y-128167049D01*
X189439737Y-128167049D01*
X189626538Y-128127343D01*
X189801002Y-128049667D01*
X189955503Y-127937415D01*
X190083290Y-127795493D01*
X190178777Y-127630105D01*
X190237792Y-127448477D01*
X190257754Y-127258549D01*
X190257754Y-127258545D01*
X190257754Y-127254049D01*
X190277439Y-127187010D01*
X190330243Y-127141255D01*
X190381754Y-127130049D01*
X191176941Y-127130049D01*
X191243980Y-127149734D01*
X191269090Y-127171076D01*
X191272997Y-127175415D01*
X191427498Y-127287667D01*
X191601962Y-127365343D01*
X191788763Y-127405049D01*
X191979737Y-127405049D01*
X192166538Y-127365343D01*
X192341002Y-127287667D01*
X192495503Y-127175415D01*
X192623290Y-127033493D01*
X192718777Y-126868105D01*
X192777792Y-126686477D01*
X192797754Y-126496549D01*
X192788742Y-126410808D01*
X192801311Y-126342081D01*
X192849043Y-126291057D01*
X192912063Y-126273849D01*
X193190216Y-126273849D01*
X193205963Y-126275587D01*
X193205989Y-126275317D01*
X193213756Y-126276051D01*
X193213758Y-126276050D01*
X193213759Y-126276051D01*
X193223109Y-126275757D01*
X193282841Y-126273880D01*
X193284789Y-126273849D01*
X193313707Y-126273849D01*
X193315072Y-126273676D01*
X193320712Y-126272963D01*
X193326535Y-126272505D01*
X193352558Y-126271687D01*
X193373740Y-126271022D01*
X193383531Y-126268176D01*
X193393331Y-126265329D01*
X193412388Y-126261381D01*
X193432647Y-126258823D01*
X193476571Y-126241431D01*
X193482071Y-126239548D01*
X193527443Y-126226367D01*
X193545015Y-126215974D01*
X193562482Y-126207417D01*
X193581467Y-126199901D01*
X193619676Y-126172139D01*
X193624554Y-126168934D01*
X193665212Y-126144891D01*
X193679652Y-126130449D01*
X193694442Y-126117819D01*
X193710957Y-126105821D01*
X193741072Y-126069416D01*
X193744976Y-126065125D01*
X193986419Y-125823682D01*
X194047740Y-125790199D01*
X194106191Y-125791590D01*
X194124829Y-125796583D01*
X194170763Y-125808892D01*
X194333682Y-125823145D01*
X194398848Y-125828847D01*
X194398850Y-125828847D01*
X194398852Y-125828847D01*
X194457863Y-125823684D01*
X194626937Y-125808892D01*
X194848093Y-125749633D01*
X195055599Y-125652872D01*
X195243150Y-125521547D01*
X195405048Y-125359649D01*
X195536373Y-125172098D01*
X195556467Y-125129004D01*
X195602640Y-125076564D01*
X195669833Y-125057412D01*
X195736714Y-125077627D01*
X195781232Y-125129004D01*
X195801327Y-125172098D01*
X195932652Y-125359649D01*
X196094550Y-125521547D01*
X196282101Y-125652872D01*
X196357054Y-125687823D01*
X196489600Y-125749630D01*
X196489602Y-125749630D01*
X196489607Y-125749633D01*
X196710763Y-125808892D01*
X196873682Y-125823145D01*
X196938848Y-125828847D01*
X196938850Y-125828847D01*
X196938852Y-125828847D01*
X196997863Y-125823684D01*
X197166937Y-125808892D01*
X197388093Y-125749633D01*
X197595599Y-125652872D01*
X197783150Y-125521547D01*
X197945048Y-125359649D01*
X198076373Y-125172098D01*
X198173134Y-124964592D01*
X198232393Y-124743436D01*
X198252348Y-124515349D01*
X198232393Y-124287262D01*
X198173134Y-124066106D01*
X198076373Y-123858600D01*
X197945048Y-123671049D01*
X197783150Y-123509151D01*
X197595599Y-123377826D01*
X197567800Y-123364863D01*
X197388099Y-123281067D01*
X197388088Y-123281063D01*
X197166939Y-123221806D01*
X197166931Y-123221805D01*
X196938852Y-123201851D01*
X196938848Y-123201851D01*
X196710768Y-123221805D01*
X196710757Y-123221807D01*
X196646193Y-123239107D01*
X196576343Y-123237444D01*
X196526419Y-123207013D01*
X196320938Y-123001532D01*
X196311037Y-122989172D01*
X196310827Y-122989347D01*
X196305851Y-122983333D01*
X196305850Y-122983331D01*
X196255464Y-122936016D01*
X196254089Y-122934683D01*
X196233618Y-122914212D01*
X196231642Y-122912680D01*
X196228033Y-122909880D01*
X196223600Y-122906093D01*
X196217374Y-122900247D01*
X196189171Y-122873763D01*
X196189169Y-122873761D01*
X196171281Y-122863927D01*
X196155020Y-122853246D01*
X196138889Y-122840733D01*
X196095543Y-122821976D01*
X196090295Y-122819405D01*
X196062874Y-122804331D01*
X196048910Y-122796654D01*
X196045510Y-122795781D01*
X196029137Y-122791577D01*
X196010731Y-122785275D01*
X195991994Y-122777167D01*
X195991996Y-122777167D01*
X195945346Y-122769779D01*
X195939631Y-122768595D01*
X195919462Y-122763417D01*
X195893882Y-122756849D01*
X195893880Y-122756849D01*
X195873466Y-122756849D01*
X195854067Y-122755322D01*
X195833908Y-122752129D01*
X195833907Y-122752129D01*
X195786884Y-122756574D01*
X195781046Y-122756849D01*
X170537679Y-122756849D01*
X170521936Y-122755110D01*
X170521911Y-122755382D01*
X170514143Y-122754647D01*
X170445078Y-122756818D01*
X170443130Y-122756849D01*
X170414192Y-122756849D01*
X170407186Y-122757733D01*
X170401368Y-122758191D01*
X170354161Y-122759675D01*
X170354158Y-122759676D01*
X170334555Y-122765371D01*
X170315509Y-122769315D01*
X170295253Y-122771875D01*
X170295251Y-122771875D01*
X170295249Y-122771876D01*
X170251332Y-122789263D01*
X170245806Y-122791155D01*
X170200456Y-122804331D01*
X170182883Y-122814723D01*
X170165420Y-122823278D01*
X170146435Y-122830795D01*
X170146433Y-122830796D01*
X170108229Y-122858553D01*
X170103346Y-122861761D01*
X170062687Y-122885807D01*
X170048246Y-122900247D01*
X170033458Y-122912876D01*
X170016947Y-122924872D01*
X170016942Y-122924877D01*
X169986840Y-122961263D01*
X169982908Y-122965585D01*
X169583629Y-123364863D01*
X169522306Y-123398348D01*
X169468967Y-123397077D01*
X169468839Y-123397804D01*
X169464056Y-123396960D01*
X169463852Y-123396956D01*
X169463510Y-123396864D01*
X169463506Y-123396863D01*
X169463505Y-123396863D01*
X169463504Y-123396862D01*
X169463499Y-123396862D01*
X169252852Y-123378433D01*
X169252848Y-123378433D01*
X169042200Y-123396862D01*
X169042189Y-123396864D01*
X168837947Y-123451590D01*
X168837938Y-123451594D01*
X168646293Y-123540959D01*
X168646291Y-123540960D01*
X168473071Y-123662249D01*
X168323550Y-123811770D01*
X168202261Y-123984990D01*
X168202260Y-123984992D01*
X168112895Y-124176637D01*
X168112891Y-124176646D01*
X168058165Y-124380888D01*
X168058163Y-124380899D01*
X168039734Y-124591547D01*
X168039734Y-124591550D01*
X168057619Y-124795981D01*
X168058164Y-124802204D01*
X168071173Y-124850757D01*
X168069511Y-124920604D01*
X168030349Y-124978467D01*
X167966121Y-125005972D01*
X167951399Y-125006849D01*
X167465417Y-125006849D01*
X167398378Y-124987164D01*
X167377736Y-124970530D01*
X167329535Y-124922329D01*
X167296050Y-124861006D01*
X167297324Y-124807669D01*
X167296595Y-124807541D01*
X167297442Y-124802735D01*
X167297446Y-124802536D01*
X167297536Y-124802204D01*
X167315966Y-124591549D01*
X167297536Y-124380894D01*
X167248904Y-124199398D01*
X167242808Y-124176646D01*
X167242807Y-124176645D01*
X167242806Y-124176639D01*
X167153439Y-123984991D01*
X167032151Y-123811773D01*
X167032149Y-123811770D01*
X166882628Y-123662249D01*
X166709408Y-123540960D01*
X166709406Y-123540959D01*
X166641193Y-123509151D01*
X166517760Y-123451593D01*
X166517756Y-123451592D01*
X166517752Y-123451590D01*
X166313510Y-123396864D01*
X166313506Y-123396863D01*
X166313505Y-123396863D01*
X166313504Y-123396862D01*
X166313499Y-123396862D01*
X166102852Y-123378433D01*
X166102848Y-123378433D01*
X165892200Y-123396862D01*
X165892189Y-123396864D01*
X165687947Y-123451590D01*
X165687938Y-123451594D01*
X165496293Y-123540959D01*
X165496291Y-123540960D01*
X165323071Y-123662249D01*
X165173550Y-123811770D01*
X165052261Y-123984990D01*
X165052260Y-123984992D01*
X164962895Y-124176637D01*
X164962891Y-124176646D01*
X164908165Y-124380888D01*
X164908163Y-124380899D01*
X164889734Y-124591547D01*
X164889734Y-124591550D01*
X164908163Y-124802198D01*
X164908165Y-124802209D01*
X164962891Y-125006451D01*
X164962893Y-125006455D01*
X164962894Y-125006459D01*
X165020038Y-125129004D01*
X165052260Y-125198105D01*
X165052261Y-125198107D01*
X165173550Y-125371327D01*
X165323071Y-125520848D01*
X165323074Y-125520850D01*
X165489633Y-125637475D01*
X165533257Y-125692050D01*
X165540451Y-125761549D01*
X165508929Y-125823904D01*
X165448699Y-125859318D01*
X165418509Y-125863049D01*
X165171616Y-125863049D01*
X165104577Y-125843364D01*
X165083935Y-125826730D01*
X164179535Y-124922330D01*
X164146050Y-124861007D01*
X164147323Y-124807669D01*
X164146595Y-124807541D01*
X164147441Y-124802741D01*
X164147446Y-124802539D01*
X164147448Y-124802532D01*
X164147536Y-124802204D01*
X164165966Y-124591549D01*
X164147536Y-124380894D01*
X164098904Y-124199398D01*
X164092808Y-124176646D01*
X164092807Y-124176645D01*
X164092806Y-124176639D01*
X164003439Y-123984991D01*
X163882151Y-123811773D01*
X163882149Y-123811770D01*
X163732628Y-123662249D01*
X163559408Y-123540960D01*
X163559406Y-123540959D01*
X163491193Y-123509151D01*
X163367760Y-123451593D01*
X163367756Y-123451592D01*
X163367752Y-123451590D01*
X163163510Y-123396864D01*
X163163506Y-123396863D01*
X163163505Y-123396863D01*
X163163504Y-123396862D01*
X163163499Y-123396862D01*
X162952852Y-123378433D01*
X162952848Y-123378433D01*
X162742200Y-123396862D01*
X162742189Y-123396864D01*
X162537947Y-123451590D01*
X162537938Y-123451594D01*
X162346293Y-123540959D01*
X162346291Y-123540960D01*
X162173071Y-123662249D01*
X162023550Y-123811770D01*
X161902261Y-123984990D01*
X161902260Y-123984992D01*
X161812895Y-124176637D01*
X161812891Y-124176646D01*
X161758165Y-124380888D01*
X161758163Y-124380899D01*
X161739734Y-124591547D01*
X161739734Y-124591550D01*
X161758163Y-124802198D01*
X161758165Y-124802209D01*
X161812891Y-125006451D01*
X161812893Y-125006455D01*
X161812894Y-125006459D01*
X161870038Y-125129004D01*
X161902260Y-125198105D01*
X161902261Y-125198107D01*
X162023550Y-125371327D01*
X162173071Y-125520848D01*
X162173074Y-125520850D01*
X162346292Y-125642138D01*
X162537940Y-125731505D01*
X162742195Y-125786235D01*
X162892662Y-125799399D01*
X162952848Y-125804665D01*
X162952850Y-125804665D01*
X162952852Y-125804665D01*
X162982048Y-125802110D01*
X163163505Y-125786235D01*
X163163840Y-125786145D01*
X163163994Y-125786148D01*
X163168842Y-125785294D01*
X163169013Y-125786267D01*
X163233690Y-125787798D01*
X163283631Y-125818234D01*
X163878764Y-126413368D01*
X163912249Y-126474691D01*
X163907265Y-126544383D01*
X163865393Y-126600316D01*
X163799929Y-126624733D01*
X163791083Y-126625049D01*
X160560350Y-126625049D01*
X160493311Y-126605364D01*
X160447556Y-126552560D01*
X160436350Y-126501049D01*
X160436350Y-125687823D01*
X160456035Y-125620784D01*
X160489227Y-125586248D01*
X160582626Y-125520850D01*
X160732151Y-125371325D01*
X160853439Y-125198107D01*
X160942806Y-125006459D01*
X160997536Y-124802204D01*
X161015966Y-124591549D01*
X160997536Y-124380894D01*
X160948904Y-124199398D01*
X160942808Y-124176646D01*
X160942807Y-124176645D01*
X160942806Y-124176639D01*
X160853439Y-123984991D01*
X160732151Y-123811773D01*
X160732149Y-123811770D01*
X160582628Y-123662249D01*
X160409408Y-123540960D01*
X160409406Y-123540959D01*
X160341193Y-123509151D01*
X160217760Y-123451593D01*
X160217756Y-123451592D01*
X160217752Y-123451590D01*
X160013510Y-123396864D01*
X160013506Y-123396863D01*
X160013505Y-123396863D01*
X160013504Y-123396862D01*
X160013499Y-123396862D01*
X159802852Y-123378433D01*
X159802848Y-123378433D01*
X159592200Y-123396862D01*
X159592189Y-123396864D01*
X159387947Y-123451590D01*
X159387938Y-123451594D01*
X159196293Y-123540959D01*
X159196291Y-123540960D01*
X159023071Y-123662249D01*
X158873550Y-123811770D01*
X158752261Y-123984990D01*
X158752260Y-123984992D01*
X158662895Y-124176637D01*
X158662891Y-124176646D01*
X158608165Y-124380888D01*
X158608163Y-124380899D01*
X158589734Y-124591547D01*
X158589734Y-124591550D01*
X158608163Y-124802198D01*
X158608165Y-124802209D01*
X158662891Y-125006451D01*
X158662893Y-125006455D01*
X158662894Y-125006459D01*
X158720038Y-125129004D01*
X158752260Y-125198105D01*
X158752261Y-125198107D01*
X158873550Y-125371327D01*
X159023071Y-125520848D01*
X159116473Y-125586248D01*
X159160098Y-125640824D01*
X159169350Y-125687823D01*
X159169350Y-127097515D01*
X159167611Y-127113262D01*
X159167882Y-127113288D01*
X159167147Y-127121055D01*
X159169319Y-127190139D01*
X159169350Y-127192087D01*
X159169350Y-127221008D01*
X159170234Y-127228005D01*
X159170692Y-127233828D01*
X159172176Y-127281038D01*
X159172177Y-127281040D01*
X159177872Y-127300644D01*
X159181817Y-127319691D01*
X159184376Y-127339946D01*
X159184377Y-127339949D01*
X159184378Y-127339953D01*
X159201726Y-127383770D01*
X159203561Y-127389101D01*
X159204431Y-127392060D01*
X159204463Y-127461930D01*
X159166715Y-127520725D01*
X159103173Y-127549779D01*
X159085470Y-127551049D01*
X157410350Y-127551049D01*
X157343311Y-127531364D01*
X157297556Y-127478560D01*
X157286350Y-127427049D01*
X157286350Y-125687823D01*
X157306035Y-125620784D01*
X157339227Y-125586248D01*
X157432626Y-125520850D01*
X157582151Y-125371325D01*
X157703439Y-125198107D01*
X157792806Y-125006459D01*
X157847536Y-124802204D01*
X157865966Y-124591549D01*
X157847536Y-124380894D01*
X157798904Y-124199398D01*
X157792808Y-124176646D01*
X157792807Y-124176645D01*
X157792806Y-124176639D01*
X157703439Y-123984991D01*
X157582151Y-123811773D01*
X157582149Y-123811770D01*
X157432628Y-123662249D01*
X157259408Y-123540960D01*
X157259406Y-123540959D01*
X157191193Y-123509151D01*
X157067760Y-123451593D01*
X157067756Y-123451592D01*
X157067752Y-123451590D01*
X156863510Y-123396864D01*
X156863506Y-123396863D01*
X156863505Y-123396863D01*
X156863504Y-123396862D01*
X156863499Y-123396862D01*
X156652852Y-123378433D01*
X156652848Y-123378433D01*
X156442200Y-123396862D01*
X156442189Y-123396864D01*
X156237947Y-123451590D01*
X156237938Y-123451594D01*
X156046293Y-123540959D01*
X156046291Y-123540960D01*
X155873071Y-123662249D01*
X155723550Y-123811770D01*
X155602261Y-123984990D01*
X155602260Y-123984992D01*
X155512895Y-124176637D01*
X155512891Y-124176646D01*
X155458165Y-124380888D01*
X155458163Y-124380899D01*
X155439734Y-124591547D01*
X155439734Y-124591550D01*
X155458163Y-124802198D01*
X155458165Y-124802209D01*
X155512891Y-125006451D01*
X155512893Y-125006455D01*
X155512894Y-125006459D01*
X155570038Y-125129004D01*
X155602260Y-125198105D01*
X155602261Y-125198107D01*
X155723550Y-125371327D01*
X155873071Y-125520848D01*
X155966473Y-125586248D01*
X156010098Y-125640824D01*
X156019350Y-125687823D01*
X156019350Y-127884515D01*
X156017611Y-127900262D01*
X156017882Y-127900288D01*
X156017147Y-127908055D01*
X156019319Y-127977139D01*
X156019350Y-127979087D01*
X156019350Y-128008008D01*
X156020234Y-128015005D01*
X156020692Y-128020828D01*
X156022176Y-128068038D01*
X156022177Y-128068040D01*
X156027872Y-128087644D01*
X156031817Y-128106691D01*
X156034376Y-128126946D01*
X156034377Y-128126949D01*
X156034378Y-128126953D01*
X156040891Y-128143402D01*
X156047268Y-128212980D01*
X156015015Y-128274960D01*
X155954374Y-128309664D01*
X155925599Y-128313049D01*
X154262017Y-128313049D01*
X154194978Y-128293364D01*
X154174336Y-128276730D01*
X154172669Y-128275063D01*
X154139184Y-128213740D01*
X154136350Y-128187382D01*
X154136350Y-125687823D01*
X154156035Y-125620784D01*
X154189227Y-125586248D01*
X154282626Y-125520850D01*
X154432151Y-125371325D01*
X154553439Y-125198107D01*
X154642806Y-125006459D01*
X154697536Y-124802204D01*
X154715966Y-124591549D01*
X154697536Y-124380894D01*
X154648904Y-124199398D01*
X154642808Y-124176646D01*
X154642807Y-124176645D01*
X154642806Y-124176639D01*
X154553439Y-123984991D01*
X154432151Y-123811773D01*
X154432149Y-123811770D01*
X154282628Y-123662249D01*
X154109408Y-123540960D01*
X154109406Y-123540959D01*
X154041193Y-123509151D01*
X153917760Y-123451593D01*
X153917756Y-123451592D01*
X153917752Y-123451590D01*
X153713510Y-123396864D01*
X153713506Y-123396863D01*
X153713505Y-123396863D01*
X153713504Y-123396862D01*
X153713499Y-123396862D01*
X153502852Y-123378433D01*
X153502848Y-123378433D01*
X153292200Y-123396862D01*
X153292189Y-123396864D01*
X153087947Y-123451590D01*
X153087938Y-123451594D01*
X152896293Y-123540959D01*
X152896291Y-123540960D01*
X152723071Y-123662249D01*
X152573550Y-123811770D01*
X152452261Y-123984990D01*
X152452260Y-123984992D01*
X152362895Y-124176637D01*
X152362891Y-124176646D01*
X152308165Y-124380888D01*
X152308163Y-124380899D01*
X152289734Y-124591547D01*
X152289734Y-124591550D01*
X152308163Y-124802198D01*
X152308165Y-124802209D01*
X152362891Y-125006451D01*
X152362893Y-125006455D01*
X152362894Y-125006459D01*
X152420038Y-125129004D01*
X152452260Y-125198105D01*
X152452261Y-125198107D01*
X152573550Y-125371327D01*
X152723071Y-125520848D01*
X152816473Y-125586248D01*
X152860098Y-125640824D01*
X152869350Y-125687823D01*
X152869350Y-128417515D01*
X152867611Y-128433262D01*
X152867882Y-128433288D01*
X152867147Y-128441055D01*
X152869319Y-128510139D01*
X152869350Y-128512087D01*
X152869350Y-128541008D01*
X152870234Y-128548005D01*
X152870692Y-128553828D01*
X152872176Y-128601038D01*
X152872177Y-128601040D01*
X152877872Y-128620644D01*
X152881817Y-128639691D01*
X152884376Y-128659946D01*
X152884377Y-128659949D01*
X152884378Y-128659952D01*
X152901764Y-128703865D01*
X152903656Y-128709393D01*
X152916577Y-128753865D01*
X152916832Y-128754742D01*
X152920491Y-128760929D01*
X152937672Y-128828653D01*
X152915512Y-128894916D01*
X152861046Y-128938678D01*
X152813758Y-128948049D01*
X151722016Y-128948049D01*
X151654977Y-128928364D01*
X151634335Y-128911730D01*
X151022669Y-128300063D01*
X150989184Y-128238740D01*
X150986350Y-128212382D01*
X150986350Y-125687823D01*
X151006035Y-125620784D01*
X151039227Y-125586248D01*
X151132626Y-125520850D01*
X151282151Y-125371325D01*
X151403439Y-125198107D01*
X151492806Y-125006459D01*
X151547536Y-124802204D01*
X151565966Y-124591549D01*
X151547536Y-124380894D01*
X151498904Y-124199398D01*
X151492808Y-124176646D01*
X151492807Y-124176645D01*
X151492806Y-124176639D01*
X151403439Y-123984991D01*
X151282151Y-123811773D01*
X151282149Y-123811770D01*
X151132628Y-123662249D01*
X150959408Y-123540960D01*
X150959406Y-123540959D01*
X150891193Y-123509151D01*
X150767760Y-123451593D01*
X150767756Y-123451592D01*
X150767752Y-123451590D01*
X150563510Y-123396864D01*
X150563506Y-123396863D01*
X150563505Y-123396863D01*
X150563504Y-123396862D01*
X150563499Y-123396862D01*
X150352852Y-123378433D01*
X150352848Y-123378433D01*
X150142200Y-123396862D01*
X150142189Y-123396864D01*
X149937947Y-123451590D01*
X149937938Y-123451594D01*
X149746293Y-123540959D01*
X149746291Y-123540960D01*
X149573071Y-123662249D01*
X149423550Y-123811770D01*
X149302261Y-123984990D01*
X149302260Y-123984992D01*
X149212895Y-124176637D01*
X149212891Y-124176646D01*
X149158165Y-124380888D01*
X149158163Y-124380899D01*
X149139734Y-124591547D01*
X149139734Y-124591550D01*
X149158163Y-124802198D01*
X149158165Y-124802209D01*
X149212891Y-125006451D01*
X149212893Y-125006455D01*
X149212894Y-125006459D01*
X149270038Y-125129004D01*
X149302260Y-125198105D01*
X149302261Y-125198107D01*
X149423550Y-125371327D01*
X149573071Y-125520848D01*
X149666473Y-125586248D01*
X149710098Y-125640824D01*
X149719350Y-125687823D01*
X149719350Y-128442515D01*
X149717611Y-128458262D01*
X149717882Y-128458288D01*
X149717147Y-128466055D01*
X149719319Y-128535139D01*
X149719350Y-128537087D01*
X149719350Y-128566008D01*
X149720234Y-128573005D01*
X149720692Y-128578828D01*
X149722176Y-128626038D01*
X149722177Y-128626040D01*
X149727872Y-128645644D01*
X149731817Y-128664691D01*
X149734376Y-128684946D01*
X149734377Y-128684949D01*
X149734378Y-128684952D01*
X149751764Y-128728865D01*
X149753656Y-128734393D01*
X149766831Y-128779741D01*
X149777222Y-128797311D01*
X149785782Y-128814784D01*
X149793297Y-128833766D01*
X149821059Y-128871976D01*
X149824268Y-128876861D01*
X149846140Y-128913846D01*
X149848308Y-128917511D01*
X149848312Y-128917515D01*
X149862739Y-128931942D01*
X149875377Y-128946738D01*
X149887378Y-128963256D01*
X149887381Y-128963259D01*
X149923770Y-128993362D01*
X149928081Y-128997284D01*
X150211895Y-129281098D01*
X150392164Y-129461368D01*
X150425649Y-129522691D01*
X150420665Y-129592383D01*
X150378793Y-129648316D01*
X150313329Y-129672733D01*
X150304483Y-129673049D01*
X149272017Y-129673049D01*
X149204978Y-129653364D01*
X149184336Y-129636730D01*
X147872669Y-128325062D01*
X147839184Y-128263739D01*
X147836350Y-128237381D01*
X147836350Y-125687823D01*
X147856035Y-125620784D01*
X147889227Y-125586248D01*
X147982626Y-125520850D01*
X148132151Y-125371325D01*
X148253439Y-125198107D01*
X148342806Y-125006459D01*
X148397536Y-124802204D01*
X148415966Y-124591549D01*
X148397536Y-124380894D01*
X148348904Y-124199398D01*
X148342808Y-124176646D01*
X148342807Y-124176645D01*
X148342806Y-124176639D01*
X148253439Y-123984991D01*
X148132151Y-123811773D01*
X148132149Y-123811770D01*
X147982628Y-123662249D01*
X147809408Y-123540960D01*
X147809406Y-123540959D01*
X147741193Y-123509151D01*
X147617760Y-123451593D01*
X147617756Y-123451592D01*
X147617752Y-123451590D01*
X147413510Y-123396864D01*
X147413506Y-123396863D01*
X147413505Y-123396863D01*
X147413504Y-123396862D01*
X147413499Y-123396862D01*
X147202852Y-123378433D01*
X147202848Y-123378433D01*
X146992200Y-123396862D01*
X146992189Y-123396864D01*
X146787947Y-123451590D01*
X146787938Y-123451594D01*
X146596293Y-123540959D01*
X146596291Y-123540960D01*
X146423071Y-123662249D01*
X146273550Y-123811770D01*
X146152261Y-123984990D01*
X146152260Y-123984992D01*
X146062895Y-124176637D01*
X146062891Y-124176646D01*
X146008165Y-124380888D01*
X146008163Y-124380899D01*
X145989734Y-124591547D01*
X145989734Y-124591550D01*
X146008163Y-124802198D01*
X146008165Y-124802209D01*
X146062891Y-125006451D01*
X146062893Y-125006455D01*
X146062894Y-125006459D01*
X146120038Y-125129004D01*
X146152260Y-125198105D01*
X146152261Y-125198107D01*
X146273550Y-125371327D01*
X146423071Y-125520848D01*
X146516473Y-125586248D01*
X146560098Y-125640824D01*
X146569350Y-125687823D01*
X146569350Y-128467515D01*
X146567611Y-128483262D01*
X146567882Y-128483288D01*
X146567147Y-128491055D01*
X146569319Y-128560139D01*
X146569350Y-128562087D01*
X146569350Y-128591008D01*
X146570234Y-128598005D01*
X146570692Y-128603828D01*
X146572176Y-128651038D01*
X146572177Y-128651040D01*
X146577872Y-128670644D01*
X146581817Y-128689691D01*
X146584376Y-128709946D01*
X146584377Y-128709949D01*
X146584378Y-128709952D01*
X146601764Y-128753865D01*
X146603656Y-128759393D01*
X146616831Y-128804741D01*
X146627222Y-128822311D01*
X146635782Y-128839784D01*
X146643297Y-128858766D01*
X146671059Y-128896976D01*
X146674268Y-128901861D01*
X146696140Y-128938846D01*
X146698308Y-128942511D01*
X146698312Y-128942515D01*
X146712739Y-128956942D01*
X146725376Y-128971737D01*
X146737378Y-128988256D01*
X146773781Y-129018371D01*
X146778081Y-129022284D01*
X147617274Y-129861477D01*
X148451160Y-130695363D01*
X148461066Y-130707727D01*
X148461276Y-130707554D01*
X148466250Y-130713567D01*
X148516652Y-130760897D01*
X148518026Y-130762229D01*
X148538480Y-130782683D01*
X148544052Y-130787005D01*
X148548492Y-130790798D01*
X148582928Y-130823135D01*
X148600817Y-130832969D01*
X148617081Y-130843652D01*
X148633209Y-130856162D01*
X148663641Y-130869331D01*
X148676548Y-130874916D01*
X148681795Y-130877486D01*
X148723190Y-130900244D01*
X148742968Y-130905322D01*
X148761371Y-130911623D01*
X148780102Y-130919729D01*
X148780103Y-130919729D01*
X148780105Y-130919730D01*
X148807500Y-130924068D01*
X148826747Y-130927117D01*
X148832463Y-130928300D01*
X148878220Y-130940049D01*
X148898640Y-130940049D01*
X148918039Y-130941576D01*
X148938191Y-130944767D01*
X148938192Y-130944768D01*
X148938192Y-130944767D01*
X148938193Y-130944768D01*
X148985208Y-130940324D01*
X148991046Y-130940049D01*
X149668509Y-130940049D01*
X149735548Y-130959734D01*
X149781303Y-131012538D01*
X149791247Y-131081696D01*
X149762222Y-131145252D01*
X149739635Y-131165621D01*
X149678455Y-131208459D01*
X149573071Y-131282249D01*
X149423550Y-131431770D01*
X149302261Y-131604990D01*
X149302260Y-131604992D01*
X149212895Y-131796637D01*
X149212891Y-131796646D01*
X149158165Y-132000888D01*
X149158163Y-132000899D01*
X149139734Y-132211547D01*
X149139734Y-132211550D01*
X149158163Y-132422198D01*
X149158165Y-132422209D01*
X149158257Y-132422551D01*
X149158253Y-132422707D01*
X149159105Y-132427538D01*
X149158134Y-132427709D01*
X149156596Y-132492401D01*
X149126164Y-132542328D01*
X148036764Y-133631730D01*
X147975441Y-133665215D01*
X147949083Y-133668049D01*
X147261024Y-133668049D01*
X147199084Y-133649861D01*
X147169108Y-133665618D01*
X147144676Y-133668049D01*
X146792015Y-133668049D01*
X146724976Y-133648364D01*
X146679221Y-133595560D01*
X146669277Y-133526402D01*
X146698302Y-133462846D01*
X146704334Y-133456368D01*
X146754082Y-133406620D01*
X146815405Y-133373135D01*
X146873855Y-133374525D01*
X146992195Y-133406235D01*
X147126977Y-133418026D01*
X147155483Y-133420521D01*
X147203776Y-133439411D01*
X147226089Y-133425072D01*
X147250217Y-133420521D01*
X147274683Y-133418380D01*
X147413505Y-133406235D01*
X147617760Y-133351505D01*
X147809408Y-133262138D01*
X147982626Y-133140850D01*
X148132151Y-132991325D01*
X148253439Y-132818107D01*
X148342806Y-132626459D01*
X148397536Y-132422204D01*
X148415966Y-132211549D01*
X148397536Y-132000894D01*
X148342806Y-131796639D01*
X148253439Y-131604991D01*
X148162626Y-131475296D01*
X148132149Y-131431770D01*
X147982628Y-131282249D01*
X147809408Y-131160960D01*
X147809406Y-131160959D01*
X147702371Y-131111048D01*
X147617760Y-131071593D01*
X147617756Y-131071592D01*
X147617752Y-131071590D01*
X147413510Y-131016864D01*
X147413506Y-131016863D01*
X147413505Y-131016863D01*
X147413504Y-131016862D01*
X147413499Y-131016862D01*
X147202852Y-130998433D01*
X147202848Y-130998433D01*
X146992200Y-131016862D01*
X146992189Y-131016864D01*
X146787947Y-131071590D01*
X146787938Y-131071594D01*
X146596293Y-131160959D01*
X146596291Y-131160960D01*
X146423071Y-131282249D01*
X146273550Y-131431770D01*
X146152261Y-131604990D01*
X146152260Y-131604992D01*
X146062895Y-131796637D01*
X146062891Y-131796646D01*
X146008165Y-132000888D01*
X146008163Y-132000899D01*
X145989734Y-132211547D01*
X145989734Y-132211551D01*
X145998178Y-132308073D01*
X145984411Y-132376573D01*
X145962331Y-132406561D01*
X145187164Y-133181730D01*
X145125841Y-133215215D01*
X145099483Y-133218049D01*
X136926081Y-133218049D01*
X136910329Y-133216309D01*
X136910304Y-133216581D01*
X136902542Y-133215846D01*
X136833446Y-133218018D01*
X136831498Y-133218049D01*
X136802594Y-133218049D01*
X136802591Y-133218049D01*
X136802579Y-133218050D01*
X136795587Y-133218933D01*
X136789770Y-133219390D01*
X136742564Y-133220874D01*
X136742557Y-133220875D01*
X136722950Y-133226571D01*
X136703911Y-133230514D01*
X136683661Y-133233073D01*
X136683651Y-133233075D01*
X136639741Y-133250460D01*
X136634215Y-133252352D01*
X136588862Y-133265528D01*
X136588857Y-133265530D01*
X136571283Y-133275923D01*
X136553822Y-133284477D01*
X136534836Y-133291995D01*
X136534834Y-133291996D01*
X136496622Y-133319757D01*
X136491740Y-133322964D01*
X136451087Y-133347006D01*
X136436651Y-133361443D01*
X136421865Y-133374072D01*
X136405343Y-133386077D01*
X136405341Y-133386078D01*
X136405341Y-133386079D01*
X136405338Y-133386081D01*
X136375230Y-133422474D01*
X136371299Y-133426795D01*
X135174444Y-134623649D01*
X135113121Y-134657134D01*
X135046500Y-134653249D01*
X135025004Y-134645869D01*
X134844939Y-134615822D01*
X134794762Y-134607449D01*
X134561338Y-134607449D01*
X134528696Y-134612896D01*
X134331095Y-134645869D01*
X134110330Y-134721659D01*
X134110316Y-134721665D01*
X133905038Y-134832755D01*
X133905035Y-134832757D01*
X133720831Y-134976130D01*
X133720826Y-134976134D01*
X133714396Y-134983119D01*
X133654507Y-135019106D01*
X133584669Y-135017001D01*
X133544634Y-134989534D01*
X133522772Y-134984778D01*
X132582499Y-135925051D01*
X132581723Y-135914684D01*
X132532163Y-135788408D01*
X132447585Y-135682350D01*
X132335503Y-135605933D01*
X132227750Y-135572696D01*
X133169220Y-134631225D01*
X133145423Y-134622350D01*
X133085894Y-134615949D01*
X131190207Y-134615949D01*
X131130675Y-134622350D01*
X131130665Y-134622353D01*
X131106879Y-134631223D01*
X131106879Y-134631226D01*
X132049818Y-135574164D01*
X132003912Y-135581084D01*
X131881693Y-135639942D01*
X131782252Y-135732209D01*
X131714425Y-135849689D01*
X131696550Y-135928001D01*
X130753327Y-134984778D01*
X130753324Y-134984778D01*
X130744454Y-135008564D01*
X130744451Y-135008574D01*
X130738050Y-135068106D01*
X130738050Y-136963793D01*
X128430138Y-136963793D01*
X128503564Y-136884032D01*
X128631234Y-136688618D01*
X128724999Y-136474856D01*
X128782301Y-136248575D01*
X128793186Y-136117214D01*
X128801577Y-136015954D01*
X128801577Y-136015943D01*
X128782301Y-135783326D01*
X128782301Y-135783323D01*
X128724999Y-135557042D01*
X128631234Y-135343280D01*
X128587920Y-135276983D01*
X128503563Y-135147864D01*
X128345473Y-134976134D01*
X128345472Y-134976133D01*
X128345470Y-134976131D01*
X128161267Y-134832759D01*
X128161265Y-134832758D01*
X128161264Y-134832757D01*
X128161261Y-134832755D01*
X127955983Y-134721665D01*
X127955980Y-134721664D01*
X127955977Y-134721662D01*
X127955971Y-134721660D01*
X127955969Y-134721659D01*
X127735204Y-134645869D01*
X127555139Y-134615822D01*
X127504962Y-134607449D01*
X127271538Y-134607449D01*
X127238896Y-134612896D01*
X127041295Y-134645869D01*
X126820530Y-134721659D01*
X126820516Y-134721665D01*
X126615238Y-134832755D01*
X126615235Y-134832757D01*
X126431031Y-134976130D01*
X126427260Y-134979602D01*
X126426540Y-134978820D01*
X126371149Y-135012096D01*
X126301311Y-135009983D01*
X126243702Y-134970449D01*
X126223647Y-134935452D01*
X126209852Y-134898468D01*
X126199139Y-134869745D01*
X126111511Y-134752688D01*
X125994454Y-134665060D01*
X125991014Y-134663777D01*
X125857453Y-134613960D01*
X125796904Y-134607449D01*
X125796888Y-134607449D01*
X123899612Y-134607449D01*
X123899595Y-134607449D01*
X123839047Y-134613960D01*
X123839045Y-134613960D01*
X123702045Y-134665060D01*
X123584989Y-134752688D01*
X123497361Y-134869744D01*
X123446261Y-135006744D01*
X123446261Y-135006746D01*
X123439750Y-135067294D01*
X123439750Y-136964603D01*
X108417266Y-136964603D01*
X108404478Y-136944803D01*
X108155510Y-136632607D01*
X107876695Y-136346752D01*
X107570803Y-136090078D01*
X107412195Y-135981941D01*
X107240874Y-135865136D01*
X107107456Y-135792481D01*
X106890189Y-135674164D01*
X106890181Y-135674160D01*
X106890178Y-135674159D01*
X106649614Y-135572753D01*
X106522232Y-135519057D01*
X106522227Y-135519055D01*
X106522216Y-135519051D01*
X106140663Y-135401357D01*
X106140650Y-135401354D01*
X105749277Y-135322237D01*
X105749257Y-135322234D01*
X105351934Y-135282476D01*
X105052513Y-135282476D01*
X105052498Y-135282476D01*
X104753465Y-135297400D01*
X104753452Y-135297401D01*
X104358607Y-135356916D01*
X103971639Y-135455449D01*
X103596401Y-135592025D01*
X103236635Y-135765280D01*
X102895914Y-135973490D01*
X102895903Y-135973498D01*
X102577614Y-136214593D01*
X102577603Y-136214602D01*
X102284881Y-136486208D01*
X102020663Y-136785605D01*
X101787576Y-137109811D01*
X101787563Y-137109831D01*
X101587915Y-137455631D01*
X101423681Y-137819610D01*
X101394320Y-137907001D01*
X101354309Y-137964281D01*
X101289683Y-137990836D01*
X101220958Y-137978235D01*
X101169956Y-137930480D01*
X101152777Y-137867509D01*
X101152777Y-131830550D01*
X118636734Y-131830550D01*
X118655163Y-132041198D01*
X118655165Y-132041209D01*
X118709891Y-132245451D01*
X118709893Y-132245455D01*
X118709894Y-132245459D01*
X118764908Y-132363436D01*
X118799260Y-132437105D01*
X118799261Y-132437107D01*
X118920550Y-132610327D01*
X119070071Y-132759848D01*
X119070074Y-132759850D01*
X119243292Y-132881138D01*
X119434940Y-132970505D01*
X119639195Y-133025235D01*
X119789662Y-133038399D01*
X119849848Y-133043665D01*
X119849850Y-133043665D01*
X119849852Y-133043665D01*
X119902513Y-133039057D01*
X120060505Y-133025235D01*
X120264760Y-132970505D01*
X120456408Y-132881138D01*
X120629626Y-132759850D01*
X120779151Y-132610325D01*
X120900439Y-132437107D01*
X120989806Y-132245459D01*
X121044536Y-132041204D01*
X121062966Y-131830550D01*
X126256734Y-131830550D01*
X126275163Y-132041198D01*
X126275165Y-132041209D01*
X126329891Y-132245451D01*
X126329893Y-132245455D01*
X126329894Y-132245459D01*
X126384908Y-132363436D01*
X126419260Y-132437105D01*
X126419261Y-132437107D01*
X126540550Y-132610327D01*
X126690071Y-132759848D01*
X126690074Y-132759850D01*
X126863292Y-132881138D01*
X127054940Y-132970505D01*
X127259195Y-133025235D01*
X127409662Y-133038399D01*
X127469848Y-133043665D01*
X127469850Y-133043665D01*
X127469852Y-133043665D01*
X127522513Y-133039057D01*
X127680505Y-133025235D01*
X127884760Y-132970505D01*
X128076408Y-132881138D01*
X128249626Y-132759850D01*
X128399151Y-132610325D01*
X128520439Y-132437107D01*
X128609806Y-132245459D01*
X128664536Y-132041204D01*
X128682966Y-131830549D01*
X128681990Y-131819398D01*
X128672157Y-131707005D01*
X128664536Y-131619894D01*
X128609806Y-131415639D01*
X128520439Y-131223991D01*
X128399151Y-131050773D01*
X128399149Y-131050770D01*
X128249628Y-130901249D01*
X128076408Y-130779960D01*
X128076406Y-130779959D01*
X128035476Y-130760873D01*
X127884760Y-130690593D01*
X127884756Y-130690592D01*
X127884752Y-130690590D01*
X127680510Y-130635864D01*
X127680506Y-130635863D01*
X127680505Y-130635863D01*
X127680504Y-130635862D01*
X127680499Y-130635862D01*
X127469852Y-130617433D01*
X127469848Y-130617433D01*
X127259200Y-130635862D01*
X127259189Y-130635864D01*
X127054947Y-130690590D01*
X127054938Y-130690594D01*
X126863293Y-130779959D01*
X126863291Y-130779960D01*
X126690071Y-130901249D01*
X126540550Y-131050770D01*
X126419261Y-131223990D01*
X126419260Y-131223992D01*
X126329895Y-131415637D01*
X126329891Y-131415646D01*
X126275165Y-131619888D01*
X126275163Y-131619899D01*
X126256734Y-131830547D01*
X126256734Y-131830550D01*
X121062966Y-131830550D01*
X121062966Y-131830549D01*
X121061990Y-131819398D01*
X121052157Y-131707005D01*
X121044536Y-131619894D01*
X120989806Y-131415639D01*
X120900439Y-131223991D01*
X120779151Y-131050773D01*
X120779149Y-131050770D01*
X120629628Y-130901249D01*
X120456408Y-130779960D01*
X120456406Y-130779959D01*
X120415476Y-130760873D01*
X120264760Y-130690593D01*
X120264756Y-130690592D01*
X120264752Y-130690590D01*
X120060510Y-130635864D01*
X120060506Y-130635863D01*
X120060505Y-130635863D01*
X120060504Y-130635862D01*
X120060499Y-130635862D01*
X119849852Y-130617433D01*
X119849848Y-130617433D01*
X119639200Y-130635862D01*
X119639189Y-130635864D01*
X119434947Y-130690590D01*
X119434938Y-130690594D01*
X119243293Y-130779959D01*
X119243291Y-130779960D01*
X119070071Y-130901249D01*
X118920550Y-131050770D01*
X118799261Y-131223990D01*
X118799260Y-131223992D01*
X118709895Y-131415637D01*
X118709891Y-131415646D01*
X118655165Y-131619888D01*
X118655163Y-131619899D01*
X118636734Y-131830547D01*
X118636734Y-131830550D01*
X101152777Y-131830550D01*
X101152777Y-126910382D01*
X111591374Y-126910382D01*
X111601694Y-127074409D01*
X111652482Y-127230720D01*
X111652484Y-127230724D01*
X111740548Y-127369489D01*
X111860353Y-127481994D01*
X111860361Y-127482000D01*
X111983651Y-127549779D01*
X112004382Y-127561176D01*
X112163573Y-127602049D01*
X112163577Y-127602049D01*
X112286673Y-127602049D01*
X112286675Y-127602049D01*
X112286680Y-127602048D01*
X112286684Y-127602048D01*
X112299924Y-127600375D01*
X112408808Y-127586620D01*
X112561621Y-127526117D01*
X112561628Y-127526112D01*
X112694585Y-127429514D01*
X112694585Y-127429512D01*
X112694587Y-127429512D01*
X112799350Y-127302875D01*
X112869329Y-127154162D01*
X112900126Y-126992719D01*
X112889806Y-126828689D01*
X112839018Y-126672378D01*
X112750952Y-126533609D01*
X112687031Y-126473583D01*
X112631146Y-126421103D01*
X112631138Y-126421097D01*
X112487121Y-126341923D01*
X112487111Y-126341920D01*
X112327930Y-126301049D01*
X112327927Y-126301049D01*
X112204825Y-126301049D01*
X112204815Y-126301049D01*
X112082692Y-126316478D01*
X112082689Y-126316478D01*
X111929880Y-126376980D01*
X111929871Y-126376985D01*
X111796914Y-126473583D01*
X111796912Y-126473586D01*
X111692150Y-126600222D01*
X111622170Y-126748936D01*
X111606957Y-126828688D01*
X111591374Y-126910379D01*
X111591374Y-126910381D01*
X111591374Y-126910382D01*
X101152777Y-126910382D01*
X101152777Y-123268950D01*
X129641496Y-123268950D01*
X129651495Y-123478876D01*
X129701046Y-123683127D01*
X129701048Y-123683131D01*
X129788348Y-123874292D01*
X129788351Y-123874297D01*
X129788352Y-123874299D01*
X129788354Y-123874302D01*
X129910264Y-124045501D01*
X129910265Y-124045502D01*
X129910270Y-124045508D01*
X130062370Y-124190534D01*
X130147077Y-124244972D01*
X130239178Y-124304162D01*
X130434293Y-124382274D01*
X130537478Y-124402161D01*
X130640664Y-124422049D01*
X130640665Y-124422049D01*
X130798169Y-124422049D01*
X130798175Y-124422049D01*
X130954968Y-124407077D01*
X131156625Y-124347865D01*
X131288003Y-124280135D01*
X131356607Y-124266913D01*
X131421472Y-124292881D01*
X131457018Y-124337555D01*
X131547576Y-124530000D01*
X131547580Y-124530006D01*
X131716369Y-124795977D01*
X131716372Y-124795981D01*
X131917170Y-125038702D01*
X132146802Y-125254341D01*
X132146812Y-125254349D01*
X132401643Y-125439495D01*
X132401649Y-125439498D01*
X132401655Y-125439503D01*
X132677704Y-125591262D01*
X132970596Y-125707227D01*
X132970595Y-125707227D01*
X133182168Y-125761549D01*
X133275713Y-125785567D01*
X133275717Y-125785567D01*
X133275720Y-125785568D01*
X133588233Y-125825048D01*
X133588239Y-125825048D01*
X133588243Y-125825049D01*
X133588245Y-125825049D01*
X133903255Y-125825049D01*
X133903257Y-125825049D01*
X133903262Y-125825048D01*
X133903266Y-125825048D01*
X134215779Y-125785568D01*
X134215778Y-125785568D01*
X134215787Y-125785567D01*
X134520904Y-125707227D01*
X134813796Y-125591262D01*
X135089845Y-125439503D01*
X135344696Y-125254343D01*
X135574331Y-125038701D01*
X135775129Y-124795979D01*
X135943921Y-124530004D01*
X136078048Y-124244971D01*
X136175392Y-123945375D01*
X136234420Y-123635941D01*
X136246019Y-123451594D01*
X136254200Y-123321554D01*
X136254200Y-123321543D01*
X136234421Y-123007164D01*
X136231500Y-122991850D01*
X136175392Y-122697723D01*
X136078048Y-122398127D01*
X136078045Y-122398120D01*
X135943923Y-122113097D01*
X135943919Y-122113091D01*
X135775130Y-121847120D01*
X135775127Y-121847116D01*
X135574329Y-121604395D01*
X135344697Y-121388756D01*
X135344687Y-121388748D01*
X135089856Y-121203602D01*
X135089838Y-121203591D01*
X134813795Y-121051835D01*
X134813792Y-121051834D01*
X134520901Y-120935870D01*
X134520904Y-120935870D01*
X134215790Y-120857531D01*
X134215779Y-120857529D01*
X133903266Y-120818049D01*
X133903257Y-120818049D01*
X133588243Y-120818049D01*
X133588233Y-120818049D01*
X133275720Y-120857529D01*
X133275709Y-120857531D01*
X132970596Y-120935870D01*
X132677707Y-121051834D01*
X132677704Y-121051835D01*
X132401661Y-121203591D01*
X132401643Y-121203602D01*
X132146812Y-121388748D01*
X132146802Y-121388756D01*
X131917170Y-121604395D01*
X131716372Y-121847116D01*
X131716369Y-121847120D01*
X131547580Y-122113091D01*
X131547576Y-122113098D01*
X131457655Y-122304188D01*
X131411300Y-122356466D01*
X131344040Y-122375383D01*
X131278418Y-122355707D01*
X131252322Y-122338936D01*
X131057205Y-122260823D01*
X130850836Y-122221049D01*
X130850835Y-122221049D01*
X130693325Y-122221049D01*
X130536531Y-122236020D01*
X130536532Y-122236021D01*
X130536528Y-122236022D01*
X130334877Y-122295232D01*
X130148063Y-122391540D01*
X129982866Y-122521454D01*
X129982862Y-122521458D01*
X129845228Y-122680295D01*
X129740148Y-122862299D01*
X129671406Y-123060914D01*
X129671406Y-123060916D01*
X129643123Y-123257636D01*
X129641496Y-123268950D01*
X101152777Y-123268950D01*
X101152777Y-116336549D01*
X138519746Y-116336549D01*
X138539708Y-116526477D01*
X138539709Y-116526480D01*
X138598720Y-116708098D01*
X138598723Y-116708105D01*
X138694210Y-116873493D01*
X138821997Y-117015415D01*
X138976498Y-117127667D01*
X139150962Y-117205343D01*
X139337763Y-117245049D01*
X139528737Y-117245049D01*
X139715538Y-117205343D01*
X139890002Y-117127667D01*
X140044503Y-117015415D01*
X140172290Y-116873493D01*
X140267777Y-116708105D01*
X140326792Y-116526477D01*
X140335281Y-116445699D01*
X140361864Y-116381086D01*
X140370912Y-116370989D01*
X140914263Y-115827638D01*
X140926627Y-115817735D01*
X140926453Y-115817525D01*
X140932465Y-115812551D01*
X140932465Y-115812550D01*
X140932468Y-115812549D01*
X140979799Y-115762145D01*
X140981070Y-115760832D01*
X141001585Y-115740319D01*
X141005911Y-115734741D01*
X141009700Y-115730304D01*
X141042036Y-115695870D01*
X141051869Y-115677981D01*
X141062548Y-115661724D01*
X141075064Y-115645590D01*
X141075064Y-115645587D01*
X141075365Y-115645201D01*
X141132010Y-115604297D01*
X141201777Y-115600511D01*
X141262516Y-115635044D01*
X141265491Y-115638234D01*
X141357408Y-115740319D01*
X141361997Y-115745415D01*
X141516498Y-115857667D01*
X141690962Y-115935343D01*
X141877763Y-115975049D01*
X142068737Y-115975049D01*
X142255538Y-115935343D01*
X142430002Y-115857667D01*
X142584503Y-115745415D01*
X142712290Y-115603493D01*
X142807777Y-115438105D01*
X142866792Y-115256477D01*
X142886754Y-115066549D01*
X142866792Y-114876621D01*
X142807777Y-114694993D01*
X142712290Y-114529605D01*
X142698545Y-114514340D01*
X142668316Y-114451350D01*
X142676940Y-114382014D01*
X142703011Y-114343690D01*
X144887162Y-112159539D01*
X144948483Y-112126056D01*
X145018175Y-112131040D01*
X145074108Y-112172912D01*
X145094616Y-112215129D01*
X145125891Y-112331851D01*
X145125893Y-112331855D01*
X145125894Y-112331859D01*
X145169847Y-112426117D01*
X145215260Y-112523505D01*
X145215261Y-112523507D01*
X145336550Y-112696727D01*
X145486071Y-112846248D01*
X145486074Y-112846250D01*
X145659292Y-112967538D01*
X145850940Y-113056905D01*
X145866239Y-113061004D01*
X145889264Y-113067174D01*
X145948924Y-113103539D01*
X145979453Y-113166386D01*
X145971158Y-113235762D01*
X145926673Y-113289640D01*
X145889264Y-113306724D01*
X145850944Y-113316991D01*
X145850938Y-113316994D01*
X145659293Y-113406359D01*
X145659291Y-113406360D01*
X145486071Y-113527649D01*
X145336550Y-113677170D01*
X145215261Y-113850390D01*
X145215260Y-113850392D01*
X145125895Y-114042037D01*
X145125891Y-114042046D01*
X145071165Y-114246288D01*
X145071163Y-114246299D01*
X145052734Y-114456947D01*
X145052734Y-114456950D01*
X145071163Y-114667598D01*
X145071165Y-114667609D01*
X145125891Y-114871851D01*
X145125893Y-114871855D01*
X145125894Y-114871859D01*
X145128113Y-114876617D01*
X145215260Y-115063505D01*
X145215261Y-115063507D01*
X145336550Y-115236727D01*
X145486071Y-115386248D01*
X145486074Y-115386250D01*
X145659292Y-115507538D01*
X145850940Y-115596905D01*
X145850946Y-115596906D01*
X145850947Y-115596907D01*
X145875519Y-115603491D01*
X146055195Y-115651635D01*
X146205662Y-115664799D01*
X146265848Y-115670065D01*
X146265850Y-115670065D01*
X146265852Y-115670065D01*
X146318513Y-115665457D01*
X146476505Y-115651635D01*
X146680760Y-115596905D01*
X146872408Y-115507538D01*
X147045626Y-115386250D01*
X147195151Y-115236725D01*
X147316439Y-115063507D01*
X147405806Y-114871859D01*
X147460536Y-114667604D01*
X147478966Y-114456950D01*
X152672734Y-114456950D01*
X152691163Y-114667598D01*
X152691165Y-114667609D01*
X152745891Y-114871851D01*
X152745893Y-114871855D01*
X152745894Y-114871859D01*
X152748113Y-114876617D01*
X152835260Y-115063505D01*
X152835261Y-115063507D01*
X152956550Y-115236727D01*
X153106071Y-115386248D01*
X153106074Y-115386250D01*
X153279292Y-115507538D01*
X153470940Y-115596905D01*
X153470946Y-115596906D01*
X153470947Y-115596907D01*
X153495519Y-115603491D01*
X153675195Y-115651635D01*
X153825662Y-115664799D01*
X153885848Y-115670065D01*
X153885850Y-115670065D01*
X153885852Y-115670065D01*
X153938513Y-115665457D01*
X154096505Y-115651635D01*
X154300760Y-115596905D01*
X154492408Y-115507538D01*
X154665626Y-115386250D01*
X154815151Y-115236725D01*
X154936439Y-115063507D01*
X155025806Y-114871859D01*
X155080536Y-114667604D01*
X155098966Y-114456949D01*
X155080536Y-114246294D01*
X155025806Y-114042039D01*
X154936439Y-113850391D01*
X154815151Y-113677173D01*
X154815149Y-113677170D01*
X154665628Y-113527649D01*
X154492408Y-113406360D01*
X154492406Y-113406359D01*
X154470921Y-113396340D01*
X154300760Y-113316993D01*
X154300756Y-113316992D01*
X154300752Y-113316990D01*
X154262436Y-113306724D01*
X154202775Y-113270359D01*
X154188042Y-113240030D01*
X194540177Y-113240030D01*
X194546688Y-113300578D01*
X194546688Y-113300580D01*
X194586143Y-113406359D01*
X194597788Y-113437580D01*
X194685416Y-113554637D01*
X194802473Y-113642265D01*
X194939476Y-113693365D01*
X194966727Y-113696294D01*
X195000022Y-113699875D01*
X195000039Y-113699876D01*
X196797315Y-113699876D01*
X196797331Y-113699875D01*
X196824369Y-113696967D01*
X196857878Y-113693365D01*
X196994881Y-113642265D01*
X197111938Y-113554637D01*
X197199566Y-113437580D01*
X197244815Y-113316263D01*
X197286686Y-113260332D01*
X197352151Y-113235915D01*
X197420423Y-113250767D01*
X197452222Y-113275612D01*
X197515437Y-113344282D01*
X197693101Y-113482565D01*
X197693102Y-113482565D01*
X197693104Y-113482567D01*
X197776407Y-113527648D01*
X197891103Y-113589718D01*
X198104042Y-113662820D01*
X198326108Y-113699876D01*
X198551246Y-113699876D01*
X198773312Y-113662820D01*
X198986251Y-113589718D01*
X199184253Y-113482565D01*
X199361917Y-113344282D01*
X199487823Y-113207513D01*
X199514392Y-113178652D01*
X199514393Y-113178650D01*
X199514399Y-113178644D01*
X199637537Y-112990167D01*
X199727973Y-112783992D01*
X199783241Y-112565744D01*
X199801833Y-112341376D01*
X199801044Y-112331860D01*
X199783242Y-112117016D01*
X199783240Y-112117004D01*
X199732579Y-111916949D01*
X199727973Y-111898760D01*
X199637537Y-111692585D01*
X199514399Y-111504108D01*
X199514396Y-111504105D01*
X199514392Y-111504099D01*
X199361920Y-111338473D01*
X199361915Y-111338468D01*
X199184254Y-111200188D01*
X199184249Y-111200184D01*
X198986257Y-111093037D01*
X198986254Y-111093035D01*
X198986251Y-111093034D01*
X198986248Y-111093033D01*
X198986246Y-111093032D01*
X198773314Y-111019932D01*
X198551246Y-110982876D01*
X198326108Y-110982876D01*
X198104039Y-111019932D01*
X197891107Y-111093032D01*
X197891096Y-111093037D01*
X197693104Y-111200184D01*
X197693099Y-111200188D01*
X197515438Y-111338468D01*
X197452225Y-111407136D01*
X197392338Y-111443126D01*
X197322500Y-111441025D01*
X197264884Y-111401500D01*
X197244815Y-111366486D01*
X197199566Y-111245172D01*
X197165891Y-111200188D01*
X197111938Y-111128115D01*
X196994881Y-111040487D01*
X196994881Y-111040486D01*
X196857880Y-110989387D01*
X196797331Y-110982876D01*
X196797315Y-110982876D01*
X195000039Y-110982876D01*
X195000022Y-110982876D01*
X194939474Y-110989387D01*
X194939472Y-110989387D01*
X194802472Y-111040487D01*
X194685416Y-111128115D01*
X194597788Y-111245171D01*
X194546688Y-111382171D01*
X194546688Y-111382173D01*
X194540177Y-111442721D01*
X194540177Y-113240030D01*
X154188042Y-113240030D01*
X154172246Y-113207513D01*
X154180540Y-113138137D01*
X154225025Y-113084259D01*
X154262436Y-113067174D01*
X154278890Y-113062765D01*
X154300760Y-113056905D01*
X154492408Y-112967538D01*
X154665626Y-112846250D01*
X154815151Y-112696725D01*
X154936439Y-112523507D01*
X155025806Y-112331859D01*
X155080536Y-112127604D01*
X155098966Y-111916949D01*
X155080536Y-111706294D01*
X155038979Y-111551204D01*
X155025808Y-111502046D01*
X155025807Y-111502045D01*
X155025806Y-111502039D01*
X154936439Y-111310391D01*
X154815151Y-111137173D01*
X154815149Y-111137170D01*
X154665628Y-110987649D01*
X154492408Y-110866360D01*
X154492406Y-110866359D01*
X154373098Y-110810725D01*
X154300760Y-110776993D01*
X154300756Y-110776992D01*
X154300752Y-110776990D01*
X154096510Y-110722264D01*
X154096506Y-110722263D01*
X154096505Y-110722263D01*
X154096504Y-110722262D01*
X154096499Y-110722262D01*
X153885852Y-110703833D01*
X153885848Y-110703833D01*
X153675200Y-110722262D01*
X153675189Y-110722264D01*
X153470947Y-110776990D01*
X153470938Y-110776994D01*
X153279293Y-110866359D01*
X153279291Y-110866360D01*
X153106071Y-110987649D01*
X152956550Y-111137170D01*
X152835261Y-111310390D01*
X152835260Y-111310392D01*
X152745895Y-111502037D01*
X152745891Y-111502046D01*
X152691165Y-111706288D01*
X152691163Y-111706299D01*
X152672734Y-111916947D01*
X152672734Y-111916950D01*
X152691163Y-112127598D01*
X152691165Y-112127609D01*
X152745891Y-112331851D01*
X152745893Y-112331855D01*
X152745894Y-112331859D01*
X152789847Y-112426117D01*
X152835260Y-112523505D01*
X152835261Y-112523507D01*
X152956550Y-112696727D01*
X153106071Y-112846248D01*
X153106074Y-112846250D01*
X153279292Y-112967538D01*
X153470940Y-113056905D01*
X153486239Y-113061004D01*
X153509264Y-113067174D01*
X153568924Y-113103539D01*
X153599453Y-113166386D01*
X153591158Y-113235762D01*
X153546673Y-113289640D01*
X153509264Y-113306724D01*
X153470944Y-113316991D01*
X153470938Y-113316994D01*
X153279293Y-113406359D01*
X153279291Y-113406360D01*
X153106071Y-113527649D01*
X152956550Y-113677170D01*
X152835261Y-113850390D01*
X152835260Y-113850392D01*
X152745895Y-114042037D01*
X152745891Y-114042046D01*
X152691165Y-114246288D01*
X152691163Y-114246299D01*
X152672734Y-114456947D01*
X152672734Y-114456950D01*
X147478966Y-114456950D01*
X147478966Y-114456949D01*
X147460536Y-114246294D01*
X147405806Y-114042039D01*
X147316439Y-113850391D01*
X147195151Y-113677173D01*
X147195149Y-113677170D01*
X147045628Y-113527649D01*
X146872408Y-113406360D01*
X146872406Y-113406359D01*
X146850921Y-113396340D01*
X146680760Y-113316993D01*
X146680756Y-113316992D01*
X146680752Y-113316990D01*
X146642436Y-113306724D01*
X146582775Y-113270359D01*
X146552246Y-113207513D01*
X146560540Y-113138137D01*
X146605025Y-113084259D01*
X146642436Y-113067174D01*
X146658890Y-113062765D01*
X146680760Y-113056905D01*
X146872408Y-112967538D01*
X147045626Y-112846250D01*
X147195151Y-112696725D01*
X147316439Y-112523507D01*
X147405806Y-112331859D01*
X147460536Y-112127604D01*
X147478966Y-111916949D01*
X147460536Y-111706294D01*
X147418979Y-111551204D01*
X147405808Y-111502046D01*
X147405807Y-111502045D01*
X147405806Y-111502039D01*
X147316439Y-111310391D01*
X147195151Y-111137173D01*
X147195149Y-111137170D01*
X147045628Y-110987649D01*
X146872408Y-110866360D01*
X146872406Y-110866359D01*
X146753098Y-110810725D01*
X146680760Y-110776993D01*
X146680756Y-110776992D01*
X146680752Y-110776990D01*
X146564030Y-110745715D01*
X146504369Y-110709350D01*
X146473840Y-110646503D01*
X146482135Y-110577127D01*
X146508439Y-110538262D01*
X158286952Y-98759750D01*
X159835534Y-98759750D01*
X159853963Y-98970398D01*
X159853965Y-98970409D01*
X159908691Y-99174651D01*
X159908693Y-99174655D01*
X159908694Y-99174659D01*
X159919933Y-99198761D01*
X159998060Y-99366305D01*
X159998061Y-99366307D01*
X160119350Y-99539527D01*
X160268871Y-99689048D01*
X160268874Y-99689050D01*
X160442092Y-99810338D01*
X160633740Y-99899705D01*
X160837995Y-99954435D01*
X160988462Y-99967599D01*
X161048648Y-99972865D01*
X161048650Y-99972865D01*
X161048652Y-99972865D01*
X161101313Y-99968257D01*
X161259305Y-99954435D01*
X161463560Y-99899705D01*
X161655208Y-99810338D01*
X161828426Y-99689050D01*
X161977951Y-99539525D01*
X162099239Y-99366307D01*
X162188606Y-99174659D01*
X162243336Y-98970404D01*
X162261766Y-98759750D01*
X167455534Y-98759750D01*
X167473963Y-98970398D01*
X167473965Y-98970409D01*
X167528691Y-99174651D01*
X167528693Y-99174655D01*
X167528694Y-99174659D01*
X167539933Y-99198761D01*
X167618060Y-99366305D01*
X167618061Y-99366307D01*
X167739350Y-99539527D01*
X167888871Y-99689048D01*
X167888874Y-99689050D01*
X168062092Y-99810338D01*
X168253740Y-99899705D01*
X168457995Y-99954435D01*
X168608462Y-99967599D01*
X168668648Y-99972865D01*
X168668650Y-99972865D01*
X168668652Y-99972865D01*
X168738868Y-99966721D01*
X168879305Y-99954435D01*
X168888847Y-99951878D01*
X168958693Y-99953536D01*
X168980682Y-99962989D01*
X168997015Y-99971968D01*
X169013277Y-99982650D01*
X169029410Y-99995163D01*
X169072751Y-100013918D01*
X169078000Y-100016490D01*
X169098077Y-100027527D01*
X169119390Y-100039244D01*
X169139168Y-100044322D01*
X169157569Y-100050622D01*
X169176305Y-100058730D01*
X169220812Y-100065778D01*
X169222953Y-100066118D01*
X169228662Y-100067300D01*
X169274420Y-100079049D01*
X169294834Y-100079049D01*
X169314233Y-100080576D01*
X169334393Y-100083769D01*
X169381415Y-100079324D01*
X169387254Y-100079049D01*
X188116084Y-100079049D01*
X188183123Y-100098734D01*
X188203765Y-100115368D01*
X194640265Y-106551868D01*
X194673750Y-106613191D01*
X194668766Y-106682883D01*
X194666140Y-106689358D01*
X194609382Y-106818757D01*
X194609380Y-106818761D01*
X194554113Y-107037004D01*
X194554111Y-107037016D01*
X194535521Y-107261370D01*
X194535521Y-107261381D01*
X194554111Y-107485735D01*
X194554113Y-107485747D01*
X194609380Y-107703990D01*
X194699817Y-107910168D01*
X194822953Y-108098641D01*
X194822961Y-108098652D01*
X194975433Y-108264278D01*
X194975437Y-108264282D01*
X195153101Y-108402565D01*
X195153102Y-108402565D01*
X195153104Y-108402567D01*
X195279812Y-108471137D01*
X195351103Y-108509718D01*
X195564042Y-108582820D01*
X195786108Y-108619876D01*
X196011246Y-108619876D01*
X196233312Y-108582820D01*
X196446251Y-108509718D01*
X196644253Y-108402565D01*
X196821917Y-108264282D01*
X196974399Y-108098644D01*
X197064870Y-107960166D01*
X197118015Y-107914813D01*
X197187246Y-107905389D01*
X197250582Y-107934891D01*
X197272481Y-107960163D01*
X197362955Y-108098644D01*
X197362960Y-108098649D01*
X197362961Y-108098652D01*
X197515433Y-108264278D01*
X197515437Y-108264282D01*
X197693101Y-108402565D01*
X197693102Y-108402565D01*
X197693104Y-108402567D01*
X197819812Y-108471137D01*
X197891103Y-108509718D01*
X198104042Y-108582820D01*
X198326108Y-108619876D01*
X198551246Y-108619876D01*
X198773312Y-108582820D01*
X198986251Y-108509718D01*
X199184253Y-108402565D01*
X199361917Y-108264282D01*
X199514399Y-108098644D01*
X199637537Y-107910167D01*
X199727973Y-107703992D01*
X199783241Y-107485744D01*
X199783242Y-107485735D01*
X199801833Y-107261381D01*
X199801833Y-107261370D01*
X199783242Y-107037016D01*
X199783240Y-107037004D01*
X199727973Y-106818761D01*
X199727971Y-106818757D01*
X199637537Y-106612585D01*
X199637076Y-106611880D01*
X199514400Y-106424110D01*
X199514392Y-106424099D01*
X199361920Y-106258473D01*
X199361915Y-106258468D01*
X199184254Y-106120188D01*
X199184249Y-106120184D01*
X198986257Y-106013037D01*
X198986254Y-106013035D01*
X198986251Y-106013034D01*
X198986248Y-106013033D01*
X198986246Y-106013032D01*
X198773314Y-105939932D01*
X198551246Y-105902876D01*
X198326108Y-105902876D01*
X198104039Y-105939932D01*
X197891107Y-106013032D01*
X197891096Y-106013037D01*
X197693104Y-106120184D01*
X197693099Y-106120188D01*
X197515438Y-106258468D01*
X197515433Y-106258473D01*
X197362961Y-106424099D01*
X197362953Y-106424110D01*
X197272485Y-106562582D01*
X197219339Y-106607938D01*
X197150108Y-106617362D01*
X197086772Y-106587860D01*
X197064869Y-106562582D01*
X196974400Y-106424110D01*
X196974392Y-106424099D01*
X196821920Y-106258473D01*
X196821915Y-106258468D01*
X196644254Y-106120188D01*
X196644255Y-106120188D01*
X196644253Y-106120187D01*
X196607747Y-106100431D01*
X196558156Y-106051212D01*
X196543048Y-105982995D01*
X196567218Y-105917440D01*
X196607747Y-105882321D01*
X196607761Y-105882312D01*
X196644253Y-105862565D01*
X196821917Y-105724282D01*
X196974399Y-105558644D01*
X197097537Y-105370167D01*
X197187973Y-105163992D01*
X197243241Y-104945744D01*
X197250268Y-104860943D01*
X197261833Y-104721381D01*
X197261833Y-104721370D01*
X197243242Y-104497016D01*
X197243240Y-104497004D01*
X197209482Y-104363698D01*
X197187973Y-104278760D01*
X197097537Y-104072585D01*
X196974399Y-103884108D01*
X196974396Y-103884105D01*
X196974392Y-103884099D01*
X196821920Y-103718473D01*
X196821915Y-103718468D01*
X196644254Y-103580188D01*
X196644249Y-103580184D01*
X196446257Y-103473037D01*
X196446254Y-103473035D01*
X196446251Y-103473034D01*
X196446248Y-103473033D01*
X196446246Y-103473032D01*
X196233314Y-103399932D01*
X196011246Y-103362876D01*
X195786108Y-103362876D01*
X195564039Y-103399932D01*
X195351107Y-103473032D01*
X195351096Y-103473037D01*
X195153104Y-103580184D01*
X195153099Y-103580188D01*
X194975438Y-103718468D01*
X194975433Y-103718473D01*
X194822961Y-103884099D01*
X194822953Y-103884110D01*
X194699817Y-104072583D01*
X194609380Y-104278762D01*
X194609377Y-104278770D01*
X194571939Y-104426607D01*
X194536400Y-104486763D01*
X194473979Y-104518154D01*
X194404496Y-104510816D01*
X194364053Y-104483847D01*
X192061587Y-102181381D01*
X197075521Y-102181381D01*
X197094111Y-102405735D01*
X197094113Y-102405747D01*
X197149380Y-102623990D01*
X197239817Y-102830168D01*
X197362953Y-103018641D01*
X197362961Y-103018652D01*
X197515433Y-103184278D01*
X197515437Y-103184282D01*
X197693101Y-103322565D01*
X197693102Y-103322565D01*
X197693104Y-103322567D01*
X197740646Y-103348295D01*
X197891103Y-103429718D01*
X198104042Y-103502820D01*
X198326108Y-103539876D01*
X198551246Y-103539876D01*
X198773312Y-103502820D01*
X198986251Y-103429718D01*
X199184253Y-103322565D01*
X199361917Y-103184282D01*
X199514399Y-103018644D01*
X199637537Y-102830167D01*
X199727973Y-102623992D01*
X199783241Y-102405744D01*
X199801833Y-102181376D01*
X199794152Y-102088685D01*
X199783242Y-101957016D01*
X199783240Y-101957004D01*
X199727973Y-101738761D01*
X199637536Y-101532583D01*
X199514400Y-101344110D01*
X199514392Y-101344099D01*
X199361920Y-101178473D01*
X199361915Y-101178468D01*
X199184254Y-101040188D01*
X199184249Y-101040184D01*
X198986257Y-100933037D01*
X198986254Y-100933035D01*
X198986251Y-100933034D01*
X198986248Y-100933033D01*
X198986246Y-100933032D01*
X198773314Y-100859932D01*
X198551246Y-100822876D01*
X198326108Y-100822876D01*
X198104039Y-100859932D01*
X197891107Y-100933032D01*
X197891096Y-100933037D01*
X197693104Y-101040184D01*
X197693099Y-101040188D01*
X197515438Y-101178468D01*
X197515433Y-101178473D01*
X197362961Y-101344099D01*
X197362953Y-101344110D01*
X197239817Y-101532583D01*
X197149380Y-101738761D01*
X197094113Y-101957004D01*
X197094111Y-101957016D01*
X197075521Y-102181370D01*
X197075521Y-102181381D01*
X192061587Y-102181381D01*
X189521587Y-99641381D01*
X194535521Y-99641381D01*
X194554111Y-99865735D01*
X194554113Y-99865747D01*
X194609380Y-100083990D01*
X194699817Y-100290168D01*
X194822953Y-100478641D01*
X194822961Y-100478652D01*
X194975433Y-100644278D01*
X194975437Y-100644282D01*
X195153101Y-100782565D01*
X195153102Y-100782565D01*
X195153104Y-100782567D01*
X195227589Y-100822876D01*
X195351103Y-100889718D01*
X195564042Y-100962820D01*
X195786108Y-100999876D01*
X196011246Y-100999876D01*
X196233312Y-100962820D01*
X196446251Y-100889718D01*
X196644253Y-100782565D01*
X196821917Y-100644282D01*
X196974399Y-100478644D01*
X197097537Y-100290167D01*
X197187973Y-100083992D01*
X197243241Y-99865744D01*
X197247832Y-99810338D01*
X197261833Y-99641381D01*
X197261833Y-99641370D01*
X197243242Y-99417016D01*
X197243240Y-99417004D01*
X197187973Y-99198761D01*
X197177401Y-99174660D01*
X197097537Y-98992585D01*
X197096217Y-98990565D01*
X197020457Y-98874605D01*
X196974399Y-98804108D01*
X196974396Y-98804105D01*
X196974392Y-98804099D01*
X196821920Y-98638473D01*
X196821915Y-98638468D01*
X196644254Y-98500188D01*
X196644249Y-98500184D01*
X196446257Y-98393037D01*
X196446254Y-98393035D01*
X196446251Y-98393034D01*
X196446248Y-98393033D01*
X196446246Y-98393032D01*
X196233314Y-98319932D01*
X196011246Y-98282876D01*
X195786108Y-98282876D01*
X195564039Y-98319932D01*
X195351107Y-98393032D01*
X195351096Y-98393037D01*
X195153104Y-98500184D01*
X195153099Y-98500188D01*
X194975438Y-98638468D01*
X194975433Y-98638473D01*
X194822961Y-98804099D01*
X194822953Y-98804110D01*
X194699817Y-98992583D01*
X194609380Y-99198761D01*
X194554113Y-99417004D01*
X194554111Y-99417016D01*
X194535521Y-99641370D01*
X194535521Y-99641381D01*
X189521587Y-99641381D01*
X188936938Y-99056732D01*
X188927037Y-99044372D01*
X188926827Y-99044547D01*
X188921851Y-99038533D01*
X188921850Y-99038531D01*
X188871464Y-98991216D01*
X188870089Y-98989883D01*
X188849618Y-98969412D01*
X188847642Y-98967880D01*
X188844033Y-98965080D01*
X188839600Y-98961293D01*
X188805171Y-98928963D01*
X188805169Y-98928961D01*
X188787281Y-98919127D01*
X188771020Y-98908446D01*
X188754889Y-98895933D01*
X188711543Y-98877176D01*
X188706295Y-98874605D01*
X188679101Y-98859655D01*
X188664910Y-98851854D01*
X188661510Y-98850981D01*
X188645137Y-98846777D01*
X188626731Y-98840475D01*
X188607994Y-98832367D01*
X188607996Y-98832367D01*
X188561346Y-98824979D01*
X188555631Y-98823795D01*
X188535462Y-98818617D01*
X188509882Y-98812049D01*
X188509880Y-98812049D01*
X188489466Y-98812049D01*
X188470067Y-98810522D01*
X188449908Y-98807329D01*
X188449907Y-98807329D01*
X188402884Y-98811774D01*
X188397046Y-98812049D01*
X179895790Y-98812049D01*
X179828751Y-98792364D01*
X179782996Y-98739560D01*
X179773052Y-98670402D01*
X179802077Y-98606846D01*
X179808109Y-98600368D01*
X179834149Y-98574327D01*
X179834148Y-98574326D01*
X179834151Y-98574325D01*
X179955439Y-98401107D01*
X180044806Y-98209459D01*
X180099536Y-98005204D01*
X180115333Y-97824642D01*
X180117966Y-97794550D01*
X180117966Y-97794547D01*
X180102677Y-97619794D01*
X180099536Y-97583894D01*
X180044806Y-97379639D01*
X179955439Y-97187991D01*
X179834151Y-97014773D01*
X179834149Y-97014770D01*
X179684628Y-96865249D01*
X179511408Y-96743960D01*
X179511406Y-96743959D01*
X179489921Y-96733940D01*
X179319760Y-96654593D01*
X179319756Y-96654592D01*
X179319752Y-96654590D01*
X179115510Y-96599864D01*
X179115506Y-96599863D01*
X179115505Y-96599863D01*
X179115504Y-96599862D01*
X179115499Y-96599862D01*
X178904852Y-96581433D01*
X178904848Y-96581433D01*
X178694200Y-96599862D01*
X178694189Y-96599864D01*
X178489947Y-96654590D01*
X178489938Y-96654594D01*
X178298293Y-96743959D01*
X178298291Y-96743960D01*
X178125071Y-96865249D01*
X177975550Y-97014770D01*
X177854261Y-97187990D01*
X177854260Y-97187992D01*
X177764895Y-97379637D01*
X177764891Y-97379646D01*
X177710165Y-97583888D01*
X177710163Y-97583899D01*
X177691734Y-97794547D01*
X177691734Y-97794550D01*
X177710163Y-98005198D01*
X177710165Y-98005209D01*
X177764891Y-98209451D01*
X177764893Y-98209455D01*
X177764894Y-98209459D01*
X177828022Y-98344837D01*
X177854260Y-98401105D01*
X177854261Y-98401107D01*
X177975550Y-98574327D01*
X178001591Y-98600368D01*
X178035076Y-98661691D01*
X178030092Y-98731383D01*
X177988220Y-98787316D01*
X177922756Y-98811733D01*
X177913910Y-98812049D01*
X172275790Y-98812049D01*
X172208751Y-98792364D01*
X172162996Y-98739560D01*
X172153052Y-98670402D01*
X172182077Y-98606846D01*
X172188109Y-98600368D01*
X172214149Y-98574327D01*
X172214149Y-98574326D01*
X172214151Y-98574325D01*
X172335439Y-98401107D01*
X172424806Y-98209459D01*
X172479536Y-98005204D01*
X172495333Y-97824642D01*
X172497966Y-97794550D01*
X172497966Y-97794547D01*
X172482677Y-97619794D01*
X172479536Y-97583894D01*
X172424806Y-97379639D01*
X172335439Y-97187991D01*
X172214151Y-97014773D01*
X172214149Y-97014770D01*
X172064628Y-96865249D01*
X171891408Y-96743960D01*
X171891406Y-96743959D01*
X171869921Y-96733940D01*
X171699760Y-96654593D01*
X171699756Y-96654592D01*
X171699752Y-96654590D01*
X171495510Y-96599864D01*
X171495506Y-96599863D01*
X171495505Y-96599863D01*
X171495504Y-96599862D01*
X171495499Y-96599862D01*
X171284852Y-96581433D01*
X171284848Y-96581433D01*
X171074200Y-96599862D01*
X171074189Y-96599864D01*
X170869947Y-96654590D01*
X170869938Y-96654594D01*
X170678293Y-96743959D01*
X170678291Y-96743960D01*
X170505071Y-96865249D01*
X170355550Y-97014770D01*
X170234261Y-97187990D01*
X170234260Y-97187992D01*
X170144895Y-97379637D01*
X170144891Y-97379646D01*
X170090165Y-97583888D01*
X170090163Y-97583899D01*
X170071734Y-97794547D01*
X170071734Y-97794550D01*
X170090163Y-98005198D01*
X170090165Y-98005209D01*
X170144891Y-98209451D01*
X170144893Y-98209455D01*
X170144894Y-98209459D01*
X170208022Y-98344837D01*
X170234260Y-98401105D01*
X170234261Y-98401107D01*
X170355550Y-98574327D01*
X170381591Y-98600368D01*
X170415076Y-98661691D01*
X170410092Y-98731383D01*
X170368220Y-98787316D01*
X170302756Y-98811733D01*
X170293910Y-98812049D01*
X169999967Y-98812049D01*
X169932928Y-98792364D01*
X169887173Y-98739560D01*
X169876439Y-98698857D01*
X169867822Y-98600368D01*
X169863336Y-98549094D01*
X169808606Y-98344839D01*
X169719239Y-98153191D01*
X169597951Y-97979973D01*
X169597949Y-97979970D01*
X169448428Y-97830449D01*
X169275208Y-97709160D01*
X169275206Y-97709159D01*
X169253721Y-97699140D01*
X169083560Y-97619793D01*
X169083556Y-97619792D01*
X169083552Y-97619790D01*
X168879310Y-97565064D01*
X168879306Y-97565063D01*
X168879305Y-97565063D01*
X168879304Y-97565062D01*
X168879299Y-97565062D01*
X168668652Y-97546633D01*
X168668648Y-97546633D01*
X168458000Y-97565062D01*
X168457989Y-97565064D01*
X168253747Y-97619790D01*
X168253738Y-97619794D01*
X168062093Y-97709159D01*
X168062091Y-97709160D01*
X167888871Y-97830449D01*
X167739350Y-97979970D01*
X167618061Y-98153190D01*
X167618060Y-98153192D01*
X167528695Y-98344837D01*
X167528691Y-98344846D01*
X167473965Y-98549088D01*
X167473963Y-98549099D01*
X167455534Y-98759747D01*
X167455534Y-98759750D01*
X162261766Y-98759750D01*
X162261766Y-98759749D01*
X162243336Y-98549094D01*
X162188606Y-98344839D01*
X162099239Y-98153191D01*
X161977951Y-97979973D01*
X161977949Y-97979970D01*
X161828428Y-97830449D01*
X161655208Y-97709160D01*
X161655206Y-97709159D01*
X161633721Y-97699140D01*
X161463560Y-97619793D01*
X161463556Y-97619792D01*
X161463552Y-97619790D01*
X161259310Y-97565064D01*
X161259306Y-97565063D01*
X161259305Y-97565063D01*
X161259304Y-97565062D01*
X161259299Y-97565062D01*
X161048652Y-97546633D01*
X161048648Y-97546633D01*
X160838000Y-97565062D01*
X160837989Y-97565064D01*
X160633747Y-97619790D01*
X160633738Y-97619794D01*
X160442093Y-97709159D01*
X160442091Y-97709160D01*
X160268871Y-97830449D01*
X160119350Y-97979970D01*
X159998061Y-98153190D01*
X159998060Y-98153192D01*
X159908695Y-98344837D01*
X159908691Y-98344846D01*
X159853965Y-98549088D01*
X159853963Y-98549099D01*
X159835534Y-98759747D01*
X159835534Y-98759750D01*
X158286952Y-98759750D01*
X165643534Y-91403168D01*
X165704858Y-91369683D01*
X165731216Y-91366849D01*
X194512538Y-91366849D01*
X194579577Y-91386534D01*
X194625332Y-91439338D01*
X194635276Y-91508496D01*
X194626094Y-91540659D01*
X194609380Y-91578762D01*
X194554113Y-91797004D01*
X194554111Y-91797016D01*
X194535521Y-92021370D01*
X194535521Y-92021381D01*
X194554111Y-92245735D01*
X194554113Y-92245747D01*
X194609380Y-92463990D01*
X194699817Y-92670168D01*
X194822953Y-92858641D01*
X194822961Y-92858652D01*
X194975433Y-93024278D01*
X194975437Y-93024282D01*
X195153101Y-93162565D01*
X195153106Y-93162567D01*
X195153108Y-93162569D01*
X195189607Y-93182322D01*
X195239197Y-93231541D01*
X195254305Y-93299758D01*
X195230134Y-93365313D01*
X195189607Y-93400430D01*
X195153108Y-93420182D01*
X195153099Y-93420188D01*
X194975438Y-93558468D01*
X194975433Y-93558473D01*
X194822961Y-93724099D01*
X194822953Y-93724110D01*
X194699817Y-93912583D01*
X194609380Y-94118761D01*
X194554113Y-94337004D01*
X194554111Y-94337016D01*
X194535521Y-94561370D01*
X194535521Y-94561381D01*
X194554111Y-94785735D01*
X194554113Y-94785747D01*
X194609380Y-95003990D01*
X194699817Y-95210168D01*
X194822953Y-95398641D01*
X194822961Y-95398652D01*
X194975433Y-95564278D01*
X194975437Y-95564282D01*
X195153101Y-95702565D01*
X195153102Y-95702565D01*
X195153104Y-95702567D01*
X195254501Y-95757440D01*
X195351103Y-95809718D01*
X195564042Y-95882820D01*
X195786108Y-95919876D01*
X196011246Y-95919876D01*
X196233312Y-95882820D01*
X196446251Y-95809718D01*
X196644253Y-95702565D01*
X196821917Y-95564282D01*
X196974399Y-95398644D01*
X197064870Y-95260166D01*
X197118015Y-95214813D01*
X197187246Y-95205389D01*
X197250582Y-95234891D01*
X197272481Y-95260163D01*
X197362955Y-95398644D01*
X197362960Y-95398649D01*
X197362961Y-95398652D01*
X197515433Y-95564278D01*
X197515437Y-95564282D01*
X197693101Y-95702565D01*
X197693106Y-95702567D01*
X197693108Y-95702569D01*
X197729607Y-95722322D01*
X197779197Y-95771541D01*
X197794305Y-95839758D01*
X197770134Y-95905313D01*
X197729607Y-95940430D01*
X197693108Y-95960182D01*
X197693099Y-95960188D01*
X197515438Y-96098468D01*
X197515433Y-96098473D01*
X197362961Y-96264099D01*
X197362953Y-96264110D01*
X197239817Y-96452583D01*
X197149380Y-96658761D01*
X197094113Y-96877004D01*
X197094111Y-96877016D01*
X197075521Y-97101370D01*
X197075521Y-97101381D01*
X197094111Y-97325735D01*
X197094113Y-97325747D01*
X197149380Y-97543990D01*
X197239817Y-97750168D01*
X197362953Y-97938641D01*
X197362961Y-97938652D01*
X197515433Y-98104278D01*
X197515437Y-98104282D01*
X197693101Y-98242565D01*
X197693102Y-98242565D01*
X197693104Y-98242567D01*
X197710073Y-98251750D01*
X197891103Y-98349718D01*
X198104042Y-98422820D01*
X198326108Y-98459876D01*
X198551246Y-98459876D01*
X198773312Y-98422820D01*
X198986251Y-98349718D01*
X199184253Y-98242565D01*
X199361917Y-98104282D01*
X199514399Y-97938644D01*
X199637537Y-97750167D01*
X199727973Y-97543992D01*
X199783241Y-97325744D01*
X199794656Y-97187990D01*
X199801833Y-97101381D01*
X199801833Y-97101370D01*
X199783242Y-96877016D01*
X199783240Y-96877004D01*
X199780263Y-96865248D01*
X199727973Y-96658760D01*
X199637537Y-96452585D01*
X199514399Y-96264108D01*
X199514396Y-96264105D01*
X199514392Y-96264099D01*
X199361920Y-96098473D01*
X199361915Y-96098468D01*
X199184254Y-95960188D01*
X199184255Y-95960188D01*
X199184253Y-95960187D01*
X199147747Y-95940431D01*
X199098156Y-95891212D01*
X199083048Y-95822995D01*
X199107218Y-95757440D01*
X199147747Y-95722321D01*
X199147761Y-95722312D01*
X199184253Y-95702565D01*
X199361917Y-95564282D01*
X199514399Y-95398644D01*
X199637537Y-95210167D01*
X199727973Y-95003992D01*
X199783241Y-94785744D01*
X199801833Y-94561376D01*
X199783241Y-94337008D01*
X199727973Y-94118760D01*
X199637537Y-93912585D01*
X199621383Y-93887860D01*
X199514400Y-93724110D01*
X199514392Y-93724099D01*
X199361920Y-93558473D01*
X199361915Y-93558468D01*
X199184254Y-93420188D01*
X199184255Y-93420188D01*
X199184253Y-93420187D01*
X199147747Y-93400431D01*
X199098156Y-93351212D01*
X199083048Y-93282995D01*
X199107218Y-93217440D01*
X199147747Y-93182321D01*
X199147761Y-93182312D01*
X199184253Y-93162565D01*
X199361917Y-93024282D01*
X199514399Y-92858644D01*
X199637537Y-92670167D01*
X199727973Y-92463992D01*
X199783241Y-92245744D01*
X199801833Y-92021376D01*
X199783241Y-91797008D01*
X199727973Y-91578760D01*
X199637537Y-91372585D01*
X199633789Y-91366849D01*
X199514400Y-91184110D01*
X199514392Y-91184099D01*
X199361920Y-91018473D01*
X199361915Y-91018468D01*
X199184254Y-90880188D01*
X199184249Y-90880184D01*
X199147745Y-90860429D01*
X199098155Y-90811209D01*
X199083048Y-90742992D01*
X199107219Y-90677437D01*
X199147746Y-90642321D01*
X199184253Y-90622565D01*
X199361917Y-90484282D01*
X199514399Y-90318644D01*
X199637537Y-90130167D01*
X199727973Y-89923992D01*
X199783241Y-89705744D01*
X199801833Y-89481376D01*
X199783241Y-89257008D01*
X199727973Y-89038760D01*
X199637537Y-88832585D01*
X199621383Y-88807860D01*
X199514400Y-88644110D01*
X199514392Y-88644099D01*
X199361920Y-88478473D01*
X199361915Y-88478468D01*
X199184254Y-88340188D01*
X199184249Y-88340184D01*
X198986257Y-88233037D01*
X198986254Y-88233035D01*
X198986251Y-88233034D01*
X198986248Y-88233033D01*
X198986246Y-88233032D01*
X198773314Y-88159932D01*
X198551246Y-88122876D01*
X198326108Y-88122876D01*
X198104039Y-88159932D01*
X197891107Y-88233032D01*
X197891096Y-88233037D01*
X197693104Y-88340184D01*
X197693099Y-88340188D01*
X197515438Y-88478468D01*
X197515433Y-88478473D01*
X197362961Y-88644099D01*
X197362953Y-88644110D01*
X197272485Y-88782582D01*
X197219339Y-88827938D01*
X197150108Y-88837362D01*
X197086772Y-88807860D01*
X197064869Y-88782582D01*
X196974400Y-88644110D01*
X196974392Y-88644099D01*
X196821920Y-88478473D01*
X196821915Y-88478468D01*
X196644254Y-88340188D01*
X196644255Y-88340188D01*
X196644253Y-88340187D01*
X196607747Y-88320431D01*
X196558156Y-88271212D01*
X196543048Y-88202995D01*
X196567218Y-88137440D01*
X196607747Y-88102321D01*
X196607761Y-88102312D01*
X196644253Y-88082565D01*
X196821917Y-87944282D01*
X196974399Y-87778644D01*
X197097537Y-87590167D01*
X197187973Y-87383992D01*
X197243241Y-87165744D01*
X197249928Y-87085048D01*
X197261833Y-86941381D01*
X197261833Y-86941370D01*
X197243242Y-86717016D01*
X197243240Y-86717004D01*
X197238806Y-86699495D01*
X197187973Y-86498760D01*
X197170087Y-86457985D01*
X197161184Y-86388687D01*
X197191160Y-86325575D01*
X197250499Y-86288688D01*
X197279750Y-86284237D01*
X197279781Y-86284236D01*
X197286593Y-86284022D01*
X197306185Y-86278329D01*
X197325242Y-86274381D01*
X197345501Y-86271823D01*
X197389425Y-86254431D01*
X197394925Y-86252548D01*
X197440297Y-86239367D01*
X197457869Y-86228974D01*
X197475336Y-86220417D01*
X197494321Y-86212901D01*
X197532530Y-86185139D01*
X197537408Y-86181934D01*
X197578066Y-86157891D01*
X197592506Y-86143449D01*
X197607296Y-86130819D01*
X197623811Y-86118821D01*
X197653926Y-86082416D01*
X197657830Y-86078125D01*
X197981686Y-85754269D01*
X198043007Y-85720786D01*
X198099820Y-85721750D01*
X198104033Y-85722817D01*
X198104042Y-85722820D01*
X198326108Y-85759876D01*
X198551246Y-85759876D01*
X198773312Y-85722820D01*
X198986251Y-85649718D01*
X199184253Y-85542565D01*
X199361917Y-85404282D01*
X199514399Y-85238644D01*
X199637537Y-85050167D01*
X199727973Y-84843992D01*
X199783241Y-84625744D01*
X199801833Y-84401376D01*
X199783241Y-84177008D01*
X199727973Y-83958760D01*
X199637537Y-83752585D01*
X199633789Y-83746849D01*
X199514400Y-83564110D01*
X199514392Y-83564099D01*
X199361920Y-83398473D01*
X199361915Y-83398468D01*
X199184254Y-83260188D01*
X199184255Y-83260188D01*
X199184253Y-83260187D01*
X199147747Y-83240431D01*
X199098156Y-83191212D01*
X199083048Y-83122995D01*
X199107218Y-83057440D01*
X199147747Y-83022321D01*
X199147761Y-83022312D01*
X199184253Y-83002565D01*
X199361917Y-82864282D01*
X199514399Y-82698644D01*
X199637537Y-82510167D01*
X199727973Y-82303992D01*
X199783241Y-82085744D01*
X199801833Y-81861376D01*
X199783241Y-81637008D01*
X199727973Y-81418760D01*
X199637537Y-81212585D01*
X199621383Y-81187860D01*
X199514400Y-81024110D01*
X199514392Y-81024099D01*
X199361920Y-80858473D01*
X199361915Y-80858468D01*
X199184254Y-80720188D01*
X199184255Y-80720188D01*
X199184253Y-80720187D01*
X199147747Y-80700431D01*
X199098156Y-80651212D01*
X199083048Y-80582995D01*
X199107218Y-80517440D01*
X199147747Y-80482321D01*
X199147761Y-80482312D01*
X199184253Y-80462565D01*
X199361917Y-80324282D01*
X199514399Y-80158644D01*
X199637537Y-79970167D01*
X199727973Y-79763992D01*
X199783241Y-79545744D01*
X199788520Y-79482035D01*
X199801833Y-79321381D01*
X199801833Y-79321370D01*
X199783242Y-79097016D01*
X199783240Y-79097004D01*
X199727973Y-78878761D01*
X199723475Y-78868507D01*
X199637537Y-78672585D01*
X199637455Y-78672460D01*
X199523481Y-78498009D01*
X199514399Y-78484108D01*
X199514396Y-78484105D01*
X199514392Y-78484099D01*
X199361920Y-78318473D01*
X199361915Y-78318468D01*
X199184254Y-78180188D01*
X199184249Y-78180184D01*
X198986257Y-78073037D01*
X198986254Y-78073035D01*
X198986251Y-78073034D01*
X198986248Y-78073033D01*
X198986246Y-78073032D01*
X198773314Y-77999932D01*
X198551246Y-77962876D01*
X198326108Y-77962876D01*
X198104039Y-77999932D01*
X197891107Y-78073032D01*
X197891096Y-78073037D01*
X197693104Y-78180184D01*
X197693099Y-78180188D01*
X197515438Y-78318468D01*
X197515433Y-78318473D01*
X197362961Y-78484099D01*
X197362953Y-78484110D01*
X197239817Y-78672583D01*
X197149380Y-78878761D01*
X197094113Y-79097004D01*
X197094111Y-79097016D01*
X197075521Y-79321370D01*
X197075521Y-79321381D01*
X197094111Y-79545735D01*
X197094113Y-79545747D01*
X197149380Y-79763990D01*
X197239817Y-79970168D01*
X197362953Y-80158641D01*
X197362961Y-80158652D01*
X197515433Y-80324278D01*
X197515438Y-80324283D01*
X197538102Y-80341923D01*
X197693101Y-80462565D01*
X197693106Y-80462567D01*
X197693108Y-80462569D01*
X197729607Y-80482322D01*
X197779197Y-80531541D01*
X197794305Y-80599758D01*
X197770134Y-80665313D01*
X197729607Y-80700430D01*
X197693108Y-80720182D01*
X197693099Y-80720188D01*
X197515438Y-80858468D01*
X197515433Y-80858473D01*
X197362961Y-81024099D01*
X197362953Y-81024110D01*
X197272485Y-81162582D01*
X197219339Y-81207938D01*
X197150108Y-81217362D01*
X197086772Y-81187860D01*
X197064869Y-81162582D01*
X196974400Y-81024110D01*
X196974392Y-81024099D01*
X196821920Y-80858473D01*
X196821915Y-80858468D01*
X196644254Y-80720188D01*
X196644249Y-80720184D01*
X196446257Y-80613037D01*
X196446254Y-80613035D01*
X196446251Y-80613034D01*
X196446248Y-80613033D01*
X196446246Y-80613032D01*
X196233314Y-80539932D01*
X196011246Y-80502876D01*
X195786108Y-80502876D01*
X195564039Y-80539932D01*
X195351107Y-80613032D01*
X195351096Y-80613037D01*
X195153104Y-80720184D01*
X195153099Y-80720188D01*
X194975438Y-80858468D01*
X194975433Y-80858473D01*
X194822961Y-81024099D01*
X194822953Y-81024110D01*
X194726529Y-81171698D01*
X194673383Y-81217055D01*
X194622721Y-81227876D01*
X163832052Y-81227876D01*
X163816309Y-81226137D01*
X163816284Y-81226409D01*
X163808516Y-81225674D01*
X163739451Y-81227845D01*
X163737503Y-81227876D01*
X163708565Y-81227876D01*
X163701559Y-81228760D01*
X163695741Y-81229218D01*
X163648534Y-81230702D01*
X163648531Y-81230703D01*
X163628928Y-81236398D01*
X163609882Y-81240342D01*
X163589626Y-81242902D01*
X163589624Y-81242902D01*
X163545715Y-81260286D01*
X163540191Y-81262177D01*
X163494827Y-81275358D01*
X163494826Y-81275359D01*
X163477247Y-81285754D01*
X163459787Y-81294308D01*
X163440807Y-81301823D01*
X163440804Y-81301825D01*
X163402605Y-81329577D01*
X163397723Y-81332785D01*
X163357061Y-81356832D01*
X163342619Y-81371274D01*
X163327831Y-81383903D01*
X163311320Y-81395899D01*
X163311315Y-81395904D01*
X163281213Y-81432290D01*
X163277281Y-81436612D01*
X142834641Y-101879251D01*
X142773318Y-101912736D01*
X142703626Y-101907752D01*
X142647693Y-101865880D01*
X142627186Y-101823667D01*
X142579806Y-101646839D01*
X142490439Y-101455191D01*
X142369151Y-101281973D01*
X142369149Y-101281970D01*
X142219628Y-101132449D01*
X142046408Y-101011160D01*
X142046406Y-101011159D01*
X141960117Y-100970922D01*
X141854760Y-100921793D01*
X141854756Y-100921792D01*
X141854752Y-100921790D01*
X141650510Y-100867064D01*
X141650506Y-100867063D01*
X141650505Y-100867063D01*
X141650504Y-100867062D01*
X141650499Y-100867062D01*
X141439852Y-100848633D01*
X141439848Y-100848633D01*
X141229200Y-100867062D01*
X141229189Y-100867064D01*
X141024947Y-100921790D01*
X141024938Y-100921794D01*
X140833293Y-101011159D01*
X140833291Y-101011160D01*
X140660071Y-101132449D01*
X140510550Y-101281970D01*
X140389261Y-101455190D01*
X140389260Y-101455192D01*
X140299895Y-101646837D01*
X140299891Y-101646846D01*
X140245165Y-101851088D01*
X140245163Y-101851099D01*
X140226734Y-102061747D01*
X140226734Y-102061750D01*
X140245163Y-102272398D01*
X140245165Y-102272409D01*
X140299891Y-102476651D01*
X140299893Y-102476655D01*
X140299894Y-102476659D01*
X140319284Y-102518240D01*
X140389260Y-102668305D01*
X140389261Y-102668307D01*
X140510550Y-102841527D01*
X140660071Y-102991048D01*
X140660074Y-102991050D01*
X140833292Y-103112338D01*
X141024940Y-103201705D01*
X141201766Y-103249085D01*
X141261424Y-103285449D01*
X141291954Y-103348295D01*
X141283660Y-103417671D01*
X141257352Y-103456540D01*
X139044429Y-105669463D01*
X139032070Y-105679367D01*
X139032243Y-105679576D01*
X139026231Y-105684549D01*
X138978923Y-105734926D01*
X138977570Y-105736322D01*
X138957123Y-105756770D01*
X138957107Y-105756788D01*
X138952781Y-105762363D01*
X138948997Y-105766793D01*
X138916669Y-105801220D01*
X138916662Y-105801230D01*
X138906829Y-105819116D01*
X138896153Y-105835369D01*
X138883636Y-105851506D01*
X138883635Y-105851508D01*
X138864875Y-105894859D01*
X138862305Y-105900105D01*
X138839553Y-105941490D01*
X138839553Y-105941491D01*
X138834475Y-105961269D01*
X138828175Y-105979671D01*
X138820068Y-105998406D01*
X138812681Y-106045044D01*
X138811496Y-106050765D01*
X138799750Y-106096514D01*
X138799750Y-106116933D01*
X138798223Y-106136332D01*
X138795030Y-106156490D01*
X138795030Y-106156491D01*
X138799475Y-106203515D01*
X138799750Y-106209353D01*
X138799750Y-110021390D01*
X138780065Y-110088429D01*
X138767900Y-110104362D01*
X138694213Y-110186199D01*
X138694208Y-110186206D01*
X138598723Y-110351592D01*
X138598720Y-110351599D01*
X138539709Y-110533217D01*
X138539708Y-110533221D01*
X138519746Y-110723149D01*
X138539708Y-110913077D01*
X138539709Y-110913080D01*
X138598720Y-111094698D01*
X138598723Y-111094705D01*
X138694210Y-111260093D01*
X138821997Y-111402015D01*
X138976498Y-111514267D01*
X139147149Y-111590245D01*
X139200386Y-111635495D01*
X139220708Y-111702345D01*
X139201663Y-111769568D01*
X139149297Y-111815824D01*
X139147153Y-111816803D01*
X139128897Y-111824931D01*
X138974395Y-111937184D01*
X138846609Y-112079106D01*
X138751123Y-112244492D01*
X138751120Y-112244499D01*
X138692109Y-112426117D01*
X138692108Y-112426121D01*
X138672146Y-112616049D01*
X138692108Y-112805977D01*
X138692109Y-112805980D01*
X138751120Y-112987598D01*
X138751122Y-112987602D01*
X138751123Y-112987605D01*
X138752603Y-112990168D01*
X138779527Y-113036802D01*
X138795998Y-113104702D01*
X138773146Y-113170729D01*
X138764290Y-113181772D01*
X138694208Y-113259606D01*
X138598723Y-113424992D01*
X138598720Y-113424999D01*
X138539709Y-113606617D01*
X138539708Y-113606621D01*
X138519746Y-113796549D01*
X138539708Y-113986477D01*
X138539709Y-113986480D01*
X138598720Y-114168098D01*
X138598723Y-114168105D01*
X138694210Y-114333493D01*
X138821997Y-114475415D01*
X138976498Y-114587667D01*
X139150962Y-114665343D01*
X139337763Y-114705049D01*
X139528737Y-114705049D01*
X139715538Y-114665343D01*
X139717510Y-114664464D01*
X139718754Y-114664297D01*
X139721718Y-114663335D01*
X139721894Y-114663876D01*
X139786759Y-114655177D01*
X139850037Y-114684802D01*
X139887253Y-114743936D01*
X139891950Y-114777742D01*
X139891950Y-115006782D01*
X139872265Y-115073821D01*
X139855631Y-115094463D01*
X139558364Y-115391730D01*
X139497041Y-115425215D01*
X139470683Y-115428049D01*
X139337763Y-115428049D01*
X139150964Y-115467754D01*
X138976496Y-115545432D01*
X138821995Y-115657684D01*
X138694209Y-115799606D01*
X138598723Y-115964992D01*
X138598720Y-115964999D01*
X138539709Y-116146617D01*
X138539708Y-116146621D01*
X138519746Y-116336549D01*
X101152777Y-116336549D01*
X101152777Y-103992149D01*
X133058746Y-103992149D01*
X133078708Y-104182077D01*
X133078709Y-104182080D01*
X133137720Y-104363698D01*
X133137723Y-104363705D01*
X133233210Y-104529093D01*
X133360997Y-104671015D01*
X133515498Y-104783267D01*
X133689962Y-104860943D01*
X133876763Y-104900649D01*
X134067737Y-104900649D01*
X134254538Y-104860943D01*
X134429002Y-104783267D01*
X134583503Y-104671015D01*
X134711290Y-104529093D01*
X134806777Y-104363705D01*
X134865792Y-104182077D01*
X134885754Y-103992149D01*
X134865792Y-103802221D01*
X134806777Y-103620593D01*
X134711290Y-103455205D01*
X134583503Y-103313283D01*
X134429002Y-103201031D01*
X134254538Y-103123355D01*
X134254536Y-103123354D01*
X134067737Y-103083649D01*
X133876763Y-103083649D01*
X133689964Y-103123354D01*
X133515496Y-103201032D01*
X133360995Y-103313284D01*
X133233209Y-103455206D01*
X133137723Y-103620592D01*
X133137720Y-103620599D01*
X133078709Y-103802217D01*
X133078708Y-103802221D01*
X133058746Y-103992149D01*
X101152777Y-103992149D01*
X101152777Y-98251750D01*
X140888352Y-98251750D01*
X140908306Y-98479830D01*
X140908307Y-98479838D01*
X140967564Y-98700987D01*
X140967568Y-98700998D01*
X141049180Y-98876016D01*
X141064327Y-98908498D01*
X141195652Y-99096049D01*
X141357550Y-99257947D01*
X141545101Y-99389272D01*
X141604599Y-99417016D01*
X141752600Y-99486030D01*
X141752602Y-99486030D01*
X141752607Y-99486033D01*
X141973763Y-99545292D01*
X142136682Y-99559545D01*
X142201848Y-99565247D01*
X142201850Y-99565247D01*
X142201852Y-99565247D01*
X142258871Y-99560258D01*
X142429937Y-99545292D01*
X142651093Y-99486033D01*
X142858599Y-99389272D01*
X143046150Y-99257947D01*
X143208048Y-99096049D01*
X143339373Y-98908498D01*
X143436134Y-98700992D01*
X143495393Y-98479836D01*
X143515348Y-98251749D01*
X143495393Y-98023662D01*
X143436134Y-97802506D01*
X143339373Y-97595000D01*
X143208048Y-97407449D01*
X143046150Y-97245551D01*
X142858599Y-97114226D01*
X142831042Y-97101376D01*
X142651099Y-97017467D01*
X142651088Y-97017463D01*
X142429939Y-96958206D01*
X142429931Y-96958205D01*
X142201852Y-96938251D01*
X142201848Y-96938251D01*
X141973768Y-96958205D01*
X141973760Y-96958206D01*
X141752611Y-97017463D01*
X141752600Y-97017467D01*
X141545104Y-97114224D01*
X141545102Y-97114225D01*
X141545099Y-97114226D01*
X141545101Y-97114226D01*
X141357550Y-97245551D01*
X141357548Y-97245552D01*
X141357545Y-97245555D01*
X141195656Y-97407444D01*
X141064326Y-97595001D01*
X141064325Y-97595003D01*
X140967568Y-97802499D01*
X140967564Y-97802510D01*
X140908307Y-98023659D01*
X140908306Y-98023667D01*
X140888352Y-98251747D01*
X140888352Y-98251750D01*
X101152777Y-98251750D01*
X101152777Y-84528950D01*
X129641496Y-84528950D01*
X129651495Y-84738876D01*
X129701046Y-84943127D01*
X129701048Y-84943131D01*
X129788348Y-85134292D01*
X129788351Y-85134297D01*
X129788352Y-85134299D01*
X129788354Y-85134302D01*
X129910264Y-85305501D01*
X129910265Y-85305502D01*
X129910270Y-85305508D01*
X130062370Y-85450534D01*
X130147077Y-85504972D01*
X130239178Y-85564162D01*
X130434293Y-85642274D01*
X130537479Y-85662161D01*
X130640664Y-85682049D01*
X130640665Y-85682049D01*
X130798169Y-85682049D01*
X130798175Y-85682049D01*
X130954968Y-85667077D01*
X131156625Y-85607865D01*
X131288003Y-85540135D01*
X131356607Y-85526913D01*
X131421472Y-85552881D01*
X131457018Y-85597555D01*
X131547576Y-85790000D01*
X131547580Y-85790006D01*
X131716369Y-86055977D01*
X131716372Y-86055981D01*
X131823223Y-86185140D01*
X131917169Y-86298701D01*
X132089636Y-86460659D01*
X132146802Y-86514341D01*
X132146812Y-86514349D01*
X132401643Y-86699495D01*
X132401649Y-86699498D01*
X132401655Y-86699503D01*
X132677704Y-86851262D01*
X132970596Y-86967227D01*
X132970595Y-86967227D01*
X133275709Y-87045566D01*
X133275713Y-87045567D01*
X133275717Y-87045567D01*
X133275720Y-87045568D01*
X133588233Y-87085048D01*
X133588239Y-87085048D01*
X133588243Y-87085049D01*
X133588245Y-87085049D01*
X133903255Y-87085049D01*
X133903257Y-87085049D01*
X133903262Y-87085048D01*
X133903266Y-87085048D01*
X134215779Y-87045568D01*
X134215778Y-87045568D01*
X134215787Y-87045567D01*
X134520904Y-86967227D01*
X134813796Y-86851262D01*
X135089845Y-86699503D01*
X135344696Y-86514343D01*
X135574331Y-86298701D01*
X135775129Y-86055979D01*
X135943921Y-85790004D01*
X136078048Y-85504971D01*
X136175392Y-85205375D01*
X136234420Y-84895941D01*
X136237026Y-84854534D01*
X136254200Y-84581554D01*
X136254200Y-84581543D01*
X136234421Y-84267164D01*
X136234420Y-84267157D01*
X136175392Y-83957723D01*
X136078048Y-83658127D01*
X136078045Y-83658120D01*
X135943923Y-83373097D01*
X135943919Y-83373091D01*
X135775130Y-83107120D01*
X135775127Y-83107116D01*
X135574329Y-82864395D01*
X135344697Y-82648756D01*
X135344687Y-82648748D01*
X135089856Y-82463602D01*
X135089838Y-82463591D01*
X134813795Y-82311835D01*
X134813792Y-82311834D01*
X134520901Y-82195870D01*
X134520904Y-82195870D01*
X134215790Y-82117531D01*
X134215779Y-82117529D01*
X133903266Y-82078049D01*
X133903257Y-82078049D01*
X133588243Y-82078049D01*
X133588233Y-82078049D01*
X133275720Y-82117529D01*
X133275709Y-82117531D01*
X132970596Y-82195870D01*
X132677707Y-82311834D01*
X132677704Y-82311835D01*
X132401661Y-82463591D01*
X132401643Y-82463602D01*
X132146812Y-82648748D01*
X132146802Y-82648756D01*
X131917170Y-82864395D01*
X131716372Y-83107116D01*
X131716369Y-83107120D01*
X131547580Y-83373091D01*
X131547576Y-83373098D01*
X131457655Y-83564188D01*
X131411300Y-83616466D01*
X131344040Y-83635383D01*
X131278418Y-83615707D01*
X131252322Y-83598936D01*
X131057205Y-83520823D01*
X130850836Y-83481049D01*
X130850835Y-83481049D01*
X130693325Y-83481049D01*
X130536531Y-83496021D01*
X130536532Y-83496021D01*
X130536528Y-83496022D01*
X130334877Y-83555232D01*
X130148063Y-83651540D01*
X129982866Y-83781454D01*
X129982862Y-83781458D01*
X129845228Y-83940295D01*
X129740148Y-84122299D01*
X129671406Y-84320914D01*
X129671406Y-84320917D01*
X129641496Y-84528950D01*
X101152777Y-84528950D01*
X101152777Y-80910382D01*
X111591374Y-80910382D01*
X111601694Y-81074409D01*
X111652482Y-81230720D01*
X111652484Y-81230724D01*
X111740548Y-81369489D01*
X111860353Y-81481994D01*
X111860361Y-81482000D01*
X111940610Y-81526117D01*
X112004382Y-81561176D01*
X112163573Y-81602049D01*
X112163577Y-81602049D01*
X112286673Y-81602049D01*
X112286675Y-81602049D01*
X112286680Y-81602048D01*
X112286684Y-81602048D01*
X112299924Y-81600375D01*
X112408808Y-81586620D01*
X112561621Y-81526117D01*
X112561628Y-81526112D01*
X112694585Y-81429514D01*
X112694585Y-81429512D01*
X112694587Y-81429512D01*
X112799350Y-81302875D01*
X112869329Y-81154162D01*
X112900126Y-80992719D01*
X112889806Y-80828689D01*
X112839018Y-80672378D01*
X112834534Y-80665313D01*
X112782293Y-80582995D01*
X112750952Y-80533609D01*
X112687031Y-80473583D01*
X112631146Y-80421103D01*
X112631138Y-80421097D01*
X112487121Y-80341923D01*
X112487111Y-80341920D01*
X112327930Y-80301049D01*
X112327927Y-80301049D01*
X112204825Y-80301049D01*
X112204815Y-80301049D01*
X112082692Y-80316478D01*
X112082689Y-80316478D01*
X111929880Y-80376980D01*
X111929871Y-80376985D01*
X111796914Y-80473583D01*
X111796912Y-80473586D01*
X111692150Y-80600222D01*
X111622170Y-80748936D01*
X111606957Y-80828688D01*
X111591374Y-80910379D01*
X111591374Y-80910381D01*
X111591374Y-80910382D01*
X101152777Y-80910382D01*
X101152777Y-74824181D01*
X103806721Y-74824181D01*
X103825311Y-75048535D01*
X103825313Y-75048547D01*
X103880580Y-75266790D01*
X103971017Y-75472968D01*
X104094153Y-75661441D01*
X104094161Y-75661452D01*
X104246633Y-75827078D01*
X104246637Y-75827082D01*
X104424301Y-75965365D01*
X104467570Y-75988781D01*
X104467572Y-75988782D01*
X104517163Y-76038001D01*
X104532271Y-76106218D01*
X104508101Y-76171773D01*
X104479679Y-76199412D01*
X104298799Y-76326066D01*
X104298797Y-76326067D01*
X104131768Y-76493096D01*
X104131763Y-76493102D01*
X103996277Y-76686596D01*
X103996276Y-76686598D01*
X103896447Y-76900683D01*
X103896444Y-76900689D01*
X103839241Y-77114175D01*
X103839241Y-77114176D01*
X104736191Y-77114176D01*
X104710384Y-77154332D01*
X104669877Y-77292287D01*
X104669877Y-77436065D01*
X104710384Y-77574020D01*
X104736191Y-77614176D01*
X103839241Y-77614176D01*
X103896444Y-77827662D01*
X103896447Y-77827668D01*
X103996276Y-78041754D01*
X104131771Y-78235258D01*
X104298794Y-78402281D01*
X104492298Y-78537776D01*
X104706384Y-78637605D01*
X104706393Y-78637609D01*
X104919877Y-78694810D01*
X104919877Y-77799677D01*
X105027562Y-77848856D01*
X105134114Y-77864176D01*
X105205640Y-77864176D01*
X105312192Y-77848856D01*
X105419877Y-77799677D01*
X105419877Y-78694809D01*
X105633360Y-78637609D01*
X105633369Y-78637605D01*
X105847455Y-78537776D01*
X106040959Y-78402281D01*
X106155890Y-78287350D01*
X177031334Y-78287350D01*
X177049763Y-78497998D01*
X177049765Y-78498009D01*
X177104491Y-78702251D01*
X177104493Y-78702255D01*
X177104494Y-78702259D01*
X177179964Y-78864105D01*
X177193860Y-78893905D01*
X177193861Y-78893907D01*
X177315150Y-79067127D01*
X177464671Y-79216648D01*
X177464674Y-79216650D01*
X177637892Y-79337938D01*
X177829540Y-79427305D01*
X178033795Y-79482035D01*
X178184262Y-79495199D01*
X178244448Y-79500465D01*
X178244450Y-79500465D01*
X178244452Y-79500465D01*
X178297113Y-79495857D01*
X178455105Y-79482035D01*
X178659360Y-79427305D01*
X178851008Y-79337938D01*
X179024226Y-79216650D01*
X179173751Y-79067125D01*
X179295039Y-78893907D01*
X179384406Y-78702259D01*
X179384408Y-78702249D01*
X179384410Y-78702246D01*
X179398077Y-78651237D01*
X179434440Y-78591576D01*
X179497287Y-78561045D01*
X179566662Y-78569339D01*
X179620541Y-78613823D01*
X179637626Y-78651232D01*
X179644490Y-78676848D01*
X179644492Y-78676855D01*
X179644494Y-78676859D01*
X179656339Y-78702260D01*
X179733860Y-78868505D01*
X179733861Y-78868507D01*
X179855150Y-79041727D01*
X180004671Y-79191248D01*
X180004674Y-79191250D01*
X180177892Y-79312538D01*
X180369540Y-79401905D01*
X180573795Y-79456635D01*
X180724262Y-79469799D01*
X180784448Y-79475065D01*
X180784450Y-79475065D01*
X180784452Y-79475065D01*
X180837113Y-79470457D01*
X180995105Y-79456635D01*
X181199360Y-79401905D01*
X181391008Y-79312538D01*
X181564226Y-79191250D01*
X181713751Y-79041725D01*
X181835039Y-78868507D01*
X181924406Y-78676859D01*
X181979136Y-78472604D01*
X181997566Y-78261949D01*
X181997181Y-78257550D01*
X184549734Y-78257550D01*
X184568163Y-78468198D01*
X184568165Y-78468209D01*
X184622891Y-78672451D01*
X184622893Y-78672455D01*
X184622894Y-78672459D01*
X184702241Y-78842620D01*
X184712260Y-78864105D01*
X184712261Y-78864107D01*
X184833550Y-79037327D01*
X184983071Y-79186848D01*
X184983074Y-79186850D01*
X185156292Y-79308138D01*
X185347940Y-79397505D01*
X185347946Y-79397506D01*
X185347947Y-79397507D01*
X185364361Y-79401905D01*
X185552195Y-79452235D01*
X185702662Y-79465399D01*
X185762848Y-79470665D01*
X185762850Y-79470665D01*
X185762852Y-79470665D01*
X185815513Y-79466057D01*
X185973505Y-79452235D01*
X186177760Y-79397505D01*
X186369408Y-79308138D01*
X186542626Y-79186850D01*
X186692151Y-79037325D01*
X186813439Y-78864107D01*
X186902806Y-78672459D01*
X186913074Y-78634135D01*
X186949440Y-78574474D01*
X187012286Y-78543945D01*
X187081662Y-78552239D01*
X187135540Y-78596724D01*
X187152625Y-78634135D01*
X187162891Y-78672451D01*
X187162893Y-78672455D01*
X187162894Y-78672459D01*
X187242241Y-78842620D01*
X187252260Y-78864105D01*
X187252261Y-78864107D01*
X187373550Y-79037327D01*
X187523071Y-79186848D01*
X187523074Y-79186850D01*
X187696292Y-79308138D01*
X187887940Y-79397505D01*
X187887946Y-79397506D01*
X187887947Y-79397507D01*
X187904361Y-79401905D01*
X188092195Y-79452235D01*
X188242662Y-79465399D01*
X188302848Y-79470665D01*
X188302850Y-79470665D01*
X188302852Y-79470665D01*
X188355513Y-79466057D01*
X188513505Y-79452235D01*
X188717760Y-79397505D01*
X188909408Y-79308138D01*
X189082626Y-79186850D01*
X189232151Y-79037325D01*
X189353439Y-78864107D01*
X189442806Y-78672459D01*
X189497536Y-78468204D01*
X189515966Y-78257549D01*
X189497536Y-78046894D01*
X189443985Y-77847039D01*
X189442808Y-77842646D01*
X189442807Y-77842643D01*
X189442806Y-77842639D01*
X189353439Y-77650991D01*
X189232151Y-77477773D01*
X189232149Y-77477770D01*
X189082628Y-77328249D01*
X188909408Y-77206960D01*
X188909406Y-77206959D01*
X188887921Y-77196940D01*
X188717760Y-77117593D01*
X188717756Y-77117592D01*
X188717752Y-77117590D01*
X188513510Y-77062864D01*
X188513506Y-77062863D01*
X188513505Y-77062863D01*
X188513504Y-77062862D01*
X188513499Y-77062862D01*
X188302852Y-77044433D01*
X188302848Y-77044433D01*
X188092200Y-77062862D01*
X188092189Y-77062864D01*
X187887947Y-77117590D01*
X187887938Y-77117594D01*
X187696293Y-77206959D01*
X187696291Y-77206960D01*
X187523071Y-77328249D01*
X187373550Y-77477770D01*
X187252261Y-77650990D01*
X187252260Y-77650992D01*
X187162895Y-77842637D01*
X187162892Y-77842643D01*
X187152625Y-77880963D01*
X187116260Y-77940623D01*
X187053413Y-77971152D01*
X186984037Y-77962857D01*
X186930159Y-77918372D01*
X186913075Y-77880963D01*
X186902807Y-77842643D01*
X186902806Y-77842639D01*
X186813439Y-77650991D01*
X186692151Y-77477773D01*
X186692149Y-77477770D01*
X186542628Y-77328249D01*
X186369408Y-77206960D01*
X186369406Y-77206959D01*
X186347921Y-77196940D01*
X186177760Y-77117593D01*
X186177756Y-77117592D01*
X186177752Y-77117590D01*
X185973510Y-77062864D01*
X185973506Y-77062863D01*
X185973505Y-77062863D01*
X185973504Y-77062862D01*
X185973499Y-77062862D01*
X185762852Y-77044433D01*
X185762848Y-77044433D01*
X185552200Y-77062862D01*
X185552189Y-77062864D01*
X185347947Y-77117590D01*
X185347938Y-77117594D01*
X185156293Y-77206959D01*
X185156291Y-77206960D01*
X184983071Y-77328249D01*
X184833550Y-77477770D01*
X184712261Y-77650990D01*
X184712260Y-77650992D01*
X184622895Y-77842637D01*
X184622891Y-77842646D01*
X184568165Y-78046888D01*
X184568163Y-78046899D01*
X184549734Y-78257547D01*
X184549734Y-78257550D01*
X181997181Y-78257550D01*
X181979136Y-78051294D01*
X181924406Y-77847039D01*
X181835039Y-77655391D01*
X181713751Y-77482173D01*
X181713749Y-77482170D01*
X181564228Y-77332649D01*
X181391008Y-77211360D01*
X181391006Y-77211359D01*
X181369521Y-77201340D01*
X181199360Y-77121993D01*
X181199356Y-77121992D01*
X181199352Y-77121990D01*
X180995110Y-77067264D01*
X180995106Y-77067263D01*
X180995105Y-77067263D01*
X180995104Y-77067262D01*
X180995099Y-77067262D01*
X180784452Y-77048833D01*
X180784448Y-77048833D01*
X180573800Y-77067262D01*
X180573789Y-77067264D01*
X180369547Y-77121990D01*
X180369538Y-77121994D01*
X180177893Y-77211359D01*
X180177891Y-77211360D01*
X180004671Y-77332649D01*
X179855150Y-77482170D01*
X179733861Y-77655390D01*
X179733860Y-77655392D01*
X179722016Y-77680792D01*
X179646543Y-77842646D01*
X179644495Y-77847037D01*
X179644492Y-77847043D01*
X179630822Y-77898063D01*
X179594457Y-77957723D01*
X179531610Y-77988252D01*
X179462234Y-77979957D01*
X179408356Y-77935472D01*
X179391272Y-77898062D01*
X179384408Y-77872446D01*
X179384407Y-77872445D01*
X179384406Y-77872439D01*
X179295039Y-77680791D01*
X179173751Y-77507573D01*
X179173749Y-77507570D01*
X179024228Y-77358049D01*
X178851008Y-77236760D01*
X178851006Y-77236759D01*
X178829521Y-77226740D01*
X178659360Y-77147393D01*
X178659356Y-77147392D01*
X178659352Y-77147390D01*
X178455110Y-77092664D01*
X178455106Y-77092663D01*
X178455105Y-77092663D01*
X178455104Y-77092662D01*
X178455099Y-77092662D01*
X178244452Y-77074233D01*
X178244448Y-77074233D01*
X178033800Y-77092662D01*
X178033789Y-77092664D01*
X177829547Y-77147390D01*
X177829538Y-77147394D01*
X177637893Y-77236759D01*
X177637891Y-77236760D01*
X177464671Y-77358049D01*
X177315150Y-77507570D01*
X177193861Y-77680790D01*
X177193860Y-77680792D01*
X177104495Y-77872437D01*
X177104491Y-77872446D01*
X177049765Y-78076688D01*
X177049763Y-78076699D01*
X177031334Y-78287347D01*
X177031334Y-78287350D01*
X106155890Y-78287350D01*
X106207982Y-78235258D01*
X106343477Y-78041754D01*
X106443306Y-77827668D01*
X106443309Y-77827662D01*
X106500513Y-77614176D01*
X105603563Y-77614176D01*
X105629370Y-77574020D01*
X105669877Y-77436065D01*
X105669877Y-77292287D01*
X105629370Y-77154332D01*
X105603563Y-77114176D01*
X106500513Y-77114176D01*
X106500512Y-77114175D01*
X106443309Y-76900689D01*
X106443306Y-76900683D01*
X106343477Y-76686598D01*
X106343476Y-76686596D01*
X106207990Y-76493102D01*
X106207985Y-76493096D01*
X106040959Y-76326070D01*
X105860074Y-76199412D01*
X105816449Y-76144835D01*
X105809257Y-76075336D01*
X105840779Y-76012982D01*
X105872177Y-75988784D01*
X105915453Y-75965365D01*
X106093117Y-75827082D01*
X106245599Y-75661444D01*
X106368737Y-75472967D01*
X106459173Y-75266792D01*
X106514441Y-75048544D01*
X106514442Y-75048535D01*
X106533033Y-74824181D01*
X106533033Y-74824170D01*
X106514442Y-74599816D01*
X106514440Y-74599804D01*
X106459173Y-74381561D01*
X106397685Y-74241381D01*
X194535521Y-74241381D01*
X194554111Y-74465735D01*
X194554113Y-74465747D01*
X194609380Y-74683990D01*
X194699817Y-74890168D01*
X194822953Y-75078641D01*
X194822961Y-75078652D01*
X194975433Y-75244278D01*
X194975438Y-75244283D01*
X195034658Y-75290376D01*
X195153101Y-75382565D01*
X195153102Y-75382565D01*
X195153104Y-75382567D01*
X195279812Y-75451137D01*
X195351103Y-75489718D01*
X195564042Y-75562820D01*
X195786108Y-75599876D01*
X196011246Y-75599876D01*
X196233312Y-75562820D01*
X196446251Y-75489718D01*
X196644253Y-75382565D01*
X196821917Y-75244282D01*
X196974399Y-75078644D01*
X197064870Y-74940166D01*
X197118015Y-74894813D01*
X197187246Y-74885389D01*
X197250582Y-74914891D01*
X197272481Y-74940163D01*
X197362955Y-75078644D01*
X197362960Y-75078649D01*
X197362961Y-75078652D01*
X197515433Y-75244278D01*
X197515438Y-75244283D01*
X197574658Y-75290376D01*
X197693101Y-75382565D01*
X197693102Y-75382565D01*
X197693104Y-75382567D01*
X197819812Y-75451137D01*
X197891103Y-75489718D01*
X198104042Y-75562820D01*
X198326108Y-75599876D01*
X198551246Y-75599876D01*
X198773312Y-75562820D01*
X198986251Y-75489718D01*
X199184253Y-75382565D01*
X199361917Y-75244282D01*
X199514399Y-75078644D01*
X199637537Y-74890167D01*
X199727973Y-74683992D01*
X199783241Y-74465744D01*
X199801833Y-74241376D01*
X199783241Y-74017008D01*
X199727973Y-73798760D01*
X199637537Y-73592585D01*
X199621383Y-73567860D01*
X199528289Y-73425369D01*
X199514399Y-73404108D01*
X199514396Y-73404105D01*
X199514392Y-73404099D01*
X199361920Y-73238473D01*
X199361915Y-73238468D01*
X199184254Y-73100188D01*
X199184249Y-73100184D01*
X198986257Y-72993037D01*
X198986254Y-72993035D01*
X198986251Y-72993034D01*
X198986248Y-72993033D01*
X198986246Y-72993032D01*
X198773314Y-72919932D01*
X198551246Y-72882876D01*
X198326108Y-72882876D01*
X198104039Y-72919932D01*
X197891107Y-72993032D01*
X197891096Y-72993037D01*
X197693104Y-73100184D01*
X197693099Y-73100188D01*
X197515438Y-73238468D01*
X197515433Y-73238473D01*
X197362961Y-73404099D01*
X197362953Y-73404110D01*
X197272485Y-73542582D01*
X197219339Y-73587938D01*
X197150108Y-73597362D01*
X197086772Y-73567860D01*
X197064869Y-73542582D01*
X196988289Y-73425369D01*
X196974399Y-73404108D01*
X196974396Y-73404105D01*
X196974392Y-73404099D01*
X196821920Y-73238473D01*
X196821915Y-73238468D01*
X196644254Y-73100188D01*
X196644249Y-73100184D01*
X196446257Y-72993037D01*
X196446254Y-72993035D01*
X196446251Y-72993034D01*
X196446248Y-72993033D01*
X196446246Y-72993032D01*
X196233314Y-72919932D01*
X196011246Y-72882876D01*
X195786108Y-72882876D01*
X195564039Y-72919932D01*
X195351107Y-72993032D01*
X195351096Y-72993037D01*
X195153104Y-73100184D01*
X195153099Y-73100188D01*
X194975438Y-73238468D01*
X194975433Y-73238473D01*
X194822961Y-73404099D01*
X194822953Y-73404110D01*
X194699817Y-73592583D01*
X194609380Y-73798761D01*
X194554113Y-74017004D01*
X194554111Y-74017016D01*
X194535521Y-74241370D01*
X194535521Y-74241381D01*
X106397685Y-74241381D01*
X106368736Y-74175383D01*
X106307167Y-74081146D01*
X106245599Y-73986908D01*
X106245596Y-73986905D01*
X106245592Y-73986899D01*
X106093120Y-73821273D01*
X106093115Y-73821268D01*
X105915454Y-73682988D01*
X105915455Y-73682988D01*
X105915453Y-73682987D01*
X105878947Y-73663231D01*
X105829356Y-73614012D01*
X105814248Y-73545795D01*
X105838418Y-73480240D01*
X105878947Y-73445121D01*
X105878961Y-73445112D01*
X105915453Y-73425365D01*
X106093117Y-73287082D01*
X106245599Y-73121444D01*
X106368737Y-72932967D01*
X106459173Y-72726792D01*
X106514441Y-72508544D01*
X106533033Y-72284176D01*
X106514441Y-72059808D01*
X106459173Y-71841560D01*
X106368737Y-71635385D01*
X106245599Y-71446908D01*
X106245596Y-71446905D01*
X106245592Y-71446899D01*
X106100387Y-71289167D01*
X106069464Y-71226513D01*
X106077324Y-71157087D01*
X106121471Y-71102931D01*
X106148282Y-71089003D01*
X106246257Y-71052459D01*
X106266081Y-71045065D01*
X106383138Y-70957437D01*
X106470766Y-70840380D01*
X106521866Y-70703377D01*
X106525740Y-70667347D01*
X106528376Y-70642830D01*
X106528377Y-70642813D01*
X106528377Y-68845538D01*
X106528376Y-68845521D01*
X106525034Y-68814446D01*
X106521866Y-68784975D01*
X106511002Y-68755849D01*
X106490190Y-68700049D01*
X106470766Y-68647972D01*
X106383138Y-68530915D01*
X106266081Y-68443287D01*
X106251244Y-68437753D01*
X106129080Y-68392187D01*
X106068531Y-68385676D01*
X106068515Y-68385676D01*
X104271239Y-68385676D01*
X104271222Y-68385676D01*
X104210674Y-68392187D01*
X104210672Y-68392187D01*
X104073672Y-68443287D01*
X103956616Y-68530915D01*
X103868988Y-68647971D01*
X103817888Y-68784971D01*
X103817888Y-68784973D01*
X103811377Y-68845521D01*
X103811377Y-70642830D01*
X103817888Y-70703378D01*
X103817888Y-70703380D01*
X103863847Y-70826597D01*
X103868988Y-70840380D01*
X103956616Y-70957437D01*
X104073673Y-71045065D01*
X104125614Y-71064438D01*
X104191472Y-71089003D01*
X104247405Y-71130875D01*
X104271821Y-71196339D01*
X104256969Y-71264612D01*
X104239367Y-71289167D01*
X104094156Y-71446906D01*
X104094153Y-71446910D01*
X103971017Y-71635383D01*
X103880580Y-71841561D01*
X103825313Y-72059804D01*
X103825311Y-72059816D01*
X103806721Y-72284170D01*
X103806721Y-72284181D01*
X103825311Y-72508535D01*
X103825313Y-72508547D01*
X103880580Y-72726790D01*
X103971017Y-72932968D01*
X104094153Y-73121441D01*
X104094161Y-73121452D01*
X104246633Y-73287078D01*
X104246637Y-73287082D01*
X104424301Y-73425365D01*
X104424306Y-73425367D01*
X104424308Y-73425369D01*
X104460807Y-73445122D01*
X104510397Y-73494341D01*
X104525505Y-73562558D01*
X104501334Y-73628113D01*
X104460807Y-73663230D01*
X104424308Y-73682982D01*
X104424299Y-73682988D01*
X104246638Y-73821268D01*
X104246633Y-73821273D01*
X104094161Y-73986899D01*
X104094153Y-73986910D01*
X103971017Y-74175383D01*
X103880580Y-74381561D01*
X103825313Y-74599804D01*
X103825311Y-74599816D01*
X103806721Y-74824170D01*
X103806721Y-74824181D01*
X101152777Y-74824181D01*
X101152777Y-48697815D01*
X101172462Y-48630776D01*
X101225266Y-48585021D01*
X101294424Y-48575077D01*
X101357980Y-48604102D01*
X101392205Y-48652513D01*
X101501253Y-48930365D01*
X101501258Y-48930377D01*
X101501259Y-48930378D01*
X101683430Y-49285715D01*
X101900076Y-49621149D01*
X102149044Y-49933345D01*
X102427859Y-50219200D01*
X102733751Y-50475874D01*
X103063679Y-50700815D01*
X103414365Y-50891788D01*
X103782322Y-51046895D01*
X103782332Y-51046898D01*
X103782337Y-51046900D01*
X104163890Y-51164594D01*
X104163903Y-51164597D01*
X104555276Y-51243714D01*
X104555291Y-51243717D01*
X104952620Y-51283476D01*
X105252024Y-51283476D01*
X105252041Y-51283476D01*
X105551094Y-51268551D01*
X105945947Y-51209036D01*
X106332913Y-51110503D01*
X106708144Y-50973930D01*
X107067913Y-50800674D01*
X107408644Y-50592458D01*
X107726949Y-50351351D01*
X108019667Y-50079749D01*
X108283887Y-49780351D01*
X108516983Y-49456134D01*
X108716640Y-49110318D01*
X108880872Y-48746342D01*
X109008048Y-48367822D01*
X109096904Y-47978520D01*
X109146556Y-47582306D01*
X109150288Y-47432661D01*
X109156511Y-47183132D01*
X109156511Y-47183117D01*
X109141563Y-46983652D01*
X109126670Y-46784920D01*
X109057330Y-46391673D01*
X108949180Y-46007284D01*
X108915903Y-45922496D01*
X108803300Y-45635586D01*
X108803295Y-45635574D01*
X108621128Y-45280245D01*
X108621124Y-45280237D01*
X108404478Y-44944803D01*
X108155510Y-44632607D01*
X107876695Y-44346752D01*
X107865864Y-44337664D01*
X107785842Y-44270517D01*
X107570803Y-44090078D01*
X107407990Y-43979074D01*
X107240874Y-43865136D01*
X107092508Y-43784341D01*
X106890189Y-43674164D01*
X106890181Y-43674160D01*
X106890178Y-43674159D01*
X106530832Y-43522682D01*
X106476703Y-43478503D01*
X106455052Y-43412072D01*
X106472753Y-43344482D01*
X106524186Y-43297191D01*
X106579077Y-43284419D01*
X109464333Y-43286329D01*
X109531359Y-43306058D01*
X109577078Y-43358892D01*
X109588250Y-43410329D01*
X109588250Y-73791549D01*
X174993250Y-73791549D01*
X174993250Y-70667350D01*
X177031334Y-70667350D01*
X177049763Y-70877998D01*
X177049765Y-70878009D01*
X177104491Y-71082251D01*
X177104493Y-71082255D01*
X177104494Y-71082259D01*
X177171761Y-71226513D01*
X177193860Y-71273905D01*
X177193861Y-71273907D01*
X177315150Y-71447127D01*
X177464671Y-71596648D01*
X177464674Y-71596650D01*
X177637892Y-71717938D01*
X177829540Y-71807305D01*
X178033795Y-71862035D01*
X178184262Y-71875199D01*
X178244448Y-71880465D01*
X178244450Y-71880465D01*
X178244452Y-71880465D01*
X178297113Y-71875857D01*
X178455105Y-71862035D01*
X178659360Y-71807305D01*
X178851008Y-71717938D01*
X179024226Y-71596650D01*
X179173751Y-71447125D01*
X179295039Y-71273907D01*
X179384406Y-71082259D01*
X179384408Y-71082249D01*
X179384410Y-71082246D01*
X179398077Y-71031237D01*
X179434440Y-70971576D01*
X179497287Y-70941045D01*
X179566662Y-70949339D01*
X179620541Y-70993823D01*
X179637626Y-71031232D01*
X179644490Y-71056848D01*
X179644492Y-71056855D01*
X179644494Y-71056859D01*
X179684656Y-71142987D01*
X179733860Y-71248505D01*
X179733861Y-71248507D01*
X179855150Y-71421727D01*
X180004671Y-71571248D01*
X180004674Y-71571250D01*
X180177892Y-71692538D01*
X180369540Y-71781905D01*
X180573795Y-71836635D01*
X180724262Y-71849799D01*
X180784448Y-71855065D01*
X180784450Y-71855065D01*
X180784452Y-71855065D01*
X180837113Y-71850457D01*
X180995105Y-71836635D01*
X181199360Y-71781905D01*
X181391008Y-71692538D01*
X181564226Y-71571250D01*
X181713751Y-71421725D01*
X181835039Y-71248507D01*
X181924406Y-71056859D01*
X181979136Y-70852604D01*
X181997566Y-70641949D01*
X181997181Y-70637550D01*
X184549734Y-70637550D01*
X184568163Y-70848198D01*
X184568165Y-70848209D01*
X184622891Y-71052451D01*
X184622893Y-71052455D01*
X184622894Y-71052459D01*
X184659460Y-71130875D01*
X184712260Y-71244105D01*
X184712261Y-71244107D01*
X184833550Y-71417327D01*
X184983071Y-71566848D01*
X184983074Y-71566850D01*
X185156292Y-71688138D01*
X185347940Y-71777505D01*
X185347946Y-71777506D01*
X185347947Y-71777507D01*
X185364361Y-71781905D01*
X185552195Y-71832235D01*
X185702662Y-71845399D01*
X185762848Y-71850665D01*
X185762850Y-71850665D01*
X185762852Y-71850665D01*
X185815513Y-71846057D01*
X185973505Y-71832235D01*
X186177760Y-71777505D01*
X186369408Y-71688138D01*
X186542626Y-71566850D01*
X186692151Y-71417325D01*
X186813439Y-71244107D01*
X186902806Y-71052459D01*
X186913074Y-71014135D01*
X186949440Y-70954474D01*
X187012286Y-70923945D01*
X187081662Y-70932239D01*
X187135540Y-70976724D01*
X187152625Y-71014135D01*
X187162891Y-71052451D01*
X187162893Y-71052455D01*
X187162894Y-71052459D01*
X187199460Y-71130875D01*
X187252260Y-71244105D01*
X187252261Y-71244107D01*
X187373550Y-71417327D01*
X187523071Y-71566848D01*
X187523074Y-71566850D01*
X187696292Y-71688138D01*
X187887940Y-71777505D01*
X187887946Y-71777506D01*
X187887947Y-71777507D01*
X187904361Y-71781905D01*
X188092195Y-71832235D01*
X188242662Y-71845399D01*
X188302848Y-71850665D01*
X188302850Y-71850665D01*
X188302852Y-71850665D01*
X188355513Y-71846057D01*
X188513505Y-71832235D01*
X188717760Y-71777505D01*
X188909408Y-71688138D01*
X189082626Y-71566850D01*
X189232151Y-71417325D01*
X189353439Y-71244107D01*
X189442806Y-71052459D01*
X189497536Y-70848204D01*
X189515505Y-70642814D01*
X189515966Y-70637550D01*
X189515966Y-70637547D01*
X189510700Y-70577361D01*
X189497536Y-70426894D01*
X189443985Y-70227039D01*
X189442808Y-70222646D01*
X189442807Y-70222643D01*
X189442806Y-70222639D01*
X189353439Y-70030991D01*
X189232151Y-69857773D01*
X189232149Y-69857770D01*
X189082628Y-69708249D01*
X188909408Y-69586960D01*
X188909406Y-69586959D01*
X188781666Y-69527393D01*
X188717760Y-69497593D01*
X188717756Y-69497592D01*
X188717752Y-69497590D01*
X188513510Y-69442864D01*
X188513506Y-69442863D01*
X188513505Y-69442863D01*
X188513504Y-69442862D01*
X188513499Y-69442862D01*
X188302852Y-69424433D01*
X188302848Y-69424433D01*
X188092200Y-69442862D01*
X188092189Y-69442864D01*
X187887947Y-69497590D01*
X187887938Y-69497594D01*
X187696293Y-69586959D01*
X187696291Y-69586960D01*
X187523071Y-69708249D01*
X187373550Y-69857770D01*
X187252261Y-70030990D01*
X187252260Y-70030992D01*
X187162895Y-70222637D01*
X187162892Y-70222643D01*
X187152625Y-70260963D01*
X187116260Y-70320623D01*
X187053413Y-70351152D01*
X186984037Y-70342857D01*
X186930159Y-70298372D01*
X186913075Y-70260963D01*
X186902807Y-70222643D01*
X186902806Y-70222639D01*
X186813439Y-70030991D01*
X186692151Y-69857773D01*
X186692149Y-69857770D01*
X186542628Y-69708249D01*
X186369408Y-69586960D01*
X186369406Y-69586959D01*
X186241666Y-69527393D01*
X186177760Y-69497593D01*
X186177756Y-69497592D01*
X186177752Y-69497590D01*
X185973510Y-69442864D01*
X185973506Y-69442863D01*
X185973505Y-69442863D01*
X185973504Y-69442862D01*
X185973499Y-69442862D01*
X185762852Y-69424433D01*
X185762848Y-69424433D01*
X185552200Y-69442862D01*
X185552189Y-69442864D01*
X185347947Y-69497590D01*
X185347938Y-69497594D01*
X185156293Y-69586959D01*
X185156291Y-69586960D01*
X184983071Y-69708249D01*
X184833550Y-69857770D01*
X184712261Y-70030990D01*
X184712260Y-70030992D01*
X184622895Y-70222637D01*
X184622891Y-70222646D01*
X184568165Y-70426888D01*
X184568163Y-70426899D01*
X184549734Y-70637547D01*
X184549734Y-70637550D01*
X181997181Y-70637550D01*
X181979136Y-70431294D01*
X181924406Y-70227039D01*
X181835039Y-70035391D01*
X181713751Y-69862173D01*
X181713749Y-69862170D01*
X181564228Y-69712649D01*
X181391008Y-69591360D01*
X181391006Y-69591359D01*
X181369521Y-69581340D01*
X181199360Y-69501993D01*
X181199356Y-69501992D01*
X181199352Y-69501990D01*
X180995110Y-69447264D01*
X180995106Y-69447263D01*
X180995105Y-69447263D01*
X180995104Y-69447262D01*
X180995099Y-69447262D01*
X180784452Y-69428833D01*
X180784448Y-69428833D01*
X180573800Y-69447262D01*
X180573789Y-69447264D01*
X180369547Y-69501990D01*
X180369538Y-69501994D01*
X180177893Y-69591359D01*
X180177891Y-69591360D01*
X180004671Y-69712649D01*
X179855150Y-69862170D01*
X179733861Y-70035390D01*
X179733860Y-70035392D01*
X179722016Y-70060792D01*
X179646543Y-70222646D01*
X179644495Y-70227037D01*
X179644492Y-70227043D01*
X179630822Y-70278063D01*
X179594457Y-70337723D01*
X179531610Y-70368252D01*
X179462234Y-70359957D01*
X179408356Y-70315472D01*
X179391272Y-70278062D01*
X179384408Y-70252446D01*
X179384407Y-70252445D01*
X179384406Y-70252439D01*
X179295039Y-70060791D01*
X179173751Y-69887573D01*
X179173749Y-69887570D01*
X179024228Y-69738049D01*
X178851008Y-69616760D01*
X178851006Y-69616759D01*
X178829521Y-69606740D01*
X178659360Y-69527393D01*
X178659356Y-69527392D01*
X178659352Y-69527390D01*
X178455110Y-69472664D01*
X178455106Y-69472663D01*
X178455105Y-69472663D01*
X178455104Y-69472662D01*
X178455099Y-69472662D01*
X178244452Y-69454233D01*
X178244448Y-69454233D01*
X178033800Y-69472662D01*
X178033789Y-69472664D01*
X177829547Y-69527390D01*
X177829538Y-69527394D01*
X177637893Y-69616759D01*
X177637891Y-69616760D01*
X177464671Y-69738049D01*
X177315150Y-69887570D01*
X177193861Y-70060790D01*
X177193860Y-70060792D01*
X177104495Y-70252437D01*
X177104491Y-70252446D01*
X177049765Y-70456688D01*
X177049763Y-70456699D01*
X177031334Y-70667347D01*
X177031334Y-70667350D01*
X174993250Y-70667350D01*
X174993250Y-68240203D01*
X177210950Y-68240203D01*
X177217461Y-68300751D01*
X177217461Y-68300753D01*
X177254808Y-68400880D01*
X177268561Y-68437753D01*
X177356189Y-68554810D01*
X177473246Y-68642438D01*
X177568250Y-68677873D01*
X177610243Y-68693536D01*
X177610249Y-68693538D01*
X177637500Y-68696467D01*
X177670795Y-68700048D01*
X177670812Y-68700049D01*
X178818088Y-68700049D01*
X178818104Y-68700048D01*
X178845142Y-68697140D01*
X178878651Y-68693538D01*
X178878655Y-68693536D01*
X178878657Y-68693536D01*
X179015649Y-68642440D01*
X179015649Y-68642439D01*
X179015654Y-68642438D01*
X179015657Y-68642435D01*
X179023439Y-68638187D01*
X179024969Y-68640989D01*
X179075705Y-68622052D01*
X179120571Y-68627072D01*
X179311849Y-68685095D01*
X179311848Y-68685095D01*
X179330013Y-68686884D01*
X179514450Y-68705050D01*
X179717051Y-68685095D01*
X179911867Y-68625999D01*
X180090999Y-68530250D01*
X180159399Y-68516009D01*
X180207898Y-68530249D01*
X180348886Y-68605609D01*
X180387025Y-68625995D01*
X180387033Y-68625999D01*
X180581849Y-68685095D01*
X180581848Y-68685095D01*
X180601802Y-68687060D01*
X180784450Y-68705050D01*
X180987051Y-68685095D01*
X181181867Y-68625999D01*
X181361410Y-68530031D01*
X181518781Y-68400880D01*
X181606242Y-68294308D01*
X181608954Y-68291003D01*
X184678550Y-68291003D01*
X184685061Y-68351551D01*
X184685061Y-68351553D01*
X184703460Y-68400880D01*
X184736161Y-68488553D01*
X184823789Y-68605610D01*
X184940846Y-68693238D01*
X185055213Y-68735895D01*
X185077843Y-68744336D01*
X185077849Y-68744338D01*
X185105100Y-68747267D01*
X185138395Y-68750848D01*
X185138412Y-68750849D01*
X186285688Y-68750849D01*
X186285704Y-68750848D01*
X186312742Y-68747940D01*
X186346251Y-68744338D01*
X186346255Y-68744336D01*
X186346257Y-68744336D01*
X186483249Y-68693240D01*
X186483249Y-68693239D01*
X186483254Y-68693238D01*
X186483257Y-68693235D01*
X186491039Y-68688987D01*
X186492569Y-68691789D01*
X186543305Y-68672852D01*
X186588171Y-68677872D01*
X186779449Y-68735895D01*
X186779448Y-68735895D01*
X186797613Y-68737684D01*
X186982050Y-68755850D01*
X187184651Y-68735895D01*
X187379467Y-68676799D01*
X187558599Y-68581050D01*
X187626999Y-68566809D01*
X187675498Y-68581049D01*
X187837291Y-68667529D01*
X187854625Y-68676795D01*
X187854633Y-68676799D01*
X188049449Y-68735895D01*
X188049448Y-68735895D01*
X188067613Y-68737684D01*
X188252050Y-68755850D01*
X188454651Y-68735895D01*
X188649467Y-68676799D01*
X188829010Y-68580831D01*
X188986381Y-68451680D01*
X188997811Y-68437753D01*
X189115533Y-68294308D01*
X189115535Y-68294303D01*
X189117299Y-68291003D01*
X189211500Y-68114766D01*
X189270596Y-67919950D01*
X189285550Y-67768124D01*
X189285550Y-67216574D01*
X189270596Y-67064748D01*
X189211500Y-66869932D01*
X189184344Y-66819127D01*
X189115533Y-66690390D01*
X189115530Y-66690386D01*
X188986381Y-66533017D01*
X188829011Y-66403868D01*
X188829004Y-66403863D01*
X188649474Y-66307902D01*
X188649471Y-66307901D01*
X188649470Y-66307900D01*
X188649467Y-66307899D01*
X188454651Y-66248803D01*
X188454649Y-66248802D01*
X188454651Y-66248802D01*
X188252050Y-66228848D01*
X188049450Y-66248802D01*
X187940457Y-66281865D01*
X187854633Y-66307899D01*
X187854630Y-66307900D01*
X187854628Y-66307901D01*
X187854625Y-66307902D01*
X187675503Y-66403645D01*
X187607100Y-66417887D01*
X187558597Y-66403645D01*
X187379474Y-66307902D01*
X187379471Y-66307901D01*
X187379470Y-66307900D01*
X187379467Y-66307899D01*
X187184651Y-66248803D01*
X187184649Y-66248802D01*
X187184651Y-66248802D01*
X186982050Y-66228848D01*
X186779450Y-66248802D01*
X186588176Y-66306824D01*
X186518309Y-66307447D01*
X186491795Y-66294324D01*
X186491038Y-66295711D01*
X186483259Y-66291464D01*
X186483254Y-66291460D01*
X186391138Y-66257102D01*
X186346253Y-66240360D01*
X186285704Y-66233849D01*
X186285688Y-66233849D01*
X185138412Y-66233849D01*
X185138395Y-66233849D01*
X185077847Y-66240360D01*
X185077845Y-66240360D01*
X184940845Y-66291460D01*
X184823789Y-66379088D01*
X184736161Y-66496144D01*
X184685061Y-66633144D01*
X184685061Y-66633146D01*
X184678550Y-66693694D01*
X184678550Y-68291003D01*
X181608954Y-68291003D01*
X181647933Y-68243508D01*
X181647935Y-68243503D01*
X181649699Y-68240203D01*
X181743900Y-68063966D01*
X181802996Y-67869150D01*
X181817950Y-67717324D01*
X181817950Y-67165774D01*
X181802996Y-67013948D01*
X181743900Y-66819132D01*
X181675086Y-66690390D01*
X181647933Y-66639590D01*
X181647930Y-66639586D01*
X181518781Y-66482217D01*
X181361411Y-66353068D01*
X181361404Y-66353063D01*
X181181874Y-66257102D01*
X181181871Y-66257101D01*
X181181870Y-66257100D01*
X181181867Y-66257099D01*
X180987051Y-66198003D01*
X180987049Y-66198002D01*
X180987051Y-66198002D01*
X180784450Y-66178048D01*
X180581850Y-66198002D01*
X180480165Y-66228848D01*
X180387033Y-66257099D01*
X180387030Y-66257100D01*
X180387028Y-66257101D01*
X180387025Y-66257102D01*
X180207903Y-66352845D01*
X180139500Y-66367087D01*
X180090997Y-66352845D01*
X179911874Y-66257102D01*
X179911871Y-66257101D01*
X179911870Y-66257100D01*
X179911867Y-66257099D01*
X179717051Y-66198003D01*
X179717049Y-66198002D01*
X179717051Y-66198002D01*
X179514450Y-66178048D01*
X179311850Y-66198002D01*
X179120576Y-66256024D01*
X179050709Y-66256647D01*
X179024195Y-66243524D01*
X179023438Y-66244911D01*
X179015659Y-66240664D01*
X179015654Y-66240660D01*
X178961208Y-66220352D01*
X178878653Y-66189560D01*
X178818104Y-66183049D01*
X178818088Y-66183049D01*
X177670812Y-66183049D01*
X177670795Y-66183049D01*
X177610247Y-66189560D01*
X177610245Y-66189560D01*
X177473245Y-66240660D01*
X177356189Y-66328288D01*
X177268561Y-66445344D01*
X177217461Y-66582344D01*
X177217461Y-66582346D01*
X177210950Y-66642894D01*
X177210950Y-68240203D01*
X174993250Y-68240203D01*
X174993250Y-61680002D01*
X177100376Y-61680002D01*
X177100377Y-61680021D01*
X177115616Y-61859069D01*
X177176032Y-62091100D01*
X177176033Y-62091103D01*
X177274785Y-62309568D01*
X177274792Y-62309580D01*
X177409052Y-62508223D01*
X177409054Y-62508225D01*
X177574952Y-62681320D01*
X177574953Y-62681321D01*
X177767715Y-62823888D01*
X177767717Y-62823889D01*
X177767720Y-62823891D01*
X177981810Y-62931833D01*
X178211062Y-63002040D01*
X178448882Y-63032494D01*
X178688428Y-63022319D01*
X178922809Y-62971806D01*
X179145281Y-62882409D01*
X179349446Y-62756700D01*
X179529428Y-62598295D01*
X179680052Y-62411752D01*
X179796982Y-62202436D01*
X179876857Y-61976370D01*
X179887772Y-61912711D01*
X179917376Y-61740066D01*
X179917377Y-61740055D01*
X179917377Y-61680002D01*
X184600376Y-61680002D01*
X184600377Y-61680021D01*
X184615616Y-61859069D01*
X184676032Y-62091100D01*
X184676033Y-62091103D01*
X184774785Y-62309568D01*
X184774792Y-62309580D01*
X184909052Y-62508223D01*
X184909054Y-62508225D01*
X185074952Y-62681320D01*
X185074953Y-62681321D01*
X185267715Y-62823888D01*
X185267717Y-62823889D01*
X185267720Y-62823891D01*
X185481810Y-62931833D01*
X185711062Y-63002040D01*
X185948882Y-63032494D01*
X186188428Y-63022319D01*
X186422809Y-62971806D01*
X186645281Y-62882409D01*
X186849446Y-62756700D01*
X187029428Y-62598295D01*
X187180052Y-62411752D01*
X187296982Y-62202436D01*
X187376857Y-61976370D01*
X187387772Y-61912711D01*
X187417376Y-61740066D01*
X187417377Y-61740055D01*
X187417377Y-61680002D01*
X187417377Y-59760349D01*
X187417376Y-59760337D01*
X187417376Y-59760330D01*
X187402137Y-59581282D01*
X187341721Y-59349251D01*
X187341720Y-59349248D01*
X187242968Y-59130783D01*
X187242961Y-59130771D01*
X187108701Y-58932128D01*
X187108699Y-58932126D01*
X186942801Y-58759031D01*
X186942800Y-58759030D01*
X186750038Y-58616463D01*
X186658231Y-58570175D01*
X186535944Y-58508519D01*
X186306692Y-58438312D01*
X186306690Y-58438311D01*
X186306688Y-58438311D01*
X186068866Y-58407857D01*
X185829329Y-58418032D01*
X185829325Y-58418032D01*
X185594943Y-58468546D01*
X185594942Y-58468546D01*
X185372476Y-58557941D01*
X185168306Y-58683653D01*
X184988325Y-58842057D01*
X184988321Y-58842061D01*
X184837701Y-59028600D01*
X184720772Y-59237914D01*
X184640898Y-59463978D01*
X184640895Y-59463988D01*
X184600377Y-59700285D01*
X184600377Y-59700296D01*
X184600376Y-61680002D01*
X179917377Y-61680002D01*
X179917377Y-59760349D01*
X179917376Y-59760337D01*
X179917376Y-59760330D01*
X179902137Y-59581282D01*
X179841721Y-59349251D01*
X179841720Y-59349248D01*
X179742968Y-59130783D01*
X179742961Y-59130771D01*
X179608701Y-58932128D01*
X179608699Y-58932126D01*
X179442801Y-58759031D01*
X179442800Y-58759030D01*
X179250038Y-58616463D01*
X179158231Y-58570175D01*
X179035944Y-58508519D01*
X178806692Y-58438312D01*
X178806690Y-58438311D01*
X178806688Y-58438311D01*
X178568866Y-58407857D01*
X178329329Y-58418032D01*
X178329325Y-58418032D01*
X178094943Y-58468546D01*
X178094942Y-58468546D01*
X177872476Y-58557941D01*
X177668306Y-58683653D01*
X177488325Y-58842057D01*
X177488321Y-58842061D01*
X177337701Y-59028600D01*
X177220772Y-59237914D01*
X177140898Y-59463978D01*
X177140895Y-59463988D01*
X177100377Y-59700285D01*
X177100377Y-59700296D01*
X177100376Y-61680002D01*
X174993250Y-61680002D01*
X174993250Y-57270176D01*
X179677847Y-57270176D01*
X179685261Y-57331228D01*
X179754885Y-57571596D01*
X179754886Y-57571599D01*
X179862170Y-57797697D01*
X180004333Y-58003656D01*
X180004334Y-58003657D01*
X180177694Y-58184142D01*
X180377762Y-58334484D01*
X180599346Y-58450781D01*
X180836736Y-58530033D01*
X181083745Y-58570176D01*
X182008877Y-58570176D01*
X182008877Y-57670176D01*
X182508877Y-57670176D01*
X182508877Y-58570176D01*
X183371337Y-58570176D01*
X183371356Y-58570175D01*
X183558322Y-58555082D01*
X183801306Y-58495191D01*
X184031538Y-58397098D01*
X184243061Y-58263340D01*
X184430376Y-58097394D01*
X184588651Y-57903540D01*
X184588655Y-57903534D01*
X184713780Y-57686812D01*
X184802524Y-57452813D01*
X184839810Y-57270176D01*
X183334605Y-57270176D01*
X183356977Y-57222633D01*
X183387750Y-57061314D01*
X183377438Y-56897410D01*
X183336097Y-56770176D01*
X184839907Y-56770176D01*
X184832492Y-56709123D01*
X184762868Y-56468755D01*
X184762867Y-56468752D01*
X184655583Y-56242654D01*
X184513420Y-56036695D01*
X184513419Y-56036694D01*
X184340059Y-55856209D01*
X184139991Y-55705867D01*
X183918407Y-55589570D01*
X183681017Y-55510318D01*
X183434009Y-55470176D01*
X182508877Y-55470176D01*
X182508877Y-56370176D01*
X182008877Y-56370176D01*
X182008877Y-55470176D01*
X181146397Y-55470176D01*
X180959431Y-55485269D01*
X180716447Y-55545160D01*
X180486215Y-55643253D01*
X180274692Y-55777011D01*
X180087377Y-55942957D01*
X179929102Y-56136811D01*
X179929098Y-56136817D01*
X179803973Y-56353539D01*
X179715229Y-56587538D01*
X179677943Y-56770176D01*
X181183149Y-56770176D01*
X181160777Y-56817719D01*
X181130004Y-56979038D01*
X181140316Y-57142942D01*
X181181657Y-57270176D01*
X179677847Y-57270176D01*
X174993250Y-57270176D01*
X174993250Y-43421661D01*
X175012935Y-43354622D01*
X175065739Y-43308867D01*
X175117168Y-43297661D01*
X195738316Y-43284386D01*
X195805365Y-43304026D01*
G37*
G04 #@! TD.AperFunction*
M02*
