M48
; DRILL file {KiCad 7.0.5} date Sun Dec 17 10:26:11 2023
; FORMAT={-:-/ absolute / metric / decimal}
; #@! TF.CreationDate,2023-12-17T10:26:11+13:00
; #@! TF.GenerationSoftware,Kicad,Pcbnew,7.0.5
; #@! TF.FileFunction,Plated,1,4,PTH
FMAT,2
METRIC
; #@! TA.AperFunction,Plated,PTH,ViaDrill
T1C0.400
; #@! TA.AperFunction,Plated,PTH,ComponentDrill
T2C0.700
; #@! TA.AperFunction,Plated,PTH,ComponentDrill
T3C0.750
; #@! TA.AperFunction,Plated,PTH,ComponentDrill
T4C0.800
; #@! TA.AperFunction,Plated,PTH,ComponentDrill
T5C0.900
; #@! TA.AperFunction,Plated,PTH,ComponentDrill
T6C1.000
; #@! TA.AperFunction,Plated,PTH,ComponentDrill
T7C1.100
%
G90
G05
T1
X103.022Y-72.034
X103.429Y-74.168
X113.894Y-83.414
X116.586Y-94.996
X124.079Y-84.863
X125.374Y-55.474
X125.451Y-66.446
X126.492Y-59.893
X126.492Y-64.16
X133.028Y-84.111
X135.433Y-76.149
X141.097Y-94.615
X144.145Y-96.139
X146.812Y-91.707
X147.422Y-97.18
X147.701Y-99.187
X150.509Y-93.523
X154.138Y-88.444
X154.536Y-75.565
X154.564Y-80.209
X155.037Y-69.512
X155.778Y-47.701
X155.905Y-68.021
X157.49Y-106.965
X160.02Y-52.07
X162.446Y-113.444
X162.597Y-79.959
X166.878Y-66.04
X167.64Y-75.438
X168.402Y-66.98
X168.402Y-83.007
X169.215Y-77.978
X176.657Y-64.008
T2
X108.077Y-128.905
X108.077Y-136.525
X140.818Y-77.318
X140.818Y-79.918
X140.818Y-82.499
X140.818Y-84.998
X148.438Y-77.318
X148.438Y-79.918
X148.438Y-82.499
X148.438Y-84.998
T3
X87.935Y-124.841
X89.205Y-123.571
X90.475Y-124.841
T4
X90.018Y-57.018
X90.018Y-59.518
X90.018Y-94.127
X90.018Y-96.627
X93.269Y-123.19
X93.269Y-125.69
X95.448Y-49.124
X95.448Y-51.664
X95.448Y-54.204
X95.448Y-56.744
X95.448Y-59.284
X95.448Y-61.824
X95.448Y-64.364
X95.448Y-66.904
X95.448Y-69.444
X95.448Y-71.984
X95.448Y-74.524
X95.448Y-77.064
X95.448Y-79.604
X95.448Y-82.144
X95.448Y-84.684
X95.448Y-87.224
X95.448Y-89.764
X95.448Y-92.304
X95.448Y-94.844
X95.448Y-97.384
X98.562Y-103.5
X98.562Y-106.04
X98.562Y-108.58
X98.562Y-111.12
X98.562Y-113.66
X98.562Y-116.2
X98.562Y-118.74
X101.188Y-100.736
X101.823Y-46.415
X103.688Y-100.736
X104.323Y-46.415
X106.182Y-103.5
X106.182Y-106.04
X106.182Y-108.58
X106.182Y-111.12
X106.182Y-113.66
X106.182Y-116.2
X106.182Y-118.74
X110.688Y-49.124
X110.688Y-51.664
X110.688Y-54.204
X110.688Y-56.744
X110.688Y-59.284
X110.688Y-61.824
X110.688Y-64.364
X110.688Y-66.904
X110.688Y-69.444
X110.688Y-71.984
X110.688Y-74.524
X110.688Y-77.064
X110.688Y-79.604
X110.688Y-82.144
X110.688Y-84.684
X110.688Y-87.224
X110.688Y-89.764
X110.688Y-92.304
X110.688Y-94.844
X110.688Y-97.384
X111.506Y-103.535
X111.506Y-106.075
X111.506Y-108.615
X111.506Y-111.155
X111.506Y-113.695
X111.506Y-116.235
X111.506Y-118.775
X111.633Y-124.704
X111.633Y-127.244
X111.633Y-129.784
X111.633Y-132.324
X111.633Y-134.864
X111.633Y-137.404
X111.633Y-139.944
X111.633Y-142.484
X114.056Y-100.848
X114.132Y-121.966
X116.556Y-100.848
X116.632Y-121.966
X116.645Y-49.124
X116.645Y-51.664
X116.645Y-54.204
X116.645Y-56.744
X116.645Y-59.284
X116.645Y-61.824
X116.645Y-64.364
X116.645Y-66.904
X116.645Y-69.444
X116.645Y-71.984
X116.645Y-74.524
X116.645Y-77.064
X116.645Y-79.604
X116.645Y-82.144
X119.126Y-103.535
X119.126Y-106.075
X119.126Y-108.615
X119.126Y-111.155
X119.126Y-113.695
X119.126Y-116.235
X119.126Y-118.775
X119.253Y-124.704
X119.253Y-127.244
X119.253Y-129.784
X119.253Y-132.324
X119.253Y-134.864
X119.253Y-137.404
X119.253Y-139.944
X119.253Y-142.484
X120.548Y-87.478
X120.548Y-95.098
X123.083Y-46.415
X124.267Y-103.507
X124.267Y-106.047
X124.267Y-108.587
X124.267Y-111.127
X124.267Y-113.667
X124.267Y-116.207
X124.267Y-118.747
X124.597Y-127.249
X124.597Y-129.789
X124.597Y-132.329
X124.597Y-134.869
X124.597Y-137.409
X124.597Y-139.949
X124.597Y-142.489
X125.583Y-46.415
X126.842Y-100.718
X127.193Y-124.573
X128.168Y-87.478
X128.168Y-95.098
X129.342Y-100.718
X129.693Y-124.573
X131.885Y-49.124
X131.885Y-51.664
X131.885Y-54.204
X131.885Y-56.744
X131.885Y-59.284
X131.885Y-61.824
X131.885Y-64.364
X131.885Y-66.904
X131.885Y-69.444
X131.885Y-71.984
X131.885Y-74.524
X131.885Y-77.064
X131.885Y-79.604
X131.885Y-82.144
X131.887Y-103.507
X131.887Y-106.047
X131.887Y-108.587
X131.887Y-111.127
X131.887Y-113.667
X131.887Y-116.207
X131.887Y-118.747
X132.217Y-127.249
X132.217Y-129.789
X132.217Y-132.329
X132.217Y-134.869
X132.217Y-137.409
X132.217Y-139.949
X132.217Y-142.489
X132.334Y-89.174
X132.334Y-91.674
X136.779Y-127.254
X136.779Y-129.794
X136.779Y-132.334
X136.779Y-134.874
X136.779Y-137.414
X136.779Y-139.954
X136.779Y-142.494
X136.84Y-103.424
X136.84Y-105.964
X136.84Y-108.504
X136.84Y-111.044
X136.84Y-113.584
X136.84Y-116.124
X136.84Y-118.664
X136.84Y-121.204
X136.965Y-49.074
X136.965Y-51.614
X136.965Y-54.154
X136.965Y-56.694
X136.965Y-59.234
X136.965Y-61.774
X136.965Y-64.314
X136.965Y-66.854
X136.965Y-69.394
X136.965Y-71.934
X136.965Y-74.474
X136.965Y-77.014
X136.965Y-79.554
X136.965Y-82.094
X136.965Y-84.634
X136.965Y-87.174
X136.965Y-89.714
X136.965Y-92.254
X136.965Y-94.794
X136.965Y-97.334
X139.339Y-100.691
X139.359Y-124.587
X141.839Y-100.691
X141.859Y-124.587
X143.34Y-46.415
X144.399Y-127.254
X144.399Y-129.794
X144.399Y-132.334
X144.399Y-134.874
X144.399Y-137.414
X144.399Y-139.954
X144.399Y-142.494
X144.46Y-103.424
X144.46Y-105.964
X144.46Y-108.504
X144.46Y-111.044
X144.46Y-113.584
X144.46Y-116.124
X144.46Y-118.664
X144.46Y-121.204
X145.84Y-46.415
X148.717Y-113.924
X148.717Y-116.464
X148.717Y-119.004
X148.717Y-121.544
X148.717Y-124.084
X148.717Y-126.624
X148.717Y-129.164
X148.717Y-131.704
X148.717Y-134.244
X148.717Y-136.784
X151.15Y-111.257
X152.205Y-49.074
X152.205Y-51.614
X152.205Y-54.154
X152.205Y-56.694
X152.205Y-59.234
X152.205Y-61.774
X152.205Y-64.314
X152.205Y-66.854
X152.205Y-69.394
X152.205Y-71.934
X152.205Y-74.474
X152.205Y-77.014
X152.205Y-79.554
X152.205Y-82.094
X152.205Y-84.634
X152.205Y-87.174
X152.205Y-89.714
X152.205Y-92.254
X152.205Y-94.794
X152.205Y-97.334
X153.65Y-111.257
X156.337Y-113.924
X156.337Y-116.464
X156.337Y-119.004
X156.337Y-121.544
X156.337Y-124.084
X156.337Y-126.624
X156.337Y-129.164
X156.337Y-131.704
X156.337Y-134.244
X156.337Y-136.784
X160.375Y-101.015
X160.375Y-103.555
X160.375Y-106.095
X160.375Y-108.635
X160.375Y-111.175
X160.375Y-113.715
X160.375Y-116.255
X160.375Y-118.795
X160.375Y-121.335
X160.375Y-123.875
X160.375Y-126.415
X160.375Y-128.955
X160.375Y-131.495
X160.375Y-134.035
X166.771Y-98.603
X169.271Y-98.603
X175.615Y-101.015
X175.615Y-103.555
X175.615Y-106.095
X175.615Y-108.635
X175.615Y-111.175
X175.615Y-113.715
X175.615Y-116.255
X175.615Y-118.795
X175.615Y-121.335
X175.615Y-123.875
X175.615Y-126.415
X175.615Y-128.955
X175.615Y-131.495
X175.615Y-134.035
X180.741Y-54.356
X183.241Y-54.356
T5
X105.537Y-141.351
X108.077Y-141.351
T6
X90.018Y-71.601
X90.018Y-74.141
X90.018Y-76.681
X90.018Y-79.221
X159.477Y-57.61
X159.477Y-60.15
X159.477Y-62.69
X159.477Y-65.23
X159.477Y-67.77
X159.477Y-70.31
X159.477Y-72.85
X159.477Y-75.39
X159.477Y-77.93
X159.477Y-80.47
X159.477Y-83.01
X159.477Y-85.55
X159.477Y-88.09
X159.477Y-90.63
X161.65Y-139.125
X161.65Y-141.665
X164.19Y-139.125
X164.19Y-141.665
X166.73Y-139.125
X166.73Y-141.665
X169.27Y-139.125
X169.27Y-141.665
X171.81Y-139.125
X171.81Y-141.665
X174.35Y-139.125
X174.35Y-141.665
X174.718Y-57.61
X174.718Y-60.15
X174.718Y-62.69
X174.718Y-65.23
X174.718Y-67.77
X174.718Y-70.31
X174.718Y-72.85
X174.718Y-75.39
X174.718Y-77.93
X174.718Y-80.47
X174.718Y-83.01
X174.718Y-85.55
X174.718Y-88.09
X174.718Y-90.63
X180.721Y-57.404
X180.721Y-59.944
X180.721Y-62.484
X180.746Y-76.098
X180.746Y-78.638
X180.746Y-81.178
X180.746Y-83.718
X180.746Y-86.258
X180.746Y-88.798
X180.746Y-91.338
X180.746Y-93.878
X180.746Y-96.418
X180.746Y-98.958
X180.746Y-101.498
X180.746Y-104.038
X180.746Y-106.578
X180.746Y-109.118
X180.746Y-111.658
X180.746Y-114.198
X183.261Y-57.404
X183.261Y-59.944
X183.261Y-62.484
X183.286Y-76.098
X183.286Y-78.638
X183.286Y-81.178
X183.286Y-83.718
X183.286Y-86.258
X183.286Y-88.798
X183.286Y-91.338
X183.286Y-93.878
X183.286Y-96.418
X183.286Y-98.958
X183.286Y-101.498
X183.286Y-104.038
X183.286Y-106.578
X183.286Y-109.118
X183.286Y-111.658
X183.286Y-114.198
T7
X87.868Y-107.046
X87.868Y-121.046
X90.368Y-111.046
X90.368Y-114.046
X90.368Y-117.046
X92.868Y-107.046
X92.868Y-121.046
X95.302Y-138.466
X95.302Y-142.966
X101.802Y-138.466
X101.802Y-142.966
T6
X93.568Y-132.572G85X93.568Y-130.572
G05
X99.568Y-132.822G85X99.568Y-130.322
G05
T0
M30
