%TF.GenerationSoftware,KiCad,Pcbnew,7.0.5*%
%TF.CreationDate,2023-12-17T10:26:12+13:00*%
%TF.ProjectId,main_board,6d61696e-5f62-46f6-9172-642e6b696361,2*%
%TF.SameCoordinates,Original*%
%TF.FileFunction,Drillmap*%
%TF.FilePolarity,Positive*%
%FSLAX45Y45*%
G04 Gerber Fmt 4.5, Leading zero omitted, Abs format (unit mm)*
G04 Created by KiCad (PCBNEW 7.0.5) date 2023-12-17 10:26:12*
%MOMM*%
%LPD*%
G01*
G04 APERTURE LIST*
%ADD10C,0.100000*%
%ADD11C,0.200000*%
%ADD12C,0.040000*%
%ADD13C,0.070000*%
%ADD14C,0.075000*%
%ADD15C,0.080000*%
%ADD16C,0.090000*%
%ADD17C,0.110000*%
G04 APERTURE END LIST*
D10*
X9000000Y-4514000D02*
G75*
G03*
X8600000Y-4914000I0J-400000D01*
G01*
X9000000Y-14514000D02*
X18200000Y-14514000D01*
X16253460Y-5463541D02*
G75*
G03*
X16184880Y-5529580I0J-68629D01*
G01*
X16184880Y-6446520D02*
X16184880Y-5529580D01*
X18200000Y-14514000D02*
G75*
G03*
X18600000Y-14114000I0J400000D01*
G01*
X17167860Y-6512560D02*
X16250920Y-6512560D01*
X18200000Y-4514000D02*
X9000000Y-4514000D01*
X17233900Y-5529580D02*
G75*
G03*
X17167860Y-5463540I-66040J0D01*
G01*
X17233900Y-5529580D02*
X17233900Y-6446520D01*
X17167860Y-6512560D02*
G75*
G03*
X17233900Y-6446520I0J66040D01*
G01*
X16253460Y-5463540D02*
X17167860Y-5463540D01*
X16184880Y-6446520D02*
G75*
G03*
X16250920Y-6512560I66040J0D01*
G01*
X18600000Y-14114000D02*
X18600000Y-4914000D01*
X8600000Y-14114000D02*
G75*
G03*
X9000000Y-14514000I400000J0D01*
G01*
X8600000Y-4914000D02*
X8600000Y-14114000D01*
X18600000Y-4914000D02*
G75*
G03*
X18200000Y-4514000I-400000J0D01*
G01*
D11*
D12*
X10282240Y-7183440D02*
X10322240Y-7223440D01*
X10322240Y-7183440D02*
X10282240Y-7223440D01*
X10322880Y-7396800D02*
X10362880Y-7436800D01*
X10362880Y-7396800D02*
X10322880Y-7436800D01*
X11369360Y-8321360D02*
X11409360Y-8361360D01*
X11409360Y-8321360D02*
X11369360Y-8361360D01*
X11638600Y-9479600D02*
X11678600Y-9519600D01*
X11678600Y-9479600D02*
X11638600Y-9519600D01*
X12387900Y-8466310D02*
X12427900Y-8506310D01*
X12427900Y-8466310D02*
X12387900Y-8506310D01*
X12517440Y-5527360D02*
X12557440Y-5567360D01*
X12557440Y-5527360D02*
X12517440Y-5567360D01*
X12525060Y-6624640D02*
X12565060Y-6664640D01*
X12565060Y-6624640D02*
X12525060Y-6664640D01*
X12629200Y-5969320D02*
X12669200Y-6009320D01*
X12669200Y-5969320D02*
X12629200Y-6009320D01*
X12629200Y-6396040D02*
X12669200Y-6436040D01*
X12669200Y-6396040D02*
X12629200Y-6436040D01*
X13282820Y-8391150D02*
X13322820Y-8431150D01*
X13322820Y-8391150D02*
X13282820Y-8431150D01*
X13523280Y-7594920D02*
X13563280Y-7634920D01*
X13563280Y-7594920D02*
X13523280Y-7634920D01*
X14089700Y-9441500D02*
X14129700Y-9481500D01*
X14129700Y-9441500D02*
X14089700Y-9481500D01*
X14394500Y-9593900D02*
X14434500Y-9633900D01*
X14434500Y-9593900D02*
X14394500Y-9633900D01*
X14661200Y-9150730D02*
X14701200Y-9190730D01*
X14701200Y-9150730D02*
X14661200Y-9190730D01*
X14722160Y-9698040D02*
X14762160Y-9738040D01*
X14762160Y-9698040D02*
X14722160Y-9738040D01*
X14750100Y-9898700D02*
X14790100Y-9938700D01*
X14790100Y-9898700D02*
X14750100Y-9938700D01*
X15030910Y-9332280D02*
X15070910Y-9372280D01*
X15070910Y-9332280D02*
X15030910Y-9372280D01*
X15393760Y-8824360D02*
X15433760Y-8864360D01*
X15433760Y-8824360D02*
X15393760Y-8864360D01*
X15433600Y-7536500D02*
X15473600Y-7576500D01*
X15473600Y-7536500D02*
X15433600Y-7576500D01*
X15436350Y-8000850D02*
X15476350Y-8040850D01*
X15476350Y-8000850D02*
X15436350Y-8040850D01*
X15483710Y-6931220D02*
X15523710Y-6971220D01*
X15523710Y-6931220D02*
X15483710Y-6971220D01*
X15557820Y-4750120D02*
X15597820Y-4790120D01*
X15597820Y-4750120D02*
X15557820Y-4790120D01*
X15570520Y-6782120D02*
X15610520Y-6822120D01*
X15610520Y-6782120D02*
X15570520Y-6822120D01*
X15729030Y-10676510D02*
X15769030Y-10716510D01*
X15769030Y-10676510D02*
X15729030Y-10716510D01*
X15982000Y-5187000D02*
X16022000Y-5227000D01*
X16022000Y-5187000D02*
X15982000Y-5227000D01*
X16224640Y-11324360D02*
X16264640Y-11364360D01*
X16264640Y-11324360D02*
X16224640Y-11364360D01*
X16239750Y-7975920D02*
X16279750Y-8015920D01*
X16279750Y-7975920D02*
X16239750Y-8015920D01*
X16667800Y-6584000D02*
X16707800Y-6624000D01*
X16707800Y-6584000D02*
X16667800Y-6624000D01*
X16744000Y-7523800D02*
X16784000Y-7563800D01*
X16784000Y-7523800D02*
X16744000Y-7563800D01*
X16820200Y-6677980D02*
X16860200Y-6717980D01*
X16860200Y-6677980D02*
X16820200Y-6717980D01*
X16820200Y-8280720D02*
X16860200Y-8320720D01*
X16860200Y-8280720D02*
X16820200Y-8320720D01*
X16901480Y-7777800D02*
X16941480Y-7817800D01*
X16941480Y-7777800D02*
X16901480Y-7817800D01*
X17645700Y-6380800D02*
X17685700Y-6420800D01*
X17685700Y-6380800D02*
X17645700Y-6420800D01*
D13*
X10842700Y-12890500D02*
G75*
G03*
X10842700Y-12890500I-35000J0D01*
G01*
X10842700Y-13652500D02*
G75*
G03*
X10842700Y-13652500I-35000J0D01*
G01*
X14116760Y-7731760D02*
G75*
G03*
X14116760Y-7731760I-35000J0D01*
G01*
X14116760Y-7991760D02*
G75*
G03*
X14116760Y-7991760I-35000J0D01*
G01*
X14116760Y-8249920D02*
G75*
G03*
X14116760Y-8249920I-35000J0D01*
G01*
X14116760Y-8499760D02*
G75*
G03*
X14116760Y-8499760I-35000J0D01*
G01*
X14878760Y-7731760D02*
G75*
G03*
X14878760Y-7731760I-35000J0D01*
G01*
X14878760Y-7991760D02*
G75*
G03*
X14878760Y-7991760I-35000J0D01*
G01*
X14878760Y-8249920D02*
G75*
G03*
X14878760Y-8249920I-35000J0D01*
G01*
X14878760Y-8499760D02*
G75*
G03*
X14878760Y-8499760I-35000J0D01*
G01*
D14*
X8793480Y-12446600D02*
X8793480Y-12521600D01*
X8755980Y-12484100D02*
X8830980Y-12484100D01*
X8920480Y-12319600D02*
X8920480Y-12394600D01*
X8882980Y-12357100D02*
X8957980Y-12357100D01*
X9047480Y-12446600D02*
X9047480Y-12521600D01*
X9009980Y-12484100D02*
X9084980Y-12484100D01*
D15*
X9030045Y-5730044D02*
X9030045Y-5673475D01*
X8973476Y-5673475D01*
X8973476Y-5730044D01*
X9030045Y-5730044D01*
X9030045Y-5980044D02*
X9030045Y-5923475D01*
X8973476Y-5923475D01*
X8973476Y-5980044D01*
X9030045Y-5980044D01*
X9030045Y-9440985D02*
X9030045Y-9384416D01*
X8973476Y-9384416D01*
X8973476Y-9440985D01*
X9030045Y-9440985D01*
X9030045Y-9690985D02*
X9030045Y-9634416D01*
X8973476Y-9634416D01*
X8973476Y-9690985D01*
X9030045Y-9690985D01*
X9355165Y-12347284D02*
X9355165Y-12290715D01*
X9298596Y-12290715D01*
X9298596Y-12347284D01*
X9355165Y-12347284D01*
X9355165Y-12597284D02*
X9355165Y-12540715D01*
X9298596Y-12540715D01*
X9298596Y-12597284D01*
X9355165Y-12597284D01*
X9573105Y-4940645D02*
X9573105Y-4884076D01*
X9516536Y-4884076D01*
X9516536Y-4940645D01*
X9573105Y-4940645D01*
X9573105Y-5194645D02*
X9573105Y-5138076D01*
X9516536Y-5138076D01*
X9516536Y-5194645D01*
X9573105Y-5194645D01*
X9573105Y-5448645D02*
X9573105Y-5392076D01*
X9516536Y-5392076D01*
X9516536Y-5448645D01*
X9573105Y-5448645D01*
X9573105Y-5702644D02*
X9573105Y-5646075D01*
X9516536Y-5646075D01*
X9516536Y-5702644D01*
X9573105Y-5702644D01*
X9573105Y-5956644D02*
X9573105Y-5900075D01*
X9516536Y-5900075D01*
X9516536Y-5956644D01*
X9573105Y-5956644D01*
X9573105Y-6210644D02*
X9573105Y-6154075D01*
X9516536Y-6154075D01*
X9516536Y-6210644D01*
X9573105Y-6210644D01*
X9573105Y-6464644D02*
X9573105Y-6408075D01*
X9516536Y-6408075D01*
X9516536Y-6464644D01*
X9573105Y-6464644D01*
X9573105Y-6718644D02*
X9573105Y-6662075D01*
X9516536Y-6662075D01*
X9516536Y-6718644D01*
X9573105Y-6718644D01*
X9573105Y-6972644D02*
X9573105Y-6916075D01*
X9516536Y-6916075D01*
X9516536Y-6972644D01*
X9573105Y-6972644D01*
X9573105Y-7226644D02*
X9573105Y-7170075D01*
X9516536Y-7170075D01*
X9516536Y-7226644D01*
X9573105Y-7226644D01*
X9573105Y-7480644D02*
X9573105Y-7424075D01*
X9516536Y-7424075D01*
X9516536Y-7480644D01*
X9573105Y-7480644D01*
X9573105Y-7734644D02*
X9573105Y-7678075D01*
X9516536Y-7678075D01*
X9516536Y-7734644D01*
X9573105Y-7734644D01*
X9573105Y-7988644D02*
X9573105Y-7932075D01*
X9516536Y-7932075D01*
X9516536Y-7988644D01*
X9573105Y-7988644D01*
X9573105Y-8242644D02*
X9573105Y-8186075D01*
X9516536Y-8186075D01*
X9516536Y-8242644D01*
X9573105Y-8242644D01*
X9573105Y-8496645D02*
X9573105Y-8440076D01*
X9516536Y-8440076D01*
X9516536Y-8496645D01*
X9573105Y-8496645D01*
X9573105Y-8750645D02*
X9573105Y-8694076D01*
X9516536Y-8694076D01*
X9516536Y-8750645D01*
X9573105Y-8750645D01*
X9573105Y-9004645D02*
X9573105Y-8948076D01*
X9516536Y-8948076D01*
X9516536Y-9004645D01*
X9573105Y-9004645D01*
X9573105Y-9258645D02*
X9573105Y-9202076D01*
X9516536Y-9202076D01*
X9516536Y-9258645D01*
X9573105Y-9258645D01*
X9573105Y-9512645D02*
X9573105Y-9456076D01*
X9516536Y-9456076D01*
X9516536Y-9512645D01*
X9573105Y-9512645D01*
X9573105Y-9766645D02*
X9573105Y-9710076D01*
X9516536Y-9710076D01*
X9516536Y-9766645D01*
X9573105Y-9766645D01*
X9884485Y-10378285D02*
X9884485Y-10321716D01*
X9827916Y-10321716D01*
X9827916Y-10378285D01*
X9884485Y-10378285D01*
X9884485Y-10632285D02*
X9884485Y-10575716D01*
X9827916Y-10575716D01*
X9827916Y-10632285D01*
X9884485Y-10632285D01*
X9884485Y-10886285D02*
X9884485Y-10829716D01*
X9827916Y-10829716D01*
X9827916Y-10886285D01*
X9884485Y-10886285D01*
X9884485Y-11140285D02*
X9884485Y-11083716D01*
X9827916Y-11083716D01*
X9827916Y-11140285D01*
X9884485Y-11140285D01*
X9884485Y-11394284D02*
X9884485Y-11337715D01*
X9827916Y-11337715D01*
X9827916Y-11394284D01*
X9884485Y-11394284D01*
X9884485Y-11648284D02*
X9884485Y-11591715D01*
X9827916Y-11591715D01*
X9827916Y-11648284D01*
X9884485Y-11648284D01*
X9884485Y-11902284D02*
X9884485Y-11845715D01*
X9827916Y-11845715D01*
X9827916Y-11902284D01*
X9884485Y-11902284D01*
X10147105Y-10101925D02*
X10147105Y-10045356D01*
X10090536Y-10045356D01*
X10090536Y-10101925D01*
X10147105Y-10101925D01*
X10210605Y-4669785D02*
X10210605Y-4613216D01*
X10154036Y-4613216D01*
X10154036Y-4669785D01*
X10210605Y-4669785D01*
X10397105Y-10101925D02*
X10397105Y-10045356D01*
X10340536Y-10045356D01*
X10340536Y-10101925D01*
X10397105Y-10101925D01*
X10460605Y-4669785D02*
X10460605Y-4613216D01*
X10404036Y-4613216D01*
X10404036Y-4669785D01*
X10460605Y-4669785D01*
X10646485Y-10378285D02*
X10646485Y-10321716D01*
X10589916Y-10321716D01*
X10589916Y-10378285D01*
X10646485Y-10378285D01*
X10646485Y-10632285D02*
X10646485Y-10575716D01*
X10589916Y-10575716D01*
X10589916Y-10632285D01*
X10646485Y-10632285D01*
X10646485Y-10886285D02*
X10646485Y-10829716D01*
X10589916Y-10829716D01*
X10589916Y-10886285D01*
X10646485Y-10886285D01*
X10646485Y-11140285D02*
X10646485Y-11083716D01*
X10589916Y-11083716D01*
X10589916Y-11140285D01*
X10646485Y-11140285D01*
X10646485Y-11394284D02*
X10646485Y-11337715D01*
X10589916Y-11337715D01*
X10589916Y-11394284D01*
X10646485Y-11394284D01*
X10646485Y-11648284D02*
X10646485Y-11591715D01*
X10589916Y-11591715D01*
X10589916Y-11648284D01*
X10646485Y-11648284D01*
X10646485Y-11902284D02*
X10646485Y-11845715D01*
X10589916Y-11845715D01*
X10589916Y-11902284D01*
X10646485Y-11902284D01*
X11097105Y-4940645D02*
X11097105Y-4884076D01*
X11040536Y-4884076D01*
X11040536Y-4940645D01*
X11097105Y-4940645D01*
X11097105Y-5194645D02*
X11097105Y-5138076D01*
X11040536Y-5138076D01*
X11040536Y-5194645D01*
X11097105Y-5194645D01*
X11097105Y-5448645D02*
X11097105Y-5392076D01*
X11040536Y-5392076D01*
X11040536Y-5448645D01*
X11097105Y-5448645D01*
X11097105Y-5702644D02*
X11097105Y-5646075D01*
X11040536Y-5646075D01*
X11040536Y-5702644D01*
X11097105Y-5702644D01*
X11097105Y-5956644D02*
X11097105Y-5900075D01*
X11040536Y-5900075D01*
X11040536Y-5956644D01*
X11097105Y-5956644D01*
X11097105Y-6210644D02*
X11097105Y-6154075D01*
X11040536Y-6154075D01*
X11040536Y-6210644D01*
X11097105Y-6210644D01*
X11097105Y-6464644D02*
X11097105Y-6408075D01*
X11040536Y-6408075D01*
X11040536Y-6464644D01*
X11097105Y-6464644D01*
X11097105Y-6718644D02*
X11097105Y-6662075D01*
X11040536Y-6662075D01*
X11040536Y-6718644D01*
X11097105Y-6718644D01*
X11097105Y-6972644D02*
X11097105Y-6916075D01*
X11040536Y-6916075D01*
X11040536Y-6972644D01*
X11097105Y-6972644D01*
X11097105Y-7226644D02*
X11097105Y-7170075D01*
X11040536Y-7170075D01*
X11040536Y-7226644D01*
X11097105Y-7226644D01*
X11097105Y-7480644D02*
X11097105Y-7424075D01*
X11040536Y-7424075D01*
X11040536Y-7480644D01*
X11097105Y-7480644D01*
X11097105Y-7734644D02*
X11097105Y-7678075D01*
X11040536Y-7678075D01*
X11040536Y-7734644D01*
X11097105Y-7734644D01*
X11097105Y-7988644D02*
X11097105Y-7932075D01*
X11040536Y-7932075D01*
X11040536Y-7988644D01*
X11097105Y-7988644D01*
X11097105Y-8242644D02*
X11097105Y-8186075D01*
X11040536Y-8186075D01*
X11040536Y-8242644D01*
X11097105Y-8242644D01*
X11097105Y-8496645D02*
X11097105Y-8440076D01*
X11040536Y-8440076D01*
X11040536Y-8496645D01*
X11097105Y-8496645D01*
X11097105Y-8750645D02*
X11097105Y-8694076D01*
X11040536Y-8694076D01*
X11040536Y-8750645D01*
X11097105Y-8750645D01*
X11097105Y-9004645D02*
X11097105Y-8948076D01*
X11040536Y-8948076D01*
X11040536Y-9004645D01*
X11097105Y-9004645D01*
X11097105Y-9258645D02*
X11097105Y-9202076D01*
X11040536Y-9202076D01*
X11040536Y-9258645D01*
X11097105Y-9258645D01*
X11097105Y-9512645D02*
X11097105Y-9456076D01*
X11040536Y-9456076D01*
X11040536Y-9512645D01*
X11097105Y-9512645D01*
X11097105Y-9766645D02*
X11097105Y-9710076D01*
X11040536Y-9710076D01*
X11040536Y-9766645D01*
X11097105Y-9766645D01*
X11178885Y-10381825D02*
X11178885Y-10325256D01*
X11122316Y-10325256D01*
X11122316Y-10381825D01*
X11178885Y-10381825D01*
X11178885Y-10635825D02*
X11178885Y-10579256D01*
X11122316Y-10579256D01*
X11122316Y-10635825D01*
X11178885Y-10635825D01*
X11178885Y-10889825D02*
X11178885Y-10833256D01*
X11122316Y-10833256D01*
X11122316Y-10889825D01*
X11178885Y-10889825D01*
X11178885Y-11143825D02*
X11178885Y-11087256D01*
X11122316Y-11087256D01*
X11122316Y-11143825D01*
X11178885Y-11143825D01*
X11178885Y-11397824D02*
X11178885Y-11341255D01*
X11122316Y-11341255D01*
X11122316Y-11397824D01*
X11178885Y-11397824D01*
X11178885Y-11651824D02*
X11178885Y-11595255D01*
X11122316Y-11595255D01*
X11122316Y-11651824D01*
X11178885Y-11651824D01*
X11178885Y-11905824D02*
X11178885Y-11849255D01*
X11122316Y-11849255D01*
X11122316Y-11905824D01*
X11178885Y-11905824D01*
X11191584Y-12498684D02*
X11191584Y-12442115D01*
X11135016Y-12442115D01*
X11135016Y-12498684D01*
X11191584Y-12498684D01*
X11191584Y-12752684D02*
X11191584Y-12696115D01*
X11135016Y-12696115D01*
X11135016Y-12752684D01*
X11191584Y-12752684D01*
X11191584Y-13006684D02*
X11191584Y-12950115D01*
X11135016Y-12950115D01*
X11135016Y-13006684D01*
X11191584Y-13006684D01*
X11191584Y-13260684D02*
X11191584Y-13204115D01*
X11135016Y-13204115D01*
X11135016Y-13260684D01*
X11191584Y-13260684D01*
X11191584Y-13514684D02*
X11191584Y-13458115D01*
X11135016Y-13458115D01*
X11135016Y-13514684D01*
X11191584Y-13514684D01*
X11191584Y-13768684D02*
X11191584Y-13712115D01*
X11135016Y-13712115D01*
X11135016Y-13768684D01*
X11191584Y-13768684D01*
X11191584Y-14022684D02*
X11191584Y-13966115D01*
X11135016Y-13966115D01*
X11135016Y-14022684D01*
X11191584Y-14022684D01*
X11191584Y-14276684D02*
X11191584Y-14220115D01*
X11135016Y-14220115D01*
X11135016Y-14276684D01*
X11191584Y-14276684D01*
X11433884Y-10113085D02*
X11433884Y-10056516D01*
X11377315Y-10056516D01*
X11377315Y-10113085D01*
X11433884Y-10113085D01*
X11441504Y-12224864D02*
X11441504Y-12168295D01*
X11384935Y-12168295D01*
X11384935Y-12224864D01*
X11441504Y-12224864D01*
X11683884Y-10113085D02*
X11683884Y-10056516D01*
X11627315Y-10056516D01*
X11627315Y-10113085D01*
X11683884Y-10113085D01*
X11691504Y-12224864D02*
X11691504Y-12168295D01*
X11634935Y-12168295D01*
X11634935Y-12224864D01*
X11691504Y-12224864D01*
X11692784Y-4940645D02*
X11692784Y-4884076D01*
X11636215Y-4884076D01*
X11636215Y-4940645D01*
X11692784Y-4940645D01*
X11692784Y-5194645D02*
X11692784Y-5138076D01*
X11636215Y-5138076D01*
X11636215Y-5194645D01*
X11692784Y-5194645D01*
X11692784Y-5448645D02*
X11692784Y-5392076D01*
X11636215Y-5392076D01*
X11636215Y-5448645D01*
X11692784Y-5448645D01*
X11692784Y-5702644D02*
X11692784Y-5646075D01*
X11636215Y-5646075D01*
X11636215Y-5702644D01*
X11692784Y-5702644D01*
X11692784Y-5956644D02*
X11692784Y-5900075D01*
X11636215Y-5900075D01*
X11636215Y-5956644D01*
X11692784Y-5956644D01*
X11692784Y-6210644D02*
X11692784Y-6154075D01*
X11636215Y-6154075D01*
X11636215Y-6210644D01*
X11692784Y-6210644D01*
X11692784Y-6464644D02*
X11692784Y-6408075D01*
X11636215Y-6408075D01*
X11636215Y-6464644D01*
X11692784Y-6464644D01*
X11692784Y-6718644D02*
X11692784Y-6662075D01*
X11636215Y-6662075D01*
X11636215Y-6718644D01*
X11692784Y-6718644D01*
X11692784Y-6972644D02*
X11692784Y-6916075D01*
X11636215Y-6916075D01*
X11636215Y-6972644D01*
X11692784Y-6972644D01*
X11692784Y-7226644D02*
X11692784Y-7170075D01*
X11636215Y-7170075D01*
X11636215Y-7226644D01*
X11692784Y-7226644D01*
X11692784Y-7480644D02*
X11692784Y-7424075D01*
X11636215Y-7424075D01*
X11636215Y-7480644D01*
X11692784Y-7480644D01*
X11692784Y-7734644D02*
X11692784Y-7678075D01*
X11636215Y-7678075D01*
X11636215Y-7734644D01*
X11692784Y-7734644D01*
X11692784Y-7988644D02*
X11692784Y-7932075D01*
X11636215Y-7932075D01*
X11636215Y-7988644D01*
X11692784Y-7988644D01*
X11692784Y-8242644D02*
X11692784Y-8186075D01*
X11636215Y-8186075D01*
X11636215Y-8242644D01*
X11692784Y-8242644D01*
X11940884Y-10381825D02*
X11940884Y-10325256D01*
X11884315Y-10325256D01*
X11884315Y-10381825D01*
X11940884Y-10381825D01*
X11940884Y-10635825D02*
X11940884Y-10579256D01*
X11884315Y-10579256D01*
X11884315Y-10635825D01*
X11940884Y-10635825D01*
X11940884Y-10889825D02*
X11940884Y-10833256D01*
X11884315Y-10833256D01*
X11884315Y-10889825D01*
X11940884Y-10889825D01*
X11940884Y-11143825D02*
X11940884Y-11087256D01*
X11884315Y-11087256D01*
X11884315Y-11143825D01*
X11940884Y-11143825D01*
X11940884Y-11397824D02*
X11940884Y-11341255D01*
X11884315Y-11341255D01*
X11884315Y-11397824D01*
X11940884Y-11397824D01*
X11940884Y-11651824D02*
X11940884Y-11595255D01*
X11884315Y-11595255D01*
X11884315Y-11651824D01*
X11940884Y-11651824D01*
X11940884Y-11905824D02*
X11940884Y-11849255D01*
X11884315Y-11849255D01*
X11884315Y-11905824D01*
X11940884Y-11905824D01*
X11953584Y-12498684D02*
X11953584Y-12442115D01*
X11897015Y-12442115D01*
X11897015Y-12498684D01*
X11953584Y-12498684D01*
X11953584Y-12752684D02*
X11953584Y-12696115D01*
X11897015Y-12696115D01*
X11897015Y-12752684D01*
X11953584Y-12752684D01*
X11953584Y-13006684D02*
X11953584Y-12950115D01*
X11897015Y-12950115D01*
X11897015Y-13006684D01*
X11953584Y-13006684D01*
X11953584Y-13260684D02*
X11953584Y-13204115D01*
X11897015Y-13204115D01*
X11897015Y-13260684D01*
X11953584Y-13260684D01*
X11953584Y-13514684D02*
X11953584Y-13458115D01*
X11897015Y-13458115D01*
X11897015Y-13514684D01*
X11953584Y-13514684D01*
X11953584Y-13768684D02*
X11953584Y-13712115D01*
X11897015Y-13712115D01*
X11897015Y-13768684D01*
X11953584Y-13768684D01*
X11953584Y-14022684D02*
X11953584Y-13966115D01*
X11897015Y-13966115D01*
X11897015Y-14022684D01*
X11953584Y-14022684D01*
X11953584Y-14276684D02*
X11953584Y-14220115D01*
X11897015Y-14220115D01*
X11897015Y-14276684D01*
X11953584Y-14276684D01*
X12083124Y-8776045D02*
X12083124Y-8719476D01*
X12026555Y-8719476D01*
X12026555Y-8776045D01*
X12083124Y-8776045D01*
X12083124Y-9538045D02*
X12083124Y-9481476D01*
X12026555Y-9481476D01*
X12026555Y-9538045D01*
X12083124Y-9538045D01*
X12336584Y-4669785D02*
X12336584Y-4613216D01*
X12280015Y-4613216D01*
X12280015Y-4669785D01*
X12336584Y-4669785D01*
X12454964Y-10378985D02*
X12454964Y-10322416D01*
X12398395Y-10322416D01*
X12398395Y-10378985D01*
X12454964Y-10378985D01*
X12454964Y-10632985D02*
X12454964Y-10576416D01*
X12398395Y-10576416D01*
X12398395Y-10632985D01*
X12454964Y-10632985D01*
X12454964Y-10886985D02*
X12454964Y-10830416D01*
X12398395Y-10830416D01*
X12398395Y-10886985D01*
X12454964Y-10886985D01*
X12454964Y-11140985D02*
X12454964Y-11084416D01*
X12398395Y-11084416D01*
X12398395Y-11140985D01*
X12454964Y-11140985D01*
X12454964Y-11394984D02*
X12454964Y-11338415D01*
X12398395Y-11338415D01*
X12398395Y-11394984D01*
X12454964Y-11394984D01*
X12454964Y-11648984D02*
X12454964Y-11592415D01*
X12398395Y-11592415D01*
X12398395Y-11648984D01*
X12454964Y-11648984D01*
X12454964Y-11902984D02*
X12454964Y-11846415D01*
X12398395Y-11846415D01*
X12398395Y-11902984D01*
X12454964Y-11902984D01*
X12487984Y-12753184D02*
X12487984Y-12696615D01*
X12431415Y-12696615D01*
X12431415Y-12753184D01*
X12487984Y-12753184D01*
X12487984Y-13007184D02*
X12487984Y-12950615D01*
X12431415Y-12950615D01*
X12431415Y-13007184D01*
X12487984Y-13007184D01*
X12487984Y-13261184D02*
X12487984Y-13204615D01*
X12431415Y-13204615D01*
X12431415Y-13261184D01*
X12487984Y-13261184D01*
X12487984Y-13515184D02*
X12487984Y-13458615D01*
X12431415Y-13458615D01*
X12431415Y-13515184D01*
X12487984Y-13515184D01*
X12487984Y-13769184D02*
X12487984Y-13712615D01*
X12431415Y-13712615D01*
X12431415Y-13769184D01*
X12487984Y-13769184D01*
X12487984Y-14023184D02*
X12487984Y-13966615D01*
X12431415Y-13966615D01*
X12431415Y-14023184D01*
X12487984Y-14023184D01*
X12487984Y-14277184D02*
X12487984Y-14220615D01*
X12431415Y-14220615D01*
X12431415Y-14277184D01*
X12487984Y-14277184D01*
X12586584Y-4669785D02*
X12586584Y-4613216D01*
X12530015Y-4613216D01*
X12530015Y-4669785D01*
X12586584Y-4669785D01*
X12712504Y-10100085D02*
X12712504Y-10043516D01*
X12655935Y-10043516D01*
X12655935Y-10100085D01*
X12712504Y-10100085D01*
X12747624Y-12485564D02*
X12747624Y-12428995D01*
X12691055Y-12428995D01*
X12691055Y-12485564D01*
X12747624Y-12485564D01*
X12845124Y-8776045D02*
X12845124Y-8719476D01*
X12788555Y-8719476D01*
X12788555Y-8776045D01*
X12845124Y-8776045D01*
X12845124Y-9538045D02*
X12845124Y-9481476D01*
X12788555Y-9481476D01*
X12788555Y-9538045D01*
X12845124Y-9538045D01*
X12962504Y-10100085D02*
X12962504Y-10043516D01*
X12905935Y-10043516D01*
X12905935Y-10100085D01*
X12962504Y-10100085D01*
X12997624Y-12485564D02*
X12997624Y-12428995D01*
X12941055Y-12428995D01*
X12941055Y-12485564D01*
X12997624Y-12485564D01*
X13216784Y-4940645D02*
X13216784Y-4884076D01*
X13160215Y-4884076D01*
X13160215Y-4940645D01*
X13216784Y-4940645D01*
X13216784Y-5194645D02*
X13216784Y-5138076D01*
X13160215Y-5138076D01*
X13160215Y-5194645D01*
X13216784Y-5194645D01*
X13216784Y-5448645D02*
X13216784Y-5392076D01*
X13160215Y-5392076D01*
X13160215Y-5448645D01*
X13216784Y-5448645D01*
X13216784Y-5702644D02*
X13216784Y-5646075D01*
X13160215Y-5646075D01*
X13160215Y-5702644D01*
X13216784Y-5702644D01*
X13216784Y-5956644D02*
X13216784Y-5900075D01*
X13160215Y-5900075D01*
X13160215Y-5956644D01*
X13216784Y-5956644D01*
X13216784Y-6210644D02*
X13216784Y-6154075D01*
X13160215Y-6154075D01*
X13160215Y-6210644D01*
X13216784Y-6210644D01*
X13216784Y-6464644D02*
X13216784Y-6408075D01*
X13160215Y-6408075D01*
X13160215Y-6464644D01*
X13216784Y-6464644D01*
X13216784Y-6718644D02*
X13216784Y-6662075D01*
X13160215Y-6662075D01*
X13160215Y-6718644D01*
X13216784Y-6718644D01*
X13216784Y-6972644D02*
X13216784Y-6916075D01*
X13160215Y-6916075D01*
X13160215Y-6972644D01*
X13216784Y-6972644D01*
X13216784Y-7226644D02*
X13216784Y-7170075D01*
X13160215Y-7170075D01*
X13160215Y-7226644D01*
X13216784Y-7226644D01*
X13216784Y-7480644D02*
X13216784Y-7424075D01*
X13160215Y-7424075D01*
X13160215Y-7480644D01*
X13216784Y-7480644D01*
X13216784Y-7734644D02*
X13216784Y-7678075D01*
X13160215Y-7678075D01*
X13160215Y-7734644D01*
X13216784Y-7734644D01*
X13216784Y-7988644D02*
X13216784Y-7932075D01*
X13160215Y-7932075D01*
X13160215Y-7988644D01*
X13216784Y-7988644D01*
X13216784Y-8242644D02*
X13216784Y-8186075D01*
X13160215Y-8186075D01*
X13160215Y-8242644D01*
X13216784Y-8242644D01*
X13216964Y-10378985D02*
X13216964Y-10322416D01*
X13160395Y-10322416D01*
X13160395Y-10378985D01*
X13216964Y-10378985D01*
X13216964Y-10632985D02*
X13216964Y-10576416D01*
X13160395Y-10576416D01*
X13160395Y-10632985D01*
X13216964Y-10632985D01*
X13216964Y-10886985D02*
X13216964Y-10830416D01*
X13160395Y-10830416D01*
X13160395Y-10886985D01*
X13216964Y-10886985D01*
X13216964Y-11140985D02*
X13216964Y-11084416D01*
X13160395Y-11084416D01*
X13160395Y-11140985D01*
X13216964Y-11140985D01*
X13216964Y-11394984D02*
X13216964Y-11338415D01*
X13160395Y-11338415D01*
X13160395Y-11394984D01*
X13216964Y-11394984D01*
X13216964Y-11648984D02*
X13216964Y-11592415D01*
X13160395Y-11592415D01*
X13160395Y-11648984D01*
X13216964Y-11648984D01*
X13216964Y-11902984D02*
X13216964Y-11846415D01*
X13160395Y-11846415D01*
X13160395Y-11902984D01*
X13216964Y-11902984D01*
X13249984Y-12753184D02*
X13249984Y-12696615D01*
X13193415Y-12696615D01*
X13193415Y-12753184D01*
X13249984Y-12753184D01*
X13249984Y-13007184D02*
X13249984Y-12950615D01*
X13193415Y-12950615D01*
X13193415Y-13007184D01*
X13249984Y-13007184D01*
X13249984Y-13261184D02*
X13249984Y-13204615D01*
X13193415Y-13204615D01*
X13193415Y-13261184D01*
X13249984Y-13261184D01*
X13249984Y-13515184D02*
X13249984Y-13458615D01*
X13193415Y-13458615D01*
X13193415Y-13515184D01*
X13249984Y-13515184D01*
X13249984Y-13769184D02*
X13249984Y-13712615D01*
X13193415Y-13712615D01*
X13193415Y-13769184D01*
X13249984Y-13769184D01*
X13249984Y-14023184D02*
X13249984Y-13966615D01*
X13193415Y-13966615D01*
X13193415Y-14023184D01*
X13249984Y-14023184D01*
X13249984Y-14277184D02*
X13249984Y-14220615D01*
X13193415Y-14220615D01*
X13193415Y-14277184D01*
X13249984Y-14277184D01*
X13261684Y-8945685D02*
X13261684Y-8889116D01*
X13205115Y-8889116D01*
X13205115Y-8945685D01*
X13261684Y-8945685D01*
X13261684Y-9195685D02*
X13261684Y-9139116D01*
X13205115Y-9139116D01*
X13205115Y-9195685D01*
X13261684Y-9195685D01*
X13706184Y-12753684D02*
X13706184Y-12697115D01*
X13649615Y-12697115D01*
X13649615Y-12753684D01*
X13706184Y-12753684D01*
X13706184Y-13007684D02*
X13706184Y-12951115D01*
X13649615Y-12951115D01*
X13649615Y-13007684D01*
X13706184Y-13007684D01*
X13706184Y-13261684D02*
X13706184Y-13205115D01*
X13649615Y-13205115D01*
X13649615Y-13261684D01*
X13706184Y-13261684D01*
X13706184Y-13515684D02*
X13706184Y-13459115D01*
X13649615Y-13459115D01*
X13649615Y-13515684D01*
X13706184Y-13515684D01*
X13706184Y-13769684D02*
X13706184Y-13713115D01*
X13649615Y-13713115D01*
X13649615Y-13769684D01*
X13706184Y-13769684D01*
X13706184Y-14023684D02*
X13706184Y-13967115D01*
X13649615Y-13967115D01*
X13649615Y-14023684D01*
X13706184Y-14023684D01*
X13706184Y-14277684D02*
X13706184Y-14221115D01*
X13649615Y-14221115D01*
X13649615Y-14277684D01*
X13706184Y-14277684D01*
X13712264Y-10370665D02*
X13712264Y-10314096D01*
X13655695Y-10314096D01*
X13655695Y-10370665D01*
X13712264Y-10370665D01*
X13712264Y-10624665D02*
X13712264Y-10568096D01*
X13655695Y-10568096D01*
X13655695Y-10624665D01*
X13712264Y-10624665D01*
X13712264Y-10878665D02*
X13712264Y-10822096D01*
X13655695Y-10822096D01*
X13655695Y-10878665D01*
X13712264Y-10878665D01*
X13712264Y-11132665D02*
X13712264Y-11076096D01*
X13655695Y-11076096D01*
X13655695Y-11132665D01*
X13712264Y-11132665D01*
X13712264Y-11386664D02*
X13712264Y-11330095D01*
X13655695Y-11330095D01*
X13655695Y-11386664D01*
X13712264Y-11386664D01*
X13712264Y-11640664D02*
X13712264Y-11584095D01*
X13655695Y-11584095D01*
X13655695Y-11640664D01*
X13712264Y-11640664D01*
X13712264Y-11894664D02*
X13712264Y-11838095D01*
X13655695Y-11838095D01*
X13655695Y-11894664D01*
X13712264Y-11894664D01*
X13712264Y-12148664D02*
X13712264Y-12092095D01*
X13655695Y-12092095D01*
X13655695Y-12148664D01*
X13712264Y-12148664D01*
X13724784Y-4935645D02*
X13724784Y-4879076D01*
X13668215Y-4879076D01*
X13668215Y-4935645D01*
X13724784Y-4935645D01*
X13724784Y-5189645D02*
X13724784Y-5133076D01*
X13668215Y-5133076D01*
X13668215Y-5189645D01*
X13724784Y-5189645D01*
X13724784Y-5443645D02*
X13724784Y-5387076D01*
X13668215Y-5387076D01*
X13668215Y-5443645D01*
X13724784Y-5443645D01*
X13724784Y-5697644D02*
X13724784Y-5641075D01*
X13668215Y-5641075D01*
X13668215Y-5697644D01*
X13724784Y-5697644D01*
X13724784Y-5951644D02*
X13724784Y-5895075D01*
X13668215Y-5895075D01*
X13668215Y-5951644D01*
X13724784Y-5951644D01*
X13724784Y-6205644D02*
X13724784Y-6149075D01*
X13668215Y-6149075D01*
X13668215Y-6205644D01*
X13724784Y-6205644D01*
X13724784Y-6459644D02*
X13724784Y-6403075D01*
X13668215Y-6403075D01*
X13668215Y-6459644D01*
X13724784Y-6459644D01*
X13724784Y-6713644D02*
X13724784Y-6657075D01*
X13668215Y-6657075D01*
X13668215Y-6713644D01*
X13724784Y-6713644D01*
X13724784Y-6967644D02*
X13724784Y-6911075D01*
X13668215Y-6911075D01*
X13668215Y-6967644D01*
X13724784Y-6967644D01*
X13724784Y-7221644D02*
X13724784Y-7165075D01*
X13668215Y-7165075D01*
X13668215Y-7221644D01*
X13724784Y-7221644D01*
X13724784Y-7475644D02*
X13724784Y-7419075D01*
X13668215Y-7419075D01*
X13668215Y-7475644D01*
X13724784Y-7475644D01*
X13724784Y-7729644D02*
X13724784Y-7673075D01*
X13668215Y-7673075D01*
X13668215Y-7729644D01*
X13724784Y-7729644D01*
X13724784Y-7983644D02*
X13724784Y-7927075D01*
X13668215Y-7927075D01*
X13668215Y-7983644D01*
X13724784Y-7983644D01*
X13724784Y-8237644D02*
X13724784Y-8181075D01*
X13668215Y-8181075D01*
X13668215Y-8237644D01*
X13724784Y-8237644D01*
X13724784Y-8491645D02*
X13724784Y-8435076D01*
X13668215Y-8435076D01*
X13668215Y-8491645D01*
X13724784Y-8491645D01*
X13724784Y-8745645D02*
X13724784Y-8689076D01*
X13668215Y-8689076D01*
X13668215Y-8745645D01*
X13724784Y-8745645D01*
X13724784Y-8999645D02*
X13724784Y-8943076D01*
X13668215Y-8943076D01*
X13668215Y-8999645D01*
X13724784Y-8999645D01*
X13724784Y-9253645D02*
X13724784Y-9197076D01*
X13668215Y-9197076D01*
X13668215Y-9253645D01*
X13724784Y-9253645D01*
X13724784Y-9507645D02*
X13724784Y-9451076D01*
X13668215Y-9451076D01*
X13668215Y-9507645D01*
X13724784Y-9507645D01*
X13724784Y-9761645D02*
X13724784Y-9705076D01*
X13668215Y-9705076D01*
X13668215Y-9761645D01*
X13724784Y-9761645D01*
X13962184Y-10097345D02*
X13962184Y-10040776D01*
X13905615Y-10040776D01*
X13905615Y-10097345D01*
X13962184Y-10097345D01*
X13964184Y-12486984D02*
X13964184Y-12430415D01*
X13907615Y-12430415D01*
X13907615Y-12486984D01*
X13964184Y-12486984D01*
X14212184Y-10097345D02*
X14212184Y-10040776D01*
X14155615Y-10040776D01*
X14155615Y-10097345D01*
X14212184Y-10097345D01*
X14214184Y-12486984D02*
X14214184Y-12430415D01*
X14157615Y-12430415D01*
X14157615Y-12486984D01*
X14214184Y-12486984D01*
X14362284Y-4669785D02*
X14362284Y-4613216D01*
X14305715Y-4613216D01*
X14305715Y-4669785D01*
X14362284Y-4669785D01*
X14468184Y-12753684D02*
X14468184Y-12697115D01*
X14411615Y-12697115D01*
X14411615Y-12753684D01*
X14468184Y-12753684D01*
X14468184Y-13007684D02*
X14468184Y-12951115D01*
X14411615Y-12951115D01*
X14411615Y-13007684D01*
X14468184Y-13007684D01*
X14468184Y-13261684D02*
X14468184Y-13205115D01*
X14411615Y-13205115D01*
X14411615Y-13261684D01*
X14468184Y-13261684D01*
X14468184Y-13515684D02*
X14468184Y-13459115D01*
X14411615Y-13459115D01*
X14411615Y-13515684D01*
X14468184Y-13515684D01*
X14468184Y-13769684D02*
X14468184Y-13713115D01*
X14411615Y-13713115D01*
X14411615Y-13769684D01*
X14468184Y-13769684D01*
X14468184Y-14023684D02*
X14468184Y-13967115D01*
X14411615Y-13967115D01*
X14411615Y-14023684D01*
X14468184Y-14023684D01*
X14468184Y-14277684D02*
X14468184Y-14221115D01*
X14411615Y-14221115D01*
X14411615Y-14277684D01*
X14468184Y-14277684D01*
X14474264Y-10370665D02*
X14474264Y-10314096D01*
X14417695Y-10314096D01*
X14417695Y-10370665D01*
X14474264Y-10370665D01*
X14474264Y-10624665D02*
X14474264Y-10568096D01*
X14417695Y-10568096D01*
X14417695Y-10624665D01*
X14474264Y-10624665D01*
X14474264Y-10878665D02*
X14474264Y-10822096D01*
X14417695Y-10822096D01*
X14417695Y-10878665D01*
X14474264Y-10878665D01*
X14474264Y-11132665D02*
X14474264Y-11076096D01*
X14417695Y-11076096D01*
X14417695Y-11132665D01*
X14474264Y-11132665D01*
X14474264Y-11386664D02*
X14474264Y-11330095D01*
X14417695Y-11330095D01*
X14417695Y-11386664D01*
X14474264Y-11386664D01*
X14474264Y-11640664D02*
X14474264Y-11584095D01*
X14417695Y-11584095D01*
X14417695Y-11640664D01*
X14474264Y-11640664D01*
X14474264Y-11894664D02*
X14474264Y-11838095D01*
X14417695Y-11838095D01*
X14417695Y-11894664D01*
X14474264Y-11894664D01*
X14474264Y-12148664D02*
X14474264Y-12092095D01*
X14417695Y-12092095D01*
X14417695Y-12148664D01*
X14474264Y-12148664D01*
X14612284Y-4669785D02*
X14612284Y-4613216D01*
X14555715Y-4613216D01*
X14555715Y-4669785D01*
X14612284Y-4669785D01*
X14899984Y-11420684D02*
X14899984Y-11364115D01*
X14843415Y-11364115D01*
X14843415Y-11420684D01*
X14899984Y-11420684D01*
X14899984Y-11674684D02*
X14899984Y-11618115D01*
X14843415Y-11618115D01*
X14843415Y-11674684D01*
X14899984Y-11674684D01*
X14899984Y-11928684D02*
X14899984Y-11872115D01*
X14843415Y-11872115D01*
X14843415Y-11928684D01*
X14899984Y-11928684D01*
X14899984Y-12182684D02*
X14899984Y-12126115D01*
X14843415Y-12126115D01*
X14843415Y-12182684D01*
X14899984Y-12182684D01*
X14899984Y-12436684D02*
X14899984Y-12380115D01*
X14843415Y-12380115D01*
X14843415Y-12436684D01*
X14899984Y-12436684D01*
X14899984Y-12690684D02*
X14899984Y-12634115D01*
X14843415Y-12634115D01*
X14843415Y-12690684D01*
X14899984Y-12690684D01*
X14899984Y-12944684D02*
X14899984Y-12888115D01*
X14843415Y-12888115D01*
X14843415Y-12944684D01*
X14899984Y-12944684D01*
X14899984Y-13198684D02*
X14899984Y-13142115D01*
X14843415Y-13142115D01*
X14843415Y-13198684D01*
X14899984Y-13198684D01*
X14899984Y-13452684D02*
X14899984Y-13396115D01*
X14843415Y-13396115D01*
X14843415Y-13452684D01*
X14899984Y-13452684D01*
X14899984Y-13706684D02*
X14899984Y-13650115D01*
X14843415Y-13650115D01*
X14843415Y-13706684D01*
X14899984Y-13706684D01*
X15143284Y-11153985D02*
X15143284Y-11097416D01*
X15086715Y-11097416D01*
X15086715Y-11153985D01*
X15143284Y-11153985D01*
X15248784Y-4935645D02*
X15248784Y-4879076D01*
X15192215Y-4879076D01*
X15192215Y-4935645D01*
X15248784Y-4935645D01*
X15248784Y-5189645D02*
X15248784Y-5133076D01*
X15192215Y-5133076D01*
X15192215Y-5189645D01*
X15248784Y-5189645D01*
X15248784Y-5443645D02*
X15248784Y-5387076D01*
X15192215Y-5387076D01*
X15192215Y-5443645D01*
X15248784Y-5443645D01*
X15248784Y-5697644D02*
X15248784Y-5641075D01*
X15192215Y-5641075D01*
X15192215Y-5697644D01*
X15248784Y-5697644D01*
X15248784Y-5951644D02*
X15248784Y-5895075D01*
X15192215Y-5895075D01*
X15192215Y-5951644D01*
X15248784Y-5951644D01*
X15248784Y-6205644D02*
X15248784Y-6149075D01*
X15192215Y-6149075D01*
X15192215Y-6205644D01*
X15248784Y-6205644D01*
X15248784Y-6459644D02*
X15248784Y-6403075D01*
X15192215Y-6403075D01*
X15192215Y-6459644D01*
X15248784Y-6459644D01*
X15248784Y-6713644D02*
X15248784Y-6657075D01*
X15192215Y-6657075D01*
X15192215Y-6713644D01*
X15248784Y-6713644D01*
X15248784Y-6967644D02*
X15248784Y-6911075D01*
X15192215Y-6911075D01*
X15192215Y-6967644D01*
X15248784Y-6967644D01*
X15248784Y-7221644D02*
X15248784Y-7165075D01*
X15192215Y-7165075D01*
X15192215Y-7221644D01*
X15248784Y-7221644D01*
X15248784Y-7475644D02*
X15248784Y-7419075D01*
X15192215Y-7419075D01*
X15192215Y-7475644D01*
X15248784Y-7475644D01*
X15248784Y-7729644D02*
X15248784Y-7673075D01*
X15192215Y-7673075D01*
X15192215Y-7729644D01*
X15248784Y-7729644D01*
X15248784Y-7983644D02*
X15248784Y-7927075D01*
X15192215Y-7927075D01*
X15192215Y-7983644D01*
X15248784Y-7983644D01*
X15248784Y-8237644D02*
X15248784Y-8181075D01*
X15192215Y-8181075D01*
X15192215Y-8237644D01*
X15248784Y-8237644D01*
X15248784Y-8491645D02*
X15248784Y-8435076D01*
X15192215Y-8435076D01*
X15192215Y-8491645D01*
X15248784Y-8491645D01*
X15248784Y-8745645D02*
X15248784Y-8689076D01*
X15192215Y-8689076D01*
X15192215Y-8745645D01*
X15248784Y-8745645D01*
X15248784Y-8999645D02*
X15248784Y-8943076D01*
X15192215Y-8943076D01*
X15192215Y-8999645D01*
X15248784Y-8999645D01*
X15248784Y-9253645D02*
X15248784Y-9197076D01*
X15192215Y-9197076D01*
X15192215Y-9253645D01*
X15248784Y-9253645D01*
X15248784Y-9507645D02*
X15248784Y-9451076D01*
X15192215Y-9451076D01*
X15192215Y-9507645D01*
X15248784Y-9507645D01*
X15248784Y-9761645D02*
X15248784Y-9705076D01*
X15192215Y-9705076D01*
X15192215Y-9761645D01*
X15248784Y-9761645D01*
X15393284Y-11153985D02*
X15393284Y-11097416D01*
X15336715Y-11097416D01*
X15336715Y-11153985D01*
X15393284Y-11153985D01*
X15661984Y-11420684D02*
X15661984Y-11364115D01*
X15605415Y-11364115D01*
X15605415Y-11420684D01*
X15661984Y-11420684D01*
X15661984Y-11674684D02*
X15661984Y-11618115D01*
X15605415Y-11618115D01*
X15605415Y-11674684D01*
X15661984Y-11674684D01*
X15661984Y-11928684D02*
X15661984Y-11872115D01*
X15605415Y-11872115D01*
X15605415Y-11928684D01*
X15661984Y-11928684D01*
X15661984Y-12182684D02*
X15661984Y-12126115D01*
X15605415Y-12126115D01*
X15605415Y-12182684D01*
X15661984Y-12182684D01*
X15661984Y-12436684D02*
X15661984Y-12380115D01*
X15605415Y-12380115D01*
X15605415Y-12436684D01*
X15661984Y-12436684D01*
X15661984Y-12690684D02*
X15661984Y-12634115D01*
X15605415Y-12634115D01*
X15605415Y-12690684D01*
X15661984Y-12690684D01*
X15661984Y-12944684D02*
X15661984Y-12888115D01*
X15605415Y-12888115D01*
X15605415Y-12944684D01*
X15661984Y-12944684D01*
X15661984Y-13198684D02*
X15661984Y-13142115D01*
X15605415Y-13142115D01*
X15605415Y-13198684D01*
X15661984Y-13198684D01*
X15661984Y-13452684D02*
X15661984Y-13396115D01*
X15605415Y-13396115D01*
X15605415Y-13452684D01*
X15661984Y-13452684D01*
X15661984Y-13706684D02*
X15661984Y-13650115D01*
X15605415Y-13650115D01*
X15605415Y-13706684D01*
X15661984Y-13706684D01*
X16065784Y-10129785D02*
X16065784Y-10073216D01*
X16009215Y-10073216D01*
X16009215Y-10129785D01*
X16065784Y-10129785D01*
X16065784Y-10383785D02*
X16065784Y-10327216D01*
X16009215Y-10327216D01*
X16009215Y-10383785D01*
X16065784Y-10383785D01*
X16065784Y-10637785D02*
X16065784Y-10581216D01*
X16009215Y-10581216D01*
X16009215Y-10637785D01*
X16065784Y-10637785D01*
X16065784Y-10891785D02*
X16065784Y-10835216D01*
X16009215Y-10835216D01*
X16009215Y-10891785D01*
X16065784Y-10891785D01*
X16065784Y-11145785D02*
X16065784Y-11089216D01*
X16009215Y-11089216D01*
X16009215Y-11145785D01*
X16065784Y-11145785D01*
X16065784Y-11399784D02*
X16065784Y-11343215D01*
X16009215Y-11343215D01*
X16009215Y-11399784D01*
X16065784Y-11399784D01*
X16065784Y-11653784D02*
X16065784Y-11597215D01*
X16009215Y-11597215D01*
X16009215Y-11653784D01*
X16065784Y-11653784D01*
X16065784Y-11907784D02*
X16065784Y-11851215D01*
X16009215Y-11851215D01*
X16009215Y-11907784D01*
X16065784Y-11907784D01*
X16065784Y-12161784D02*
X16065784Y-12105215D01*
X16009215Y-12105215D01*
X16009215Y-12161784D01*
X16065784Y-12161784D01*
X16065784Y-12415784D02*
X16065784Y-12359215D01*
X16009215Y-12359215D01*
X16009215Y-12415784D01*
X16065784Y-12415784D01*
X16065784Y-12669784D02*
X16065784Y-12613215D01*
X16009215Y-12613215D01*
X16009215Y-12669784D01*
X16065784Y-12669784D01*
X16065784Y-12923784D02*
X16065784Y-12867215D01*
X16009215Y-12867215D01*
X16009215Y-12923784D01*
X16065784Y-12923784D01*
X16065784Y-13177784D02*
X16065784Y-13121215D01*
X16009215Y-13121215D01*
X16009215Y-13177784D01*
X16065784Y-13177784D01*
X16065784Y-13431784D02*
X16065784Y-13375215D01*
X16009215Y-13375215D01*
X16009215Y-13431784D01*
X16065784Y-13431784D01*
X16705384Y-9888565D02*
X16705384Y-9831996D01*
X16648815Y-9831996D01*
X16648815Y-9888565D01*
X16705384Y-9888565D01*
X16955385Y-9888565D02*
X16955385Y-9831996D01*
X16898816Y-9831996D01*
X16898816Y-9888565D01*
X16955385Y-9888565D01*
X17589785Y-10129785D02*
X17589785Y-10073216D01*
X17533216Y-10073216D01*
X17533216Y-10129785D01*
X17589785Y-10129785D01*
X17589785Y-10383785D02*
X17589785Y-10327216D01*
X17533216Y-10327216D01*
X17533216Y-10383785D01*
X17589785Y-10383785D01*
X17589785Y-10637785D02*
X17589785Y-10581216D01*
X17533216Y-10581216D01*
X17533216Y-10637785D01*
X17589785Y-10637785D01*
X17589785Y-10891785D02*
X17589785Y-10835216D01*
X17533216Y-10835216D01*
X17533216Y-10891785D01*
X17589785Y-10891785D01*
X17589785Y-11145785D02*
X17589785Y-11089216D01*
X17533216Y-11089216D01*
X17533216Y-11145785D01*
X17589785Y-11145785D01*
X17589785Y-11399784D02*
X17589785Y-11343215D01*
X17533216Y-11343215D01*
X17533216Y-11399784D01*
X17589785Y-11399784D01*
X17589785Y-11653784D02*
X17589785Y-11597215D01*
X17533216Y-11597215D01*
X17533216Y-11653784D01*
X17589785Y-11653784D01*
X17589785Y-11907784D02*
X17589785Y-11851215D01*
X17533216Y-11851215D01*
X17533216Y-11907784D01*
X17589785Y-11907784D01*
X17589785Y-12161784D02*
X17589785Y-12105215D01*
X17533216Y-12105215D01*
X17533216Y-12161784D01*
X17589785Y-12161784D01*
X17589785Y-12415784D02*
X17589785Y-12359215D01*
X17533216Y-12359215D01*
X17533216Y-12415784D01*
X17589785Y-12415784D01*
X17589785Y-12669784D02*
X17589785Y-12613215D01*
X17533216Y-12613215D01*
X17533216Y-12669784D01*
X17589785Y-12669784D01*
X17589785Y-12923784D02*
X17589785Y-12867215D01*
X17533216Y-12867215D01*
X17533216Y-12923784D01*
X17589785Y-12923784D01*
X17589785Y-13177784D02*
X17589785Y-13121215D01*
X17533216Y-13121215D01*
X17533216Y-13177784D01*
X17589785Y-13177784D01*
X17589785Y-13431784D02*
X17589785Y-13375215D01*
X17533216Y-13375215D01*
X17533216Y-13431784D01*
X17589785Y-13431784D01*
X18102385Y-5463885D02*
X18102385Y-5407316D01*
X18045816Y-5407316D01*
X18045816Y-5463885D01*
X18102385Y-5463885D01*
X18352385Y-5463885D02*
X18352385Y-5407316D01*
X18295816Y-5407316D01*
X18295816Y-5463885D01*
X18352385Y-5463885D01*
D16*
X10553700Y-14180100D02*
X10598700Y-14135100D01*
X10553700Y-14090100D01*
X10508700Y-14135100D01*
X10553700Y-14180100D01*
X10807700Y-14180100D02*
X10852700Y-14135100D01*
X10807700Y-14090100D01*
X10762700Y-14135100D01*
X10807700Y-14180100D01*
D10*
X8951760Y-7110120D02*
X9051760Y-7210120D01*
X9051760Y-7110120D02*
X8951760Y-7210120D01*
X9051760Y-7160120D02*
G75*
G03*
X9051760Y-7160120I-50000J0D01*
G01*
X8951760Y-7364120D02*
X9051760Y-7464120D01*
X9051760Y-7364120D02*
X8951760Y-7464120D01*
X9051760Y-7414120D02*
G75*
G03*
X9051760Y-7414120I-50000J0D01*
G01*
X8951760Y-7618120D02*
X9051760Y-7718120D01*
X9051760Y-7618120D02*
X8951760Y-7718120D01*
X9051760Y-7668120D02*
G75*
G03*
X9051760Y-7668120I-50000J0D01*
G01*
X8951760Y-7872120D02*
X9051760Y-7972120D01*
X9051760Y-7872120D02*
X8951760Y-7972120D01*
X9051760Y-7922120D02*
G75*
G03*
X9051760Y-7922120I-50000J0D01*
G01*
X9306800Y-13107200D02*
X9406800Y-13207200D01*
X9406800Y-13107200D02*
X9306800Y-13207200D01*
X9406800Y-13157200D02*
G75*
G03*
X9406800Y-13157200I-50000J0D01*
G01*
D11*
X9406800Y-13257200D02*
X9406800Y-13057200D01*
X9406800Y-13057200D02*
G75*
G03*
X9306800Y-13057200I-50000J0D01*
G01*
X9306800Y-13057200D02*
X9306800Y-13257200D01*
X9306800Y-13257200D02*
G75*
G03*
X9406800Y-13257200I50000J0D01*
G01*
D10*
X9906800Y-13107200D02*
X10006800Y-13207200D01*
X10006800Y-13107200D02*
X9906800Y-13207200D01*
X10006800Y-13157200D02*
G75*
G03*
X10006800Y-13157200I-50000J0D01*
G01*
D11*
X10006800Y-13282200D02*
X10006800Y-13032200D01*
X10006800Y-13032200D02*
G75*
G03*
X9906800Y-13032200I-50000J0D01*
G01*
X9906800Y-13032200D02*
X9906800Y-13282200D01*
X9906800Y-13282200D02*
G75*
G03*
X10006800Y-13282200I50000J0D01*
G01*
D10*
X15897750Y-5711000D02*
X15997750Y-5811000D01*
X15997750Y-5711000D02*
X15897750Y-5811000D01*
X15997750Y-5761000D02*
G75*
G03*
X15997750Y-5761000I-50000J0D01*
G01*
X15897750Y-5965000D02*
X15997750Y-6065000D01*
X15997750Y-5965000D02*
X15897750Y-6065000D01*
X15997750Y-6015000D02*
G75*
G03*
X15997750Y-6015000I-50000J0D01*
G01*
X15897750Y-6219000D02*
X15997750Y-6319000D01*
X15997750Y-6219000D02*
X15897750Y-6319000D01*
X15997750Y-6269000D02*
G75*
G03*
X15997750Y-6269000I-50000J0D01*
G01*
X15897750Y-6473000D02*
X15997750Y-6573000D01*
X15997750Y-6473000D02*
X15897750Y-6573000D01*
X15997750Y-6523000D02*
G75*
G03*
X15997750Y-6523000I-50000J0D01*
G01*
X15897750Y-6727000D02*
X15997750Y-6827000D01*
X15997750Y-6727000D02*
X15897750Y-6827000D01*
X15997750Y-6777000D02*
G75*
G03*
X15997750Y-6777000I-50000J0D01*
G01*
X15897750Y-6981000D02*
X15997750Y-7081000D01*
X15997750Y-6981000D02*
X15897750Y-7081000D01*
X15997750Y-7031000D02*
G75*
G03*
X15997750Y-7031000I-50000J0D01*
G01*
X15897750Y-7235000D02*
X15997750Y-7335000D01*
X15997750Y-7235000D02*
X15897750Y-7335000D01*
X15997750Y-7285000D02*
G75*
G03*
X15997750Y-7285000I-50000J0D01*
G01*
X15897750Y-7489000D02*
X15997750Y-7589000D01*
X15997750Y-7489000D02*
X15897750Y-7589000D01*
X15997750Y-7539000D02*
G75*
G03*
X15997750Y-7539000I-50000J0D01*
G01*
X15897750Y-7743000D02*
X15997750Y-7843000D01*
X15997750Y-7743000D02*
X15897750Y-7843000D01*
X15997750Y-7793000D02*
G75*
G03*
X15997750Y-7793000I-50000J0D01*
G01*
X15897750Y-7997000D02*
X15997750Y-8097000D01*
X15997750Y-7997000D02*
X15897750Y-8097000D01*
X15997750Y-8047000D02*
G75*
G03*
X15997750Y-8047000I-50000J0D01*
G01*
X15897750Y-8251000D02*
X15997750Y-8351000D01*
X15997750Y-8251000D02*
X15897750Y-8351000D01*
X15997750Y-8301000D02*
G75*
G03*
X15997750Y-8301000I-50000J0D01*
G01*
X15897750Y-8505000D02*
X15997750Y-8605000D01*
X15997750Y-8505000D02*
X15897750Y-8605000D01*
X15997750Y-8555000D02*
G75*
G03*
X15997750Y-8555000I-50000J0D01*
G01*
X15897750Y-8759000D02*
X15997750Y-8859000D01*
X15997750Y-8759000D02*
X15897750Y-8859000D01*
X15997750Y-8809000D02*
G75*
G03*
X15997750Y-8809000I-50000J0D01*
G01*
X15897750Y-9013000D02*
X15997750Y-9113000D01*
X15997750Y-9013000D02*
X15897750Y-9113000D01*
X15997750Y-9063000D02*
G75*
G03*
X15997750Y-9063000I-50000J0D01*
G01*
X16115000Y-13862500D02*
X16215000Y-13962500D01*
X16215000Y-13862500D02*
X16115000Y-13962500D01*
X16215000Y-13912500D02*
G75*
G03*
X16215000Y-13912500I-50000J0D01*
G01*
X16115000Y-14116500D02*
X16215000Y-14216500D01*
X16215000Y-14116500D02*
X16115000Y-14216500D01*
X16215000Y-14166500D02*
G75*
G03*
X16215000Y-14166500I-50000J0D01*
G01*
X16369000Y-13862500D02*
X16469000Y-13962500D01*
X16469000Y-13862500D02*
X16369000Y-13962500D01*
X16469000Y-13912500D02*
G75*
G03*
X16469000Y-13912500I-50000J0D01*
G01*
X16369000Y-14116500D02*
X16469000Y-14216500D01*
X16469000Y-14116500D02*
X16369000Y-14216500D01*
X16469000Y-14166500D02*
G75*
G03*
X16469000Y-14166500I-50000J0D01*
G01*
X16623000Y-13862500D02*
X16723000Y-13962500D01*
X16723000Y-13862500D02*
X16623000Y-13962500D01*
X16723000Y-13912500D02*
G75*
G03*
X16723000Y-13912500I-50000J0D01*
G01*
X16623000Y-14116500D02*
X16723000Y-14216500D01*
X16723000Y-14116500D02*
X16623000Y-14216500D01*
X16723000Y-14166500D02*
G75*
G03*
X16723000Y-14166500I-50000J0D01*
G01*
X16877000Y-13862500D02*
X16977000Y-13962500D01*
X16977000Y-13862500D02*
X16877000Y-13962500D01*
X16977000Y-13912500D02*
G75*
G03*
X16977000Y-13912500I-50000J0D01*
G01*
X16877000Y-14116500D02*
X16977000Y-14216500D01*
X16977000Y-14116500D02*
X16877000Y-14216500D01*
X16977000Y-14166500D02*
G75*
G03*
X16977000Y-14166500I-50000J0D01*
G01*
X17131000Y-13862500D02*
X17231000Y-13962500D01*
X17231000Y-13862500D02*
X17131000Y-13962500D01*
X17231000Y-13912500D02*
G75*
G03*
X17231000Y-13912500I-50000J0D01*
G01*
X17131000Y-14116500D02*
X17231000Y-14216500D01*
X17231000Y-14116500D02*
X17131000Y-14216500D01*
X17231000Y-14166500D02*
G75*
G03*
X17231000Y-14166500I-50000J0D01*
G01*
X17385000Y-13862500D02*
X17485000Y-13962500D01*
X17485000Y-13862500D02*
X17385000Y-13962500D01*
X17485000Y-13912500D02*
G75*
G03*
X17485000Y-13912500I-50000J0D01*
G01*
X17385000Y-14116500D02*
X17485000Y-14216500D01*
X17485000Y-14116500D02*
X17385000Y-14216500D01*
X17485000Y-14166500D02*
G75*
G03*
X17485000Y-14166500I-50000J0D01*
G01*
X17421750Y-5711000D02*
X17521750Y-5811000D01*
X17521750Y-5711000D02*
X17421750Y-5811000D01*
X17521750Y-5761000D02*
G75*
G03*
X17521750Y-5761000I-50000J0D01*
G01*
X17421750Y-5965000D02*
X17521750Y-6065000D01*
X17521750Y-5965000D02*
X17421750Y-6065000D01*
X17521750Y-6015000D02*
G75*
G03*
X17521750Y-6015000I-50000J0D01*
G01*
X17421750Y-6219000D02*
X17521750Y-6319000D01*
X17521750Y-6219000D02*
X17421750Y-6319000D01*
X17521750Y-6269000D02*
G75*
G03*
X17521750Y-6269000I-50000J0D01*
G01*
X17421750Y-6473000D02*
X17521750Y-6573000D01*
X17521750Y-6473000D02*
X17421750Y-6573000D01*
X17521750Y-6523000D02*
G75*
G03*
X17521750Y-6523000I-50000J0D01*
G01*
X17421750Y-6727000D02*
X17521750Y-6827000D01*
X17521750Y-6727000D02*
X17421750Y-6827000D01*
X17521750Y-6777000D02*
G75*
G03*
X17521750Y-6777000I-50000J0D01*
G01*
X17421750Y-6981000D02*
X17521750Y-7081000D01*
X17521750Y-6981000D02*
X17421750Y-7081000D01*
X17521750Y-7031000D02*
G75*
G03*
X17521750Y-7031000I-50000J0D01*
G01*
X17421750Y-7235000D02*
X17521750Y-7335000D01*
X17521750Y-7235000D02*
X17421750Y-7335000D01*
X17521750Y-7285000D02*
G75*
G03*
X17521750Y-7285000I-50000J0D01*
G01*
X17421750Y-7489000D02*
X17521750Y-7589000D01*
X17521750Y-7489000D02*
X17421750Y-7589000D01*
X17521750Y-7539000D02*
G75*
G03*
X17521750Y-7539000I-50000J0D01*
G01*
X17421750Y-7743000D02*
X17521750Y-7843000D01*
X17521750Y-7743000D02*
X17421750Y-7843000D01*
X17521750Y-7793000D02*
G75*
G03*
X17521750Y-7793000I-50000J0D01*
G01*
X17421750Y-7997000D02*
X17521750Y-8097000D01*
X17521750Y-7997000D02*
X17421750Y-8097000D01*
X17521750Y-8047000D02*
G75*
G03*
X17521750Y-8047000I-50000J0D01*
G01*
X17421750Y-8251000D02*
X17521750Y-8351000D01*
X17521750Y-8251000D02*
X17421750Y-8351000D01*
X17521750Y-8301000D02*
G75*
G03*
X17521750Y-8301000I-50000J0D01*
G01*
X17421750Y-8505000D02*
X17521750Y-8605000D01*
X17521750Y-8505000D02*
X17421750Y-8605000D01*
X17521750Y-8555000D02*
G75*
G03*
X17521750Y-8555000I-50000J0D01*
G01*
X17421750Y-8759000D02*
X17521750Y-8859000D01*
X17521750Y-8759000D02*
X17421750Y-8859000D01*
X17521750Y-8809000D02*
G75*
G03*
X17521750Y-8809000I-50000J0D01*
G01*
X17421750Y-9013000D02*
X17521750Y-9113000D01*
X17521750Y-9013000D02*
X17421750Y-9113000D01*
X17521750Y-9063000D02*
G75*
G03*
X17521750Y-9063000I-50000J0D01*
G01*
X18022100Y-5690400D02*
X18122100Y-5790400D01*
X18122100Y-5690400D02*
X18022100Y-5790400D01*
X18122100Y-5740400D02*
G75*
G03*
X18122100Y-5740400I-50000J0D01*
G01*
X18022100Y-5944400D02*
X18122100Y-6044400D01*
X18122100Y-5944400D02*
X18022100Y-6044400D01*
X18122100Y-5994400D02*
G75*
G03*
X18122100Y-5994400I-50000J0D01*
G01*
X18022100Y-6198400D02*
X18122100Y-6298400D01*
X18122100Y-6198400D02*
X18022100Y-6298400D01*
X18122100Y-6248400D02*
G75*
G03*
X18122100Y-6248400I-50000J0D01*
G01*
X18024640Y-7559840D02*
X18124640Y-7659840D01*
X18124640Y-7559840D02*
X18024640Y-7659840D01*
X18124640Y-7609840D02*
G75*
G03*
X18124640Y-7609840I-50000J0D01*
G01*
X18024640Y-7813840D02*
X18124640Y-7913840D01*
X18124640Y-7813840D02*
X18024640Y-7913840D01*
X18124640Y-7863840D02*
G75*
G03*
X18124640Y-7863840I-50000J0D01*
G01*
X18024640Y-8067840D02*
X18124640Y-8167840D01*
X18124640Y-8067840D02*
X18024640Y-8167840D01*
X18124640Y-8117840D02*
G75*
G03*
X18124640Y-8117840I-50000J0D01*
G01*
X18024640Y-8321840D02*
X18124640Y-8421840D01*
X18124640Y-8321840D02*
X18024640Y-8421840D01*
X18124640Y-8371840D02*
G75*
G03*
X18124640Y-8371840I-50000J0D01*
G01*
X18024640Y-8575840D02*
X18124640Y-8675840D01*
X18124640Y-8575840D02*
X18024640Y-8675840D01*
X18124640Y-8625840D02*
G75*
G03*
X18124640Y-8625840I-50000J0D01*
G01*
X18024640Y-8829840D02*
X18124640Y-8929840D01*
X18124640Y-8829840D02*
X18024640Y-8929840D01*
X18124640Y-8879840D02*
G75*
G03*
X18124640Y-8879840I-50000J0D01*
G01*
X18024640Y-9083840D02*
X18124640Y-9183840D01*
X18124640Y-9083840D02*
X18024640Y-9183840D01*
X18124640Y-9133840D02*
G75*
G03*
X18124640Y-9133840I-50000J0D01*
G01*
X18024640Y-9337840D02*
X18124640Y-9437840D01*
X18124640Y-9337840D02*
X18024640Y-9437840D01*
X18124640Y-9387840D02*
G75*
G03*
X18124640Y-9387840I-50000J0D01*
G01*
X18024640Y-9591840D02*
X18124640Y-9691840D01*
X18124640Y-9591840D02*
X18024640Y-9691840D01*
X18124640Y-9641840D02*
G75*
G03*
X18124640Y-9641840I-50000J0D01*
G01*
X18024640Y-9845840D02*
X18124640Y-9945840D01*
X18124640Y-9845840D02*
X18024640Y-9945840D01*
X18124640Y-9895840D02*
G75*
G03*
X18124640Y-9895840I-50000J0D01*
G01*
X18024640Y-10099840D02*
X18124640Y-10199840D01*
X18124640Y-10099840D02*
X18024640Y-10199840D01*
X18124640Y-10149840D02*
G75*
G03*
X18124640Y-10149840I-50000J0D01*
G01*
X18024640Y-10353840D02*
X18124640Y-10453840D01*
X18124640Y-10353840D02*
X18024640Y-10453840D01*
X18124640Y-10403840D02*
G75*
G03*
X18124640Y-10403840I-50000J0D01*
G01*
X18024640Y-10607840D02*
X18124640Y-10707840D01*
X18124640Y-10607840D02*
X18024640Y-10707840D01*
X18124640Y-10657840D02*
G75*
G03*
X18124640Y-10657840I-50000J0D01*
G01*
X18024640Y-10861840D02*
X18124640Y-10961840D01*
X18124640Y-10861840D02*
X18024640Y-10961840D01*
X18124640Y-10911840D02*
G75*
G03*
X18124640Y-10911840I-50000J0D01*
G01*
X18024640Y-11115840D02*
X18124640Y-11215840D01*
X18124640Y-11115840D02*
X18024640Y-11215840D01*
X18124640Y-11165840D02*
G75*
G03*
X18124640Y-11165840I-50000J0D01*
G01*
X18024640Y-11369840D02*
X18124640Y-11469840D01*
X18124640Y-11369840D02*
X18024640Y-11469840D01*
X18124640Y-11419840D02*
G75*
G03*
X18124640Y-11419840I-50000J0D01*
G01*
X18276100Y-5690400D02*
X18376100Y-5790400D01*
X18376100Y-5690400D02*
X18276100Y-5790400D01*
X18376100Y-5740400D02*
G75*
G03*
X18376100Y-5740400I-50000J0D01*
G01*
X18276100Y-5944400D02*
X18376100Y-6044400D01*
X18376100Y-5944400D02*
X18276100Y-6044400D01*
X18376100Y-5994400D02*
G75*
G03*
X18376100Y-5994400I-50000J0D01*
G01*
X18276100Y-6198400D02*
X18376100Y-6298400D01*
X18376100Y-6198400D02*
X18276100Y-6298400D01*
X18376100Y-6248400D02*
G75*
G03*
X18376100Y-6248400I-50000J0D01*
G01*
X18278640Y-7559840D02*
X18378640Y-7659840D01*
X18378640Y-7559840D02*
X18278640Y-7659840D01*
X18378640Y-7609840D02*
G75*
G03*
X18378640Y-7609840I-50000J0D01*
G01*
X18278640Y-7813840D02*
X18378640Y-7913840D01*
X18378640Y-7813840D02*
X18278640Y-7913840D01*
X18378640Y-7863840D02*
G75*
G03*
X18378640Y-7863840I-50000J0D01*
G01*
X18278640Y-8067840D02*
X18378640Y-8167840D01*
X18378640Y-8067840D02*
X18278640Y-8167840D01*
X18378640Y-8117840D02*
G75*
G03*
X18378640Y-8117840I-50000J0D01*
G01*
X18278640Y-8321840D02*
X18378640Y-8421840D01*
X18378640Y-8321840D02*
X18278640Y-8421840D01*
X18378640Y-8371840D02*
G75*
G03*
X18378640Y-8371840I-50000J0D01*
G01*
X18278640Y-8575840D02*
X18378640Y-8675840D01*
X18378640Y-8575840D02*
X18278640Y-8675840D01*
X18378640Y-8625840D02*
G75*
G03*
X18378640Y-8625840I-50000J0D01*
G01*
X18278640Y-8829840D02*
X18378640Y-8929840D01*
X18378640Y-8829840D02*
X18278640Y-8929840D01*
X18378640Y-8879840D02*
G75*
G03*
X18378640Y-8879840I-50000J0D01*
G01*
X18278640Y-9083840D02*
X18378640Y-9183840D01*
X18378640Y-9083840D02*
X18278640Y-9183840D01*
X18378640Y-9133840D02*
G75*
G03*
X18378640Y-9133840I-50000J0D01*
G01*
X18278640Y-9337840D02*
X18378640Y-9437840D01*
X18378640Y-9337840D02*
X18278640Y-9437840D01*
X18378640Y-9387840D02*
G75*
G03*
X18378640Y-9387840I-50000J0D01*
G01*
X18278640Y-9591840D02*
X18378640Y-9691840D01*
X18378640Y-9591840D02*
X18278640Y-9691840D01*
X18378640Y-9641840D02*
G75*
G03*
X18378640Y-9641840I-50000J0D01*
G01*
X18278640Y-9845840D02*
X18378640Y-9945840D01*
X18378640Y-9845840D02*
X18278640Y-9945840D01*
X18378640Y-9895840D02*
G75*
G03*
X18378640Y-9895840I-50000J0D01*
G01*
X18278640Y-10099840D02*
X18378640Y-10199840D01*
X18378640Y-10099840D02*
X18278640Y-10199840D01*
X18378640Y-10149840D02*
G75*
G03*
X18378640Y-10149840I-50000J0D01*
G01*
X18278640Y-10353840D02*
X18378640Y-10453840D01*
X18378640Y-10353840D02*
X18278640Y-10453840D01*
X18378640Y-10403840D02*
G75*
G03*
X18378640Y-10403840I-50000J0D01*
G01*
X18278640Y-10607840D02*
X18378640Y-10707840D01*
X18378640Y-10607840D02*
X18278640Y-10707840D01*
X18378640Y-10657840D02*
G75*
G03*
X18378640Y-10657840I-50000J0D01*
G01*
X18278640Y-10861840D02*
X18378640Y-10961840D01*
X18378640Y-10861840D02*
X18278640Y-10961840D01*
X18378640Y-10911840D02*
G75*
G03*
X18378640Y-10911840I-50000J0D01*
G01*
X18278640Y-11115840D02*
X18378640Y-11215840D01*
X18378640Y-11115840D02*
X18278640Y-11215840D01*
X18378640Y-11165840D02*
G75*
G03*
X18378640Y-11165840I-50000J0D01*
G01*
X18278640Y-11369840D02*
X18378640Y-11469840D01*
X18378640Y-11369840D02*
X18278640Y-11469840D01*
X18378640Y-11419840D02*
G75*
G03*
X18378640Y-11419840I-50000J0D01*
G01*
D17*
X8731800Y-10649600D02*
X8841800Y-10759600D01*
X8841800Y-10649600D02*
X8731800Y-10759600D01*
X8786800Y-10649600D02*
X8786800Y-10759600D01*
X8731800Y-10704600D02*
X8841800Y-10704600D01*
X8731800Y-12049600D02*
X8841800Y-12159600D01*
X8841800Y-12049600D02*
X8731800Y-12159600D01*
X8786800Y-12049600D02*
X8786800Y-12159600D01*
X8731800Y-12104600D02*
X8841800Y-12104600D01*
X8981800Y-11049600D02*
X9091800Y-11159600D01*
X9091800Y-11049600D02*
X8981800Y-11159600D01*
X9036800Y-11049600D02*
X9036800Y-11159600D01*
X8981800Y-11104600D02*
X9091800Y-11104600D01*
X8981800Y-11349600D02*
X9091800Y-11459600D01*
X9091800Y-11349600D02*
X8981800Y-11459600D01*
X9036800Y-11349600D02*
X9036800Y-11459600D01*
X8981800Y-11404600D02*
X9091800Y-11404600D01*
X8981800Y-11649600D02*
X9091800Y-11759600D01*
X9091800Y-11649600D02*
X8981800Y-11759600D01*
X9036800Y-11649600D02*
X9036800Y-11759600D01*
X8981800Y-11704600D02*
X9091800Y-11704600D01*
X9231800Y-10649600D02*
X9341800Y-10759600D01*
X9341800Y-10649600D02*
X9231800Y-10759600D01*
X9286800Y-10649600D02*
X9286800Y-10759600D01*
X9231800Y-10704600D02*
X9341800Y-10704600D01*
X9231800Y-12049600D02*
X9341800Y-12159600D01*
X9341800Y-12049600D02*
X9231800Y-12159600D01*
X9286800Y-12049600D02*
X9286800Y-12159600D01*
X9231800Y-12104600D02*
X9341800Y-12104600D01*
X9475200Y-13791600D02*
X9585200Y-13901600D01*
X9585200Y-13791600D02*
X9475200Y-13901600D01*
X9530200Y-13791600D02*
X9530200Y-13901600D01*
X9475200Y-13846600D02*
X9585200Y-13846600D01*
X9475200Y-14241600D02*
X9585200Y-14351600D01*
X9585200Y-14241600D02*
X9475200Y-14351600D01*
X9530200Y-14241600D02*
X9530200Y-14351600D01*
X9475200Y-14296600D02*
X9585200Y-14296600D01*
X10125200Y-13791600D02*
X10235200Y-13901600D01*
X10235200Y-13791600D02*
X10125200Y-13901600D01*
X10180200Y-13791600D02*
X10180200Y-13901600D01*
X10125200Y-13846600D02*
X10235200Y-13846600D01*
X10125200Y-14241600D02*
X10235200Y-14351600D01*
X10235200Y-14241600D02*
X10125200Y-14351600D01*
X10180200Y-14241600D02*
X10180200Y-14351600D01*
X10125200Y-14296600D02*
X10235200Y-14296600D01*
D11*
X8855777Y-14830484D02*
X8855777Y-14630484D01*
X8855777Y-14630484D02*
X8903396Y-14630484D01*
X8903396Y-14630484D02*
X8931967Y-14640008D01*
X8931967Y-14640008D02*
X8951015Y-14659055D01*
X8951015Y-14659055D02*
X8960539Y-14678103D01*
X8960539Y-14678103D02*
X8970063Y-14716198D01*
X8970063Y-14716198D02*
X8970063Y-14744769D01*
X8970063Y-14744769D02*
X8960539Y-14782865D01*
X8960539Y-14782865D02*
X8951015Y-14801912D01*
X8951015Y-14801912D02*
X8931967Y-14820960D01*
X8931967Y-14820960D02*
X8903396Y-14830484D01*
X8903396Y-14830484D02*
X8855777Y-14830484D01*
X9055777Y-14830484D02*
X9055777Y-14697150D01*
X9055777Y-14735246D02*
X9065301Y-14716198D01*
X9065301Y-14716198D02*
X9074824Y-14706674D01*
X9074824Y-14706674D02*
X9093872Y-14697150D01*
X9093872Y-14697150D02*
X9112920Y-14697150D01*
X9179586Y-14830484D02*
X9179586Y-14697150D01*
X9179586Y-14630484D02*
X9170063Y-14640008D01*
X9170063Y-14640008D02*
X9179586Y-14649531D01*
X9179586Y-14649531D02*
X9189110Y-14640008D01*
X9189110Y-14640008D02*
X9179586Y-14630484D01*
X9179586Y-14630484D02*
X9179586Y-14649531D01*
X9303396Y-14830484D02*
X9284348Y-14820960D01*
X9284348Y-14820960D02*
X9274824Y-14801912D01*
X9274824Y-14801912D02*
X9274824Y-14630484D01*
X9408158Y-14830484D02*
X9389110Y-14820960D01*
X9389110Y-14820960D02*
X9379586Y-14801912D01*
X9379586Y-14801912D02*
X9379586Y-14630484D01*
X9636729Y-14830484D02*
X9636729Y-14630484D01*
X9636729Y-14630484D02*
X9703396Y-14773341D01*
X9703396Y-14773341D02*
X9770063Y-14630484D01*
X9770063Y-14630484D02*
X9770063Y-14830484D01*
X9951015Y-14830484D02*
X9951015Y-14725722D01*
X9951015Y-14725722D02*
X9941491Y-14706674D01*
X9941491Y-14706674D02*
X9922444Y-14697150D01*
X9922444Y-14697150D02*
X9884348Y-14697150D01*
X9884348Y-14697150D02*
X9865301Y-14706674D01*
X9951015Y-14820960D02*
X9931967Y-14830484D01*
X9931967Y-14830484D02*
X9884348Y-14830484D01*
X9884348Y-14830484D02*
X9865301Y-14820960D01*
X9865301Y-14820960D02*
X9855777Y-14801912D01*
X9855777Y-14801912D02*
X9855777Y-14782865D01*
X9855777Y-14782865D02*
X9865301Y-14763817D01*
X9865301Y-14763817D02*
X9884348Y-14754293D01*
X9884348Y-14754293D02*
X9931967Y-14754293D01*
X9931967Y-14754293D02*
X9951015Y-14744769D01*
X10046253Y-14697150D02*
X10046253Y-14897150D01*
X10046253Y-14706674D02*
X10065301Y-14697150D01*
X10065301Y-14697150D02*
X10103396Y-14697150D01*
X10103396Y-14697150D02*
X10122444Y-14706674D01*
X10122444Y-14706674D02*
X10131967Y-14716198D01*
X10131967Y-14716198D02*
X10141491Y-14735246D01*
X10141491Y-14735246D02*
X10141491Y-14792388D01*
X10141491Y-14792388D02*
X10131967Y-14811436D01*
X10131967Y-14811436D02*
X10122444Y-14820960D01*
X10122444Y-14820960D02*
X10103396Y-14830484D01*
X10103396Y-14830484D02*
X10065301Y-14830484D01*
X10065301Y-14830484D02*
X10046253Y-14820960D01*
X10227205Y-14811436D02*
X10236729Y-14820960D01*
X10236729Y-14820960D02*
X10227205Y-14830484D01*
X10227205Y-14830484D02*
X10217682Y-14820960D01*
X10217682Y-14820960D02*
X10227205Y-14811436D01*
X10227205Y-14811436D02*
X10227205Y-14830484D01*
X10227205Y-14706674D02*
X10236729Y-14716198D01*
X10236729Y-14716198D02*
X10227205Y-14725722D01*
X10227205Y-14725722D02*
X10217682Y-14716198D01*
X10217682Y-14716198D02*
X10227205Y-14706674D01*
X10227205Y-14706674D02*
X10227205Y-14725722D01*
D12*
X8555000Y-15139000D02*
X8595000Y-15179000D01*
X8595000Y-15139000D02*
X8555000Y-15179000D01*
D11*
X8893872Y-15050484D02*
X8912920Y-15050484D01*
X8912920Y-15050484D02*
X8931967Y-15060008D01*
X8931967Y-15060008D02*
X8941491Y-15069531D01*
X8941491Y-15069531D02*
X8951015Y-15088579D01*
X8951015Y-15088579D02*
X8960539Y-15126674D01*
X8960539Y-15126674D02*
X8960539Y-15174293D01*
X8960539Y-15174293D02*
X8951015Y-15212388D01*
X8951015Y-15212388D02*
X8941491Y-15231436D01*
X8941491Y-15231436D02*
X8931967Y-15240960D01*
X8931967Y-15240960D02*
X8912920Y-15250484D01*
X8912920Y-15250484D02*
X8893872Y-15250484D01*
X8893872Y-15250484D02*
X8874824Y-15240960D01*
X8874824Y-15240960D02*
X8865301Y-15231436D01*
X8865301Y-15231436D02*
X8855777Y-15212388D01*
X8855777Y-15212388D02*
X8846253Y-15174293D01*
X8846253Y-15174293D02*
X8846253Y-15126674D01*
X8846253Y-15126674D02*
X8855777Y-15088579D01*
X8855777Y-15088579D02*
X8865301Y-15069531D01*
X8865301Y-15069531D02*
X8874824Y-15060008D01*
X8874824Y-15060008D02*
X8893872Y-15050484D01*
X9046253Y-15231436D02*
X9055777Y-15240960D01*
X9055777Y-15240960D02*
X9046253Y-15250484D01*
X9046253Y-15250484D02*
X9036729Y-15240960D01*
X9036729Y-15240960D02*
X9046253Y-15231436D01*
X9046253Y-15231436D02*
X9046253Y-15250484D01*
X9227205Y-15117150D02*
X9227205Y-15250484D01*
X9179586Y-15040960D02*
X9131967Y-15183817D01*
X9131967Y-15183817D02*
X9255777Y-15183817D01*
X9370063Y-15050484D02*
X9389110Y-15050484D01*
X9389110Y-15050484D02*
X9408158Y-15060008D01*
X9408158Y-15060008D02*
X9417682Y-15069531D01*
X9417682Y-15069531D02*
X9427205Y-15088579D01*
X9427205Y-15088579D02*
X9436729Y-15126674D01*
X9436729Y-15126674D02*
X9436729Y-15174293D01*
X9436729Y-15174293D02*
X9427205Y-15212388D01*
X9427205Y-15212388D02*
X9417682Y-15231436D01*
X9417682Y-15231436D02*
X9408158Y-15240960D01*
X9408158Y-15240960D02*
X9389110Y-15250484D01*
X9389110Y-15250484D02*
X9370063Y-15250484D01*
X9370063Y-15250484D02*
X9351015Y-15240960D01*
X9351015Y-15240960D02*
X9341491Y-15231436D01*
X9341491Y-15231436D02*
X9331967Y-15212388D01*
X9331967Y-15212388D02*
X9322444Y-15174293D01*
X9322444Y-15174293D02*
X9322444Y-15126674D01*
X9322444Y-15126674D02*
X9331967Y-15088579D01*
X9331967Y-15088579D02*
X9341491Y-15069531D01*
X9341491Y-15069531D02*
X9351015Y-15060008D01*
X9351015Y-15060008D02*
X9370063Y-15050484D01*
X9560539Y-15050484D02*
X9579586Y-15050484D01*
X9579586Y-15050484D02*
X9598634Y-15060008D01*
X9598634Y-15060008D02*
X9608158Y-15069531D01*
X9608158Y-15069531D02*
X9617682Y-15088579D01*
X9617682Y-15088579D02*
X9627205Y-15126674D01*
X9627205Y-15126674D02*
X9627205Y-15174293D01*
X9627205Y-15174293D02*
X9617682Y-15212388D01*
X9617682Y-15212388D02*
X9608158Y-15231436D01*
X9608158Y-15231436D02*
X9598634Y-15240960D01*
X9598634Y-15240960D02*
X9579586Y-15250484D01*
X9579586Y-15250484D02*
X9560539Y-15250484D01*
X9560539Y-15250484D02*
X9541491Y-15240960D01*
X9541491Y-15240960D02*
X9531967Y-15231436D01*
X9531967Y-15231436D02*
X9522444Y-15212388D01*
X9522444Y-15212388D02*
X9512920Y-15174293D01*
X9512920Y-15174293D02*
X9512920Y-15126674D01*
X9512920Y-15126674D02*
X9522444Y-15088579D01*
X9522444Y-15088579D02*
X9531967Y-15069531D01*
X9531967Y-15069531D02*
X9541491Y-15060008D01*
X9541491Y-15060008D02*
X9560539Y-15050484D01*
X9712920Y-15250484D02*
X9712920Y-15117150D01*
X9712920Y-15136198D02*
X9722444Y-15126674D01*
X9722444Y-15126674D02*
X9741491Y-15117150D01*
X9741491Y-15117150D02*
X9770063Y-15117150D01*
X9770063Y-15117150D02*
X9789110Y-15126674D01*
X9789110Y-15126674D02*
X9798634Y-15145722D01*
X9798634Y-15145722D02*
X9798634Y-15250484D01*
X9798634Y-15145722D02*
X9808158Y-15126674D01*
X9808158Y-15126674D02*
X9827205Y-15117150D01*
X9827205Y-15117150D02*
X9855777Y-15117150D01*
X9855777Y-15117150D02*
X9874825Y-15126674D01*
X9874825Y-15126674D02*
X9884348Y-15145722D01*
X9884348Y-15145722D02*
X9884348Y-15250484D01*
X9979586Y-15250484D02*
X9979586Y-15117150D01*
X9979586Y-15136198D02*
X9989110Y-15126674D01*
X9989110Y-15126674D02*
X10008158Y-15117150D01*
X10008158Y-15117150D02*
X10036729Y-15117150D01*
X10036729Y-15117150D02*
X10055777Y-15126674D01*
X10055777Y-15126674D02*
X10065301Y-15145722D01*
X10065301Y-15145722D02*
X10065301Y-15250484D01*
X10065301Y-15145722D02*
X10074825Y-15126674D01*
X10074825Y-15126674D02*
X10093872Y-15117150D01*
X10093872Y-15117150D02*
X10122444Y-15117150D01*
X10122444Y-15117150D02*
X10141491Y-15126674D01*
X10141491Y-15126674D02*
X10151015Y-15145722D01*
X10151015Y-15145722D02*
X10151015Y-15250484D01*
X10541491Y-15040960D02*
X10370063Y-15298103D01*
X10798634Y-15050484D02*
X10817682Y-15050484D01*
X10817682Y-15050484D02*
X10836729Y-15060008D01*
X10836729Y-15060008D02*
X10846253Y-15069531D01*
X10846253Y-15069531D02*
X10855777Y-15088579D01*
X10855777Y-15088579D02*
X10865301Y-15126674D01*
X10865301Y-15126674D02*
X10865301Y-15174293D01*
X10865301Y-15174293D02*
X10855777Y-15212388D01*
X10855777Y-15212388D02*
X10846253Y-15231436D01*
X10846253Y-15231436D02*
X10836729Y-15240960D01*
X10836729Y-15240960D02*
X10817682Y-15250484D01*
X10817682Y-15250484D02*
X10798634Y-15250484D01*
X10798634Y-15250484D02*
X10779587Y-15240960D01*
X10779587Y-15240960D02*
X10770063Y-15231436D01*
X10770063Y-15231436D02*
X10760539Y-15212388D01*
X10760539Y-15212388D02*
X10751015Y-15174293D01*
X10751015Y-15174293D02*
X10751015Y-15126674D01*
X10751015Y-15126674D02*
X10760539Y-15088579D01*
X10760539Y-15088579D02*
X10770063Y-15069531D01*
X10770063Y-15069531D02*
X10779587Y-15060008D01*
X10779587Y-15060008D02*
X10798634Y-15050484D01*
X10951015Y-15231436D02*
X10960539Y-15240960D01*
X10960539Y-15240960D02*
X10951015Y-15250484D01*
X10951015Y-15250484D02*
X10941491Y-15240960D01*
X10941491Y-15240960D02*
X10951015Y-15231436D01*
X10951015Y-15231436D02*
X10951015Y-15250484D01*
X11084348Y-15050484D02*
X11103396Y-15050484D01*
X11103396Y-15050484D02*
X11122444Y-15060008D01*
X11122444Y-15060008D02*
X11131968Y-15069531D01*
X11131968Y-15069531D02*
X11141491Y-15088579D01*
X11141491Y-15088579D02*
X11151015Y-15126674D01*
X11151015Y-15126674D02*
X11151015Y-15174293D01*
X11151015Y-15174293D02*
X11141491Y-15212388D01*
X11141491Y-15212388D02*
X11131968Y-15231436D01*
X11131968Y-15231436D02*
X11122444Y-15240960D01*
X11122444Y-15240960D02*
X11103396Y-15250484D01*
X11103396Y-15250484D02*
X11084348Y-15250484D01*
X11084348Y-15250484D02*
X11065301Y-15240960D01*
X11065301Y-15240960D02*
X11055777Y-15231436D01*
X11055777Y-15231436D02*
X11046253Y-15212388D01*
X11046253Y-15212388D02*
X11036729Y-15174293D01*
X11036729Y-15174293D02*
X11036729Y-15126674D01*
X11036729Y-15126674D02*
X11046253Y-15088579D01*
X11046253Y-15088579D02*
X11055777Y-15069531D01*
X11055777Y-15069531D02*
X11065301Y-15060008D01*
X11065301Y-15060008D02*
X11084348Y-15050484D01*
X11341491Y-15250484D02*
X11227206Y-15250484D01*
X11284348Y-15250484D02*
X11284348Y-15050484D01*
X11284348Y-15050484D02*
X11265301Y-15079055D01*
X11265301Y-15079055D02*
X11246253Y-15098103D01*
X11246253Y-15098103D02*
X11227206Y-15107627D01*
X11522444Y-15050484D02*
X11427206Y-15050484D01*
X11427206Y-15050484D02*
X11417682Y-15145722D01*
X11417682Y-15145722D02*
X11427206Y-15136198D01*
X11427206Y-15136198D02*
X11446253Y-15126674D01*
X11446253Y-15126674D02*
X11493872Y-15126674D01*
X11493872Y-15126674D02*
X11512920Y-15136198D01*
X11512920Y-15136198D02*
X11522444Y-15145722D01*
X11522444Y-15145722D02*
X11531967Y-15164769D01*
X11531967Y-15164769D02*
X11531967Y-15212388D01*
X11531967Y-15212388D02*
X11522444Y-15231436D01*
X11522444Y-15231436D02*
X11512920Y-15240960D01*
X11512920Y-15240960D02*
X11493872Y-15250484D01*
X11493872Y-15250484D02*
X11446253Y-15250484D01*
X11446253Y-15250484D02*
X11427206Y-15240960D01*
X11427206Y-15240960D02*
X11417682Y-15231436D01*
X11598634Y-15050484D02*
X11731967Y-15050484D01*
X11731967Y-15050484D02*
X11646253Y-15250484D01*
X11798634Y-15050484D02*
X11798634Y-15088579D01*
X11874825Y-15050484D02*
X11874825Y-15088579D01*
X12170063Y-15326674D02*
X12160539Y-15317150D01*
X12160539Y-15317150D02*
X12141491Y-15288579D01*
X12141491Y-15288579D02*
X12131968Y-15269531D01*
X12131968Y-15269531D02*
X12122444Y-15240960D01*
X12122444Y-15240960D02*
X12112920Y-15193341D01*
X12112920Y-15193341D02*
X12112920Y-15155246D01*
X12112920Y-15155246D02*
X12122444Y-15107627D01*
X12122444Y-15107627D02*
X12131968Y-15079055D01*
X12131968Y-15079055D02*
X12141491Y-15060008D01*
X12141491Y-15060008D02*
X12160539Y-15031436D01*
X12160539Y-15031436D02*
X12170063Y-15021912D01*
X12227206Y-15050484D02*
X12351015Y-15050484D01*
X12351015Y-15050484D02*
X12284348Y-15126674D01*
X12284348Y-15126674D02*
X12312920Y-15126674D01*
X12312920Y-15126674D02*
X12331968Y-15136198D01*
X12331968Y-15136198D02*
X12341491Y-15145722D01*
X12341491Y-15145722D02*
X12351015Y-15164769D01*
X12351015Y-15164769D02*
X12351015Y-15212388D01*
X12351015Y-15212388D02*
X12341491Y-15231436D01*
X12341491Y-15231436D02*
X12331968Y-15240960D01*
X12331968Y-15240960D02*
X12312920Y-15250484D01*
X12312920Y-15250484D02*
X12255777Y-15250484D01*
X12255777Y-15250484D02*
X12236729Y-15240960D01*
X12236729Y-15240960D02*
X12227206Y-15231436D01*
X12417682Y-15050484D02*
X12541491Y-15050484D01*
X12541491Y-15050484D02*
X12474825Y-15126674D01*
X12474825Y-15126674D02*
X12503396Y-15126674D01*
X12503396Y-15126674D02*
X12522444Y-15136198D01*
X12522444Y-15136198D02*
X12531968Y-15145722D01*
X12531968Y-15145722D02*
X12541491Y-15164769D01*
X12541491Y-15164769D02*
X12541491Y-15212388D01*
X12541491Y-15212388D02*
X12531968Y-15231436D01*
X12531968Y-15231436D02*
X12522444Y-15240960D01*
X12522444Y-15240960D02*
X12503396Y-15250484D01*
X12503396Y-15250484D02*
X12446253Y-15250484D01*
X12446253Y-15250484D02*
X12427206Y-15240960D01*
X12427206Y-15240960D02*
X12417682Y-15231436D01*
X12779587Y-15250484D02*
X12779587Y-15050484D01*
X12865301Y-15250484D02*
X12865301Y-15145722D01*
X12865301Y-15145722D02*
X12855777Y-15126674D01*
X12855777Y-15126674D02*
X12836730Y-15117150D01*
X12836730Y-15117150D02*
X12808158Y-15117150D01*
X12808158Y-15117150D02*
X12789110Y-15126674D01*
X12789110Y-15126674D02*
X12779587Y-15136198D01*
X12989110Y-15250484D02*
X12970063Y-15240960D01*
X12970063Y-15240960D02*
X12960539Y-15231436D01*
X12960539Y-15231436D02*
X12951015Y-15212388D01*
X12951015Y-15212388D02*
X12951015Y-15155246D01*
X12951015Y-15155246D02*
X12960539Y-15136198D01*
X12960539Y-15136198D02*
X12970063Y-15126674D01*
X12970063Y-15126674D02*
X12989110Y-15117150D01*
X12989110Y-15117150D02*
X13017682Y-15117150D01*
X13017682Y-15117150D02*
X13036730Y-15126674D01*
X13036730Y-15126674D02*
X13046253Y-15136198D01*
X13046253Y-15136198D02*
X13055777Y-15155246D01*
X13055777Y-15155246D02*
X13055777Y-15212388D01*
X13055777Y-15212388D02*
X13046253Y-15231436D01*
X13046253Y-15231436D02*
X13036730Y-15240960D01*
X13036730Y-15240960D02*
X13017682Y-15250484D01*
X13017682Y-15250484D02*
X12989110Y-15250484D01*
X13170063Y-15250484D02*
X13151015Y-15240960D01*
X13151015Y-15240960D02*
X13141491Y-15221912D01*
X13141491Y-15221912D02*
X13141491Y-15050484D01*
X13322444Y-15240960D02*
X13303396Y-15250484D01*
X13303396Y-15250484D02*
X13265301Y-15250484D01*
X13265301Y-15250484D02*
X13246253Y-15240960D01*
X13246253Y-15240960D02*
X13236730Y-15221912D01*
X13236730Y-15221912D02*
X13236730Y-15145722D01*
X13236730Y-15145722D02*
X13246253Y-15126674D01*
X13246253Y-15126674D02*
X13265301Y-15117150D01*
X13265301Y-15117150D02*
X13303396Y-15117150D01*
X13303396Y-15117150D02*
X13322444Y-15126674D01*
X13322444Y-15126674D02*
X13331968Y-15145722D01*
X13331968Y-15145722D02*
X13331968Y-15164769D01*
X13331968Y-15164769D02*
X13236730Y-15183817D01*
X13408158Y-15240960D02*
X13427206Y-15250484D01*
X13427206Y-15250484D02*
X13465301Y-15250484D01*
X13465301Y-15250484D02*
X13484349Y-15240960D01*
X13484349Y-15240960D02*
X13493872Y-15221912D01*
X13493872Y-15221912D02*
X13493872Y-15212388D01*
X13493872Y-15212388D02*
X13484349Y-15193341D01*
X13484349Y-15193341D02*
X13465301Y-15183817D01*
X13465301Y-15183817D02*
X13436730Y-15183817D01*
X13436730Y-15183817D02*
X13417682Y-15174293D01*
X13417682Y-15174293D02*
X13408158Y-15155246D01*
X13408158Y-15155246D02*
X13408158Y-15145722D01*
X13408158Y-15145722D02*
X13417682Y-15126674D01*
X13417682Y-15126674D02*
X13436730Y-15117150D01*
X13436730Y-15117150D02*
X13465301Y-15117150D01*
X13465301Y-15117150D02*
X13484349Y-15126674D01*
X13560539Y-15326674D02*
X13570063Y-15317150D01*
X13570063Y-15317150D02*
X13589111Y-15288579D01*
X13589111Y-15288579D02*
X13598634Y-15269531D01*
X13598634Y-15269531D02*
X13608158Y-15240960D01*
X13608158Y-15240960D02*
X13617682Y-15193341D01*
X13617682Y-15193341D02*
X13617682Y-15155246D01*
X13617682Y-15155246D02*
X13608158Y-15107627D01*
X13608158Y-15107627D02*
X13598634Y-15079055D01*
X13598634Y-15079055D02*
X13589111Y-15060008D01*
X13589111Y-15060008D02*
X13570063Y-15031436D01*
X13570063Y-15031436D02*
X13560539Y-15021912D01*
D13*
X8595000Y-15423000D02*
G75*
G03*
X8595000Y-15423000I-35000J0D01*
G01*
D11*
X8893872Y-15314484D02*
X8912920Y-15314484D01*
X8912920Y-15314484D02*
X8931967Y-15324008D01*
X8931967Y-15324008D02*
X8941491Y-15333531D01*
X8941491Y-15333531D02*
X8951015Y-15352579D01*
X8951015Y-15352579D02*
X8960539Y-15390674D01*
X8960539Y-15390674D02*
X8960539Y-15438293D01*
X8960539Y-15438293D02*
X8951015Y-15476388D01*
X8951015Y-15476388D02*
X8941491Y-15495436D01*
X8941491Y-15495436D02*
X8931967Y-15504960D01*
X8931967Y-15504960D02*
X8912920Y-15514484D01*
X8912920Y-15514484D02*
X8893872Y-15514484D01*
X8893872Y-15514484D02*
X8874824Y-15504960D01*
X8874824Y-15504960D02*
X8865301Y-15495436D01*
X8865301Y-15495436D02*
X8855777Y-15476388D01*
X8855777Y-15476388D02*
X8846253Y-15438293D01*
X8846253Y-15438293D02*
X8846253Y-15390674D01*
X8846253Y-15390674D02*
X8855777Y-15352579D01*
X8855777Y-15352579D02*
X8865301Y-15333531D01*
X8865301Y-15333531D02*
X8874824Y-15324008D01*
X8874824Y-15324008D02*
X8893872Y-15314484D01*
X9046253Y-15495436D02*
X9055777Y-15504960D01*
X9055777Y-15504960D02*
X9046253Y-15514484D01*
X9046253Y-15514484D02*
X9036729Y-15504960D01*
X9036729Y-15504960D02*
X9046253Y-15495436D01*
X9046253Y-15495436D02*
X9046253Y-15514484D01*
X9122444Y-15314484D02*
X9255777Y-15314484D01*
X9255777Y-15314484D02*
X9170063Y-15514484D01*
X9370063Y-15314484D02*
X9389110Y-15314484D01*
X9389110Y-15314484D02*
X9408158Y-15324008D01*
X9408158Y-15324008D02*
X9417682Y-15333531D01*
X9417682Y-15333531D02*
X9427205Y-15352579D01*
X9427205Y-15352579D02*
X9436729Y-15390674D01*
X9436729Y-15390674D02*
X9436729Y-15438293D01*
X9436729Y-15438293D02*
X9427205Y-15476388D01*
X9427205Y-15476388D02*
X9417682Y-15495436D01*
X9417682Y-15495436D02*
X9408158Y-15504960D01*
X9408158Y-15504960D02*
X9389110Y-15514484D01*
X9389110Y-15514484D02*
X9370063Y-15514484D01*
X9370063Y-15514484D02*
X9351015Y-15504960D01*
X9351015Y-15504960D02*
X9341491Y-15495436D01*
X9341491Y-15495436D02*
X9331967Y-15476388D01*
X9331967Y-15476388D02*
X9322444Y-15438293D01*
X9322444Y-15438293D02*
X9322444Y-15390674D01*
X9322444Y-15390674D02*
X9331967Y-15352579D01*
X9331967Y-15352579D02*
X9341491Y-15333531D01*
X9341491Y-15333531D02*
X9351015Y-15324008D01*
X9351015Y-15324008D02*
X9370063Y-15314484D01*
X9560539Y-15314484D02*
X9579586Y-15314484D01*
X9579586Y-15314484D02*
X9598634Y-15324008D01*
X9598634Y-15324008D02*
X9608158Y-15333531D01*
X9608158Y-15333531D02*
X9617682Y-15352579D01*
X9617682Y-15352579D02*
X9627205Y-15390674D01*
X9627205Y-15390674D02*
X9627205Y-15438293D01*
X9627205Y-15438293D02*
X9617682Y-15476388D01*
X9617682Y-15476388D02*
X9608158Y-15495436D01*
X9608158Y-15495436D02*
X9598634Y-15504960D01*
X9598634Y-15504960D02*
X9579586Y-15514484D01*
X9579586Y-15514484D02*
X9560539Y-15514484D01*
X9560539Y-15514484D02*
X9541491Y-15504960D01*
X9541491Y-15504960D02*
X9531967Y-15495436D01*
X9531967Y-15495436D02*
X9522444Y-15476388D01*
X9522444Y-15476388D02*
X9512920Y-15438293D01*
X9512920Y-15438293D02*
X9512920Y-15390674D01*
X9512920Y-15390674D02*
X9522444Y-15352579D01*
X9522444Y-15352579D02*
X9531967Y-15333531D01*
X9531967Y-15333531D02*
X9541491Y-15324008D01*
X9541491Y-15324008D02*
X9560539Y-15314484D01*
X9712920Y-15514484D02*
X9712920Y-15381150D01*
X9712920Y-15400198D02*
X9722444Y-15390674D01*
X9722444Y-15390674D02*
X9741491Y-15381150D01*
X9741491Y-15381150D02*
X9770063Y-15381150D01*
X9770063Y-15381150D02*
X9789110Y-15390674D01*
X9789110Y-15390674D02*
X9798634Y-15409722D01*
X9798634Y-15409722D02*
X9798634Y-15514484D01*
X9798634Y-15409722D02*
X9808158Y-15390674D01*
X9808158Y-15390674D02*
X9827205Y-15381150D01*
X9827205Y-15381150D02*
X9855777Y-15381150D01*
X9855777Y-15381150D02*
X9874825Y-15390674D01*
X9874825Y-15390674D02*
X9884348Y-15409722D01*
X9884348Y-15409722D02*
X9884348Y-15514484D01*
X9979586Y-15514484D02*
X9979586Y-15381150D01*
X9979586Y-15400198D02*
X9989110Y-15390674D01*
X9989110Y-15390674D02*
X10008158Y-15381150D01*
X10008158Y-15381150D02*
X10036729Y-15381150D01*
X10036729Y-15381150D02*
X10055777Y-15390674D01*
X10055777Y-15390674D02*
X10065301Y-15409722D01*
X10065301Y-15409722D02*
X10065301Y-15514484D01*
X10065301Y-15409722D02*
X10074825Y-15390674D01*
X10074825Y-15390674D02*
X10093872Y-15381150D01*
X10093872Y-15381150D02*
X10122444Y-15381150D01*
X10122444Y-15381150D02*
X10141491Y-15390674D01*
X10141491Y-15390674D02*
X10151015Y-15409722D01*
X10151015Y-15409722D02*
X10151015Y-15514484D01*
X10541491Y-15304960D02*
X10370063Y-15562103D01*
X10798634Y-15314484D02*
X10817682Y-15314484D01*
X10817682Y-15314484D02*
X10836729Y-15324008D01*
X10836729Y-15324008D02*
X10846253Y-15333531D01*
X10846253Y-15333531D02*
X10855777Y-15352579D01*
X10855777Y-15352579D02*
X10865301Y-15390674D01*
X10865301Y-15390674D02*
X10865301Y-15438293D01*
X10865301Y-15438293D02*
X10855777Y-15476388D01*
X10855777Y-15476388D02*
X10846253Y-15495436D01*
X10846253Y-15495436D02*
X10836729Y-15504960D01*
X10836729Y-15504960D02*
X10817682Y-15514484D01*
X10817682Y-15514484D02*
X10798634Y-15514484D01*
X10798634Y-15514484D02*
X10779587Y-15504960D01*
X10779587Y-15504960D02*
X10770063Y-15495436D01*
X10770063Y-15495436D02*
X10760539Y-15476388D01*
X10760539Y-15476388D02*
X10751015Y-15438293D01*
X10751015Y-15438293D02*
X10751015Y-15390674D01*
X10751015Y-15390674D02*
X10760539Y-15352579D01*
X10760539Y-15352579D02*
X10770063Y-15333531D01*
X10770063Y-15333531D02*
X10779587Y-15324008D01*
X10779587Y-15324008D02*
X10798634Y-15314484D01*
X10951015Y-15495436D02*
X10960539Y-15504960D01*
X10960539Y-15504960D02*
X10951015Y-15514484D01*
X10951015Y-15514484D02*
X10941491Y-15504960D01*
X10941491Y-15504960D02*
X10951015Y-15495436D01*
X10951015Y-15495436D02*
X10951015Y-15514484D01*
X11084348Y-15314484D02*
X11103396Y-15314484D01*
X11103396Y-15314484D02*
X11122444Y-15324008D01*
X11122444Y-15324008D02*
X11131968Y-15333531D01*
X11131968Y-15333531D02*
X11141491Y-15352579D01*
X11141491Y-15352579D02*
X11151015Y-15390674D01*
X11151015Y-15390674D02*
X11151015Y-15438293D01*
X11151015Y-15438293D02*
X11141491Y-15476388D01*
X11141491Y-15476388D02*
X11131968Y-15495436D01*
X11131968Y-15495436D02*
X11122444Y-15504960D01*
X11122444Y-15504960D02*
X11103396Y-15514484D01*
X11103396Y-15514484D02*
X11084348Y-15514484D01*
X11084348Y-15514484D02*
X11065301Y-15504960D01*
X11065301Y-15504960D02*
X11055777Y-15495436D01*
X11055777Y-15495436D02*
X11046253Y-15476388D01*
X11046253Y-15476388D02*
X11036729Y-15438293D01*
X11036729Y-15438293D02*
X11036729Y-15390674D01*
X11036729Y-15390674D02*
X11046253Y-15352579D01*
X11046253Y-15352579D02*
X11055777Y-15333531D01*
X11055777Y-15333531D02*
X11065301Y-15324008D01*
X11065301Y-15324008D02*
X11084348Y-15314484D01*
X11227206Y-15333531D02*
X11236729Y-15324008D01*
X11236729Y-15324008D02*
X11255777Y-15314484D01*
X11255777Y-15314484D02*
X11303396Y-15314484D01*
X11303396Y-15314484D02*
X11322444Y-15324008D01*
X11322444Y-15324008D02*
X11331967Y-15333531D01*
X11331967Y-15333531D02*
X11341491Y-15352579D01*
X11341491Y-15352579D02*
X11341491Y-15371627D01*
X11341491Y-15371627D02*
X11331967Y-15400198D01*
X11331967Y-15400198D02*
X11217682Y-15514484D01*
X11217682Y-15514484D02*
X11341491Y-15514484D01*
X11408158Y-15314484D02*
X11541491Y-15314484D01*
X11541491Y-15314484D02*
X11455777Y-15514484D01*
X11703396Y-15314484D02*
X11665301Y-15314484D01*
X11665301Y-15314484D02*
X11646253Y-15324008D01*
X11646253Y-15324008D02*
X11636729Y-15333531D01*
X11636729Y-15333531D02*
X11617682Y-15362103D01*
X11617682Y-15362103D02*
X11608158Y-15400198D01*
X11608158Y-15400198D02*
X11608158Y-15476388D01*
X11608158Y-15476388D02*
X11617682Y-15495436D01*
X11617682Y-15495436D02*
X11627206Y-15504960D01*
X11627206Y-15504960D02*
X11646253Y-15514484D01*
X11646253Y-15514484D02*
X11684348Y-15514484D01*
X11684348Y-15514484D02*
X11703396Y-15504960D01*
X11703396Y-15504960D02*
X11712920Y-15495436D01*
X11712920Y-15495436D02*
X11722444Y-15476388D01*
X11722444Y-15476388D02*
X11722444Y-15428769D01*
X11722444Y-15428769D02*
X11712920Y-15409722D01*
X11712920Y-15409722D02*
X11703396Y-15400198D01*
X11703396Y-15400198D02*
X11684348Y-15390674D01*
X11684348Y-15390674D02*
X11646253Y-15390674D01*
X11646253Y-15390674D02*
X11627206Y-15400198D01*
X11627206Y-15400198D02*
X11617682Y-15409722D01*
X11617682Y-15409722D02*
X11608158Y-15428769D01*
X11798634Y-15314484D02*
X11798634Y-15352579D01*
X11874825Y-15314484D02*
X11874825Y-15352579D01*
X12170063Y-15590674D02*
X12160539Y-15581150D01*
X12160539Y-15581150D02*
X12141491Y-15552579D01*
X12141491Y-15552579D02*
X12131968Y-15533531D01*
X12131968Y-15533531D02*
X12122444Y-15504960D01*
X12122444Y-15504960D02*
X12112920Y-15457341D01*
X12112920Y-15457341D02*
X12112920Y-15419246D01*
X12112920Y-15419246D02*
X12122444Y-15371627D01*
X12122444Y-15371627D02*
X12131968Y-15343055D01*
X12131968Y-15343055D02*
X12141491Y-15324008D01*
X12141491Y-15324008D02*
X12160539Y-15295436D01*
X12160539Y-15295436D02*
X12170063Y-15285912D01*
X12351015Y-15514484D02*
X12236729Y-15514484D01*
X12293872Y-15514484D02*
X12293872Y-15314484D01*
X12293872Y-15314484D02*
X12274825Y-15343055D01*
X12274825Y-15343055D02*
X12255777Y-15362103D01*
X12255777Y-15362103D02*
X12236729Y-15371627D01*
X12474825Y-15314484D02*
X12493872Y-15314484D01*
X12493872Y-15314484D02*
X12512920Y-15324008D01*
X12512920Y-15324008D02*
X12522444Y-15333531D01*
X12522444Y-15333531D02*
X12531968Y-15352579D01*
X12531968Y-15352579D02*
X12541491Y-15390674D01*
X12541491Y-15390674D02*
X12541491Y-15438293D01*
X12541491Y-15438293D02*
X12531968Y-15476388D01*
X12531968Y-15476388D02*
X12522444Y-15495436D01*
X12522444Y-15495436D02*
X12512920Y-15504960D01*
X12512920Y-15504960D02*
X12493872Y-15514484D01*
X12493872Y-15514484D02*
X12474825Y-15514484D01*
X12474825Y-15514484D02*
X12455777Y-15504960D01*
X12455777Y-15504960D02*
X12446253Y-15495436D01*
X12446253Y-15495436D02*
X12436729Y-15476388D01*
X12436729Y-15476388D02*
X12427206Y-15438293D01*
X12427206Y-15438293D02*
X12427206Y-15390674D01*
X12427206Y-15390674D02*
X12436729Y-15352579D01*
X12436729Y-15352579D02*
X12446253Y-15333531D01*
X12446253Y-15333531D02*
X12455777Y-15324008D01*
X12455777Y-15324008D02*
X12474825Y-15314484D01*
X12779587Y-15514484D02*
X12779587Y-15314484D01*
X12865301Y-15514484D02*
X12865301Y-15409722D01*
X12865301Y-15409722D02*
X12855777Y-15390674D01*
X12855777Y-15390674D02*
X12836730Y-15381150D01*
X12836730Y-15381150D02*
X12808158Y-15381150D01*
X12808158Y-15381150D02*
X12789110Y-15390674D01*
X12789110Y-15390674D02*
X12779587Y-15400198D01*
X12989110Y-15514484D02*
X12970063Y-15504960D01*
X12970063Y-15504960D02*
X12960539Y-15495436D01*
X12960539Y-15495436D02*
X12951015Y-15476388D01*
X12951015Y-15476388D02*
X12951015Y-15419246D01*
X12951015Y-15419246D02*
X12960539Y-15400198D01*
X12960539Y-15400198D02*
X12970063Y-15390674D01*
X12970063Y-15390674D02*
X12989110Y-15381150D01*
X12989110Y-15381150D02*
X13017682Y-15381150D01*
X13017682Y-15381150D02*
X13036730Y-15390674D01*
X13036730Y-15390674D02*
X13046253Y-15400198D01*
X13046253Y-15400198D02*
X13055777Y-15419246D01*
X13055777Y-15419246D02*
X13055777Y-15476388D01*
X13055777Y-15476388D02*
X13046253Y-15495436D01*
X13046253Y-15495436D02*
X13036730Y-15504960D01*
X13036730Y-15504960D02*
X13017682Y-15514484D01*
X13017682Y-15514484D02*
X12989110Y-15514484D01*
X13170063Y-15514484D02*
X13151015Y-15504960D01*
X13151015Y-15504960D02*
X13141491Y-15485912D01*
X13141491Y-15485912D02*
X13141491Y-15314484D01*
X13322444Y-15504960D02*
X13303396Y-15514484D01*
X13303396Y-15514484D02*
X13265301Y-15514484D01*
X13265301Y-15514484D02*
X13246253Y-15504960D01*
X13246253Y-15504960D02*
X13236730Y-15485912D01*
X13236730Y-15485912D02*
X13236730Y-15409722D01*
X13236730Y-15409722D02*
X13246253Y-15390674D01*
X13246253Y-15390674D02*
X13265301Y-15381150D01*
X13265301Y-15381150D02*
X13303396Y-15381150D01*
X13303396Y-15381150D02*
X13322444Y-15390674D01*
X13322444Y-15390674D02*
X13331968Y-15409722D01*
X13331968Y-15409722D02*
X13331968Y-15428769D01*
X13331968Y-15428769D02*
X13236730Y-15447817D01*
X13408158Y-15504960D02*
X13427206Y-15514484D01*
X13427206Y-15514484D02*
X13465301Y-15514484D01*
X13465301Y-15514484D02*
X13484349Y-15504960D01*
X13484349Y-15504960D02*
X13493872Y-15485912D01*
X13493872Y-15485912D02*
X13493872Y-15476388D01*
X13493872Y-15476388D02*
X13484349Y-15457341D01*
X13484349Y-15457341D02*
X13465301Y-15447817D01*
X13465301Y-15447817D02*
X13436730Y-15447817D01*
X13436730Y-15447817D02*
X13417682Y-15438293D01*
X13417682Y-15438293D02*
X13408158Y-15419246D01*
X13408158Y-15419246D02*
X13408158Y-15409722D01*
X13408158Y-15409722D02*
X13417682Y-15390674D01*
X13417682Y-15390674D02*
X13436730Y-15381150D01*
X13436730Y-15381150D02*
X13465301Y-15381150D01*
X13465301Y-15381150D02*
X13484349Y-15390674D01*
X13560539Y-15590674D02*
X13570063Y-15581150D01*
X13570063Y-15581150D02*
X13589111Y-15552579D01*
X13589111Y-15552579D02*
X13598634Y-15533531D01*
X13598634Y-15533531D02*
X13608158Y-15504960D01*
X13608158Y-15504960D02*
X13617682Y-15457341D01*
X13617682Y-15457341D02*
X13617682Y-15419246D01*
X13617682Y-15419246D02*
X13608158Y-15371627D01*
X13608158Y-15371627D02*
X13598634Y-15343055D01*
X13598634Y-15343055D02*
X13589111Y-15324008D01*
X13589111Y-15324008D02*
X13570063Y-15295436D01*
X13570063Y-15295436D02*
X13560539Y-15285912D01*
D14*
X8557500Y-15649500D02*
X8557500Y-15724500D01*
X8520000Y-15687000D02*
X8595000Y-15687000D01*
D11*
X8893872Y-15578484D02*
X8912920Y-15578484D01*
X8912920Y-15578484D02*
X8931967Y-15588008D01*
X8931967Y-15588008D02*
X8941491Y-15597531D01*
X8941491Y-15597531D02*
X8951015Y-15616579D01*
X8951015Y-15616579D02*
X8960539Y-15654674D01*
X8960539Y-15654674D02*
X8960539Y-15702293D01*
X8960539Y-15702293D02*
X8951015Y-15740388D01*
X8951015Y-15740388D02*
X8941491Y-15759436D01*
X8941491Y-15759436D02*
X8931967Y-15768960D01*
X8931967Y-15768960D02*
X8912920Y-15778484D01*
X8912920Y-15778484D02*
X8893872Y-15778484D01*
X8893872Y-15778484D02*
X8874824Y-15768960D01*
X8874824Y-15768960D02*
X8865301Y-15759436D01*
X8865301Y-15759436D02*
X8855777Y-15740388D01*
X8855777Y-15740388D02*
X8846253Y-15702293D01*
X8846253Y-15702293D02*
X8846253Y-15654674D01*
X8846253Y-15654674D02*
X8855777Y-15616579D01*
X8855777Y-15616579D02*
X8865301Y-15597531D01*
X8865301Y-15597531D02*
X8874824Y-15588008D01*
X8874824Y-15588008D02*
X8893872Y-15578484D01*
X9046253Y-15759436D02*
X9055777Y-15768960D01*
X9055777Y-15768960D02*
X9046253Y-15778484D01*
X9046253Y-15778484D02*
X9036729Y-15768960D01*
X9036729Y-15768960D02*
X9046253Y-15759436D01*
X9046253Y-15759436D02*
X9046253Y-15778484D01*
X9122444Y-15578484D02*
X9255777Y-15578484D01*
X9255777Y-15578484D02*
X9170063Y-15778484D01*
X9427205Y-15578484D02*
X9331967Y-15578484D01*
X9331967Y-15578484D02*
X9322444Y-15673722D01*
X9322444Y-15673722D02*
X9331967Y-15664198D01*
X9331967Y-15664198D02*
X9351015Y-15654674D01*
X9351015Y-15654674D02*
X9398634Y-15654674D01*
X9398634Y-15654674D02*
X9417682Y-15664198D01*
X9417682Y-15664198D02*
X9427205Y-15673722D01*
X9427205Y-15673722D02*
X9436729Y-15692769D01*
X9436729Y-15692769D02*
X9436729Y-15740388D01*
X9436729Y-15740388D02*
X9427205Y-15759436D01*
X9427205Y-15759436D02*
X9417682Y-15768960D01*
X9417682Y-15768960D02*
X9398634Y-15778484D01*
X9398634Y-15778484D02*
X9351015Y-15778484D01*
X9351015Y-15778484D02*
X9331967Y-15768960D01*
X9331967Y-15768960D02*
X9322444Y-15759436D01*
X9560539Y-15578484D02*
X9579586Y-15578484D01*
X9579586Y-15578484D02*
X9598634Y-15588008D01*
X9598634Y-15588008D02*
X9608158Y-15597531D01*
X9608158Y-15597531D02*
X9617682Y-15616579D01*
X9617682Y-15616579D02*
X9627205Y-15654674D01*
X9627205Y-15654674D02*
X9627205Y-15702293D01*
X9627205Y-15702293D02*
X9617682Y-15740388D01*
X9617682Y-15740388D02*
X9608158Y-15759436D01*
X9608158Y-15759436D02*
X9598634Y-15768960D01*
X9598634Y-15768960D02*
X9579586Y-15778484D01*
X9579586Y-15778484D02*
X9560539Y-15778484D01*
X9560539Y-15778484D02*
X9541491Y-15768960D01*
X9541491Y-15768960D02*
X9531967Y-15759436D01*
X9531967Y-15759436D02*
X9522444Y-15740388D01*
X9522444Y-15740388D02*
X9512920Y-15702293D01*
X9512920Y-15702293D02*
X9512920Y-15654674D01*
X9512920Y-15654674D02*
X9522444Y-15616579D01*
X9522444Y-15616579D02*
X9531967Y-15597531D01*
X9531967Y-15597531D02*
X9541491Y-15588008D01*
X9541491Y-15588008D02*
X9560539Y-15578484D01*
X9712920Y-15778484D02*
X9712920Y-15645150D01*
X9712920Y-15664198D02*
X9722444Y-15654674D01*
X9722444Y-15654674D02*
X9741491Y-15645150D01*
X9741491Y-15645150D02*
X9770063Y-15645150D01*
X9770063Y-15645150D02*
X9789110Y-15654674D01*
X9789110Y-15654674D02*
X9798634Y-15673722D01*
X9798634Y-15673722D02*
X9798634Y-15778484D01*
X9798634Y-15673722D02*
X9808158Y-15654674D01*
X9808158Y-15654674D02*
X9827205Y-15645150D01*
X9827205Y-15645150D02*
X9855777Y-15645150D01*
X9855777Y-15645150D02*
X9874825Y-15654674D01*
X9874825Y-15654674D02*
X9884348Y-15673722D01*
X9884348Y-15673722D02*
X9884348Y-15778484D01*
X9979586Y-15778484D02*
X9979586Y-15645150D01*
X9979586Y-15664198D02*
X9989110Y-15654674D01*
X9989110Y-15654674D02*
X10008158Y-15645150D01*
X10008158Y-15645150D02*
X10036729Y-15645150D01*
X10036729Y-15645150D02*
X10055777Y-15654674D01*
X10055777Y-15654674D02*
X10065301Y-15673722D01*
X10065301Y-15673722D02*
X10065301Y-15778484D01*
X10065301Y-15673722D02*
X10074825Y-15654674D01*
X10074825Y-15654674D02*
X10093872Y-15645150D01*
X10093872Y-15645150D02*
X10122444Y-15645150D01*
X10122444Y-15645150D02*
X10141491Y-15654674D01*
X10141491Y-15654674D02*
X10151015Y-15673722D01*
X10151015Y-15673722D02*
X10151015Y-15778484D01*
X10541491Y-15568960D02*
X10370063Y-15826103D01*
X10798634Y-15578484D02*
X10817682Y-15578484D01*
X10817682Y-15578484D02*
X10836729Y-15588008D01*
X10836729Y-15588008D02*
X10846253Y-15597531D01*
X10846253Y-15597531D02*
X10855777Y-15616579D01*
X10855777Y-15616579D02*
X10865301Y-15654674D01*
X10865301Y-15654674D02*
X10865301Y-15702293D01*
X10865301Y-15702293D02*
X10855777Y-15740388D01*
X10855777Y-15740388D02*
X10846253Y-15759436D01*
X10846253Y-15759436D02*
X10836729Y-15768960D01*
X10836729Y-15768960D02*
X10817682Y-15778484D01*
X10817682Y-15778484D02*
X10798634Y-15778484D01*
X10798634Y-15778484D02*
X10779587Y-15768960D01*
X10779587Y-15768960D02*
X10770063Y-15759436D01*
X10770063Y-15759436D02*
X10760539Y-15740388D01*
X10760539Y-15740388D02*
X10751015Y-15702293D01*
X10751015Y-15702293D02*
X10751015Y-15654674D01*
X10751015Y-15654674D02*
X10760539Y-15616579D01*
X10760539Y-15616579D02*
X10770063Y-15597531D01*
X10770063Y-15597531D02*
X10779587Y-15588008D01*
X10779587Y-15588008D02*
X10798634Y-15578484D01*
X10951015Y-15759436D02*
X10960539Y-15768960D01*
X10960539Y-15768960D02*
X10951015Y-15778484D01*
X10951015Y-15778484D02*
X10941491Y-15768960D01*
X10941491Y-15768960D02*
X10951015Y-15759436D01*
X10951015Y-15759436D02*
X10951015Y-15778484D01*
X11084348Y-15578484D02*
X11103396Y-15578484D01*
X11103396Y-15578484D02*
X11122444Y-15588008D01*
X11122444Y-15588008D02*
X11131968Y-15597531D01*
X11131968Y-15597531D02*
X11141491Y-15616579D01*
X11141491Y-15616579D02*
X11151015Y-15654674D01*
X11151015Y-15654674D02*
X11151015Y-15702293D01*
X11151015Y-15702293D02*
X11141491Y-15740388D01*
X11141491Y-15740388D02*
X11131968Y-15759436D01*
X11131968Y-15759436D02*
X11122444Y-15768960D01*
X11122444Y-15768960D02*
X11103396Y-15778484D01*
X11103396Y-15778484D02*
X11084348Y-15778484D01*
X11084348Y-15778484D02*
X11065301Y-15768960D01*
X11065301Y-15768960D02*
X11055777Y-15759436D01*
X11055777Y-15759436D02*
X11046253Y-15740388D01*
X11046253Y-15740388D02*
X11036729Y-15702293D01*
X11036729Y-15702293D02*
X11036729Y-15654674D01*
X11036729Y-15654674D02*
X11046253Y-15616579D01*
X11046253Y-15616579D02*
X11055777Y-15597531D01*
X11055777Y-15597531D02*
X11065301Y-15588008D01*
X11065301Y-15588008D02*
X11084348Y-15578484D01*
X11227206Y-15597531D02*
X11236729Y-15588008D01*
X11236729Y-15588008D02*
X11255777Y-15578484D01*
X11255777Y-15578484D02*
X11303396Y-15578484D01*
X11303396Y-15578484D02*
X11322444Y-15588008D01*
X11322444Y-15588008D02*
X11331967Y-15597531D01*
X11331967Y-15597531D02*
X11341491Y-15616579D01*
X11341491Y-15616579D02*
X11341491Y-15635627D01*
X11341491Y-15635627D02*
X11331967Y-15664198D01*
X11331967Y-15664198D02*
X11217682Y-15778484D01*
X11217682Y-15778484D02*
X11341491Y-15778484D01*
X11436729Y-15778484D02*
X11474825Y-15778484D01*
X11474825Y-15778484D02*
X11493872Y-15768960D01*
X11493872Y-15768960D02*
X11503396Y-15759436D01*
X11503396Y-15759436D02*
X11522444Y-15730865D01*
X11522444Y-15730865D02*
X11531967Y-15692769D01*
X11531967Y-15692769D02*
X11531967Y-15616579D01*
X11531967Y-15616579D02*
X11522444Y-15597531D01*
X11522444Y-15597531D02*
X11512920Y-15588008D01*
X11512920Y-15588008D02*
X11493872Y-15578484D01*
X11493872Y-15578484D02*
X11455777Y-15578484D01*
X11455777Y-15578484D02*
X11436729Y-15588008D01*
X11436729Y-15588008D02*
X11427206Y-15597531D01*
X11427206Y-15597531D02*
X11417682Y-15616579D01*
X11417682Y-15616579D02*
X11417682Y-15664198D01*
X11417682Y-15664198D02*
X11427206Y-15683246D01*
X11427206Y-15683246D02*
X11436729Y-15692769D01*
X11436729Y-15692769D02*
X11455777Y-15702293D01*
X11455777Y-15702293D02*
X11493872Y-15702293D01*
X11493872Y-15702293D02*
X11512920Y-15692769D01*
X11512920Y-15692769D02*
X11522444Y-15683246D01*
X11522444Y-15683246D02*
X11531967Y-15664198D01*
X11712920Y-15578484D02*
X11617682Y-15578484D01*
X11617682Y-15578484D02*
X11608158Y-15673722D01*
X11608158Y-15673722D02*
X11617682Y-15664198D01*
X11617682Y-15664198D02*
X11636729Y-15654674D01*
X11636729Y-15654674D02*
X11684348Y-15654674D01*
X11684348Y-15654674D02*
X11703396Y-15664198D01*
X11703396Y-15664198D02*
X11712920Y-15673722D01*
X11712920Y-15673722D02*
X11722444Y-15692769D01*
X11722444Y-15692769D02*
X11722444Y-15740388D01*
X11722444Y-15740388D02*
X11712920Y-15759436D01*
X11712920Y-15759436D02*
X11703396Y-15768960D01*
X11703396Y-15768960D02*
X11684348Y-15778484D01*
X11684348Y-15778484D02*
X11636729Y-15778484D01*
X11636729Y-15778484D02*
X11617682Y-15768960D01*
X11617682Y-15768960D02*
X11608158Y-15759436D01*
X11798634Y-15578484D02*
X11798634Y-15616579D01*
X11874825Y-15578484D02*
X11874825Y-15616579D01*
X12170063Y-15854674D02*
X12160539Y-15845150D01*
X12160539Y-15845150D02*
X12141491Y-15816579D01*
X12141491Y-15816579D02*
X12131968Y-15797531D01*
X12131968Y-15797531D02*
X12122444Y-15768960D01*
X12122444Y-15768960D02*
X12112920Y-15721341D01*
X12112920Y-15721341D02*
X12112920Y-15683246D01*
X12112920Y-15683246D02*
X12122444Y-15635627D01*
X12122444Y-15635627D02*
X12131968Y-15607055D01*
X12131968Y-15607055D02*
X12141491Y-15588008D01*
X12141491Y-15588008D02*
X12160539Y-15559436D01*
X12160539Y-15559436D02*
X12170063Y-15549912D01*
X12227206Y-15578484D02*
X12351015Y-15578484D01*
X12351015Y-15578484D02*
X12284348Y-15654674D01*
X12284348Y-15654674D02*
X12312920Y-15654674D01*
X12312920Y-15654674D02*
X12331968Y-15664198D01*
X12331968Y-15664198D02*
X12341491Y-15673722D01*
X12341491Y-15673722D02*
X12351015Y-15692769D01*
X12351015Y-15692769D02*
X12351015Y-15740388D01*
X12351015Y-15740388D02*
X12341491Y-15759436D01*
X12341491Y-15759436D02*
X12331968Y-15768960D01*
X12331968Y-15768960D02*
X12312920Y-15778484D01*
X12312920Y-15778484D02*
X12255777Y-15778484D01*
X12255777Y-15778484D02*
X12236729Y-15768960D01*
X12236729Y-15768960D02*
X12227206Y-15759436D01*
X12589110Y-15778484D02*
X12589110Y-15578484D01*
X12674825Y-15778484D02*
X12674825Y-15673722D01*
X12674825Y-15673722D02*
X12665301Y-15654674D01*
X12665301Y-15654674D02*
X12646253Y-15645150D01*
X12646253Y-15645150D02*
X12617682Y-15645150D01*
X12617682Y-15645150D02*
X12598634Y-15654674D01*
X12598634Y-15654674D02*
X12589110Y-15664198D01*
X12798634Y-15778484D02*
X12779587Y-15768960D01*
X12779587Y-15768960D02*
X12770063Y-15759436D01*
X12770063Y-15759436D02*
X12760539Y-15740388D01*
X12760539Y-15740388D02*
X12760539Y-15683246D01*
X12760539Y-15683246D02*
X12770063Y-15664198D01*
X12770063Y-15664198D02*
X12779587Y-15654674D01*
X12779587Y-15654674D02*
X12798634Y-15645150D01*
X12798634Y-15645150D02*
X12827206Y-15645150D01*
X12827206Y-15645150D02*
X12846253Y-15654674D01*
X12846253Y-15654674D02*
X12855777Y-15664198D01*
X12855777Y-15664198D02*
X12865301Y-15683246D01*
X12865301Y-15683246D02*
X12865301Y-15740388D01*
X12865301Y-15740388D02*
X12855777Y-15759436D01*
X12855777Y-15759436D02*
X12846253Y-15768960D01*
X12846253Y-15768960D02*
X12827206Y-15778484D01*
X12827206Y-15778484D02*
X12798634Y-15778484D01*
X12979587Y-15778484D02*
X12960539Y-15768960D01*
X12960539Y-15768960D02*
X12951015Y-15749912D01*
X12951015Y-15749912D02*
X12951015Y-15578484D01*
X13131968Y-15768960D02*
X13112920Y-15778484D01*
X13112920Y-15778484D02*
X13074825Y-15778484D01*
X13074825Y-15778484D02*
X13055777Y-15768960D01*
X13055777Y-15768960D02*
X13046253Y-15749912D01*
X13046253Y-15749912D02*
X13046253Y-15673722D01*
X13046253Y-15673722D02*
X13055777Y-15654674D01*
X13055777Y-15654674D02*
X13074825Y-15645150D01*
X13074825Y-15645150D02*
X13112920Y-15645150D01*
X13112920Y-15645150D02*
X13131968Y-15654674D01*
X13131968Y-15654674D02*
X13141491Y-15673722D01*
X13141491Y-15673722D02*
X13141491Y-15692769D01*
X13141491Y-15692769D02*
X13046253Y-15711817D01*
X13217682Y-15768960D02*
X13236730Y-15778484D01*
X13236730Y-15778484D02*
X13274825Y-15778484D01*
X13274825Y-15778484D02*
X13293872Y-15768960D01*
X13293872Y-15768960D02*
X13303396Y-15749912D01*
X13303396Y-15749912D02*
X13303396Y-15740388D01*
X13303396Y-15740388D02*
X13293872Y-15721341D01*
X13293872Y-15721341D02*
X13274825Y-15711817D01*
X13274825Y-15711817D02*
X13246253Y-15711817D01*
X13246253Y-15711817D02*
X13227206Y-15702293D01*
X13227206Y-15702293D02*
X13217682Y-15683246D01*
X13217682Y-15683246D02*
X13217682Y-15673722D01*
X13217682Y-15673722D02*
X13227206Y-15654674D01*
X13227206Y-15654674D02*
X13246253Y-15645150D01*
X13246253Y-15645150D02*
X13274825Y-15645150D01*
X13274825Y-15645150D02*
X13293872Y-15654674D01*
X13370063Y-15854674D02*
X13379587Y-15845150D01*
X13379587Y-15845150D02*
X13398634Y-15816579D01*
X13398634Y-15816579D02*
X13408158Y-15797531D01*
X13408158Y-15797531D02*
X13417682Y-15768960D01*
X13417682Y-15768960D02*
X13427206Y-15721341D01*
X13427206Y-15721341D02*
X13427206Y-15683246D01*
X13427206Y-15683246D02*
X13417682Y-15635627D01*
X13417682Y-15635627D02*
X13408158Y-15607055D01*
X13408158Y-15607055D02*
X13398634Y-15588008D01*
X13398634Y-15588008D02*
X13379587Y-15559436D01*
X13379587Y-15559436D02*
X13370063Y-15549912D01*
D15*
X8583285Y-15979284D02*
X8583285Y-15922715D01*
X8526716Y-15922715D01*
X8526716Y-15979284D01*
X8583285Y-15979284D01*
D11*
X8893872Y-15842484D02*
X8912920Y-15842484D01*
X8912920Y-15842484D02*
X8931967Y-15852008D01*
X8931967Y-15852008D02*
X8941491Y-15861531D01*
X8941491Y-15861531D02*
X8951015Y-15880579D01*
X8951015Y-15880579D02*
X8960539Y-15918674D01*
X8960539Y-15918674D02*
X8960539Y-15966293D01*
X8960539Y-15966293D02*
X8951015Y-16004388D01*
X8951015Y-16004388D02*
X8941491Y-16023436D01*
X8941491Y-16023436D02*
X8931967Y-16032960D01*
X8931967Y-16032960D02*
X8912920Y-16042484D01*
X8912920Y-16042484D02*
X8893872Y-16042484D01*
X8893872Y-16042484D02*
X8874824Y-16032960D01*
X8874824Y-16032960D02*
X8865301Y-16023436D01*
X8865301Y-16023436D02*
X8855777Y-16004388D01*
X8855777Y-16004388D02*
X8846253Y-15966293D01*
X8846253Y-15966293D02*
X8846253Y-15918674D01*
X8846253Y-15918674D02*
X8855777Y-15880579D01*
X8855777Y-15880579D02*
X8865301Y-15861531D01*
X8865301Y-15861531D02*
X8874824Y-15852008D01*
X8874824Y-15852008D02*
X8893872Y-15842484D01*
X9046253Y-16023436D02*
X9055777Y-16032960D01*
X9055777Y-16032960D02*
X9046253Y-16042484D01*
X9046253Y-16042484D02*
X9036729Y-16032960D01*
X9036729Y-16032960D02*
X9046253Y-16023436D01*
X9046253Y-16023436D02*
X9046253Y-16042484D01*
X9170063Y-15928198D02*
X9151015Y-15918674D01*
X9151015Y-15918674D02*
X9141491Y-15909150D01*
X9141491Y-15909150D02*
X9131967Y-15890103D01*
X9131967Y-15890103D02*
X9131967Y-15880579D01*
X9131967Y-15880579D02*
X9141491Y-15861531D01*
X9141491Y-15861531D02*
X9151015Y-15852008D01*
X9151015Y-15852008D02*
X9170063Y-15842484D01*
X9170063Y-15842484D02*
X9208158Y-15842484D01*
X9208158Y-15842484D02*
X9227205Y-15852008D01*
X9227205Y-15852008D02*
X9236729Y-15861531D01*
X9236729Y-15861531D02*
X9246253Y-15880579D01*
X9246253Y-15880579D02*
X9246253Y-15890103D01*
X9246253Y-15890103D02*
X9236729Y-15909150D01*
X9236729Y-15909150D02*
X9227205Y-15918674D01*
X9227205Y-15918674D02*
X9208158Y-15928198D01*
X9208158Y-15928198D02*
X9170063Y-15928198D01*
X9170063Y-15928198D02*
X9151015Y-15937722D01*
X9151015Y-15937722D02*
X9141491Y-15947246D01*
X9141491Y-15947246D02*
X9131967Y-15966293D01*
X9131967Y-15966293D02*
X9131967Y-16004388D01*
X9131967Y-16004388D02*
X9141491Y-16023436D01*
X9141491Y-16023436D02*
X9151015Y-16032960D01*
X9151015Y-16032960D02*
X9170063Y-16042484D01*
X9170063Y-16042484D02*
X9208158Y-16042484D01*
X9208158Y-16042484D02*
X9227205Y-16032960D01*
X9227205Y-16032960D02*
X9236729Y-16023436D01*
X9236729Y-16023436D02*
X9246253Y-16004388D01*
X9246253Y-16004388D02*
X9246253Y-15966293D01*
X9246253Y-15966293D02*
X9236729Y-15947246D01*
X9236729Y-15947246D02*
X9227205Y-15937722D01*
X9227205Y-15937722D02*
X9208158Y-15928198D01*
X9370063Y-15842484D02*
X9389110Y-15842484D01*
X9389110Y-15842484D02*
X9408158Y-15852008D01*
X9408158Y-15852008D02*
X9417682Y-15861531D01*
X9417682Y-15861531D02*
X9427205Y-15880579D01*
X9427205Y-15880579D02*
X9436729Y-15918674D01*
X9436729Y-15918674D02*
X9436729Y-15966293D01*
X9436729Y-15966293D02*
X9427205Y-16004388D01*
X9427205Y-16004388D02*
X9417682Y-16023436D01*
X9417682Y-16023436D02*
X9408158Y-16032960D01*
X9408158Y-16032960D02*
X9389110Y-16042484D01*
X9389110Y-16042484D02*
X9370063Y-16042484D01*
X9370063Y-16042484D02*
X9351015Y-16032960D01*
X9351015Y-16032960D02*
X9341491Y-16023436D01*
X9341491Y-16023436D02*
X9331967Y-16004388D01*
X9331967Y-16004388D02*
X9322444Y-15966293D01*
X9322444Y-15966293D02*
X9322444Y-15918674D01*
X9322444Y-15918674D02*
X9331967Y-15880579D01*
X9331967Y-15880579D02*
X9341491Y-15861531D01*
X9341491Y-15861531D02*
X9351015Y-15852008D01*
X9351015Y-15852008D02*
X9370063Y-15842484D01*
X9560539Y-15842484D02*
X9579586Y-15842484D01*
X9579586Y-15842484D02*
X9598634Y-15852008D01*
X9598634Y-15852008D02*
X9608158Y-15861531D01*
X9608158Y-15861531D02*
X9617682Y-15880579D01*
X9617682Y-15880579D02*
X9627205Y-15918674D01*
X9627205Y-15918674D02*
X9627205Y-15966293D01*
X9627205Y-15966293D02*
X9617682Y-16004388D01*
X9617682Y-16004388D02*
X9608158Y-16023436D01*
X9608158Y-16023436D02*
X9598634Y-16032960D01*
X9598634Y-16032960D02*
X9579586Y-16042484D01*
X9579586Y-16042484D02*
X9560539Y-16042484D01*
X9560539Y-16042484D02*
X9541491Y-16032960D01*
X9541491Y-16032960D02*
X9531967Y-16023436D01*
X9531967Y-16023436D02*
X9522444Y-16004388D01*
X9522444Y-16004388D02*
X9512920Y-15966293D01*
X9512920Y-15966293D02*
X9512920Y-15918674D01*
X9512920Y-15918674D02*
X9522444Y-15880579D01*
X9522444Y-15880579D02*
X9531967Y-15861531D01*
X9531967Y-15861531D02*
X9541491Y-15852008D01*
X9541491Y-15852008D02*
X9560539Y-15842484D01*
X9712920Y-16042484D02*
X9712920Y-15909150D01*
X9712920Y-15928198D02*
X9722444Y-15918674D01*
X9722444Y-15918674D02*
X9741491Y-15909150D01*
X9741491Y-15909150D02*
X9770063Y-15909150D01*
X9770063Y-15909150D02*
X9789110Y-15918674D01*
X9789110Y-15918674D02*
X9798634Y-15937722D01*
X9798634Y-15937722D02*
X9798634Y-16042484D01*
X9798634Y-15937722D02*
X9808158Y-15918674D01*
X9808158Y-15918674D02*
X9827205Y-15909150D01*
X9827205Y-15909150D02*
X9855777Y-15909150D01*
X9855777Y-15909150D02*
X9874825Y-15918674D01*
X9874825Y-15918674D02*
X9884348Y-15937722D01*
X9884348Y-15937722D02*
X9884348Y-16042484D01*
X9979586Y-16042484D02*
X9979586Y-15909150D01*
X9979586Y-15928198D02*
X9989110Y-15918674D01*
X9989110Y-15918674D02*
X10008158Y-15909150D01*
X10008158Y-15909150D02*
X10036729Y-15909150D01*
X10036729Y-15909150D02*
X10055777Y-15918674D01*
X10055777Y-15918674D02*
X10065301Y-15937722D01*
X10065301Y-15937722D02*
X10065301Y-16042484D01*
X10065301Y-15937722D02*
X10074825Y-15918674D01*
X10074825Y-15918674D02*
X10093872Y-15909150D01*
X10093872Y-15909150D02*
X10122444Y-15909150D01*
X10122444Y-15909150D02*
X10141491Y-15918674D01*
X10141491Y-15918674D02*
X10151015Y-15937722D01*
X10151015Y-15937722D02*
X10151015Y-16042484D01*
X10541491Y-15832960D02*
X10370063Y-16090103D01*
X10798634Y-15842484D02*
X10817682Y-15842484D01*
X10817682Y-15842484D02*
X10836729Y-15852008D01*
X10836729Y-15852008D02*
X10846253Y-15861531D01*
X10846253Y-15861531D02*
X10855777Y-15880579D01*
X10855777Y-15880579D02*
X10865301Y-15918674D01*
X10865301Y-15918674D02*
X10865301Y-15966293D01*
X10865301Y-15966293D02*
X10855777Y-16004388D01*
X10855777Y-16004388D02*
X10846253Y-16023436D01*
X10846253Y-16023436D02*
X10836729Y-16032960D01*
X10836729Y-16032960D02*
X10817682Y-16042484D01*
X10817682Y-16042484D02*
X10798634Y-16042484D01*
X10798634Y-16042484D02*
X10779587Y-16032960D01*
X10779587Y-16032960D02*
X10770063Y-16023436D01*
X10770063Y-16023436D02*
X10760539Y-16004388D01*
X10760539Y-16004388D02*
X10751015Y-15966293D01*
X10751015Y-15966293D02*
X10751015Y-15918674D01*
X10751015Y-15918674D02*
X10760539Y-15880579D01*
X10760539Y-15880579D02*
X10770063Y-15861531D01*
X10770063Y-15861531D02*
X10779587Y-15852008D01*
X10779587Y-15852008D02*
X10798634Y-15842484D01*
X10951015Y-16023436D02*
X10960539Y-16032960D01*
X10960539Y-16032960D02*
X10951015Y-16042484D01*
X10951015Y-16042484D02*
X10941491Y-16032960D01*
X10941491Y-16032960D02*
X10951015Y-16023436D01*
X10951015Y-16023436D02*
X10951015Y-16042484D01*
X11084348Y-15842484D02*
X11103396Y-15842484D01*
X11103396Y-15842484D02*
X11122444Y-15852008D01*
X11122444Y-15852008D02*
X11131968Y-15861531D01*
X11131968Y-15861531D02*
X11141491Y-15880579D01*
X11141491Y-15880579D02*
X11151015Y-15918674D01*
X11151015Y-15918674D02*
X11151015Y-15966293D01*
X11151015Y-15966293D02*
X11141491Y-16004388D01*
X11141491Y-16004388D02*
X11131968Y-16023436D01*
X11131968Y-16023436D02*
X11122444Y-16032960D01*
X11122444Y-16032960D02*
X11103396Y-16042484D01*
X11103396Y-16042484D02*
X11084348Y-16042484D01*
X11084348Y-16042484D02*
X11065301Y-16032960D01*
X11065301Y-16032960D02*
X11055777Y-16023436D01*
X11055777Y-16023436D02*
X11046253Y-16004388D01*
X11046253Y-16004388D02*
X11036729Y-15966293D01*
X11036729Y-15966293D02*
X11036729Y-15918674D01*
X11036729Y-15918674D02*
X11046253Y-15880579D01*
X11046253Y-15880579D02*
X11055777Y-15861531D01*
X11055777Y-15861531D02*
X11065301Y-15852008D01*
X11065301Y-15852008D02*
X11084348Y-15842484D01*
X11217682Y-15842484D02*
X11341491Y-15842484D01*
X11341491Y-15842484D02*
X11274825Y-15918674D01*
X11274825Y-15918674D02*
X11303396Y-15918674D01*
X11303396Y-15918674D02*
X11322444Y-15928198D01*
X11322444Y-15928198D02*
X11331967Y-15937722D01*
X11331967Y-15937722D02*
X11341491Y-15956769D01*
X11341491Y-15956769D02*
X11341491Y-16004388D01*
X11341491Y-16004388D02*
X11331967Y-16023436D01*
X11331967Y-16023436D02*
X11322444Y-16032960D01*
X11322444Y-16032960D02*
X11303396Y-16042484D01*
X11303396Y-16042484D02*
X11246253Y-16042484D01*
X11246253Y-16042484D02*
X11227206Y-16032960D01*
X11227206Y-16032960D02*
X11217682Y-16023436D01*
X11531967Y-16042484D02*
X11417682Y-16042484D01*
X11474825Y-16042484D02*
X11474825Y-15842484D01*
X11474825Y-15842484D02*
X11455777Y-15871055D01*
X11455777Y-15871055D02*
X11436729Y-15890103D01*
X11436729Y-15890103D02*
X11417682Y-15899627D01*
X11712920Y-15842484D02*
X11617682Y-15842484D01*
X11617682Y-15842484D02*
X11608158Y-15937722D01*
X11608158Y-15937722D02*
X11617682Y-15928198D01*
X11617682Y-15928198D02*
X11636729Y-15918674D01*
X11636729Y-15918674D02*
X11684348Y-15918674D01*
X11684348Y-15918674D02*
X11703396Y-15928198D01*
X11703396Y-15928198D02*
X11712920Y-15937722D01*
X11712920Y-15937722D02*
X11722444Y-15956769D01*
X11722444Y-15956769D02*
X11722444Y-16004388D01*
X11722444Y-16004388D02*
X11712920Y-16023436D01*
X11712920Y-16023436D02*
X11703396Y-16032960D01*
X11703396Y-16032960D02*
X11684348Y-16042484D01*
X11684348Y-16042484D02*
X11636729Y-16042484D01*
X11636729Y-16042484D02*
X11617682Y-16032960D01*
X11617682Y-16032960D02*
X11608158Y-16023436D01*
X11798634Y-15842484D02*
X11798634Y-15880579D01*
X11874825Y-15842484D02*
X11874825Y-15880579D01*
X12170063Y-16118674D02*
X12160539Y-16109150D01*
X12160539Y-16109150D02*
X12141491Y-16080579D01*
X12141491Y-16080579D02*
X12131968Y-16061531D01*
X12131968Y-16061531D02*
X12122444Y-16032960D01*
X12122444Y-16032960D02*
X12112920Y-15985341D01*
X12112920Y-15985341D02*
X12112920Y-15947246D01*
X12112920Y-15947246D02*
X12122444Y-15899627D01*
X12122444Y-15899627D02*
X12131968Y-15871055D01*
X12131968Y-15871055D02*
X12141491Y-15852008D01*
X12141491Y-15852008D02*
X12160539Y-15823436D01*
X12160539Y-15823436D02*
X12170063Y-15813912D01*
X12236729Y-15861531D02*
X12246253Y-15852008D01*
X12246253Y-15852008D02*
X12265301Y-15842484D01*
X12265301Y-15842484D02*
X12312920Y-15842484D01*
X12312920Y-15842484D02*
X12331968Y-15852008D01*
X12331968Y-15852008D02*
X12341491Y-15861531D01*
X12341491Y-15861531D02*
X12351015Y-15880579D01*
X12351015Y-15880579D02*
X12351015Y-15899627D01*
X12351015Y-15899627D02*
X12341491Y-15928198D01*
X12341491Y-15928198D02*
X12227206Y-16042484D01*
X12227206Y-16042484D02*
X12351015Y-16042484D01*
X12446253Y-16042484D02*
X12484348Y-16042484D01*
X12484348Y-16042484D02*
X12503396Y-16032960D01*
X12503396Y-16032960D02*
X12512920Y-16023436D01*
X12512920Y-16023436D02*
X12531968Y-15994865D01*
X12531968Y-15994865D02*
X12541491Y-15956769D01*
X12541491Y-15956769D02*
X12541491Y-15880579D01*
X12541491Y-15880579D02*
X12531968Y-15861531D01*
X12531968Y-15861531D02*
X12522444Y-15852008D01*
X12522444Y-15852008D02*
X12503396Y-15842484D01*
X12503396Y-15842484D02*
X12465301Y-15842484D01*
X12465301Y-15842484D02*
X12446253Y-15852008D01*
X12446253Y-15852008D02*
X12436729Y-15861531D01*
X12436729Y-15861531D02*
X12427206Y-15880579D01*
X12427206Y-15880579D02*
X12427206Y-15928198D01*
X12427206Y-15928198D02*
X12436729Y-15947246D01*
X12436729Y-15947246D02*
X12446253Y-15956769D01*
X12446253Y-15956769D02*
X12465301Y-15966293D01*
X12465301Y-15966293D02*
X12503396Y-15966293D01*
X12503396Y-15966293D02*
X12522444Y-15956769D01*
X12522444Y-15956769D02*
X12531968Y-15947246D01*
X12531968Y-15947246D02*
X12541491Y-15928198D01*
X12712920Y-15842484D02*
X12674825Y-15842484D01*
X12674825Y-15842484D02*
X12655777Y-15852008D01*
X12655777Y-15852008D02*
X12646253Y-15861531D01*
X12646253Y-15861531D02*
X12627206Y-15890103D01*
X12627206Y-15890103D02*
X12617682Y-15928198D01*
X12617682Y-15928198D02*
X12617682Y-16004388D01*
X12617682Y-16004388D02*
X12627206Y-16023436D01*
X12627206Y-16023436D02*
X12636729Y-16032960D01*
X12636729Y-16032960D02*
X12655777Y-16042484D01*
X12655777Y-16042484D02*
X12693872Y-16042484D01*
X12693872Y-16042484D02*
X12712920Y-16032960D01*
X12712920Y-16032960D02*
X12722444Y-16023436D01*
X12722444Y-16023436D02*
X12731968Y-16004388D01*
X12731968Y-16004388D02*
X12731968Y-15956769D01*
X12731968Y-15956769D02*
X12722444Y-15937722D01*
X12722444Y-15937722D02*
X12712920Y-15928198D01*
X12712920Y-15928198D02*
X12693872Y-15918674D01*
X12693872Y-15918674D02*
X12655777Y-15918674D01*
X12655777Y-15918674D02*
X12636729Y-15928198D01*
X12636729Y-15928198D02*
X12627206Y-15937722D01*
X12627206Y-15937722D02*
X12617682Y-15956769D01*
X12970063Y-16042484D02*
X12970063Y-15842484D01*
X13055777Y-16042484D02*
X13055777Y-15937722D01*
X13055777Y-15937722D02*
X13046253Y-15918674D01*
X13046253Y-15918674D02*
X13027206Y-15909150D01*
X13027206Y-15909150D02*
X12998634Y-15909150D01*
X12998634Y-15909150D02*
X12979587Y-15918674D01*
X12979587Y-15918674D02*
X12970063Y-15928198D01*
X13179587Y-16042484D02*
X13160539Y-16032960D01*
X13160539Y-16032960D02*
X13151015Y-16023436D01*
X13151015Y-16023436D02*
X13141491Y-16004388D01*
X13141491Y-16004388D02*
X13141491Y-15947246D01*
X13141491Y-15947246D02*
X13151015Y-15928198D01*
X13151015Y-15928198D02*
X13160539Y-15918674D01*
X13160539Y-15918674D02*
X13179587Y-15909150D01*
X13179587Y-15909150D02*
X13208158Y-15909150D01*
X13208158Y-15909150D02*
X13227206Y-15918674D01*
X13227206Y-15918674D02*
X13236730Y-15928198D01*
X13236730Y-15928198D02*
X13246253Y-15947246D01*
X13246253Y-15947246D02*
X13246253Y-16004388D01*
X13246253Y-16004388D02*
X13236730Y-16023436D01*
X13236730Y-16023436D02*
X13227206Y-16032960D01*
X13227206Y-16032960D02*
X13208158Y-16042484D01*
X13208158Y-16042484D02*
X13179587Y-16042484D01*
X13360539Y-16042484D02*
X13341491Y-16032960D01*
X13341491Y-16032960D02*
X13331968Y-16013912D01*
X13331968Y-16013912D02*
X13331968Y-15842484D01*
X13512920Y-16032960D02*
X13493872Y-16042484D01*
X13493872Y-16042484D02*
X13455777Y-16042484D01*
X13455777Y-16042484D02*
X13436730Y-16032960D01*
X13436730Y-16032960D02*
X13427206Y-16013912D01*
X13427206Y-16013912D02*
X13427206Y-15937722D01*
X13427206Y-15937722D02*
X13436730Y-15918674D01*
X13436730Y-15918674D02*
X13455777Y-15909150D01*
X13455777Y-15909150D02*
X13493872Y-15909150D01*
X13493872Y-15909150D02*
X13512920Y-15918674D01*
X13512920Y-15918674D02*
X13522444Y-15937722D01*
X13522444Y-15937722D02*
X13522444Y-15956769D01*
X13522444Y-15956769D02*
X13427206Y-15975817D01*
X13598634Y-16032960D02*
X13617682Y-16042484D01*
X13617682Y-16042484D02*
X13655777Y-16042484D01*
X13655777Y-16042484D02*
X13674825Y-16032960D01*
X13674825Y-16032960D02*
X13684349Y-16013912D01*
X13684349Y-16013912D02*
X13684349Y-16004388D01*
X13684349Y-16004388D02*
X13674825Y-15985341D01*
X13674825Y-15985341D02*
X13655777Y-15975817D01*
X13655777Y-15975817D02*
X13627206Y-15975817D01*
X13627206Y-15975817D02*
X13608158Y-15966293D01*
X13608158Y-15966293D02*
X13598634Y-15947246D01*
X13598634Y-15947246D02*
X13598634Y-15937722D01*
X13598634Y-15937722D02*
X13608158Y-15918674D01*
X13608158Y-15918674D02*
X13627206Y-15909150D01*
X13627206Y-15909150D02*
X13655777Y-15909150D01*
X13655777Y-15909150D02*
X13674825Y-15918674D01*
X13751015Y-16118674D02*
X13760539Y-16109150D01*
X13760539Y-16109150D02*
X13779587Y-16080579D01*
X13779587Y-16080579D02*
X13789111Y-16061531D01*
X13789111Y-16061531D02*
X13798634Y-16032960D01*
X13798634Y-16032960D02*
X13808158Y-15985341D01*
X13808158Y-15985341D02*
X13808158Y-15947246D01*
X13808158Y-15947246D02*
X13798634Y-15899627D01*
X13798634Y-15899627D02*
X13789111Y-15871055D01*
X13789111Y-15871055D02*
X13779587Y-15852008D01*
X13779587Y-15852008D02*
X13760539Y-15823436D01*
X13760539Y-15823436D02*
X13751015Y-15813912D01*
D16*
X8550000Y-16260000D02*
X8595000Y-16215000D01*
X8550000Y-16170000D01*
X8505000Y-16215000D01*
X8550000Y-16260000D01*
D11*
X8893872Y-16106484D02*
X8912920Y-16106484D01*
X8912920Y-16106484D02*
X8931967Y-16116008D01*
X8931967Y-16116008D02*
X8941491Y-16125531D01*
X8941491Y-16125531D02*
X8951015Y-16144579D01*
X8951015Y-16144579D02*
X8960539Y-16182674D01*
X8960539Y-16182674D02*
X8960539Y-16230293D01*
X8960539Y-16230293D02*
X8951015Y-16268388D01*
X8951015Y-16268388D02*
X8941491Y-16287436D01*
X8941491Y-16287436D02*
X8931967Y-16296960D01*
X8931967Y-16296960D02*
X8912920Y-16306484D01*
X8912920Y-16306484D02*
X8893872Y-16306484D01*
X8893872Y-16306484D02*
X8874824Y-16296960D01*
X8874824Y-16296960D02*
X8865301Y-16287436D01*
X8865301Y-16287436D02*
X8855777Y-16268388D01*
X8855777Y-16268388D02*
X8846253Y-16230293D01*
X8846253Y-16230293D02*
X8846253Y-16182674D01*
X8846253Y-16182674D02*
X8855777Y-16144579D01*
X8855777Y-16144579D02*
X8865301Y-16125531D01*
X8865301Y-16125531D02*
X8874824Y-16116008D01*
X8874824Y-16116008D02*
X8893872Y-16106484D01*
X9046253Y-16287436D02*
X9055777Y-16296960D01*
X9055777Y-16296960D02*
X9046253Y-16306484D01*
X9046253Y-16306484D02*
X9036729Y-16296960D01*
X9036729Y-16296960D02*
X9046253Y-16287436D01*
X9046253Y-16287436D02*
X9046253Y-16306484D01*
X9151015Y-16306484D02*
X9189110Y-16306484D01*
X9189110Y-16306484D02*
X9208158Y-16296960D01*
X9208158Y-16296960D02*
X9217682Y-16287436D01*
X9217682Y-16287436D02*
X9236729Y-16258865D01*
X9236729Y-16258865D02*
X9246253Y-16220769D01*
X9246253Y-16220769D02*
X9246253Y-16144579D01*
X9246253Y-16144579D02*
X9236729Y-16125531D01*
X9236729Y-16125531D02*
X9227205Y-16116008D01*
X9227205Y-16116008D02*
X9208158Y-16106484D01*
X9208158Y-16106484D02*
X9170063Y-16106484D01*
X9170063Y-16106484D02*
X9151015Y-16116008D01*
X9151015Y-16116008D02*
X9141491Y-16125531D01*
X9141491Y-16125531D02*
X9131967Y-16144579D01*
X9131967Y-16144579D02*
X9131967Y-16192198D01*
X9131967Y-16192198D02*
X9141491Y-16211246D01*
X9141491Y-16211246D02*
X9151015Y-16220769D01*
X9151015Y-16220769D02*
X9170063Y-16230293D01*
X9170063Y-16230293D02*
X9208158Y-16230293D01*
X9208158Y-16230293D02*
X9227205Y-16220769D01*
X9227205Y-16220769D02*
X9236729Y-16211246D01*
X9236729Y-16211246D02*
X9246253Y-16192198D01*
X9370063Y-16106484D02*
X9389110Y-16106484D01*
X9389110Y-16106484D02*
X9408158Y-16116008D01*
X9408158Y-16116008D02*
X9417682Y-16125531D01*
X9417682Y-16125531D02*
X9427205Y-16144579D01*
X9427205Y-16144579D02*
X9436729Y-16182674D01*
X9436729Y-16182674D02*
X9436729Y-16230293D01*
X9436729Y-16230293D02*
X9427205Y-16268388D01*
X9427205Y-16268388D02*
X9417682Y-16287436D01*
X9417682Y-16287436D02*
X9408158Y-16296960D01*
X9408158Y-16296960D02*
X9389110Y-16306484D01*
X9389110Y-16306484D02*
X9370063Y-16306484D01*
X9370063Y-16306484D02*
X9351015Y-16296960D01*
X9351015Y-16296960D02*
X9341491Y-16287436D01*
X9341491Y-16287436D02*
X9331967Y-16268388D01*
X9331967Y-16268388D02*
X9322444Y-16230293D01*
X9322444Y-16230293D02*
X9322444Y-16182674D01*
X9322444Y-16182674D02*
X9331967Y-16144579D01*
X9331967Y-16144579D02*
X9341491Y-16125531D01*
X9341491Y-16125531D02*
X9351015Y-16116008D01*
X9351015Y-16116008D02*
X9370063Y-16106484D01*
X9560539Y-16106484D02*
X9579586Y-16106484D01*
X9579586Y-16106484D02*
X9598634Y-16116008D01*
X9598634Y-16116008D02*
X9608158Y-16125531D01*
X9608158Y-16125531D02*
X9617682Y-16144579D01*
X9617682Y-16144579D02*
X9627205Y-16182674D01*
X9627205Y-16182674D02*
X9627205Y-16230293D01*
X9627205Y-16230293D02*
X9617682Y-16268388D01*
X9617682Y-16268388D02*
X9608158Y-16287436D01*
X9608158Y-16287436D02*
X9598634Y-16296960D01*
X9598634Y-16296960D02*
X9579586Y-16306484D01*
X9579586Y-16306484D02*
X9560539Y-16306484D01*
X9560539Y-16306484D02*
X9541491Y-16296960D01*
X9541491Y-16296960D02*
X9531967Y-16287436D01*
X9531967Y-16287436D02*
X9522444Y-16268388D01*
X9522444Y-16268388D02*
X9512920Y-16230293D01*
X9512920Y-16230293D02*
X9512920Y-16182674D01*
X9512920Y-16182674D02*
X9522444Y-16144579D01*
X9522444Y-16144579D02*
X9531967Y-16125531D01*
X9531967Y-16125531D02*
X9541491Y-16116008D01*
X9541491Y-16116008D02*
X9560539Y-16106484D01*
X9712920Y-16306484D02*
X9712920Y-16173150D01*
X9712920Y-16192198D02*
X9722444Y-16182674D01*
X9722444Y-16182674D02*
X9741491Y-16173150D01*
X9741491Y-16173150D02*
X9770063Y-16173150D01*
X9770063Y-16173150D02*
X9789110Y-16182674D01*
X9789110Y-16182674D02*
X9798634Y-16201722D01*
X9798634Y-16201722D02*
X9798634Y-16306484D01*
X9798634Y-16201722D02*
X9808158Y-16182674D01*
X9808158Y-16182674D02*
X9827205Y-16173150D01*
X9827205Y-16173150D02*
X9855777Y-16173150D01*
X9855777Y-16173150D02*
X9874825Y-16182674D01*
X9874825Y-16182674D02*
X9884348Y-16201722D01*
X9884348Y-16201722D02*
X9884348Y-16306484D01*
X9979586Y-16306484D02*
X9979586Y-16173150D01*
X9979586Y-16192198D02*
X9989110Y-16182674D01*
X9989110Y-16182674D02*
X10008158Y-16173150D01*
X10008158Y-16173150D02*
X10036729Y-16173150D01*
X10036729Y-16173150D02*
X10055777Y-16182674D01*
X10055777Y-16182674D02*
X10065301Y-16201722D01*
X10065301Y-16201722D02*
X10065301Y-16306484D01*
X10065301Y-16201722D02*
X10074825Y-16182674D01*
X10074825Y-16182674D02*
X10093872Y-16173150D01*
X10093872Y-16173150D02*
X10122444Y-16173150D01*
X10122444Y-16173150D02*
X10141491Y-16182674D01*
X10141491Y-16182674D02*
X10151015Y-16201722D01*
X10151015Y-16201722D02*
X10151015Y-16306484D01*
X10541491Y-16096960D02*
X10370063Y-16354103D01*
X10798634Y-16106484D02*
X10817682Y-16106484D01*
X10817682Y-16106484D02*
X10836729Y-16116008D01*
X10836729Y-16116008D02*
X10846253Y-16125531D01*
X10846253Y-16125531D02*
X10855777Y-16144579D01*
X10855777Y-16144579D02*
X10865301Y-16182674D01*
X10865301Y-16182674D02*
X10865301Y-16230293D01*
X10865301Y-16230293D02*
X10855777Y-16268388D01*
X10855777Y-16268388D02*
X10846253Y-16287436D01*
X10846253Y-16287436D02*
X10836729Y-16296960D01*
X10836729Y-16296960D02*
X10817682Y-16306484D01*
X10817682Y-16306484D02*
X10798634Y-16306484D01*
X10798634Y-16306484D02*
X10779587Y-16296960D01*
X10779587Y-16296960D02*
X10770063Y-16287436D01*
X10770063Y-16287436D02*
X10760539Y-16268388D01*
X10760539Y-16268388D02*
X10751015Y-16230293D01*
X10751015Y-16230293D02*
X10751015Y-16182674D01*
X10751015Y-16182674D02*
X10760539Y-16144579D01*
X10760539Y-16144579D02*
X10770063Y-16125531D01*
X10770063Y-16125531D02*
X10779587Y-16116008D01*
X10779587Y-16116008D02*
X10798634Y-16106484D01*
X10951015Y-16287436D02*
X10960539Y-16296960D01*
X10960539Y-16296960D02*
X10951015Y-16306484D01*
X10951015Y-16306484D02*
X10941491Y-16296960D01*
X10941491Y-16296960D02*
X10951015Y-16287436D01*
X10951015Y-16287436D02*
X10951015Y-16306484D01*
X11084348Y-16106484D02*
X11103396Y-16106484D01*
X11103396Y-16106484D02*
X11122444Y-16116008D01*
X11122444Y-16116008D02*
X11131968Y-16125531D01*
X11131968Y-16125531D02*
X11141491Y-16144579D01*
X11141491Y-16144579D02*
X11151015Y-16182674D01*
X11151015Y-16182674D02*
X11151015Y-16230293D01*
X11151015Y-16230293D02*
X11141491Y-16268388D01*
X11141491Y-16268388D02*
X11131968Y-16287436D01*
X11131968Y-16287436D02*
X11122444Y-16296960D01*
X11122444Y-16296960D02*
X11103396Y-16306484D01*
X11103396Y-16306484D02*
X11084348Y-16306484D01*
X11084348Y-16306484D02*
X11065301Y-16296960D01*
X11065301Y-16296960D02*
X11055777Y-16287436D01*
X11055777Y-16287436D02*
X11046253Y-16268388D01*
X11046253Y-16268388D02*
X11036729Y-16230293D01*
X11036729Y-16230293D02*
X11036729Y-16182674D01*
X11036729Y-16182674D02*
X11046253Y-16144579D01*
X11046253Y-16144579D02*
X11055777Y-16125531D01*
X11055777Y-16125531D02*
X11065301Y-16116008D01*
X11065301Y-16116008D02*
X11084348Y-16106484D01*
X11217682Y-16106484D02*
X11341491Y-16106484D01*
X11341491Y-16106484D02*
X11274825Y-16182674D01*
X11274825Y-16182674D02*
X11303396Y-16182674D01*
X11303396Y-16182674D02*
X11322444Y-16192198D01*
X11322444Y-16192198D02*
X11331967Y-16201722D01*
X11331967Y-16201722D02*
X11341491Y-16220769D01*
X11341491Y-16220769D02*
X11341491Y-16268388D01*
X11341491Y-16268388D02*
X11331967Y-16287436D01*
X11331967Y-16287436D02*
X11322444Y-16296960D01*
X11322444Y-16296960D02*
X11303396Y-16306484D01*
X11303396Y-16306484D02*
X11246253Y-16306484D01*
X11246253Y-16306484D02*
X11227206Y-16296960D01*
X11227206Y-16296960D02*
X11217682Y-16287436D01*
X11522444Y-16106484D02*
X11427206Y-16106484D01*
X11427206Y-16106484D02*
X11417682Y-16201722D01*
X11417682Y-16201722D02*
X11427206Y-16192198D01*
X11427206Y-16192198D02*
X11446253Y-16182674D01*
X11446253Y-16182674D02*
X11493872Y-16182674D01*
X11493872Y-16182674D02*
X11512920Y-16192198D01*
X11512920Y-16192198D02*
X11522444Y-16201722D01*
X11522444Y-16201722D02*
X11531967Y-16220769D01*
X11531967Y-16220769D02*
X11531967Y-16268388D01*
X11531967Y-16268388D02*
X11522444Y-16287436D01*
X11522444Y-16287436D02*
X11512920Y-16296960D01*
X11512920Y-16296960D02*
X11493872Y-16306484D01*
X11493872Y-16306484D02*
X11446253Y-16306484D01*
X11446253Y-16306484D02*
X11427206Y-16296960D01*
X11427206Y-16296960D02*
X11417682Y-16287436D01*
X11703396Y-16173150D02*
X11703396Y-16306484D01*
X11655777Y-16096960D02*
X11608158Y-16239817D01*
X11608158Y-16239817D02*
X11731967Y-16239817D01*
X11798634Y-16106484D02*
X11798634Y-16144579D01*
X11874825Y-16106484D02*
X11874825Y-16144579D01*
X12170063Y-16382674D02*
X12160539Y-16373150D01*
X12160539Y-16373150D02*
X12141491Y-16344579D01*
X12141491Y-16344579D02*
X12131968Y-16325531D01*
X12131968Y-16325531D02*
X12122444Y-16296960D01*
X12122444Y-16296960D02*
X12112920Y-16249341D01*
X12112920Y-16249341D02*
X12112920Y-16211246D01*
X12112920Y-16211246D02*
X12122444Y-16163627D01*
X12122444Y-16163627D02*
X12131968Y-16135055D01*
X12131968Y-16135055D02*
X12141491Y-16116008D01*
X12141491Y-16116008D02*
X12160539Y-16087436D01*
X12160539Y-16087436D02*
X12170063Y-16077912D01*
X12236729Y-16125531D02*
X12246253Y-16116008D01*
X12246253Y-16116008D02*
X12265301Y-16106484D01*
X12265301Y-16106484D02*
X12312920Y-16106484D01*
X12312920Y-16106484D02*
X12331968Y-16116008D01*
X12331968Y-16116008D02*
X12341491Y-16125531D01*
X12341491Y-16125531D02*
X12351015Y-16144579D01*
X12351015Y-16144579D02*
X12351015Y-16163627D01*
X12351015Y-16163627D02*
X12341491Y-16192198D01*
X12341491Y-16192198D02*
X12227206Y-16306484D01*
X12227206Y-16306484D02*
X12351015Y-16306484D01*
X12589110Y-16306484D02*
X12589110Y-16106484D01*
X12674825Y-16306484D02*
X12674825Y-16201722D01*
X12674825Y-16201722D02*
X12665301Y-16182674D01*
X12665301Y-16182674D02*
X12646253Y-16173150D01*
X12646253Y-16173150D02*
X12617682Y-16173150D01*
X12617682Y-16173150D02*
X12598634Y-16182674D01*
X12598634Y-16182674D02*
X12589110Y-16192198D01*
X12798634Y-16306484D02*
X12779587Y-16296960D01*
X12779587Y-16296960D02*
X12770063Y-16287436D01*
X12770063Y-16287436D02*
X12760539Y-16268388D01*
X12760539Y-16268388D02*
X12760539Y-16211246D01*
X12760539Y-16211246D02*
X12770063Y-16192198D01*
X12770063Y-16192198D02*
X12779587Y-16182674D01*
X12779587Y-16182674D02*
X12798634Y-16173150D01*
X12798634Y-16173150D02*
X12827206Y-16173150D01*
X12827206Y-16173150D02*
X12846253Y-16182674D01*
X12846253Y-16182674D02*
X12855777Y-16192198D01*
X12855777Y-16192198D02*
X12865301Y-16211246D01*
X12865301Y-16211246D02*
X12865301Y-16268388D01*
X12865301Y-16268388D02*
X12855777Y-16287436D01*
X12855777Y-16287436D02*
X12846253Y-16296960D01*
X12846253Y-16296960D02*
X12827206Y-16306484D01*
X12827206Y-16306484D02*
X12798634Y-16306484D01*
X12979587Y-16306484D02*
X12960539Y-16296960D01*
X12960539Y-16296960D02*
X12951015Y-16277912D01*
X12951015Y-16277912D02*
X12951015Y-16106484D01*
X13131968Y-16296960D02*
X13112920Y-16306484D01*
X13112920Y-16306484D02*
X13074825Y-16306484D01*
X13074825Y-16306484D02*
X13055777Y-16296960D01*
X13055777Y-16296960D02*
X13046253Y-16277912D01*
X13046253Y-16277912D02*
X13046253Y-16201722D01*
X13046253Y-16201722D02*
X13055777Y-16182674D01*
X13055777Y-16182674D02*
X13074825Y-16173150D01*
X13074825Y-16173150D02*
X13112920Y-16173150D01*
X13112920Y-16173150D02*
X13131968Y-16182674D01*
X13131968Y-16182674D02*
X13141491Y-16201722D01*
X13141491Y-16201722D02*
X13141491Y-16220769D01*
X13141491Y-16220769D02*
X13046253Y-16239817D01*
X13217682Y-16296960D02*
X13236730Y-16306484D01*
X13236730Y-16306484D02*
X13274825Y-16306484D01*
X13274825Y-16306484D02*
X13293872Y-16296960D01*
X13293872Y-16296960D02*
X13303396Y-16277912D01*
X13303396Y-16277912D02*
X13303396Y-16268388D01*
X13303396Y-16268388D02*
X13293872Y-16249341D01*
X13293872Y-16249341D02*
X13274825Y-16239817D01*
X13274825Y-16239817D02*
X13246253Y-16239817D01*
X13246253Y-16239817D02*
X13227206Y-16230293D01*
X13227206Y-16230293D02*
X13217682Y-16211246D01*
X13217682Y-16211246D02*
X13217682Y-16201722D01*
X13217682Y-16201722D02*
X13227206Y-16182674D01*
X13227206Y-16182674D02*
X13246253Y-16173150D01*
X13246253Y-16173150D02*
X13274825Y-16173150D01*
X13274825Y-16173150D02*
X13293872Y-16182674D01*
X13370063Y-16382674D02*
X13379587Y-16373150D01*
X13379587Y-16373150D02*
X13398634Y-16344579D01*
X13398634Y-16344579D02*
X13408158Y-16325531D01*
X13408158Y-16325531D02*
X13417682Y-16296960D01*
X13417682Y-16296960D02*
X13427206Y-16249341D01*
X13427206Y-16249341D02*
X13427206Y-16211246D01*
X13427206Y-16211246D02*
X13417682Y-16163627D01*
X13417682Y-16163627D02*
X13408158Y-16135055D01*
X13408158Y-16135055D02*
X13398634Y-16116008D01*
X13398634Y-16116008D02*
X13379587Y-16087436D01*
X13379587Y-16087436D02*
X13370063Y-16077912D01*
D10*
X8495000Y-16429000D02*
X8595000Y-16529000D01*
X8595000Y-16429000D02*
X8495000Y-16529000D01*
X8595000Y-16479000D02*
G75*
G03*
X8595000Y-16479000I-50000J0D01*
G01*
D11*
X8960539Y-16570484D02*
X8846253Y-16570484D01*
X8903396Y-16570484D02*
X8903396Y-16370484D01*
X8903396Y-16370484D02*
X8884348Y-16399055D01*
X8884348Y-16399055D02*
X8865301Y-16418103D01*
X8865301Y-16418103D02*
X8846253Y-16427627D01*
X9046253Y-16551436D02*
X9055777Y-16560960D01*
X9055777Y-16560960D02*
X9046253Y-16570484D01*
X9046253Y-16570484D02*
X9036729Y-16560960D01*
X9036729Y-16560960D02*
X9046253Y-16551436D01*
X9046253Y-16551436D02*
X9046253Y-16570484D01*
X9179586Y-16370484D02*
X9198634Y-16370484D01*
X9198634Y-16370484D02*
X9217682Y-16380008D01*
X9217682Y-16380008D02*
X9227205Y-16389531D01*
X9227205Y-16389531D02*
X9236729Y-16408579D01*
X9236729Y-16408579D02*
X9246253Y-16446674D01*
X9246253Y-16446674D02*
X9246253Y-16494293D01*
X9246253Y-16494293D02*
X9236729Y-16532388D01*
X9236729Y-16532388D02*
X9227205Y-16551436D01*
X9227205Y-16551436D02*
X9217682Y-16560960D01*
X9217682Y-16560960D02*
X9198634Y-16570484D01*
X9198634Y-16570484D02*
X9179586Y-16570484D01*
X9179586Y-16570484D02*
X9160539Y-16560960D01*
X9160539Y-16560960D02*
X9151015Y-16551436D01*
X9151015Y-16551436D02*
X9141491Y-16532388D01*
X9141491Y-16532388D02*
X9131967Y-16494293D01*
X9131967Y-16494293D02*
X9131967Y-16446674D01*
X9131967Y-16446674D02*
X9141491Y-16408579D01*
X9141491Y-16408579D02*
X9151015Y-16389531D01*
X9151015Y-16389531D02*
X9160539Y-16380008D01*
X9160539Y-16380008D02*
X9179586Y-16370484D01*
X9370063Y-16370484D02*
X9389110Y-16370484D01*
X9389110Y-16370484D02*
X9408158Y-16380008D01*
X9408158Y-16380008D02*
X9417682Y-16389531D01*
X9417682Y-16389531D02*
X9427205Y-16408579D01*
X9427205Y-16408579D02*
X9436729Y-16446674D01*
X9436729Y-16446674D02*
X9436729Y-16494293D01*
X9436729Y-16494293D02*
X9427205Y-16532388D01*
X9427205Y-16532388D02*
X9417682Y-16551436D01*
X9417682Y-16551436D02*
X9408158Y-16560960D01*
X9408158Y-16560960D02*
X9389110Y-16570484D01*
X9389110Y-16570484D02*
X9370063Y-16570484D01*
X9370063Y-16570484D02*
X9351015Y-16560960D01*
X9351015Y-16560960D02*
X9341491Y-16551436D01*
X9341491Y-16551436D02*
X9331967Y-16532388D01*
X9331967Y-16532388D02*
X9322444Y-16494293D01*
X9322444Y-16494293D02*
X9322444Y-16446674D01*
X9322444Y-16446674D02*
X9331967Y-16408579D01*
X9331967Y-16408579D02*
X9341491Y-16389531D01*
X9341491Y-16389531D02*
X9351015Y-16380008D01*
X9351015Y-16380008D02*
X9370063Y-16370484D01*
X9560539Y-16370484D02*
X9579586Y-16370484D01*
X9579586Y-16370484D02*
X9598634Y-16380008D01*
X9598634Y-16380008D02*
X9608158Y-16389531D01*
X9608158Y-16389531D02*
X9617682Y-16408579D01*
X9617682Y-16408579D02*
X9627205Y-16446674D01*
X9627205Y-16446674D02*
X9627205Y-16494293D01*
X9627205Y-16494293D02*
X9617682Y-16532388D01*
X9617682Y-16532388D02*
X9608158Y-16551436D01*
X9608158Y-16551436D02*
X9598634Y-16560960D01*
X9598634Y-16560960D02*
X9579586Y-16570484D01*
X9579586Y-16570484D02*
X9560539Y-16570484D01*
X9560539Y-16570484D02*
X9541491Y-16560960D01*
X9541491Y-16560960D02*
X9531967Y-16551436D01*
X9531967Y-16551436D02*
X9522444Y-16532388D01*
X9522444Y-16532388D02*
X9512920Y-16494293D01*
X9512920Y-16494293D02*
X9512920Y-16446674D01*
X9512920Y-16446674D02*
X9522444Y-16408579D01*
X9522444Y-16408579D02*
X9531967Y-16389531D01*
X9531967Y-16389531D02*
X9541491Y-16380008D01*
X9541491Y-16380008D02*
X9560539Y-16370484D01*
X9712920Y-16570484D02*
X9712920Y-16437150D01*
X9712920Y-16456198D02*
X9722444Y-16446674D01*
X9722444Y-16446674D02*
X9741491Y-16437150D01*
X9741491Y-16437150D02*
X9770063Y-16437150D01*
X9770063Y-16437150D02*
X9789110Y-16446674D01*
X9789110Y-16446674D02*
X9798634Y-16465722D01*
X9798634Y-16465722D02*
X9798634Y-16570484D01*
X9798634Y-16465722D02*
X9808158Y-16446674D01*
X9808158Y-16446674D02*
X9827205Y-16437150D01*
X9827205Y-16437150D02*
X9855777Y-16437150D01*
X9855777Y-16437150D02*
X9874825Y-16446674D01*
X9874825Y-16446674D02*
X9884348Y-16465722D01*
X9884348Y-16465722D02*
X9884348Y-16570484D01*
X9979586Y-16570484D02*
X9979586Y-16437150D01*
X9979586Y-16456198D02*
X9989110Y-16446674D01*
X9989110Y-16446674D02*
X10008158Y-16437150D01*
X10008158Y-16437150D02*
X10036729Y-16437150D01*
X10036729Y-16437150D02*
X10055777Y-16446674D01*
X10055777Y-16446674D02*
X10065301Y-16465722D01*
X10065301Y-16465722D02*
X10065301Y-16570484D01*
X10065301Y-16465722D02*
X10074825Y-16446674D01*
X10074825Y-16446674D02*
X10093872Y-16437150D01*
X10093872Y-16437150D02*
X10122444Y-16437150D01*
X10122444Y-16437150D02*
X10141491Y-16446674D01*
X10141491Y-16446674D02*
X10151015Y-16465722D01*
X10151015Y-16465722D02*
X10151015Y-16570484D01*
X10541491Y-16360960D02*
X10370063Y-16618103D01*
X10798634Y-16370484D02*
X10817682Y-16370484D01*
X10817682Y-16370484D02*
X10836729Y-16380008D01*
X10836729Y-16380008D02*
X10846253Y-16389531D01*
X10846253Y-16389531D02*
X10855777Y-16408579D01*
X10855777Y-16408579D02*
X10865301Y-16446674D01*
X10865301Y-16446674D02*
X10865301Y-16494293D01*
X10865301Y-16494293D02*
X10855777Y-16532388D01*
X10855777Y-16532388D02*
X10846253Y-16551436D01*
X10846253Y-16551436D02*
X10836729Y-16560960D01*
X10836729Y-16560960D02*
X10817682Y-16570484D01*
X10817682Y-16570484D02*
X10798634Y-16570484D01*
X10798634Y-16570484D02*
X10779587Y-16560960D01*
X10779587Y-16560960D02*
X10770063Y-16551436D01*
X10770063Y-16551436D02*
X10760539Y-16532388D01*
X10760539Y-16532388D02*
X10751015Y-16494293D01*
X10751015Y-16494293D02*
X10751015Y-16446674D01*
X10751015Y-16446674D02*
X10760539Y-16408579D01*
X10760539Y-16408579D02*
X10770063Y-16389531D01*
X10770063Y-16389531D02*
X10779587Y-16380008D01*
X10779587Y-16380008D02*
X10798634Y-16370484D01*
X10951015Y-16551436D02*
X10960539Y-16560960D01*
X10960539Y-16560960D02*
X10951015Y-16570484D01*
X10951015Y-16570484D02*
X10941491Y-16560960D01*
X10941491Y-16560960D02*
X10951015Y-16551436D01*
X10951015Y-16551436D02*
X10951015Y-16570484D01*
X11084348Y-16370484D02*
X11103396Y-16370484D01*
X11103396Y-16370484D02*
X11122444Y-16380008D01*
X11122444Y-16380008D02*
X11131968Y-16389531D01*
X11131968Y-16389531D02*
X11141491Y-16408579D01*
X11141491Y-16408579D02*
X11151015Y-16446674D01*
X11151015Y-16446674D02*
X11151015Y-16494293D01*
X11151015Y-16494293D02*
X11141491Y-16532388D01*
X11141491Y-16532388D02*
X11131968Y-16551436D01*
X11131968Y-16551436D02*
X11122444Y-16560960D01*
X11122444Y-16560960D02*
X11103396Y-16570484D01*
X11103396Y-16570484D02*
X11084348Y-16570484D01*
X11084348Y-16570484D02*
X11065301Y-16560960D01*
X11065301Y-16560960D02*
X11055777Y-16551436D01*
X11055777Y-16551436D02*
X11046253Y-16532388D01*
X11046253Y-16532388D02*
X11036729Y-16494293D01*
X11036729Y-16494293D02*
X11036729Y-16446674D01*
X11036729Y-16446674D02*
X11046253Y-16408579D01*
X11046253Y-16408579D02*
X11055777Y-16389531D01*
X11055777Y-16389531D02*
X11065301Y-16380008D01*
X11065301Y-16380008D02*
X11084348Y-16370484D01*
X11217682Y-16370484D02*
X11341491Y-16370484D01*
X11341491Y-16370484D02*
X11274825Y-16446674D01*
X11274825Y-16446674D02*
X11303396Y-16446674D01*
X11303396Y-16446674D02*
X11322444Y-16456198D01*
X11322444Y-16456198D02*
X11331967Y-16465722D01*
X11331967Y-16465722D02*
X11341491Y-16484769D01*
X11341491Y-16484769D02*
X11341491Y-16532388D01*
X11341491Y-16532388D02*
X11331967Y-16551436D01*
X11331967Y-16551436D02*
X11322444Y-16560960D01*
X11322444Y-16560960D02*
X11303396Y-16570484D01*
X11303396Y-16570484D02*
X11246253Y-16570484D01*
X11246253Y-16570484D02*
X11227206Y-16560960D01*
X11227206Y-16560960D02*
X11217682Y-16551436D01*
X11436729Y-16570484D02*
X11474825Y-16570484D01*
X11474825Y-16570484D02*
X11493872Y-16560960D01*
X11493872Y-16560960D02*
X11503396Y-16551436D01*
X11503396Y-16551436D02*
X11522444Y-16522865D01*
X11522444Y-16522865D02*
X11531967Y-16484769D01*
X11531967Y-16484769D02*
X11531967Y-16408579D01*
X11531967Y-16408579D02*
X11522444Y-16389531D01*
X11522444Y-16389531D02*
X11512920Y-16380008D01*
X11512920Y-16380008D02*
X11493872Y-16370484D01*
X11493872Y-16370484D02*
X11455777Y-16370484D01*
X11455777Y-16370484D02*
X11436729Y-16380008D01*
X11436729Y-16380008D02*
X11427206Y-16389531D01*
X11427206Y-16389531D02*
X11417682Y-16408579D01*
X11417682Y-16408579D02*
X11417682Y-16456198D01*
X11417682Y-16456198D02*
X11427206Y-16475246D01*
X11427206Y-16475246D02*
X11436729Y-16484769D01*
X11436729Y-16484769D02*
X11455777Y-16494293D01*
X11455777Y-16494293D02*
X11493872Y-16494293D01*
X11493872Y-16494293D02*
X11512920Y-16484769D01*
X11512920Y-16484769D02*
X11522444Y-16475246D01*
X11522444Y-16475246D02*
X11531967Y-16456198D01*
X11703396Y-16437150D02*
X11703396Y-16570484D01*
X11655777Y-16360960D02*
X11608158Y-16503817D01*
X11608158Y-16503817D02*
X11731967Y-16503817D01*
X11798634Y-16370484D02*
X11798634Y-16408579D01*
X11874825Y-16370484D02*
X11874825Y-16408579D01*
X12170063Y-16646674D02*
X12160539Y-16637150D01*
X12160539Y-16637150D02*
X12141491Y-16608579D01*
X12141491Y-16608579D02*
X12131968Y-16589531D01*
X12131968Y-16589531D02*
X12122444Y-16560960D01*
X12122444Y-16560960D02*
X12112920Y-16513341D01*
X12112920Y-16513341D02*
X12112920Y-16475246D01*
X12112920Y-16475246D02*
X12122444Y-16427627D01*
X12122444Y-16427627D02*
X12131968Y-16399055D01*
X12131968Y-16399055D02*
X12141491Y-16380008D01*
X12141491Y-16380008D02*
X12160539Y-16351436D01*
X12160539Y-16351436D02*
X12170063Y-16341912D01*
X12274825Y-16456198D02*
X12255777Y-16446674D01*
X12255777Y-16446674D02*
X12246253Y-16437150D01*
X12246253Y-16437150D02*
X12236729Y-16418103D01*
X12236729Y-16418103D02*
X12236729Y-16408579D01*
X12236729Y-16408579D02*
X12246253Y-16389531D01*
X12246253Y-16389531D02*
X12255777Y-16380008D01*
X12255777Y-16380008D02*
X12274825Y-16370484D01*
X12274825Y-16370484D02*
X12312920Y-16370484D01*
X12312920Y-16370484D02*
X12331968Y-16380008D01*
X12331968Y-16380008D02*
X12341491Y-16389531D01*
X12341491Y-16389531D02*
X12351015Y-16408579D01*
X12351015Y-16408579D02*
X12351015Y-16418103D01*
X12351015Y-16418103D02*
X12341491Y-16437150D01*
X12341491Y-16437150D02*
X12331968Y-16446674D01*
X12331968Y-16446674D02*
X12312920Y-16456198D01*
X12312920Y-16456198D02*
X12274825Y-16456198D01*
X12274825Y-16456198D02*
X12255777Y-16465722D01*
X12255777Y-16465722D02*
X12246253Y-16475246D01*
X12246253Y-16475246D02*
X12236729Y-16494293D01*
X12236729Y-16494293D02*
X12236729Y-16532388D01*
X12236729Y-16532388D02*
X12246253Y-16551436D01*
X12246253Y-16551436D02*
X12255777Y-16560960D01*
X12255777Y-16560960D02*
X12274825Y-16570484D01*
X12274825Y-16570484D02*
X12312920Y-16570484D01*
X12312920Y-16570484D02*
X12331968Y-16560960D01*
X12331968Y-16560960D02*
X12341491Y-16551436D01*
X12341491Y-16551436D02*
X12351015Y-16532388D01*
X12351015Y-16532388D02*
X12351015Y-16494293D01*
X12351015Y-16494293D02*
X12341491Y-16475246D01*
X12341491Y-16475246D02*
X12331968Y-16465722D01*
X12331968Y-16465722D02*
X12312920Y-16456198D01*
X12427206Y-16389531D02*
X12436729Y-16380008D01*
X12436729Y-16380008D02*
X12455777Y-16370484D01*
X12455777Y-16370484D02*
X12503396Y-16370484D01*
X12503396Y-16370484D02*
X12522444Y-16380008D01*
X12522444Y-16380008D02*
X12531968Y-16389531D01*
X12531968Y-16389531D02*
X12541491Y-16408579D01*
X12541491Y-16408579D02*
X12541491Y-16427627D01*
X12541491Y-16427627D02*
X12531968Y-16456198D01*
X12531968Y-16456198D02*
X12417682Y-16570484D01*
X12417682Y-16570484D02*
X12541491Y-16570484D01*
X12779587Y-16570484D02*
X12779587Y-16370484D01*
X12865301Y-16570484D02*
X12865301Y-16465722D01*
X12865301Y-16465722D02*
X12855777Y-16446674D01*
X12855777Y-16446674D02*
X12836730Y-16437150D01*
X12836730Y-16437150D02*
X12808158Y-16437150D01*
X12808158Y-16437150D02*
X12789110Y-16446674D01*
X12789110Y-16446674D02*
X12779587Y-16456198D01*
X12989110Y-16570484D02*
X12970063Y-16560960D01*
X12970063Y-16560960D02*
X12960539Y-16551436D01*
X12960539Y-16551436D02*
X12951015Y-16532388D01*
X12951015Y-16532388D02*
X12951015Y-16475246D01*
X12951015Y-16475246D02*
X12960539Y-16456198D01*
X12960539Y-16456198D02*
X12970063Y-16446674D01*
X12970063Y-16446674D02*
X12989110Y-16437150D01*
X12989110Y-16437150D02*
X13017682Y-16437150D01*
X13017682Y-16437150D02*
X13036730Y-16446674D01*
X13036730Y-16446674D02*
X13046253Y-16456198D01*
X13046253Y-16456198D02*
X13055777Y-16475246D01*
X13055777Y-16475246D02*
X13055777Y-16532388D01*
X13055777Y-16532388D02*
X13046253Y-16551436D01*
X13046253Y-16551436D02*
X13036730Y-16560960D01*
X13036730Y-16560960D02*
X13017682Y-16570484D01*
X13017682Y-16570484D02*
X12989110Y-16570484D01*
X13170063Y-16570484D02*
X13151015Y-16560960D01*
X13151015Y-16560960D02*
X13141491Y-16541912D01*
X13141491Y-16541912D02*
X13141491Y-16370484D01*
X13322444Y-16560960D02*
X13303396Y-16570484D01*
X13303396Y-16570484D02*
X13265301Y-16570484D01*
X13265301Y-16570484D02*
X13246253Y-16560960D01*
X13246253Y-16560960D02*
X13236730Y-16541912D01*
X13236730Y-16541912D02*
X13236730Y-16465722D01*
X13236730Y-16465722D02*
X13246253Y-16446674D01*
X13246253Y-16446674D02*
X13265301Y-16437150D01*
X13265301Y-16437150D02*
X13303396Y-16437150D01*
X13303396Y-16437150D02*
X13322444Y-16446674D01*
X13322444Y-16446674D02*
X13331968Y-16465722D01*
X13331968Y-16465722D02*
X13331968Y-16484769D01*
X13331968Y-16484769D02*
X13236730Y-16503817D01*
X13408158Y-16560960D02*
X13427206Y-16570484D01*
X13427206Y-16570484D02*
X13465301Y-16570484D01*
X13465301Y-16570484D02*
X13484349Y-16560960D01*
X13484349Y-16560960D02*
X13493872Y-16541912D01*
X13493872Y-16541912D02*
X13493872Y-16532388D01*
X13493872Y-16532388D02*
X13484349Y-16513341D01*
X13484349Y-16513341D02*
X13465301Y-16503817D01*
X13465301Y-16503817D02*
X13436730Y-16503817D01*
X13436730Y-16503817D02*
X13417682Y-16494293D01*
X13417682Y-16494293D02*
X13408158Y-16475246D01*
X13408158Y-16475246D02*
X13408158Y-16465722D01*
X13408158Y-16465722D02*
X13417682Y-16446674D01*
X13417682Y-16446674D02*
X13436730Y-16437150D01*
X13436730Y-16437150D02*
X13465301Y-16437150D01*
X13465301Y-16437150D02*
X13484349Y-16446674D01*
X13731968Y-16494293D02*
X13884349Y-16494293D01*
X13808158Y-16570484D02*
X13808158Y-16418103D01*
X14122444Y-16389531D02*
X14131968Y-16380008D01*
X14131968Y-16380008D02*
X14151015Y-16370484D01*
X14151015Y-16370484D02*
X14198634Y-16370484D01*
X14198634Y-16370484D02*
X14217682Y-16380008D01*
X14217682Y-16380008D02*
X14227206Y-16389531D01*
X14227206Y-16389531D02*
X14236730Y-16408579D01*
X14236730Y-16408579D02*
X14236730Y-16427627D01*
X14236730Y-16427627D02*
X14227206Y-16456198D01*
X14227206Y-16456198D02*
X14112920Y-16570484D01*
X14112920Y-16570484D02*
X14236730Y-16570484D01*
X14465301Y-16560960D02*
X14484349Y-16570484D01*
X14484349Y-16570484D02*
X14522444Y-16570484D01*
X14522444Y-16570484D02*
X14541492Y-16560960D01*
X14541492Y-16560960D02*
X14551015Y-16541912D01*
X14551015Y-16541912D02*
X14551015Y-16532388D01*
X14551015Y-16532388D02*
X14541492Y-16513341D01*
X14541492Y-16513341D02*
X14522444Y-16503817D01*
X14522444Y-16503817D02*
X14493873Y-16503817D01*
X14493873Y-16503817D02*
X14474825Y-16494293D01*
X14474825Y-16494293D02*
X14465301Y-16475246D01*
X14465301Y-16475246D02*
X14465301Y-16465722D01*
X14465301Y-16465722D02*
X14474825Y-16446674D01*
X14474825Y-16446674D02*
X14493873Y-16437150D01*
X14493873Y-16437150D02*
X14522444Y-16437150D01*
X14522444Y-16437150D02*
X14541492Y-16446674D01*
X14665301Y-16570484D02*
X14646254Y-16560960D01*
X14646254Y-16560960D02*
X14636730Y-16541912D01*
X14636730Y-16541912D02*
X14636730Y-16370484D01*
X14770063Y-16570484D02*
X14751015Y-16560960D01*
X14751015Y-16560960D02*
X14741492Y-16551436D01*
X14741492Y-16551436D02*
X14731968Y-16532388D01*
X14731968Y-16532388D02*
X14731968Y-16475246D01*
X14731968Y-16475246D02*
X14741492Y-16456198D01*
X14741492Y-16456198D02*
X14751015Y-16446674D01*
X14751015Y-16446674D02*
X14770063Y-16437150D01*
X14770063Y-16437150D02*
X14798635Y-16437150D01*
X14798635Y-16437150D02*
X14817682Y-16446674D01*
X14817682Y-16446674D02*
X14827206Y-16456198D01*
X14827206Y-16456198D02*
X14836730Y-16475246D01*
X14836730Y-16475246D02*
X14836730Y-16532388D01*
X14836730Y-16532388D02*
X14827206Y-16551436D01*
X14827206Y-16551436D02*
X14817682Y-16560960D01*
X14817682Y-16560960D02*
X14798635Y-16570484D01*
X14798635Y-16570484D02*
X14770063Y-16570484D01*
X14893873Y-16437150D02*
X14970063Y-16437150D01*
X14922444Y-16370484D02*
X14922444Y-16541912D01*
X14922444Y-16541912D02*
X14931968Y-16560960D01*
X14931968Y-16560960D02*
X14951015Y-16570484D01*
X14951015Y-16570484D02*
X14970063Y-16570484D01*
X15027206Y-16560960D02*
X15046254Y-16570484D01*
X15046254Y-16570484D02*
X15084349Y-16570484D01*
X15084349Y-16570484D02*
X15103396Y-16560960D01*
X15103396Y-16560960D02*
X15112920Y-16541912D01*
X15112920Y-16541912D02*
X15112920Y-16532388D01*
X15112920Y-16532388D02*
X15103396Y-16513341D01*
X15103396Y-16513341D02*
X15084349Y-16503817D01*
X15084349Y-16503817D02*
X15055777Y-16503817D01*
X15055777Y-16503817D02*
X15036730Y-16494293D01*
X15036730Y-16494293D02*
X15027206Y-16475246D01*
X15027206Y-16475246D02*
X15027206Y-16465722D01*
X15027206Y-16465722D02*
X15036730Y-16446674D01*
X15036730Y-16446674D02*
X15055777Y-16437150D01*
X15055777Y-16437150D02*
X15084349Y-16437150D01*
X15084349Y-16437150D02*
X15103396Y-16446674D01*
X15179587Y-16646674D02*
X15189111Y-16637150D01*
X15189111Y-16637150D02*
X15208158Y-16608579D01*
X15208158Y-16608579D02*
X15217682Y-16589531D01*
X15217682Y-16589531D02*
X15227206Y-16560960D01*
X15227206Y-16560960D02*
X15236730Y-16513341D01*
X15236730Y-16513341D02*
X15236730Y-16475246D01*
X15236730Y-16475246D02*
X15227206Y-16427627D01*
X15227206Y-16427627D02*
X15217682Y-16399055D01*
X15217682Y-16399055D02*
X15208158Y-16380008D01*
X15208158Y-16380008D02*
X15189111Y-16351436D01*
X15189111Y-16351436D02*
X15179587Y-16341912D01*
D17*
X8485000Y-16688000D02*
X8595000Y-16798000D01*
X8595000Y-16688000D02*
X8485000Y-16798000D01*
X8540000Y-16688000D02*
X8540000Y-16798000D01*
X8485000Y-16743000D02*
X8595000Y-16743000D01*
D11*
X8960539Y-16834484D02*
X8846253Y-16834484D01*
X8903396Y-16834484D02*
X8903396Y-16634484D01*
X8903396Y-16634484D02*
X8884348Y-16663055D01*
X8884348Y-16663055D02*
X8865301Y-16682103D01*
X8865301Y-16682103D02*
X8846253Y-16691627D01*
X9046253Y-16815436D02*
X9055777Y-16824960D01*
X9055777Y-16824960D02*
X9046253Y-16834484D01*
X9046253Y-16834484D02*
X9036729Y-16824960D01*
X9036729Y-16824960D02*
X9046253Y-16815436D01*
X9046253Y-16815436D02*
X9046253Y-16834484D01*
X9246253Y-16834484D02*
X9131967Y-16834484D01*
X9189110Y-16834484D02*
X9189110Y-16634484D01*
X9189110Y-16634484D02*
X9170063Y-16663055D01*
X9170063Y-16663055D02*
X9151015Y-16682103D01*
X9151015Y-16682103D02*
X9131967Y-16691627D01*
X9370063Y-16634484D02*
X9389110Y-16634484D01*
X9389110Y-16634484D02*
X9408158Y-16644008D01*
X9408158Y-16644008D02*
X9417682Y-16653531D01*
X9417682Y-16653531D02*
X9427205Y-16672579D01*
X9427205Y-16672579D02*
X9436729Y-16710674D01*
X9436729Y-16710674D02*
X9436729Y-16758293D01*
X9436729Y-16758293D02*
X9427205Y-16796389D01*
X9427205Y-16796389D02*
X9417682Y-16815436D01*
X9417682Y-16815436D02*
X9408158Y-16824960D01*
X9408158Y-16824960D02*
X9389110Y-16834484D01*
X9389110Y-16834484D02*
X9370063Y-16834484D01*
X9370063Y-16834484D02*
X9351015Y-16824960D01*
X9351015Y-16824960D02*
X9341491Y-16815436D01*
X9341491Y-16815436D02*
X9331967Y-16796389D01*
X9331967Y-16796389D02*
X9322444Y-16758293D01*
X9322444Y-16758293D02*
X9322444Y-16710674D01*
X9322444Y-16710674D02*
X9331967Y-16672579D01*
X9331967Y-16672579D02*
X9341491Y-16653531D01*
X9341491Y-16653531D02*
X9351015Y-16644008D01*
X9351015Y-16644008D02*
X9370063Y-16634484D01*
X9560539Y-16634484D02*
X9579586Y-16634484D01*
X9579586Y-16634484D02*
X9598634Y-16644008D01*
X9598634Y-16644008D02*
X9608158Y-16653531D01*
X9608158Y-16653531D02*
X9617682Y-16672579D01*
X9617682Y-16672579D02*
X9627205Y-16710674D01*
X9627205Y-16710674D02*
X9627205Y-16758293D01*
X9627205Y-16758293D02*
X9617682Y-16796389D01*
X9617682Y-16796389D02*
X9608158Y-16815436D01*
X9608158Y-16815436D02*
X9598634Y-16824960D01*
X9598634Y-16824960D02*
X9579586Y-16834484D01*
X9579586Y-16834484D02*
X9560539Y-16834484D01*
X9560539Y-16834484D02*
X9541491Y-16824960D01*
X9541491Y-16824960D02*
X9531967Y-16815436D01*
X9531967Y-16815436D02*
X9522444Y-16796389D01*
X9522444Y-16796389D02*
X9512920Y-16758293D01*
X9512920Y-16758293D02*
X9512920Y-16710674D01*
X9512920Y-16710674D02*
X9522444Y-16672579D01*
X9522444Y-16672579D02*
X9531967Y-16653531D01*
X9531967Y-16653531D02*
X9541491Y-16644008D01*
X9541491Y-16644008D02*
X9560539Y-16634484D01*
X9712920Y-16834484D02*
X9712920Y-16701150D01*
X9712920Y-16720198D02*
X9722444Y-16710674D01*
X9722444Y-16710674D02*
X9741491Y-16701150D01*
X9741491Y-16701150D02*
X9770063Y-16701150D01*
X9770063Y-16701150D02*
X9789110Y-16710674D01*
X9789110Y-16710674D02*
X9798634Y-16729722D01*
X9798634Y-16729722D02*
X9798634Y-16834484D01*
X9798634Y-16729722D02*
X9808158Y-16710674D01*
X9808158Y-16710674D02*
X9827205Y-16701150D01*
X9827205Y-16701150D02*
X9855777Y-16701150D01*
X9855777Y-16701150D02*
X9874825Y-16710674D01*
X9874825Y-16710674D02*
X9884348Y-16729722D01*
X9884348Y-16729722D02*
X9884348Y-16834484D01*
X9979586Y-16834484D02*
X9979586Y-16701150D01*
X9979586Y-16720198D02*
X9989110Y-16710674D01*
X9989110Y-16710674D02*
X10008158Y-16701150D01*
X10008158Y-16701150D02*
X10036729Y-16701150D01*
X10036729Y-16701150D02*
X10055777Y-16710674D01*
X10055777Y-16710674D02*
X10065301Y-16729722D01*
X10065301Y-16729722D02*
X10065301Y-16834484D01*
X10065301Y-16729722D02*
X10074825Y-16710674D01*
X10074825Y-16710674D02*
X10093872Y-16701150D01*
X10093872Y-16701150D02*
X10122444Y-16701150D01*
X10122444Y-16701150D02*
X10141491Y-16710674D01*
X10141491Y-16710674D02*
X10151015Y-16729722D01*
X10151015Y-16729722D02*
X10151015Y-16834484D01*
X10541491Y-16624960D02*
X10370063Y-16882103D01*
X10798634Y-16634484D02*
X10817682Y-16634484D01*
X10817682Y-16634484D02*
X10836729Y-16644008D01*
X10836729Y-16644008D02*
X10846253Y-16653531D01*
X10846253Y-16653531D02*
X10855777Y-16672579D01*
X10855777Y-16672579D02*
X10865301Y-16710674D01*
X10865301Y-16710674D02*
X10865301Y-16758293D01*
X10865301Y-16758293D02*
X10855777Y-16796389D01*
X10855777Y-16796389D02*
X10846253Y-16815436D01*
X10846253Y-16815436D02*
X10836729Y-16824960D01*
X10836729Y-16824960D02*
X10817682Y-16834484D01*
X10817682Y-16834484D02*
X10798634Y-16834484D01*
X10798634Y-16834484D02*
X10779587Y-16824960D01*
X10779587Y-16824960D02*
X10770063Y-16815436D01*
X10770063Y-16815436D02*
X10760539Y-16796389D01*
X10760539Y-16796389D02*
X10751015Y-16758293D01*
X10751015Y-16758293D02*
X10751015Y-16710674D01*
X10751015Y-16710674D02*
X10760539Y-16672579D01*
X10760539Y-16672579D02*
X10770063Y-16653531D01*
X10770063Y-16653531D02*
X10779587Y-16644008D01*
X10779587Y-16644008D02*
X10798634Y-16634484D01*
X10951015Y-16815436D02*
X10960539Y-16824960D01*
X10960539Y-16824960D02*
X10951015Y-16834484D01*
X10951015Y-16834484D02*
X10941491Y-16824960D01*
X10941491Y-16824960D02*
X10951015Y-16815436D01*
X10951015Y-16815436D02*
X10951015Y-16834484D01*
X11084348Y-16634484D02*
X11103396Y-16634484D01*
X11103396Y-16634484D02*
X11122444Y-16644008D01*
X11122444Y-16644008D02*
X11131968Y-16653531D01*
X11131968Y-16653531D02*
X11141491Y-16672579D01*
X11141491Y-16672579D02*
X11151015Y-16710674D01*
X11151015Y-16710674D02*
X11151015Y-16758293D01*
X11151015Y-16758293D02*
X11141491Y-16796389D01*
X11141491Y-16796389D02*
X11131968Y-16815436D01*
X11131968Y-16815436D02*
X11122444Y-16824960D01*
X11122444Y-16824960D02*
X11103396Y-16834484D01*
X11103396Y-16834484D02*
X11084348Y-16834484D01*
X11084348Y-16834484D02*
X11065301Y-16824960D01*
X11065301Y-16824960D02*
X11055777Y-16815436D01*
X11055777Y-16815436D02*
X11046253Y-16796389D01*
X11046253Y-16796389D02*
X11036729Y-16758293D01*
X11036729Y-16758293D02*
X11036729Y-16710674D01*
X11036729Y-16710674D02*
X11046253Y-16672579D01*
X11046253Y-16672579D02*
X11055777Y-16653531D01*
X11055777Y-16653531D02*
X11065301Y-16644008D01*
X11065301Y-16644008D02*
X11084348Y-16634484D01*
X11322444Y-16701150D02*
X11322444Y-16834484D01*
X11274825Y-16624960D02*
X11227206Y-16767817D01*
X11227206Y-16767817D02*
X11351015Y-16767817D01*
X11408158Y-16634484D02*
X11531967Y-16634484D01*
X11531967Y-16634484D02*
X11465301Y-16710674D01*
X11465301Y-16710674D02*
X11493872Y-16710674D01*
X11493872Y-16710674D02*
X11512920Y-16720198D01*
X11512920Y-16720198D02*
X11522444Y-16729722D01*
X11522444Y-16729722D02*
X11531967Y-16748769D01*
X11531967Y-16748769D02*
X11531967Y-16796389D01*
X11531967Y-16796389D02*
X11522444Y-16815436D01*
X11522444Y-16815436D02*
X11512920Y-16824960D01*
X11512920Y-16824960D02*
X11493872Y-16834484D01*
X11493872Y-16834484D02*
X11436729Y-16834484D01*
X11436729Y-16834484D02*
X11417682Y-16824960D01*
X11417682Y-16824960D02*
X11408158Y-16815436D01*
X11598634Y-16634484D02*
X11722444Y-16634484D01*
X11722444Y-16634484D02*
X11655777Y-16710674D01*
X11655777Y-16710674D02*
X11684348Y-16710674D01*
X11684348Y-16710674D02*
X11703396Y-16720198D01*
X11703396Y-16720198D02*
X11712920Y-16729722D01*
X11712920Y-16729722D02*
X11722444Y-16748769D01*
X11722444Y-16748769D02*
X11722444Y-16796389D01*
X11722444Y-16796389D02*
X11712920Y-16815436D01*
X11712920Y-16815436D02*
X11703396Y-16824960D01*
X11703396Y-16824960D02*
X11684348Y-16834484D01*
X11684348Y-16834484D02*
X11627206Y-16834484D01*
X11627206Y-16834484D02*
X11608158Y-16824960D01*
X11608158Y-16824960D02*
X11598634Y-16815436D01*
X11798634Y-16634484D02*
X11798634Y-16672579D01*
X11874825Y-16634484D02*
X11874825Y-16672579D01*
X12170063Y-16910674D02*
X12160539Y-16901150D01*
X12160539Y-16901150D02*
X12141491Y-16872579D01*
X12141491Y-16872579D02*
X12131968Y-16853531D01*
X12131968Y-16853531D02*
X12122444Y-16824960D01*
X12122444Y-16824960D02*
X12112920Y-16777341D01*
X12112920Y-16777341D02*
X12112920Y-16739246D01*
X12112920Y-16739246D02*
X12122444Y-16691627D01*
X12122444Y-16691627D02*
X12131968Y-16663055D01*
X12131968Y-16663055D02*
X12141491Y-16644008D01*
X12141491Y-16644008D02*
X12160539Y-16615436D01*
X12160539Y-16615436D02*
X12170063Y-16605912D01*
X12351015Y-16834484D02*
X12236729Y-16834484D01*
X12293872Y-16834484D02*
X12293872Y-16634484D01*
X12293872Y-16634484D02*
X12274825Y-16663055D01*
X12274825Y-16663055D02*
X12255777Y-16682103D01*
X12255777Y-16682103D02*
X12236729Y-16691627D01*
X12541491Y-16834484D02*
X12427206Y-16834484D01*
X12484348Y-16834484D02*
X12484348Y-16634484D01*
X12484348Y-16634484D02*
X12465301Y-16663055D01*
X12465301Y-16663055D02*
X12446253Y-16682103D01*
X12446253Y-16682103D02*
X12427206Y-16691627D01*
X12779587Y-16834484D02*
X12779587Y-16634484D01*
X12865301Y-16834484D02*
X12865301Y-16729722D01*
X12865301Y-16729722D02*
X12855777Y-16710674D01*
X12855777Y-16710674D02*
X12836730Y-16701150D01*
X12836730Y-16701150D02*
X12808158Y-16701150D01*
X12808158Y-16701150D02*
X12789110Y-16710674D01*
X12789110Y-16710674D02*
X12779587Y-16720198D01*
X12989110Y-16834484D02*
X12970063Y-16824960D01*
X12970063Y-16824960D02*
X12960539Y-16815436D01*
X12960539Y-16815436D02*
X12951015Y-16796389D01*
X12951015Y-16796389D02*
X12951015Y-16739246D01*
X12951015Y-16739246D02*
X12960539Y-16720198D01*
X12960539Y-16720198D02*
X12970063Y-16710674D01*
X12970063Y-16710674D02*
X12989110Y-16701150D01*
X12989110Y-16701150D02*
X13017682Y-16701150D01*
X13017682Y-16701150D02*
X13036730Y-16710674D01*
X13036730Y-16710674D02*
X13046253Y-16720198D01*
X13046253Y-16720198D02*
X13055777Y-16739246D01*
X13055777Y-16739246D02*
X13055777Y-16796389D01*
X13055777Y-16796389D02*
X13046253Y-16815436D01*
X13046253Y-16815436D02*
X13036730Y-16824960D01*
X13036730Y-16824960D02*
X13017682Y-16834484D01*
X13017682Y-16834484D02*
X12989110Y-16834484D01*
X13170063Y-16834484D02*
X13151015Y-16824960D01*
X13151015Y-16824960D02*
X13141491Y-16805912D01*
X13141491Y-16805912D02*
X13141491Y-16634484D01*
X13322444Y-16824960D02*
X13303396Y-16834484D01*
X13303396Y-16834484D02*
X13265301Y-16834484D01*
X13265301Y-16834484D02*
X13246253Y-16824960D01*
X13246253Y-16824960D02*
X13236730Y-16805912D01*
X13236730Y-16805912D02*
X13236730Y-16729722D01*
X13236730Y-16729722D02*
X13246253Y-16710674D01*
X13246253Y-16710674D02*
X13265301Y-16701150D01*
X13265301Y-16701150D02*
X13303396Y-16701150D01*
X13303396Y-16701150D02*
X13322444Y-16710674D01*
X13322444Y-16710674D02*
X13331968Y-16729722D01*
X13331968Y-16729722D02*
X13331968Y-16748769D01*
X13331968Y-16748769D02*
X13236730Y-16767817D01*
X13408158Y-16824960D02*
X13427206Y-16834484D01*
X13427206Y-16834484D02*
X13465301Y-16834484D01*
X13465301Y-16834484D02*
X13484349Y-16824960D01*
X13484349Y-16824960D02*
X13493872Y-16805912D01*
X13493872Y-16805912D02*
X13493872Y-16796389D01*
X13493872Y-16796389D02*
X13484349Y-16777341D01*
X13484349Y-16777341D02*
X13465301Y-16767817D01*
X13465301Y-16767817D02*
X13436730Y-16767817D01*
X13436730Y-16767817D02*
X13417682Y-16758293D01*
X13417682Y-16758293D02*
X13408158Y-16739246D01*
X13408158Y-16739246D02*
X13408158Y-16729722D01*
X13408158Y-16729722D02*
X13417682Y-16710674D01*
X13417682Y-16710674D02*
X13436730Y-16701150D01*
X13436730Y-16701150D02*
X13465301Y-16701150D01*
X13465301Y-16701150D02*
X13484349Y-16710674D01*
X13560539Y-16910674D02*
X13570063Y-16901150D01*
X13570063Y-16901150D02*
X13589111Y-16872579D01*
X13589111Y-16872579D02*
X13598634Y-16853531D01*
X13598634Y-16853531D02*
X13608158Y-16824960D01*
X13608158Y-16824960D02*
X13617682Y-16777341D01*
X13617682Y-16777341D02*
X13617682Y-16739246D01*
X13617682Y-16739246D02*
X13608158Y-16691627D01*
X13608158Y-16691627D02*
X13598634Y-16663055D01*
X13598634Y-16663055D02*
X13589111Y-16644008D01*
X13589111Y-16644008D02*
X13570063Y-16615436D01*
X13570063Y-16615436D02*
X13560539Y-16605912D01*
M02*
