%TF.GenerationSoftware,KiCad,Pcbnew,7.0.5*%
%TF.CreationDate,2023-12-17T10:26:12+13:00*%
%TF.ProjectId,main_board,6d61696e-5f62-46f6-9172-642e6b696361,2*%
%TF.SameCoordinates,Original*%
%TF.FileFunction,Drillmap*%
%TF.FilePolarity,Positive*%
%FSLAX45Y45*%
G04 Gerber Fmt 4.5, Leading zero omitted, Abs format (unit mm)*
G04 Created by KiCad (PCBNEW 7.0.5) date 2023-12-17 10:26:12*
%MOMM*%
%LPD*%
G01*
G04 APERTURE LIST*
%ADD10C,0.100000*%
%ADD11C,0.200000*%
%ADD12C,0.320000*%
G04 APERTURE END LIST*
D10*
X9000000Y-4514000D02*
G75*
G03*
X8600000Y-4914000I0J-400000D01*
G01*
X9000000Y-14514000D02*
X18200000Y-14514000D01*
X16253460Y-5463541D02*
G75*
G03*
X16184880Y-5529580I0J-68629D01*
G01*
X16184880Y-6446520D02*
X16184880Y-5529580D01*
X18200000Y-14514000D02*
G75*
G03*
X18600000Y-14114000I0J400000D01*
G01*
X17167860Y-6512560D02*
X16250920Y-6512560D01*
X18200000Y-4514000D02*
X9000000Y-4514000D01*
X17233900Y-5529580D02*
G75*
G03*
X17167860Y-5463540I-66040J0D01*
G01*
X17233900Y-5529580D02*
X17233900Y-6446520D01*
X17167860Y-6512560D02*
G75*
G03*
X17233900Y-6446520I0J66040D01*
G01*
X16253460Y-5463540D02*
X17167860Y-5463540D01*
X16184880Y-6446520D02*
G75*
G03*
X16250920Y-6512560I66040J0D01*
G01*
X18600000Y-14114000D02*
X18600000Y-4914000D01*
X8600000Y-14114000D02*
G75*
G03*
X9000000Y-14514000I400000J0D01*
G01*
X8600000Y-4914000D02*
X8600000Y-14114000D01*
X18600000Y-4914000D02*
G75*
G03*
X18200000Y-4514000I-400000J0D01*
G01*
D11*
D12*
X8840000Y-4754000D02*
X9160000Y-5074000D01*
X9160000Y-4754000D02*
X8840000Y-5074000D01*
X8840000Y-13954000D02*
X9160000Y-14274000D01*
X9160000Y-13954000D02*
X8840000Y-14274000D01*
X18040000Y-4754000D02*
X18360000Y-5074000D01*
X18360000Y-4754000D02*
X18040000Y-5074000D01*
X18040000Y-13954000D02*
X18360000Y-14274000D01*
X18360000Y-13954000D02*
X18040000Y-14274000D01*
D11*
X8855777Y-14830484D02*
X8855777Y-14630484D01*
X8855777Y-14630484D02*
X8903396Y-14630484D01*
X8903396Y-14630484D02*
X8931967Y-14640008D01*
X8931967Y-14640008D02*
X8951015Y-14659055D01*
X8951015Y-14659055D02*
X8960539Y-14678103D01*
X8960539Y-14678103D02*
X8970063Y-14716198D01*
X8970063Y-14716198D02*
X8970063Y-14744769D01*
X8970063Y-14744769D02*
X8960539Y-14782865D01*
X8960539Y-14782865D02*
X8951015Y-14801912D01*
X8951015Y-14801912D02*
X8931967Y-14820960D01*
X8931967Y-14820960D02*
X8903396Y-14830484D01*
X8903396Y-14830484D02*
X8855777Y-14830484D01*
X9055777Y-14830484D02*
X9055777Y-14697150D01*
X9055777Y-14735246D02*
X9065301Y-14716198D01*
X9065301Y-14716198D02*
X9074824Y-14706674D01*
X9074824Y-14706674D02*
X9093872Y-14697150D01*
X9093872Y-14697150D02*
X9112920Y-14697150D01*
X9179586Y-14830484D02*
X9179586Y-14697150D01*
X9179586Y-14630484D02*
X9170063Y-14640008D01*
X9170063Y-14640008D02*
X9179586Y-14649531D01*
X9179586Y-14649531D02*
X9189110Y-14640008D01*
X9189110Y-14640008D02*
X9179586Y-14630484D01*
X9179586Y-14630484D02*
X9179586Y-14649531D01*
X9303396Y-14830484D02*
X9284348Y-14820960D01*
X9284348Y-14820960D02*
X9274824Y-14801912D01*
X9274824Y-14801912D02*
X9274824Y-14630484D01*
X9408158Y-14830484D02*
X9389110Y-14820960D01*
X9389110Y-14820960D02*
X9379586Y-14801912D01*
X9379586Y-14801912D02*
X9379586Y-14630484D01*
X9636729Y-14830484D02*
X9636729Y-14630484D01*
X9636729Y-14630484D02*
X9703396Y-14773341D01*
X9703396Y-14773341D02*
X9770063Y-14630484D01*
X9770063Y-14630484D02*
X9770063Y-14830484D01*
X9951015Y-14830484D02*
X9951015Y-14725722D01*
X9951015Y-14725722D02*
X9941491Y-14706674D01*
X9941491Y-14706674D02*
X9922444Y-14697150D01*
X9922444Y-14697150D02*
X9884348Y-14697150D01*
X9884348Y-14697150D02*
X9865301Y-14706674D01*
X9951015Y-14820960D02*
X9931967Y-14830484D01*
X9931967Y-14830484D02*
X9884348Y-14830484D01*
X9884348Y-14830484D02*
X9865301Y-14820960D01*
X9865301Y-14820960D02*
X9855777Y-14801912D01*
X9855777Y-14801912D02*
X9855777Y-14782865D01*
X9855777Y-14782865D02*
X9865301Y-14763817D01*
X9865301Y-14763817D02*
X9884348Y-14754293D01*
X9884348Y-14754293D02*
X9931967Y-14754293D01*
X9931967Y-14754293D02*
X9951015Y-14744769D01*
X10046253Y-14697150D02*
X10046253Y-14897150D01*
X10046253Y-14706674D02*
X10065301Y-14697150D01*
X10065301Y-14697150D02*
X10103396Y-14697150D01*
X10103396Y-14697150D02*
X10122444Y-14706674D01*
X10122444Y-14706674D02*
X10131967Y-14716198D01*
X10131967Y-14716198D02*
X10141491Y-14735246D01*
X10141491Y-14735246D02*
X10141491Y-14792388D01*
X10141491Y-14792388D02*
X10131967Y-14811436D01*
X10131967Y-14811436D02*
X10122444Y-14820960D01*
X10122444Y-14820960D02*
X10103396Y-14830484D01*
X10103396Y-14830484D02*
X10065301Y-14830484D01*
X10065301Y-14830484D02*
X10046253Y-14820960D01*
X10227205Y-14811436D02*
X10236729Y-14820960D01*
X10236729Y-14820960D02*
X10227205Y-14830484D01*
X10227205Y-14830484D02*
X10217682Y-14820960D01*
X10217682Y-14820960D02*
X10227205Y-14811436D01*
X10227205Y-14811436D02*
X10227205Y-14830484D01*
X10227205Y-14706674D02*
X10236729Y-14716198D01*
X10236729Y-14716198D02*
X10227205Y-14725722D01*
X10227205Y-14725722D02*
X10217682Y-14716198D01*
X10217682Y-14716198D02*
X10227205Y-14706674D01*
X10227205Y-14706674D02*
X10227205Y-14725722D01*
X8395000Y-15059000D02*
X8595000Y-15259000D01*
X8595000Y-15059000D02*
X8395000Y-15259000D01*
X8836729Y-15050484D02*
X8960539Y-15050484D01*
X8960539Y-15050484D02*
X8893872Y-15126674D01*
X8893872Y-15126674D02*
X8922444Y-15126674D01*
X8922444Y-15126674D02*
X8941491Y-15136198D01*
X8941491Y-15136198D02*
X8951015Y-15145722D01*
X8951015Y-15145722D02*
X8960539Y-15164769D01*
X8960539Y-15164769D02*
X8960539Y-15212388D01*
X8960539Y-15212388D02*
X8951015Y-15231436D01*
X8951015Y-15231436D02*
X8941491Y-15240960D01*
X8941491Y-15240960D02*
X8922444Y-15250484D01*
X8922444Y-15250484D02*
X8865301Y-15250484D01*
X8865301Y-15250484D02*
X8846253Y-15240960D01*
X8846253Y-15240960D02*
X8836729Y-15231436D01*
X9046253Y-15231436D02*
X9055777Y-15240960D01*
X9055777Y-15240960D02*
X9046253Y-15250484D01*
X9046253Y-15250484D02*
X9036729Y-15240960D01*
X9036729Y-15240960D02*
X9046253Y-15231436D01*
X9046253Y-15231436D02*
X9046253Y-15250484D01*
X9131967Y-15069531D02*
X9141491Y-15060008D01*
X9141491Y-15060008D02*
X9160539Y-15050484D01*
X9160539Y-15050484D02*
X9208158Y-15050484D01*
X9208158Y-15050484D02*
X9227205Y-15060008D01*
X9227205Y-15060008D02*
X9236729Y-15069531D01*
X9236729Y-15069531D02*
X9246253Y-15088579D01*
X9246253Y-15088579D02*
X9246253Y-15107627D01*
X9246253Y-15107627D02*
X9236729Y-15136198D01*
X9236729Y-15136198D02*
X9122444Y-15250484D01*
X9122444Y-15250484D02*
X9246253Y-15250484D01*
X9370063Y-15050484D02*
X9389110Y-15050484D01*
X9389110Y-15050484D02*
X9408158Y-15060008D01*
X9408158Y-15060008D02*
X9417682Y-15069531D01*
X9417682Y-15069531D02*
X9427205Y-15088579D01*
X9427205Y-15088579D02*
X9436729Y-15126674D01*
X9436729Y-15126674D02*
X9436729Y-15174293D01*
X9436729Y-15174293D02*
X9427205Y-15212388D01*
X9427205Y-15212388D02*
X9417682Y-15231436D01*
X9417682Y-15231436D02*
X9408158Y-15240960D01*
X9408158Y-15240960D02*
X9389110Y-15250484D01*
X9389110Y-15250484D02*
X9370063Y-15250484D01*
X9370063Y-15250484D02*
X9351015Y-15240960D01*
X9351015Y-15240960D02*
X9341491Y-15231436D01*
X9341491Y-15231436D02*
X9331967Y-15212388D01*
X9331967Y-15212388D02*
X9322444Y-15174293D01*
X9322444Y-15174293D02*
X9322444Y-15126674D01*
X9322444Y-15126674D02*
X9331967Y-15088579D01*
X9331967Y-15088579D02*
X9341491Y-15069531D01*
X9341491Y-15069531D02*
X9351015Y-15060008D01*
X9351015Y-15060008D02*
X9370063Y-15050484D01*
X9560539Y-15050484D02*
X9579586Y-15050484D01*
X9579586Y-15050484D02*
X9598634Y-15060008D01*
X9598634Y-15060008D02*
X9608158Y-15069531D01*
X9608158Y-15069531D02*
X9617682Y-15088579D01*
X9617682Y-15088579D02*
X9627205Y-15126674D01*
X9627205Y-15126674D02*
X9627205Y-15174293D01*
X9627205Y-15174293D02*
X9617682Y-15212388D01*
X9617682Y-15212388D02*
X9608158Y-15231436D01*
X9608158Y-15231436D02*
X9598634Y-15240960D01*
X9598634Y-15240960D02*
X9579586Y-15250484D01*
X9579586Y-15250484D02*
X9560539Y-15250484D01*
X9560539Y-15250484D02*
X9541491Y-15240960D01*
X9541491Y-15240960D02*
X9531967Y-15231436D01*
X9531967Y-15231436D02*
X9522444Y-15212388D01*
X9522444Y-15212388D02*
X9512920Y-15174293D01*
X9512920Y-15174293D02*
X9512920Y-15126674D01*
X9512920Y-15126674D02*
X9522444Y-15088579D01*
X9522444Y-15088579D02*
X9531967Y-15069531D01*
X9531967Y-15069531D02*
X9541491Y-15060008D01*
X9541491Y-15060008D02*
X9560539Y-15050484D01*
X9712920Y-15250484D02*
X9712920Y-15117150D01*
X9712920Y-15136198D02*
X9722444Y-15126674D01*
X9722444Y-15126674D02*
X9741491Y-15117150D01*
X9741491Y-15117150D02*
X9770063Y-15117150D01*
X9770063Y-15117150D02*
X9789110Y-15126674D01*
X9789110Y-15126674D02*
X9798634Y-15145722D01*
X9798634Y-15145722D02*
X9798634Y-15250484D01*
X9798634Y-15145722D02*
X9808158Y-15126674D01*
X9808158Y-15126674D02*
X9827205Y-15117150D01*
X9827205Y-15117150D02*
X9855777Y-15117150D01*
X9855777Y-15117150D02*
X9874825Y-15126674D01*
X9874825Y-15126674D02*
X9884348Y-15145722D01*
X9884348Y-15145722D02*
X9884348Y-15250484D01*
X9979586Y-15250484D02*
X9979586Y-15117150D01*
X9979586Y-15136198D02*
X9989110Y-15126674D01*
X9989110Y-15126674D02*
X10008158Y-15117150D01*
X10008158Y-15117150D02*
X10036729Y-15117150D01*
X10036729Y-15117150D02*
X10055777Y-15126674D01*
X10055777Y-15126674D02*
X10065301Y-15145722D01*
X10065301Y-15145722D02*
X10065301Y-15250484D01*
X10065301Y-15145722D02*
X10074825Y-15126674D01*
X10074825Y-15126674D02*
X10093872Y-15117150D01*
X10093872Y-15117150D02*
X10122444Y-15117150D01*
X10122444Y-15117150D02*
X10141491Y-15126674D01*
X10141491Y-15126674D02*
X10151015Y-15145722D01*
X10151015Y-15145722D02*
X10151015Y-15250484D01*
X10541491Y-15040960D02*
X10370063Y-15298103D01*
X10798634Y-15050484D02*
X10817682Y-15050484D01*
X10817682Y-15050484D02*
X10836729Y-15060008D01*
X10836729Y-15060008D02*
X10846253Y-15069531D01*
X10846253Y-15069531D02*
X10855777Y-15088579D01*
X10855777Y-15088579D02*
X10865301Y-15126674D01*
X10865301Y-15126674D02*
X10865301Y-15174293D01*
X10865301Y-15174293D02*
X10855777Y-15212388D01*
X10855777Y-15212388D02*
X10846253Y-15231436D01*
X10846253Y-15231436D02*
X10836729Y-15240960D01*
X10836729Y-15240960D02*
X10817682Y-15250484D01*
X10817682Y-15250484D02*
X10798634Y-15250484D01*
X10798634Y-15250484D02*
X10779587Y-15240960D01*
X10779587Y-15240960D02*
X10770063Y-15231436D01*
X10770063Y-15231436D02*
X10760539Y-15212388D01*
X10760539Y-15212388D02*
X10751015Y-15174293D01*
X10751015Y-15174293D02*
X10751015Y-15126674D01*
X10751015Y-15126674D02*
X10760539Y-15088579D01*
X10760539Y-15088579D02*
X10770063Y-15069531D01*
X10770063Y-15069531D02*
X10779587Y-15060008D01*
X10779587Y-15060008D02*
X10798634Y-15050484D01*
X10951015Y-15231436D02*
X10960539Y-15240960D01*
X10960539Y-15240960D02*
X10951015Y-15250484D01*
X10951015Y-15250484D02*
X10941491Y-15240960D01*
X10941491Y-15240960D02*
X10951015Y-15231436D01*
X10951015Y-15231436D02*
X10951015Y-15250484D01*
X11151015Y-15250484D02*
X11036729Y-15250484D01*
X11093872Y-15250484D02*
X11093872Y-15050484D01*
X11093872Y-15050484D02*
X11074825Y-15079055D01*
X11074825Y-15079055D02*
X11055777Y-15098103D01*
X11055777Y-15098103D02*
X11036729Y-15107627D01*
X11227206Y-15069531D02*
X11236729Y-15060008D01*
X11236729Y-15060008D02*
X11255777Y-15050484D01*
X11255777Y-15050484D02*
X11303396Y-15050484D01*
X11303396Y-15050484D02*
X11322444Y-15060008D01*
X11322444Y-15060008D02*
X11331967Y-15069531D01*
X11331967Y-15069531D02*
X11341491Y-15088579D01*
X11341491Y-15088579D02*
X11341491Y-15107627D01*
X11341491Y-15107627D02*
X11331967Y-15136198D01*
X11331967Y-15136198D02*
X11217682Y-15250484D01*
X11217682Y-15250484D02*
X11341491Y-15250484D01*
X11512920Y-15050484D02*
X11474825Y-15050484D01*
X11474825Y-15050484D02*
X11455777Y-15060008D01*
X11455777Y-15060008D02*
X11446253Y-15069531D01*
X11446253Y-15069531D02*
X11427206Y-15098103D01*
X11427206Y-15098103D02*
X11417682Y-15136198D01*
X11417682Y-15136198D02*
X11417682Y-15212388D01*
X11417682Y-15212388D02*
X11427206Y-15231436D01*
X11427206Y-15231436D02*
X11436729Y-15240960D01*
X11436729Y-15240960D02*
X11455777Y-15250484D01*
X11455777Y-15250484D02*
X11493872Y-15250484D01*
X11493872Y-15250484D02*
X11512920Y-15240960D01*
X11512920Y-15240960D02*
X11522444Y-15231436D01*
X11522444Y-15231436D02*
X11531967Y-15212388D01*
X11531967Y-15212388D02*
X11531967Y-15164769D01*
X11531967Y-15164769D02*
X11522444Y-15145722D01*
X11522444Y-15145722D02*
X11512920Y-15136198D01*
X11512920Y-15136198D02*
X11493872Y-15126674D01*
X11493872Y-15126674D02*
X11455777Y-15126674D01*
X11455777Y-15126674D02*
X11436729Y-15136198D01*
X11436729Y-15136198D02*
X11427206Y-15145722D01*
X11427206Y-15145722D02*
X11417682Y-15164769D01*
X11655777Y-15050484D02*
X11674825Y-15050484D01*
X11674825Y-15050484D02*
X11693872Y-15060008D01*
X11693872Y-15060008D02*
X11703396Y-15069531D01*
X11703396Y-15069531D02*
X11712920Y-15088579D01*
X11712920Y-15088579D02*
X11722444Y-15126674D01*
X11722444Y-15126674D02*
X11722444Y-15174293D01*
X11722444Y-15174293D02*
X11712920Y-15212388D01*
X11712920Y-15212388D02*
X11703396Y-15231436D01*
X11703396Y-15231436D02*
X11693872Y-15240960D01*
X11693872Y-15240960D02*
X11674825Y-15250484D01*
X11674825Y-15250484D02*
X11655777Y-15250484D01*
X11655777Y-15250484D02*
X11636729Y-15240960D01*
X11636729Y-15240960D02*
X11627206Y-15231436D01*
X11627206Y-15231436D02*
X11617682Y-15212388D01*
X11617682Y-15212388D02*
X11608158Y-15174293D01*
X11608158Y-15174293D02*
X11608158Y-15126674D01*
X11608158Y-15126674D02*
X11617682Y-15088579D01*
X11617682Y-15088579D02*
X11627206Y-15069531D01*
X11627206Y-15069531D02*
X11636729Y-15060008D01*
X11636729Y-15060008D02*
X11655777Y-15050484D01*
X11798634Y-15050484D02*
X11798634Y-15088579D01*
X11874825Y-15050484D02*
X11874825Y-15088579D01*
X12170063Y-15326674D02*
X12160539Y-15317150D01*
X12160539Y-15317150D02*
X12141491Y-15288579D01*
X12141491Y-15288579D02*
X12131968Y-15269531D01*
X12131968Y-15269531D02*
X12122444Y-15240960D01*
X12122444Y-15240960D02*
X12112920Y-15193341D01*
X12112920Y-15193341D02*
X12112920Y-15155246D01*
X12112920Y-15155246D02*
X12122444Y-15107627D01*
X12122444Y-15107627D02*
X12131968Y-15079055D01*
X12131968Y-15079055D02*
X12141491Y-15060008D01*
X12141491Y-15060008D02*
X12160539Y-15031436D01*
X12160539Y-15031436D02*
X12170063Y-15021912D01*
X12331968Y-15117150D02*
X12331968Y-15250484D01*
X12284348Y-15040960D02*
X12236729Y-15183817D01*
X12236729Y-15183817D02*
X12360539Y-15183817D01*
X12589110Y-15250484D02*
X12589110Y-15050484D01*
X12674825Y-15250484D02*
X12674825Y-15145722D01*
X12674825Y-15145722D02*
X12665301Y-15126674D01*
X12665301Y-15126674D02*
X12646253Y-15117150D01*
X12646253Y-15117150D02*
X12617682Y-15117150D01*
X12617682Y-15117150D02*
X12598634Y-15126674D01*
X12598634Y-15126674D02*
X12589110Y-15136198D01*
X12798634Y-15250484D02*
X12779587Y-15240960D01*
X12779587Y-15240960D02*
X12770063Y-15231436D01*
X12770063Y-15231436D02*
X12760539Y-15212388D01*
X12760539Y-15212388D02*
X12760539Y-15155246D01*
X12760539Y-15155246D02*
X12770063Y-15136198D01*
X12770063Y-15136198D02*
X12779587Y-15126674D01*
X12779587Y-15126674D02*
X12798634Y-15117150D01*
X12798634Y-15117150D02*
X12827206Y-15117150D01*
X12827206Y-15117150D02*
X12846253Y-15126674D01*
X12846253Y-15126674D02*
X12855777Y-15136198D01*
X12855777Y-15136198D02*
X12865301Y-15155246D01*
X12865301Y-15155246D02*
X12865301Y-15212388D01*
X12865301Y-15212388D02*
X12855777Y-15231436D01*
X12855777Y-15231436D02*
X12846253Y-15240960D01*
X12846253Y-15240960D02*
X12827206Y-15250484D01*
X12827206Y-15250484D02*
X12798634Y-15250484D01*
X12979587Y-15250484D02*
X12960539Y-15240960D01*
X12960539Y-15240960D02*
X12951015Y-15221912D01*
X12951015Y-15221912D02*
X12951015Y-15050484D01*
X13131968Y-15240960D02*
X13112920Y-15250484D01*
X13112920Y-15250484D02*
X13074825Y-15250484D01*
X13074825Y-15250484D02*
X13055777Y-15240960D01*
X13055777Y-15240960D02*
X13046253Y-15221912D01*
X13046253Y-15221912D02*
X13046253Y-15145722D01*
X13046253Y-15145722D02*
X13055777Y-15126674D01*
X13055777Y-15126674D02*
X13074825Y-15117150D01*
X13074825Y-15117150D02*
X13112920Y-15117150D01*
X13112920Y-15117150D02*
X13131968Y-15126674D01*
X13131968Y-15126674D02*
X13141491Y-15145722D01*
X13141491Y-15145722D02*
X13141491Y-15164769D01*
X13141491Y-15164769D02*
X13046253Y-15183817D01*
X13217682Y-15240960D02*
X13236730Y-15250484D01*
X13236730Y-15250484D02*
X13274825Y-15250484D01*
X13274825Y-15250484D02*
X13293872Y-15240960D01*
X13293872Y-15240960D02*
X13303396Y-15221912D01*
X13303396Y-15221912D02*
X13303396Y-15212388D01*
X13303396Y-15212388D02*
X13293872Y-15193341D01*
X13293872Y-15193341D02*
X13274825Y-15183817D01*
X13274825Y-15183817D02*
X13246253Y-15183817D01*
X13246253Y-15183817D02*
X13227206Y-15174293D01*
X13227206Y-15174293D02*
X13217682Y-15155246D01*
X13217682Y-15155246D02*
X13217682Y-15145722D01*
X13217682Y-15145722D02*
X13227206Y-15126674D01*
X13227206Y-15126674D02*
X13246253Y-15117150D01*
X13246253Y-15117150D02*
X13274825Y-15117150D01*
X13274825Y-15117150D02*
X13293872Y-15126674D01*
X13370063Y-15326674D02*
X13379587Y-15317150D01*
X13379587Y-15317150D02*
X13398634Y-15288579D01*
X13398634Y-15288579D02*
X13408158Y-15269531D01*
X13408158Y-15269531D02*
X13417682Y-15240960D01*
X13417682Y-15240960D02*
X13427206Y-15193341D01*
X13427206Y-15193341D02*
X13427206Y-15155246D01*
X13427206Y-15155246D02*
X13417682Y-15107627D01*
X13417682Y-15107627D02*
X13408158Y-15079055D01*
X13408158Y-15079055D02*
X13398634Y-15060008D01*
X13398634Y-15060008D02*
X13379587Y-15031436D01*
X13379587Y-15031436D02*
X13370063Y-15021912D01*
X13731968Y-15326674D02*
X13722444Y-15317150D01*
X13722444Y-15317150D02*
X13703396Y-15288579D01*
X13703396Y-15288579D02*
X13693872Y-15269531D01*
X13693872Y-15269531D02*
X13684349Y-15240960D01*
X13684349Y-15240960D02*
X13674825Y-15193341D01*
X13674825Y-15193341D02*
X13674825Y-15155246D01*
X13674825Y-15155246D02*
X13684349Y-15107627D01*
X13684349Y-15107627D02*
X13693872Y-15079055D01*
X13693872Y-15079055D02*
X13703396Y-15060008D01*
X13703396Y-15060008D02*
X13722444Y-15031436D01*
X13722444Y-15031436D02*
X13731968Y-15021912D01*
X13808158Y-15117150D02*
X13808158Y-15250484D01*
X13808158Y-15136198D02*
X13817682Y-15126674D01*
X13817682Y-15126674D02*
X13836730Y-15117150D01*
X13836730Y-15117150D02*
X13865301Y-15117150D01*
X13865301Y-15117150D02*
X13884349Y-15126674D01*
X13884349Y-15126674D02*
X13893872Y-15145722D01*
X13893872Y-15145722D02*
X13893872Y-15250484D01*
X14017682Y-15250484D02*
X13998634Y-15240960D01*
X13998634Y-15240960D02*
X13989111Y-15231436D01*
X13989111Y-15231436D02*
X13979587Y-15212388D01*
X13979587Y-15212388D02*
X13979587Y-15155246D01*
X13979587Y-15155246D02*
X13989111Y-15136198D01*
X13989111Y-15136198D02*
X13998634Y-15126674D01*
X13998634Y-15126674D02*
X14017682Y-15117150D01*
X14017682Y-15117150D02*
X14046253Y-15117150D01*
X14046253Y-15117150D02*
X14065301Y-15126674D01*
X14065301Y-15126674D02*
X14074825Y-15136198D01*
X14074825Y-15136198D02*
X14084349Y-15155246D01*
X14084349Y-15155246D02*
X14084349Y-15212388D01*
X14084349Y-15212388D02*
X14074825Y-15231436D01*
X14074825Y-15231436D02*
X14065301Y-15240960D01*
X14065301Y-15240960D02*
X14046253Y-15250484D01*
X14046253Y-15250484D02*
X14017682Y-15250484D01*
X14141492Y-15117150D02*
X14217682Y-15117150D01*
X14170063Y-15050484D02*
X14170063Y-15221912D01*
X14170063Y-15221912D02*
X14179587Y-15240960D01*
X14179587Y-15240960D02*
X14198634Y-15250484D01*
X14198634Y-15250484D02*
X14217682Y-15250484D01*
X14436730Y-15117150D02*
X14436730Y-15317150D01*
X14436730Y-15126674D02*
X14455777Y-15117150D01*
X14455777Y-15117150D02*
X14493873Y-15117150D01*
X14493873Y-15117150D02*
X14512920Y-15126674D01*
X14512920Y-15126674D02*
X14522444Y-15136198D01*
X14522444Y-15136198D02*
X14531968Y-15155246D01*
X14531968Y-15155246D02*
X14531968Y-15212388D01*
X14531968Y-15212388D02*
X14522444Y-15231436D01*
X14522444Y-15231436D02*
X14512920Y-15240960D01*
X14512920Y-15240960D02*
X14493873Y-15250484D01*
X14493873Y-15250484D02*
X14455777Y-15250484D01*
X14455777Y-15250484D02*
X14436730Y-15240960D01*
X14646253Y-15250484D02*
X14627206Y-15240960D01*
X14627206Y-15240960D02*
X14617682Y-15221912D01*
X14617682Y-15221912D02*
X14617682Y-15050484D01*
X14808158Y-15250484D02*
X14808158Y-15145722D01*
X14808158Y-15145722D02*
X14798634Y-15126674D01*
X14798634Y-15126674D02*
X14779587Y-15117150D01*
X14779587Y-15117150D02*
X14741492Y-15117150D01*
X14741492Y-15117150D02*
X14722444Y-15126674D01*
X14808158Y-15240960D02*
X14789111Y-15250484D01*
X14789111Y-15250484D02*
X14741492Y-15250484D01*
X14741492Y-15250484D02*
X14722444Y-15240960D01*
X14722444Y-15240960D02*
X14712920Y-15221912D01*
X14712920Y-15221912D02*
X14712920Y-15202865D01*
X14712920Y-15202865D02*
X14722444Y-15183817D01*
X14722444Y-15183817D02*
X14741492Y-15174293D01*
X14741492Y-15174293D02*
X14789111Y-15174293D01*
X14789111Y-15174293D02*
X14808158Y-15164769D01*
X14874825Y-15117150D02*
X14951015Y-15117150D01*
X14903396Y-15050484D02*
X14903396Y-15221912D01*
X14903396Y-15221912D02*
X14912920Y-15240960D01*
X14912920Y-15240960D02*
X14931968Y-15250484D01*
X14931968Y-15250484D02*
X14951015Y-15250484D01*
X15093873Y-15240960D02*
X15074825Y-15250484D01*
X15074825Y-15250484D02*
X15036730Y-15250484D01*
X15036730Y-15250484D02*
X15017682Y-15240960D01*
X15017682Y-15240960D02*
X15008158Y-15221912D01*
X15008158Y-15221912D02*
X15008158Y-15145722D01*
X15008158Y-15145722D02*
X15017682Y-15126674D01*
X15017682Y-15126674D02*
X15036730Y-15117150D01*
X15036730Y-15117150D02*
X15074825Y-15117150D01*
X15074825Y-15117150D02*
X15093873Y-15126674D01*
X15093873Y-15126674D02*
X15103396Y-15145722D01*
X15103396Y-15145722D02*
X15103396Y-15164769D01*
X15103396Y-15164769D02*
X15008158Y-15183817D01*
X15274825Y-15250484D02*
X15274825Y-15050484D01*
X15274825Y-15240960D02*
X15255777Y-15250484D01*
X15255777Y-15250484D02*
X15217682Y-15250484D01*
X15217682Y-15250484D02*
X15198634Y-15240960D01*
X15198634Y-15240960D02*
X15189111Y-15231436D01*
X15189111Y-15231436D02*
X15179587Y-15212388D01*
X15179587Y-15212388D02*
X15179587Y-15155246D01*
X15179587Y-15155246D02*
X15189111Y-15136198D01*
X15189111Y-15136198D02*
X15198634Y-15126674D01*
X15198634Y-15126674D02*
X15217682Y-15117150D01*
X15217682Y-15117150D02*
X15255777Y-15117150D01*
X15255777Y-15117150D02*
X15274825Y-15126674D01*
X15351015Y-15326674D02*
X15360539Y-15317150D01*
X15360539Y-15317150D02*
X15379587Y-15288579D01*
X15379587Y-15288579D02*
X15389111Y-15269531D01*
X15389111Y-15269531D02*
X15398634Y-15240960D01*
X15398634Y-15240960D02*
X15408158Y-15193341D01*
X15408158Y-15193341D02*
X15408158Y-15155246D01*
X15408158Y-15155246D02*
X15398634Y-15107627D01*
X15398634Y-15107627D02*
X15389111Y-15079055D01*
X15389111Y-15079055D02*
X15379587Y-15060008D01*
X15379587Y-15060008D02*
X15360539Y-15031436D01*
X15360539Y-15031436D02*
X15351015Y-15021912D01*
M02*
