G04 #@! TF.GenerationSoftware,KiCad,Pcbnew,7.0.5*
G04 #@! TF.CreationDate,2023-12-17T10:26:09+13:00*
G04 #@! TF.ProjectId,main_board,6d61696e-5f62-46f6-9172-642e6b696361,2*
G04 #@! TF.SameCoordinates,Original*
G04 #@! TF.FileFunction,Legend,Top*
G04 #@! TF.FilePolarity,Positive*
%FSLAX46Y46*%
G04 Gerber Fmt 4.6, Leading zero omitted, Abs format (unit mm)*
G04 Created by KiCad (PCBNEW 7.0.5) date 2023-12-17 10:26:09*
%MOMM*%
%LPD*%
G01*
G04 APERTURE LIST*
G04 Aperture macros list*
%AMRotRect*
0 Rectangle, with rotation*
0 The origin of the aperture is its center*
0 $1 length*
0 $2 width*
0 $3 Rotation angle, in degrees counterclockwise*
0 Add horizontal line*
21,1,$1,$2,0,0,$3*%
G04 Aperture macros list end*
%ADD10C,0.150000*%
%ADD11C,0.384004*%
%ADD12C,0.100000*%
%ADD13C,0.300000*%
%ADD14C,0.120000*%
%ADD15C,0.250000*%
%ADD16C,0.127000*%
%ADD17R,1.700000X1.700000*%
%ADD18O,1.700000X1.700000*%
%ADD19C,1.600000*%
%ADD20C,1.400000*%
%ADD21O,1.400000X1.400000*%
%ADD22C,3.200000*%
%ADD23R,1.600000X1.600000*%
%ADD24O,1.600000X1.600000*%
%ADD25R,2.000000X1.440000*%
%ADD26O,2.000000X1.440000*%
%ADD27RotRect,1.300000X1.300000X45.000000*%
%ADD28C,1.300000*%
%ADD29R,1.800000X1.800000*%
%ADD30C,1.800000*%
%ADD31C,1.700000*%
%ADD32C,2.000000*%
%ADD33O,2.500000X5.000000*%
%ADD34O,2.250000X4.500000*%
G04 APERTURE END LIST*
D10*
X183261000Y-56134000D02*
X180721000Y-56134000D01*
X184521974Y-57413026D02*
X184531000Y-62357000D01*
X180721000Y-63627000D02*
X183261000Y-63627000D01*
X183286400Y-58483500D02*
X183286400Y-58864500D01*
X183286400Y-61023500D02*
X183286400Y-61404500D01*
X184848500Y-70739000D02*
X184848500Y-64897000D01*
X161671000Y-54356000D02*
X172466000Y-54356000D01*
D11*
X130062202Y-85877400D02*
G75*
G03*
X130062202Y-85877400I-192002J0D01*
G01*
D10*
X179387500Y-70739000D02*
X184848500Y-70739000D01*
X179387500Y-64897000D02*
X179387500Y-70739000D01*
X183261000Y-63627000D02*
G75*
G03*
X184531000Y-62357000I0J1270000D01*
G01*
X179387500Y-67818000D02*
X184848500Y-67818000D01*
X179460026Y-62347974D02*
G75*
G03*
X180730026Y-63617974I1269974J-26D01*
G01*
X161671000Y-65278000D02*
X161671000Y-54356000D01*
X180721000Y-56134000D02*
G75*
G03*
X179451000Y-57404000I0J-1270000D01*
G01*
X179451000Y-57404000D02*
X179460026Y-62347974D01*
X180746400Y-58483500D02*
X180746400Y-58864500D01*
X180746400Y-61010800D02*
X180746400Y-61391800D01*
X184848500Y-64897000D02*
X179387500Y-64897000D01*
X172466000Y-54356000D02*
X172466000Y-65278000D01*
X181991000Y-56134000D02*
X181991000Y-63627000D01*
X184521974Y-57413026D02*
G75*
G03*
X183251974Y-56143026I-1269974J26D01*
G01*
X172466000Y-65278000D02*
X161671000Y-65278000D01*
X124005180Y-60150952D02*
X125005180Y-60150952D01*
X124005180Y-60722380D02*
X124576609Y-60293809D01*
X125005180Y-60722380D02*
X124433752Y-60150952D01*
X124005180Y-61150952D02*
X125005180Y-61150952D01*
X125005180Y-61150952D02*
X124290895Y-61484285D01*
X124290895Y-61484285D02*
X125005180Y-61817618D01*
X125005180Y-61817618D02*
X124005180Y-61817618D01*
X125005180Y-62722380D02*
X125005180Y-62531904D01*
X125005180Y-62531904D02*
X124957561Y-62436666D01*
X124957561Y-62436666D02*
X124909942Y-62389047D01*
X124909942Y-62389047D02*
X124767085Y-62293809D01*
X124767085Y-62293809D02*
X124576609Y-62246190D01*
X124576609Y-62246190D02*
X124195657Y-62246190D01*
X124195657Y-62246190D02*
X124100419Y-62293809D01*
X124100419Y-62293809D02*
X124052800Y-62341428D01*
X124052800Y-62341428D02*
X124005180Y-62436666D01*
X124005180Y-62436666D02*
X124005180Y-62627142D01*
X124005180Y-62627142D02*
X124052800Y-62722380D01*
X124052800Y-62722380D02*
X124100419Y-62769999D01*
X124100419Y-62769999D02*
X124195657Y-62817618D01*
X124195657Y-62817618D02*
X124433752Y-62817618D01*
X124433752Y-62817618D02*
X124528990Y-62769999D01*
X124528990Y-62769999D02*
X124576609Y-62722380D01*
X124576609Y-62722380D02*
X124624228Y-62627142D01*
X124624228Y-62627142D02*
X124624228Y-62436666D01*
X124624228Y-62436666D02*
X124576609Y-62341428D01*
X124576609Y-62341428D02*
X124528990Y-62293809D01*
X124528990Y-62293809D02*
X124433752Y-62246190D01*
X124909942Y-63198571D02*
X124957561Y-63246190D01*
X124957561Y-63246190D02*
X125005180Y-63341428D01*
X125005180Y-63341428D02*
X125005180Y-63579523D01*
X125005180Y-63579523D02*
X124957561Y-63674761D01*
X124957561Y-63674761D02*
X124909942Y-63722380D01*
X124909942Y-63722380D02*
X124814704Y-63769999D01*
X124814704Y-63769999D02*
X124719466Y-63769999D01*
X124719466Y-63769999D02*
X124576609Y-63722380D01*
X124576609Y-63722380D02*
X124005180Y-63150952D01*
X124005180Y-63150952D02*
X124005180Y-63769999D01*
X124909942Y-64150952D02*
X124957561Y-64198571D01*
X124957561Y-64198571D02*
X125005180Y-64293809D01*
X125005180Y-64293809D02*
X125005180Y-64531904D01*
X125005180Y-64531904D02*
X124957561Y-64627142D01*
X124957561Y-64627142D02*
X124909942Y-64674761D01*
X124909942Y-64674761D02*
X124814704Y-64722380D01*
X124814704Y-64722380D02*
X124719466Y-64722380D01*
X124719466Y-64722380D02*
X124576609Y-64674761D01*
X124576609Y-64674761D02*
X124005180Y-64103333D01*
X124005180Y-64103333D02*
X124005180Y-64722380D01*
X125005180Y-65627142D02*
X125005180Y-65150952D01*
X125005180Y-65150952D02*
X124528990Y-65103333D01*
X124528990Y-65103333D02*
X124576609Y-65150952D01*
X124576609Y-65150952D02*
X124624228Y-65246190D01*
X124624228Y-65246190D02*
X124624228Y-65484285D01*
X124624228Y-65484285D02*
X124576609Y-65579523D01*
X124576609Y-65579523D02*
X124528990Y-65627142D01*
X124528990Y-65627142D02*
X124433752Y-65674761D01*
X124433752Y-65674761D02*
X124195657Y-65674761D01*
X124195657Y-65674761D02*
X124100419Y-65627142D01*
X124100419Y-65627142D02*
X124052800Y-65579523D01*
X124052800Y-65579523D02*
X124005180Y-65484285D01*
X124005180Y-65484285D02*
X124005180Y-65246190D01*
X124005180Y-65246190D02*
X124052800Y-65150952D01*
X124052800Y-65150952D02*
X124100419Y-65103333D01*
X125005180Y-66531904D02*
X125005180Y-66341428D01*
X125005180Y-66341428D02*
X124957561Y-66246190D01*
X124957561Y-66246190D02*
X124909942Y-66198571D01*
X124909942Y-66198571D02*
X124767085Y-66103333D01*
X124767085Y-66103333D02*
X124576609Y-66055714D01*
X124576609Y-66055714D02*
X124195657Y-66055714D01*
X124195657Y-66055714D02*
X124100419Y-66103333D01*
X124100419Y-66103333D02*
X124052800Y-66150952D01*
X124052800Y-66150952D02*
X124005180Y-66246190D01*
X124005180Y-66246190D02*
X124005180Y-66436666D01*
X124005180Y-66436666D02*
X124052800Y-66531904D01*
X124052800Y-66531904D02*
X124100419Y-66579523D01*
X124100419Y-66579523D02*
X124195657Y-66627142D01*
X124195657Y-66627142D02*
X124433752Y-66627142D01*
X124433752Y-66627142D02*
X124528990Y-66579523D01*
X124528990Y-66579523D02*
X124576609Y-66531904D01*
X124576609Y-66531904D02*
X124624228Y-66436666D01*
X124624228Y-66436666D02*
X124624228Y-66246190D01*
X124624228Y-66246190D02*
X124576609Y-66150952D01*
X124576609Y-66150952D02*
X124528990Y-66103333D01*
X124528990Y-66103333D02*
X124433752Y-66055714D01*
X124100419Y-67627142D02*
X124052800Y-67579523D01*
X124052800Y-67579523D02*
X124005180Y-67436666D01*
X124005180Y-67436666D02*
X124005180Y-67341428D01*
X124005180Y-67341428D02*
X124052800Y-67198571D01*
X124052800Y-67198571D02*
X124148038Y-67103333D01*
X124148038Y-67103333D02*
X124243276Y-67055714D01*
X124243276Y-67055714D02*
X124433752Y-67008095D01*
X124433752Y-67008095D02*
X124576609Y-67008095D01*
X124576609Y-67008095D02*
X124767085Y-67055714D01*
X124767085Y-67055714D02*
X124862323Y-67103333D01*
X124862323Y-67103333D02*
X124957561Y-67198571D01*
X124957561Y-67198571D02*
X125005180Y-67341428D01*
X125005180Y-67341428D02*
X125005180Y-67436666D01*
X125005180Y-67436666D02*
X124957561Y-67579523D01*
X124957561Y-67579523D02*
X124909942Y-67627142D01*
X124005180Y-68531904D02*
X124005180Y-68055714D01*
X124005180Y-68055714D02*
X125005180Y-68055714D01*
X124005180Y-68865238D02*
X125005180Y-68865238D01*
X125005180Y-68865238D02*
X125005180Y-69246190D01*
X125005180Y-69246190D02*
X124957561Y-69341428D01*
X124957561Y-69341428D02*
X124909942Y-69389047D01*
X124909942Y-69389047D02*
X124814704Y-69436666D01*
X124814704Y-69436666D02*
X124671847Y-69436666D01*
X124671847Y-69436666D02*
X124576609Y-69389047D01*
X124576609Y-69389047D02*
X124528990Y-69341428D01*
X124528990Y-69341428D02*
X124481371Y-69246190D01*
X124481371Y-69246190D02*
X124481371Y-68865238D01*
X180057660Y-65894057D02*
X180105279Y-65846438D01*
X180105279Y-65846438D02*
X180200517Y-65798819D01*
X180200517Y-65798819D02*
X180438612Y-65798819D01*
X180438612Y-65798819D02*
X180533850Y-65846438D01*
X180533850Y-65846438D02*
X180581469Y-65894057D01*
X180581469Y-65894057D02*
X180629088Y-65989295D01*
X180629088Y-65989295D02*
X180629088Y-66084533D01*
X180629088Y-66084533D02*
X180581469Y-66227390D01*
X180581469Y-66227390D02*
X180010041Y-66798819D01*
X180010041Y-66798819D02*
X180629088Y-66798819D01*
X180962422Y-65798819D02*
X181629088Y-65798819D01*
X181629088Y-65798819D02*
X181200517Y-66798819D01*
X181962422Y-65894057D02*
X182010041Y-65846438D01*
X182010041Y-65846438D02*
X182105279Y-65798819D01*
X182105279Y-65798819D02*
X182343374Y-65798819D01*
X182343374Y-65798819D02*
X182438612Y-65846438D01*
X182438612Y-65846438D02*
X182486231Y-65894057D01*
X182486231Y-65894057D02*
X182533850Y-65989295D01*
X182533850Y-65989295D02*
X182533850Y-66084533D01*
X182533850Y-66084533D02*
X182486231Y-66227390D01*
X182486231Y-66227390D02*
X181914803Y-66798819D01*
X181914803Y-66798819D02*
X182533850Y-66798819D01*
X183438612Y-65798819D02*
X182962422Y-65798819D01*
X182962422Y-65798819D02*
X182914803Y-66275009D01*
X182914803Y-66275009D02*
X182962422Y-66227390D01*
X182962422Y-66227390D02*
X183057660Y-66179771D01*
X183057660Y-66179771D02*
X183295755Y-66179771D01*
X183295755Y-66179771D02*
X183390993Y-66227390D01*
X183390993Y-66227390D02*
X183438612Y-66275009D01*
X183438612Y-66275009D02*
X183486231Y-66370247D01*
X183486231Y-66370247D02*
X183486231Y-66608342D01*
X183486231Y-66608342D02*
X183438612Y-66703580D01*
X183438612Y-66703580D02*
X183390993Y-66751200D01*
X183390993Y-66751200D02*
X183295755Y-66798819D01*
X183295755Y-66798819D02*
X183057660Y-66798819D01*
X183057660Y-66798819D02*
X182962422Y-66751200D01*
X182962422Y-66751200D02*
X182914803Y-66703580D01*
X184343374Y-65798819D02*
X184152898Y-65798819D01*
X184152898Y-65798819D02*
X184057660Y-65846438D01*
X184057660Y-65846438D02*
X184010041Y-65894057D01*
X184010041Y-65894057D02*
X183914803Y-66036914D01*
X183914803Y-66036914D02*
X183867184Y-66227390D01*
X183867184Y-66227390D02*
X183867184Y-66608342D01*
X183867184Y-66608342D02*
X183914803Y-66703580D01*
X183914803Y-66703580D02*
X183962422Y-66751200D01*
X183962422Y-66751200D02*
X184057660Y-66798819D01*
X184057660Y-66798819D02*
X184248136Y-66798819D01*
X184248136Y-66798819D02*
X184343374Y-66751200D01*
X184343374Y-66751200D02*
X184390993Y-66703580D01*
X184390993Y-66703580D02*
X184438612Y-66608342D01*
X184438612Y-66608342D02*
X184438612Y-66370247D01*
X184438612Y-66370247D02*
X184390993Y-66275009D01*
X184390993Y-66275009D02*
X184343374Y-66227390D01*
X184343374Y-66227390D02*
X184248136Y-66179771D01*
X184248136Y-66179771D02*
X184057660Y-66179771D01*
X184057660Y-66179771D02*
X183962422Y-66227390D01*
X183962422Y-66227390D02*
X183914803Y-66275009D01*
X183914803Y-66275009D02*
X183867184Y-66370247D01*
X86931533Y-77238419D02*
X86598200Y-76762228D01*
X86360105Y-77238419D02*
X86360105Y-76238419D01*
X86360105Y-76238419D02*
X86741057Y-76238419D01*
X86741057Y-76238419D02*
X86836295Y-76286038D01*
X86836295Y-76286038D02*
X86883914Y-76333657D01*
X86883914Y-76333657D02*
X86931533Y-76428895D01*
X86931533Y-76428895D02*
X86931533Y-76571752D01*
X86931533Y-76571752D02*
X86883914Y-76666990D01*
X86883914Y-76666990D02*
X86836295Y-76714609D01*
X86836295Y-76714609D02*
X86741057Y-76762228D01*
X86741057Y-76762228D02*
X86360105Y-76762228D01*
X87264867Y-76238419D02*
X87931533Y-77238419D01*
X87931533Y-76238419D02*
X87264867Y-77238419D01*
X145325180Y-59991905D02*
X145325180Y-60658571D01*
X145325180Y-60658571D02*
X144325180Y-59991905D01*
X144325180Y-59991905D02*
X144325180Y-60658571D01*
X144896609Y-61182381D02*
X144944228Y-61087143D01*
X144944228Y-61087143D02*
X144991847Y-61039524D01*
X144991847Y-61039524D02*
X145087085Y-60991905D01*
X145087085Y-60991905D02*
X145134704Y-60991905D01*
X145134704Y-60991905D02*
X145229942Y-61039524D01*
X145229942Y-61039524D02*
X145277561Y-61087143D01*
X145277561Y-61087143D02*
X145325180Y-61182381D01*
X145325180Y-61182381D02*
X145325180Y-61372857D01*
X145325180Y-61372857D02*
X145277561Y-61468095D01*
X145277561Y-61468095D02*
X145229942Y-61515714D01*
X145229942Y-61515714D02*
X145134704Y-61563333D01*
X145134704Y-61563333D02*
X145087085Y-61563333D01*
X145087085Y-61563333D02*
X144991847Y-61515714D01*
X144991847Y-61515714D02*
X144944228Y-61468095D01*
X144944228Y-61468095D02*
X144896609Y-61372857D01*
X144896609Y-61372857D02*
X144896609Y-61182381D01*
X144896609Y-61182381D02*
X144848990Y-61087143D01*
X144848990Y-61087143D02*
X144801371Y-61039524D01*
X144801371Y-61039524D02*
X144706133Y-60991905D01*
X144706133Y-60991905D02*
X144515657Y-60991905D01*
X144515657Y-60991905D02*
X144420419Y-61039524D01*
X144420419Y-61039524D02*
X144372800Y-61087143D01*
X144372800Y-61087143D02*
X144325180Y-61182381D01*
X144325180Y-61182381D02*
X144325180Y-61372857D01*
X144325180Y-61372857D02*
X144372800Y-61468095D01*
X144372800Y-61468095D02*
X144420419Y-61515714D01*
X144420419Y-61515714D02*
X144515657Y-61563333D01*
X144515657Y-61563333D02*
X144706133Y-61563333D01*
X144706133Y-61563333D02*
X144801371Y-61515714D01*
X144801371Y-61515714D02*
X144848990Y-61468095D01*
X144848990Y-61468095D02*
X144896609Y-61372857D01*
X144991847Y-62420476D02*
X144325180Y-62420476D01*
X145372800Y-62182381D02*
X144658514Y-61944286D01*
X144658514Y-61944286D02*
X144658514Y-62563333D01*
X144991847Y-63372857D02*
X144325180Y-63372857D01*
X145372800Y-63134762D02*
X144658514Y-62896667D01*
X144658514Y-62896667D02*
X144658514Y-63515714D01*
X145325180Y-64087143D02*
X145325180Y-64182381D01*
X145325180Y-64182381D02*
X145277561Y-64277619D01*
X145277561Y-64277619D02*
X145229942Y-64325238D01*
X145229942Y-64325238D02*
X145134704Y-64372857D01*
X145134704Y-64372857D02*
X144944228Y-64420476D01*
X144944228Y-64420476D02*
X144706133Y-64420476D01*
X144706133Y-64420476D02*
X144515657Y-64372857D01*
X144515657Y-64372857D02*
X144420419Y-64325238D01*
X144420419Y-64325238D02*
X144372800Y-64277619D01*
X144372800Y-64277619D02*
X144325180Y-64182381D01*
X144325180Y-64182381D02*
X144325180Y-64087143D01*
X144325180Y-64087143D02*
X144372800Y-63991905D01*
X144372800Y-63991905D02*
X144420419Y-63944286D01*
X144420419Y-63944286D02*
X144515657Y-63896667D01*
X144515657Y-63896667D02*
X144706133Y-63849048D01*
X144706133Y-63849048D02*
X144944228Y-63849048D01*
X144944228Y-63849048D02*
X145134704Y-63896667D01*
X145134704Y-63896667D02*
X145229942Y-63944286D01*
X145229942Y-63944286D02*
X145277561Y-63991905D01*
X145277561Y-63991905D02*
X145325180Y-64087143D01*
D12*
X128376304Y-108255713D02*
X128376304Y-108789047D01*
X128376304Y-108789047D02*
X127576304Y-108446189D01*
X128109638Y-109436666D02*
X127576304Y-109436666D01*
X128414400Y-109246190D02*
X127842971Y-109055713D01*
X127842971Y-109055713D02*
X127842971Y-109550952D01*
X127576304Y-110236666D02*
X127576304Y-109855714D01*
X127576304Y-109855714D02*
X128376304Y-109855714D01*
X127614400Y-110465237D02*
X127576304Y-110579523D01*
X127576304Y-110579523D02*
X127576304Y-110769999D01*
X127576304Y-110769999D02*
X127614400Y-110846190D01*
X127614400Y-110846190D02*
X127652495Y-110884285D01*
X127652495Y-110884285D02*
X127728685Y-110922380D01*
X127728685Y-110922380D02*
X127804876Y-110922380D01*
X127804876Y-110922380D02*
X127881066Y-110884285D01*
X127881066Y-110884285D02*
X127919161Y-110846190D01*
X127919161Y-110846190D02*
X127957257Y-110769999D01*
X127957257Y-110769999D02*
X127995352Y-110617618D01*
X127995352Y-110617618D02*
X128033447Y-110541428D01*
X128033447Y-110541428D02*
X128071542Y-110503333D01*
X128071542Y-110503333D02*
X128147733Y-110465237D01*
X128147733Y-110465237D02*
X128223923Y-110465237D01*
X128223923Y-110465237D02*
X128300114Y-110503333D01*
X128300114Y-110503333D02*
X128338209Y-110541428D01*
X128338209Y-110541428D02*
X128376304Y-110617618D01*
X128376304Y-110617618D02*
X128376304Y-110808095D01*
X128376304Y-110808095D02*
X128338209Y-110922380D01*
X128376304Y-111189047D02*
X128376304Y-111722381D01*
X128376304Y-111722381D02*
X127576304Y-111379523D01*
X128109638Y-112370000D02*
X127576304Y-112370000D01*
X128414400Y-112179524D02*
X127842971Y-111989047D01*
X127842971Y-111989047D02*
X127842971Y-112484286D01*
X115878104Y-130369161D02*
X115878104Y-130902495D01*
X115878104Y-130902495D02*
X115078104Y-130559637D01*
X115611438Y-131550114D02*
X115078104Y-131550114D01*
X115916200Y-131359638D02*
X115344771Y-131169161D01*
X115344771Y-131169161D02*
X115344771Y-131664400D01*
X115078104Y-132350114D02*
X115078104Y-131969162D01*
X115078104Y-131969162D02*
X115878104Y-131969162D01*
X115116200Y-132578685D02*
X115078104Y-132692971D01*
X115078104Y-132692971D02*
X115078104Y-132883447D01*
X115078104Y-132883447D02*
X115116200Y-132959638D01*
X115116200Y-132959638D02*
X115154295Y-132997733D01*
X115154295Y-132997733D02*
X115230485Y-133035828D01*
X115230485Y-133035828D02*
X115306676Y-133035828D01*
X115306676Y-133035828D02*
X115382866Y-132997733D01*
X115382866Y-132997733D02*
X115420961Y-132959638D01*
X115420961Y-132959638D02*
X115459057Y-132883447D01*
X115459057Y-132883447D02*
X115497152Y-132731066D01*
X115497152Y-132731066D02*
X115535247Y-132654876D01*
X115535247Y-132654876D02*
X115573342Y-132616781D01*
X115573342Y-132616781D02*
X115649533Y-132578685D01*
X115649533Y-132578685D02*
X115725723Y-132578685D01*
X115725723Y-132578685D02*
X115801914Y-132616781D01*
X115801914Y-132616781D02*
X115840009Y-132654876D01*
X115840009Y-132654876D02*
X115878104Y-132731066D01*
X115878104Y-132731066D02*
X115878104Y-132921543D01*
X115878104Y-132921543D02*
X115840009Y-133035828D01*
X115078104Y-133797733D02*
X115078104Y-133340590D01*
X115078104Y-133569162D02*
X115878104Y-133569162D01*
X115878104Y-133569162D02*
X115763819Y-133492971D01*
X115763819Y-133492971D02*
X115687628Y-133416781D01*
X115687628Y-133416781D02*
X115649533Y-133340590D01*
X115878104Y-134483448D02*
X115878104Y-134331067D01*
X115878104Y-134331067D02*
X115840009Y-134254876D01*
X115840009Y-134254876D02*
X115801914Y-134216781D01*
X115801914Y-134216781D02*
X115687628Y-134140591D01*
X115687628Y-134140591D02*
X115535247Y-134102495D01*
X115535247Y-134102495D02*
X115230485Y-134102495D01*
X115230485Y-134102495D02*
X115154295Y-134140591D01*
X115154295Y-134140591D02*
X115116200Y-134178686D01*
X115116200Y-134178686D02*
X115078104Y-134254876D01*
X115078104Y-134254876D02*
X115078104Y-134407257D01*
X115078104Y-134407257D02*
X115116200Y-134483448D01*
X115116200Y-134483448D02*
X115154295Y-134521543D01*
X115154295Y-134521543D02*
X115230485Y-134559638D01*
X115230485Y-134559638D02*
X115420961Y-134559638D01*
X115420961Y-134559638D02*
X115497152Y-134521543D01*
X115497152Y-134521543D02*
X115535247Y-134483448D01*
X115535247Y-134483448D02*
X115573342Y-134407257D01*
X115573342Y-134407257D02*
X115573342Y-134254876D01*
X115573342Y-134254876D02*
X115535247Y-134178686D01*
X115535247Y-134178686D02*
X115497152Y-134140591D01*
X115497152Y-134140591D02*
X115420961Y-134102495D01*
X115078104Y-135321543D02*
X115078104Y-134864400D01*
X115078104Y-135092972D02*
X115878104Y-135092972D01*
X115878104Y-135092972D02*
X115763819Y-135016781D01*
X115763819Y-135016781D02*
X115687628Y-134940591D01*
X115687628Y-134940591D02*
X115649533Y-134864400D01*
D10*
X101714286Y-69594819D02*
X102380952Y-69594819D01*
X102380952Y-69594819D02*
X101714286Y-70594819D01*
X101714286Y-70594819D02*
X102380952Y-70594819D01*
X102904762Y-70023390D02*
X102809524Y-69975771D01*
X102809524Y-69975771D02*
X102761905Y-69928152D01*
X102761905Y-69928152D02*
X102714286Y-69832914D01*
X102714286Y-69832914D02*
X102714286Y-69785295D01*
X102714286Y-69785295D02*
X102761905Y-69690057D01*
X102761905Y-69690057D02*
X102809524Y-69642438D01*
X102809524Y-69642438D02*
X102904762Y-69594819D01*
X102904762Y-69594819D02*
X103095238Y-69594819D01*
X103095238Y-69594819D02*
X103190476Y-69642438D01*
X103190476Y-69642438D02*
X103238095Y-69690057D01*
X103238095Y-69690057D02*
X103285714Y-69785295D01*
X103285714Y-69785295D02*
X103285714Y-69832914D01*
X103285714Y-69832914D02*
X103238095Y-69928152D01*
X103238095Y-69928152D02*
X103190476Y-69975771D01*
X103190476Y-69975771D02*
X103095238Y-70023390D01*
X103095238Y-70023390D02*
X102904762Y-70023390D01*
X102904762Y-70023390D02*
X102809524Y-70071009D01*
X102809524Y-70071009D02*
X102761905Y-70118628D01*
X102761905Y-70118628D02*
X102714286Y-70213866D01*
X102714286Y-70213866D02*
X102714286Y-70404342D01*
X102714286Y-70404342D02*
X102761905Y-70499580D01*
X102761905Y-70499580D02*
X102809524Y-70547200D01*
X102809524Y-70547200D02*
X102904762Y-70594819D01*
X102904762Y-70594819D02*
X103095238Y-70594819D01*
X103095238Y-70594819D02*
X103190476Y-70547200D01*
X103190476Y-70547200D02*
X103238095Y-70499580D01*
X103238095Y-70499580D02*
X103285714Y-70404342D01*
X103285714Y-70404342D02*
X103285714Y-70213866D01*
X103285714Y-70213866D02*
X103238095Y-70118628D01*
X103238095Y-70118628D02*
X103190476Y-70071009D01*
X103190476Y-70071009D02*
X103095238Y-70023390D01*
X103904762Y-69594819D02*
X104000000Y-69594819D01*
X104000000Y-69594819D02*
X104095238Y-69642438D01*
X104095238Y-69642438D02*
X104142857Y-69690057D01*
X104142857Y-69690057D02*
X104190476Y-69785295D01*
X104190476Y-69785295D02*
X104238095Y-69975771D01*
X104238095Y-69975771D02*
X104238095Y-70213866D01*
X104238095Y-70213866D02*
X104190476Y-70404342D01*
X104190476Y-70404342D02*
X104142857Y-70499580D01*
X104142857Y-70499580D02*
X104095238Y-70547200D01*
X104095238Y-70547200D02*
X104000000Y-70594819D01*
X104000000Y-70594819D02*
X103904762Y-70594819D01*
X103904762Y-70594819D02*
X103809524Y-70547200D01*
X103809524Y-70547200D02*
X103761905Y-70499580D01*
X103761905Y-70499580D02*
X103714286Y-70404342D01*
X103714286Y-70404342D02*
X103666667Y-70213866D01*
X103666667Y-70213866D02*
X103666667Y-69975771D01*
X103666667Y-69975771D02*
X103714286Y-69785295D01*
X103714286Y-69785295D02*
X103761905Y-69690057D01*
X103761905Y-69690057D02*
X103809524Y-69642438D01*
X103809524Y-69642438D02*
X103904762Y-69594819D01*
D12*
X141067704Y-132787313D02*
X141067704Y-133320647D01*
X141067704Y-133320647D02*
X140267704Y-132977789D01*
X140801038Y-133968266D02*
X140267704Y-133968266D01*
X141105800Y-133777790D02*
X140534371Y-133587313D01*
X140534371Y-133587313D02*
X140534371Y-134082552D01*
X140267704Y-134768266D02*
X140267704Y-134387314D01*
X140267704Y-134387314D02*
X141067704Y-134387314D01*
X140305800Y-134996837D02*
X140267704Y-135111123D01*
X140267704Y-135111123D02*
X140267704Y-135301599D01*
X140267704Y-135301599D02*
X140305800Y-135377790D01*
X140305800Y-135377790D02*
X140343895Y-135415885D01*
X140343895Y-135415885D02*
X140420085Y-135453980D01*
X140420085Y-135453980D02*
X140496276Y-135453980D01*
X140496276Y-135453980D02*
X140572466Y-135415885D01*
X140572466Y-135415885D02*
X140610561Y-135377790D01*
X140610561Y-135377790D02*
X140648657Y-135301599D01*
X140648657Y-135301599D02*
X140686752Y-135149218D01*
X140686752Y-135149218D02*
X140724847Y-135073028D01*
X140724847Y-135073028D02*
X140762942Y-135034933D01*
X140762942Y-135034933D02*
X140839133Y-134996837D01*
X140839133Y-134996837D02*
X140915323Y-134996837D01*
X140915323Y-134996837D02*
X140991514Y-135034933D01*
X140991514Y-135034933D02*
X141029609Y-135073028D01*
X141029609Y-135073028D02*
X141067704Y-135149218D01*
X141067704Y-135149218D02*
X141067704Y-135339695D01*
X141067704Y-135339695D02*
X141029609Y-135453980D01*
X141067704Y-135949219D02*
X141067704Y-136025409D01*
X141067704Y-136025409D02*
X141029609Y-136101600D01*
X141029609Y-136101600D02*
X140991514Y-136139695D01*
X140991514Y-136139695D02*
X140915323Y-136177790D01*
X140915323Y-136177790D02*
X140762942Y-136215885D01*
X140762942Y-136215885D02*
X140572466Y-136215885D01*
X140572466Y-136215885D02*
X140420085Y-136177790D01*
X140420085Y-136177790D02*
X140343895Y-136139695D01*
X140343895Y-136139695D02*
X140305800Y-136101600D01*
X140305800Y-136101600D02*
X140267704Y-136025409D01*
X140267704Y-136025409D02*
X140267704Y-135949219D01*
X140267704Y-135949219D02*
X140305800Y-135873028D01*
X140305800Y-135873028D02*
X140343895Y-135834933D01*
X140343895Y-135834933D02*
X140420085Y-135796838D01*
X140420085Y-135796838D02*
X140572466Y-135758742D01*
X140572466Y-135758742D02*
X140762942Y-135758742D01*
X140762942Y-135758742D02*
X140915323Y-135796838D01*
X140915323Y-135796838D02*
X140991514Y-135834933D01*
X140991514Y-135834933D02*
X141029609Y-135873028D01*
X141029609Y-135873028D02*
X141067704Y-135949219D01*
X141067704Y-136711124D02*
X141067704Y-136787314D01*
X141067704Y-136787314D02*
X141029609Y-136863505D01*
X141029609Y-136863505D02*
X140991514Y-136901600D01*
X140991514Y-136901600D02*
X140915323Y-136939695D01*
X140915323Y-136939695D02*
X140762942Y-136977790D01*
X140762942Y-136977790D02*
X140572466Y-136977790D01*
X140572466Y-136977790D02*
X140420085Y-136939695D01*
X140420085Y-136939695D02*
X140343895Y-136901600D01*
X140343895Y-136901600D02*
X140305800Y-136863505D01*
X140305800Y-136863505D02*
X140267704Y-136787314D01*
X140267704Y-136787314D02*
X140267704Y-136711124D01*
X140267704Y-136711124D02*
X140305800Y-136634933D01*
X140305800Y-136634933D02*
X140343895Y-136596838D01*
X140343895Y-136596838D02*
X140420085Y-136558743D01*
X140420085Y-136558743D02*
X140572466Y-136520647D01*
X140572466Y-136520647D02*
X140762942Y-136520647D01*
X140762942Y-136520647D02*
X140915323Y-136558743D01*
X140915323Y-136558743D02*
X140991514Y-136596838D01*
X140991514Y-136596838D02*
X141029609Y-136634933D01*
X141029609Y-136634933D02*
X141067704Y-136711124D01*
D10*
X123579523Y-55064819D02*
X123246190Y-54588628D01*
X123008095Y-55064819D02*
X123008095Y-54064819D01*
X123008095Y-54064819D02*
X123389047Y-54064819D01*
X123389047Y-54064819D02*
X123484285Y-54112438D01*
X123484285Y-54112438D02*
X123531904Y-54160057D01*
X123531904Y-54160057D02*
X123579523Y-54255295D01*
X123579523Y-54255295D02*
X123579523Y-54398152D01*
X123579523Y-54398152D02*
X123531904Y-54493390D01*
X123531904Y-54493390D02*
X123484285Y-54541009D01*
X123484285Y-54541009D02*
X123389047Y-54588628D01*
X123389047Y-54588628D02*
X123008095Y-54588628D01*
X123960476Y-54779104D02*
X124436666Y-54779104D01*
X123865238Y-55064819D02*
X124198571Y-54064819D01*
X124198571Y-54064819D02*
X124531904Y-55064819D01*
X124865238Y-55064819D02*
X124865238Y-54064819D01*
X124865238Y-54064819D02*
X125198571Y-54779104D01*
X125198571Y-54779104D02*
X125531904Y-54064819D01*
X125531904Y-54064819D02*
X125531904Y-55064819D01*
D13*
X103625939Y-130739638D02*
X102673558Y-130739638D01*
X102673558Y-130739638D02*
X102578320Y-131692019D01*
X102578320Y-131692019D02*
X102673558Y-131596780D01*
X102673558Y-131596780D02*
X102864034Y-131501542D01*
X102864034Y-131501542D02*
X103340225Y-131501542D01*
X103340225Y-131501542D02*
X103530701Y-131596780D01*
X103530701Y-131596780D02*
X103625939Y-131692019D01*
X103625939Y-131692019D02*
X103721177Y-131882495D01*
X103721177Y-131882495D02*
X103721177Y-132358685D01*
X103721177Y-132358685D02*
X103625939Y-132549161D01*
X103625939Y-132549161D02*
X103530701Y-132644400D01*
X103530701Y-132644400D02*
X103340225Y-132739638D01*
X103340225Y-132739638D02*
X102864034Y-132739638D01*
X102864034Y-132739638D02*
X102673558Y-132644400D01*
X102673558Y-132644400D02*
X102578320Y-132549161D01*
X104292606Y-130739638D02*
X104959272Y-132739638D01*
X104959272Y-132739638D02*
X105625939Y-130739638D01*
D10*
X142523809Y-57557200D02*
X142666666Y-57604819D01*
X142666666Y-57604819D02*
X142904761Y-57604819D01*
X142904761Y-57604819D02*
X142999999Y-57557200D01*
X142999999Y-57557200D02*
X143047618Y-57509580D01*
X143047618Y-57509580D02*
X143095237Y-57414342D01*
X143095237Y-57414342D02*
X143095237Y-57319104D01*
X143095237Y-57319104D02*
X143047618Y-57223866D01*
X143047618Y-57223866D02*
X142999999Y-57176247D01*
X142999999Y-57176247D02*
X142904761Y-57128628D01*
X142904761Y-57128628D02*
X142714285Y-57081009D01*
X142714285Y-57081009D02*
X142619047Y-57033390D01*
X142619047Y-57033390D02*
X142571428Y-56985771D01*
X142571428Y-56985771D02*
X142523809Y-56890533D01*
X142523809Y-56890533D02*
X142523809Y-56795295D01*
X142523809Y-56795295D02*
X142571428Y-56700057D01*
X142571428Y-56700057D02*
X142619047Y-56652438D01*
X142619047Y-56652438D02*
X142714285Y-56604819D01*
X142714285Y-56604819D02*
X142952380Y-56604819D01*
X142952380Y-56604819D02*
X143095237Y-56652438D01*
X143904761Y-57557200D02*
X143809523Y-57604819D01*
X143809523Y-57604819D02*
X143619047Y-57604819D01*
X143619047Y-57604819D02*
X143523809Y-57557200D01*
X143523809Y-57557200D02*
X143476190Y-57461961D01*
X143476190Y-57461961D02*
X143476190Y-57081009D01*
X143476190Y-57081009D02*
X143523809Y-56985771D01*
X143523809Y-56985771D02*
X143619047Y-56938152D01*
X143619047Y-56938152D02*
X143809523Y-56938152D01*
X143809523Y-56938152D02*
X143904761Y-56985771D01*
X143904761Y-56985771D02*
X143952380Y-57081009D01*
X143952380Y-57081009D02*
X143952380Y-57176247D01*
X143952380Y-57176247D02*
X143476190Y-57271485D01*
X144380952Y-57604819D02*
X144380952Y-56938152D01*
X144380952Y-57128628D02*
X144428571Y-57033390D01*
X144428571Y-57033390D02*
X144476190Y-56985771D01*
X144476190Y-56985771D02*
X144571428Y-56938152D01*
X144571428Y-56938152D02*
X144666666Y-56938152D01*
X145000000Y-57604819D02*
X145000000Y-56938152D01*
X145000000Y-56604819D02*
X144952381Y-56652438D01*
X144952381Y-56652438D02*
X145000000Y-56700057D01*
X145000000Y-56700057D02*
X145047619Y-56652438D01*
X145047619Y-56652438D02*
X145000000Y-56604819D01*
X145000000Y-56604819D02*
X145000000Y-56700057D01*
X145904761Y-57604819D02*
X145904761Y-57081009D01*
X145904761Y-57081009D02*
X145857142Y-56985771D01*
X145857142Y-56985771D02*
X145761904Y-56938152D01*
X145761904Y-56938152D02*
X145571428Y-56938152D01*
X145571428Y-56938152D02*
X145476190Y-56985771D01*
X145904761Y-57557200D02*
X145809523Y-57604819D01*
X145809523Y-57604819D02*
X145571428Y-57604819D01*
X145571428Y-57604819D02*
X145476190Y-57557200D01*
X145476190Y-57557200D02*
X145428571Y-57461961D01*
X145428571Y-57461961D02*
X145428571Y-57366723D01*
X145428571Y-57366723D02*
X145476190Y-57271485D01*
X145476190Y-57271485D02*
X145571428Y-57223866D01*
X145571428Y-57223866D02*
X145809523Y-57223866D01*
X145809523Y-57223866D02*
X145904761Y-57176247D01*
X146523809Y-57604819D02*
X146428571Y-57557200D01*
X146428571Y-57557200D02*
X146380952Y-57461961D01*
X146380952Y-57461961D02*
X146380952Y-56604819D01*
D12*
X128832104Y-132059713D02*
X128832104Y-132593047D01*
X128832104Y-132593047D02*
X128032104Y-132250189D01*
X128565438Y-133240666D02*
X128032104Y-133240666D01*
X128870200Y-133050190D02*
X128298771Y-132859713D01*
X128298771Y-132859713D02*
X128298771Y-133354952D01*
X128032104Y-134040666D02*
X128032104Y-133659714D01*
X128032104Y-133659714D02*
X128832104Y-133659714D01*
X128070200Y-134269237D02*
X128032104Y-134383523D01*
X128032104Y-134383523D02*
X128032104Y-134573999D01*
X128032104Y-134573999D02*
X128070200Y-134650190D01*
X128070200Y-134650190D02*
X128108295Y-134688285D01*
X128108295Y-134688285D02*
X128184485Y-134726380D01*
X128184485Y-134726380D02*
X128260676Y-134726380D01*
X128260676Y-134726380D02*
X128336866Y-134688285D01*
X128336866Y-134688285D02*
X128374961Y-134650190D01*
X128374961Y-134650190D02*
X128413057Y-134573999D01*
X128413057Y-134573999D02*
X128451152Y-134421618D01*
X128451152Y-134421618D02*
X128489247Y-134345428D01*
X128489247Y-134345428D02*
X128527342Y-134307333D01*
X128527342Y-134307333D02*
X128603533Y-134269237D01*
X128603533Y-134269237D02*
X128679723Y-134269237D01*
X128679723Y-134269237D02*
X128755914Y-134307333D01*
X128755914Y-134307333D02*
X128794009Y-134345428D01*
X128794009Y-134345428D02*
X128832104Y-134421618D01*
X128832104Y-134421618D02*
X128832104Y-134612095D01*
X128832104Y-134612095D02*
X128794009Y-134726380D01*
X128832104Y-134993047D02*
X128832104Y-135488285D01*
X128832104Y-135488285D02*
X128527342Y-135221619D01*
X128527342Y-135221619D02*
X128527342Y-135335904D01*
X128527342Y-135335904D02*
X128489247Y-135412095D01*
X128489247Y-135412095D02*
X128451152Y-135450190D01*
X128451152Y-135450190D02*
X128374961Y-135488285D01*
X128374961Y-135488285D02*
X128184485Y-135488285D01*
X128184485Y-135488285D02*
X128108295Y-135450190D01*
X128108295Y-135450190D02*
X128070200Y-135412095D01*
X128070200Y-135412095D02*
X128032104Y-135335904D01*
X128032104Y-135335904D02*
X128032104Y-135107333D01*
X128032104Y-135107333D02*
X128070200Y-135031142D01*
X128070200Y-135031142D02*
X128108295Y-134993047D01*
X128755914Y-135793047D02*
X128794009Y-135831143D01*
X128794009Y-135831143D02*
X128832104Y-135907333D01*
X128832104Y-135907333D02*
X128832104Y-136097809D01*
X128832104Y-136097809D02*
X128794009Y-136174000D01*
X128794009Y-136174000D02*
X128755914Y-136212095D01*
X128755914Y-136212095D02*
X128679723Y-136250190D01*
X128679723Y-136250190D02*
X128603533Y-136250190D01*
X128603533Y-136250190D02*
X128489247Y-136212095D01*
X128489247Y-136212095D02*
X128032104Y-135754952D01*
X128032104Y-135754952D02*
X128032104Y-136250190D01*
X115741104Y-109046113D02*
X115741104Y-109579447D01*
X115741104Y-109579447D02*
X114941104Y-109236589D01*
X115474438Y-110227066D02*
X114941104Y-110227066D01*
X115779200Y-110036590D02*
X115207771Y-109846113D01*
X115207771Y-109846113D02*
X115207771Y-110341352D01*
X114941104Y-111027066D02*
X114941104Y-110646114D01*
X114941104Y-110646114D02*
X115741104Y-110646114D01*
X114979200Y-111255637D02*
X114941104Y-111369923D01*
X114941104Y-111369923D02*
X114941104Y-111560399D01*
X114941104Y-111560399D02*
X114979200Y-111636590D01*
X114979200Y-111636590D02*
X115017295Y-111674685D01*
X115017295Y-111674685D02*
X115093485Y-111712780D01*
X115093485Y-111712780D02*
X115169676Y-111712780D01*
X115169676Y-111712780D02*
X115245866Y-111674685D01*
X115245866Y-111674685D02*
X115283961Y-111636590D01*
X115283961Y-111636590D02*
X115322057Y-111560399D01*
X115322057Y-111560399D02*
X115360152Y-111408018D01*
X115360152Y-111408018D02*
X115398247Y-111331828D01*
X115398247Y-111331828D02*
X115436342Y-111293733D01*
X115436342Y-111293733D02*
X115512533Y-111255637D01*
X115512533Y-111255637D02*
X115588723Y-111255637D01*
X115588723Y-111255637D02*
X115664914Y-111293733D01*
X115664914Y-111293733D02*
X115703009Y-111331828D01*
X115703009Y-111331828D02*
X115741104Y-111408018D01*
X115741104Y-111408018D02*
X115741104Y-111598495D01*
X115741104Y-111598495D02*
X115703009Y-111712780D01*
X115741104Y-111979447D02*
X115741104Y-112512781D01*
X115741104Y-112512781D02*
X114941104Y-112169923D01*
X115474438Y-113160400D02*
X114941104Y-113160400D01*
X115779200Y-112969924D02*
X115207771Y-112779447D01*
X115207771Y-112779447D02*
X115207771Y-113274686D01*
D10*
X166946942Y-68929524D02*
X166994561Y-68977143D01*
X166994561Y-68977143D02*
X167042180Y-69072381D01*
X167042180Y-69072381D02*
X167042180Y-69310476D01*
X167042180Y-69310476D02*
X166994561Y-69405714D01*
X166994561Y-69405714D02*
X166946942Y-69453333D01*
X166946942Y-69453333D02*
X166851704Y-69500952D01*
X166851704Y-69500952D02*
X166756466Y-69500952D01*
X166756466Y-69500952D02*
X166613609Y-69453333D01*
X166613609Y-69453333D02*
X166042180Y-68881905D01*
X166042180Y-68881905D02*
X166042180Y-69500952D01*
X167042180Y-69834286D02*
X167042180Y-70500952D01*
X167042180Y-70500952D02*
X166042180Y-70072381D01*
X166946942Y-70834286D02*
X166994561Y-70881905D01*
X166994561Y-70881905D02*
X167042180Y-70977143D01*
X167042180Y-70977143D02*
X167042180Y-71215238D01*
X167042180Y-71215238D02*
X166994561Y-71310476D01*
X166994561Y-71310476D02*
X166946942Y-71358095D01*
X166946942Y-71358095D02*
X166851704Y-71405714D01*
X166851704Y-71405714D02*
X166756466Y-71405714D01*
X166756466Y-71405714D02*
X166613609Y-71358095D01*
X166613609Y-71358095D02*
X166042180Y-70786667D01*
X166042180Y-70786667D02*
X166042180Y-71405714D01*
X167042180Y-72310476D02*
X167042180Y-71834286D01*
X167042180Y-71834286D02*
X166565990Y-71786667D01*
X166565990Y-71786667D02*
X166613609Y-71834286D01*
X166613609Y-71834286D02*
X166661228Y-71929524D01*
X166661228Y-71929524D02*
X166661228Y-72167619D01*
X166661228Y-72167619D02*
X166613609Y-72262857D01*
X166613609Y-72262857D02*
X166565990Y-72310476D01*
X166565990Y-72310476D02*
X166470752Y-72358095D01*
X166470752Y-72358095D02*
X166232657Y-72358095D01*
X166232657Y-72358095D02*
X166137419Y-72310476D01*
X166137419Y-72310476D02*
X166089800Y-72262857D01*
X166089800Y-72262857D02*
X166042180Y-72167619D01*
X166042180Y-72167619D02*
X166042180Y-71929524D01*
X166042180Y-71929524D02*
X166089800Y-71834286D01*
X166089800Y-71834286D02*
X166137419Y-71786667D01*
X167042180Y-73215238D02*
X167042180Y-73024762D01*
X167042180Y-73024762D02*
X166994561Y-72929524D01*
X166994561Y-72929524D02*
X166946942Y-72881905D01*
X166946942Y-72881905D02*
X166804085Y-72786667D01*
X166804085Y-72786667D02*
X166613609Y-72739048D01*
X166613609Y-72739048D02*
X166232657Y-72739048D01*
X166232657Y-72739048D02*
X166137419Y-72786667D01*
X166137419Y-72786667D02*
X166089800Y-72834286D01*
X166089800Y-72834286D02*
X166042180Y-72929524D01*
X166042180Y-72929524D02*
X166042180Y-73120000D01*
X166042180Y-73120000D02*
X166089800Y-73215238D01*
X166089800Y-73215238D02*
X166137419Y-73262857D01*
X166137419Y-73262857D02*
X166232657Y-73310476D01*
X166232657Y-73310476D02*
X166470752Y-73310476D01*
X166470752Y-73310476D02*
X166565990Y-73262857D01*
X166565990Y-73262857D02*
X166613609Y-73215238D01*
X166613609Y-73215238D02*
X166661228Y-73120000D01*
X166661228Y-73120000D02*
X166661228Y-72929524D01*
X166661228Y-72929524D02*
X166613609Y-72834286D01*
X166613609Y-72834286D02*
X166565990Y-72786667D01*
X166565990Y-72786667D02*
X166470752Y-72739048D01*
X86741048Y-79208866D02*
X87502953Y-79208866D01*
X122936190Y-88478590D02*
X122840952Y-88430971D01*
X122840952Y-88430971D02*
X122793333Y-88383352D01*
X122793333Y-88383352D02*
X122745714Y-88288114D01*
X122745714Y-88288114D02*
X122745714Y-88240495D01*
X122745714Y-88240495D02*
X122793333Y-88145257D01*
X122793333Y-88145257D02*
X122840952Y-88097638D01*
X122840952Y-88097638D02*
X122936190Y-88050019D01*
X122936190Y-88050019D02*
X123126666Y-88050019D01*
X123126666Y-88050019D02*
X123221904Y-88097638D01*
X123221904Y-88097638D02*
X123269523Y-88145257D01*
X123269523Y-88145257D02*
X123317142Y-88240495D01*
X123317142Y-88240495D02*
X123317142Y-88288114D01*
X123317142Y-88288114D02*
X123269523Y-88383352D01*
X123269523Y-88383352D02*
X123221904Y-88430971D01*
X123221904Y-88430971D02*
X123126666Y-88478590D01*
X123126666Y-88478590D02*
X122936190Y-88478590D01*
X122936190Y-88478590D02*
X122840952Y-88526209D01*
X122840952Y-88526209D02*
X122793333Y-88573828D01*
X122793333Y-88573828D02*
X122745714Y-88669066D01*
X122745714Y-88669066D02*
X122745714Y-88859542D01*
X122745714Y-88859542D02*
X122793333Y-88954780D01*
X122793333Y-88954780D02*
X122840952Y-89002400D01*
X122840952Y-89002400D02*
X122936190Y-89050019D01*
X122936190Y-89050019D02*
X123126666Y-89050019D01*
X123126666Y-89050019D02*
X123221904Y-89002400D01*
X123221904Y-89002400D02*
X123269523Y-88954780D01*
X123269523Y-88954780D02*
X123317142Y-88859542D01*
X123317142Y-88859542D02*
X123317142Y-88669066D01*
X123317142Y-88669066D02*
X123269523Y-88573828D01*
X123269523Y-88573828D02*
X123221904Y-88526209D01*
X123221904Y-88526209D02*
X123126666Y-88478590D01*
X123745714Y-89050019D02*
X123745714Y-88050019D01*
X123745714Y-88050019D02*
X124079047Y-88764304D01*
X124079047Y-88764304D02*
X124412380Y-88050019D01*
X124412380Y-88050019D02*
X124412380Y-89050019D01*
X124888571Y-89050019D02*
X124888571Y-88050019D01*
X125317142Y-89050019D02*
X125317142Y-88526209D01*
X125317142Y-88526209D02*
X125269523Y-88430971D01*
X125269523Y-88430971D02*
X125174285Y-88383352D01*
X125174285Y-88383352D02*
X125031428Y-88383352D01*
X125031428Y-88383352D02*
X124936190Y-88430971D01*
X124936190Y-88430971D02*
X124888571Y-88478590D01*
X125698095Y-88383352D02*
X126221904Y-88383352D01*
X126221904Y-88383352D02*
X125698095Y-89050019D01*
X125698095Y-89050019D02*
X126221904Y-89050019D01*
X167476191Y-137106819D02*
X167476191Y-136106819D01*
X168142857Y-136106819D02*
X168333333Y-136106819D01*
X168333333Y-136106819D02*
X168428571Y-136154438D01*
X168428571Y-136154438D02*
X168523809Y-136249676D01*
X168523809Y-136249676D02*
X168571428Y-136440152D01*
X168571428Y-136440152D02*
X168571428Y-136773485D01*
X168571428Y-136773485D02*
X168523809Y-136963961D01*
X168523809Y-136963961D02*
X168428571Y-137059200D01*
X168428571Y-137059200D02*
X168333333Y-137106819D01*
X168333333Y-137106819D02*
X168142857Y-137106819D01*
X168142857Y-137106819D02*
X168047619Y-137059200D01*
X168047619Y-137059200D02*
X167952381Y-136963961D01*
X167952381Y-136963961D02*
X167904762Y-136773485D01*
X167904762Y-136773485D02*
X167904762Y-136440152D01*
X167904762Y-136440152D02*
X167952381Y-136249676D01*
X167952381Y-136249676D02*
X168047619Y-136154438D01*
X168047619Y-136154438D02*
X168142857Y-136106819D01*
X143545160Y-74276057D02*
X143592779Y-74228438D01*
X143592779Y-74228438D02*
X143688017Y-74180819D01*
X143688017Y-74180819D02*
X143926112Y-74180819D01*
X143926112Y-74180819D02*
X144021350Y-74228438D01*
X144021350Y-74228438D02*
X144068969Y-74276057D01*
X144068969Y-74276057D02*
X144116588Y-74371295D01*
X144116588Y-74371295D02*
X144116588Y-74466533D01*
X144116588Y-74466533D02*
X144068969Y-74609390D01*
X144068969Y-74609390D02*
X143497541Y-75180819D01*
X143497541Y-75180819D02*
X144116588Y-75180819D01*
X144545160Y-75180819D02*
X144545160Y-74180819D01*
X144640398Y-74799866D02*
X144926112Y-75180819D01*
X144926112Y-74514152D02*
X144545160Y-74895104D01*
X145259446Y-74180819D02*
X145926112Y-74180819D01*
X145926112Y-74180819D02*
X145497541Y-75180819D01*
X86741048Y-71675066D02*
X87502953Y-71675066D01*
X87122000Y-72056019D02*
X87122000Y-71294114D01*
D12*
X141100104Y-109828561D02*
X141100104Y-110361895D01*
X141100104Y-110361895D02*
X140300104Y-110019037D01*
X140833438Y-111009514D02*
X140300104Y-111009514D01*
X141138200Y-110819038D02*
X140566771Y-110628561D01*
X140566771Y-110628561D02*
X140566771Y-111123800D01*
X140300104Y-111809514D02*
X140300104Y-111428562D01*
X140300104Y-111428562D02*
X141100104Y-111428562D01*
X140338200Y-112038085D02*
X140300104Y-112152371D01*
X140300104Y-112152371D02*
X140300104Y-112342847D01*
X140300104Y-112342847D02*
X140338200Y-112419038D01*
X140338200Y-112419038D02*
X140376295Y-112457133D01*
X140376295Y-112457133D02*
X140452485Y-112495228D01*
X140452485Y-112495228D02*
X140528676Y-112495228D01*
X140528676Y-112495228D02*
X140604866Y-112457133D01*
X140604866Y-112457133D02*
X140642961Y-112419038D01*
X140642961Y-112419038D02*
X140681057Y-112342847D01*
X140681057Y-112342847D02*
X140719152Y-112190466D01*
X140719152Y-112190466D02*
X140757247Y-112114276D01*
X140757247Y-112114276D02*
X140795342Y-112076181D01*
X140795342Y-112076181D02*
X140871533Y-112038085D01*
X140871533Y-112038085D02*
X140947723Y-112038085D01*
X140947723Y-112038085D02*
X141023914Y-112076181D01*
X141023914Y-112076181D02*
X141062009Y-112114276D01*
X141062009Y-112114276D02*
X141100104Y-112190466D01*
X141100104Y-112190466D02*
X141100104Y-112380943D01*
X141100104Y-112380943D02*
X141062009Y-112495228D01*
X140300104Y-113257133D02*
X140300104Y-112799990D01*
X140300104Y-113028562D02*
X141100104Y-113028562D01*
X141100104Y-113028562D02*
X140985819Y-112952371D01*
X140985819Y-112952371D02*
X140909628Y-112876181D01*
X140909628Y-112876181D02*
X140871533Y-112799990D01*
X141100104Y-113523800D02*
X141100104Y-114019038D01*
X141100104Y-114019038D02*
X140795342Y-113752372D01*
X140795342Y-113752372D02*
X140795342Y-113866657D01*
X140795342Y-113866657D02*
X140757247Y-113942848D01*
X140757247Y-113942848D02*
X140719152Y-113980943D01*
X140719152Y-113980943D02*
X140642961Y-114019038D01*
X140642961Y-114019038D02*
X140452485Y-114019038D01*
X140452485Y-114019038D02*
X140376295Y-113980943D01*
X140376295Y-113980943D02*
X140338200Y-113942848D01*
X140338200Y-113942848D02*
X140300104Y-113866657D01*
X140300104Y-113866657D02*
X140300104Y-113638086D01*
X140300104Y-113638086D02*
X140338200Y-113561895D01*
X140338200Y-113561895D02*
X140376295Y-113523800D01*
X140757247Y-114476181D02*
X140795342Y-114399991D01*
X140795342Y-114399991D02*
X140833438Y-114361896D01*
X140833438Y-114361896D02*
X140909628Y-114323800D01*
X140909628Y-114323800D02*
X140947723Y-114323800D01*
X140947723Y-114323800D02*
X141023914Y-114361896D01*
X141023914Y-114361896D02*
X141062009Y-114399991D01*
X141062009Y-114399991D02*
X141100104Y-114476181D01*
X141100104Y-114476181D02*
X141100104Y-114628562D01*
X141100104Y-114628562D02*
X141062009Y-114704753D01*
X141062009Y-114704753D02*
X141023914Y-114742848D01*
X141023914Y-114742848D02*
X140947723Y-114780943D01*
X140947723Y-114780943D02*
X140909628Y-114780943D01*
X140909628Y-114780943D02*
X140833438Y-114742848D01*
X140833438Y-114742848D02*
X140795342Y-114704753D01*
X140795342Y-114704753D02*
X140757247Y-114628562D01*
X140757247Y-114628562D02*
X140757247Y-114476181D01*
X140757247Y-114476181D02*
X140719152Y-114399991D01*
X140719152Y-114399991D02*
X140681057Y-114361896D01*
X140681057Y-114361896D02*
X140604866Y-114323800D01*
X140604866Y-114323800D02*
X140452485Y-114323800D01*
X140452485Y-114323800D02*
X140376295Y-114361896D01*
X140376295Y-114361896D02*
X140338200Y-114399991D01*
X140338200Y-114399991D02*
X140300104Y-114476181D01*
X140300104Y-114476181D02*
X140300104Y-114628562D01*
X140300104Y-114628562D02*
X140338200Y-114704753D01*
X140338200Y-114704753D02*
X140376295Y-114742848D01*
X140376295Y-114742848D02*
X140452485Y-114780943D01*
X140452485Y-114780943D02*
X140604866Y-114780943D01*
X140604866Y-114780943D02*
X140681057Y-114742848D01*
X140681057Y-114742848D02*
X140719152Y-114704753D01*
X140719152Y-114704753D02*
X140757247Y-114628562D01*
X97415504Y-141097219D02*
X97082171Y-140621028D01*
X96844076Y-141097219D02*
X96844076Y-140097219D01*
X96844076Y-140097219D02*
X97225028Y-140097219D01*
X97225028Y-140097219D02*
X97320266Y-140144838D01*
X97320266Y-140144838D02*
X97367885Y-140192457D01*
X97367885Y-140192457D02*
X97415504Y-140287695D01*
X97415504Y-140287695D02*
X97415504Y-140430552D01*
X97415504Y-140430552D02*
X97367885Y-140525790D01*
X97367885Y-140525790D02*
X97320266Y-140573409D01*
X97320266Y-140573409D02*
X97225028Y-140621028D01*
X97225028Y-140621028D02*
X96844076Y-140621028D01*
X98225028Y-141049600D02*
X98129790Y-141097219D01*
X98129790Y-141097219D02*
X97939314Y-141097219D01*
X97939314Y-141097219D02*
X97844076Y-141049600D01*
X97844076Y-141049600D02*
X97796457Y-140954361D01*
X97796457Y-140954361D02*
X97796457Y-140573409D01*
X97796457Y-140573409D02*
X97844076Y-140478171D01*
X97844076Y-140478171D02*
X97939314Y-140430552D01*
X97939314Y-140430552D02*
X98129790Y-140430552D01*
X98129790Y-140430552D02*
X98225028Y-140478171D01*
X98225028Y-140478171D02*
X98272647Y-140573409D01*
X98272647Y-140573409D02*
X98272647Y-140668647D01*
X98272647Y-140668647D02*
X97796457Y-140763885D01*
X98653600Y-141049600D02*
X98748838Y-141097219D01*
X98748838Y-141097219D02*
X98939314Y-141097219D01*
X98939314Y-141097219D02*
X99034552Y-141049600D01*
X99034552Y-141049600D02*
X99082171Y-140954361D01*
X99082171Y-140954361D02*
X99082171Y-140906742D01*
X99082171Y-140906742D02*
X99034552Y-140811504D01*
X99034552Y-140811504D02*
X98939314Y-140763885D01*
X98939314Y-140763885D02*
X98796457Y-140763885D01*
X98796457Y-140763885D02*
X98701219Y-140716266D01*
X98701219Y-140716266D02*
X98653600Y-140621028D01*
X98653600Y-140621028D02*
X98653600Y-140573409D01*
X98653600Y-140573409D02*
X98701219Y-140478171D01*
X98701219Y-140478171D02*
X98796457Y-140430552D01*
X98796457Y-140430552D02*
X98939314Y-140430552D01*
X98939314Y-140430552D02*
X99034552Y-140478171D01*
X99891695Y-141049600D02*
X99796457Y-141097219D01*
X99796457Y-141097219D02*
X99605981Y-141097219D01*
X99605981Y-141097219D02*
X99510743Y-141049600D01*
X99510743Y-141049600D02*
X99463124Y-140954361D01*
X99463124Y-140954361D02*
X99463124Y-140573409D01*
X99463124Y-140573409D02*
X99510743Y-140478171D01*
X99510743Y-140478171D02*
X99605981Y-140430552D01*
X99605981Y-140430552D02*
X99796457Y-140430552D01*
X99796457Y-140430552D02*
X99891695Y-140478171D01*
X99891695Y-140478171D02*
X99939314Y-140573409D01*
X99939314Y-140573409D02*
X99939314Y-140668647D01*
X99939314Y-140668647D02*
X99463124Y-140763885D01*
X100225029Y-140430552D02*
X100605981Y-140430552D01*
X100367886Y-140097219D02*
X100367886Y-140954361D01*
X100367886Y-140954361D02*
X100415505Y-141049600D01*
X100415505Y-141049600D02*
X100510743Y-141097219D01*
X100510743Y-141097219D02*
X100605981Y-141097219D01*
D10*
X164071428Y-115094819D02*
X164071428Y-114094819D01*
X164071428Y-114094819D02*
X164452380Y-114094819D01*
X164452380Y-114094819D02*
X164547618Y-114142438D01*
X164547618Y-114142438D02*
X164595237Y-114190057D01*
X164595237Y-114190057D02*
X164642856Y-114285295D01*
X164642856Y-114285295D02*
X164642856Y-114428152D01*
X164642856Y-114428152D02*
X164595237Y-114523390D01*
X164595237Y-114523390D02*
X164547618Y-114571009D01*
X164547618Y-114571009D02*
X164452380Y-114618628D01*
X164452380Y-114618628D02*
X164071428Y-114618628D01*
X165499999Y-115094819D02*
X165499999Y-114571009D01*
X165499999Y-114571009D02*
X165452380Y-114475771D01*
X165452380Y-114475771D02*
X165357142Y-114428152D01*
X165357142Y-114428152D02*
X165166666Y-114428152D01*
X165166666Y-114428152D02*
X165071428Y-114475771D01*
X165499999Y-115047200D02*
X165404761Y-115094819D01*
X165404761Y-115094819D02*
X165166666Y-115094819D01*
X165166666Y-115094819D02*
X165071428Y-115047200D01*
X165071428Y-115047200D02*
X165023809Y-114951961D01*
X165023809Y-114951961D02*
X165023809Y-114856723D01*
X165023809Y-114856723D02*
X165071428Y-114761485D01*
X165071428Y-114761485D02*
X165166666Y-114713866D01*
X165166666Y-114713866D02*
X165404761Y-114713866D01*
X165404761Y-114713866D02*
X165499999Y-114666247D01*
X166404761Y-114428152D02*
X166404761Y-115237676D01*
X166404761Y-115237676D02*
X166357142Y-115332914D01*
X166357142Y-115332914D02*
X166309523Y-115380533D01*
X166309523Y-115380533D02*
X166214285Y-115428152D01*
X166214285Y-115428152D02*
X166071428Y-115428152D01*
X166071428Y-115428152D02*
X165976190Y-115380533D01*
X166404761Y-115047200D02*
X166309523Y-115094819D01*
X166309523Y-115094819D02*
X166119047Y-115094819D01*
X166119047Y-115094819D02*
X166023809Y-115047200D01*
X166023809Y-115047200D02*
X165976190Y-114999580D01*
X165976190Y-114999580D02*
X165928571Y-114904342D01*
X165928571Y-114904342D02*
X165928571Y-114618628D01*
X165928571Y-114618628D02*
X165976190Y-114523390D01*
X165976190Y-114523390D02*
X166023809Y-114475771D01*
X166023809Y-114475771D02*
X166119047Y-114428152D01*
X166119047Y-114428152D02*
X166309523Y-114428152D01*
X166309523Y-114428152D02*
X166404761Y-114475771D01*
X167261904Y-115047200D02*
X167166666Y-115094819D01*
X167166666Y-115094819D02*
X166976190Y-115094819D01*
X166976190Y-115094819D02*
X166880952Y-115047200D01*
X166880952Y-115047200D02*
X166833333Y-114951961D01*
X166833333Y-114951961D02*
X166833333Y-114571009D01*
X166833333Y-114571009D02*
X166880952Y-114475771D01*
X166880952Y-114475771D02*
X166976190Y-114428152D01*
X166976190Y-114428152D02*
X167166666Y-114428152D01*
X167166666Y-114428152D02*
X167261904Y-114475771D01*
X167261904Y-114475771D02*
X167309523Y-114571009D01*
X167309523Y-114571009D02*
X167309523Y-114666247D01*
X167309523Y-114666247D02*
X166833333Y-114761485D01*
X168166666Y-115094819D02*
X168166666Y-114094819D01*
X168166666Y-115047200D02*
X168071428Y-115094819D01*
X168071428Y-115094819D02*
X167880952Y-115094819D01*
X167880952Y-115094819D02*
X167785714Y-115047200D01*
X167785714Y-115047200D02*
X167738095Y-114999580D01*
X167738095Y-114999580D02*
X167690476Y-114904342D01*
X167690476Y-114904342D02*
X167690476Y-114618628D01*
X167690476Y-114618628D02*
X167738095Y-114523390D01*
X167738095Y-114523390D02*
X167785714Y-114475771D01*
X167785714Y-114475771D02*
X167880952Y-114428152D01*
X167880952Y-114428152D02*
X168071428Y-114428152D01*
X168071428Y-114428152D02*
X168166666Y-114475771D01*
X169976190Y-115094819D02*
X169642857Y-114618628D01*
X169404762Y-115094819D02*
X169404762Y-114094819D01*
X169404762Y-114094819D02*
X169785714Y-114094819D01*
X169785714Y-114094819D02*
X169880952Y-114142438D01*
X169880952Y-114142438D02*
X169928571Y-114190057D01*
X169928571Y-114190057D02*
X169976190Y-114285295D01*
X169976190Y-114285295D02*
X169976190Y-114428152D01*
X169976190Y-114428152D02*
X169928571Y-114523390D01*
X169928571Y-114523390D02*
X169880952Y-114571009D01*
X169880952Y-114571009D02*
X169785714Y-114618628D01*
X169785714Y-114618628D02*
X169404762Y-114618628D01*
X170357143Y-114809104D02*
X170833333Y-114809104D01*
X170261905Y-115094819D02*
X170595238Y-114094819D01*
X170595238Y-114094819D02*
X170928571Y-115094819D01*
X171261905Y-115094819D02*
X171261905Y-114094819D01*
X171261905Y-114094819D02*
X171595238Y-114809104D01*
X171595238Y-114809104D02*
X171928571Y-114094819D01*
X171928571Y-114094819D02*
X171928571Y-115094819D01*
D12*
X102553104Y-106369113D02*
X102553104Y-106902447D01*
X102553104Y-106902447D02*
X101753104Y-106559589D01*
X102286438Y-107550066D02*
X101753104Y-107550066D01*
X102591200Y-107359590D02*
X102019771Y-107169113D01*
X102019771Y-107169113D02*
X102019771Y-107664352D01*
X101753104Y-108350066D02*
X101753104Y-107969114D01*
X101753104Y-107969114D02*
X102553104Y-107969114D01*
X101791200Y-108578637D02*
X101753104Y-108692923D01*
X101753104Y-108692923D02*
X101753104Y-108883399D01*
X101753104Y-108883399D02*
X101791200Y-108959590D01*
X101791200Y-108959590D02*
X101829295Y-108997685D01*
X101829295Y-108997685D02*
X101905485Y-109035780D01*
X101905485Y-109035780D02*
X101981676Y-109035780D01*
X101981676Y-109035780D02*
X102057866Y-108997685D01*
X102057866Y-108997685D02*
X102095961Y-108959590D01*
X102095961Y-108959590D02*
X102134057Y-108883399D01*
X102134057Y-108883399D02*
X102172152Y-108731018D01*
X102172152Y-108731018D02*
X102210247Y-108654828D01*
X102210247Y-108654828D02*
X102248342Y-108616733D01*
X102248342Y-108616733D02*
X102324533Y-108578637D01*
X102324533Y-108578637D02*
X102400723Y-108578637D01*
X102400723Y-108578637D02*
X102476914Y-108616733D01*
X102476914Y-108616733D02*
X102515009Y-108654828D01*
X102515009Y-108654828D02*
X102553104Y-108731018D01*
X102553104Y-108731018D02*
X102553104Y-108921495D01*
X102553104Y-108921495D02*
X102515009Y-109035780D01*
X102553104Y-109531019D02*
X102553104Y-109607209D01*
X102553104Y-109607209D02*
X102515009Y-109683400D01*
X102515009Y-109683400D02*
X102476914Y-109721495D01*
X102476914Y-109721495D02*
X102400723Y-109759590D01*
X102400723Y-109759590D02*
X102248342Y-109797685D01*
X102248342Y-109797685D02*
X102057866Y-109797685D01*
X102057866Y-109797685D02*
X101905485Y-109759590D01*
X101905485Y-109759590D02*
X101829295Y-109721495D01*
X101829295Y-109721495D02*
X101791200Y-109683400D01*
X101791200Y-109683400D02*
X101753104Y-109607209D01*
X101753104Y-109607209D02*
X101753104Y-109531019D01*
X101753104Y-109531019D02*
X101791200Y-109454828D01*
X101791200Y-109454828D02*
X101829295Y-109416733D01*
X101829295Y-109416733D02*
X101905485Y-109378638D01*
X101905485Y-109378638D02*
X102057866Y-109340542D01*
X102057866Y-109340542D02*
X102248342Y-109340542D01*
X102248342Y-109340542D02*
X102400723Y-109378638D01*
X102400723Y-109378638D02*
X102476914Y-109416733D01*
X102476914Y-109416733D02*
X102515009Y-109454828D01*
X102515009Y-109454828D02*
X102553104Y-109531019D01*
X102286438Y-110483400D02*
X101753104Y-110483400D01*
X102591200Y-110292924D02*
X102019771Y-110102447D01*
X102019771Y-110102447D02*
X102019771Y-110597686D01*
X152910504Y-120692761D02*
X152910504Y-121226095D01*
X152910504Y-121226095D02*
X152110504Y-120883237D01*
X152643838Y-121873714D02*
X152110504Y-121873714D01*
X152948600Y-121683238D02*
X152377171Y-121492761D01*
X152377171Y-121492761D02*
X152377171Y-121988000D01*
X152110504Y-122673714D02*
X152110504Y-122292762D01*
X152110504Y-122292762D02*
X152910504Y-122292762D01*
X152148600Y-122902285D02*
X152110504Y-123016571D01*
X152110504Y-123016571D02*
X152110504Y-123207047D01*
X152110504Y-123207047D02*
X152148600Y-123283238D01*
X152148600Y-123283238D02*
X152186695Y-123321333D01*
X152186695Y-123321333D02*
X152262885Y-123359428D01*
X152262885Y-123359428D02*
X152339076Y-123359428D01*
X152339076Y-123359428D02*
X152415266Y-123321333D01*
X152415266Y-123321333D02*
X152453361Y-123283238D01*
X152453361Y-123283238D02*
X152491457Y-123207047D01*
X152491457Y-123207047D02*
X152529552Y-123054666D01*
X152529552Y-123054666D02*
X152567647Y-122978476D01*
X152567647Y-122978476D02*
X152605742Y-122940381D01*
X152605742Y-122940381D02*
X152681933Y-122902285D01*
X152681933Y-122902285D02*
X152758123Y-122902285D01*
X152758123Y-122902285D02*
X152834314Y-122940381D01*
X152834314Y-122940381D02*
X152872409Y-122978476D01*
X152872409Y-122978476D02*
X152910504Y-123054666D01*
X152910504Y-123054666D02*
X152910504Y-123245143D01*
X152910504Y-123245143D02*
X152872409Y-123359428D01*
X152910504Y-123626095D02*
X152910504Y-124121333D01*
X152910504Y-124121333D02*
X152605742Y-123854667D01*
X152605742Y-123854667D02*
X152605742Y-123968952D01*
X152605742Y-123968952D02*
X152567647Y-124045143D01*
X152567647Y-124045143D02*
X152529552Y-124083238D01*
X152529552Y-124083238D02*
X152453361Y-124121333D01*
X152453361Y-124121333D02*
X152262885Y-124121333D01*
X152262885Y-124121333D02*
X152186695Y-124083238D01*
X152186695Y-124083238D02*
X152148600Y-124045143D01*
X152148600Y-124045143D02*
X152110504Y-123968952D01*
X152110504Y-123968952D02*
X152110504Y-123740381D01*
X152110504Y-123740381D02*
X152148600Y-123664190D01*
X152148600Y-123664190D02*
X152186695Y-123626095D01*
X152910504Y-124388000D02*
X152910504Y-124921334D01*
X152910504Y-124921334D02*
X152110504Y-124578476D01*
X152643838Y-125568953D02*
X152110504Y-125568953D01*
X152948600Y-125378477D02*
X152377171Y-125188000D01*
X152377171Y-125188000D02*
X152377171Y-125683239D01*
D10*
X86436295Y-73738419D02*
X87007723Y-73738419D01*
X86722009Y-74738419D02*
X86722009Y-73738419D01*
X87245819Y-73738419D02*
X87912485Y-74738419D01*
X87912485Y-73738419D02*
X87245819Y-74738419D01*
X180057660Y-68942057D02*
X180105279Y-68894438D01*
X180105279Y-68894438D02*
X180200517Y-68846819D01*
X180200517Y-68846819D02*
X180438612Y-68846819D01*
X180438612Y-68846819D02*
X180533850Y-68894438D01*
X180533850Y-68894438D02*
X180581469Y-68942057D01*
X180581469Y-68942057D02*
X180629088Y-69037295D01*
X180629088Y-69037295D02*
X180629088Y-69132533D01*
X180629088Y-69132533D02*
X180581469Y-69275390D01*
X180581469Y-69275390D02*
X180010041Y-69846819D01*
X180010041Y-69846819D02*
X180629088Y-69846819D01*
X181200517Y-69275390D02*
X181105279Y-69227771D01*
X181105279Y-69227771D02*
X181057660Y-69180152D01*
X181057660Y-69180152D02*
X181010041Y-69084914D01*
X181010041Y-69084914D02*
X181010041Y-69037295D01*
X181010041Y-69037295D02*
X181057660Y-68942057D01*
X181057660Y-68942057D02*
X181105279Y-68894438D01*
X181105279Y-68894438D02*
X181200517Y-68846819D01*
X181200517Y-68846819D02*
X181390993Y-68846819D01*
X181390993Y-68846819D02*
X181486231Y-68894438D01*
X181486231Y-68894438D02*
X181533850Y-68942057D01*
X181533850Y-68942057D02*
X181581469Y-69037295D01*
X181581469Y-69037295D02*
X181581469Y-69084914D01*
X181581469Y-69084914D02*
X181533850Y-69180152D01*
X181533850Y-69180152D02*
X181486231Y-69227771D01*
X181486231Y-69227771D02*
X181390993Y-69275390D01*
X181390993Y-69275390D02*
X181200517Y-69275390D01*
X181200517Y-69275390D02*
X181105279Y-69323009D01*
X181105279Y-69323009D02*
X181057660Y-69370628D01*
X181057660Y-69370628D02*
X181010041Y-69465866D01*
X181010041Y-69465866D02*
X181010041Y-69656342D01*
X181010041Y-69656342D02*
X181057660Y-69751580D01*
X181057660Y-69751580D02*
X181105279Y-69799200D01*
X181105279Y-69799200D02*
X181200517Y-69846819D01*
X181200517Y-69846819D02*
X181390993Y-69846819D01*
X181390993Y-69846819D02*
X181486231Y-69799200D01*
X181486231Y-69799200D02*
X181533850Y-69751580D01*
X181533850Y-69751580D02*
X181581469Y-69656342D01*
X181581469Y-69656342D02*
X181581469Y-69465866D01*
X181581469Y-69465866D02*
X181533850Y-69370628D01*
X181533850Y-69370628D02*
X181486231Y-69323009D01*
X181486231Y-69323009D02*
X181390993Y-69275390D01*
X181962422Y-68942057D02*
X182010041Y-68894438D01*
X182010041Y-68894438D02*
X182105279Y-68846819D01*
X182105279Y-68846819D02*
X182343374Y-68846819D01*
X182343374Y-68846819D02*
X182438612Y-68894438D01*
X182438612Y-68894438D02*
X182486231Y-68942057D01*
X182486231Y-68942057D02*
X182533850Y-69037295D01*
X182533850Y-69037295D02*
X182533850Y-69132533D01*
X182533850Y-69132533D02*
X182486231Y-69275390D01*
X182486231Y-69275390D02*
X181914803Y-69846819D01*
X181914803Y-69846819D02*
X182533850Y-69846819D01*
X183438612Y-68846819D02*
X182962422Y-68846819D01*
X182962422Y-68846819D02*
X182914803Y-69323009D01*
X182914803Y-69323009D02*
X182962422Y-69275390D01*
X182962422Y-69275390D02*
X183057660Y-69227771D01*
X183057660Y-69227771D02*
X183295755Y-69227771D01*
X183295755Y-69227771D02*
X183390993Y-69275390D01*
X183390993Y-69275390D02*
X183438612Y-69323009D01*
X183438612Y-69323009D02*
X183486231Y-69418247D01*
X183486231Y-69418247D02*
X183486231Y-69656342D01*
X183486231Y-69656342D02*
X183438612Y-69751580D01*
X183438612Y-69751580D02*
X183390993Y-69799200D01*
X183390993Y-69799200D02*
X183295755Y-69846819D01*
X183295755Y-69846819D02*
X183057660Y-69846819D01*
X183057660Y-69846819D02*
X182962422Y-69799200D01*
X182962422Y-69799200D02*
X182914803Y-69751580D01*
X184343374Y-68846819D02*
X184152898Y-68846819D01*
X184152898Y-68846819D02*
X184057660Y-68894438D01*
X184057660Y-68894438D02*
X184010041Y-68942057D01*
X184010041Y-68942057D02*
X183914803Y-69084914D01*
X183914803Y-69084914D02*
X183867184Y-69275390D01*
X183867184Y-69275390D02*
X183867184Y-69656342D01*
X183867184Y-69656342D02*
X183914803Y-69751580D01*
X183914803Y-69751580D02*
X183962422Y-69799200D01*
X183962422Y-69799200D02*
X184057660Y-69846819D01*
X184057660Y-69846819D02*
X184248136Y-69846819D01*
X184248136Y-69846819D02*
X184343374Y-69799200D01*
X184343374Y-69799200D02*
X184390993Y-69751580D01*
X184390993Y-69751580D02*
X184438612Y-69656342D01*
X184438612Y-69656342D02*
X184438612Y-69418247D01*
X184438612Y-69418247D02*
X184390993Y-69323009D01*
X184390993Y-69323009D02*
X184343374Y-69275390D01*
X184343374Y-69275390D02*
X184248136Y-69227771D01*
X184248136Y-69227771D02*
X184057660Y-69227771D01*
X184057660Y-69227771D02*
X183962422Y-69275390D01*
X183962422Y-69275390D02*
X183914803Y-69323009D01*
X183914803Y-69323009D02*
X183867184Y-69418247D01*
X143086350Y-82162933D02*
X143086350Y-82662933D01*
X143086350Y-82662933D02*
X143053017Y-82762933D01*
X143053017Y-82762933D02*
X142986350Y-82829600D01*
X142986350Y-82829600D02*
X142886350Y-82862933D01*
X142886350Y-82862933D02*
X142819684Y-82862933D01*
X143719683Y-82396266D02*
X143719683Y-82862933D01*
X143419683Y-82396266D02*
X143419683Y-82762933D01*
X143419683Y-82762933D02*
X143453017Y-82829600D01*
X143453017Y-82829600D02*
X143519683Y-82862933D01*
X143519683Y-82862933D02*
X143619683Y-82862933D01*
X143619683Y-82862933D02*
X143686350Y-82829600D01*
X143686350Y-82829600D02*
X143719683Y-82796266D01*
X144053016Y-82862933D02*
X144053016Y-82396266D01*
X144053016Y-82462933D02*
X144086350Y-82429600D01*
X144086350Y-82429600D02*
X144153016Y-82396266D01*
X144153016Y-82396266D02*
X144253016Y-82396266D01*
X144253016Y-82396266D02*
X144319683Y-82429600D01*
X144319683Y-82429600D02*
X144353016Y-82496266D01*
X144353016Y-82496266D02*
X144353016Y-82862933D01*
X144353016Y-82496266D02*
X144386350Y-82429600D01*
X144386350Y-82429600D02*
X144453016Y-82396266D01*
X144453016Y-82396266D02*
X144553016Y-82396266D01*
X144553016Y-82396266D02*
X144619683Y-82429600D01*
X144619683Y-82429600D02*
X144653016Y-82496266D01*
X144653016Y-82496266D02*
X144653016Y-82862933D01*
X144986349Y-82396266D02*
X144986349Y-83096266D01*
X144986349Y-82429600D02*
X145053016Y-82396266D01*
X145053016Y-82396266D02*
X145186349Y-82396266D01*
X145186349Y-82396266D02*
X145253016Y-82429600D01*
X145253016Y-82429600D02*
X145286349Y-82462933D01*
X145286349Y-82462933D02*
X145319683Y-82529600D01*
X145319683Y-82529600D02*
X145319683Y-82729600D01*
X145319683Y-82729600D02*
X145286349Y-82796266D01*
X145286349Y-82796266D02*
X145253016Y-82829600D01*
X145253016Y-82829600D02*
X145186349Y-82862933D01*
X145186349Y-82862933D02*
X145053016Y-82862933D01*
X145053016Y-82862933D02*
X144986349Y-82829600D01*
X145886349Y-82829600D02*
X145819682Y-82862933D01*
X145819682Y-82862933D02*
X145686349Y-82862933D01*
X145686349Y-82862933D02*
X145619682Y-82829600D01*
X145619682Y-82829600D02*
X145586349Y-82762933D01*
X145586349Y-82762933D02*
X145586349Y-82496266D01*
X145586349Y-82496266D02*
X145619682Y-82429600D01*
X145619682Y-82429600D02*
X145686349Y-82396266D01*
X145686349Y-82396266D02*
X145819682Y-82396266D01*
X145819682Y-82396266D02*
X145886349Y-82429600D01*
X145886349Y-82429600D02*
X145919682Y-82496266D01*
X145919682Y-82496266D02*
X145919682Y-82562933D01*
X145919682Y-82562933D02*
X145586349Y-82629600D01*
X146219682Y-82862933D02*
X146219682Y-82396266D01*
X146219682Y-82529600D02*
X146253016Y-82462933D01*
X146253016Y-82462933D02*
X146286349Y-82429600D01*
X146286349Y-82429600D02*
X146353016Y-82396266D01*
X146353016Y-82396266D02*
X146419682Y-82396266D01*
X89684266Y-68726019D02*
X89684266Y-69440304D01*
X89684266Y-69440304D02*
X89636647Y-69583161D01*
X89636647Y-69583161D02*
X89541409Y-69678400D01*
X89541409Y-69678400D02*
X89398552Y-69726019D01*
X89398552Y-69726019D02*
X89303314Y-69726019D01*
X90112838Y-68821257D02*
X90160457Y-68773638D01*
X90160457Y-68773638D02*
X90255695Y-68726019D01*
X90255695Y-68726019D02*
X90493790Y-68726019D01*
X90493790Y-68726019D02*
X90589028Y-68773638D01*
X90589028Y-68773638D02*
X90636647Y-68821257D01*
X90636647Y-68821257D02*
X90684266Y-68916495D01*
X90684266Y-68916495D02*
X90684266Y-69011733D01*
X90684266Y-69011733D02*
X90636647Y-69154590D01*
X90636647Y-69154590D02*
X90065219Y-69726019D01*
X90065219Y-69726019D02*
X90684266Y-69726019D01*
X144460933Y-85452419D02*
X144127600Y-84976228D01*
X143889505Y-85452419D02*
X143889505Y-84452419D01*
X143889505Y-84452419D02*
X144270457Y-84452419D01*
X144270457Y-84452419D02*
X144365695Y-84500038D01*
X144365695Y-84500038D02*
X144413314Y-84547657D01*
X144413314Y-84547657D02*
X144460933Y-84642895D01*
X144460933Y-84642895D02*
X144460933Y-84785752D01*
X144460933Y-84785752D02*
X144413314Y-84880990D01*
X144413314Y-84880990D02*
X144365695Y-84928609D01*
X144365695Y-84928609D02*
X144270457Y-84976228D01*
X144270457Y-84976228D02*
X143889505Y-84976228D01*
X144841886Y-84547657D02*
X144889505Y-84500038D01*
X144889505Y-84500038D02*
X144984743Y-84452419D01*
X144984743Y-84452419D02*
X145222838Y-84452419D01*
X145222838Y-84452419D02*
X145318076Y-84500038D01*
X145318076Y-84500038D02*
X145365695Y-84547657D01*
X145365695Y-84547657D02*
X145413314Y-84642895D01*
X145413314Y-84642895D02*
X145413314Y-84738133D01*
X145413314Y-84738133D02*
X145365695Y-84880990D01*
X145365695Y-84880990D02*
X144794267Y-85452419D01*
X144794267Y-85452419D02*
X145413314Y-85452419D01*
X144562533Y-77772419D02*
X144229200Y-77296228D01*
X143991105Y-77772419D02*
X143991105Y-76772419D01*
X143991105Y-76772419D02*
X144372057Y-76772419D01*
X144372057Y-76772419D02*
X144467295Y-76820038D01*
X144467295Y-76820038D02*
X144514914Y-76867657D01*
X144514914Y-76867657D02*
X144562533Y-76962895D01*
X144562533Y-76962895D02*
X144562533Y-77105752D01*
X144562533Y-77105752D02*
X144514914Y-77200990D01*
X144514914Y-77200990D02*
X144467295Y-77248609D01*
X144467295Y-77248609D02*
X144372057Y-77296228D01*
X144372057Y-77296228D02*
X143991105Y-77296228D01*
X145514914Y-77772419D02*
X144943486Y-77772419D01*
X145229200Y-77772419D02*
X145229200Y-76772419D01*
X145229200Y-76772419D02*
X145133962Y-76915276D01*
X145133962Y-76915276D02*
X145038724Y-77010514D01*
X145038724Y-77010514D02*
X144943486Y-77058133D01*
X102306295Y-51397819D02*
X102306295Y-52207342D01*
X102306295Y-52207342D02*
X102353914Y-52302580D01*
X102353914Y-52302580D02*
X102401533Y-52350200D01*
X102401533Y-52350200D02*
X102496771Y-52397819D01*
X102496771Y-52397819D02*
X102687247Y-52397819D01*
X102687247Y-52397819D02*
X102782485Y-52350200D01*
X102782485Y-52350200D02*
X102830104Y-52302580D01*
X102830104Y-52302580D02*
X102877723Y-52207342D01*
X102877723Y-52207342D02*
X102877723Y-51397819D01*
X103877723Y-52397819D02*
X103306295Y-52397819D01*
X103592009Y-52397819D02*
X103592009Y-51397819D01*
X103592009Y-51397819D02*
X103496771Y-51540676D01*
X103496771Y-51540676D02*
X103401533Y-51635914D01*
X103401533Y-51635914D02*
X103306295Y-51683533D01*
X143823095Y-51524819D02*
X143823095Y-52334342D01*
X143823095Y-52334342D02*
X143870714Y-52429580D01*
X143870714Y-52429580D02*
X143918333Y-52477200D01*
X143918333Y-52477200D02*
X144013571Y-52524819D01*
X144013571Y-52524819D02*
X144204047Y-52524819D01*
X144204047Y-52524819D02*
X144299285Y-52477200D01*
X144299285Y-52477200D02*
X144346904Y-52429580D01*
X144346904Y-52429580D02*
X144394523Y-52334342D01*
X144394523Y-52334342D02*
X144394523Y-51524819D01*
X144775476Y-51524819D02*
X145442142Y-51524819D01*
X145442142Y-51524819D02*
X145013571Y-52524819D01*
X123026905Y-51524819D02*
X123026905Y-52334342D01*
X123026905Y-52334342D02*
X123074524Y-52429580D01*
X123074524Y-52429580D02*
X123122143Y-52477200D01*
X123122143Y-52477200D02*
X123217381Y-52524819D01*
X123217381Y-52524819D02*
X123407857Y-52524819D01*
X123407857Y-52524819D02*
X123503095Y-52477200D01*
X123503095Y-52477200D02*
X123550714Y-52429580D01*
X123550714Y-52429580D02*
X123598333Y-52334342D01*
X123598333Y-52334342D02*
X123598333Y-51524819D01*
X124598333Y-52524819D02*
X124026905Y-52524819D01*
X124312619Y-52524819D02*
X124312619Y-51524819D01*
X124312619Y-51524819D02*
X124217381Y-51667676D01*
X124217381Y-51667676D02*
X124122143Y-51762914D01*
X124122143Y-51762914D02*
X124026905Y-51810533D01*
X125455476Y-51858152D02*
X125455476Y-52524819D01*
X125217381Y-51477200D02*
X124979286Y-52191485D01*
X124979286Y-52191485D02*
X125598333Y-52191485D01*
X151278905Y-116320219D02*
X151278905Y-117129742D01*
X151278905Y-117129742D02*
X151326524Y-117224980D01*
X151326524Y-117224980D02*
X151374143Y-117272600D01*
X151374143Y-117272600D02*
X151469381Y-117320219D01*
X151469381Y-117320219D02*
X151659857Y-117320219D01*
X151659857Y-117320219D02*
X151755095Y-117272600D01*
X151755095Y-117272600D02*
X151802714Y-117224980D01*
X151802714Y-117224980D02*
X151850333Y-117129742D01*
X151850333Y-117129742D02*
X151850333Y-116320219D01*
X152850333Y-117320219D02*
X152278905Y-117320219D01*
X152564619Y-117320219D02*
X152564619Y-116320219D01*
X152564619Y-116320219D02*
X152469381Y-116463076D01*
X152469381Y-116463076D02*
X152374143Y-116558314D01*
X152374143Y-116558314D02*
X152278905Y-116605933D01*
X153183667Y-116320219D02*
X153802714Y-116320219D01*
X153802714Y-116320219D02*
X153469381Y-116701171D01*
X153469381Y-116701171D02*
X153612238Y-116701171D01*
X153612238Y-116701171D02*
X153707476Y-116748790D01*
X153707476Y-116748790D02*
X153755095Y-116796409D01*
X153755095Y-116796409D02*
X153802714Y-116891647D01*
X153802714Y-116891647D02*
X153802714Y-117129742D01*
X153802714Y-117129742D02*
X153755095Y-117224980D01*
X153755095Y-117224980D02*
X153707476Y-117272600D01*
X153707476Y-117272600D02*
X153612238Y-117320219D01*
X153612238Y-117320219D02*
X153326524Y-117320219D01*
X153326524Y-117320219D02*
X153231286Y-117272600D01*
X153231286Y-117272600D02*
X153183667Y-117224980D01*
X101549295Y-103442419D02*
X101549295Y-104251942D01*
X101549295Y-104251942D02*
X101596914Y-104347180D01*
X101596914Y-104347180D02*
X101644533Y-104394800D01*
X101644533Y-104394800D02*
X101739771Y-104442419D01*
X101739771Y-104442419D02*
X101930247Y-104442419D01*
X101930247Y-104442419D02*
X102025485Y-104394800D01*
X102025485Y-104394800D02*
X102073104Y-104347180D01*
X102073104Y-104347180D02*
X102120723Y-104251942D01*
X102120723Y-104251942D02*
X102120723Y-103442419D01*
X103073104Y-103442419D02*
X102596914Y-103442419D01*
X102596914Y-103442419D02*
X102549295Y-103918609D01*
X102549295Y-103918609D02*
X102596914Y-103870990D01*
X102596914Y-103870990D02*
X102692152Y-103823371D01*
X102692152Y-103823371D02*
X102930247Y-103823371D01*
X102930247Y-103823371D02*
X103025485Y-103870990D01*
X103025485Y-103870990D02*
X103073104Y-103918609D01*
X103073104Y-103918609D02*
X103120723Y-104013847D01*
X103120723Y-104013847D02*
X103120723Y-104251942D01*
X103120723Y-104251942D02*
X103073104Y-104347180D01*
X103073104Y-104347180D02*
X103025485Y-104394800D01*
X103025485Y-104394800D02*
X102930247Y-104442419D01*
X102930247Y-104442419D02*
X102692152Y-104442419D01*
X102692152Y-104442419D02*
X102596914Y-104394800D01*
X102596914Y-104394800D02*
X102549295Y-104347180D01*
X167233095Y-112094819D02*
X167233095Y-112904342D01*
X167233095Y-112904342D02*
X167280714Y-112999580D01*
X167280714Y-112999580D02*
X167328333Y-113047200D01*
X167328333Y-113047200D02*
X167423571Y-113094819D01*
X167423571Y-113094819D02*
X167614047Y-113094819D01*
X167614047Y-113094819D02*
X167709285Y-113047200D01*
X167709285Y-113047200D02*
X167756904Y-112999580D01*
X167756904Y-112999580D02*
X167804523Y-112904342D01*
X167804523Y-112904342D02*
X167804523Y-112094819D01*
X168233095Y-112190057D02*
X168280714Y-112142438D01*
X168280714Y-112142438D02*
X168375952Y-112094819D01*
X168375952Y-112094819D02*
X168614047Y-112094819D01*
X168614047Y-112094819D02*
X168709285Y-112142438D01*
X168709285Y-112142438D02*
X168756904Y-112190057D01*
X168756904Y-112190057D02*
X168804523Y-112285295D01*
X168804523Y-112285295D02*
X168804523Y-112380533D01*
X168804523Y-112380533D02*
X168756904Y-112523390D01*
X168756904Y-112523390D02*
X168185476Y-113094819D01*
X168185476Y-113094819D02*
X168804523Y-113094819D01*
X114671095Y-128532619D02*
X114671095Y-129342142D01*
X114671095Y-129342142D02*
X114718714Y-129437380D01*
X114718714Y-129437380D02*
X114766333Y-129485000D01*
X114766333Y-129485000D02*
X114861571Y-129532619D01*
X114861571Y-129532619D02*
X115052047Y-129532619D01*
X115052047Y-129532619D02*
X115147285Y-129485000D01*
X115147285Y-129485000D02*
X115194904Y-129437380D01*
X115194904Y-129437380D02*
X115242523Y-129342142D01*
X115242523Y-129342142D02*
X115242523Y-128532619D01*
X115766333Y-129532619D02*
X115956809Y-129532619D01*
X115956809Y-129532619D02*
X116052047Y-129485000D01*
X116052047Y-129485000D02*
X116099666Y-129437380D01*
X116099666Y-129437380D02*
X116194904Y-129294523D01*
X116194904Y-129294523D02*
X116242523Y-129104047D01*
X116242523Y-129104047D02*
X116242523Y-128723095D01*
X116242523Y-128723095D02*
X116194904Y-128627857D01*
X116194904Y-128627857D02*
X116147285Y-128580238D01*
X116147285Y-128580238D02*
X116052047Y-128532619D01*
X116052047Y-128532619D02*
X115861571Y-128532619D01*
X115861571Y-128532619D02*
X115766333Y-128580238D01*
X115766333Y-128580238D02*
X115718714Y-128627857D01*
X115718714Y-128627857D02*
X115671095Y-128723095D01*
X115671095Y-128723095D02*
X115671095Y-128961190D01*
X115671095Y-128961190D02*
X115718714Y-129056428D01*
X115718714Y-129056428D02*
X115766333Y-129104047D01*
X115766333Y-129104047D02*
X115861571Y-129151666D01*
X115861571Y-129151666D02*
X116052047Y-129151666D01*
X116052047Y-129151666D02*
X116147285Y-129104047D01*
X116147285Y-129104047D02*
X116194904Y-129056428D01*
X116194904Y-129056428D02*
X116242523Y-128961190D01*
X165735095Y-66510819D02*
X165735095Y-67320342D01*
X165735095Y-67320342D02*
X165782714Y-67415580D01*
X165782714Y-67415580D02*
X165830333Y-67463200D01*
X165830333Y-67463200D02*
X165925571Y-67510819D01*
X165925571Y-67510819D02*
X166116047Y-67510819D01*
X166116047Y-67510819D02*
X166211285Y-67463200D01*
X166211285Y-67463200D02*
X166258904Y-67415580D01*
X166258904Y-67415580D02*
X166306523Y-67320342D01*
X166306523Y-67320342D02*
X166306523Y-66510819D01*
X166687476Y-66510819D02*
X167306523Y-66510819D01*
X167306523Y-66510819D02*
X166973190Y-66891771D01*
X166973190Y-66891771D02*
X167116047Y-66891771D01*
X167116047Y-66891771D02*
X167211285Y-66939390D01*
X167211285Y-66939390D02*
X167258904Y-66987009D01*
X167258904Y-66987009D02*
X167306523Y-67082247D01*
X167306523Y-67082247D02*
X167306523Y-67320342D01*
X167306523Y-67320342D02*
X167258904Y-67415580D01*
X167258904Y-67415580D02*
X167211285Y-67463200D01*
X167211285Y-67463200D02*
X167116047Y-67510819D01*
X167116047Y-67510819D02*
X166830333Y-67510819D01*
X166830333Y-67510819D02*
X166735095Y-67463200D01*
X166735095Y-67463200D02*
X166687476Y-67415580D01*
X144410133Y-80363219D02*
X144076800Y-79887028D01*
X143838705Y-80363219D02*
X143838705Y-79363219D01*
X143838705Y-79363219D02*
X144219657Y-79363219D01*
X144219657Y-79363219D02*
X144314895Y-79410838D01*
X144314895Y-79410838D02*
X144362514Y-79458457D01*
X144362514Y-79458457D02*
X144410133Y-79553695D01*
X144410133Y-79553695D02*
X144410133Y-79696552D01*
X144410133Y-79696552D02*
X144362514Y-79791790D01*
X144362514Y-79791790D02*
X144314895Y-79839409D01*
X144314895Y-79839409D02*
X144219657Y-79887028D01*
X144219657Y-79887028D02*
X143838705Y-79887028D01*
X144743467Y-79363219D02*
X145362514Y-79363219D01*
X145362514Y-79363219D02*
X145029181Y-79744171D01*
X145029181Y-79744171D02*
X145172038Y-79744171D01*
X145172038Y-79744171D02*
X145267276Y-79791790D01*
X145267276Y-79791790D02*
X145314895Y-79839409D01*
X145314895Y-79839409D02*
X145362514Y-79934647D01*
X145362514Y-79934647D02*
X145362514Y-80172742D01*
X145362514Y-80172742D02*
X145314895Y-80267980D01*
X145314895Y-80267980D02*
X145267276Y-80315600D01*
X145267276Y-80315600D02*
X145172038Y-80363219D01*
X145172038Y-80363219D02*
X144886324Y-80363219D01*
X144886324Y-80363219D02*
X144791086Y-80315600D01*
X144791086Y-80315600D02*
X144743467Y-80267980D01*
X123690476Y-98454819D02*
X124357142Y-99454819D01*
X124357142Y-98454819D02*
X123690476Y-99454819D01*
X125261904Y-99454819D02*
X124690476Y-99454819D01*
X124976190Y-99454819D02*
X124976190Y-98454819D01*
X124976190Y-98454819D02*
X124880952Y-98597676D01*
X124880952Y-98597676D02*
X124785714Y-98692914D01*
X124785714Y-98692914D02*
X124690476Y-98740533D01*
D14*
X90880952Y-122225069D02*
X90880952Y-122629831D01*
X90880952Y-122629831D02*
X90904762Y-122677450D01*
X90904762Y-122677450D02*
X90928571Y-122701260D01*
X90928571Y-122701260D02*
X90976190Y-122725069D01*
X90976190Y-122725069D02*
X91071428Y-122725069D01*
X91071428Y-122725069D02*
X91119047Y-122701260D01*
X91119047Y-122701260D02*
X91142857Y-122677450D01*
X91142857Y-122677450D02*
X91166666Y-122629831D01*
X91166666Y-122629831D02*
X91166666Y-122225069D01*
X91666667Y-122725069D02*
X91380953Y-122725069D01*
X91523810Y-122725069D02*
X91523810Y-122225069D01*
X91523810Y-122225069D02*
X91476191Y-122296498D01*
X91476191Y-122296498D02*
X91428572Y-122344117D01*
X91428572Y-122344117D02*
X91380953Y-122367926D01*
X92119047Y-122225069D02*
X91880952Y-122225069D01*
X91880952Y-122225069D02*
X91857143Y-122463164D01*
X91857143Y-122463164D02*
X91880952Y-122439355D01*
X91880952Y-122439355D02*
X91928571Y-122415545D01*
X91928571Y-122415545D02*
X92047619Y-122415545D01*
X92047619Y-122415545D02*
X92095238Y-122439355D01*
X92095238Y-122439355D02*
X92119047Y-122463164D01*
X92119047Y-122463164D02*
X92142857Y-122510783D01*
X92142857Y-122510783D02*
X92142857Y-122629831D01*
X92142857Y-122629831D02*
X92119047Y-122677450D01*
X92119047Y-122677450D02*
X92095238Y-122701260D01*
X92095238Y-122701260D02*
X92047619Y-122725069D01*
X92047619Y-122725069D02*
X91928571Y-122725069D01*
X91928571Y-122725069D02*
X91880952Y-122701260D01*
X91880952Y-122701260D02*
X91857143Y-122677450D01*
D10*
X106068905Y-144954819D02*
X106068905Y-143954819D01*
X106068905Y-143954819D02*
X106307000Y-143954819D01*
X106307000Y-143954819D02*
X106449857Y-144002438D01*
X106449857Y-144002438D02*
X106545095Y-144097676D01*
X106545095Y-144097676D02*
X106592714Y-144192914D01*
X106592714Y-144192914D02*
X106640333Y-144383390D01*
X106640333Y-144383390D02*
X106640333Y-144526247D01*
X106640333Y-144526247D02*
X106592714Y-144716723D01*
X106592714Y-144716723D02*
X106545095Y-144811961D01*
X106545095Y-144811961D02*
X106449857Y-144907200D01*
X106449857Y-144907200D02*
X106307000Y-144954819D01*
X106307000Y-144954819D02*
X106068905Y-144954819D01*
X107021286Y-144050057D02*
X107068905Y-144002438D01*
X107068905Y-144002438D02*
X107164143Y-143954819D01*
X107164143Y-143954819D02*
X107402238Y-143954819D01*
X107402238Y-143954819D02*
X107497476Y-144002438D01*
X107497476Y-144002438D02*
X107545095Y-144050057D01*
X107545095Y-144050057D02*
X107592714Y-144145295D01*
X107592714Y-144145295D02*
X107592714Y-144240533D01*
X107592714Y-144240533D02*
X107545095Y-144383390D01*
X107545095Y-144383390D02*
X106973667Y-144954819D01*
X106973667Y-144954819D02*
X107592714Y-144954819D01*
X114067905Y-106094019D02*
X114067905Y-106903542D01*
X114067905Y-106903542D02*
X114115524Y-106998780D01*
X114115524Y-106998780D02*
X114163143Y-107046400D01*
X114163143Y-107046400D02*
X114258381Y-107094019D01*
X114258381Y-107094019D02*
X114448857Y-107094019D01*
X114448857Y-107094019D02*
X114544095Y-107046400D01*
X114544095Y-107046400D02*
X114591714Y-106998780D01*
X114591714Y-106998780D02*
X114639333Y-106903542D01*
X114639333Y-106903542D02*
X114639333Y-106094019D01*
X115639333Y-107094019D02*
X115067905Y-107094019D01*
X115353619Y-107094019D02*
X115353619Y-106094019D01*
X115353619Y-106094019D02*
X115258381Y-106236876D01*
X115258381Y-106236876D02*
X115163143Y-106332114D01*
X115163143Y-106332114D02*
X115067905Y-106379733D01*
X116591714Y-107094019D02*
X116020286Y-107094019D01*
X116306000Y-107094019D02*
X116306000Y-106094019D01*
X116306000Y-106094019D02*
X116210762Y-106236876D01*
X116210762Y-106236876D02*
X116115524Y-106332114D01*
X116115524Y-106332114D02*
X116020286Y-106379733D01*
X95000200Y-109351826D02*
X95047819Y-109208969D01*
X95047819Y-109208969D02*
X95047819Y-108970874D01*
X95047819Y-108970874D02*
X95000200Y-108875636D01*
X95000200Y-108875636D02*
X94952580Y-108828017D01*
X94952580Y-108828017D02*
X94857342Y-108780398D01*
X94857342Y-108780398D02*
X94762104Y-108780398D01*
X94762104Y-108780398D02*
X94666866Y-108828017D01*
X94666866Y-108828017D02*
X94619247Y-108875636D01*
X94619247Y-108875636D02*
X94571628Y-108970874D01*
X94571628Y-108970874D02*
X94524009Y-109161350D01*
X94524009Y-109161350D02*
X94476390Y-109256588D01*
X94476390Y-109256588D02*
X94428771Y-109304207D01*
X94428771Y-109304207D02*
X94333533Y-109351826D01*
X94333533Y-109351826D02*
X94238295Y-109351826D01*
X94238295Y-109351826D02*
X94143057Y-109304207D01*
X94143057Y-109304207D02*
X94095438Y-109256588D01*
X94095438Y-109256588D02*
X94047819Y-109161350D01*
X94047819Y-109161350D02*
X94047819Y-108923255D01*
X94047819Y-108923255D02*
X94095438Y-108780398D01*
X94047819Y-108447064D02*
X95047819Y-108208969D01*
X95047819Y-108208969D02*
X94333533Y-108018493D01*
X94333533Y-108018493D02*
X95047819Y-107828017D01*
X95047819Y-107828017D02*
X94047819Y-107589922D01*
X94143057Y-107256588D02*
X94095438Y-107208969D01*
X94095438Y-107208969D02*
X94047819Y-107113731D01*
X94047819Y-107113731D02*
X94047819Y-106875636D01*
X94047819Y-106875636D02*
X94095438Y-106780398D01*
X94095438Y-106780398D02*
X94143057Y-106732779D01*
X94143057Y-106732779D02*
X94238295Y-106685160D01*
X94238295Y-106685160D02*
X94333533Y-106685160D01*
X94333533Y-106685160D02*
X94476390Y-106732779D01*
X94476390Y-106732779D02*
X95047819Y-107304207D01*
X95047819Y-107304207D02*
X95047819Y-106685160D01*
X139817095Y-129193819D02*
X139817095Y-130003342D01*
X139817095Y-130003342D02*
X139864714Y-130098580D01*
X139864714Y-130098580D02*
X139912333Y-130146200D01*
X139912333Y-130146200D02*
X140007571Y-130193819D01*
X140007571Y-130193819D02*
X140198047Y-130193819D01*
X140198047Y-130193819D02*
X140293285Y-130146200D01*
X140293285Y-130146200D02*
X140340904Y-130098580D01*
X140340904Y-130098580D02*
X140388523Y-130003342D01*
X140388523Y-130003342D02*
X140388523Y-129193819D01*
X141293285Y-129527152D02*
X141293285Y-130193819D01*
X141055190Y-129146200D02*
X140817095Y-129860485D01*
X140817095Y-129860485D02*
X141436142Y-129860485D01*
X97218667Y-144907200D02*
X97361524Y-144954819D01*
X97361524Y-144954819D02*
X97599619Y-144954819D01*
X97599619Y-144954819D02*
X97694857Y-144907200D01*
X97694857Y-144907200D02*
X97742476Y-144859580D01*
X97742476Y-144859580D02*
X97790095Y-144764342D01*
X97790095Y-144764342D02*
X97790095Y-144669104D01*
X97790095Y-144669104D02*
X97742476Y-144573866D01*
X97742476Y-144573866D02*
X97694857Y-144526247D01*
X97694857Y-144526247D02*
X97599619Y-144478628D01*
X97599619Y-144478628D02*
X97409143Y-144431009D01*
X97409143Y-144431009D02*
X97313905Y-144383390D01*
X97313905Y-144383390D02*
X97266286Y-144335771D01*
X97266286Y-144335771D02*
X97218667Y-144240533D01*
X97218667Y-144240533D02*
X97218667Y-144145295D01*
X97218667Y-144145295D02*
X97266286Y-144050057D01*
X97266286Y-144050057D02*
X97313905Y-144002438D01*
X97313905Y-144002438D02*
X97409143Y-143954819D01*
X97409143Y-143954819D02*
X97647238Y-143954819D01*
X97647238Y-143954819D02*
X97790095Y-144002438D01*
X98123429Y-143954819D02*
X98361524Y-144954819D01*
X98361524Y-144954819D02*
X98552000Y-144240533D01*
X98552000Y-144240533D02*
X98742476Y-144954819D01*
X98742476Y-144954819D02*
X98980572Y-143954819D01*
X99885333Y-144954819D02*
X99313905Y-144954819D01*
X99599619Y-144954819D02*
X99599619Y-143954819D01*
X99599619Y-143954819D02*
X99504381Y-144097676D01*
X99504381Y-144097676D02*
X99409143Y-144192914D01*
X99409143Y-144192914D02*
X99313905Y-144240533D01*
X139777895Y-105987419D02*
X139777895Y-106796942D01*
X139777895Y-106796942D02*
X139825514Y-106892180D01*
X139825514Y-106892180D02*
X139873133Y-106939800D01*
X139873133Y-106939800D02*
X139968371Y-106987419D01*
X139968371Y-106987419D02*
X140158847Y-106987419D01*
X140158847Y-106987419D02*
X140254085Y-106939800D01*
X140254085Y-106939800D02*
X140301704Y-106892180D01*
X140301704Y-106892180D02*
X140349323Y-106796942D01*
X140349323Y-106796942D02*
X140349323Y-105987419D01*
X141254085Y-105987419D02*
X141063609Y-105987419D01*
X141063609Y-105987419D02*
X140968371Y-106035038D01*
X140968371Y-106035038D02*
X140920752Y-106082657D01*
X140920752Y-106082657D02*
X140825514Y-106225514D01*
X140825514Y-106225514D02*
X140777895Y-106415990D01*
X140777895Y-106415990D02*
X140777895Y-106796942D01*
X140777895Y-106796942D02*
X140825514Y-106892180D01*
X140825514Y-106892180D02*
X140873133Y-106939800D01*
X140873133Y-106939800D02*
X140968371Y-106987419D01*
X140968371Y-106987419D02*
X141158847Y-106987419D01*
X141158847Y-106987419D02*
X141254085Y-106939800D01*
X141254085Y-106939800D02*
X141301704Y-106892180D01*
X141301704Y-106892180D02*
X141349323Y-106796942D01*
X141349323Y-106796942D02*
X141349323Y-106558847D01*
X141349323Y-106558847D02*
X141301704Y-106463609D01*
X141301704Y-106463609D02*
X141254085Y-106415990D01*
X141254085Y-106415990D02*
X141158847Y-106368371D01*
X141158847Y-106368371D02*
X140968371Y-106368371D01*
X140968371Y-106368371D02*
X140873133Y-106415990D01*
X140873133Y-106415990D02*
X140825514Y-106463609D01*
X140825514Y-106463609D02*
X140777895Y-106558847D01*
X181683066Y-116423219D02*
X181683066Y-117137504D01*
X181683066Y-117137504D02*
X181635447Y-117280361D01*
X181635447Y-117280361D02*
X181540209Y-117375600D01*
X181540209Y-117375600D02*
X181397352Y-117423219D01*
X181397352Y-117423219D02*
X181302114Y-117423219D01*
X182683066Y-117423219D02*
X182111638Y-117423219D01*
X182397352Y-117423219D02*
X182397352Y-116423219D01*
X182397352Y-116423219D02*
X182302114Y-116566076D01*
X182302114Y-116566076D02*
X182206876Y-116661314D01*
X182206876Y-116661314D02*
X182111638Y-116708933D01*
X98166362Y-125454328D02*
X98166362Y-126169266D01*
X98166362Y-126169266D02*
X98118700Y-126312253D01*
X98118700Y-126312253D02*
X98023375Y-126407579D01*
X98023375Y-126407579D02*
X97880387Y-126455241D01*
X97880387Y-126455241D02*
X97785062Y-126455241D01*
X99071950Y-125787966D02*
X99071950Y-126455241D01*
X98833637Y-125406666D02*
X98595325Y-126121603D01*
X98595325Y-126121603D02*
X99214937Y-126121603D01*
X127304895Y-106014819D02*
X127304895Y-106824342D01*
X127304895Y-106824342D02*
X127352514Y-106919580D01*
X127352514Y-106919580D02*
X127400133Y-106967200D01*
X127400133Y-106967200D02*
X127495371Y-107014819D01*
X127495371Y-107014819D02*
X127685847Y-107014819D01*
X127685847Y-107014819D02*
X127781085Y-106967200D01*
X127781085Y-106967200D02*
X127828704Y-106919580D01*
X127828704Y-106919580D02*
X127876323Y-106824342D01*
X127876323Y-106824342D02*
X127876323Y-106014819D01*
X128495371Y-106443390D02*
X128400133Y-106395771D01*
X128400133Y-106395771D02*
X128352514Y-106348152D01*
X128352514Y-106348152D02*
X128304895Y-106252914D01*
X128304895Y-106252914D02*
X128304895Y-106205295D01*
X128304895Y-106205295D02*
X128352514Y-106110057D01*
X128352514Y-106110057D02*
X128400133Y-106062438D01*
X128400133Y-106062438D02*
X128495371Y-106014819D01*
X128495371Y-106014819D02*
X128685847Y-106014819D01*
X128685847Y-106014819D02*
X128781085Y-106062438D01*
X128781085Y-106062438D02*
X128828704Y-106110057D01*
X128828704Y-106110057D02*
X128876323Y-106205295D01*
X128876323Y-106205295D02*
X128876323Y-106252914D01*
X128876323Y-106252914D02*
X128828704Y-106348152D01*
X128828704Y-106348152D02*
X128781085Y-106395771D01*
X128781085Y-106395771D02*
X128685847Y-106443390D01*
X128685847Y-106443390D02*
X128495371Y-106443390D01*
X128495371Y-106443390D02*
X128400133Y-106491009D01*
X128400133Y-106491009D02*
X128352514Y-106538628D01*
X128352514Y-106538628D02*
X128304895Y-106633866D01*
X128304895Y-106633866D02*
X128304895Y-106824342D01*
X128304895Y-106824342D02*
X128352514Y-106919580D01*
X128352514Y-106919580D02*
X128400133Y-106967200D01*
X128400133Y-106967200D02*
X128495371Y-107014819D01*
X128495371Y-107014819D02*
X128685847Y-107014819D01*
X128685847Y-107014819D02*
X128781085Y-106967200D01*
X128781085Y-106967200D02*
X128828704Y-106919580D01*
X128828704Y-106919580D02*
X128876323Y-106824342D01*
X128876323Y-106824342D02*
X128876323Y-106633866D01*
X128876323Y-106633866D02*
X128828704Y-106538628D01*
X128828704Y-106538628D02*
X128781085Y-106491009D01*
X128781085Y-106491009D02*
X128685847Y-106443390D01*
X127158905Y-129818819D02*
X127158905Y-130628342D01*
X127158905Y-130628342D02*
X127206524Y-130723580D01*
X127206524Y-130723580D02*
X127254143Y-130771200D01*
X127254143Y-130771200D02*
X127349381Y-130818819D01*
X127349381Y-130818819D02*
X127539857Y-130818819D01*
X127539857Y-130818819D02*
X127635095Y-130771200D01*
X127635095Y-130771200D02*
X127682714Y-130723580D01*
X127682714Y-130723580D02*
X127730333Y-130628342D01*
X127730333Y-130628342D02*
X127730333Y-129818819D01*
X128730333Y-130818819D02*
X128158905Y-130818819D01*
X128444619Y-130818819D02*
X128444619Y-129818819D01*
X128444619Y-129818819D02*
X128349381Y-129961676D01*
X128349381Y-129961676D02*
X128254143Y-130056914D01*
X128254143Y-130056914D02*
X128158905Y-130104533D01*
X129111286Y-129914057D02*
X129158905Y-129866438D01*
X129158905Y-129866438D02*
X129254143Y-129818819D01*
X129254143Y-129818819D02*
X129492238Y-129818819D01*
X129492238Y-129818819D02*
X129587476Y-129866438D01*
X129587476Y-129866438D02*
X129635095Y-129914057D01*
X129635095Y-129914057D02*
X129682714Y-130009295D01*
X129682714Y-130009295D02*
X129682714Y-130104533D01*
X129682714Y-130104533D02*
X129635095Y-130247390D01*
X129635095Y-130247390D02*
X129063667Y-130818819D01*
X129063667Y-130818819D02*
X129682714Y-130818819D01*
D14*
X88687600Y-70271200D02*
X90017600Y-70271200D01*
X88687600Y-71601200D02*
X88687600Y-70271200D01*
X88687600Y-72871200D02*
X88687600Y-80551200D01*
X88687600Y-72871200D02*
X91347600Y-72871200D01*
X88687600Y-80551200D02*
X91347600Y-80551200D01*
X91347600Y-72871200D02*
X91347600Y-80551200D01*
X103702200Y-47335000D02*
X102444200Y-47335000D01*
X103702200Y-45495000D02*
X102444200Y-45495000D01*
X141757600Y-84997600D02*
X142707600Y-84997600D01*
X142707600Y-84077600D02*
X142707600Y-85917600D01*
X142707600Y-85917600D02*
X146547600Y-85917600D01*
X146547600Y-84077600D02*
X142707600Y-84077600D01*
X146547600Y-85917600D02*
X146547600Y-84077600D01*
X147497600Y-84997600D02*
X146547600Y-84997600D01*
X141757600Y-77317600D02*
X142707600Y-77317600D01*
X142707600Y-76397600D02*
X142707600Y-78237600D01*
X142707600Y-78237600D02*
X146547600Y-78237600D01*
X146547600Y-76397600D02*
X142707600Y-76397600D01*
X146547600Y-78237600D02*
X146547600Y-76397600D01*
X147497600Y-77317600D02*
X146547600Y-77317600D01*
X123704000Y-45495000D02*
X124962000Y-45495000D01*
X123704000Y-47335000D02*
X124962000Y-47335000D01*
X108077000Y-135585000D02*
X108077000Y-134635000D01*
X107157000Y-134635000D02*
X108997000Y-134635000D01*
X108997000Y-134635000D02*
X108997000Y-130795000D01*
X107157000Y-130795000D02*
X107157000Y-134635000D01*
X108997000Y-130795000D02*
X107157000Y-130795000D01*
X108077000Y-129845000D02*
X108077000Y-130795000D01*
X94188800Y-123811000D02*
X94188800Y-125069000D01*
X92348800Y-123811000D02*
X92348800Y-125069000D01*
X94118200Y-47733600D02*
X94118200Y-98773600D01*
X94118200Y-98773600D02*
X112018200Y-98773600D01*
X96608200Y-47793600D02*
X96608200Y-98713600D01*
X96608200Y-98713600D02*
X109528200Y-98713600D01*
X102068200Y-47793600D02*
X96608200Y-47793600D01*
X109528200Y-47793600D02*
X104068200Y-47793600D01*
X109528200Y-98713600D02*
X109528200Y-47793600D01*
X112018200Y-47733600D02*
X94118200Y-47733600D01*
X112018200Y-98773600D02*
X112018200Y-47733600D01*
X102068200Y-47793600D02*
G75*
G03*
X104068200Y-47793600I1000000J0D01*
G01*
X138125000Y-47743600D02*
X138125000Y-98663600D01*
X138125000Y-98663600D02*
X151045000Y-98663600D01*
X143585000Y-47743600D02*
X138125000Y-47743600D01*
X151045000Y-47743600D02*
X145585000Y-47743600D01*
X151045000Y-98663600D02*
X151045000Y-47743600D01*
X143585000Y-47743600D02*
G75*
G03*
X145585000Y-47743600I1000000J0D01*
G01*
X145219000Y-47335000D02*
X143961000Y-47335000D01*
X145219000Y-45495000D02*
X143961000Y-45495000D01*
X117805000Y-47793600D02*
X117805000Y-83473600D01*
X117805000Y-83473600D02*
X130725000Y-83473600D01*
X123265000Y-47793600D02*
X117805000Y-47793600D01*
X130725000Y-47793600D02*
X125265000Y-47793600D01*
X130725000Y-83473600D02*
X130725000Y-47793600D01*
X123265000Y-47793600D02*
G75*
G03*
X125265000Y-47793600I1000000J0D01*
G01*
X147387000Y-112534000D02*
X147387000Y-138174000D01*
X147387000Y-138174000D02*
X157667000Y-138174000D01*
X149877000Y-112594000D02*
X149877000Y-138114000D01*
X149877000Y-138114000D02*
X155177000Y-138114000D01*
X151527000Y-112594000D02*
X149877000Y-112594000D01*
X155177000Y-112594000D02*
X153527000Y-112594000D01*
X155177000Y-138114000D02*
X155177000Y-112594000D01*
X157667000Y-112534000D02*
X147387000Y-112534000D01*
X157667000Y-138174000D02*
X157667000Y-112534000D01*
X151527000Y-112594000D02*
G75*
G03*
X153527000Y-112594000I1000000J0D01*
G01*
X114677000Y-99928000D02*
X115935000Y-99928000D01*
X114677000Y-101768000D02*
X115935000Y-101768000D01*
X89097600Y-96006000D02*
X89097600Y-94748000D01*
X90937600Y-96006000D02*
X90937600Y-94748000D01*
X97232000Y-102110000D02*
X97232000Y-120130000D01*
X97232000Y-120130000D02*
X107512000Y-120130000D01*
X99722000Y-102170000D02*
X99722000Y-120070000D01*
X99722000Y-120070000D02*
X105022000Y-120070000D01*
X101372000Y-102170000D02*
X99722000Y-102170000D01*
X105022000Y-102170000D02*
X103372000Y-102170000D01*
X105022000Y-120070000D02*
X105022000Y-102170000D01*
X107512000Y-102110000D02*
X97232000Y-102110000D01*
X107512000Y-120130000D02*
X107512000Y-102110000D01*
X101372000Y-102170000D02*
G75*
G03*
X103372000Y-102170000I1000000J0D01*
G01*
X159045000Y-99625000D02*
X159045000Y-135425000D01*
X159045000Y-135425000D02*
X176945000Y-135425000D01*
X161535000Y-99685000D02*
X161535000Y-135365000D01*
X161535000Y-135365000D02*
X174455000Y-135365000D01*
X166995000Y-99685000D02*
X161535000Y-99685000D01*
X174455000Y-99685000D02*
X168995000Y-99685000D01*
X174455000Y-135365000D02*
X174455000Y-99685000D01*
X176945000Y-99625000D02*
X159045000Y-99625000D01*
X176945000Y-135425000D02*
X176945000Y-99625000D01*
X166995000Y-99685000D02*
G75*
G03*
X168995000Y-99685000I1000000J0D01*
G01*
X110303000Y-123314000D02*
X110303000Y-143874000D01*
X110303000Y-143874000D02*
X120583000Y-143874000D01*
X112793000Y-123374000D02*
X112793000Y-143814000D01*
X112793000Y-143814000D02*
X118093000Y-143814000D01*
X114443000Y-123374000D02*
X112793000Y-123374000D01*
X118093000Y-123374000D02*
X116443000Y-123374000D01*
X118093000Y-143814000D02*
X118093000Y-123374000D01*
X120583000Y-123314000D02*
X110303000Y-123314000D01*
X120583000Y-143874000D02*
X120583000Y-123314000D01*
X114443000Y-123374000D02*
G75*
G03*
X116443000Y-123374000I1000000J0D01*
G01*
X154527500Y-58880000D02*
X154527500Y-56340000D01*
X155547500Y-46950000D02*
X155547500Y-48810000D01*
X155547500Y-53710000D02*
X155547500Y-97550000D01*
X155547500Y-97550000D02*
X178647500Y-97550000D01*
X157827500Y-46950000D02*
X157827500Y-49210000D01*
X178647500Y-46950000D02*
X155547500Y-46950000D01*
X178647500Y-97550000D02*
X178647500Y-46950000D01*
X157177500Y-51260000D02*
G75*
G03*
X157177500Y-51260000I-900000J0D01*
G01*
X158827500Y-51260000D02*
G75*
G03*
X158827500Y-51260000I-2550000J0D01*
G01*
X147497600Y-79917600D02*
X146547600Y-79917600D01*
X146547600Y-80837600D02*
X146547600Y-78997600D01*
X146547600Y-78997600D02*
X142707600Y-78997600D01*
X142707600Y-80837600D02*
X146547600Y-80837600D01*
X142707600Y-78997600D02*
X142707600Y-80837600D01*
X141757600Y-79917600D02*
X142707600Y-79917600D01*
X130808400Y-96987600D02*
X130808400Y-84837600D01*
X130808400Y-84837600D02*
X118658400Y-84837600D01*
X118658400Y-97737600D02*
X130058400Y-97737600D01*
X117908400Y-85587600D02*
X117908400Y-96987600D01*
X130058400Y-97737600D02*
G75*
G03*
X130808400Y-96987600I0J750000D01*
G01*
X117908400Y-96987600D02*
G75*
G03*
X118658400Y-97737600I750000J0D01*
G01*
X118658400Y-84837600D02*
G75*
G03*
X117908400Y-85587600I0J-750000D01*
G01*
X87404800Y-126691000D02*
X91004800Y-126691000D01*
X89204800Y-122241000D02*
G75*
G03*
X87366322Y-126679478I0J-2600000D01*
G01*
X91043278Y-126679478D02*
G75*
G03*
X89204800Y-122241000I-1838478J1838478D01*
G01*
X105247000Y-140115000D02*
X105247000Y-140271000D01*
X105247000Y-142431000D02*
X105247000Y-142587000D01*
X108479334Y-140272392D02*
G75*
G03*
X105247001Y-140115485I-1672334J-1078608D01*
G01*
X107848129Y-140271164D02*
G75*
G03*
X105766040Y-140271001I-1041129J-1079836D01*
G01*
X105766040Y-142430999D02*
G75*
G03*
X107848129Y-142430836I1040960J1079999D01*
G01*
X105247001Y-142586515D02*
G75*
G03*
X108479334Y-142429608I1559999J1235515D01*
G01*
X147497600Y-82499200D02*
X146547600Y-82499200D01*
X146547600Y-83419200D02*
X146547600Y-81579200D01*
X146547600Y-81579200D02*
X142707600Y-81579200D01*
X142707600Y-83419200D02*
X146547600Y-83419200D01*
X142707600Y-81579200D02*
X142707600Y-83419200D01*
X141757600Y-82499200D02*
X142707600Y-82499200D01*
X101809200Y-99816400D02*
X103067200Y-99816400D01*
X101809200Y-101656400D02*
X103067200Y-101656400D01*
X110176000Y-102145400D02*
X110176000Y-120165400D01*
X110176000Y-120165400D02*
X120456000Y-120165400D01*
X112666000Y-102205400D02*
X112666000Y-120105400D01*
X112666000Y-120105400D02*
X117966000Y-120105400D01*
X114316000Y-102205400D02*
X112666000Y-102205400D01*
X117966000Y-102205400D02*
X116316000Y-102205400D01*
X117966000Y-120105400D02*
X117966000Y-102205400D01*
X120456000Y-102145400D02*
X110176000Y-102145400D01*
X120456000Y-120165400D02*
X120456000Y-102145400D01*
X114316000Y-102205400D02*
G75*
G03*
X116316000Y-102205400I1000000J0D01*
G01*
X127814400Y-123652800D02*
X129072400Y-123652800D01*
X127814400Y-125492800D02*
X129072400Y-125492800D01*
X141238000Y-125507000D02*
X139980000Y-125507000D01*
X141238000Y-123667000D02*
X139980000Y-123667000D01*
X139960000Y-99770600D02*
X141218000Y-99770600D01*
X139960000Y-101610600D02*
X141218000Y-101610600D01*
X89097600Y-58896600D02*
X89097600Y-57638600D01*
X90937600Y-58896600D02*
X90937600Y-57638600D01*
D10*
X89368000Y-106546000D02*
X91368000Y-106546000D01*
X80568000Y-106546000D02*
X86368000Y-106546000D01*
X80568000Y-106546000D02*
X80568000Y-121546000D01*
X93168000Y-108046000D02*
X93168000Y-120046000D01*
X89368000Y-121546000D02*
X91368000Y-121546000D01*
X80568000Y-121546000D02*
X86368000Y-121546000D01*
D15*
X94505500Y-111058500D02*
G75*
G03*
X94505500Y-111058500I-125000J0D01*
G01*
D14*
X135449000Y-125864000D02*
X135449000Y-143884000D01*
X135449000Y-143884000D02*
X145729000Y-143884000D01*
X137939000Y-125924000D02*
X137939000Y-143824000D01*
X137939000Y-143824000D02*
X143239000Y-143824000D01*
X139589000Y-125924000D02*
X137939000Y-125924000D01*
X143239000Y-125924000D02*
X141589000Y-125924000D01*
X143239000Y-143824000D02*
X143239000Y-125924000D01*
X145729000Y-125864000D02*
X135449000Y-125864000D01*
X145729000Y-143884000D02*
X145729000Y-125864000D01*
X139589000Y-125924000D02*
G75*
G03*
X141589000Y-125924000I1000000J0D01*
G01*
X95052000Y-139966000D02*
X95052000Y-141466000D01*
X96302000Y-143966000D02*
X100802000Y-143966000D01*
X100802000Y-137466000D02*
X96302000Y-137466000D01*
X102052000Y-141466000D02*
X102052000Y-139966000D01*
X135509800Y-102033800D02*
X135509800Y-122593800D01*
X135509800Y-122593800D02*
X145789800Y-122593800D01*
X137999800Y-102093800D02*
X137999800Y-122533800D01*
X137999800Y-122533800D02*
X143299800Y-122533800D01*
X139649800Y-102093800D02*
X137999800Y-102093800D01*
X143299800Y-102093800D02*
X141649800Y-102093800D01*
X143299800Y-122533800D02*
X143299800Y-102093800D01*
X145789800Y-102033800D02*
X135509800Y-102033800D01*
X145789800Y-122593800D02*
X145789800Y-102033800D01*
X139649800Y-102093800D02*
G75*
G03*
X141649800Y-102093800I1000000J0D01*
G01*
X151771000Y-110337000D02*
X153029000Y-110337000D01*
X151771000Y-112177000D02*
X153029000Y-112177000D01*
X167392000Y-97682800D02*
X168650000Y-97682800D01*
X167392000Y-99522800D02*
X168650000Y-99522800D01*
X181362000Y-53436000D02*
X182620000Y-53436000D01*
X181362000Y-55276000D02*
X182620000Y-55276000D01*
X184616400Y-115528400D02*
X184616400Y-74768400D01*
X184616400Y-115528400D02*
X182016400Y-115528400D01*
X184616400Y-74768400D02*
X179416400Y-74768400D01*
X182016400Y-115528400D02*
X182016400Y-112928400D01*
X182016400Y-112928400D02*
X179416400Y-112928400D01*
X180746400Y-115528400D02*
X179416400Y-115528400D01*
X179416400Y-115528400D02*
X179416400Y-114198400D01*
X179416400Y-112928400D02*
X179416400Y-74768400D01*
X127463200Y-99798000D02*
X128721200Y-99798000D01*
X127463200Y-101638000D02*
X128721200Y-101638000D01*
D16*
X100368000Y-136072000D02*
X85868000Y-136072000D01*
X100368000Y-134122000D02*
X100368000Y-136072000D01*
X100368000Y-127072000D02*
X100368000Y-128922000D01*
X85868000Y-136072000D02*
X85868000Y-127072000D01*
X85868000Y-127072000D02*
X100368000Y-127072000D01*
D14*
X114753200Y-121045800D02*
X116011200Y-121045800D01*
X114753200Y-122885800D02*
X116011200Y-122885800D01*
X122936800Y-102117000D02*
X122936800Y-120137000D01*
X122936800Y-120137000D02*
X133216800Y-120137000D01*
X125426800Y-102177000D02*
X125426800Y-120077000D01*
X125426800Y-120077000D02*
X130726800Y-120077000D01*
X127076800Y-102177000D02*
X125426800Y-102177000D01*
X130726800Y-102177000D02*
X129076800Y-102177000D01*
X130726800Y-120077000D02*
X130726800Y-102177000D01*
X133216800Y-102117000D02*
X122936800Y-102117000D01*
X133216800Y-120137000D02*
X133216800Y-102117000D01*
X127076800Y-102177000D02*
G75*
G03*
X129076800Y-102177000I1000000J0D01*
G01*
X131414000Y-91053000D02*
X131414000Y-89795000D01*
X133254000Y-91053000D02*
X133254000Y-89795000D01*
X123267000Y-125859000D02*
X123267000Y-143879000D01*
X123267000Y-143879000D02*
X133547000Y-143879000D01*
X125757000Y-125919000D02*
X125757000Y-143819000D01*
X125757000Y-143819000D02*
X131057000Y-143819000D01*
X127407000Y-125919000D02*
X125757000Y-125919000D01*
X131057000Y-125919000D02*
X129407000Y-125919000D01*
X131057000Y-143819000D02*
X131057000Y-125919000D01*
X133547000Y-125859000D02*
X123267000Y-125859000D01*
X133547000Y-143879000D02*
X133547000Y-125859000D01*
X127407000Y-125919000D02*
G75*
G03*
X129407000Y-125919000I1000000J0D01*
G01*
%LPC*%
D17*
X90017600Y-71601200D03*
D18*
X90017600Y-74141200D03*
X90017600Y-76681200D03*
X90017600Y-79221200D03*
D19*
X104323200Y-46415000D03*
X101823200Y-46415000D03*
D20*
X140817600Y-84997600D03*
D21*
X148437600Y-84997600D03*
D20*
X140817600Y-77317600D03*
D21*
X148437600Y-77317600D03*
D19*
X123083000Y-46415000D03*
X125583000Y-46415000D03*
D20*
X108077000Y-136525000D03*
D21*
X108077000Y-128905000D03*
D22*
X90000000Y-141140000D03*
D19*
X93268800Y-123190000D03*
X93268800Y-125690000D03*
D23*
X95448200Y-49123600D03*
D24*
X95448200Y-51663600D03*
X95448200Y-54203600D03*
X95448200Y-56743600D03*
X95448200Y-59283600D03*
X95448200Y-61823600D03*
X95448200Y-64363600D03*
X95448200Y-66903600D03*
X95448200Y-69443600D03*
X95448200Y-71983600D03*
X95448200Y-74523600D03*
X95448200Y-77063600D03*
X95448200Y-79603600D03*
X95448200Y-82143600D03*
X95448200Y-84683600D03*
X95448200Y-87223600D03*
X95448200Y-89763600D03*
X95448200Y-92303600D03*
X95448200Y-94843600D03*
X95448200Y-97383600D03*
X110688200Y-97383600D03*
X110688200Y-94843600D03*
X110688200Y-92303600D03*
X110688200Y-89763600D03*
X110688200Y-87223600D03*
X110688200Y-84683600D03*
X110688200Y-82143600D03*
X110688200Y-79603600D03*
X110688200Y-77063600D03*
X110688200Y-74523600D03*
X110688200Y-71983600D03*
X110688200Y-69443600D03*
X110688200Y-66903600D03*
X110688200Y-64363600D03*
X110688200Y-61823600D03*
X110688200Y-59283600D03*
X110688200Y-56743600D03*
X110688200Y-54203600D03*
X110688200Y-51663600D03*
X110688200Y-49123600D03*
D23*
X136965000Y-49073600D03*
D24*
X136965000Y-51613600D03*
X136965000Y-54153600D03*
X136965000Y-56693600D03*
X136965000Y-59233600D03*
X136965000Y-61773600D03*
X136965000Y-64313600D03*
X136965000Y-66853600D03*
X136965000Y-69393600D03*
X136965000Y-71933600D03*
X136965000Y-74473600D03*
X136965000Y-77013600D03*
X136965000Y-79553600D03*
X136965000Y-82093600D03*
X136965000Y-84633600D03*
X136965000Y-87173600D03*
X136965000Y-89713600D03*
X136965000Y-92253600D03*
X136965000Y-94793600D03*
X136965000Y-97333600D03*
X152205000Y-97333600D03*
X152205000Y-94793600D03*
X152205000Y-92253600D03*
X152205000Y-89713600D03*
X152205000Y-87173600D03*
X152205000Y-84633600D03*
X152205000Y-82093600D03*
X152205000Y-79553600D03*
X152205000Y-77013600D03*
X152205000Y-74473600D03*
X152205000Y-71933600D03*
X152205000Y-69393600D03*
X152205000Y-66853600D03*
X152205000Y-64313600D03*
X152205000Y-61773600D03*
X152205000Y-59233600D03*
X152205000Y-56693600D03*
X152205000Y-54153600D03*
X152205000Y-51613600D03*
X152205000Y-49073600D03*
D19*
X145840000Y-46415000D03*
X143340000Y-46415000D03*
D23*
X116645000Y-49123600D03*
D24*
X116645000Y-51663600D03*
X116645000Y-54203600D03*
X116645000Y-56743600D03*
X116645000Y-59283600D03*
X116645000Y-61823600D03*
X116645000Y-64363600D03*
X116645000Y-66903600D03*
X116645000Y-69443600D03*
X116645000Y-71983600D03*
X116645000Y-74523600D03*
X116645000Y-77063600D03*
X116645000Y-79603600D03*
X116645000Y-82143600D03*
X131885000Y-82143600D03*
X131885000Y-79603600D03*
X131885000Y-77063600D03*
X131885000Y-74523600D03*
X131885000Y-71983600D03*
X131885000Y-69443600D03*
X131885000Y-66903600D03*
X131885000Y-64363600D03*
X131885000Y-61823600D03*
X131885000Y-59283600D03*
X131885000Y-56743600D03*
X131885000Y-54203600D03*
X131885000Y-51663600D03*
X131885000Y-49123600D03*
D23*
X148717000Y-113924000D03*
D24*
X148717000Y-116464000D03*
X148717000Y-119004000D03*
X148717000Y-121544000D03*
X148717000Y-124084000D03*
X148717000Y-126624000D03*
X148717000Y-129164000D03*
X148717000Y-131704000D03*
X148717000Y-134244000D03*
X148717000Y-136784000D03*
X156337000Y-136784000D03*
X156337000Y-134244000D03*
X156337000Y-131704000D03*
X156337000Y-129164000D03*
X156337000Y-126624000D03*
X156337000Y-124084000D03*
X156337000Y-121544000D03*
X156337000Y-119004000D03*
X156337000Y-116464000D03*
X156337000Y-113924000D03*
D19*
X114056000Y-100848000D03*
X116556000Y-100848000D03*
X90017600Y-96627000D03*
X90017600Y-94127000D03*
D23*
X98562000Y-103500000D03*
D24*
X98562000Y-106040000D03*
X98562000Y-108580000D03*
X98562000Y-111120000D03*
X98562000Y-113660000D03*
X98562000Y-116200000D03*
X98562000Y-118740000D03*
X106182000Y-118740000D03*
X106182000Y-116200000D03*
X106182000Y-113660000D03*
X106182000Y-111120000D03*
X106182000Y-108580000D03*
X106182000Y-106040000D03*
X106182000Y-103500000D03*
D23*
X160375000Y-101015000D03*
D24*
X160375000Y-103555000D03*
X160375000Y-106095000D03*
X160375000Y-108635000D03*
X160375000Y-111175000D03*
X160375000Y-113715000D03*
X160375000Y-116255000D03*
X160375000Y-118795000D03*
X160375000Y-121335000D03*
X160375000Y-123875000D03*
X160375000Y-126415000D03*
X160375000Y-128955000D03*
X160375000Y-131495000D03*
X160375000Y-134035000D03*
X175615000Y-134035000D03*
X175615000Y-131495000D03*
X175615000Y-128955000D03*
X175615000Y-126415000D03*
X175615000Y-123875000D03*
X175615000Y-121335000D03*
X175615000Y-118795000D03*
X175615000Y-116255000D03*
X175615000Y-113715000D03*
X175615000Y-111175000D03*
X175615000Y-108635000D03*
X175615000Y-106095000D03*
X175615000Y-103555000D03*
X175615000Y-101015000D03*
D23*
X111633000Y-124704000D03*
D24*
X111633000Y-127244000D03*
X111633000Y-129784000D03*
X111633000Y-132324000D03*
X111633000Y-134864000D03*
X111633000Y-137404000D03*
X111633000Y-139944000D03*
X111633000Y-142484000D03*
X119253000Y-142484000D03*
X119253000Y-139944000D03*
X119253000Y-137404000D03*
X119253000Y-134864000D03*
X119253000Y-132324000D03*
X119253000Y-129784000D03*
X119253000Y-127244000D03*
X119253000Y-124704000D03*
D25*
X159477500Y-57610000D03*
D26*
X159477500Y-60150000D03*
X159477500Y-62690000D03*
X159477500Y-65230000D03*
X159477500Y-67770000D03*
X159477500Y-70310000D03*
X159477500Y-72850000D03*
X159477500Y-75390000D03*
X159477500Y-77930000D03*
X159477500Y-80470000D03*
X159477500Y-83010000D03*
X159477500Y-85550000D03*
X159477500Y-88090000D03*
X159477500Y-90630000D03*
X174717500Y-90630000D03*
X174717500Y-88090000D03*
X174717500Y-85550000D03*
X174717500Y-83010000D03*
X174717500Y-80470000D03*
X174717500Y-77930000D03*
X174717500Y-75390000D03*
X174717500Y-72850000D03*
X174717500Y-70310000D03*
X174717500Y-67770000D03*
X174717500Y-65230000D03*
X174717500Y-62690000D03*
X174717500Y-60150000D03*
X174717500Y-57610000D03*
D22*
X182000000Y-49140000D03*
D20*
X148437600Y-79917600D03*
D21*
X140817600Y-79917600D03*
D23*
X128168400Y-87477600D03*
D19*
X120548400Y-87477600D03*
X120548400Y-95097600D03*
X128168400Y-95097600D03*
D27*
X87934800Y-124841000D03*
D28*
X89204800Y-123571000D03*
X90474800Y-124841000D03*
D29*
X105537000Y-141351000D03*
D30*
X108077000Y-141351000D03*
D20*
X148437600Y-82499200D03*
D21*
X140817600Y-82499200D03*
D19*
X101188200Y-100736400D03*
X103688200Y-100736400D03*
D23*
X111506000Y-103535400D03*
D24*
X111506000Y-106075400D03*
X111506000Y-108615400D03*
X111506000Y-111155400D03*
X111506000Y-113695400D03*
X111506000Y-116235400D03*
X111506000Y-118775400D03*
X119126000Y-118775400D03*
X119126000Y-116235400D03*
X119126000Y-113695400D03*
X119126000Y-111155400D03*
X119126000Y-108615400D03*
X119126000Y-106075400D03*
X119126000Y-103535400D03*
D19*
X127193400Y-124572800D03*
X129693400Y-124572800D03*
X141859000Y-124587000D03*
X139359000Y-124587000D03*
X139339000Y-100690600D03*
X141839000Y-100690600D03*
X90017600Y-59517600D03*
X90017600Y-57017600D03*
D31*
X92868000Y-107046000D03*
X87868000Y-107046000D03*
X92868000Y-121046000D03*
X87868000Y-121046000D03*
D17*
X90368000Y-111046000D03*
D31*
X90368000Y-114046000D03*
X90368000Y-117046000D03*
D23*
X136779000Y-127254000D03*
D24*
X136779000Y-129794000D03*
X136779000Y-132334000D03*
X136779000Y-134874000D03*
X136779000Y-137414000D03*
X136779000Y-139954000D03*
X136779000Y-142494000D03*
X144399000Y-142494000D03*
X144399000Y-139954000D03*
X144399000Y-137414000D03*
X144399000Y-134874000D03*
X144399000Y-132334000D03*
X144399000Y-129794000D03*
X144399000Y-127254000D03*
D32*
X95302000Y-138466000D03*
X101802000Y-138466000D03*
X95302000Y-142966000D03*
X101802000Y-142966000D03*
D23*
X136839800Y-103423800D03*
D24*
X136839800Y-105963800D03*
X136839800Y-108503800D03*
X136839800Y-111043800D03*
X136839800Y-113583800D03*
X136839800Y-116123800D03*
X136839800Y-118663800D03*
X136839800Y-121203800D03*
X144459800Y-121203800D03*
X144459800Y-118663800D03*
X144459800Y-116123800D03*
X144459800Y-113583800D03*
X144459800Y-111043800D03*
X144459800Y-108503800D03*
X144459800Y-105963800D03*
X144459800Y-103423800D03*
D19*
X151150000Y-111257000D03*
X153650000Y-111257000D03*
X166771000Y-98602800D03*
X169271000Y-98602800D03*
X180741000Y-54356000D03*
X183241000Y-54356000D03*
D22*
X182000000Y-141140000D03*
D17*
X180746400Y-114198400D03*
D18*
X183286400Y-114198400D03*
X180746400Y-111658400D03*
X183286400Y-111658400D03*
X180746400Y-109118400D03*
X183286400Y-109118400D03*
X180746400Y-106578400D03*
X183286400Y-106578400D03*
X180746400Y-104038400D03*
X183286400Y-104038400D03*
X180746400Y-101498400D03*
X183286400Y-101498400D03*
X180746400Y-98958400D03*
X183286400Y-98958400D03*
X180746400Y-96418400D03*
X183286400Y-96418400D03*
X180746400Y-93878400D03*
X183286400Y-93878400D03*
X180746400Y-91338400D03*
X183286400Y-91338400D03*
X180746400Y-88798400D03*
X183286400Y-88798400D03*
X180746400Y-86258400D03*
X183286400Y-86258400D03*
X180746400Y-83718400D03*
X183286400Y-83718400D03*
X180746400Y-81178400D03*
X183286400Y-81178400D03*
X180746400Y-78638400D03*
X183286400Y-78638400D03*
X180746400Y-76098400D03*
X183286400Y-76098400D03*
D19*
X126842200Y-100718000D03*
X129342200Y-100718000D03*
D33*
X99568000Y-131572000D03*
D34*
X93568000Y-131572000D03*
D22*
X90000000Y-49140000D03*
D19*
X114132200Y-121965800D03*
X116632200Y-121965800D03*
D23*
X124266800Y-103507000D03*
D24*
X124266800Y-106047000D03*
X124266800Y-108587000D03*
X124266800Y-111127000D03*
X124266800Y-113667000D03*
X124266800Y-116207000D03*
X124266800Y-118747000D03*
X131886800Y-118747000D03*
X131886800Y-116207000D03*
X131886800Y-113667000D03*
X131886800Y-111127000D03*
X131886800Y-108587000D03*
X131886800Y-106047000D03*
X131886800Y-103507000D03*
D19*
X132334000Y-91674000D03*
X132334000Y-89174000D03*
D23*
X124597000Y-127249000D03*
D24*
X124597000Y-129789000D03*
X124597000Y-132329000D03*
X124597000Y-134869000D03*
X124597000Y-137409000D03*
X124597000Y-139949000D03*
X124597000Y-142489000D03*
X132217000Y-142489000D03*
X132217000Y-139949000D03*
X132217000Y-137409000D03*
X132217000Y-134869000D03*
X132217000Y-132329000D03*
X132217000Y-129789000D03*
X132217000Y-127249000D03*
D17*
X161650000Y-141665000D03*
D18*
X161650000Y-139125000D03*
X164190000Y-141665000D03*
X164190000Y-139125000D03*
X166730000Y-141665000D03*
X166730000Y-139125000D03*
X169270000Y-141665000D03*
X169270000Y-139125000D03*
X171810000Y-141665000D03*
X171810000Y-139125000D03*
X174350000Y-141665000D03*
X174350000Y-139125000D03*
D17*
X183261000Y-57404000D03*
D18*
X180721000Y-57404000D03*
X183261000Y-59944000D03*
X180721000Y-59944000D03*
X183261000Y-62484000D03*
X180721000Y-62484000D03*
%LPD*%
M02*
